<?xml version="1.0" encoding="utf-8"?>
<!-- Generator: Adobe Illustrator 22.1.0, SVG Export Plug-In . SVG Version: 6.00 Build 0)  -->
<svg version="1.1" xmlns="http://www.w3.org/2000/svg" xmlns:xlink="http://www.w3.org/1999/xlink" x="0px" y="0px"
	 viewBox="0 0 292.5 292.5" style="enable-background:new 0 0 292.5 292.5;" xml:space="preserve">
<style type="text/css">
	.st0{fill:url(#SVGID_1_);}
	.st1{fill:#E1A687;}
	.st2{opacity:0.6;fill:url(#SVGID_2_);}
	.st3{opacity:0.6;fill:url(#SVGID_3_);}
	.st4{fill:url(#SVGID_4_);}
	.st5{fill:#CD7B62;}
	.st6{fill:#91594C;}
	.st7{fill:url(#SVGID_5_);}
	.st8{fill:#BA534B;}
	.st9{fill:#C54037;}
	.st10{fill:#D3514A;}
	.st11{fill:#D3E9F4;}
	.st12{fill:#E1BB60;}
	.st13{fill:#78E6F9;}
	.st14{opacity:0.8;fill:#78E6F9;}
	.st15{fill:none;stroke:#CD7B62;stroke-miterlimit:10;}
	.st16{clip-path:url(#SVGID_7_);fill:#A4F6FF;}
	.st17{clip-path:url(#SVGID_9_);}
	.st18{fill:#A4F6FF;}
	.st19{fill:url(#SVGID_10_);}
	.st20{opacity:0.6;fill:url(#SVGID_11_);}
	.st21{opacity:0.6;fill:url(#SVGID_12_);}
	.st22{fill:url(#SVGID_13_);}
	.st23{fill:url(#SVGID_14_);}
	.st24{clip-path:url(#SVGID_16_);fill:#A4F6FF;}
	.st25{clip-path:url(#SVGID_18_);}
	.st26{fill:url(#SVGID_19_);}
	.st27{opacity:0.6;fill:url(#SVGID_20_);}
	.st28{fill:url(#SVGID_21_);}
	.st29{clip-path:url(#SVGID_23_);fill:#62933F;}
	.st30{clip-path:url(#SVGID_23_);fill:#231F20;}
	.st31{fill:url(#SVGID_24_);}
	.st32{clip-path:url(#SVGID_26_);fill:#62933F;}
	.st33{clip-path:url(#SVGID_26_);fill:#231F20;}
	.st34{opacity:0.6;fill:url(#SVGID_27_);}
	.st35{fill:url(#SVGID_28_);}
	.st36{fill:#FFFFFF;}
	.st37{fill:url(#SVGID_29_);}
	.st38{opacity:0.6;fill:url(#SVGID_30_);}
	.st39{fill:url(#SVGID_31_);}
	.st40{clip-path:url(#SVGID_33_);fill:#62933F;}
	.st41{clip-path:url(#SVGID_33_);fill:#231F20;}
	.st42{fill:url(#SVGID_34_);}
	.st43{clip-path:url(#SVGID_36_);fill:#62933F;}
	.st44{clip-path:url(#SVGID_36_);fill:#231F20;}
	.st45{opacity:0.6;fill:url(#SVGID_37_);}
	.st46{fill:url(#SVGID_38_);}
	.st47{fill:url(#SVGID_39_);}
	.st48{opacity:0.6;fill:url(#SVGID_40_);}
	.st49{fill:url(#SVGID_41_);}
	.st50{clip-path:url(#SVGID_43_);fill:#62933F;}
	.st51{clip-path:url(#SVGID_43_);fill:#231F20;}
	.st52{fill:url(#SVGID_44_);}
	.st53{clip-path:url(#SVGID_46_);fill:#62933F;}
	.st54{clip-path:url(#SVGID_46_);fill:#231F20;}
	.st55{opacity:0.6;fill:url(#SVGID_47_);}
	.st56{fill:url(#SVGID_48_);}
	.st57{fill:url(#SVGID_49_);}
	.st58{fill:url(#SVGID_50_);}
	.st59{opacity:0.6;fill:url(#SVGID_51_);}
	.st60{fill:url(#SVGID_52_);}
	.st61{clip-path:url(#SVGID_54_);fill:#62933F;}
	.st62{clip-path:url(#SVGID_54_);fill:#231F20;}
	.st63{fill:url(#SVGID_55_);}
	.st64{clip-path:url(#SVGID_57_);fill:#62933F;}
	.st65{clip-path:url(#SVGID_57_);fill:#231F20;}
	.st66{opacity:0.6;fill:url(#SVGID_58_);}
	.st67{fill:url(#SVGID_59_);}
	.st68{fill:url(#SVGID_60_);}
	.st69{fill:#E37830;}
	.st70{fill:#E0902F;}
	.st71{fill:url(#SVGID_61_);}
	.st72{fill:url(#SVGID_62_);}
	.st73{fill:#83441E;}
	.st74{opacity:0.2;fill:#E37830;}
	.st75{fill:#DDA447;}
	.st76{opacity:0.7;fill:#F7E8D3;}
	.st77{fill:#BE8739;}
	.st78{fill:#F3FAFD;}
	.st79{opacity:0.7;fill:url(#SVGID_63_);}
	.st80{fill:#EEBB72;}
	.st81{fill:none;}
	.st82{fill:url(#SVGID_64_);}
	.st83{fill:url(#SVGID_65_);}
	.st84{fill:url(#SVGID_66_);}
	.st85{fill:url(#SVGID_67_);}
	.st86{fill:url(#SVGID_68_);}
	.st87{fill:url(#SVGID_69_);}
	.st88{fill:url(#SVGID_70_);}
	.st89{fill:url(#SVGID_71_);}
	.st90{fill:url(#SVGID_72_);}
	.st91{fill:url(#SVGID_73_);}
	.st92{fill:url(#SVGID_74_);}
	.st93{fill:url(#SVGID_75_);}
	.st94{fill:url(#SVGID_76_);}
	.st95{fill:url(#SVGID_77_);}
	.st96{fill:url(#SVGID_78_);}
	.st97{fill:url(#SVGID_79_);}
	.st98{fill:url(#SVGID_80_);}
	.st99{fill:url(#SVGID_81_);}
	.st100{fill:url(#SVGID_82_);}
	.st101{fill:url(#SVGID_83_);}
	.st102{fill:#EA833D;}
	.st103{fill:url(#SVGID_84_);}
	.st104{fill:url(#SVGID_85_);}
	.st105{fill:url(#SVGID_86_);}
	.st106{fill:url(#SVGID_87_);}
	.st107{fill:#A2E8F9;}
	.st108{fill:url(#SVGID_88_);}
	.st109{fill:url(#SVGID_89_);}
	.st110{opacity:0.7;fill:url(#SVGID_90_);}
	.st111{fill:url(#SVGID_91_);}
	.st112{fill:url(#SVGID_92_);}
	.st113{fill:url(#SVGID_93_);}
	.st114{fill:url(#SVGID_94_);}
	.st115{fill:url(#SVGID_95_);}
	.st116{fill:url(#SVGID_96_);}
	.st117{fill:url(#SVGID_97_);}
	.st118{fill:url(#SVGID_98_);}
	.st119{fill:url(#SVGID_99_);}
	.st120{fill:url(#SVGID_100_);}
	.st121{fill:url(#SVGID_101_);}
	.st122{fill:url(#SVGID_102_);}
	.st123{fill:url(#SVGID_103_);}
	.st124{fill:url(#SVGID_104_);}
	.st125{fill:url(#SVGID_105_);}
	.st126{fill:url(#SVGID_106_);}
	.st127{fill:url(#SVGID_107_);}
	.st128{fill:url(#SVGID_108_);}
	.st129{fill:url(#SVGID_109_);}
	.st130{fill:url(#SVGID_110_);}
	.st131{fill:url(#SVGID_111_);}
	.st132{fill:url(#SVGID_112_);}
	.st133{fill:url(#SVGID_113_);}
	.st134{fill:url(#SVGID_114_);}
	.st135{fill:url(#SVGID_115_);}
	.st136{fill:url(#SVGID_116_);}
	.st137{opacity:0.7;fill:url(#SVGID_117_);}
	.st138{fill:url(#SVGID_118_);}
	.st139{fill:url(#SVGID_119_);}
	.st140{fill:url(#SVGID_120_);}
	.st141{fill:url(#SVGID_121_);}
	.st142{fill:url(#SVGID_122_);}
	.st143{fill:url(#SVGID_123_);}
	.st144{fill:url(#SVGID_124_);}
	.st145{fill:url(#SVGID_125_);}
	.st146{fill:url(#SVGID_126_);}
	.st147{fill:url(#SVGID_127_);}
	.st148{fill:url(#SVGID_128_);}
	.st149{fill:url(#SVGID_129_);}
	.st150{fill:url(#SVGID_130_);}
	.st151{fill:url(#SVGID_131_);}
	.st152{fill:url(#SVGID_132_);}
	.st153{fill:url(#SVGID_133_);}
	.st154{fill:url(#SVGID_134_);}
	.st155{fill:url(#SVGID_135_);}
	.st156{fill:url(#SVGID_136_);}
	.st157{fill:url(#SVGID_137_);}
	.st158{fill:url(#SVGID_138_);}
	.st159{fill:url(#SVGID_139_);}
	.st160{fill:url(#SVGID_140_);}
	.st161{fill:url(#SVGID_141_);}
	.st162{fill:#BF8D43;}
	.st163{fill:url(#SVGID_142_);}
	.st164{fill:url(#SVGID_143_);}
	.st165{opacity:0.7;fill:url(#SVGID_144_);}
	.st166{fill:url(#SVGID_145_);}
	.st167{fill:url(#SVGID_146_);}
	.st168{fill:url(#SVGID_147_);}
	.st169{fill:url(#SVGID_148_);}
	.st170{fill:url(#SVGID_149_);}
	.st171{fill:url(#SVGID_150_);}
	.st172{fill:url(#SVGID_151_);}
	.st173{fill:url(#SVGID_152_);}
	.st174{fill:url(#SVGID_153_);}
	.st175{fill:url(#SVGID_154_);}
	.st176{fill:url(#SVGID_155_);}
	.st177{fill:url(#SVGID_156_);}
	.st178{fill:url(#SVGID_157_);}
	.st179{fill:url(#SVGID_158_);}
	.st180{fill:url(#SVGID_159_);}
	.st181{fill:url(#SVGID_160_);}
	.st182{fill:url(#SVGID_161_);}
	.st183{fill:url(#SVGID_162_);}
	.st184{fill:url(#SVGID_163_);}
	.st185{fill:url(#SVGID_164_);}
	.st186{fill:url(#SVGID_165_);}
	.st187{fill:url(#SVGID_166_);}
	.st188{fill:url(#SVGID_167_);}
	.st189{fill:url(#SVGID_168_);}
	.st190{fill:url(#SVGID_169_);}
	.st191{fill:url(#SVGID_170_);}
	.st192{opacity:0.7;fill:url(#SVGID_171_);}
	.st193{fill:url(#SVGID_172_);}
	.st194{fill:url(#SVGID_173_);}
	.st195{fill:url(#SVGID_174_);}
	.st196{fill:url(#SVGID_175_);}
	.st197{fill:url(#SVGID_176_);}
	.st198{fill:url(#SVGID_177_);}
	.st199{fill:url(#SVGID_178_);}
	.st200{fill:url(#SVGID_179_);}
	.st201{fill:url(#SVGID_180_);}
	.st202{fill:url(#SVGID_181_);}
	.st203{fill:url(#SVGID_182_);}
	.st204{fill:url(#SVGID_183_);}
	.st205{fill:url(#SVGID_184_);}
	.st206{fill:url(#SVGID_185_);}
	.st207{fill:url(#SVGID_186_);}
	.st208{fill:url(#SVGID_187_);}
	.st209{fill:url(#SVGID_188_);}
	.st210{fill:url(#SVGID_189_);}
	.st211{fill:url(#SVGID_190_);}
	.st212{fill:url(#SVGID_191_);}
	.st213{fill:url(#SVGID_192_);}
	.st214{fill:url(#SVGID_193_);}
	.st215{fill:url(#SVGID_194_);}
	.st216{fill:url(#SVGID_195_);}
	.st217{fill:url(#SVGID_196_);}
	.st218{fill:url(#SVGID_197_);}
	.st219{opacity:0.7;fill:url(#SVGID_198_);}
	.st220{fill:url(#SVGID_199_);}
	.st221{fill:url(#SVGID_200_);}
	.st222{fill:url(#SVGID_201_);}
	.st223{fill:url(#SVGID_202_);}
	.st224{fill:url(#SVGID_203_);}
	.st225{fill:url(#SVGID_204_);}
	.st226{fill:url(#SVGID_205_);}
	.st227{fill:url(#SVGID_206_);}
	.st228{fill:url(#SVGID_207_);}
	.st229{fill:url(#SVGID_208_);}
	.st230{fill:url(#SVGID_209_);}
	.st231{fill:url(#SVGID_210_);}
	.st232{fill:url(#SVGID_211_);}
	.st233{fill:url(#SVGID_212_);}
	.st234{fill:url(#SVGID_213_);}
	.st235{fill:url(#SVGID_214_);}
	.st236{fill:url(#SVGID_215_);}
	.st237{fill:url(#SVGID_216_);}
	.st238{fill:url(#SVGID_217_);}
	.st239{fill:url(#SVGID_218_);}
	.st240{fill:url(#SVGID_219_);}
	.st241{fill:url(#SVGID_220_);}
	.st242{fill:url(#SVGID_221_);}
	.st243{fill:url(#SVGID_222_);}
	.st244{fill:#E8492D;}
	.st245{fill:#E7E2DE;}
	.st246{fill:url(#SVGID_223_);}
	.st247{fill:#CECDCB;}
	.st248{fill:#818282;}
	.st249{fill:#CECDCB;stroke:#CECDCB;stroke-miterlimit:10;}
	.st250{fill:#E8E8E8;}
	.st251{fill:#EFEFEF;}
	.st252{fill:url(#SVGID_224_);}
	.st253{fill:url(#SVGID_225_);}
	.st254{fill:#FFFF00;}
	.st255{fill:#22AF17;}
	.st256{opacity:0.7;}
	.st257{fill:#FFFF2B;}
	.st258{fill:#FFFF55;}
	.st259{fill:#FFFF80;}
	.st260{fill:#FFFFAA;}
	.st261{fill:#FFFFD4;}
	.st262{fill:url(#SVGID_226_);}
	.st263{fill:url(#SVGID_227_);}
	.st264{fill:url(#SVGID_228_);}
	.st265{fill:#232323;}
	.st266{fill:#3D3D3D;}
	.st267{fill:#C66259;}
	.st268{opacity:0.2;fill:#353535;}
	.st269{fill:#817979;}
	.st270{opacity:0.3;}
	.st271{fill:#353535;}
	.st272{fill:#382B28;}
	.st273{fill:#231F20;}
	.st274{opacity:0.1;}
	.st275{fill:url(#SVGID_229_);}
	.st276{fill:url(#SVGID_230_);}
	.st277{fill:#2B2B2B;}
	.st278{fill:#161616;}
	.st279{opacity:0.5;}
	.st280{fill:#A6A8AB;}
	.st281{fill:#E2E2E2;}
	.st282{opacity:0.3;fill:#353535;}
	.st283{fill:url(#SVGID_231_);}
	.st284{fill:url(#SVGID_232_);}
	.st285{fill:url(#SVGID_233_);}
	.st286{fill:url(#SVGID_234_);}
	.st287{fill:#B54C47;}
	.st288{opacity:0.8;fill:#88DFED;}
	.st289{fill:#E3E4E5;}
	.st290{fill:url(#SVGID_235_);}
	.st291{fill:url(#SVGID_236_);}
	.st292{fill:url(#SVGID_237_);}
	.st293{fill:url(#SVGID_238_);}
	.st294{opacity:0.2;}
	.st295{fill:#6D5C57;}
	.st296{fill:#68493F;}
	.st297{opacity:0.2;fill:url(#SVGID_239_);}
	.st298{opacity:0.2;fill:url(#SVGID_240_);}
	.st299{opacity:0.5;fill:#6D5C57;}
	.st300{fill:url(#SVGID_241_);}
	.st301{fill:#7C8B8E;}
	.st302{fill:url(#SVGID_242_);}
	.st303{fill:url(#SVGID_243_);}
	.st304{fill:#3D2219;}
	.st305{fill:#332E2D;}
	.st306{fill:#E6E6E6;}
	.st307{fill:url(#SVGID_244_);}
	.st308{fill:url(#SVGID_245_);}
	.st309{fill:url(#SVGID_246_);}
	.st310{fill:url(#SVGID_247_);}
	.st311{opacity:0.2;fill:url(#SVGID_248_);}
	.st312{opacity:0.2;fill:url(#SVGID_249_);}
	.st313{fill:url(#SVGID_250_);}
	.st314{fill:url(#SVGID_251_);}
	.st315{fill:url(#SVGID_252_);}
	.st316{fill:url(#SVGID_253_);}
	.st317{fill:url(#SVGID_254_);}
	.st318{fill:url(#SVGID_255_);}
	.st319{fill:url(#SVGID_256_);}
	.st320{fill:none;stroke:url(#SVGID_257_);stroke-miterlimit:10;}
	.st321{fill:url(#SVGID_258_);}
	.st322{fill:#301812;}
	.st323{opacity:0.2;fill:url(#SVGID_259_);}
	.st324{opacity:0.2;fill:url(#SVGID_260_);}
	.st325{fill:url(#SVGID_261_);}
	.st326{fill:#B0CDD1;}
	.st327{fill:url(#SVGID_262_);}
	.st328{fill:url(#SVGID_263_);}
	.st329{fill:none;stroke:#231F20;stroke-width:6;stroke-miterlimit:10;}
	.st330{fill:url(#SVGID_264_);}
	.st331{fill:url(#SVGID_265_);}
	.st332{fill:url(#SVGID_266_);}
	.st333{fill:url(#SVGID_267_);}
	.st334{fill:url(#SVGID_268_);}
	.st335{fill:url(#SVGID_269_);}
	.st336{fill:url(#SVGID_270_);}
	.st337{fill:url(#SVGID_271_);}
	.st338{fill:url(#SVGID_272_);}
	.st339{fill:url(#SVGID_273_);}
	.st340{opacity:0.2;fill:url(#SVGID_274_);}
	.st341{opacity:0.2;fill:url(#SVGID_275_);}
	.st342{fill:url(#SVGID_276_);}
	.st343{fill:url(#SVGID_277_);}
	.st344{fill:url(#SVGID_278_);}
	.st345{fill:url(#SVGID_279_);}
	.st346{fill:url(#SVGID_280_);}
	.st347{fill:url(#SVGID_281_);}
	.st348{fill:url(#SVGID_282_);}
	.st349{opacity:0.2;fill:url(#SVGID_283_);}
	.st350{opacity:0.2;fill:url(#SVGID_284_);}
	.st351{fill:url(#SVGID_285_);}
	.st352{fill:url(#SVGID_286_);}
	.st353{fill:url(#SVGID_287_);}
	.st354{fill:url(#SVGID_288_);}
	.st355{fill:url(#SVGID_289_);}
	.st356{fill:url(#SVGID_290_);}
	.st357{fill:url(#SVGID_291_);}
	.st358{fill:none;stroke:url(#SVGID_292_);stroke-miterlimit:10;}
	.st359{fill:url(#SVGID_293_);}
	.st360{opacity:0.2;fill:url(#SVGID_294_);}
	.st361{opacity:0.2;fill:url(#SVGID_295_);}
	.st362{fill:url(#SVGID_296_);}
	.st363{fill:url(#SVGID_297_);}
	.st364{fill:url(#SVGID_298_);}
</style>
<g id="Baby_sad">
	<g>
		<linearGradient id="SVGID_1_" gradientUnits="userSpaceOnUse" x1="181.2219" y1="20.6141" x2="166.7883" y2="119.4094">
			<stop  offset="0" style="stop-color:#FFD600"/>
			<stop  offset="0.9792" style="stop-color:#E1BB60"/>
		</linearGradient>
		<path class="st0" d="M115.4,98.3c0,0,78.3,0.8,64.7-38.2C165.5,18.3,168.7,0.7,194,0.7c0,0-7.2,4.7-5.5,10.7
			c0,0,12-27.5,32.2,15.2c0,0-39.2-40.8-34,40.5c3.1,48.2,32.4,66.6,32.4,66.6l-9.9,4.5l-76.6-19.2L115.4,98.3z"/>
		<path class="st1" d="M41.7,160.4c0,0-0.1-32.4-17.3-35.1c-18.5-2.9-19,63.2,17.2,53.5L41.7,160.4z"/>
		<linearGradient id="SVGID_2_" gradientUnits="userSpaceOnUse" x1="12.0016" y1="152.4806" x2="41.7337" y2="152.4806">
			<stop  offset="0.2986" style="stop-color:#F27256"/>
			<stop  offset="1" style="stop-color:#EC875C;stop-opacity:0"/>
		</linearGradient>
		<path class="st2" d="M41.7,160.4c0,0-0.1-32.4-17.3-35.1c-18.5-2.9-19,63.2,17.2,53.5L41.7,160.4z"/>
		<path class="st1" d="M242.9,201.6c-11.3,43.4-67.3,66.3-125.2,51.3s-95.6-62.4-84.4-105.8s67.3-59.5,125.2-44.5
			S254.2,158.3,242.9,201.6z"/>
		
			<ellipse transform="matrix(0.9703 -0.2419 0.2419 0.9703 -34.4735 43.5695)" class="st1" cx="160.2" cy="162.2" rx="36.2" ry="16.3"/>
		
			<ellipse transform="matrix(0.2516 -0.9678 0.9678 0.2516 -89.514 201.7701)" class="st1" cx="85.7" cy="158.8" rx="15.1" ry="28.8"/>
		<path class="st1" d="M238.1,193.9c0,0,18.9-32.1,32.1-26.8c13.2,5.3,9.2,74.4-37.1,53.6L238.1,193.9z"/>
		<linearGradient id="SVGID_3_" gradientUnits="userSpaceOnUse" x1="233.1247" y1="195.5273" x2="276.7789" y2="195.5273">
			<stop  offset="0" style="stop-color:#EC875C;stop-opacity:0"/>
			<stop  offset="0.7014" style="stop-color:#F27256"/>
		</linearGradient>
		<path class="st3" d="M238.1,193.9c0,0,18.9-32.1,32.1-26.8c13.2,5.3,9.2,74.4-37.1,53.6L238.1,193.9z"/>
		<path class="st1" d="M127.1,181.7c0,0-6.8-16.7-13.9-13.1c-7.1,3.6-4.6,24.9,13.9,18.5"/>
		<linearGradient id="SVGID_4_" gradientUnits="userSpaceOnUse" x1="109.5452" y1="155.5802" x2="127.0753" y2="155.5802">
			<stop  offset="0.2986" style="stop-color:#F27256"/>
			<stop  offset="1" style="stop-color:#EC875C;stop-opacity:0"/>
		</linearGradient>
		<path class="st4" d="M127.1,159.1c0,0-6.8-16.7-13.9-13.1c-7.1,3.6-4.6,24.9,13.9,18.5"/>
		<g>
			<path class="st5" d="M252.2,211.7c1.4-1.3,2.7-2.8,3.9-4.4c1.1-1.6,2-3.3,2.1-5.1c0.2-1.7-1.1-2.9-2.7-3.8
				c-1.5-0.8-3.4-1.4-5.2-1.6l0,0l-1.6-0.4l0.6-1.4c1.9-4.9,4.3-9.5,7.3-13.8c1.6-2.1,3.4-4,5.6-5.4c2.2-1.4,5.2-1.7,7.5-0.6
				c-2.4-1-5.1-0.4-7.1,1.2c-2,1.5-3.5,3.5-4.9,5.6c-2.6,4.3-4.5,9.1-5.8,13.8l-1.1-1.8l0,0c2.1,0.6,3.9,1.4,5.7,2.6
				c1.7,1.1,3.5,3.3,3,5.7c-0.4,2.2-1.7,3.8-3,5.3C255.3,209.3,253.8,210.6,252.2,211.7z"/>
		</g>
		<g>
			<path class="st5" d="M24.9,165.2c-1.1-2.4-2.1-4.9-2.8-7.6c-0.3-1.3-0.7-2.7-0.6-4.2c0.1-0.7,0.1-1.6,0.9-2.5
				c0.3-0.5,1-0.5,1.5-0.7c0.4,0,0.9,0,1.4,0.1l0,0l0.2,0.1l3.8,1.5l-2,1.4c-0.2-4.4-0.7-8.8-1.5-13.1c-0.5-2.1-1-4.3-1.9-6.3
				c-0.9-2-2-4-4.2-4.9c2.2,0.6,3.7,2.7,4.8,4.6c1.1,2,1.9,4.1,2.6,6.3c1.4,4.3,2.3,8.7,3,13.2l0,0v2.5l-2-1.2l-3.6-2.1l0.2,0.1
				c-0.2,0-0.4-0.1-0.6-0.2c-0.1,0.1-0.3-0.1-0.3,0.1c-0.2,0-0.4,0.6-0.5,1.2c-0.2,1.2-0.1,2.5,0,3.8
				C23.5,160,24.1,162.6,24.9,165.2z"/>
		</g>
		<path class="st6" d="M90.5,149c-1-2.5-1.2-5.5-0.3-8.2c0.9-2.7,2.9-5.3,6-6.2c1.5-0.4,3.3-0.3,4.8,0.4c1.5,0.7,2.7,1.8,3.6,3
			c1.9,2.5,2.8,5.3,3.5,8.1l-4,0.7c-0.3-2.5-0.9-5-2.1-7.1c-1.2-2.1-3.1-3.5-5.4-3.1c-2.3,0.3-4.4,2.2-5.5,4.6
			C90,143.5,89.8,146.3,90.5,149z"/>
		<path class="st6" d="M133.3,149.6c-0.2-3.7,0.6-7.4,2.5-10.6c0.9-1.6,2.2-3,3.9-4c0.9-0.5,1.8-0.8,2.8-0.9c1-0.1,2,0.1,2.9,0.5
			c1.8,0.8,3.1,2.1,4.1,3.5c1,1.4,1.8,2.9,2.5,4.5c1.3,3.1,2.2,6.3,2.9,9.5c-1-3.1-2.2-6.3-3.8-9.1c-1.5-2.8-3.7-5.6-6.4-6.5
			c-2.7-0.9-5.1,1.4-6.3,4c-1.2,2.7-1.6,5.8-1.1,8.7L133.3,149.6z"/>
		<g>
			<linearGradient id="SVGID_5_" gradientUnits="userSpaceOnUse" x1="75.1768" y1="207.5354" x2="192.6286" y2="207.5354">
				<stop  offset="0" style="stop-color:#5F1D15"/>
				<stop  offset="1" style="stop-color:#47120B"/>
			</linearGradient>
			<path class="st7" d="M162.7,176.4c-8,1.6-20,2.7-33.3,2.7c-16.5,0-30.9-1.6-38.4-3.9c-19.1,9.7-17,28.4-13.4,40
				c5.2,16.5,22.3,13.8,32.9-3.4c6.2-10,13.6-11.7,20.4-8.8c4.9-4.6,11.8-7.4,19.5-7.4c15,0,27.1,10.9,27.1,24.2
				c0,7.1-3.4,13.4-8.8,17.9c5.7,2.6,11,3.3,14.4,0.6C200.3,224,194.8,191.2,162.7,176.4z"/>
			<path class="st8" d="M162.7,176.4c-10.6-4.9-24.2-7.9-40.8-7.5c-13.9,0.3-23.8,2.7-30.9,6.2c7.5,2.3,21.9,3.9,38.4,3.9
				C142.7,179,154.6,178,162.7,176.4z"/>
			<path class="st9" d="M177.5,219.8c0-13.4-12.1-24.2-27.1-24.2c-7.6,0-14.5,2.8-19.5,7.4c4.8,2.1,9.3,6.6,12.6,12.2
				c5,8.3,15.6,18.1,25.1,22.5C174,233.2,177.5,226.8,177.5,219.8z"/>
		</g>
		<g>
			<path class="st10" d="M108.9,172.4c0.6,0.4,1.4,0.5,2,0.5c0.7,0,1.4-0.1,2.1-0.3c0.7-0.2,1.3-0.5,2-0.8c0.6-0.3,1.2-0.7,1.9-1.1
				c-0.2,0.3-0.5,0.5-0.8,0.8l-0.9,0.7c-0.6,0.4-1.3,0.8-2,0.9c-0.7,0.2-1.5,0.3-2.2,0.2C110.2,173.2,109.4,172.9,108.9,172.4z"/>
		</g>
		<path class="st11" d="M114.6,171.4c-3.3,1-1.4,12.5,0,13.9l10.1,1.6C124.7,186.9,121.8,169.2,114.6,171.4z"/>
		<path class="st5" d="M68.9,194.6c0.1,3.6,0.4,7.1,0.9,10.7c0.4,3.5,1.1,7,1.9,10.5c0.9,3.4,1.9,6.8,3.5,9.9c1.5,3.1,3.6,6,6.2,8.1
			c2.6,2.2,6,3.2,9.4,3.5c3.4,0.3,6.9-0.5,9.6-2.6c2.8-2,4.9-4.9,7.2-7.7c1.1-1.4,2.3-2.7,3.8-3.8c0.7-0.5,1.5-1,2.4-1.3
			c0.9-0.3,1.8-0.3,2.7-0.3c-1.8,0-3.5,0.7-4.8,1.9c-1.3,1.2-2.4,2.6-3.5,4c-2.1,2.9-4.2,5.9-7.1,8.2c-1.5,1.1-3.1,2-4.9,2.6
			c-1.8,0.5-3.7,0.6-5.6,0.5c-3.6-0.3-7.4-1.4-10.3-3.7c-3-2.3-5.1-5.5-6.7-8.7c-1.6-3.3-2.6-6.8-3.4-10.3
			C68.8,208.9,68.4,201.7,68.9,194.6z"/>
		<path class="st5" d="M147.9,230.5c2.5,2.9,5.2,5.5,8.1,8c2.9,2.5,5.9,4.7,9.2,6.5c3.3,1.8,6.8,3.2,10.4,3.8
			c0.9,0.1,1.8,0.3,2.7,0.3l2.7,0c0.9-0.1,1.8-0.3,2.7-0.4c0.9-0.1,1.8-0.4,2.6-0.7c3.4-1.1,6.6-3.2,8.8-6.1
			c2.3-2.9,3.8-6.3,4.9-9.9c1.1-3.6,1.6-7.3,1.7-11.1c0.1-3.8-0.1-7.6-1.3-11.2c1.7,3.5,2,7.4,2.2,11.2c0.1,3.8-0.3,7.7-1.2,11.5
			c-0.9,3.8-2.5,7.4-4.9,10.6c-2.3,3.2-5.8,5.6-9.5,6.8c-3.7,1.3-7.8,1.5-11.7,0.7c-3.8-0.8-7.5-2.2-10.8-4.2
			C158,242.2,152.4,236.7,147.9,230.5z"/>
		<g>
			<path class="st12" d="M102.6,114.9l5-0.6c0,0.2,2,17.5-21,24l-1.4-4.8C104,128.1,102.6,115,102.6,114.9z"/>
		</g>
		<g>
			<path class="st12" d="M128.8,115.3c13.5,18.9,32.3,14.8,33.1,14.6l1.2,4.9c-0.9,0.2-22.9,5.1-38.4-16.6L128.8,115.3z"/>
		</g>
		<path class="st13" d="M105.3,146.4c0.2-11.3-0.7-22.7-2.8-33.7c-1.1-5.5-2.5-10.9-4.5-16c-2-5.1-4.7-9.9-8.2-13.7
			c-3.5-3.8-8-6.2-12.9-6.8c-2.4-0.3-5-0.2-7.5,0.2c-2.4,0.4-4.7,1.2-6.8,2.4c-4.2,2.4-7.6,6.2-10.4,10.6c-2.7,4.4-4.9,9.4-6.6,14.5
			c-3.4,10.3-5.4,21.3-6.7,32.3c-1.3,11.1-2.1,22.3-2.4,33.5c-0.7,22.5,0,45,0.7,67.8H19c0.6-22.7,1.3-45.7,3.4-68.7
			c1.1-11.5,2.5-23,4.6-34.4c2.1-11.4,4.9-22.9,9.3-33.9c2.2-5.5,4.9-11,8.5-16c3.6-5,8.2-9.7,14.1-12.6c2.9-1.4,6.2-2.4,9.4-2.7
			c3.1-0.3,6.4-0.3,9.5,0.3c3.2,0.6,6.3,1.8,9,3.4c2.7,1.7,5.2,3.8,7.1,6.2c4,4.8,6.5,10.3,8.3,15.9c1.8,5.6,2.9,11.3,3.7,17
			c1.5,11.5,1.6,22.9,0.7,34.4L105.3,146.4z"/>
		<path class="st13" d="M132.5,149.6c-1.1-12.2-0.8-24.5,1.3-36.7c1.1-6.1,2.7-12.2,5.3-18c2.6-5.8,6.2-11.4,11.5-15.6
			c5.2-4.2,12-6.6,18.7-7c3.3-0.2,6.5-0.1,9.7,0.3c3.2,0.3,6.5,0.9,9.6,1.9c6.3,1.8,12.3,4.9,17.6,8.8c5.3,4,9.8,8.8,13.7,14
			c7.7,10.4,12.9,22.3,16.8,34.2c3.9,12,6.4,24.3,8.3,36.6c3.6,24.7,4.4,49.5,3.1,74.4l-18.1-1.5c2.5-23.5,3-47.6,0.9-71.2
			c-1.1-11.8-2.9-23.5-5.9-34.8c-3-11.3-7.2-22.3-13.4-31.8c-3.1-4.7-6.8-9-11.1-12.6c-4.3-3.5-9.1-6.4-14.4-8.2
			c-2.6-0.9-5.4-1.6-8.1-2c-2.8-0.5-5.7-0.7-8.5-0.7c-5.5-0.1-10.8,1.5-15.3,4.6c-4.5,3.1-8,7.7-10.7,12.9c-2.7,5.2-4.6,10.8-6,16.6
			c-2.8,11.6-3.8,23.8-3.5,35.8L132.5,149.6z"/>
		<circle class="st13" cx="22.9" cy="237.7" r="4"/>
		<circle class="st13" cx="32.6" cy="238" r="4.6"/>
		<path class="st13" d="M31.4,244.4c0,2.4-2,4.4-4.4,4.4s-4.4-2-4.4-4.4s2-8.8,4.4-8.8S31.4,242,31.4,244.4z"/>
		<path class="st13" d="M238.3,242.1c0,2.4-2,4.4-4.4,4.4s-4.4-2-4.4-4.4s2-8.8,4.4-8.8S238.3,239.7,238.3,242.1z"/>
		<path class="st13" d="M239.9,252.8c-0.3,2.4-2.5,4.1-4.9,3.8c-2.4-0.3-4.1-2.5-3.8-4.9c0.3-2.4,3.1-8.4,5.5-8.1
			C239.1,243.9,240.2,250.4,239.9,252.8z"/>
		<path class="st13" d="M249,244.9c0,3.3-2.6,5.9-5.9,5.9c-3.3,0-5.9-2.6-5.9-5.9s2.6-11.8,5.9-11.8
			C246.4,233.1,249,241.6,249,244.9z"/>
		<path class="st13" d="M23.5,253.7c0,1.4-0.9,2.6-2,2.6c-1.1,0-2-1.2-2-2.6c0-1.4,2-6.2,2-6.2S23.5,252.3,23.5,253.7z"/>
		<path class="st13" d="M36.3,259.8c0,1.9-1.6,3.5-3.5,3.5c-1.9,0-3.5-1.6-3.5-3.5s3.5-7.1,3.5-7.1S36.3,257.9,36.3,259.8z"/>
		<path class="st13" d="M15.8,220.4c-0.4,1.8-2.3,3-4.1,2.5s-3-2.3-2.5-4.1c0.4-1.8,5.3-7.5,5.3-7.5S16.2,218.6,15.8,220.4z"/>
		<path class="st13" d="M229,195.5c-0.7,1.7-2.7,2.6-4.4,1.9c-1.7-0.7-2.6-2.7-1.9-4.4c0.7-1.7,6.3-6.6,6.3-6.6
			S229.7,193.8,229,195.5z"/>
		<path class="st13" d="M51.3,205.5c0.9,3.2-1,6.5-4.2,7.4c-3.2,0.9-6.5-1-7.4-4.2c-0.9-3.2,2.3-14.4,2.3-14.4
			S50.5,202.3,51.3,205.5z"/>
		<path class="st13" d="M249.1,275.4c0,3.3-2.7,6-6,6s-6-2.7-6-6s6.1-13.2,6.1-13.2S249.1,272.1,249.1,275.4z"/>
		<path class="st13" d="M46,154.5c0.2,1.4-0.8,2.8-2.2,3c-1.4,0.2-2.8-0.8-3-2.2c-0.2-1.4,1.4-8.1,1.4-8.1S45.7,153,46,154.5z"/>
		<path class="st13" d="M30.2,101.1c-0.8,1.3-2.4,1.8-3.8,1c-1.3-0.8-1.8-2.4-1-3.8c0.8-1.3,5.6-4.2,5.6-4.2S31,99.7,30.2,101.1z"/>
		<path class="st13" d="M236,104.6c1.1,1.1,1.1,2.8,0,3.9c-1.1,1.1-2.8,1.1-3.9,0c-1.1-1.1-2.5-6.5-2.5-6.5S234.9,103.6,236,104.6z"
			/>
		<circle class="st13" cx="78.4" cy="61.2" r="3.2"/>
		<circle class="st13" cx="217.5" cy="80.4" r="3.2"/>
		<circle class="st13" cx="202" cy="113.3" r="3.2"/>
		<circle class="st13" cx="105.5" cy="147" r="1.6"/>
		<circle class="st13" cx="133.4" cy="149.3" r="1.6"/>
		<circle class="st13" cx="104.3" cy="146" r="1"/>
		<circle class="st13" cx="134.4" cy="147.5" r="1"/>
		<circle class="st13" cx="107.3" cy="146.5" r="0.5"/>
		<circle class="st13" cx="103.9" cy="144.7" r="0.7"/>
		<circle class="st13" cx="103.4" cy="147.7" r="0.9"/>
		<circle class="st13" cx="135" cy="149.4" r="0.9"/>
		<circle class="st13" cx="136.3" cy="149.2" r="0.9"/>
		<path class="st14" d="M96.9,222.8c-0.3,0.2-1,0.3-1.3,0.6c-0.9,0.7-2.3,0.2-3,1.1c-0.3,0.3-0.7,0.6-1.1,0.5c-2.3-0.2-2.2-0.1-3,0
			c-0.5,0.1-0.9,0.4-0.9,0.9v57.3c0,1.1,0.9,1.9,1.9,1.9h0c1.1,0,1.9-0.9,1.9-1.9v-40.4c0-1.3,1-2.3,2.3-2.3h0c1.3,0,2.3,1,2.3,2.3
			v7.1c0,0.9,0.7,1.6,1.6,1.6h0c0.9,0,1.6-0.7,1.6-1.6v-26.3c0-0.2-0.1-0.4-0.3-0.5C98.3,222.5,97.5,222.4,96.9,222.8z"/>
		<g>
			<path class="st10" d="M110.8,171.1c0.6,0.4,1.4,0.5,2,0.5c0.7,0,1.4-0.1,2.1-0.3c0.7-0.2,1.3-0.5,2-0.8c0.6-0.3,1.2-0.7,1.9-1.1
				c-0.2,0.3-0.5,0.5-0.8,0.8l-0.9,0.7c-0.6,0.4-1.3,0.8-2,0.9c-0.7,0.2-1.5,0.3-2.2,0.2C112,171.9,111.3,171.6,110.8,171.1z"/>
		</g>
		<circle class="st13" cx="55.7" cy="68.5" r="1.7"/>
		<circle class="st13" cx="91" cy="90.4" r="1.1"/>
		<circle class="st13" cx="73.4" cy="55.3" r="1.1"/>
		<circle class="st13" cx="27.2" cy="281.3" r="4.3"/>
		<circle class="st13" cx="255.8" cy="221.7" r="4.3"/>
		<circle class="st13" cx="51.7" cy="218.3" r="1.9"/>
		<circle class="st13" cx="5" cy="224.7" r="1.6"/>
		<circle class="st13" cx="15.3" cy="184.3" r="1.6"/>
		<circle class="st13" cx="20.7" cy="145.7" r="1.1"/>
		<path class="st5" d="M141.4,153.6c3.4-1.2,6.7-1.8,10.1-2.1c3.4-0.3,6.8-0.3,10.2,0.1c3.4,0.4,6.7,1,10,2c1.6,0.4,3.2,1.1,4.8,1.6
			c1.6,0.6,3.1,1.3,4.7,2c-1.6-0.6-3.1-1.2-4.7-1.8c-1.6-0.5-3.2-1.1-4.9-1.4c-3.3-0.9-6.6-1.3-9.9-1.5c-3.3-0.2-6.7-0.1-10,0.4
			c-3.3,0.4-6.6,1.2-9.5,2.5L141.4,153.6z"/>
		<path class="st5" d="M100.8,153.9c-1.9-1.4-4.2-2.6-6.6-3.4c-2.4-0.8-4.8-1.4-7.3-1.4c-1.3-0.1-2.5,0.1-3.8,0.2
			c-1.2,0.3-2.5,0.5-3.7,1c-2.4,0.8-4.5,2.3-6.6,3.8c1.9-1.7,4-3.3,6.4-4.3c1.2-0.6,2.4-0.9,3.7-1.3c1.3-0.2,2.6-0.5,3.9-0.5
			c2.6-0.1,5.3,0.3,7.8,1c2.5,0.8,4.9,1.8,7.2,3.2L100.8,153.9z"/>
		<path class="st15" d="M114.2,216.6c0,0,13.2-8.4,24.3,2.1"/>
		<circle class="st13" cx="250.3" cy="152.5" r="1.2"/>
		<circle class="st13" cx="222" cy="174.4" r="1.3"/>
		<circle class="st13" cx="257.9" cy="213.1" r="1.3"/>
		<circle class="st13" cx="219.1" cy="239.8" r="5.4"/>
		<circle class="st13" cx="233.6" cy="282.6" r="2.5"/>
		<circle class="st13" cx="210.3" cy="69.4" r="0.9"/>
		<circle class="st13" cx="210.1" cy="114.6" r="1.3"/>
		<circle class="st13" cx="286.9" cy="289.6" r="2.2"/>
		<g>
			<defs>
				<path id="SVGID_15_" d="M105.3,146.4c0.2-11.3-0.7-22.7-2.8-33.7c-1.1-5.5-2.5-10.9-4.5-16c-2-5.1-4.7-9.9-8.2-13.7
					c-3.5-3.8-8-6.2-12.9-6.8c-2.4-0.3-5-0.2-7.5,0.2c-2.4,0.4-4.7,1.2-6.8,2.4c-4.2,2.4-7.6,6.2-10.4,10.6
					c-2.7,4.4-4.9,9.4-6.6,14.5c-3.4,10.3-5.4,21.3-6.7,32.3c-1.3,11.1-2.1,22.3-2.4,33.5c-0.7,22.5,0,45,0.7,67.8H19
					c0.6-22.7,1.3-45.7,3.4-68.7c1.1-11.5,2.5-23,4.6-34.4c2.1-11.4,4.9-22.9,9.3-33.9c2.2-5.5,4.9-11,8.5-16
					c3.6-5,8.2-9.7,14.1-12.6c2.9-1.4,6.2-2.4,9.4-2.7c3.1-0.3,6.4-0.3,9.5,0.3c3.2,0.6,6.3,1.8,9,3.4c2.7,1.7,5.2,3.8,7.1,6.2
					c4,4.8,6.5,10.3,8.3,15.9c1.8,5.6,2.9,11.3,3.7,17c1.5,11.5,1.6,22.9,0.7,34.4L105.3,146.4z"/>
			</defs>
			<clipPath id="SVGID_7_">
				<use xlink:href="#SVGID_15_"  style="overflow:visible;"/>
			</clipPath>
			<path class="st16" d="M32.8,235c-0.1,0-0.2,0-0.3,0c-2.1-0.2-2.8-1.9-3.3-3.1c-0.4-1.1-0.7-1.6-1.2-1.5c-0.6,0.1-0.9,0.7-1.3,1.7
				c-0.5,1.2-1.1,2.9-3.2,2.9c-2.1,0-2.3-1.4-2.5-2.6c-0.2-1.1-0.3-2.1-1.6-2.7c-0.6-0.3-1.1-0.3-1.4-0.1c-0.7,0.5-0.7,2.2-0.7,2.7
				l-1,0.1c0-0.3-0.2-2.7,1.1-3.6c0.6-0.4,1.4-0.4,2.4,0c1.8,0.8,2,2.3,2.2,3.4c0.2,1.2,0.3,1.7,1.5,1.7c1.3,0,1.8-0.8,2.3-2.2
				c0.4-1,0.8-2.2,2.1-2.4c1.4-0.2,1.9,1.1,2.3,2.1c0.5,1.2,0.9,2.3,2.4,2.5c1.4,0.1,1.8-1.1,2.3-2.9c0.4-1.3,0.7-2.7,2-2.6
				c1.4,0.1,1.6,1.7,1.8,3.2c0.2,1.1,0.3,2.3,0.9,2.3l-0.1,1c-1.3-0.2-1.6-1.8-1.8-3.2c-0.2-1.3-0.4-2.3-0.9-2.3
				c-0.4,0-0.6,0.7-0.9,1.9C35.5,232.9,34.9,235,32.8,235z M35.9,221.5c0.3-1.1,0.5-1.9,0.9-1.9c0.6,0,0.7,1,0.9,2.3
				c0.2,1.4,0.5,3,1.8,3.2l0.1-1c-0.6-0.1-0.8-1.2-0.9-2.3c-0.2-1.4-0.5-3.1-1.8-3.2c-1.3-0.1-1.6,1.3-2,2.6c-0.5,1.8-0.9,3-2.3,2.9
				c-1.5-0.1-1.9-1.3-2.4-2.5c-0.4-1.1-0.9-2.3-2.3-2.1c-1.3,0.1-1.7,1.3-2.1,2.4c-0.5,1.4-1,2.2-2.3,2.2c-1.2,0-1.3-0.5-1.5-1.7
				c-0.2-1.1-0.4-2.6-2.2-3.4c-0.9-0.4-1.7-0.5-2.4,0c-1.3,0.9-1.1,3.3-1.1,3.6l1-0.1c0-0.5,0-2.2,0.7-2.7c0.3-0.2,0.8-0.2,1.4,0.1
				c1.3,0.6,1.4,1.6,1.6,2.7c0.2,1.1,0.4,2.6,2.5,2.6c2.1,0,2.8-1.7,3.2-2.9c0.4-1,0.7-1.6,1.3-1.7c0.6-0.1,0.8,0.4,1.2,1.5
				c0.5,1.2,1.1,2.9,3.3,3.1c0.1,0,0.2,0,0.3,0C34.9,225.2,35.5,223.1,35.9,221.5z M36.9,210.3c0.3-1.1,0.5-1.9,0.9-1.9c0,0,0,0,0,0
				c0.6,0,0.7,1,0.9,2.3c0.2,1.4,0.5,3,1.8,3.2l0.1-1c-0.6-0.1-0.8-1.2-0.9-2.3c-0.2-1.4-0.5-3.1-1.8-3.2c-1.3-0.1-1.6,1.3-2,2.6
				c-0.5,1.8-0.9,3-2.3,2.9c-1.5-0.1-2-1.3-2.4-2.5c-0.4-1.1-0.9-2.3-2.3-2.1c-1.3,0.1-1.7,1.3-2.1,2.4c-0.5,1.4-1,2.2-2.3,2.2
				c-1.2,0-1.3-0.5-1.5-1.7c-0.2-1.1-0.4-2.6-2.2-3.4c-0.9-0.4-1.7-0.5-2.4,0c-1.3,0.9-1.1,3.3-1.1,3.6l1-0.1c0-0.5,0-2.2,0.7-2.7
				c0.3-0.2,0.8-0.2,1.4,0.1c1.3,0.6,1.4,1.6,1.6,2.7c0.2,1.1,0.4,2.6,2.5,2.6c2.1,0,2.8-1.7,3.2-2.9c0.4-1,0.7-1.6,1.3-1.7
				c0.6-0.1,0.8,0.4,1.2,1.5c0.5,1.2,1.1,2.9,3.3,3.1c0.1,0,0.2,0,0.3,0C35.9,213.9,36.5,211.8,36.9,210.3z M36.9,197.9
				c0.3-1.1,0.6-1.9,0.9-1.9c0.6,0,0.7,1,0.9,2.3c0.2,1.4,0.5,3,1.8,3.2l0.1-1c-0.6-0.1-0.8-1.2-0.9-2.3c-0.2-1.4-0.5-3.1-1.8-3.2
				c-1.3-0.1-1.6,1.3-2,2.6c-0.5,1.8-0.9,3-2.3,2.9c-1.5-0.1-2-1.3-2.4-2.5c-0.4-1.1-0.9-2.3-2.3-2.1c-1.3,0.1-1.7,1.3-2.1,2.4
				c-0.5,1.4-1,2.2-2.3,2.2c-1.2,0-1.3-0.5-1.5-1.7c-0.2-1.1-0.4-2.6-2.2-3.4c-0.9-0.5-1.7-0.5-2.4,0c-1.3,0.9-1.1,3.4-1.1,3.6
				l1-0.1c0-0.5,0-2.2,0.7-2.7c0.3-0.2,0.8-0.2,1.4,0.1c1.3,0.6,1.4,1.6,1.6,2.7c0.2,1.1,0.4,2.6,2.5,2.6c2.1,0,2.8-1.7,3.2-2.9
				c0.4-1,0.7-1.6,1.3-1.7c0.6-0.1,0.8,0.4,1.2,1.5c0.5,1.2,1.1,2.9,3.3,3.1c0.1,0,0.2,0,0.3,0C35.9,201.5,36.5,199.4,36.9,197.9z
				 M36.9,186.5c0.3-1.1,0.6-1.9,0.9-1.9c0.6,0,0.7,1,0.9,2.3c0.2,1.4,0.5,3,1.8,3.2l0.1-1c-0.6-0.1-0.8-1.2-0.9-2.3
				c-0.2-1.4-0.5-3.1-1.8-3.2c-1.3-0.1-1.6,1.3-2,2.6c-0.5,1.8-0.9,3-2.3,2.9c-1.5-0.1-2-1.3-2.4-2.5c-0.4-1.1-0.9-2.3-2.3-2.1
				c-1.3,0.1-1.7,1.3-2.1,2.4c-0.5,1.4-1,2.2-2.3,2.2c-1.2,0-1.3-0.5-1.5-1.7c-0.2-1.1-0.4-2.6-2.2-3.4c-1-0.5-1.7-0.5-2.4,0
				c-1.3,0.9-1.1,3.3-1.1,3.6l1-0.1c0-0.5,0-2.2,0.7-2.7c0.3-0.2,0.8-0.2,1.4,0.1c1.3,0.6,1.4,1.6,1.6,2.7c0.2,1.1,0.4,2.6,2.5,2.6
				c2.1,0,2.8-1.7,3.2-2.9c0.4-1,0.7-1.6,1.3-1.7c0.6-0.1,0.8,0.4,1.2,1.5c0.5,1.2,1.1,2.9,3.3,3.1c0.1,0,0.2,0,0.3,0
				C35.9,190.1,36.5,188,36.9,186.5z M37.6,175.4c0.3-1.1,0.5-1.9,0.9-1.9c0.6,0,0.7,1,0.9,2.3c0.2,1.4,0.5,3,1.8,3.2l0.1-1
				c-0.6-0.1-0.8-1.2-0.9-2.3c-0.2-1.4-0.5-3.1-1.8-3.2c-1.3-0.1-1.6,1.3-2,2.6c-0.5,1.8-0.9,3-2.3,2.9c-1.5-0.1-1.9-1.3-2.4-2.5
				c-0.4-1.1-0.9-2.3-2.3-2.1c-1.3,0.1-1.7,1.3-2.1,2.4c-0.5,1.4-1,2.2-2.3,2.2c-1.2,0-1.3-0.5-1.5-1.7c-0.2-1.1-0.4-2.6-2.2-3.4
				c-1-0.5-1.7-0.5-2.4,0c-1.3,0.9-1.1,3.3-1.1,3.6l1-0.1c0-0.5,0-2.2,0.7-2.7c0.3-0.2,0.8-0.2,1.4,0.1c1.3,0.6,1.4,1.6,1.6,2.7
				c0.2,1.1,0.4,2.6,2.5,2.6c2.1,0,2.8-1.7,3.2-2.9c0.4-1,0.7-1.6,1.3-1.7c0.6-0.1,0.8,0.4,1.2,1.5c0.5,1.2,1.1,2.9,3.3,3.1
				c0.1,0,0.2,0,0.3,0C36.6,179,37.2,176.9,37.6,175.4z M38.6,163.8c0.3-1.1,0.5-1.9,0.9-1.9c0.6,0,0.7,1,0.9,2.3
				c0.2,1.4,0.5,3,1.8,3.2l0.1-1c-0.6-0.1-0.8-1.2-0.9-2.3c-0.2-1.4-0.5-3.1-1.8-3.2c-1.3-0.1-1.6,1.3-2,2.6c-0.5,1.8-0.9,3-2.3,2.9
				c-1.5-0.1-2-1.3-2.4-2.5c-0.4-1.1-0.9-2.3-2.3-2.1c-1.3,0.1-1.7,1.3-2.1,2.4c-0.5,1.4-1,2.2-2.3,2.2c-1.2,0-1.3-0.5-1.5-1.7
				c-0.2-1.1-0.4-2.6-2.2-3.4c-0.9-0.4-1.7-0.5-2.4,0c-1.3,0.9-1.1,3.4-1.1,3.6l1-0.1c0-0.6,0-2.2,0.7-2.7c0.3-0.2,0.8-0.2,1.4,0.1
				c1.3,0.6,1.4,1.6,1.6,2.7c0.2,1.1,0.4,2.6,2.5,2.6c2.1,0,2.8-1.7,3.2-2.9c0.4-1,0.7-1.6,1.3-1.7c0.6-0.1,0.8,0.4,1.2,1.5
				c0.5,1.2,1.1,2.9,3.3,3.1c0.1,0,0.2,0,0.3,0C37.6,167.4,38.2,165.3,38.6,163.8z M38.6,151.5c0.3-1.1,0.5-1.9,0.9-1.9
				c0.6,0,0.7,1,0.9,2.3c0.2,1.4,0.5,3,1.8,3.2l0.1-1c-0.6-0.1-0.8-1.2-0.9-2.3c-0.2-1.4-0.5-3.1-1.8-3.2c-1.3-0.1-1.6,1.3-2,2.6
				c-0.5,1.8-0.9,3-2.3,2.9c-1.5-0.1-2-1.3-2.4-2.5c-0.4-1.1-0.9-2.3-2.3-2.1c-1.3,0.1-1.7,1.3-2.1,2.4c-0.5,1.4-1,2.2-2.3,2.2
				c-1.2,0-1.3-0.5-1.5-1.7c-0.2-1.1-0.4-2.6-2.2-3.4c-0.9-0.5-1.7-0.5-2.4,0c-1.3,0.9-1.1,3.3-1.1,3.6l1-0.1c0-0.6,0-2.2,0.7-2.7
				c0.3-0.2,0.8-0.2,1.4,0.1c1.3,0.6,1.4,1.6,1.6,2.7c0.2,1.1,0.4,2.6,2.5,2.6c2.1,0,2.8-1.7,3.2-2.9c0.4-1,0.7-1.6,1.3-1.7
				c0.6-0.1,0.8,0.4,1.2,1.5c0.5,1.2,1.1,2.9,3.3,3.1c0.1,0,0.2,0,0.3,0C37.6,155.1,38.2,153,38.6,151.5z M40.4,140.6
				c0.3-1.1,0.5-1.9,0.9-1.9c0,0,0,0,0,0c0.6,0,0.7,1,0.9,2.3c0.2,1.4,0.5,3,1.8,3.2l0.1-1c-0.6-0.1-0.8-1.2-0.9-2.3
				c-0.2-1.4-0.5-3.1-1.8-3.2c-1.3-0.1-1.6,1.3-2,2.6c-0.5,1.8-0.9,3-2.3,2.9c-1.5-0.1-2-1.3-2.4-2.5c-0.4-1.1-0.9-2.3-2.3-2.1
				c-1.3,0.1-1.7,1.3-2.1,2.4c-0.5,1.4-1,2.2-2.3,2.2c-1.2,0-1.3-0.5-1.5-1.7c-0.2-1.1-0.4-2.6-2.2-3.4c-0.9-0.4-1.7-0.5-2.4,0
				c-1.3,0.9-1.1,3.4-1.1,3.6l1-0.1c0-0.6,0-2.2,0.7-2.7c0.3-0.2,0.8-0.2,1.4,0.1c1.3,0.6,1.4,1.6,1.6,2.7c0.2,1.1,0.4,2.6,2.5,2.6
				c2.1,0,2.8-1.7,3.2-2.9c0.4-1,0.7-1.6,1.3-1.7c0.6-0.1,0.8,0.4,1.2,1.5c0.5,1.2,1.1,2.9,3.3,3.1c0.1,0,0.2,0,0.3,0
				C39.4,144.2,40,142.1,40.4,140.6z M41.9,127.6c0.3-1.1,0.5-1.9,0.9-1.9c0.6,0,0.7,1,0.9,2.3c0.2,1.4,0.5,3,1.8,3.2l0.1-1
				c-0.6-0.1-0.8-1.2-0.9-2.3c-0.2-1.4-0.5-3.1-1.8-3.2c-1.3-0.1-1.6,1.3-2,2.6c-0.5,1.8-0.9,3-2.3,2.9c-1.5-0.1-2-1.3-2.4-2.5
				c-0.4-1.1-0.9-2.3-2.3-2.1c-1.3,0.1-1.7,1.3-2.1,2.4c-0.5,1.4-1,2.2-2.3,2.2c-1.2,0-1.3-0.5-1.5-1.7c-0.2-1.1-0.4-2.6-2.2-3.4
				c-0.9-0.5-1.7-0.5-2.4,0c-1.3,0.9-1.1,3.3-1.1,3.6l1-0.1c0-0.6,0-2.2,0.7-2.7c0.3-0.2,0.8-0.2,1.4,0.1c1.3,0.6,1.4,1.6,1.6,2.7
				c0.2,1.1,0.4,2.6,2.5,2.6c2.1,0,2.8-1.7,3.2-2.9c0.4-1,0.7-1.6,1.3-1.7c0.6-0.1,0.8,0.4,1.2,1.5c0.5,1.2,1.1,2.9,3.3,3.1
				c0.1,0,0.2,0,0.3,0C40.9,131.2,41.5,129.1,41.9,127.6z M43.9,116.1c0.3-1.1,0.5-1.9,0.9-1.9c0.6,0,0.7,1,0.9,2.3
				c0.2,1.4,0.5,3,1.8,3.2l0.1-1c-0.6-0.1-0.8-1.2-0.9-2.3c-0.2-1.4-0.5-3.1-1.8-3.2c-1.3-0.1-1.6,1.3-2,2.6c-0.5,1.8-0.9,3-2.3,2.9
				c-1.5-0.1-2-1.3-2.4-2.5c-0.4-1.1-0.9-2.3-2.3-2.1c-1.3,0.1-1.7,1.3-2.1,2.4c-0.5,1.4-1,2.2-2.3,2.2c-1.2,0-1.3-0.5-1.5-1.7
				c-0.2-1.1-0.4-2.6-2.2-3.4c-0.9-0.5-1.7-0.5-2.4,0c-1.3,0.9-1.1,3.3-1.1,3.6l1-0.1c0-0.6,0-2.2,0.7-2.7c0.3-0.2,0.8-0.2,1.4,0.1
				c1.3,0.6,1.4,1.6,1.6,2.7c0.2,1.1,0.4,2.6,2.5,2.6c2.1,0,2.8-1.7,3.2-2.9c0.4-1,0.7-1.6,1.3-1.7c0.6-0.1,0.8,0.4,1.2,1.5
				c0.5,1.2,1.1,2.9,3.3,3.1c0.1,0,0.2,0,0.3,0C42.9,119.8,43.5,117.7,43.9,116.1z M50.4,111c-0.6-0.2-0.5-1.3-0.5-2.5
				c0.1-1.4,0.1-3.1-1.2-3.5c-1.2-0.4-1.9,0.9-2.5,2.2c-0.8,1.7-1.5,2.8-2.8,2.4c-1.5-0.4-1.7-1.6-1.9-2.9c-0.2-1.1-0.4-2.4-1.8-2.5
				c-1.3-0.1-2,0.9-2.6,1.9c-0.8,1.3-1.4,2-2.7,1.8c-1.2-0.2-1.2-0.8-1.1-2c0.1-1.1,0.1-2.6-1.4-3.8c-0.8-0.6-1.6-0.8-2.3-0.5
				c-1.4,0.6-1.7,3.1-1.8,3.3l1,0.1c0.1-0.5,0.4-2.2,1.2-2.5c0.3-0.1,0.8,0,1.3,0.4c1.1,0.8,1.1,1.9,1,2.9c-0.1,1.2-0.1,2.6,1.9,3
				c2.1,0.4,3.1-1.1,3.7-2.2c0.6-0.9,1-1.5,1.6-1.4c0.6,0.1,0.7,0.5,0.9,1.7c0.2,1.3,0.5,3.1,2.6,3.7c2.2,0.7,3.3-1.4,4-2.9
				c0.5-1,0.9-1.8,1.3-1.6c0.5,0.2,0.5,1.1,0.5,2.5c-0.1,1.4-0.1,3,1.1,3.5L50.4,111z M54.6,100c-0.5-0.2-0.4-1.4-0.2-2.5
				c0.2-1.4,0.5-3.1-0.8-3.6c-1.2-0.5-2,0.7-2.7,1.9c-1,1.6-1.8,2.6-3.1,2.1c-1.4-0.6-1.5-1.8-1.6-3.1c-0.1-1.1-0.2-2.4-1.5-2.7
				c-1.3-0.3-2.1,0.7-2.7,1.6c-0.9,1.2-1.6,1.9-2.9,1.5c-1.2-0.4-1.1-0.9-0.9-2.1c0.2-1.1,0.4-2.6-1-3.9c-0.8-0.7-1.5-1-2.2-0.7
				c-1.5,0.5-2.1,2.9-2.1,3.1l1,0.2c0.1-0.5,0.6-2.1,1.4-2.4c0.3-0.1,0.8,0.1,1.3,0.5c1,1,0.9,2,0.7,3c-0.2,1.1-0.4,2.6,1.6,3.2
				c2,0.6,3.2-0.8,4-1.8c0.7-0.9,1.1-1.4,1.8-1.2c0.6,0.1,0.6,0.6,0.7,1.8c0.1,1.3,0.2,3.1,2.2,3.9c2.1,0.9,3.4-1,4.3-2.5
				c0.6-1,1.1-1.7,1.5-1.5c0.5,0.2,0.4,1.2,0.2,2.5c-0.2,1.4-0.5,3,0.8,3.6L54.6,100z M60.1,91.5c-0.5-0.4,0-1.4,0.4-2.5
				c0.6-1.3,1.2-2.8,0.1-3.7c-1-0.8-2.1,0.2-3.1,1.2c-1.4,1.3-2.4,2.1-3.5,1.3c-1.2-0.9-1-2.1-0.8-3.4c0.2-1.1,0.4-2.4-0.8-3
				c-1.2-0.6-2.2,0.2-3.1,0.9c-1.2,0.9-2,1.4-3.1,0.7c-1-0.6-0.8-1.1-0.4-2.2c0.4-1,1-2.4,0-4.1c-0.6-0.9-1.2-1.3-2-1.3
				c-1.6,0.1-2.7,2.3-2.8,2.5l0.9,0.4c0.2-0.5,1.1-1.9,2-2c0.4,0,0.7,0.2,1.1,0.8c0.8,1.2,0.4,2.1,0,3.1c-0.5,1.1-1,2.4,0.8,3.5
				c1.8,1.1,3.2,0,4.3-0.8c0.9-0.7,1.4-1.1,2-0.8c0.5,0.2,0.5,0.7,0.3,1.9c-0.2,1.3-0.5,3.1,1.2,4.4c1.9,1.4,3.5-0.2,4.8-1.4
				c0.8-0.8,1.4-1.3,1.8-1.1c0.4,0.3,0.1,1.2-0.4,2.5c-0.6,1.3-1.2,2.8-0.1,3.7L60.1,91.5z M70.5,85.4c-0.3-0.5,0.5-1.3,1.3-2.2
				c1-1,2.1-2.2,1.4-3.4c-0.7-1.1-2-0.5-3.3,0c-1.7,0.7-2.9,1.1-3.7,0c-0.8-1.3-0.2-2.3,0.5-3.4c0.6-1,1.2-2.1,0.3-3.1
				c-0.9-0.9-2.1-0.6-3.2-0.2c-1.4,0.4-2.4,0.6-3.2-0.4c-0.8-1-0.4-1.4,0.4-2.2c0.8-0.8,1.8-1.9,1.4-3.8c-0.2-1-0.7-1.7-1.4-1.9
				c-1.5-0.5-3.3,1.2-3.5,1.4l0.7,0.7c0.4-0.4,1.7-1.4,2.5-1.1c0.3,0.1,0.6,0.5,0.7,1.1c0.3,1.4-0.4,2.1-1.1,2.9
				c-0.8,0.8-1.8,1.9-0.5,3.5c1.3,1.7,3,1.2,4.3,0.8c1-0.3,1.7-0.5,2.1,0c0.4,0.4,0.2,0.8-0.4,1.9c-0.7,1.1-1.6,2.7-0.5,4.5
				c1.3,2,3.4,1.1,4.9,0.4c1.1-0.4,1.8-0.7,2.1-0.4c0.3,0.5-0.3,1.2-1.3,2.2c-1,1-2.1,2.2-1.4,3.4L70.5,85.4z"/>
		</g>
		<g>
			<defs>
				<path id="SVGID_17_" d="M132.5,149.6c-1.1-12.2-0.8-24.5,1.3-36.7c1.1-6.1,2.7-12.2,5.3-18c2.6-5.8,6.2-11.4,11.5-15.6
					c5.2-4.2,12-6.6,18.7-7c3.3-0.2,6.5-0.1,9.7,0.3c3.2,0.3,6.5,0.9,9.6,1.9c6.3,1.8,12.3,4.9,17.6,8.8c5.3,4,9.8,8.8,13.7,14
					c7.7,10.4,12.9,22.3,16.8,34.2c3.9,12,6.4,24.3,8.3,36.6c3.6,24.7,4.4,49.5,3.1,74.4l-18.1-1.5c2.5-23.5,3-47.6,0.9-71.2
					c-1.1-11.8-2.9-23.5-5.9-34.8c-3-11.3-7.2-22.3-13.4-31.8c-3.1-4.7-6.8-9-11.1-12.6c-4.3-3.5-9.1-6.4-14.4-8.2
					c-2.6-0.9-5.4-1.6-8.1-2c-2.8-0.5-5.7-0.7-8.5-0.7c-5.5-0.1-10.8,1.5-15.3,4.6c-4.5,3.1-8,7.7-10.7,12.9
					c-2.7,5.2-4.6,10.8-6,16.6c-2.8,11.6-3.8,23.8-3.5,35.8L132.5,149.6z"/>
			</defs>
			<clipPath id="SVGID_9_">
				<use xlink:href="#SVGID_17_"  style="overflow:visible;"/>
			</clipPath>
			<g class="st17">
				<g>
					<path class="st18" d="M234.1,236.5c0.1,0,0.2,0,0.3,0c2.1-0.2,2.8-1.9,3.3-3.1c0.4-1.1,0.7-1.6,1.2-1.5
						c0.6,0.1,0.9,0.7,1.3,1.7c0.5,1.2,1.1,2.9,3.2,2.9c2.1,0,2.3-1.4,2.5-2.6c0.2-1.1,0.3-2.1,1.6-2.7c0.6-0.3,1.1-0.3,1.4-0.1
						c0.7,0.5,0.7,2.2,0.7,2.7l1,0.1c0-0.3,0.2-2.7-1.1-3.6c-0.6-0.4-1.4-0.4-2.4,0c-1.8,0.8-2,2.3-2.2,3.4
						c-0.2,1.2-0.3,1.7-1.5,1.7c-1.3,0-1.8-0.8-2.3-2.2c-0.4-1-0.8-2.2-2.1-2.4c-1.4-0.2-1.9,1.1-2.3,2.1c-0.5,1.2-0.9,2.3-2.4,2.5
						c-1.4,0.1-1.8-1.1-2.3-2.9c-0.4-1.3-0.7-2.7-2-2.6c-1.4,0.1-1.6,1.7-1.8,3.2c-0.2,1.1-0.3,2.3-0.9,2.3l0.1,1
						c1.3-0.2,1.6-1.8,1.8-3.2c0.2-1.3,0.4-2.3,0.9-2.3c0.4,0,0.6,0.7,0.9,1.9C231.4,234.4,232,236.5,234.1,236.5z"/>
				</g>
				<g>
					<path class="st18" d="M234.1,226.6c0.1,0,0.2,0,0.3,0c2.1-0.2,2.8-1.9,3.3-3.1c0.4-1.1,0.7-1.6,1.2-1.5
						c0.6,0.1,0.9,0.7,1.3,1.7c0.5,1.2,1.1,2.9,3.2,2.9c2.1,0,2.3-1.4,2.5-2.6c0.2-1.1,0.3-2.1,1.6-2.7c0.6-0.3,1.1-0.3,1.4-0.1
						c0.7,0.5,0.7,2.2,0.7,2.7l1,0.1c0-0.3,0.2-2.7-1.1-3.6c-0.6-0.4-1.4-0.4-2.4,0c-1.8,0.8-2,2.3-2.2,3.4
						c-0.2,1.2-0.3,1.7-1.5,1.7c-1.3,0-1.8-0.8-2.3-2.2c-0.4-1-0.8-2.2-2.1-2.4c-1.4-0.2-1.9,1.1-2.3,2.1c-0.5,1.2-0.9,2.3-2.4,2.5
						c-1.4,0.1-1.8-1.1-2.3-2.9c-0.4-1.3-0.7-2.7-2-2.6c-1.4,0.1-1.6,1.7-1.8,3.2c-0.2,1.1-0.3,2.3-0.9,2.3l0.1,1
						c1.3-0.2,1.6-1.8,1.8-3.2c0.2-1.3,0.4-2.3,0.9-2.3c0.4,0,0.6,0.8,0.9,1.9C231.4,224.5,232,226.6,234.1,226.6z"/>
				</g>
				<g>
					<path class="st18" d="M235.2,215c0.1,0,0.2,0,0.3,0c2.1-0.2,2.8-1.9,3.3-3.1c0.4-1.1,0.7-1.6,1.2-1.5c0.6,0.1,0.9,0.7,1.3,1.7
						c0.5,1.2,1.1,2.9,3.2,2.9c2.1,0,2.3-1.4,2.5-2.6c0.2-1.1,0.3-2.1,1.6-2.7c0.6-0.3,1.1-0.3,1.4-0.1c0.7,0.5,0.7,2.2,0.7,2.7
						l1,0.1c0-0.3,0.2-2.7-1.1-3.6c-0.6-0.4-1.4-0.4-2.4,0c-1.8,0.8-2,2.3-2.2,3.4c-0.2,1.2-0.3,1.7-1.5,1.7c-1.3,0-1.8-0.8-2.3-2.2
						c-0.4-1-0.8-2.2-2.1-2.4c-1.4-0.2-1.9,1.1-2.3,2.1c-0.5,1.2-0.9,2.3-2.4,2.5c-1.3,0.1-1.8-1.1-2.3-2.9c-0.4-1.3-0.7-2.7-2-2.6
						c-1.4,0.1-1.6,1.7-1.8,3.2c-0.2,1.1-0.3,2.3-0.9,2.3l0.1,1c1.3-0.2,1.6-1.8,1.8-3.2c0.2-1.3,0.4-2.3,0.9-2.3c0,0,0,0,0,0
						c0.4,0,0.6,0.8,0.9,1.9C232.5,212.9,233.1,215,235.2,215z"/>
				</g>
				<g>
					<path class="st18" d="M233,203c0.1,0,0.2,0,0.3,0c2.1-0.2,2.8-1.9,3.3-3.1c0.4-1.1,0.7-1.6,1.2-1.5c0.6,0.1,0.9,0.7,1.3,1.7
						c0.5,1.2,1.1,2.9,3.2,2.9c2.1,0,2.3-1.4,2.5-2.6c0.2-1.1,0.3-2.1,1.6-2.7c0.6-0.3,1.1-0.3,1.4-0.1c0.7,0.5,0.7,2.2,0.7,2.7
						l1,0.1c0-0.3,0.2-2.7-1.1-3.6c-0.6-0.4-1.4-0.4-2.4,0c-1.8,0.8-2,2.3-2.2,3.4c-0.2,1.2-0.3,1.7-1.5,1.7c-1.3,0-1.8-0.8-2.3-2.2
						c-0.4-1-0.8-2.2-2.1-2.4c-1.4-0.1-1.9,1.1-2.3,2.1c-0.5,1.2-0.9,2.3-2.4,2.5c-1.4,0.1-1.8-1.1-2.3-2.9c-0.4-1.3-0.7-2.7-2-2.6
						c-1.4,0.1-1.6,1.7-1.8,3.2c-0.2,1.1-0.3,2.3-0.9,2.3l0.1,1c1.3-0.2,1.6-1.8,1.8-3.2c0.2-1.3,0.4-2.3,0.9-2.3
						c0.4,0,0.6,0.7,0.9,1.9C230.4,200.9,231,203,233,203z"/>
				</g>
				<g>
					<path class="st18" d="M233,191.6c0.1,0,0.2,0,0.3,0c2.1-0.2,2.8-1.9,3.3-3.1c0.4-1.1,0.7-1.6,1.2-1.5c0.6,0.1,0.9,0.7,1.3,1.7
						c0.5,1.2,1.1,2.9,3.2,2.9c2.1,0,2.3-1.4,2.5-2.6c0.2-1.1,0.3-2.1,1.6-2.7c0.6-0.3,1.1-0.3,1.4-0.1c0.7,0.5,0.7,2.2,0.7,2.7
						l1,0.1c0-0.3,0.2-2.7-1.1-3.6c-0.6-0.4-1.4-0.4-2.4,0c-1.8,0.8-2,2.3-2.2,3.4c-0.2,1.2-0.3,1.7-1.5,1.7c-1.3,0-1.8-0.8-2.3-2.2
						c-0.4-1-0.8-2.2-2.1-2.4c-1.4-0.2-1.9,1.1-2.3,2.1c-0.5,1.2-0.9,2.3-2.4,2.5c-1.4,0.1-1.8-1.1-2.3-2.9c-0.4-1.3-0.7-2.7-2-2.6
						c-1.4,0.1-1.6,1.7-1.8,3.2c-0.2,1.1-0.3,2.3-0.9,2.3l0.1,1c1.3-0.2,1.6-1.8,1.8-3.2c0.2-1.3,0.4-2.3,0.9-2.3
						c0.4,0,0.6,0.7,0.9,1.9C230.4,189.5,231,191.6,233,191.6z"/>
				</g>
				<g>
					<path class="st18" d="M232.3,180.5c0.1,0,0.2,0,0.3,0c2.1-0.2,2.8-1.9,3.3-3.1c0.4-1.1,0.7-1.6,1.2-1.5
						c0.6,0.1,0.9,0.7,1.3,1.7c0.5,1.2,1.1,2.9,3.2,2.9c2.1,0,2.3-1.4,2.5-2.6c0.2-1.1,0.3-2.1,1.6-2.7c0.6-0.3,1.1-0.3,1.4-0.1
						c0.7,0.5,0.7,2.2,0.7,2.7l1,0.1c0-0.3,0.2-2.7-1.1-3.6c-0.6-0.4-1.4-0.4-2.4,0c-1.8,0.8-2,2.3-2.2,3.4
						c-0.2,1.2-0.3,1.7-1.5,1.7c-1.3,0-1.8-0.8-2.3-2.2c-0.4-1-0.8-2.2-2.1-2.4c-1.4-0.2-1.9,1.1-2.3,2.1c-0.5,1.2-0.9,2.3-2.4,2.5
						c-1.4,0.1-1.8-1.1-2.3-2.9c-0.4-1.3-0.7-2.7-2-2.6c-1.4,0.1-1.6,1.7-1.8,3.2c-0.2,1.1-0.3,2.3-0.9,2.3l0.1,1
						c1.3-0.2,1.6-1.8,1.8-3.2c0.2-1.3,0.4-2.3,0.9-2.3c0.4-0.1,0.6,0.7,0.9,1.9C229.7,178.4,230.3,180.5,232.3,180.5z"/>
				</g>
				<g>
					<path class="st18" d="M231.3,168.9c0.1,0,0.2,0,0.3,0c2.1-0.2,2.8-1.9,3.3-3.1c0.4-1.1,0.7-1.6,1.2-1.5
						c0.6,0.1,0.9,0.7,1.3,1.7c0.5,1.2,1.1,2.9,3.2,2.9c2.1,0,2.3-1.4,2.5-2.6c0.2-1.1,0.3-2.1,1.6-2.7c0.6-0.3,1.1-0.3,1.4-0.1
						c0.7,0.5,0.7,2.2,0.7,2.7l1,0.1c0-0.3,0.2-2.7-1.1-3.6c-0.6-0.4-1.4-0.4-2.4,0c-1.8,0.8-2,2.3-2.2,3.4
						c-0.2,1.2-0.3,1.7-1.5,1.7c-1.3,0-1.8-0.8-2.3-2.2c-0.4-1-0.8-2.2-2.1-2.4c-1.4-0.2-1.9,1.1-2.3,2.1c-0.5,1.2-0.9,2.3-2.4,2.5
						c-1.4,0.1-1.8-1.1-2.3-2.9c-0.4-1.3-0.7-2.7-2-2.6c-1.4,0.1-1.6,1.7-1.8,3.2c-0.2,1.1-0.3,2.3-0.9,2.3l0.1,1
						c1.3-0.2,1.6-1.8,1.8-3.2c0.2-1.3,0.4-2.3,0.9-2.3c0.4,0,0.6,0.7,0.9,1.9C228.7,166.8,229.3,168.9,231.3,168.9z"/>
				</g>
				<g>
					<path class="st18" d="M231.3,156.6c0.1,0,0.2,0,0.3,0c2.1-0.2,2.8-1.9,3.3-3.1c0.4-1.1,0.7-1.5,1.2-1.5
						c0.6,0.1,0.9,0.7,1.3,1.7c0.5,1.2,1.1,2.9,3.2,2.9c2.1,0,2.3-1.4,2.5-2.6c0.2-1.1,0.3-2.1,1.6-2.7c0.6-0.3,1.1-0.3,1.4-0.1
						c0.7,0.5,0.7,2.2,0.7,2.7l1,0.1c0-0.3,0.2-2.7-1.1-3.6c-0.6-0.4-1.4-0.4-2.4,0c-1.8,0.8-2,2.3-2.2,3.4
						c-0.2,1.2-0.3,1.7-1.5,1.7c-1.3,0-1.8-0.8-2.3-2.2c-0.4-1-0.8-2.2-2.1-2.4c-1.4-0.2-1.9,1.1-2.3,2.1c-0.5,1.2-0.9,2.3-2.4,2.5
						c-1.3,0.1-1.8-1.1-2.3-2.9c-0.4-1.3-0.7-2.7-2-2.6c-1.4,0.1-1.6,1.7-1.8,3.2c-0.2,1.1-0.3,2.3-0.9,2.3l0.1,1
						c1.3-0.2,1.6-1.8,1.8-3.2c0.2-1.3,0.4-2.3,0.9-2.3c0.4,0,0.6,0.8,0.9,1.9C228.7,154.5,229.3,156.6,231.3,156.6z"/>
				</g>
				<g>
					<path class="st18" d="M229.5,145.7c0.1,0,0.2,0,0.3,0c2.1-0.2,2.8-1.9,3.3-3.1c0.4-1.1,0.7-1.6,1.2-1.5
						c0.6,0.1,0.9,0.7,1.3,1.7c0.5,1.2,1.1,2.9,3.2,2.9c2.1,0,2.3-1.4,2.5-2.6c0.2-1.1,0.3-2.1,1.6-2.7c0.6-0.3,1.1-0.3,1.4-0.1
						c0.7,0.5,0.7,2.2,0.7,2.7l1,0.1c0-0.3,0.2-2.7-1.1-3.6c-0.6-0.4-1.4-0.4-2.4,0c-1.8,0.8-2,2.3-2.2,3.4
						c-0.2,1.2-0.3,1.7-1.5,1.7c-1.3,0-1.8-0.8-2.3-2.2c-0.4-1-0.8-2.2-2.1-2.4c-1.4-0.2-1.9,1.1-2.3,2.1c-0.5,1.2-0.9,2.3-2.4,2.5
						c-1.4,0.1-1.8-1.1-2.3-2.9c-0.4-1.3-0.7-2.7-2-2.6c-1.4,0.1-1.6,1.7-1.8,3.2c-0.2,1.1-0.3,2.3-0.9,2.3l0.1,1
						c1.3-0.2,1.6-1.8,1.8-3.2c0.2-1.3,0.4-2.3,0.9-2.3c0,0,0,0,0,0c0.4,0,0.6,0.8,0.9,1.9C226.9,143.6,227.5,145.7,229.5,145.7z"/>
				</g>
				<g>
					<path class="st18" d="M228.1,132.7c0.1,0,0.2,0,0.3,0c2.1-0.2,2.8-1.9,3.3-3.1c0.4-1.1,0.7-1.6,1.2-1.5
						c0.6,0.1,0.9,0.7,1.3,1.7c0.5,1.2,1.1,2.9,3.2,2.9c2.1,0,2.3-1.4,2.5-2.6c0.2-1.1,0.3-2.1,1.6-2.7c0.6-0.3,1.1-0.3,1.4-0.1
						c0.7,0.5,0.7,2.2,0.7,2.7l1,0.1c0-0.3,0.2-2.7-1.1-3.6c-0.6-0.4-1.4-0.4-2.4,0c-1.8,0.8-2,2.3-2.2,3.4
						c-0.2,1.2-0.3,1.7-1.5,1.7c-1.3,0-1.8-0.8-2.3-2.2c-0.4-1-0.8-2.2-2.1-2.4c-1.4-0.1-1.9,1.1-2.3,2.1c-0.5,1.2-0.9,2.3-2.4,2.5
						c-1.4,0.1-1.8-1.1-2.3-2.9c-0.4-1.3-0.8-2.7-2-2.6c-1.4,0.1-1.6,1.7-1.8,3.2c-0.2,1.1-0.3,2.3-0.9,2.3l0.1,1
						c1.3-0.2,1.6-1.8,1.8-3.2c0.2-1.3,0.4-2.3,0.9-2.3c0.4,0,0.6,0.7,0.9,1.9C225.4,130.6,226,132.7,228.1,132.7z"/>
				</g>
				<g>
					<path class="st18" d="M226.7,122c0.1,0,0.2,0,0.3-0.1c2.1-0.6,2.4-2.3,2.7-3.6c0.2-1.2,0.4-1.7,0.9-1.7c0.6-0.1,1,0.5,1.6,1.4
						c0.7,1.1,1.6,2.7,3.7,2.3c2.1-0.4,2-1.8,2-3c0-1.1-0.1-2.1,1.1-2.9c0.5-0.4,1-0.5,1.3-0.4c0.8,0.3,1.1,2,1.1,2.6l1-0.1
						c0-0.3-0.3-2.7-1.7-3.4c-0.7-0.3-1.5-0.2-2.3,0.5c-1.6,1.1-1.5,2.7-1.5,3.8c0,1.2,0.1,1.7-1.2,1.9c-1.3,0.2-1.9-0.5-2.7-1.8
						c-0.6-1-1.2-2-2.5-1.9c-1.4,0.1-1.6,1.4-1.9,2.5c-0.2,1.3-0.5,2.5-1.9,2.9c-1.3,0.4-2-0.7-2.8-2.4c-0.6-1.3-1.2-2.5-2.4-2.2
						c-1.3,0.4-1.3,2-1.3,3.5c0,1.1,0.1,2.3-0.5,2.5l0.3,1c1.3-0.4,1.3-2,1.2-3.4c0-1.3,0-2.3,0.5-2.4c0.4-0.1,0.8,0.6,1.3,1.7
						C223.7,120.5,224.7,122.4,226.7,122z"/>
				</g>
				<g>
					<path class="st18" d="M213.5,114.2c1.3-0.4,1.2-2,1.1-3.5c-0.1-1.3-0.1-2.3,0.5-2.5c0.4-0.1,0.8,0.6,1.3,1.6
						c0.7,1.5,1.8,3.6,4,2.9c2.1-0.6,2.4-2.4,2.6-3.7c0.2-1.2,0.3-1.6,0.9-1.7c0.6-0.1,1,0.5,1.6,1.4c0.7,1.1,1.6,2.6,3.7,2.2
						c2.1-0.4,2-1.8,1.9-3c-0.1-1.1-0.1-2.1,1-2.9c0.5-0.4,1-0.5,1.3-0.4c0.8,0.3,1.1,2,1.2,2.5l1-0.1c0-0.3-0.3-2.7-1.8-3.3
						c-0.7-0.3-1.5-0.1-2.3,0.5c-1.6,1.2-1.5,2.7-1.4,3.8c0.1,1.2,0.1,1.7-1.1,2c-1.3,0.3-1.9-0.5-2.7-1.8c-0.6-0.9-1.2-2-2.6-1.9
						c-1.4,0.1-1.6,1.4-1.8,2.5c-0.2,1.3-0.4,2.5-1.9,2.9c-1.3,0.4-2-0.7-2.8-2.4c-0.6-1.2-1.2-2.5-2.5-2.2c-1.3,0.4-1.3,2-1.2,3.5
						c0.1,1.1,0.1,2.3-0.5,2.5L213.5,114.2z"/>
				</g>
				<g>
					<path class="st18" d="M207.9,104.1c1.2-0.6,1-2.2,0.8-3.6c-0.2-1.3-0.3-2.3,0.2-2.5c0.4-0.2,0.8,0.5,1.5,1.5
						c0.9,1.4,2.1,3.4,4.3,2.5c2-0.8,2.1-2.6,2.2-3.9c0.1-1.2,0.2-1.7,0.7-1.8c0.6-0.1,1.1,0.4,1.8,1.2c0.8,1,1.9,2.4,4,1.8
						c2-0.6,1.8-2,1.6-3.2c-0.2-1.1-0.3-2.1,0.7-3c0.5-0.4,0.9-0.6,1.3-0.5c0.8,0.3,1.3,1.9,1.4,2.4l1-0.2c-0.1-0.3-0.6-2.7-2.1-3.1
						c-0.7-0.2-1.5,0-2.2,0.7c-1.4,1.3-1.2,2.8-1,3.9c0.2,1.2,0.3,1.7-0.9,2.1c-1.3,0.4-1.9-0.3-2.9-1.5c-0.7-0.9-1.5-1.9-2.7-1.6
						c-1.4,0.3-1.5,1.6-1.5,2.7c-0.1,1.3-0.2,2.5-1.6,3.1c-1.3,0.5-2-0.5-3.1-2.1c-0.7-1.2-1.5-2.4-2.7-1.9c-1.3,0.5-1,2.2-0.8,3.6
						c0.2,1.1,0.3,2.3-0.2,2.5L207.9,104.1z"/>
				</g>
				<g>
					<path class="st18" d="M201.8,96.6c1.1-0.8,0.4-2.3-0.1-3.7c-0.5-1.2-0.9-2.1-0.4-2.5c0.3-0.2,0.9,0.3,1.8,1.1
						c1.2,1.2,2.9,2.7,4.8,1.4c1.7-1.3,1.4-3.1,1.2-4.4c-0.2-1.2-0.2-1.7,0.3-1.9c0.6-0.3,1.1,0.1,2,0.8c1,0.8,2.5,1.9,4.3,0.8
						c1.8-1.1,1.2-2.4,0.8-3.5c-0.4-1-0.8-1.9,0-3.1c0.4-0.6,0.7-0.8,1.1-0.8c0.8,0.1,1.7,1.5,2,2l0.9-0.4c-0.1-0.3-1.2-2.4-2.8-2.5
						c-0.8,0-1.4,0.4-2,1.3c-1.1,1.6-0.5,3,0,4.1c0.5,1.1,0.7,1.6-0.4,2.2c-1.2,0.7-2,0.2-3.1-0.7c-0.9-0.7-1.9-1.5-3.1-0.9
						c-1.3,0.6-1,1.9-0.8,3c0.2,1.3,0.4,2.5-0.8,3.4c-1.1,0.8-2.1,0-3.5-1.3c-1-1-2-1.9-3.1-1.2c-1.1,0.8-0.5,2.3,0.1,3.7
						c0.4,1,0.9,2.1,0.4,2.5L201.8,96.6z"/>
				</g>
				<g>
					<path class="st18" d="M194.5,91.1c0.7-1.2-0.4-2.3-1.4-3.4c-0.9-1-1.6-1.7-1.3-2.2c0.2-0.3,1,0,2.1,0.4
						c1.6,0.7,3.7,1.5,4.9-0.4c1.2-1.8,0.2-3.4-0.5-4.5c-0.6-1-0.8-1.5-0.4-1.9c0.4-0.5,1.1-0.3,2.1,0c1.3,0.4,3,0.9,4.3-0.8
						c1.3-1.7,0.3-2.7-0.5-3.5c-0.7-0.8-1.4-1.5-1.1-2.9c0.1-0.6,0.4-1,0.7-1.1c0.8-0.2,2.1,0.8,2.5,1.1l0.7-0.7
						c-0.2-0.2-2-1.8-3.5-1.4c-0.7,0.2-1.2,0.9-1.4,1.9c-0.4,1.9,0.6,3,1.4,3.8c0.8,0.9,1.2,1.2,0.4,2.2c-0.8,1.1-1.8,0.9-3.2,0.4
						c-1.1-0.3-2.3-0.7-3.2,0.2c-1,1-0.3,2.1,0.3,3.1c0.7,1.1,1.3,2.1,0.5,3.4c-0.7,1.2-1.9,0.8-3.7,0c-1.3-0.5-2.6-1.1-3.3,0
						c-0.8,1.2,0.4,2.4,1.4,3.4c0.8,0.8,1.6,1.7,1.3,2.2L194.5,91.1z"/>
				</g>
			</g>
		</g>
		<circle class="st13" cx="137.2" cy="147.7" r="1.9"/>
		<circle class="st13" cx="137.2" cy="145.1" r="1.9"/>
		<circle class="st13" cx="137.8" cy="142.7" r="1.1"/>
		<circle class="st13" cx="102.5" cy="143.2" r="1.9"/>
		<circle class="st13" cx="102.5" cy="140.7" r="1.2"/>
	</g>
</g>
<g id="Baby_pleased">
</g>
<g id="Baby_ecstatic">
</g>
<g id="Fish_dead">
</g>
<g id="Fish_pleased">
</g>
<g id="Fish_ecstatic">
</g>
<g id="Robot_destoyed">
</g>
<g id="Robot_pleased">
</g>
<g id="Robot_ecstatic">
</g>
<g id="Sad_Dog">
</g>
<g id="Dog">
</g>
<g id="Dog_ecstatic">
</g>
<g id="Old_man_sad">
</g>
<g id="Old_man_pleased">
</g>
<g id="Old_man_ecstatic">
</g>
</svg>
