<?xml version="1.0" encoding="utf-8"?>
<!-- Generator: Adobe Illustrator 22.1.0, SVG Export Plug-In . SVG Version: 6.00 Build 0)  -->
<svg version="1.1" xmlns="http://www.w3.org/2000/svg" xmlns:xlink="http://www.w3.org/1999/xlink" x="0px" y="0px"
	 viewBox="0 0 281.5 281.5" style="enable-background:new 0 0 281.5 281.5;" xml:space="preserve">
<style type="text/css">
	.st0{fill:url(#SVGID_1_);}
	.st1{fill:#E1A687;}
	.st2{opacity:0.6;fill:url(#SVGID_2_);}
	.st3{opacity:0.6;fill:url(#SVGID_3_);}
	.st4{fill:url(#SVGID_4_);}
	.st5{fill:#CD7B62;}
	.st6{fill:#91594C;}
	.st7{fill:url(#SVGID_5_);}
	.st8{fill:#BA534B;}
	.st9{fill:#C54037;}
	.st10{fill:#D3514A;}
	.st11{fill:#D3E9F4;}
	.st12{fill:#E1BB60;}
	.st13{fill:#78E6F9;}
	.st14{opacity:0.8;fill:#78E6F9;}
	.st15{fill:none;stroke:#CD7B62;stroke-miterlimit:10;}
	.st16{clip-path:url(#SVGID_7_);fill:#A4F6FF;}
	.st17{clip-path:url(#SVGID_9_);}
	.st18{fill:#A4F6FF;}
	.st19{fill:url(#SVGID_10_);}
	.st20{opacity:0.6;fill:url(#SVGID_11_);}
	.st21{opacity:0.6;fill:url(#SVGID_12_);}
	.st22{fill:url(#SVGID_13_);}
	.st23{fill:url(#SVGID_14_);}
	.st24{clip-path:url(#SVGID_16_);fill:#A4F6FF;}
	.st25{clip-path:url(#SVGID_18_);}
	.st26{fill:url(#SVGID_19_);}
	.st27{opacity:0.6;fill:url(#SVGID_20_);}
	.st28{fill:url(#SVGID_21_);}
	.st29{clip-path:url(#SVGID_23_);fill:#62933F;}
	.st30{clip-path:url(#SVGID_23_);fill:#231F20;}
	.st31{fill:url(#SVGID_24_);}
	.st32{clip-path:url(#SVGID_26_);fill:#62933F;}
	.st33{clip-path:url(#SVGID_26_);fill:#231F20;}
	.st34{opacity:0.6;fill:url(#SVGID_27_);}
	.st35{fill:url(#SVGID_28_);}
	.st36{fill:#FFFFFF;}
	.st37{fill:url(#SVGID_29_);}
	.st38{opacity:0.6;fill:url(#SVGID_30_);}
	.st39{fill:url(#SVGID_31_);}
	.st40{clip-path:url(#SVGID_33_);fill:#62933F;}
	.st41{clip-path:url(#SVGID_33_);fill:#231F20;}
	.st42{fill:url(#SVGID_34_);}
	.st43{clip-path:url(#SVGID_36_);fill:#62933F;}
	.st44{clip-path:url(#SVGID_36_);fill:#231F20;}
	.st45{opacity:0.6;fill:url(#SVGID_37_);}
	.st46{fill:url(#SVGID_38_);}
	.st47{fill:url(#SVGID_39_);}
	.st48{opacity:0.6;fill:url(#SVGID_40_);}
	.st49{fill:url(#SVGID_41_);}
	.st50{clip-path:url(#SVGID_43_);fill:#62933F;}
	.st51{clip-path:url(#SVGID_43_);fill:#231F20;}
	.st52{fill:url(#SVGID_44_);}
	.st53{clip-path:url(#SVGID_46_);fill:#62933F;}
	.st54{clip-path:url(#SVGID_46_);fill:#231F20;}
	.st55{opacity:0.6;fill:url(#SVGID_47_);}
	.st56{fill:url(#SVGID_48_);}
	.st57{fill:url(#SVGID_49_);}
	.st58{fill:url(#SVGID_50_);}
	.st59{opacity:0.6;fill:url(#SVGID_51_);}
	.st60{fill:url(#SVGID_52_);}
	.st61{clip-path:url(#SVGID_54_);fill:#62933F;}
	.st62{clip-path:url(#SVGID_54_);fill:#231F20;}
	.st63{fill:url(#SVGID_55_);}
	.st64{clip-path:url(#SVGID_57_);fill:#62933F;}
	.st65{clip-path:url(#SVGID_57_);fill:#231F20;}
	.st66{opacity:0.6;fill:url(#SVGID_58_);}
	.st67{fill:url(#SVGID_59_);}
	.st68{fill:url(#SVGID_60_);}
	.st69{fill:#E37830;}
	.st70{fill:#E0902F;}
	.st71{fill:url(#SVGID_61_);}
	.st72{fill:url(#SVGID_62_);}
	.st73{fill:#83441E;}
	.st74{opacity:0.2;fill:#E37830;}
	.st75{fill:#DDA447;}
	.st76{opacity:0.7;fill:#F7E8D3;}
	.st77{fill:#BE8739;}
	.st78{fill:#F3FAFD;}
	.st79{opacity:0.7;fill:url(#SVGID_63_);}
	.st80{fill:#EEBB72;}
	.st81{fill:none;}
	.st82{fill:url(#SVGID_64_);}
	.st83{fill:url(#SVGID_65_);}
	.st84{fill:url(#SVGID_66_);}
	.st85{fill:url(#SVGID_67_);}
	.st86{fill:url(#SVGID_68_);}
	.st87{fill:url(#SVGID_69_);}
	.st88{fill:url(#SVGID_70_);}
	.st89{fill:url(#SVGID_71_);}
	.st90{fill:url(#SVGID_72_);}
	.st91{fill:url(#SVGID_73_);}
	.st92{fill:url(#SVGID_74_);}
	.st93{fill:url(#SVGID_75_);}
	.st94{fill:url(#SVGID_76_);}
	.st95{fill:url(#SVGID_77_);}
	.st96{fill:url(#SVGID_78_);}
	.st97{fill:url(#SVGID_79_);}
	.st98{fill:url(#SVGID_80_);}
	.st99{fill:url(#SVGID_81_);}
	.st100{fill:url(#SVGID_82_);}
	.st101{fill:url(#SVGID_83_);}
	.st102{fill:#EA833D;}
	.st103{fill:url(#SVGID_84_);}
	.st104{fill:url(#SVGID_85_);}
	.st105{fill:url(#SVGID_86_);}
	.st106{fill:url(#SVGID_87_);}
	.st107{fill:#A2E8F9;}
	.st108{fill:url(#SVGID_88_);}
	.st109{fill:url(#SVGID_89_);}
	.st110{opacity:0.7;fill:url(#SVGID_90_);}
	.st111{fill:url(#SVGID_91_);}
	.st112{fill:url(#SVGID_92_);}
	.st113{fill:url(#SVGID_93_);}
	.st114{fill:url(#SVGID_94_);}
	.st115{fill:url(#SVGID_95_);}
	.st116{fill:url(#SVGID_96_);}
	.st117{fill:url(#SVGID_97_);}
	.st118{fill:url(#SVGID_98_);}
	.st119{fill:url(#SVGID_99_);}
	.st120{fill:url(#SVGID_100_);}
	.st121{fill:url(#SVGID_101_);}
	.st122{fill:url(#SVGID_102_);}
	.st123{fill:url(#SVGID_103_);}
	.st124{fill:url(#SVGID_104_);}
	.st125{fill:url(#SVGID_105_);}
	.st126{fill:url(#SVGID_106_);}
	.st127{fill:url(#SVGID_107_);}
	.st128{fill:url(#SVGID_108_);}
	.st129{fill:url(#SVGID_109_);}
	.st130{fill:url(#SVGID_110_);}
	.st131{fill:url(#SVGID_111_);}
	.st132{fill:url(#SVGID_112_);}
	.st133{fill:url(#SVGID_113_);}
	.st134{fill:url(#SVGID_114_);}
	.st135{fill:url(#SVGID_115_);}
	.st136{fill:url(#SVGID_116_);}
	.st137{opacity:0.7;fill:url(#SVGID_117_);}
	.st138{fill:url(#SVGID_118_);}
	.st139{fill:url(#SVGID_119_);}
	.st140{fill:url(#SVGID_120_);}
	.st141{fill:url(#SVGID_121_);}
	.st142{fill:url(#SVGID_122_);}
	.st143{fill:url(#SVGID_123_);}
	.st144{fill:url(#SVGID_124_);}
	.st145{fill:url(#SVGID_125_);}
	.st146{fill:url(#SVGID_126_);}
	.st147{fill:url(#SVGID_127_);}
	.st148{fill:url(#SVGID_128_);}
	.st149{fill:url(#SVGID_129_);}
	.st150{fill:url(#SVGID_130_);}
	.st151{fill:url(#SVGID_131_);}
	.st152{fill:url(#SVGID_132_);}
	.st153{fill:url(#SVGID_133_);}
	.st154{fill:url(#SVGID_134_);}
	.st155{fill:url(#SVGID_135_);}
	.st156{fill:url(#SVGID_136_);}
	.st157{fill:url(#SVGID_137_);}
	.st158{fill:url(#SVGID_138_);}
	.st159{fill:url(#SVGID_139_);}
	.st160{fill:url(#SVGID_140_);}
	.st161{fill:url(#SVGID_141_);}
	.st162{fill:#BF8D43;}
	.st163{fill:url(#SVGID_142_);}
	.st164{fill:url(#SVGID_143_);}
	.st165{opacity:0.7;fill:url(#SVGID_144_);}
	.st166{fill:url(#SVGID_145_);}
	.st167{fill:url(#SVGID_146_);}
	.st168{fill:url(#SVGID_147_);}
	.st169{fill:url(#SVGID_148_);}
	.st170{fill:url(#SVGID_149_);}
	.st171{fill:url(#SVGID_150_);}
	.st172{fill:url(#SVGID_151_);}
	.st173{fill:url(#SVGID_152_);}
	.st174{fill:url(#SVGID_153_);}
	.st175{fill:url(#SVGID_154_);}
	.st176{fill:url(#SVGID_155_);}
	.st177{fill:url(#SVGID_156_);}
	.st178{fill:url(#SVGID_157_);}
	.st179{fill:url(#SVGID_158_);}
	.st180{fill:url(#SVGID_159_);}
	.st181{fill:url(#SVGID_160_);}
	.st182{fill:url(#SVGID_161_);}
	.st183{fill:url(#SVGID_162_);}
	.st184{fill:url(#SVGID_163_);}
	.st185{fill:url(#SVGID_164_);}
	.st186{fill:url(#SVGID_165_);}
	.st187{fill:url(#SVGID_166_);}
	.st188{fill:url(#SVGID_167_);}
	.st189{fill:url(#SVGID_168_);}
	.st190{fill:url(#SVGID_169_);}
	.st191{fill:url(#SVGID_170_);}
	.st192{opacity:0.7;fill:url(#SVGID_171_);}
	.st193{fill:url(#SVGID_172_);}
	.st194{fill:url(#SVGID_173_);}
	.st195{fill:url(#SVGID_174_);}
	.st196{fill:url(#SVGID_175_);}
	.st197{fill:url(#SVGID_176_);}
	.st198{fill:url(#SVGID_177_);}
	.st199{fill:url(#SVGID_178_);}
	.st200{fill:url(#SVGID_179_);}
	.st201{fill:url(#SVGID_180_);}
	.st202{fill:url(#SVGID_181_);}
	.st203{fill:url(#SVGID_182_);}
	.st204{fill:url(#SVGID_183_);}
	.st205{fill:url(#SVGID_184_);}
	.st206{fill:url(#SVGID_185_);}
	.st207{fill:url(#SVGID_186_);}
	.st208{fill:url(#SVGID_187_);}
	.st209{fill:url(#SVGID_188_);}
	.st210{fill:url(#SVGID_189_);}
	.st211{fill:url(#SVGID_190_);}
	.st212{fill:url(#SVGID_191_);}
	.st213{fill:url(#SVGID_192_);}
	.st214{fill:url(#SVGID_193_);}
	.st215{fill:url(#SVGID_194_);}
	.st216{fill:url(#SVGID_195_);}
	.st217{fill:url(#SVGID_196_);}
	.st218{fill:url(#SVGID_197_);}
	.st219{opacity:0.7;fill:url(#SVGID_198_);}
	.st220{fill:url(#SVGID_199_);}
	.st221{fill:url(#SVGID_200_);}
	.st222{fill:url(#SVGID_201_);}
	.st223{fill:url(#SVGID_202_);}
	.st224{fill:url(#SVGID_203_);}
	.st225{fill:url(#SVGID_204_);}
	.st226{fill:url(#SVGID_205_);}
	.st227{fill:url(#SVGID_206_);}
	.st228{fill:url(#SVGID_207_);}
	.st229{fill:url(#SVGID_208_);}
	.st230{fill:url(#SVGID_209_);}
	.st231{fill:url(#SVGID_210_);}
	.st232{fill:url(#SVGID_211_);}
	.st233{fill:url(#SVGID_212_);}
	.st234{fill:url(#SVGID_213_);}
	.st235{fill:url(#SVGID_214_);}
	.st236{fill:url(#SVGID_215_);}
	.st237{fill:url(#SVGID_216_);}
	.st238{fill:url(#SVGID_217_);}
	.st239{fill:url(#SVGID_218_);}
	.st240{fill:url(#SVGID_219_);}
	.st241{fill:url(#SVGID_220_);}
	.st242{fill:url(#SVGID_221_);}
	.st243{fill:url(#SVGID_222_);}
	.st244{fill:#E8492D;}
	.st245{fill:#E7E2DE;}
	.st246{fill:url(#SVGID_223_);}
	.st247{fill:#CECDCB;}
	.st248{fill:#818282;}
	.st249{fill:#CECDCB;stroke:#CECDCB;stroke-miterlimit:10;}
	.st250{fill:#E8E8E8;}
	.st251{fill:#EFEFEF;}
	.st252{fill:url(#SVGID_224_);}
	.st253{fill:url(#SVGID_225_);}
	.st254{fill:#FFFF00;}
	.st255{fill:#22AF17;}
	.st256{opacity:0.7;}
	.st257{fill:#FFFF2B;}
	.st258{fill:#FFFF55;}
	.st259{fill:#FFFF80;}
	.st260{fill:#FFFFAA;}
	.st261{fill:#FFFFD4;}
	.st262{fill:url(#SVGID_226_);}
	.st263{fill:url(#SVGID_227_);}
	.st264{fill:url(#SVGID_228_);}
	.st265{fill:#232323;}
	.st266{fill:#3D3D3D;}
	.st267{fill:#C66259;}
	.st268{opacity:0.2;fill:#353535;}
	.st269{fill:#817979;}
	.st270{opacity:0.3;}
	.st271{fill:#353535;}
	.st272{fill:#382B28;}
	.st273{fill:#231F20;}
	.st274{opacity:0.1;}
	.st275{fill:url(#SVGID_229_);}
	.st276{fill:url(#SVGID_230_);}
	.st277{fill:#2B2B2B;}
	.st278{fill:#161616;}
	.st279{opacity:0.5;}
	.st280{fill:#A6A8AB;}
	.st281{fill:#E2E2E2;}
	.st282{opacity:0.3;fill:#353535;}
	.st283{fill:url(#SVGID_231_);}
	.st284{fill:url(#SVGID_232_);}
	.st285{fill:url(#SVGID_233_);}
	.st286{fill:url(#SVGID_234_);}
	.st287{fill:#B54C47;}
	.st288{opacity:0.8;fill:#88DFED;}
	.st289{fill:#E3E4E5;}
	.st290{fill:url(#SVGID_235_);}
	.st291{fill:url(#SVGID_236_);}
	.st292{fill:url(#SVGID_237_);}
	.st293{fill:url(#SVGID_238_);}
	.st294{opacity:0.2;}
	.st295{fill:#6D5C57;}
	.st296{fill:#68493F;}
	.st297{opacity:0.2;fill:url(#SVGID_239_);}
	.st298{opacity:0.2;fill:url(#SVGID_240_);}
	.st299{opacity:0.5;fill:#6D5C57;}
	.st300{fill:url(#SVGID_241_);}
	.st301{fill:#7C8B8E;}
	.st302{fill:url(#SVGID_242_);}
	.st303{fill:url(#SVGID_243_);}
	.st304{fill:#3D2219;}
	.st305{fill:#332E2D;}
	.st306{fill:#E6E6E6;}
	.st307{fill:url(#SVGID_244_);}
	.st308{fill:url(#SVGID_245_);}
	.st309{fill:url(#SVGID_246_);}
	.st310{fill:url(#SVGID_247_);}
	.st311{opacity:0.2;fill:url(#SVGID_248_);}
	.st312{opacity:0.2;fill:url(#SVGID_249_);}
	.st313{fill:url(#SVGID_250_);}
	.st314{fill:url(#SVGID_251_);}
	.st315{fill:url(#SVGID_252_);}
	.st316{fill:url(#SVGID_253_);}
	.st317{fill:url(#SVGID_254_);}
	.st318{fill:url(#SVGID_255_);}
	.st319{fill:url(#SVGID_256_);}
	.st320{fill:none;stroke:url(#SVGID_257_);stroke-miterlimit:10;}
	.st321{fill:url(#SVGID_258_);}
	.st322{fill:#301812;}
	.st323{opacity:0.2;fill:url(#SVGID_259_);}
	.st324{opacity:0.2;fill:url(#SVGID_260_);}
	.st325{fill:url(#SVGID_261_);}
	.st326{fill:#B0CDD1;}
	.st327{fill:url(#SVGID_262_);}
	.st328{fill:url(#SVGID_263_);}
	.st329{fill:none;stroke:#231F20;stroke-width:6;stroke-miterlimit:10;}
	.st330{fill:url(#SVGID_264_);}
	.st331{fill:url(#SVGID_265_);}
	.st332{fill:url(#SVGID_266_);}
	.st333{fill:url(#SVGID_267_);}
	.st334{fill:url(#SVGID_268_);}
	.st335{fill:url(#SVGID_269_);}
	.st336{fill:url(#SVGID_270_);}
	.st337{fill:url(#SVGID_271_);}
	.st338{fill:url(#SVGID_272_);}
	.st339{fill:url(#SVGID_273_);}
	.st340{opacity:0.2;fill:url(#SVGID_274_);}
	.st341{opacity:0.2;fill:url(#SVGID_275_);}
	.st342{fill:url(#SVGID_276_);}
	.st343{fill:url(#SVGID_277_);}
	.st344{fill:url(#SVGID_278_);}
	.st345{fill:url(#SVGID_279_);}
	.st346{fill:url(#SVGID_280_);}
	.st347{fill:url(#SVGID_281_);}
	.st348{fill:url(#SVGID_282_);}
	.st349{opacity:0.2;fill:url(#SVGID_283_);}
	.st350{opacity:0.2;fill:url(#SVGID_284_);}
	.st351{fill:url(#SVGID_285_);}
	.st352{fill:url(#SVGID_286_);}
	.st353{fill:url(#SVGID_287_);}
	.st354{fill:url(#SVGID_288_);}
	.st355{fill:url(#SVGID_289_);}
	.st356{fill:url(#SVGID_290_);}
	.st357{fill:url(#SVGID_291_);}
	.st358{fill:none;stroke:url(#SVGID_292_);stroke-miterlimit:10;}
	.st359{fill:url(#SVGID_293_);}
	.st360{opacity:0.2;fill:url(#SVGID_294_);}
	.st361{opacity:0.2;fill:url(#SVGID_295_);}
	.st362{fill:url(#SVGID_296_);}
	.st363{fill:url(#SVGID_297_);}
	.st364{fill:url(#SVGID_298_);}
</style>
<g id="Baby_sad">
</g>
<g id="Baby_pleased">
</g>
<g id="Baby_ecstatic">
</g>
<g id="Fish_dead">
</g>
<g id="Fish_pleased">
</g>
<g id="Fish_ecstatic">
	<g>
		<path class="st69" d="M180.1,92.2c-1.8,8.5-13.3,15.1-20.1,12.3l-35.3-24.3c4.1-15.4-10.9-27.3-3.4-43
			c12.3-25.8,60.3-4.6,57.1-36.3L180.1,92.2z"/>
		<g>
			<path class="st70" d="M178.4,1c0.5,4.8,0.3,10.3-3.5,14.3c-3.6,3.9-8.9,5.3-13.7,6.4c-9.8,2.1-19.9,2.7-28.3,7
				c-8.2,4.2-12.9,13.4-10.9,22.3c1.6,8.7,8.1,18.8,4.7,29.9l-4-1.1c2.1-9-3.3-17.5-5.4-27.9C114.5,41,121.2,29,131.2,25
				c9.8-4.2,20-4.1,29.6-5.7c4.8-0.7,9.6-2,13.2-5.1C177.6,11.1,178.5,5.9,178.4,1z"/>
			<path class="st70" d="M178.6,9.3c0.5,4.5,0.2,9.6-3.2,13.3c-3,3.2-7.1,4.7-11.1,5.7c-0.5,0.1-1,0.3-1.5,0.4
				c-8.5,1.9-17.4,2.7-24.9,6.2c-0.4,0.2-0.8,0.4-1.2,0.6c-7.6,3.9-12,12.3-10.4,20.5c0.1,0.6,0.2,1.3,0.4,1.9
				c1.7,7.5,6.3,16,3.2,25.2c0,0-3.7-1-3.7-1c1.1-5-0.1-10.1-1.7-15.3c-1-3.3-2.1-6.7-2.8-10.4c-0.8-3.4-0.5-6.9,0.5-10.3
				c2-6.3,6.7-11.8,12.8-14.2c1.3-0.6,2.7-1.1,4.1-1.5c7.8-2.5,15.8-2.7,23.4-4c0.5-0.1,0.9-0.2,1.4-0.3c3.9-0.8,7.8-2,10.8-4.6
				C177.8,18.7,178.6,13.8,178.6,9.3z"/>
			<path class="st70" d="M178.7,17.6c0.4,4.2,0.1,8.9-3,12.3c-2.7,3-6.5,4.4-10.2,5.4c-0.5,0.1-0.9,0.2-1.4,0.4
				c-7.8,1.9-15.9,2.8-22.9,6c-0.4,0.2-0.8,0.4-1.1,0.6c-7,3.7-11.2,11.3-9.9,18.7c0.1,0.6,0.2,1.2,0.3,1.8
				c1.4,6.8,5.2,14.5,2.2,22.7c-0.1,0-3.4-0.9-3.5-0.9c1-4.5,0-9.4-1.4-14.1c-0.9-2.9-1.7-6-2.3-9.3c-0.6-3-0.3-6.2,0.7-9.2
				c1.9-5.6,6.4-10.7,12-12.9c1.2-0.5,2.5-1,3.7-1.4c7.2-2.3,14.6-2.6,21.5-4c0.4-0.1,0.9-0.2,1.3-0.3c3.6-0.8,7.2-2,9.9-4.4
				C177.9,26.2,178.7,21.8,178.7,17.6z"/>
			<path class="st70" d="M178.9,25.9c0.3,3.8,0.1,8.1-2.8,11.3c-2.5,2.8-5.9,4.1-9.2,5.1c-0.4,0.1-0.8,0.2-1.2,0.4
				c-7.1,1.9-14.5,2.8-20.8,5.8c-0.3,0.2-0.7,0.3-1,0.5c-6.4,3.4-10.3,10.3-9.4,17c0.1,0.5,0.1,1,0.2,1.6c1,6.1,4.2,13,1.3,20.2
				c-0.1,0-3.1-0.8-3.2-0.8c0.9-4,0.1-8.8-1.1-12.9c-0.7-2.5-1.4-5.2-1.7-8.2c-0.5-2.7-0.1-5.5,0.9-8.2c1.9-5,6-9.5,11.2-11.6
				c1.1-0.5,2.3-0.9,3.4-1.3c6.6-2.2,13.3-2.6,19.7-3.9c0.4-0.1,0.8-0.2,1.2-0.3c3.3-0.8,6.5-1.9,9-4.1
				C178.1,33.8,178.8,29.7,178.9,25.9z"/>
			<path class="st70" d="M179,34.2c0.3,3.5,0,7.4-2.5,10.3c-2.2,2.5-5.3,3.9-8.3,4.9c-0.4,0.1-0.7,0.2-1.1,0.4
				c-6.3,1.9-13,2.9-18.8,5.7c-0.3,0.2-0.6,0.3-0.9,0.5c-5.8,3.1-9.4,9.3-8.9,15.2c0,0.5,0.1,0.9,0.1,1.4c0.6,5.4,3.1,11.4,0.3,17.7
				c-0.1,0-2.8-0.7-2.9-0.8c0.8-3.5,0.2-8.1-0.8-11.8c-0.6-2.2-1-4.5-1.2-7c-0.3-2.4,0.2-4.8,1.2-7.2c1.9-4.4,5.7-8.4,10.4-10.4
				c1-0.5,2.1-0.8,3.1-1.2c6-2,12.1-2.5,17.8-3.9c0.4-0.1,0.7-0.2,1.1-0.3c3-0.8,5.8-1.9,8.1-3.9C178.2,41.4,179,37.7,179,34.2z"/>
			<path class="st70" d="M179.2,42.5c0.2,3.2-0.1,6.7-2.3,9.3c-1.9,2.3-4.6,3.6-7.3,4.6c-0.3,0.1-0.7,0.2-1,0.3
				c-5.6,1.9-11.6,2.9-16.8,5.5c-0.3,0.1-0.6,0.3-0.8,0.4c-5.2,2.8-8.6,8.3-8.4,13.4c0,0.4,0,0.8,0,1.2c0.3,4.8,2.1,9.9-0.7,15.2
				c-0.1,0-2.5-0.7-2.6-0.7c0.7-3,0.3-7.5-0.4-10.6c-0.4-1.8-0.6-3.8-0.6-5.9c-0.1-2,0.4-4.1,1.4-6.2c1.8-3.8,5.3-7.3,9.6-9.1
				c0.9-0.4,1.9-0.8,2.8-1.1c5.4-1.8,10.8-2.5,15.9-3.9c0.3-0.1,0.6-0.2,1-0.3c2.6-0.8,5.2-1.8,7.2-3.7
				C178.4,48.9,179.1,45.6,179.2,42.5z"/>
			<path class="st70" d="M179.4,50.8c0.1,2.8-0.2,5.9-2.1,8.3c-1.7,2.1-4,3.3-6.3,4.3c-0.3,0.1-0.6,0.2-0.9,0.3
				c-4.9,1.8-10.1,3-14.7,5.3c-0.3,0.1-0.5,0.3-0.7,0.4c-4.6,2.5-7.7,7.2-7.9,11.7c0,0.3,0,0.7-0.1,1c-0.1,4.1,1,8.4-1.7,12.7
				c-0.2,0-2.2-0.6-2.3-0.6c0.6-2.5,0.4-6.8-0.1-9.4c-0.3-1.4-0.2-3-0.1-4.8c0-1.7,0.6-3.4,1.6-5.1c1.8-3.2,5-6.2,8.8-7.8
				c0.8-0.4,1.7-0.7,2.5-1c4.8-1.7,9.6-2.4,14.1-3.8c0.3-0.1,0.6-0.2,0.8-0.3c2.3-0.8,4.5-1.8,6.3-3.5
				C178.5,56.5,179.2,53.6,179.4,50.8z"/>
			<path class="st70" d="M179.5,59c0.1,2.5-0.2,5.2-1.9,7.3c-1.4,1.9-3.4,3-5.4,4c-0.2,0.1-0.5,0.2-0.7,0.3c-4.2,1.8-8.6,3-12.7,5.2
				c-0.2,0.1-0.4,0.2-0.7,0.3c-4,2.3-6.9,6.2-7.4,9.9c-0.1,0.3-0.1,0.6-0.1,0.9c-0.5,3.4,0,6.9-2.6,10.3c-0.2,0-1.9-0.5-2.1-0.5
				c0.5-2,0.9-6.2,0.2-8.3c0.1-1.1,0.2-2.3,0.5-3.7c0.2-1.3,0.9-2.7,1.8-4.1c1.8-2.6,4.6-5.1,8-6.5c0.7-0.3,1.5-0.6,2.2-0.9
				c4.2-1.5,8.4-2.4,12.2-3.8c0.2-0.1,0.5-0.2,0.7-0.3c2-0.8,3.9-1.7,5.4-3.3C178.7,64.1,179.3,61.5,179.5,59z"/>
			<path class="st70" d="M179.7,67.3c0,2.2-0.3,4.5-1.6,6.3c-1.2,1.6-2.8,2.7-4.4,3.7c-0.2,0.1-0.4,0.2-0.6,0.3
				c-3.4,1.8-7.2,3.1-10.6,5c-0.2,0.1-0.4,0.2-0.6,0.3c-3.4,2-6,5.2-6.9,8.1c-0.1,0.2-0.2,0.5-0.2,0.7c-0.9,2.7-1.1,5.3-3.6,7.8
				c-0.2,0-1.5-0.4-1.8-0.5c0.3-1.5,1-5.6,0.5-7.1c0.3-0.7,0.6-1.6,1-2.6c0.4-1,1.1-2,2-3.1c1.7-2,4.3-4,7.2-5.2
				c0.6-0.3,1.3-0.5,1.9-0.8c3.6-1.4,7.1-2.3,10.4-3.7c0.2-0.1,0.4-0.2,0.6-0.3c1.7-0.8,3.2-1.7,4.5-3.1
				C178.9,71.6,179.4,69.5,179.7,67.3z"/>
			<path class="st70" d="M179.8,75.6c0,1.8-0.4,3.7-1.4,5.3c-0.9,1.4-2.2,2.5-3.5,3.4c-0.2,0.1-0.3,0.2-0.5,0.3
				c-2.7,1.8-5.7,3.1-8.6,4.9c-0.2,0.1-0.3,0.2-0.5,0.3c-2.8,1.7-5.2,4.2-6.5,6.3c-0.1,0.2-0.2,0.3-0.3,0.5c-1.2,2-2.1,3.8-4.6,5.3
				c-0.3-0.1-1.2-0.3-1.5-0.4c0.2-1,1.2-4.9,0.9-6c0.5-0.4,1-0.9,1.6-1.5c0.5-0.6,1.3-1.3,2.2-2.1c1.7-1.4,3.9-2.9,6.4-3.9
				c0.5-0.2,1.1-0.5,1.6-0.7c3-1.2,5.9-2.2,8.5-3.7c0.2-0.1,0.3-0.2,0.5-0.3c1.3-0.7,2.6-1.6,3.6-2.8
				C179,79.2,179.6,77.4,179.8,75.6z"/>
			<path class="st70" d="M180,83.9c-0.1,1.5-0.4,3-1.2,4.3c-0.7,1.2-1.5,2.2-2.5,3.1c-0.1,0.1-0.2,0.2-0.3,0.3
				c-2,1.7-4.3,3.2-6.6,4.7c-0.1,0.1-0.2,0.2-0.4,0.2c-2.2,1.4-4.3,3.2-6,4.6c-0.1,0.1-0.3,0.2-0.4,0.3c-1.6,1.3-3.2,2.3-5.6,2.8
				c-0.3-0.1-0.9-0.2-1.2-0.3c0.1-0.5,1.3-4.3,1.2-4.8c0.7,0,1.4-0.1,2.2-0.4c0.7-0.3,1.5-0.6,2.5-1c1.6-0.8,3.6-1.7,5.6-2.6
				c0.4-0.2,0.9-0.4,1.3-0.6c2.4-1.1,4.6-2.2,6.6-3.6c0.1-0.1,0.2-0.2,0.4-0.3c1-0.7,1.9-1.6,2.7-2.6
				C179.2,86.8,179.7,85.4,180,83.9z"/>
			<path class="st70" d="M180.1,92.2c-0.3,2.2-1.2,4.3-2.5,6.1c-1.3,1.9-2.9,3.5-4.7,4.8c-1.8,1.3-3.9,2.5-6.2,3.1
				c-2.3,0.7-4.8,0.8-7.5,0l1.5-3.6c1.6,0.7,3.5,0.9,5.4,0.7c1.9-0.2,3.9-0.8,5.7-1.8s3.6-2.3,5-3.9
				C178.4,96.1,179.5,94.3,180.1,92.2z"/>
		</g>
		<path class="st69" d="M81.8,192.3c0,0-13.9,21.6-37.3,25.6s-25.6,36.5-25.6,36.5s64.3-19.8,73.8-34.6s2.2-22,2.2-22L81.8,192.3z"
			/>
		<path class="st69" d="M131.3,201.3c0,0,8.9,27,19.4,30.6s45.9,15.6,53.1,22.5c0,0,1.8-55.3-51.3-70.2L131.3,201.3z"/>
		<linearGradient id="SVGID_1_" gradientUnits="userSpaceOnUse" x1="89.9565" y1="244.5263" x2="113.5256" y2="244.5263">
			<stop  offset="0" style="stop-color:#E37830"/>
			<stop  offset="1" style="stop-color:#E0612F"/>
		</linearGradient>
		<path class="st0" d="M108.8,208.5c0,0-15.3,12.1-18.4,38.2s13.5,33.7,13.5,33.7s-9-22.9,0-28.3s9.7-37.2,9.7-37.2L108.8,208.5z"/>
		<g>
			<path class="st69" d="M228.6,124.3c-19.9,30.9,0,41.8-24,57.3c-28.1,18.2-40.6-13.2-40.6-13.2l-3.4-42.1c0,0,32,0.5,32-24.1
				c0-23.5,10.5-57.6,70-34.7L228.6,124.3z"/>
		</g>
		<g>
			<path class="st70" d="M160.7,123.8c10.8-0.1,23.8-3.3,28.3-13.4c2.4-4.7,1.4-10.9,2.5-17.1c0.9-6,2.6-12.1,5.6-17.4
				c5.8-11.3,18.8-17,30.8-16.5c12.1,0.2,23.7,3.9,34.8,8.2c-11.2-3.9-22.9-7.1-34.7-6.9c-11.8-0.1-23.5,5.8-28.5,16.4
				c-2.6,5.1-4,10.8-4.6,16.6c-0.9,5.6,0.6,11.9-2.1,18.2c-5.6,12.9-20,16.5-32.1,17.1L160.7,123.8z"/>
			<path class="st70" d="M257,77.2c-10.5-2.4-21.5-4.1-32.1-2.2c-10.6,1.8-19.5,9.2-23.1,19.2c-2,4.9-3.2,10.1-4.2,15.4
				c-1,5.1-1.5,11.2-5,16.2c-7.3,10.5-20.8,11.8-31.9,10.4l1.1-5.6c9.6,1.7,21.6,0.7,27.3-7.3c3-3.9,3.8-9,5-14.5
				c1.2-5.3,2.7-10.7,5-15.8c4.3-10.5,14.4-18.2,25.5-19.5C235.7,72.1,246.6,74.4,257,77.2z"/>
			<path class="st70" d="M251.3,86.7c-9.9-0.8-20.2-0.8-29.3,3.2c-9.4,3.6-15,12.5-18,21.8c-3.7,9-4.2,19.9-12.4,27.9
				c-8.6,7.6-20.9,6.8-30.7,3.3l1.9-4.6c8.4,3.4,19.2,4.4,26.3-1.5c7.1-5.9,8.6-16.8,12.6-25.9c3.4-9.4,10-18.8,19.9-22.1
				C231.1,85,241.5,85.5,251.3,86.7z"/>
			<path class="st70" d="M245.7,96.1c-9.3,1.1-18.7,3.6-26,9.3c-7.4,5.9-10.3,15-13.5,23.8c-3.2,8.6-7,18.5-16.3,23.7
				c-9.5,5-20.6,2-29-3.3l3-4.2c6.9,4.8,16.5,7.8,24.3,4c7.8-3.7,12.1-12.7,15.7-21.1c3.5-8.5,7.1-18.1,15.1-23.9
				C226.8,98.8,236.4,96.8,245.7,96.1z"/>
			<path class="st70" d="M240,105.6c-8.3,3.5-16.5,8.3-21.5,15.9c-5.1,7.5-6.4,16.7-10.5,25c-4.1,8.1-10.5,16.3-20.2,18.9
				c-10,2.4-19.6-2.7-26.4-9.3l3.3-2.9c5.6,6,14.2,10.9,22.4,9.1c8.3-1.8,14.8-9.1,19-16.7c4.3-7.8,6-17.1,11.6-24.7
				C223.1,113.2,231.6,108.8,240,105.6z"/>
			<path class="st70" d="M234.3,115c-6.8,6-12.9,13.3-15.6,21.9c-2.8,8.4-3,18.3-9,26.1c-5.7,7.3-13.7,14-24,14.5
				c-10.4,0.2-19-6.7-24.5-14.7l4.5-2.7c4.3,7,11.6,13.3,20,13.4c8.3,0.1,16.3-5.6,21.9-12.1c5.8-6.8,6.6-16.3,9.8-25
				C220.7,127.7,227.2,120.7,234.3,115z"/>
			<path class="st70" d="M228.6,124.5c-5,8.1-8.6,17.2-9.3,26.6c-0.5,4.7-0.2,9.5-1,14.4c-0.8,4.9-3.5,9.5-7.2,12.8
				c-7.1,6.5-16.5,12-27.1,10.6c-10.6-1.8-18-10.3-22.3-19.4l4.6-1.8c3.3,8,9.7,15.9,18.4,17.6c8.6,1.7,17.9-2.9,24.8-8.8
				c7.9-5.8,7.7-16.1,8.6-25.5C219.2,141.4,223.3,132.4,228.6,124.5z"/>
		</g>
		<linearGradient id="SVGID_2_" gradientUnits="userSpaceOnUse" x1="118.6378" y1="103.0087" x2="117.9402" y2="188.8122">
			<stop  offset="0" style="stop-color:#E37830"/>
			<stop  offset="1" style="stop-color:#E0612F"/>
		</linearGradient>
		<ellipse style="fill:url(#SVGID_2_);" cx="118.3" cy="145.4" rx="56.7" ry="69.7"/>
		<path class="st73" d="M140.2,165.7c0,7.8-15.2,21.8-29.7,21.8s-33.3-11.1-33.3-18.9s16.9-3.6,31.4-3.6S140.2,157.8,140.2,165.7z"
			/>
		<ellipse class="st74" cx="157.9" cy="140.2" rx="16.1" ry="30.6"/>
		<path class="st74" d="M77.2,136.8c-1.8,16.8-4,30.9-9.1,30.4c-5.1-0.6-7.8-14.6-5.9-31.4c1.8-16.8,6.7-29,11.8-27.9
			C76,108.4,79,120,77.2,136.8z"/>
		<g>
			<path class="st75" d="M115.8,201.3c-28,3-46.5-19.8-46.5-33.3c0-3.3,1.3-6.3,3.6-8.4c4.9-4.4,11.6,2.7,20.9,3.8
				c8.4,1,18.4,0.4,28.7-1.4c9.9-1.7,17.8-8.7,22.9-4.4c2.4,2,3.6,4.8,3.6,8C149.1,178.4,141.6,198.5,115.8,201.3z M79.6,168.9
				c3.5,4.5,9,14,32.1,13.2c7.8-0.3,26.1-9.5,28-17.4c-2.2,0.3-9.6,4.1-15.9,5.8c-10.1,2.8-21.1,2.6-31.2,1.5
				C90.9,171.8,81.4,169.1,79.6,168.9z"/>
		</g>
		<path class="st76" d="M143,137.8c0,15.4,7.3,27.9,13.7,27.9c12,0,21.7-12.5,21.7-27.8s-9.7-27.8-21.7-27.8
			C150.3,109.2,143,122.4,143,137.8z"/>
		<path d="M169.7,138.8c0,8.4-5,15.2-11.2,15.2s-8.3-6.8-8.3-15.2s2.1-15.2,8.3-15.2S169.7,130.4,169.7,138.8z"/>
		<path class="st76" d="M46.2,134.3c0,15.1,8.6,27.3,18.5,27.3c2.3,0,10-12.2,10-27.3s-1.1-25.1-4.7-25.1
			C60.2,109.2,46.2,119.2,46.2,134.3z"/>
		<path d="M50.3,134.3c0,8.4,4.3,15.2,9.6,15.2c5.3,0,5.6-6.8,5.6-15.2s-0.3-15.2-5.6-15.2C54.6,119.1,50.3,125.9,50.3,134.3z"/>
		<g>
			<path class="st77" d="M111.8,181.5c-17.7,2.4-14-9-15.3-9.1c-5.5-0.3-14.7-5.1-16.8-3.5c-0.5,0.3,0.8,22.7,28,21.4
				c26.7-1.3,36.3-22.2,32.1-25.6C137.5,171.8,121.9,180.1,111.8,181.5z"/>
		</g>
		<g>
			<path class="st78" d="M173.5,145.6l-0.3-0.1c3.5-18.4-6.5-28.3-12.6-29.5l0.1-0.3C166.9,116.9,177,126.9,173.5,145.6z"/>
		</g>
		<linearGradient id="SVGID_3_" gradientUnits="userSpaceOnUse" x1="156.6486" y1="137.8123" x2="178.3983" y2="137.8123">
			<stop  offset="0" style="stop-color:#EDF5FB;stop-opacity:0"/>
			<stop  offset="0.9819" style="stop-color:#EDF5FB"/>
		</linearGradient>
		<path style="opacity:0.7;fill:url(#SVGID_3_);" d="M156.6,165.7c12,0,21.7-12.5,21.7-27.8s-9.7-27.8-21.7-27.8"/>
		<path class="st80" d="M95.7,165.5c8.5,0.7,17.1-0.1,25.5-1.3c4.2-0.6,8.2-2.2,12.2-3.6c3.6-1.7,9.7-2.3,12.3,2.2
			c3.3,8.9-1.2,17.8-6.4,24.4c-5.7,6.8-14.5,9.9-23,10.4c8.4-1.1,16.8-4.5,22.2-11.1c5-6.2,8.8-15.7,6-22.9c-2.1-3.9-6.8-3.5-10.7-2
			c-4,1.3-8.2,2.8-12.5,3.3C112.8,166,104.2,166.4,95.7,165.5z"/>
		<g>
			<path class="st81" d="M99,94.2c-6.3-0.1-10.1,10.6-10.1,10.6s1.3-9.3-3.6-10.5"/>
			<path class="st81" d="M155.7,96.1c-5-1-2.5,8.8-2.5,8.8s-4.1-10.1-10.3-8.8c-4.3,0.9-2.8,8.4-2.8,8.4s-0.9-8.6-8.9-10.3"/>
			<path class="st81" d="M131.3,94.2c-8-1.7-7.8,10.3-7.8,10.3s0.2-10.5-6.9-10.3c-6.1,0.1-10.4,10.3-10.4,10.3s-2.7-10.2-7.2-10.2"
				/>
			<path class="st81" d="M85.3,94.3c-4.9-1.2-13,10.5-13,10.5"/>
			<path class="st81" d="M165.5,106.9c0,0-5.8-10-9.8-10.7"/>
			<path class="st81" d="M138.4,85.8c-6.1,0-7.1,8.4-7.1,8.4"/>
			<path class="st81" d="M138.4,85.8c5.4,0,6.3,10.3,6.3,10.3s1.5-6.6,4.4-7.1c3.1-0.6,6.6,7.1,6.6,7.1"/>
			<path class="st81" d="M80.5,88.2c-1.3-0.8-3-1.4-5-1.5"/>
			<path class="st81" d="M123.4,85.4c-6.1,0.1-6.5,8.8-6.5,8.8s-3.2-8.3-7.7-8.4"/>
			<path class="st81" d="M123.4,85.4c7.1-0.2,7.9,8.8,7.9,8.8"/>
			<path class="st81" d="M80.5,88.2c3.8,2.3,4.8,6.2,4.8,6.2"/>
			<path class="st81" d="M109.2,85.8c-6.3-0.1-10.2,8.4-10.2,8.4"/>
			<path class="st81" d="M99,94.2c0,0,0.8-6.5-4.2-7.7c-4.9-1.2-9.5,7.8-9.5,7.8"/>
			<path class="st81" d="M123.4,85.4c0,0-1.6-6.5-6.6-6.1"/>
			<path class="st81" d="M123.4,85.4c0,0,2-4.6,8.1-4.6"/>
			<path class="st81" d="M80.5,88.2c1.4-3,4.5-8.3,8.1-7.4"/>
			<path class="st81" d="M138.4,85.8c0,0-1.5-5.1-6.9-5.1"/>
			<path class="st81" d="M138.4,85.8c0,0,2.5-3.9,5.4-3.3"/>
			<path class="st81" d="M143.8,82.5c2.9,0.5,5.8,6.5,5.8,6.5"/>
			<path class="st81" d="M109.2,85.8c0,0-0.5-5.7-5-5.8"/>
			<path class="st81" d="M80.5,88.2c-0.5,1.1-0.9,1.9-0.9,1.9"/>
			<path class="st81" d="M116.8,79.2c0,0-0.1,0-0.1,0"/>
			<path class="st81" d="M109.2,85.8c0,0,3.1-6.2,7.4-6.6c0,0,0,0,0,0"/>
			<path class="st81" d="M88.6,80.8c4.9,1.2,6,5.5,6,5.5s3.3-6.4,9.6-6.3"/>
			<path class="st81" d="M72.9,84c0,0,4-10.5,9-9.3c4.9,1.2,6.7,6,6.7,6"/>
			<path class="st81" d="M116.8,79.2c0.1-0.3,2.2-4.5,8.1-4.5c5.4,0,6.7,6,6.7,6"/>
			<path class="st81" d="M143.8,82.5c0,0-3.8-5.5-6.7-6c-2.9-0.5-5.7,4.3-5.7,4.3"/>
			<path class="st81" d="M116.7,79.2c0,0,0,0.1,0,0.1s0.1-0.1,0.1-0.1"/>
			<path class="st81" d="M104.2,80c0,0,1.4-6.4,5.7-6.8c4.9-0.5,6.6,5.6,6.7,6"/>
			<path class="st81" d="M88.6,80.8c0,0,2.6-6.9,9-6.8c4.5,0.1,6.7,6,6.7,6"/>
		</g>
		<g>
			<linearGradient id="SVGID_4_" gradientUnits="userSpaceOnUse" x1="79.1787" y1="90.6872" x2="79.1787" y2="103.4272">
				<stop  offset="0" style="stop-color:#E37830"/>
				<stop  offset="1" style="stop-color:#E0612F"/>
			</linearGradient>
			<path class="st4" d="M85.2,94.5c-3.8-1-9.4,5.8-11.9,9c2.6-4.8,6.2-9.2,10-12.7C84.8,92.7,85.2,94.5,85.2,94.5z"/>
			<linearGradient id="SVGID_5_" gradientUnits="userSpaceOnUse" x1="92.0411" y1="86.5974" x2="92.0411" y2="105.02">
				<stop  offset="0" style="stop-color:#E37830"/>
				<stop  offset="1" style="stop-color:#E0612F"/>
			</linearGradient>
			<path class="st7" d="M98.9,94.5C92.5,94.3,88.7,105,88.7,105s1.4-9.4-3.6-10.6c0,0,4.6-9,9.6-7.8S98.9,94.5,98.9,94.5z"/>
			<linearGradient id="SVGID_7_" gradientUnits="userSpaceOnUse" x1="107.7434" y1="85.91" x2="107.7434" y2="104.6215">
				<stop  offset="0" style="stop-color:#E37830"/>
				<stop  offset="1" style="stop-color:#E0612F"/>
			</linearGradient>
			<path style="fill:url(#SVGID_7_);" d="M116.6,94.3h-0.2c-6.2,0.2-10.4,10.4-10.4,10.4s-2.8-10.2-7.2-10.2c0,0,3.8-8.6,10.2-8.6
				C113.4,86.1,116.6,94.3,116.6,94.3z"/>
			<linearGradient id="SVGID_9_" gradientUnits="userSpaceOnUse" x1="123.867" y1="85.5128" x2="123.867" y2="104.6215">
				<stop  offset="0" style="stop-color:#E37830"/>
				<stop  offset="1" style="stop-color:#E0612F"/>
			</linearGradient>
			<path style="fill:url(#SVGID_9_);" d="M131.1,94.3c-8-1.6-7.8,10.4-7.8,10.4c0-1-0.2-10.4-6.8-10.4c0,0,0.4-8.6,6.6-8.8
				c0,0,0,0,0.2,0C130.3,85.5,131.1,94.3,131.1,94.3z"/>
			<linearGradient id="SVGID_10_" gradientUnits="userSpaceOnUse" x1="155.5171" y1="86.1093" x2="155.5171" y2="103.8257">
				<stop  offset="0" style="stop-color:#E37830"/>
				<stop  offset="1" style="stop-color:#E0612F"/>
			</linearGradient>
			<path class="st19" d="M163.4,103.8c-2-3-5.4-7.2-7.8-7.6c0,0-3.2-7-6.2-7.2c0,0,0,0-0.2,0c-0.2-0.8-0.8-1.8-1.6-3
				C153.8,90.7,159.4,96.7,163.4,103.8z"/>
			<linearGradient id="SVGID_11_" gradientUnits="userSpaceOnUse" x1="103.9613" y1="77.7492" x2="103.9613" y2="80.1378">
				<stop  offset="0" style="stop-color:#E37830"/>
				<stop  offset="1" style="stop-color:#E0612F"/>
			</linearGradient>
			<path style="fill:url(#SVGID_11_);" d="M104.9,77.7c-0.6,1.2-0.8,2.4-0.8,2.4s0,0-0.2,0c0-0.6-0.4-1.2-0.8-1.8
				C103.7,77.9,104.3,77.9,104.9,77.7z"/>
			<linearGradient id="SVGID_12_" gradientUnits="userSpaceOnUse" x1="117.3974" y1="75.7579" x2="117.3974" y2="79.342">
				<stop  offset="0" style="stop-color:#E37830"/>
				<stop  offset="1" style="stop-color:#E0612F"/>
			</linearGradient>
			<path style="fill:url(#SVGID_12_);" d="M120,76c-2.4,1.4-3.2,3.2-3.4,3.4c0,0,0,0-0.2,0c0-0.2-0.4-1.8-1.6-3.4
				c1-0.2,2.2-0.2,3.4-0.2C118.8,75.8,119.4,75.8,120,76z"/>
			<linearGradient id="SVGID_13_" gradientUnits="userSpaceOnUse" x1="116.502" y1="79.3809" x2="116.502" y2="79.5028">
				<stop  offset="0" style="stop-color:#E37830"/>
				<stop  offset="1" style="stop-color:#E0612F"/>
			</linearGradient>
			<path class="st22" d="M116.6,79.3v0.2l-0.2-0.2C116.6,79.3,116.6,79.3,116.6,79.3z"/>
			<linearGradient id="SVGID_14_" gradientUnits="userSpaceOnUse" x1="131.4307" y1="77.1515" x2="131.4307" y2="80.9336">
				<stop  offset="0" style="stop-color:#E37830"/>
				<stop  offset="1" style="stop-color:#E0612F"/>
			</linearGradient>
			<path class="st23" d="M133.3,78.3c-1.2,1.2-2,2.6-2,2.6s-0.4-2.2-1.8-3.8C130.9,77.5,132.1,77.9,133.3,78.3z"/>
			<g>
				<linearGradient id="SVGID_16_" gradientUnits="userSpaceOnUse" x1="139.9904" y1="103.2286" x2="139.9904" y2="104.622">
					<stop  offset="0" style="stop-color:#E37830"/>
					<stop  offset="1" style="stop-color:#E0612F"/>
				</linearGradient>
				<path style="fill:url(#SVGID_16_);" d="M140.1,104.6c0,0,0-0.6-0.2-1.4"/>
				<linearGradient id="SVGID_18_" gradientUnits="userSpaceOnUse" x1="143.3743" y1="85.91" x2="143.3743" y2="105.02">
					<stop  offset="0" style="stop-color:#E37830"/>
					<stop  offset="1" style="stop-color:#E0612F"/>
				</linearGradient>
				<path style="fill:url(#SVGID_18_);" d="M153,105c0,0-4-10-10.2-8.8c-3.2,0.6-3.2,4.6-3,7c-0.8-2.4-2.8-7.6-8.8-9
					c0,0,1-8.4,7.2-8.4c5.4,0,6.2,10.4,6.2,10.4s1.6-6.6,4.4-7.2c0.2,0,0.2,0,0.4,0c0.2,0,0.2,0,0.2,0c3,0.2,6.2,7.2,6.2,7.2
					C150.4,95.3,153,105,153,105z"/>
				<linearGradient id="SVGID_19_" gradientUnits="userSpaceOnUse" x1="96.0987" y1="80.1378" x2="96.0987" y2="94.4694">
					<stop  offset="0" style="stop-color:#E37830"/>
					<stop  offset="1" style="stop-color:#E0612F"/>
				</linearGradient>
				<path class="st26" d="M109,85.9c-6.4,0-10.2,8.6-10.2,8.6s0.8-6.6-4.2-7.8s-9.6,7.8-9.6,7.8s-0.4-1.8-2-3.8c3-3,6-5.4,9.4-7.4
					h0.2c1.4,1.6,1.8,3.2,1.8,3.2s3.2-6.4,9.4-6.4c0.2,0,0.2,0,0.2,0C108.6,80.1,109,85.9,109,85.9z"/>
				<linearGradient id="SVGID_20_" gradientUnits="userSpaceOnUse" x1="143.7722" y1="82.7257" x2="143.7722" y2="96.2614">
					<stop  offset="0" style="stop-color:#E37830"/>
					<stop  offset="1" style="stop-color:#E0612F"/>
				</linearGradient>
				<path style="fill:url(#SVGID_20_);" d="M149.2,89.1c-0.2,0-0.2,0-0.4,0c-2.8,0.6-4.4,7.2-4.4,7.2s-0.8-10.4-6.2-10.4
					c0,0,2-3.2,4.8-3.2c1.2,1,2.8,1.8,4,2.8c0.2,0.2,0.4,0.4,0.6,0.6C148.5,87.3,149,88.3,149.2,89.1z"/>
				<linearGradient id="SVGID_21_" gradientUnits="userSpaceOnUse" x1="116.1035" y1="79.3246" x2="116.1035" y2="94.2713">
					<stop  offset="0" style="stop-color:#E37830"/>
					<stop  offset="1" style="stop-color:#E0612F"/>
				</linearGradient>
				<path class="st28" d="M123.2,85.5c-6.2,0.2-6.6,8.8-6.6,8.8s-3.2-8.2-7.6-8.4c0,0,3-6.2,7.4-6.6l0.2,0.2v-0.2
					C121.6,78.9,123.2,85.5,123.2,85.5z"/>
				<linearGradient id="SVGID_23_" gradientUnits="userSpaceOnUse" x1="123.9667" y1="75.9572" x2="123.9667" y2="85.5128">
					<stop  offset="0" style="stop-color:#E37830"/>
					<stop  offset="1" style="stop-color:#E0612F"/>
				</linearGradient>
				<path style="fill:url(#SVGID_23_);" d="M131.3,80.9c-5.4,0-7.6,3.6-8,4.6c-0.2,0-0.2,0-0.2,0s-1.6-6.6-6.6-6.2
					c0.2-0.2,1-2,3.4-3.4c3.2,0,6.4,0.4,9.6,1.2C130.9,78.7,131.3,80.9,131.3,80.9z"/>
				<linearGradient id="SVGID_24_" gradientUnits="userSpaceOnUse" x1="130.8336" y1="80.9336" x2="130.8336" y2="94.2713">
					<stop  offset="0" style="stop-color:#E37830"/>
					<stop  offset="1" style="stop-color:#E0612F"/>
				</linearGradient>
				<path class="st31" d="M138.3,85.9c-6.2,0-7.2,8.4-7.2,8.4s-0.8-8.8-7.8-8.8c0.4-1,2.6-4.6,8-4.6
					C136.7,80.9,138.3,85.9,138.3,85.9z"/>
				<linearGradient id="SVGID_26_" gradientUnits="userSpaceOnUse" x1="137.2035" y1="78.3458" x2="137.2035" y2="85.91">
					<stop  offset="0" style="stop-color:#E37830"/>
					<stop  offset="1" style="stop-color:#E0612F"/>
				</linearGradient>
				<path style="fill:url(#SVGID_26_);" d="M143.1,82.7c-2.8,0-4.8,3.2-4.8,3.2s-1.6-5-7-5c0,0,0.8-1.4,2-2.6
					C136.7,79.5,139.9,80.9,143.1,82.7z"/>
				<linearGradient id="SVGID_27_" gradientUnits="userSpaceOnUse" x1="110.2316" y1="75.9572" x2="110.2316" y2="85.91">
					<stop  offset="0" style="stop-color:#E37830"/>
					<stop  offset="1" style="stop-color:#E0612F"/>
				</linearGradient>
				<path style="fill:url(#SVGID_27_);" d="M116.4,79.3c-4.4,0.4-7.4,6.6-7.4,6.6s-0.4-5.8-5-5.8c0,0,0.2-1.2,0.8-2.4
					c3.2-1,6.6-1.6,10-1.8C116,77.5,116.4,79.1,116.4,79.3z"/>
				<linearGradient id="SVGID_28_" gradientUnits="userSpaceOnUse" x1="98.2881" y1="78.3458" x2="98.2881" y2="86.5078">
					<stop  offset="0" style="stop-color:#E37830"/>
					<stop  offset="1" style="stop-color:#E0612F"/>
				</linearGradient>
				<path class="st35" d="M103.9,80.1c-6.2,0-9.4,6.4-9.4,6.4s-0.4-1.6-1.8-3.2c3.4-2.2,6.6-3.8,10.4-5
					C103.5,78.9,103.9,79.5,103.9,80.1z"/>
			</g>
		</g>
		<circle class="st102" cx="84.8" cy="112.7" r="2.9"/>
		<circle class="st102" cx="98.3" cy="120.8" r="1.9"/>
		<circle class="st102" cx="112.9" cy="110.9" r="2.8"/>
		<circle class="st102" cx="125" cy="128.5" r="1.1"/>
		<circle class="st102" cx="110.1" cy="130.7" r="4"/>
		<circle class="st102" cx="132.6" cy="106.9" r="2.3"/>
		<circle class="st102" cx="120" cy="118.1" r="3.4"/>
		<circle class="st102" cx="137.2" cy="123.5" r="4"/>
		<circle class="st102" cx="94.2" cy="132.6" r="0.9"/>
		<circle class="st102" cx="84.1" cy="123.5" r="4"/>
		<circle class="st102" cx="99.7" cy="107.9" r="2.5"/>
		<linearGradient id="SVGID_29_" gradientUnits="userSpaceOnUse" x1="160.5932" y1="127.1115" x2="172.0461" y2="127.1115">
			<stop  offset="0" style="stop-color:#FFFFFF;stop-opacity:0"/>
			<stop  offset="1" style="stop-color:#FFFFFF"/>
		</linearGradient>
		<path class="st37" d="M165.8,118.4c-0.8,6.5-5.2,13.7-5.2,13.7l4.2,3.6c0,0,7.5-5.1,7.2-10C171.8,122,165.8,118.4,165.8,118.4z"/>
		<linearGradient id="SVGID_30_" gradientUnits="userSpaceOnUse" x1="151.9376" y1="152.0729" x2="158.1518" y2="152.0729">
			<stop  offset="0" style="stop-color:#FFFFFF;stop-opacity:0"/>
			<stop  offset="1" style="stop-color:#FFFFFF"/>
		</linearGradient>
		<path style="fill:url(#SVGID_30_);" d="M151.9,153.3c0,0,2.4-1.4,4.3-4.8c0.3-0.6,1.9,1.2,1.9,1.9c-0.2,3.2-3.1,5.3-3.1,5.3
			L151.9,153.3z"/>
		<linearGradient id="SVGID_31_" gradientUnits="userSpaceOnUse" x1="58.1426" y1="121.7737" x2="66.5442" y2="121.7737">
			<stop  offset="0" style="stop-color:#FFFFFF;stop-opacity:0"/>
			<stop  offset="1" style="stop-color:#FFFFFF"/>
		</linearGradient>
		<path class="st39" d="M58.1,125.8c0,0-0.2-8.1,5-10.8c0.5-0.3,3.5,1.7,3.4,5.7c-4,2.3-6,7.8-6,7.8L58.1,125.8z"/>
		<linearGradient id="SVGID_33_" gradientUnits="userSpaceOnUse" x1="55.676" y1="147.9155" x2="60.5278" y2="147.9155">
			<stop  offset="0" style="stop-color:#FFFFFF;stop-opacity:0"/>
			<stop  offset="1" style="stop-color:#FFFFFF"/>
		</linearGradient>
		<path style="fill:url(#SVGID_33_);" d="M56.6,151.9c-2.1-3.6,0-8.5,0-8.5h2.5c0,0-0.3,5.5,1.4,8.5
			C59.7,152.5,56.9,152.6,56.6,151.9z"/>
		<circle class="st107" cx="49.7" cy="82" r="13"/>
		<circle class="st107" cx="71.5" cy="51.4" r="6.5"/>
	</g>
</g>
<g id="Robot_destoyed">
</g>
<g id="Robot_pleased">
</g>
<g id="Robot_ecstatic">
</g>
<g id="Sad_Dog">
</g>
<g id="Dog">
</g>
<g id="Dog_ecstatic">
</g>
<g id="Old_man_sad">
</g>
<g id="Old_man_pleased">
</g>
<g id="Old_man_ecstatic">
</g>
</svg>
