<?xml version="1.0" encoding="utf-8"?>
<!-- Generator: Adobe Illustrator 22.1.0, SVG Export Plug-In . SVG Version: 6.00 Build 0)  -->
<svg version="1.1" xmlns="http://www.w3.org/2000/svg" xmlns:xlink="http://www.w3.org/1999/xlink" x="0px" y="0px"
	 viewBox="0 0 315.5 315.5" style="enable-background:new 0 0 315.5 315.5;" xml:space="preserve">
<style type="text/css">
	.st0{fill:url(#SVGID_1_);}
	.st1{fill:#E1A687;}
	.st2{opacity:0.6;fill:url(#SVGID_2_);}
	.st3{opacity:0.6;fill:url(#SVGID_3_);}
	.st4{fill:url(#SVGID_4_);}
	.st5{fill:#CD7B62;}
	.st6{fill:#91594C;}
	.st7{fill:url(#SVGID_5_);}
	.st8{fill:#BA534B;}
	.st9{fill:#C54037;}
	.st10{fill:#D3514A;}
	.st11{fill:#D3E9F4;}
	.st12{fill:#E1BB60;}
	.st13{fill:#78E6F9;}
	.st14{opacity:0.8;fill:#78E6F9;}
	.st15{fill:none;stroke:#CD7B62;stroke-miterlimit:10;}
	.st16{clip-path:url(#SVGID_7_);fill:#A4F6FF;}
	.st17{clip-path:url(#SVGID_9_);}
	.st18{fill:#A4F6FF;}
	.st19{fill:url(#SVGID_10_);}
	.st20{opacity:0.6;fill:url(#SVGID_11_);}
	.st21{opacity:0.6;fill:url(#SVGID_12_);}
	.st22{fill:url(#SVGID_13_);}
	.st23{fill:url(#SVGID_14_);}
	.st24{clip-path:url(#SVGID_16_);fill:#A4F6FF;}
	.st25{clip-path:url(#SVGID_18_);}
	.st26{fill:url(#SVGID_19_);}
	.st27{opacity:0.6;fill:url(#SVGID_20_);}
	.st28{fill:url(#SVGID_21_);}
	.st29{clip-path:url(#SVGID_23_);fill:#62933F;}
	.st30{clip-path:url(#SVGID_23_);fill:#231F20;}
	.st31{fill:url(#SVGID_24_);}
	.st32{clip-path:url(#SVGID_26_);fill:#62933F;}
	.st33{clip-path:url(#SVGID_26_);fill:#231F20;}
	.st34{opacity:0.6;fill:url(#SVGID_27_);}
	.st35{fill:url(#SVGID_28_);}
	.st36{fill:#FFFFFF;}
	.st37{fill:url(#SVGID_29_);}
	.st38{opacity:0.6;fill:url(#SVGID_30_);}
	.st39{fill:url(#SVGID_31_);}
	.st40{clip-path:url(#SVGID_33_);fill:#62933F;}
	.st41{clip-path:url(#SVGID_33_);fill:#231F20;}
	.st42{fill:url(#SVGID_34_);}
	.st43{clip-path:url(#SVGID_36_);fill:#62933F;}
	.st44{clip-path:url(#SVGID_36_);fill:#231F20;}
	.st45{opacity:0.6;fill:url(#SVGID_37_);}
	.st46{fill:url(#SVGID_38_);}
	.st47{fill:url(#SVGID_39_);}
	.st48{opacity:0.6;fill:url(#SVGID_40_);}
	.st49{fill:url(#SVGID_41_);}
	.st50{clip-path:url(#SVGID_43_);fill:#62933F;}
	.st51{clip-path:url(#SVGID_43_);fill:#231F20;}
	.st52{fill:url(#SVGID_44_);}
	.st53{clip-path:url(#SVGID_46_);fill:#62933F;}
	.st54{clip-path:url(#SVGID_46_);fill:#231F20;}
	.st55{opacity:0.6;fill:url(#SVGID_47_);}
	.st56{fill:url(#SVGID_48_);}
	.st57{fill:url(#SVGID_49_);}
	.st58{fill:url(#SVGID_50_);}
	.st59{opacity:0.6;fill:url(#SVGID_51_);}
	.st60{fill:url(#SVGID_52_);}
	.st61{clip-path:url(#SVGID_54_);fill:#62933F;}
	.st62{clip-path:url(#SVGID_54_);fill:#231F20;}
	.st63{fill:url(#SVGID_55_);}
	.st64{clip-path:url(#SVGID_57_);fill:#62933F;}
	.st65{clip-path:url(#SVGID_57_);fill:#231F20;}
	.st66{opacity:0.6;fill:url(#SVGID_58_);}
	.st67{fill:url(#SVGID_59_);}
	.st68{fill:url(#SVGID_60_);}
	.st69{fill:#E37830;}
	.st70{fill:#E0902F;}
	.st71{fill:url(#SVGID_61_);}
	.st72{fill:url(#SVGID_62_);}
	.st73{fill:#83441E;}
	.st74{opacity:0.2;fill:#E37830;}
	.st75{fill:#DDA447;}
	.st76{opacity:0.7;fill:#F7E8D3;}
	.st77{fill:#BE8739;}
	.st78{fill:#F3FAFD;}
	.st79{opacity:0.7;fill:url(#SVGID_63_);}
	.st80{fill:#EEBB72;}
	.st81{fill:none;}
	.st82{fill:url(#SVGID_64_);}
	.st83{fill:url(#SVGID_65_);}
	.st84{fill:url(#SVGID_66_);}
	.st85{fill:url(#SVGID_67_);}
	.st86{fill:url(#SVGID_68_);}
	.st87{fill:url(#SVGID_69_);}
	.st88{fill:url(#SVGID_70_);}
	.st89{fill:url(#SVGID_71_);}
	.st90{fill:url(#SVGID_72_);}
	.st91{fill:url(#SVGID_73_);}
	.st92{fill:url(#SVGID_74_);}
	.st93{fill:url(#SVGID_75_);}
	.st94{fill:url(#SVGID_76_);}
	.st95{fill:url(#SVGID_77_);}
	.st96{fill:url(#SVGID_78_);}
	.st97{fill:url(#SVGID_79_);}
	.st98{fill:url(#SVGID_80_);}
	.st99{fill:url(#SVGID_81_);}
	.st100{fill:url(#SVGID_82_);}
	.st101{fill:url(#SVGID_83_);}
	.st102{fill:#EA833D;}
	.st103{fill:url(#SVGID_84_);}
	.st104{fill:url(#SVGID_85_);}
	.st105{fill:url(#SVGID_86_);}
	.st106{fill:url(#SVGID_87_);}
	.st107{fill:#A2E8F9;}
	.st108{fill:url(#SVGID_88_);}
	.st109{fill:url(#SVGID_89_);}
	.st110{opacity:0.7;fill:url(#SVGID_90_);}
	.st111{fill:url(#SVGID_91_);}
	.st112{fill:url(#SVGID_92_);}
	.st113{fill:url(#SVGID_93_);}
	.st114{fill:url(#SVGID_94_);}
	.st115{fill:url(#SVGID_95_);}
	.st116{fill:url(#SVGID_96_);}
	.st117{fill:url(#SVGID_97_);}
	.st118{fill:url(#SVGID_98_);}
	.st119{fill:url(#SVGID_99_);}
	.st120{fill:url(#SVGID_100_);}
	.st121{fill:url(#SVGID_101_);}
	.st122{fill:url(#SVGID_102_);}
	.st123{fill:url(#SVGID_103_);}
	.st124{fill:url(#SVGID_104_);}
	.st125{fill:url(#SVGID_105_);}
	.st126{fill:url(#SVGID_106_);}
	.st127{fill:url(#SVGID_107_);}
	.st128{fill:url(#SVGID_108_);}
	.st129{fill:url(#SVGID_109_);}
	.st130{fill:url(#SVGID_110_);}
	.st131{fill:url(#SVGID_111_);}
	.st132{fill:url(#SVGID_112_);}
	.st133{fill:url(#SVGID_113_);}
	.st134{fill:url(#SVGID_114_);}
	.st135{fill:url(#SVGID_115_);}
	.st136{fill:url(#SVGID_116_);}
	.st137{opacity:0.7;fill:url(#SVGID_117_);}
	.st138{fill:url(#SVGID_118_);}
	.st139{fill:url(#SVGID_119_);}
	.st140{fill:url(#SVGID_120_);}
	.st141{fill:url(#SVGID_121_);}
	.st142{fill:url(#SVGID_122_);}
	.st143{fill:url(#SVGID_123_);}
	.st144{fill:url(#SVGID_124_);}
	.st145{fill:url(#SVGID_125_);}
	.st146{fill:url(#SVGID_126_);}
	.st147{fill:url(#SVGID_127_);}
	.st148{fill:url(#SVGID_128_);}
	.st149{fill:url(#SVGID_129_);}
	.st150{fill:url(#SVGID_130_);}
	.st151{fill:url(#SVGID_131_);}
	.st152{fill:url(#SVGID_132_);}
	.st153{fill:url(#SVGID_133_);}
	.st154{fill:url(#SVGID_134_);}
	.st155{fill:url(#SVGID_135_);}
	.st156{fill:url(#SVGID_136_);}
	.st157{fill:url(#SVGID_137_);}
	.st158{fill:url(#SVGID_138_);}
	.st159{fill:url(#SVGID_139_);}
	.st160{fill:url(#SVGID_140_);}
	.st161{fill:url(#SVGID_141_);}
	.st162{fill:#BF8D43;}
	.st163{fill:url(#SVGID_142_);}
	.st164{fill:url(#SVGID_143_);}
	.st165{opacity:0.7;fill:url(#SVGID_144_);}
	.st166{fill:url(#SVGID_145_);}
	.st167{fill:url(#SVGID_146_);}
	.st168{fill:url(#SVGID_147_);}
	.st169{fill:url(#SVGID_148_);}
	.st170{fill:url(#SVGID_149_);}
	.st171{fill:url(#SVGID_150_);}
	.st172{fill:url(#SVGID_151_);}
	.st173{fill:url(#SVGID_152_);}
	.st174{fill:url(#SVGID_153_);}
	.st175{fill:url(#SVGID_154_);}
	.st176{fill:url(#SVGID_155_);}
	.st177{fill:url(#SVGID_156_);}
	.st178{fill:url(#SVGID_157_);}
	.st179{fill:url(#SVGID_158_);}
	.st180{fill:url(#SVGID_159_);}
	.st181{fill:url(#SVGID_160_);}
	.st182{fill:url(#SVGID_161_);}
	.st183{fill:url(#SVGID_162_);}
	.st184{fill:url(#SVGID_163_);}
	.st185{fill:url(#SVGID_164_);}
	.st186{fill:url(#SVGID_165_);}
	.st187{fill:url(#SVGID_166_);}
	.st188{fill:url(#SVGID_167_);}
	.st189{fill:url(#SVGID_168_);}
	.st190{fill:url(#SVGID_169_);}
	.st191{fill:url(#SVGID_170_);}
	.st192{opacity:0.7;fill:url(#SVGID_171_);}
	.st193{fill:url(#SVGID_172_);}
	.st194{fill:url(#SVGID_173_);}
	.st195{fill:url(#SVGID_174_);}
	.st196{fill:url(#SVGID_175_);}
	.st197{fill:url(#SVGID_176_);}
	.st198{fill:url(#SVGID_177_);}
	.st199{fill:url(#SVGID_178_);}
	.st200{fill:url(#SVGID_179_);}
	.st201{fill:url(#SVGID_180_);}
	.st202{fill:url(#SVGID_181_);}
	.st203{fill:url(#SVGID_182_);}
	.st204{fill:url(#SVGID_183_);}
	.st205{fill:url(#SVGID_184_);}
	.st206{fill:url(#SVGID_185_);}
	.st207{fill:url(#SVGID_186_);}
	.st208{fill:url(#SVGID_187_);}
	.st209{fill:url(#SVGID_188_);}
	.st210{fill:url(#SVGID_189_);}
	.st211{fill:url(#SVGID_190_);}
	.st212{fill:url(#SVGID_191_);}
	.st213{fill:url(#SVGID_192_);}
	.st214{fill:url(#SVGID_193_);}
	.st215{fill:url(#SVGID_194_);}
	.st216{fill:url(#SVGID_195_);}
	.st217{fill:url(#SVGID_196_);}
	.st218{fill:url(#SVGID_197_);}
	.st219{opacity:0.7;fill:url(#SVGID_198_);}
	.st220{fill:url(#SVGID_199_);}
	.st221{fill:url(#SVGID_200_);}
	.st222{fill:url(#SVGID_201_);}
	.st223{fill:url(#SVGID_202_);}
	.st224{fill:url(#SVGID_203_);}
	.st225{fill:url(#SVGID_204_);}
	.st226{fill:url(#SVGID_205_);}
	.st227{fill:url(#SVGID_206_);}
	.st228{fill:url(#SVGID_207_);}
	.st229{fill:url(#SVGID_208_);}
	.st230{fill:url(#SVGID_209_);}
	.st231{fill:url(#SVGID_210_);}
	.st232{fill:url(#SVGID_211_);}
	.st233{fill:url(#SVGID_212_);}
	.st234{fill:url(#SVGID_213_);}
	.st235{fill:url(#SVGID_214_);}
	.st236{fill:url(#SVGID_215_);}
	.st237{fill:url(#SVGID_216_);}
	.st238{fill:url(#SVGID_217_);}
	.st239{fill:url(#SVGID_218_);}
	.st240{fill:url(#SVGID_219_);}
	.st241{fill:url(#SVGID_220_);}
	.st242{fill:url(#SVGID_221_);}
	.st243{fill:url(#SVGID_222_);}
	.st244{fill:#E8492D;}
	.st245{fill:#E7E2DE;}
	.st246{fill:url(#SVGID_223_);}
	.st247{fill:#CECDCB;}
	.st248{fill:#818282;}
	.st249{fill:#CECDCB;stroke:#CECDCB;stroke-miterlimit:10;}
	.st250{fill:#E8E8E8;}
	.st251{fill:#EFEFEF;}
	.st252{fill:url(#SVGID_224_);}
	.st253{fill:url(#SVGID_225_);}
	.st254{fill:#FFFF00;}
	.st255{fill:#22AF17;}
	.st256{opacity:0.7;}
	.st257{fill:#FFFF2B;}
	.st258{fill:#FFFF55;}
	.st259{fill:#FFFF80;}
	.st260{fill:#FFFFAA;}
	.st261{fill:#FFFFD4;}
	.st262{fill:url(#SVGID_226_);}
	.st263{fill:url(#SVGID_227_);}
	.st264{fill:url(#SVGID_228_);}
	.st265{fill:#232323;}
	.st266{fill:#3D3D3D;}
	.st267{fill:#C66259;}
	.st268{opacity:0.2;fill:#353535;}
	.st269{fill:#817979;}
	.st270{opacity:0.3;}
	.st271{fill:#353535;}
	.st272{fill:#382B28;}
	.st273{fill:#231F20;}
	.st274{opacity:0.1;}
	.st275{fill:url(#SVGID_229_);}
	.st276{fill:url(#SVGID_230_);}
	.st277{fill:#2B2B2B;}
	.st278{fill:#161616;}
	.st279{opacity:0.5;}
	.st280{fill:#A6A8AB;}
	.st281{fill:#E2E2E2;}
	.st282{opacity:0.3;fill:#353535;}
	.st283{fill:url(#SVGID_231_);}
	.st284{fill:url(#SVGID_232_);}
	.st285{fill:url(#SVGID_233_);}
	.st286{fill:url(#SVGID_234_);}
	.st287{fill:#B54C47;}
	.st288{opacity:0.8;fill:#88DFED;}
	.st289{fill:#E3E4E5;}
	.st290{fill:url(#SVGID_235_);}
	.st291{fill:url(#SVGID_236_);}
	.st292{fill:url(#SVGID_237_);}
	.st293{fill:url(#SVGID_238_);}
	.st294{opacity:0.2;}
	.st295{fill:#6D5C57;}
	.st296{fill:#68493F;}
	.st297{opacity:0.2;fill:url(#SVGID_239_);}
	.st298{opacity:0.2;fill:url(#SVGID_240_);}
	.st299{opacity:0.5;fill:#6D5C57;}
	.st300{fill:url(#SVGID_241_);}
	.st301{fill:#7C8B8E;}
	.st302{fill:url(#SVGID_242_);}
	.st303{fill:url(#SVGID_243_);}
	.st304{fill:#3D2219;}
	.st305{fill:#332E2D;}
	.st306{fill:#E6E6E6;}
	.st307{fill:url(#SVGID_244_);}
	.st308{fill:url(#SVGID_245_);}
	.st309{fill:url(#SVGID_246_);}
	.st310{fill:url(#SVGID_247_);}
	.st311{opacity:0.2;fill:url(#SVGID_248_);}
	.st312{opacity:0.2;fill:url(#SVGID_249_);}
	.st313{fill:url(#SVGID_250_);}
	.st314{fill:url(#SVGID_251_);}
	.st315{fill:url(#SVGID_252_);}
	.st316{fill:url(#SVGID_253_);}
	.st317{fill:url(#SVGID_254_);}
	.st318{fill:url(#SVGID_255_);}
	.st319{fill:url(#SVGID_256_);}
	.st320{fill:none;stroke:url(#SVGID_257_);stroke-miterlimit:10;}
	.st321{fill:url(#SVGID_258_);}
	.st322{fill:#301812;}
	.st323{opacity:0.2;fill:url(#SVGID_259_);}
	.st324{opacity:0.2;fill:url(#SVGID_260_);}
	.st325{fill:url(#SVGID_261_);}
	.st326{fill:#B0CDD1;}
	.st327{fill:url(#SVGID_262_);}
	.st328{fill:url(#SVGID_263_);}
	.st329{fill:none;stroke:#231F20;stroke-width:6;stroke-miterlimit:10;}
	.st330{fill:url(#SVGID_264_);}
	.st331{fill:url(#SVGID_265_);}
	.st332{fill:url(#SVGID_266_);}
	.st333{fill:url(#SVGID_267_);}
	.st334{fill:url(#SVGID_268_);}
	.st335{fill:url(#SVGID_269_);}
	.st336{fill:url(#SVGID_270_);}
	.st337{fill:url(#SVGID_271_);}
	.st338{fill:url(#SVGID_272_);}
	.st339{fill:url(#SVGID_273_);}
	.st340{opacity:0.2;fill:url(#SVGID_274_);}
	.st341{opacity:0.2;fill:url(#SVGID_275_);}
	.st342{fill:url(#SVGID_276_);}
	.st343{fill:url(#SVGID_277_);}
	.st344{fill:url(#SVGID_278_);}
	.st345{fill:url(#SVGID_279_);}
	.st346{fill:url(#SVGID_280_);}
	.st347{fill:url(#SVGID_281_);}
	.st348{fill:url(#SVGID_282_);}
	.st349{opacity:0.2;fill:url(#SVGID_283_);}
	.st350{opacity:0.2;fill:url(#SVGID_284_);}
	.st351{fill:url(#SVGID_285_);}
	.st352{fill:url(#SVGID_286_);}
	.st353{fill:url(#SVGID_287_);}
	.st354{fill:url(#SVGID_288_);}
	.st355{fill:url(#SVGID_289_);}
	.st356{fill:url(#SVGID_290_);}
	.st357{fill:url(#SVGID_291_);}
	.st358{fill:none;stroke:url(#SVGID_292_);stroke-miterlimit:10;}
	.st359{fill:url(#SVGID_293_);}
	.st360{opacity:0.2;fill:url(#SVGID_294_);}
	.st361{opacity:0.2;fill:url(#SVGID_295_);}
	.st362{fill:url(#SVGID_296_);}
	.st363{fill:url(#SVGID_297_);}
	.st364{fill:url(#SVGID_298_);}
</style>
<g id="Baby_sad">
</g>
<g id="Baby_pleased">
</g>
<g id="Baby_ecstatic">
</g>
<g id="Fish_dead">
	<g>
		<path class="st69" d="M118.4,223.2c1.8-8.5,13.3-15.1,20.1-12.3l35.3,24.3c-4.1,15.4,10.9,27.3,3.4,43
			c-12.3,25.8-60.3,4.6-57.1,36.3L118.4,223.2z"/>
		<g>
			<path class="st70" d="M120.1,314.5c-0.5-4.8-0.3-10.3,3.5-14.3c3.6-3.9,8.9-5.3,13.7-6.4c9.8-2.1,19.9-2.7,28.3-7
				c8.2-4.2,12.9-13.4,10.9-22.3c-1.6-8.7-8.1-18.8-4.7-29.9l4,1.1c-2.1,9,3.3,17.5,5.4,27.9c2.7,10.8-3.9,22.8-13.9,26.8
				c-9.8,4.2-20,4.1-29.6,5.7c-4.8,0.7-9.6,2-13.2,5.1C120.9,304.4,120,309.6,120.1,314.5z"/>
			<path class="st70" d="M172.5,233.4c-1.1,5,0.1,10.1,1.7,15.3c1,3.3,2.1,6.7,2.8,10.4c0.8,3.4,0.5,6.9-0.5,10.3
				c-2,6.3-6.7,11.8-12.8,14.2c-1.3,0.6-2.7,1.1-4.1,1.5c-7.8,2.5-15.8,2.7-23.4,4c-0.5,0.1-0.9,0.2-1.4,0.3
				c-3.9,0.8-7.8,2-10.8,4.6c-3.4,2.9-4.2,7.8-4.2,12.3c-0.5-4.5-0.2-9.6,3.2-13.3c3-3.2,7.1-4.7,11.1-5.7c0.5-0.1,1-0.3,1.5-0.4
				c8.5-1.9,17.4-2.7,24.9-6.2c0.4-0.2,0.8-0.4,1.2-0.6c7.6-3.9,12-12.3,10.4-20.5c-0.1-0.6-0.2-1.3-0.4-1.9
				c-1.7-7.5-6.3-16-3.2-25.2C168.8,232.4,172.5,233.3,172.5,233.4z"/>
			<path class="st70" d="M169.2,230.9c-1,4.5,0,9.4,1.4,14.1c0.9,2.9,1.7,6,2.3,9.3c0.6,3,0.3,6.2-0.7,9.2
				c-1.9,5.6-6.4,10.7-12,12.9c-1.2,0.5-2.5,1-3.7,1.4c-7.2,2.3-14.6,2.6-21.5,4c-0.4,0.1-0.9,0.2-1.3,0.3c-3.6,0.8-7.2,2-9.9,4.4
				c-3.1,2.7-3.9,7.2-3.9,11.4c-0.4-4.2-0.1-8.9,3-12.3c2.7-3,6.5-4.4,10.2-5.4c0.5-0.1,0.9-0.2,1.4-0.4c7.8-1.9,15.9-2.8,22.9-6
				c0.4-0.2,0.8-0.4,1.1-0.6c7-3.7,11.2-11.3,9.9-18.7c-0.1-0.6-0.2-1.2-0.3-1.8c-1.4-6.8-5.2-14.5-2.2-22.7
				C165.8,230,169.1,230.9,169.2,230.9z"/>
			<path class="st70" d="M165.8,228.5c-0.9,4-0.1,8.8,1.1,12.9c0.7,2.5,1.4,5.2,1.7,8.2c0.5,2.7,0.1,5.5-0.9,8.2
				c-1.9,5-6,9.5-11.2,11.6c-1.1,0.5-2.3,0.9-3.4,1.3c-6.6,2.2-13.3,2.6-19.7,3.9c-0.4,0.1-0.8,0.2-1.2,0.3c-3.3,0.8-6.5,1.9-9,4.1
				c-2.8,2.5-3.6,6.6-3.6,10.5c-0.3-3.8-0.1-8.1,2.8-11.3c2.5-2.8,5.9-4.1,9.2-5.1c0.4-0.1,0.8-0.2,1.2-0.4
				c7.1-1.9,14.5-2.8,20.8-5.8c0.3-0.2,0.7-0.3,1-0.5c6.4-3.4,10.3-10.3,9.4-17c-0.1-0.5-0.1-1-0.2-1.6c-1-6.1-4.2-13-1.3-20.2
				C162.8,227.7,165.8,228.5,165.8,228.5z"/>
			<path class="st70" d="M162.5,226.1c-0.8,3.5-0.2,8.1,0.8,11.8c0.6,2.2,1,4.5,1.2,7c0.3,2.4-0.2,4.8-1.2,7.2
				c-1.9,4.4-5.7,8.4-10.4,10.4c-1,0.5-2.1,0.8-3.1,1.2c-6,2-12.1,2.5-17.8,3.9c-0.4,0.1-0.7,0.2-1.1,0.3c-3,0.8-5.8,1.9-8.1,3.9
				c-2.5,2.3-3.3,6-3.4,9.6c-0.3-3.5,0-7.4,2.5-10.3c2.2-2.5,5.3-3.9,8.3-4.9c0.4-0.1,0.7-0.2,1.1-0.4c6.3-1.9,13-2.9,18.8-5.7
				c0.3-0.2,0.6-0.3,0.9-0.5c5.8-3.1,9.4-9.3,8.9-15.2c0-0.5-0.1-0.9-0.1-1.4c-0.6-5.4-3.1-11.4-0.3-17.7
				C159.7,225.3,162.4,226.1,162.5,226.1z"/>
			<path class="st70" d="M159.2,223.7c-0.7,3-0.3,7.5,0.4,10.6c0.4,1.8,0.6,3.8,0.6,5.9c0.1,2-0.4,4.1-1.4,6.2
				c-1.8,3.8-5.3,7.3-9.6,9.1c-0.9,0.4-1.9,0.8-2.8,1.1c-5.4,1.8-10.8,2.5-15.9,3.9c-0.3,0.1-0.6,0.2-1,0.3
				c-2.6,0.8-5.2,1.8-7.2,3.7c-2.3,2.1-3,5.5-3.1,8.6c-0.2-3.2,0.1-6.7,2.3-9.3c1.9-2.3,4.6-3.6,7.3-4.6c0.3-0.1,0.7-0.2,1-0.3
				c5.6-1.9,11.6-2.9,16.8-5.5c0.3-0.1,0.6-0.3,0.8-0.4c5.2-2.8,8.6-8.3,8.4-13.4c0-0.4,0-0.8,0-1.2c-0.3-4.8-2.1-9.9,0.7-15.2
				C156.7,223,159.1,223.6,159.2,223.7z"/>
			<path class="st70" d="M155.9,221.2c-0.6,2.5-0.4,6.8,0.1,9.4c0.3,1.4,0.2,3,0.1,4.8c0,1.7-0.6,3.4-1.6,5.1
				c-1.8,3.2-5,6.2-8.8,7.8c-0.8,0.4-1.7,0.7-2.5,1c-4.8,1.7-9.6,2.4-14.1,3.8c-0.3,0.1-0.6,0.2-0.8,0.3c-2.3,0.8-4.5,1.8-6.3,3.5
				c-2,2-2.6,4.9-2.8,7.7c-0.1-2.8,0.2-5.9,2.1-8.3c1.7-2.1,4-3.3,6.3-4.3c0.3-0.1,0.6-0.2,0.9-0.3c4.9-1.8,10.1-3,14.7-5.3
				c0.3-0.1,0.5-0.3,0.7-0.4c4.6-2.5,7.7-7.2,7.9-11.7c0-0.3,0-0.7,0.1-1c0.1-4.1-1-8.4,1.7-12.7
				C153.7,220.7,155.7,221.2,155.9,221.2z"/>
			<path class="st70" d="M152.5,218.8c-0.5,2-0.9,6.2-0.2,8.3c-0.1,1.1-0.2,2.3-0.5,3.7c-0.2,1.3-0.9,2.7-1.8,4.1
				c-1.8,2.6-4.6,5.1-8,6.5c-0.7,0.3-1.5,0.6-2.2,0.9c-4.2,1.5-8.4,2.4-12.2,3.8c-0.2,0.1-0.5,0.2-0.7,0.3c-2,0.8-3.9,1.7-5.4,3.3
				c-1.7,1.8-2.3,4.3-2.5,6.8c-0.1-2.5,0.2-5.2,1.9-7.3c1.4-1.9,3.4-3,5.4-4c0.2-0.1,0.5-0.2,0.7-0.3c4.2-1.8,8.6-3,12.7-5.2
				c0.2-0.1,0.4-0.2,0.7-0.3c4-2.3,6.9-6.2,7.4-9.9c0.1-0.3,0.1-0.6,0.1-0.9c0.5-3.4,0-6.9,2.6-10.3
				C150.7,218.3,152.3,218.8,152.5,218.8z"/>
			<path class="st70" d="M149.2,216.4c-0.3,1.5-1,5.6-0.5,7.1c-0.3,0.7-0.6,1.6-1,2.6c-0.4,1-1.1,2-2,3.1c-1.7,2-4.3,4-7.2,5.2
				c-0.6,0.3-1.3,0.5-1.9,0.8c-3.6,1.4-7.1,2.3-10.4,3.7c-0.2,0.1-0.4,0.2-0.6,0.3c-1.7,0.8-3.2,1.7-4.5,3.1c-1.4,1.6-2,3.7-2.3,5.9
				c0-2.2,0.3-4.5,1.6-6.3c1.2-1.6,2.8-2.7,4.4-3.7c0.2-0.1,0.4-0.2,0.6-0.3c3.4-1.8,7.2-3.1,10.6-5c0.2-0.1,0.4-0.2,0.6-0.3
				c3.4-2,6-5.2,6.9-8.1c0.1-0.2,0.2-0.5,0.2-0.7c0.9-2.7,1.1-5.3,3.6-7.8C147.7,216,149,216.3,149.2,216.4z"/>
			<path class="st70" d="M145.9,214c-0.2,1-1.2,4.9-0.9,6c-0.5,0.4-1,0.9-1.6,1.5c-0.5,0.6-1.3,1.3-2.2,2.1
				c-1.7,1.4-3.9,2.9-6.4,3.9c-0.5,0.2-1.1,0.5-1.6,0.7c-3,1.2-5.9,2.2-8.5,3.7c-0.2,0.1-0.3,0.2-0.5,0.3c-1.3,0.7-2.6,1.6-3.6,2.8
				c-1.2,1.4-1.7,3.2-2,4.9c0-1.8,0.4-3.7,1.4-5.3c0.9-1.4,2.2-2.5,3.5-3.4c0.2-0.1,0.3-0.2,0.5-0.3c2.7-1.8,5.7-3.1,8.6-4.9
				c0.2-0.1,0.3-0.2,0.5-0.3c2.8-1.7,5.2-4.2,6.5-6.3c0.1-0.2,0.2-0.3,0.3-0.5c1.2-2,2.1-3.8,4.6-5.3
				C144.7,213.6,145.6,213.9,145.9,214z"/>
			<path class="st70" d="M142.6,211.6c-0.1,0.5-1.3,4.3-1.2,4.8c-0.7,0-1.4,0.1-2.2,0.4c-0.7,0.3-1.5,0.6-2.5,1
				c-1.6,0.8-3.6,1.7-5.6,2.6c-0.4,0.2-0.9,0.4-1.3,0.6c-2.4,1.1-4.6,2.2-6.6,3.6c-0.1,0.1-0.2,0.2-0.4,0.3c-1,0.7-1.9,1.6-2.7,2.6
				c-0.9,1.2-1.4,2.6-1.7,4c0.1-1.5,0.4-3,1.2-4.3c0.7-1.2,1.5-2.2,2.5-3.1c0.1-0.1,0.2-0.2,0.3-0.3c2-1.7,4.3-3.2,6.6-4.7
				c0.1-0.1,0.2-0.2,0.4-0.2c2.2-1.4,4.3-3.2,6-4.6c0.1-0.1,0.3-0.2,0.4-0.3c1.6-1.3,3.2-2.3,5.6-2.8
				C141.6,211.3,142.3,211.5,142.6,211.6z"/>
			<path class="st70" d="M118.4,223.2c0.3-2.2,1.2-4.3,2.5-6.1c1.3-1.9,2.9-3.5,4.7-4.8c1.8-1.3,3.9-2.5,6.2-3.1s4.8-0.8,7.5,0
				l-1.5,3.6c-1.6-0.7-3.5-0.9-5.4-0.7c-1.9,0.2-3.9,0.8-5.7,1.8c-1.9,1-3.6,2.3-5,3.9C120.1,219.3,119,221.2,118.4,223.2z"/>
		</g>
		<path class="st69" d="M216.7,123.1c0,0,13.9-21.6,37.3-25.6c23.4-4.1,25.6-36.5,25.6-36.5s-64.3,19.8-73.8,34.6
			c-9.4,14.8-2.2,22-2.2,22L216.7,123.1z"/>
		<path class="st69" d="M167.2,114.1c0,0-8.9-27-19.4-30.6S102,68,94.8,61c0,0-1.8,55.3,51.3,70.2L167.2,114.1z"/>
		
			<linearGradient id="SVGID_1_" gradientUnits="userSpaceOnUse" x1="3366.8777" y1="215.4837" x2="3390.4465" y2="215.4837" gradientTransform="matrix(-1 0 0 -1 3575.4211 286.4192)">
			<stop  offset="0" style="stop-color:#E37830"/>
			<stop  offset="1" style="stop-color:#E0612F"/>
		</linearGradient>
		<path class="st0" d="M189.7,106.9c0,0,15.3-12.1,18.4-38.2c3.1-26.1-13.5-33.7-13.5-33.7s9,22.9,0,28.3c-9,5.4-9.7,37.2-9.7,37.2
			L189.7,106.9z"/>
		<g>
			<path class="st69" d="M69.9,191.2c19.9-30.9,0-41.8,24-57.3c28.1-18.2,40.6,13.2,40.6,13.2l3.4,42.1c0,0-32-0.5-32,24.1
				c0,23.5-10.5,57.6-70,34.7L69.9,191.2z"/>
		</g>
		<g>
			<path class="st70" d="M137.8,191.6c-10.8,0.1-23.8,3.3-28.3,13.4c-2.4,4.7-1.4,10.9-2.5,17.1c-0.9,6-2.6,12.1-5.6,17.4
				c-5.8,11.3-18.8,17-30.8,16.5c-12.1-0.2-23.7-3.9-34.8-8.2c11.2,3.9,22.9,7.1,34.7,6.9c11.8,0.1,23.5-5.8,28.5-16.4
				c2.6-5.1,4-10.8,4.6-16.6c0.9-5.6-0.6-11.9,2.1-18.2c5.6-12.9,20-16.5,32.1-17.1L137.8,191.6z"/>
			<path class="st70" d="M41.5,238.3c10.5,2.4,21.5,4.1,32.1,2.2c10.6-1.8,19.5-9.2,23.1-19.2c2-4.9,3.2-10.1,4.2-15.4
				c1-5.1,1.5-11.2,5-16.2c7.3-10.5,20.8-11.8,31.9-10.4l-1.1,5.6c-9.6-1.7-21.6-0.7-27.3,7.3c-3,3.9-3.8,9-5,14.5
				c-1.2,5.3-2.7,10.7-5,15.8c-4.3,10.5-14.4,18.2-25.5,19.5C62.8,243.4,51.9,241.1,41.5,238.3z"/>
			<path class="st70" d="M47.2,228.8c9.9,0.8,20.2,0.8,29.3-3.2c9.4-3.6,15-12.5,18-21.8c3.7-9,4.2-19.9,12.4-27.9
				c8.6-7.6,20.9-6.8,30.7-3.3l-1.9,4.6c-8.4-3.4-19.2-4.4-26.3,1.5c-7.1,5.9-8.6,16.8-12.6,25.9c-3.4,9.4-10,18.8-19.9,22.1
				C67.4,230.4,57,230,47.2,228.8z"/>
			<path class="st70" d="M52.8,219.3c9.3-1.1,18.7-3.6,26-9.3c7.4-5.9,10.3-15,13.5-23.8c3.2-8.6,7-18.5,16.3-23.7
				c9.5-5,20.6-2,29,3.3l-3,4.2c-6.9-4.8-16.5-7.8-24.3-4c-7.8,3.7-12.1,12.7-15.7,21.1c-3.5,8.5-7.1,18.1-15.1,23.9
				C71.7,216.7,62.1,218.6,52.8,219.3z"/>
			<path class="st70" d="M58.5,209.9c8.3-3.5,16.5-8.3,21.5-15.9c5.1-7.5,6.4-16.7,10.5-25c4.1-8.1,10.5-16.3,20.2-18.9
				c10-2.4,19.6,2.7,26.4,9.3l-3.3,2.9c-5.6-6-14.2-10.9-22.4-9.1c-8.3,1.8-14.8,9.1-19,16.7c-4.3,7.8-6,17.1-11.6,24.7
				C75.4,202.2,66.9,206.7,58.5,209.9z"/>
			<path class="st70" d="M64.2,200.4c6.8-6,12.9-13.3,15.6-21.9c2.8-8.4,3-18.3,9-26.1c5.7-7.3,13.7-14,24-14.5
				c10.4-0.2,19,6.7,24.5,14.7l-4.5,2.7c-4.3-7-11.6-13.3-20-13.4c-8.3-0.1-16.3,5.6-21.9,12.1c-5.8,6.8-6.6,16.3-9.8,25
				C77.8,187.7,71.3,194.8,64.2,200.4z"/>
			<path class="st70" d="M69.9,191c5-8.1,8.6-17.2,9.3-26.6c0.5-4.7,0.2-9.5,1-14.4c0.8-4.9,3.5-9.5,7.2-12.8
				c7.1-6.5,16.5-12,27.1-10.6c10.6,1.8,18,10.3,22.3,19.4l-4.6,1.8c-3.3-8-9.7-15.9-18.4-17.6c-8.6-1.7-17.9,2.9-24.8,8.8
				c-7.9,5.8-7.7,16.1-8.6,25.5C79.3,174.1,75.2,183.1,69.9,191z"/>
		</g>
		
			<linearGradient id="SVGID_2_" gradientUnits="userSpaceOnUse" x1="3395.5588" y1="73.9661" x2="3394.8613" y2="159.7696" gradientTransform="matrix(-1 0 0 -1 3575.4211 286.4192)">
			<stop  offset="0" style="stop-color:#E37830"/>
			<stop  offset="1" style="stop-color:#E0612F"/>
		</linearGradient>
		<ellipse style="fill:url(#SVGID_2_);" cx="180.2" cy="170.1" rx="56.7" ry="69.7"/>
		<path class="st73" d="M154.6,126.7c0,7.8,15.2,21.8,29.7,21.8s33.3-11.1,33.3-18.9s-16.9-3.6-31.4-3.6S154.6,118.9,154.6,126.7z"
			/>
		<ellipse class="st74" cx="140.6" cy="175.3" rx="16.1" ry="30.6"/>
		<path class="st74" d="M221.3,178.7c1.8-16.8,4-30.9,9.1-30.4c5.1,0.6,7.8,14.6,5.9,31.4s-6.7,29-11.8,27.9
			C222.5,207.1,219.5,195.5,221.3,178.7z"/>
		<g>
			<path class="st75" d="M145.7,126.7c0-3.2,1.3-6.1,3.6-8c5.1-4.3,13,2.7,22.9,4.4c10.3,1.7,20.3,2.4,28.7,1.4
				c9.2-1.1,16-8.1,20.9-3.8c2.3,2.1,3.6,5,3.6,8.4c0,13.5-18.5,36.3-46.5,33.3C153.2,159.5,145.7,139.4,145.7,126.7z M202.2,133
				c-10.1,1.2-21.1,1.3-31.2-1.5c-6.3-1.7-13.6-5.5-15.9-5.8c1.9,7.9,20.1,17.1,28,17.4c23.2,0.8,28.7-8.7,32.1-13.2
				C213.4,130.1,203.8,132.8,202.2,133z"/>
		</g>
		<path class="st76" d="M155.5,177.6c0-15.4-7.3-27.9-13.7-27.9c-12,0-21.7,12.5-21.7,27.8s9.7,27.8,21.7,27.8
			C148.2,206.3,155.5,193,155.5,177.6z"/>
		<path class="st76" d="M252.3,181.2c0-15.1-8.6-27.3-18.5-27.3c-2.3,0-10,12.2-10,27.3s1.1,25.1,4.7,25.1
			C238.3,206.3,252.3,196.2,252.3,181.2z"/>
		<g>
			<path d="M247.7,194l-6-0.6c0-0.4,0.8-9.5-9-15.5l3.2-5.2C248.9,180.7,247.7,193.5,247.7,194z"/>
		</g>
		<g>
			<path d="M232.4,191.8l-0.9-6l0.4,3l-0.4-3c2.3-0.3,8.8-2,11.5-5.8c1.1-1.5,1.4-3.3,1-5.3l5.9-1.1c0.7,3.7,0,7.1-2,10
				C243.2,190.2,232.8,191.7,232.4,191.8z"/>
		</g>
		<g>
			<path class="st77" d="M183,142.5c17.7,2.4,14-9,15.3-9.1c5.5-0.3,14.7-5.1,16.8-3.5c0.5,0.3-0.8,22.7-28,21.4
				c-26.7-1.3-36.3-22.2-32.1-25.6C157.3,132.8,172.9,141.1,183,142.5z"/>
		</g>
		<g>
			<path d="M141.7,189.1c-14.3-5.5-15.9-21.1-15.9-21.8l6-0.6c0.1,0.5,1.3,12.6,12.1,16.7L141.7,189.1z"/>
		</g>
		<g>
			<path d="M129.4,187.6l-5.9-1.4c3.1-13.4,20.7-18.1,21.4-18.3l1.5,5.9C146.3,173.8,131.7,177.8,129.4,187.6z"/>
		</g>
		<g>
			<path class="st78" d="M137.8,199.8c-6.2-1.2-16.3-11.2-12.8-29.9l0.3,0.1c-3.5,18.4,6.5,28.3,12.6,29.5L137.8,199.8z"/>
		</g>
		
			<linearGradient id="SVGID_3_" gradientUnits="userSpaceOnUse" x1="3433.5696" y1="108.7697" x2="3455.3193" y2="108.7697" gradientTransform="matrix(-1 0 0 -1 3575.4211 286.4192)">
			<stop  offset="0" style="stop-color:#EDF5FB;stop-opacity:0"/>
			<stop  offset="0.9819" style="stop-color:#EDF5FB"/>
		</linearGradient>
		<path style="opacity:0.7;fill:url(#SVGID_3_);" d="M141.9,149.8c-12,0-21.7,12.5-21.7,27.8s9.7,27.8,21.7,27.8"/>
		<path class="st80" d="M199.1,126.5c-8.5,0.7-17.1-0.1-25.5-1.3c-4.2-0.6-8.2-2.2-12.2-3.6c-3.6-1.7-9.7-2.3-12.3,2.2
			c-3.3,8.9,1.2,17.8,6.4,24.4c5.7,6.8,14.5,9.9,23,10.4c-8.4-1.1-16.8-4.5-22.2-11.1c-5-6.2-8.8-15.7-6-22.9
			c2.1-3.9,6.8-3.5,10.7-2c4,1.3,8.2,2.8,12.5,3.3C182,127,190.6,127.5,199.1,126.5z"/>
		<g>
			<path class="st81" d="M199.5,221.2c6.3,0.1,10.1-10.6,10.1-10.6s-1.3,9.3,3.6,10.5"/>
			<path class="st81" d="M142.8,219.3c5,1,2.5-8.8,2.5-8.8s4.1,10.1,10.3,8.8c4.3-0.9,2.8-8.4,2.8-8.4s0.9,8.6,8.9,10.3"/>
			<path class="st81" d="M167.2,221.3c8,1.7,7.8-10.3,7.8-10.3s-0.2,10.5,6.9,10.3c6.1-0.1,10.4-10.3,10.4-10.3s2.7,10.2,7.2,10.2"
				/>
			<path class="st81" d="M213.2,221.1c4.9,1.2,13-10.5,13-10.5"/>
			<path class="st81" d="M133,208.6c0,0,5.8,10,9.8,10.7"/>
			<path class="st81" d="M160.1,229.7c6.1,0,7.1-8.4,7.1-8.4"/>
			<path class="st81" d="M160.1,229.7c-5.4,0-6.3-10.3-6.3-10.3s-1.5,6.6-4.4,7.1c-3.1,0.6-6.6-7.1-6.6-7.1"/>
			<path class="st81" d="M218,227.3c1.3,0.8,3,1.4,5,1.5"/>
			<path class="st81" d="M175.1,230.1c6.1-0.1,6.5-8.8,6.5-8.8s3.2,8.3,7.7,8.4"/>
			<path class="st81" d="M175.1,230.1c-7.1,0.2-7.9-8.8-7.9-8.8"/>
			<path class="st81" d="M218,227.3c-3.8-2.3-4.8-6.2-4.8-6.2"/>
			<path class="st81" d="M189.3,229.7c6.3,0.1,10.2-8.4,10.2-8.4"/>
			<path class="st81" d="M199.5,221.2c0,0-0.8,6.5,4.2,7.7c4.9,1.2,9.5-7.8,9.5-7.8"/>
			<path class="st81" d="M175.1,230.1c0,0,1.6,6.5,6.6,6.1"/>
			<path class="st81" d="M175.1,230.1c0,0-2,4.6-8.1,4.6"/>
			<path class="st81" d="M218,227.3c-1.4,3-4.5,8.3-8.1,7.4"/>
			<path class="st81" d="M160.1,229.7c0,0,1.5,5.1,6.9,5.1"/>
			<path class="st81" d="M160.1,229.7c0,0-2.5,3.9-5.4,3.3"/>
			<path class="st81" d="M154.7,233c-2.9-0.5-5.8-6.5-5.8-6.5"/>
			<path class="st81" d="M189.3,229.7c0,0,0.5,5.7,5,5.8"/>
			<path class="st81" d="M218,227.3c0.5-1.1,0.9-1.9,0.9-1.9"/>
			<path class="st81" d="M181.7,236.2c0,0,0.1,0,0.1,0"/>
			<path class="st81" d="M189.3,229.7c0,0-3.1,6.2-7.4,6.6c0,0,0,0,0,0"/>
			<path class="st81" d="M209.9,234.7c-4.9-1.2-6-5.5-6-5.5s-3.3,6.4-9.6,6.3"/>
			<path class="st81" d="M225.6,231.4c0,0-4,10.5-9,9.3c-4.9-1.2-6.7-6-6.7-6"/>
			<path class="st81" d="M181.7,236.2c-0.1,0.3-2.2,4.5-8.1,4.5c-5.4,0-6.7-6-6.7-6"/>
			<path class="st81" d="M154.7,233c0,0,3.8,5.5,6.7,6c2.9,0.5,5.7-4.3,5.7-4.3"/>
			<path class="st81" d="M181.8,236.3c0,0,0-0.1,0-0.1s-0.1,0.1-0.1,0.1"/>
			<path class="st81" d="M194.3,235.5c0,0-1.4,6.4-5.7,6.8c-4.9,0.5-6.6-5.6-6.7-6"/>
			<path class="st81" d="M209.9,234.7c0,0-2.6,6.9-9,6.8c-4.5-0.1-6.7-6-6.7-6"/>
		</g>
		<g>
			
				<linearGradient id="SVGID_4_" gradientUnits="userSpaceOnUse" x1="3356.0999" y1="61.6446" x2="3356.0999" y2="74.3846" gradientTransform="matrix(-1 0 0 -1 3575.4211 286.4192)">
				<stop  offset="0" style="stop-color:#E37830"/>
				<stop  offset="1" style="stop-color:#E0612F"/>
			</linearGradient>
			<path class="st4" d="M213.3,221c3.8,1,9.4-5.8,11.9-9c-2.6,4.8-6.2,9.2-10,12.7C213.7,222.8,213.3,221,213.3,221z"/>
			
				<linearGradient id="SVGID_5_" gradientUnits="userSpaceOnUse" x1="3368.9622" y1="57.5548" x2="3368.9622" y2="75.9774" gradientTransform="matrix(-1 0 0 -1 3575.4211 286.4192)">
				<stop  offset="0" style="stop-color:#E37830"/>
				<stop  offset="1" style="stop-color:#E0612F"/>
			</linearGradient>
			<path class="st7" d="M199.6,221c6.4,0.2,10.2-10.6,10.2-10.6s-1.4,9.4,3.6,10.6c0,0-4.6,9-9.6,7.8
				C198.8,227.6,199.6,221,199.6,221z"/>
			
				<linearGradient id="SVGID_7_" gradientUnits="userSpaceOnUse" x1="3384.6646" y1="56.8674" x2="3384.6646" y2="75.5789" gradientTransform="matrix(-1 0 0 -1 3575.4211 286.4192)">
				<stop  offset="0" style="stop-color:#E37830"/>
				<stop  offset="1" style="stop-color:#E0612F"/>
			</linearGradient>
			<path style="fill:url(#SVGID_7_);" d="M181.9,221.2h0.2c6.2-0.2,10.4-10.4,10.4-10.4s2.8,10.2,7.2,10.2c0,0-3.8,8.6-10.2,8.6
				C185.1,229.4,181.9,221.2,181.9,221.2z"/>
			
				<linearGradient id="SVGID_9_" gradientUnits="userSpaceOnUse" x1="3400.7881" y1="56.4701" x2="3400.7881" y2="75.5789" gradientTransform="matrix(-1 0 0 -1 3575.4211 286.4192)">
				<stop  offset="0" style="stop-color:#E37830"/>
				<stop  offset="1" style="stop-color:#E0612F"/>
			</linearGradient>
			<path style="fill:url(#SVGID_9_);" d="M167.4,221.2c8,1.6,7.8-10.4,7.8-10.4c0,1,0.2,10.4,6.8,10.4c0,0-0.4,8.6-6.6,8.8
				c0,0,0,0-0.2,0C168.2,229.9,167.4,221.2,167.4,221.2z"/>
			
				<linearGradient id="SVGID_10_" gradientUnits="userSpaceOnUse" x1="3432.4382" y1="57.0667" x2="3432.4382" y2="74.7831" gradientTransform="matrix(-1 0 0 -1 3575.4211 286.4192)">
				<stop  offset="0" style="stop-color:#E37830"/>
				<stop  offset="1" style="stop-color:#E0612F"/>
			</linearGradient>
			<path class="st19" d="M135.1,211.6c2,3,5.4,7.2,7.8,7.6c0,0,3.2,7,6.2,7.2c0,0,0,0,0.2,0c0.2,0.8,0.8,1.8,1.6,3
				C144.7,224.8,139.1,218.8,135.1,211.6z"/>
			
				<linearGradient id="SVGID_11_" gradientUnits="userSpaceOnUse" x1="3380.8823" y1="48.7066" x2="3380.8823" y2="51.0952" gradientTransform="matrix(-1 0 0 -1 3575.4211 286.4192)">
				<stop  offset="0" style="stop-color:#E37830"/>
				<stop  offset="1" style="stop-color:#E0612F"/>
			</linearGradient>
			<path style="fill:url(#SVGID_11_);" d="M193.6,237.7c0.6-1.2,0.8-2.4,0.8-2.4s0,0,0.2,0c0,0.6,0.4,1.2,0.8,1.8
				C194.8,237.5,194.2,237.5,193.6,237.7z"/>
			
				<linearGradient id="SVGID_12_" gradientUnits="userSpaceOnUse" x1="3394.3184" y1="46.7153" x2="3394.3184" y2="50.2994" gradientTransform="matrix(-1 0 0 -1 3575.4211 286.4192)">
				<stop  offset="0" style="stop-color:#E37830"/>
				<stop  offset="1" style="stop-color:#E0612F"/>
			</linearGradient>
			<path style="fill:url(#SVGID_12_);" d="M178.5,239.5c2.4-1.4,3.2-3.2,3.4-3.4c0,0,0,0,0.2,0c0,0.2,0.4,1.8,1.6,3.4
				c-1,0.2-2.2,0.2-3.4,0.2C179.7,239.7,179.1,239.7,178.5,239.5z"/>
			
				<linearGradient id="SVGID_13_" gradientUnits="userSpaceOnUse" x1="3393.4231" y1="50.3382" x2="3393.4231" y2="50.4602" gradientTransform="matrix(-1 0 0 -1 3575.4211 286.4192)">
				<stop  offset="0" style="stop-color:#E37830"/>
				<stop  offset="1" style="stop-color:#E0612F"/>
			</linearGradient>
			<path class="st22" d="M181.9,236.1v-0.2l0.2,0.2C181.9,236.1,181.9,236.1,181.9,236.1z"/>
			
				<linearGradient id="SVGID_14_" gradientUnits="userSpaceOnUse" x1="3408.3518" y1="48.1089" x2="3408.3518" y2="51.891" gradientTransform="matrix(-1 0 0 -1 3575.4211 286.4192)">
				<stop  offset="0" style="stop-color:#E37830"/>
				<stop  offset="1" style="stop-color:#E0612F"/>
			</linearGradient>
			<path class="st23" d="M165.2,237.1c1.2-1.2,2-2.6,2-2.6s0.4,2.2,1.8,3.8C167.6,237.9,166.4,237.5,165.2,237.1z"/>
			<g>
				
					<linearGradient id="SVGID_16_" gradientUnits="userSpaceOnUse" x1="3416.9114" y1="74.186" x2="3416.9114" y2="75.5794" gradientTransform="matrix(-1 0 0 -1 3575.4211 286.4192)">
					<stop  offset="0" style="stop-color:#E37830"/>
					<stop  offset="1" style="stop-color:#E0612F"/>
				</linearGradient>
				<path style="fill:url(#SVGID_16_);" d="M158.4,210.8c0,0,0,0.6,0.2,1.4"/>
				
					<linearGradient id="SVGID_18_" gradientUnits="userSpaceOnUse" x1="3420.2954" y1="56.8674" x2="3420.2954" y2="75.9774" gradientTransform="matrix(-1 0 0 -1 3575.4211 286.4192)">
					<stop  offset="0" style="stop-color:#E37830"/>
					<stop  offset="1" style="stop-color:#E0612F"/>
				</linearGradient>
				<path style="fill:url(#SVGID_18_);" d="M145.5,210.4c0,0,4,10,10.2,8.8c3.2-0.6,3.2-4.6,3-7c0.8,2.4,2.8,7.6,8.8,9
					c0,0-1,8.4-7.2,8.4c-5.4,0-6.2-10.4-6.2-10.4s-1.6,6.6-4.4,7.2c-0.2,0-0.2,0-0.4,0c-0.2,0-0.2,0-0.2,0c-3-0.2-6.2-7.2-6.2-7.2
					C148.1,220.2,145.5,210.4,145.5,210.4z"/>
				
					<linearGradient id="SVGID_19_" gradientUnits="userSpaceOnUse" x1="3373.0198" y1="51.0952" x2="3373.0198" y2="65.4268" gradientTransform="matrix(-1 0 0 -1 3575.4211 286.4192)">
					<stop  offset="0" style="stop-color:#E37830"/>
					<stop  offset="1" style="stop-color:#E0612F"/>
				</linearGradient>
				<path class="st26" d="M189.5,229.6c6.4,0,10.2-8.6,10.2-8.6s-0.8,6.6,4.2,7.8c5,1.2,9.6-7.8,9.6-7.8s0.4,1.8,2,3.8
					c-3,3-6,5.4-9.4,7.4h-0.2c-1.4-1.6-1.8-3.2-1.8-3.2s-3.2,6.4-9.4,6.4c-0.2,0-0.2,0-0.2,0C189.9,235.3,189.5,229.6,189.5,229.6z"
					/>
				
					<linearGradient id="SVGID_20_" gradientUnits="userSpaceOnUse" x1="3420.6931" y1="53.683" x2="3420.6931" y2="67.2188" gradientTransform="matrix(-1 0 0 -1 3575.4211 286.4192)">
					<stop  offset="0" style="stop-color:#E37830"/>
					<stop  offset="1" style="stop-color:#E0612F"/>
				</linearGradient>
				<path style="fill:url(#SVGID_20_);" d="M149.3,226.4c0.2,0,0.2,0,0.4,0c2.8-0.6,4.4-7.2,4.4-7.2s0.8,10.4,6.2,10.4
					c0,0-2,3.2-4.8,3.2c-1.2-1-2.8-1.8-4-2.8c-0.2-0.2-0.4-0.4-0.6-0.6C150,228.2,149.5,227.2,149.3,226.4z"/>
				
					<linearGradient id="SVGID_21_" gradientUnits="userSpaceOnUse" x1="3393.0247" y1="50.282" x2="3393.0247" y2="65.2287" gradientTransform="matrix(-1 0 0 -1 3575.4211 286.4192)">
					<stop  offset="0" style="stop-color:#E37830"/>
					<stop  offset="1" style="stop-color:#E0612F"/>
				</linearGradient>
				<path class="st28" d="M175.3,229.9c6.2-0.2,6.6-8.8,6.6-8.8s3.2,8.2,7.6,8.4c0,0-3,6.2-7.4,6.6l-0.2-0.2v0.2
					C176.9,236.5,175.3,229.9,175.3,229.9z"/>
				
					<linearGradient id="SVGID_23_" gradientUnits="userSpaceOnUse" x1="3400.8877" y1="46.9146" x2="3400.8877" y2="56.4701" gradientTransform="matrix(-1 0 0 -1 3575.4211 286.4192)">
					<stop  offset="0" style="stop-color:#E37830"/>
					<stop  offset="1" style="stop-color:#E0612F"/>
				</linearGradient>
				<path style="fill:url(#SVGID_23_);" d="M167.2,234.5c5.4,0,7.6-3.6,8-4.6c0.2,0,0.2,0,0.2,0s1.6,6.6,6.6,6.2
					c-0.2,0.2-1,2-3.4,3.4c-3.2,0-6.4-0.4-9.6-1.2C167.6,236.7,167.2,234.5,167.2,234.5z"/>
				
					<linearGradient id="SVGID_24_" gradientUnits="userSpaceOnUse" x1="3407.7546" y1="51.891" x2="3407.7546" y2="65.2287" gradientTransform="matrix(-1 0 0 -1 3575.4211 286.4192)">
					<stop  offset="0" style="stop-color:#E37830"/>
					<stop  offset="1" style="stop-color:#E0612F"/>
				</linearGradient>
				<path class="st31" d="M160.2,229.6c6.2,0,7.2-8.4,7.2-8.4s0.8,8.8,7.8,8.8c-0.4,1-2.6,4.6-8,4.6
					C161.8,234.5,160.2,229.6,160.2,229.6z"/>
				
					<linearGradient id="SVGID_26_" gradientUnits="userSpaceOnUse" x1="3414.1245" y1="49.3032" x2="3414.1245" y2="56.8674" gradientTransform="matrix(-1 0 0 -1 3575.4211 286.4192)">
					<stop  offset="0" style="stop-color:#E37830"/>
					<stop  offset="1" style="stop-color:#E0612F"/>
				</linearGradient>
				<path style="fill:url(#SVGID_26_);" d="M155.4,232.7c2.8,0,4.8-3.2,4.8-3.2s1.6,5,7,5c0,0-0.8,1.4-2,2.6
					C161.8,235.9,158.6,234.5,155.4,232.7z"/>
				
					<linearGradient id="SVGID_27_" gradientUnits="userSpaceOnUse" x1="3387.1526" y1="46.9146" x2="3387.1526" y2="56.8674" gradientTransform="matrix(-1 0 0 -1 3575.4211 286.4192)">
					<stop  offset="0" style="stop-color:#E37830"/>
					<stop  offset="1" style="stop-color:#E0612F"/>
				</linearGradient>
				<path style="fill:url(#SVGID_27_);" d="M182.1,236.1c4.4-0.4,7.4-6.6,7.4-6.6s0.4,5.8,5,5.8c0,0-0.2,1.2-0.8,2.4
					c-3.2,1-6.6,1.6-10,1.8C182.5,237.9,182.1,236.3,182.1,236.1z"/>
				
					<linearGradient id="SVGID_28_" gradientUnits="userSpaceOnUse" x1="3375.2092" y1="49.3032" x2="3375.2092" y2="57.4652" gradientTransform="matrix(-1 0 0 -1 3575.4211 286.4192)">
					<stop  offset="0" style="stop-color:#E37830"/>
					<stop  offset="1" style="stop-color:#E0612F"/>
				</linearGradient>
				<path class="st35" d="M194.6,235.3c6.2,0,9.4-6.4,9.4-6.4s0.4,1.6,1.8,3.2c-3.4,2.2-6.6,3.8-10.4,5
					C195,236.5,194.6,235.9,194.6,235.3z"/>
			</g>
		</g>
		<circle class="st102" cx="213.7" cy="202.8" r="2.9"/>
		<circle class="st102" cx="200.2" cy="194.7" r="1.9"/>
		<circle class="st102" cx="185.6" cy="204.6" r="2.8"/>
		<circle class="st102" cx="173.5" cy="186.9" r="1.1"/>
		<circle class="st102" cx="188.4" cy="184.8" r="4"/>
		<circle class="st102" cx="165.9" cy="208.6" r="2.3"/>
		<circle class="st102" cx="178.5" cy="197.4" r="3.4"/>
		<circle class="st102" cx="161.3" cy="191.9" r="4"/>
		<circle class="st102" cx="204.3" cy="182.9" r="0.9"/>
		<circle class="st102" cx="214.4" cy="191.9" r="4"/>
		<circle class="st102" cx="198.8" cy="207.6" r="2.5"/>
		
			<linearGradient id="SVGID_29_" gradientUnits="userSpaceOnUse" x1="3437.5144" y1="98.0689" x2="3448.9673" y2="98.0689" gradientTransform="matrix(-1 0 0 -1 3575.4211 286.4192)">
			<stop  offset="0" style="stop-color:#FFFFFF;stop-opacity:0"/>
			<stop  offset="1" style="stop-color:#FFFFFF"/>
		</linearGradient>
		<path class="st37" d="M132.7,197c0.8-6.5,5.2-13.7,5.2-13.7l-4.2-3.6c0,0-7.5,5.1-7.2,10C126.7,193.5,132.7,197,132.7,197z"/>
		
			<linearGradient id="SVGID_30_" gradientUnits="userSpaceOnUse" x1="3428.8586" y1="123.0303" x2="3435.0728" y2="123.0303" gradientTransform="matrix(-1 0 0 -1 3575.4211 286.4192)">
			<stop  offset="0" style="stop-color:#FFFFFF;stop-opacity:0"/>
			<stop  offset="1" style="stop-color:#FFFFFF"/>
		</linearGradient>
		<path style="fill:url(#SVGID_30_);" d="M146.6,162.2c0,0-2.4,1.4-4.3,4.8c-0.3,0.6-1.9-1.2-1.9-1.9c0.2-3.2,3.1-5.3,3.1-5.3
			L146.6,162.2z"/>
		
			<linearGradient id="SVGID_31_" gradientUnits="userSpaceOnUse" x1="3335.0637" y1="92.7311" x2="3343.4653" y2="92.7311" gradientTransform="matrix(-1 0 0 -1 3575.4211 286.4192)">
			<stop  offset="0" style="stop-color:#FFFFFF;stop-opacity:0"/>
			<stop  offset="1" style="stop-color:#FFFFFF"/>
		</linearGradient>
		<path class="st39" d="M240.4,189.7c0,0,0.2,8.1-5,10.8c-0.5,0.3-3.5-1.7-3.4-5.7c4-2.3,6-7.8,6-7.8L240.4,189.7z"/>
		
			<linearGradient id="SVGID_33_" gradientUnits="userSpaceOnUse" x1="3332.5972" y1="118.8729" x2="3337.4487" y2="118.8729" gradientTransform="matrix(-1 0 0 -1 3575.4211 286.4192)">
			<stop  offset="0" style="stop-color:#FFFFFF;stop-opacity:0"/>
			<stop  offset="1" style="stop-color:#FFFFFF"/>
		</linearGradient>
		<path style="fill:url(#SVGID_33_);" d="M241.9,163.5c2.1,3.6,0,8.5,0,8.5h-2.5c0,0,0.3-5.5-1.4-8.5
			C238.8,163,241.6,162.9,241.9,163.5z"/>
		<circle class="st107" cx="164.1" cy="53.7" r="13"/>
		<circle class="st107" cx="229.6" cy="29" r="6.5"/>
		<circle class="st107" cx="203.2" cy="7.5" r="6.5"/>
	</g>
</g>
<g id="Fish_pleased">
</g>
<g id="Fish_ecstatic">
</g>
<g id="Robot_destoyed">
</g>
<g id="Robot_pleased">
</g>
<g id="Robot_ecstatic">
</g>
<g id="Sad_Dog">
</g>
<g id="Dog">
</g>
<g id="Dog_ecstatic">
</g>
<g id="Old_man_sad">
</g>
<g id="Old_man_pleased">
</g>
<g id="Old_man_ecstatic">
</g>
</svg>
