<?xml version="1.0" encoding="utf-8"?>
<!-- Generator: Adobe Illustrator 22.1.0, SVG Export Plug-In . SVG Version: 6.00 Build 0)  -->
<svg version="1.1" id="Icons" xmlns="http://www.w3.org/2000/svg" xmlns:xlink="http://www.w3.org/1999/xlink" x="0px" y="0px"
	 viewBox="0 0 108.2 108.2" style="enable-background:new 0 0 108.2 108.2;" xml:space="preserve">
<g>
	<g>
		<path fill="white" d="M33.3,76.6c-9.4,0-17.1-7.7-17.1-17.1c0-8.6,13.5-28.7,15-31l2.1-3.1l2.1,3.1c1.5,2.3,15,22.4,15,31
			C50.4,68.9,42.7,76.6,33.3,76.6z M33.3,34.5c-5.3,8.3-12.1,20.4-12.1,25c0,6.6,5.4,12.1,12.1,12.1s12.1-5.4,12.1-12.1
			C45.4,54.9,38.7,42.8,33.3,34.5z"/>
	</g>
	<g>
		<path fill="white" d="M72.7,57.8c-10.6,0-19.2-8.6-19.2-19.2c0-9.7,15.4-32.8,17.2-35.4l2.1-3.1l2.1,3.1c1.8,2.6,17.2,25.7,17.2,35.4
			C91.9,49.2,83.3,57.8,72.7,57.8z M72.7,9.1c-5.3,8.2-14.2,23.4-14.2,29.5c0,7.8,6.4,14.2,14.2,14.2s14.2-6.4,14.2-14.2
			C86.9,32.5,78,17.4,72.7,9.1z"/>
	</g>
	<g>
		<path fill="white" d="M59.4,106.1c-7.7,0-14-6.3-14-14c0-6.9,10.7-23.1,12-24.9l2.1-3.1l2.1,3.1c1.2,1.8,12,17.9,12,24.9
			C73.5,99.8,67.2,106.1,59.4,106.1z M59.4,73.1c-4.1,6.5-9,15.4-9,18.9c0,5,4.1,9,9,9c5,0,9-4.1,9-9C68.5,88.6,63.5,79.6,59.4,73.1
			z"/>
	</g>
</g>
</svg>
