<?xml version="1.0" encoding="utf-8"?>
<!-- Generator: Adobe Illustrator 22.1.0, SVG Export Plug-In . SVG Version: 6.00 Build 0)  -->
<svg version="1.1" id="Icons" xmlns="http://www.w3.org/2000/svg" xmlns:xlink="http://www.w3.org/1999/xlink" x="0px" y="0px"
	 viewBox="0 0 93.5 93.5" style="enable-background:new 0 0 93.5 93.5;" xml:space="preserve">
<path fill="white" d="M77.8,77.2h-3.9V3.4c0-1.4-1.1-2.5-2.5-2.5H22.1c-1.4,0-2.5,1.1-2.5,2.5v73.8h-3.9c-1.4,0-2.5,1.1-2.5,2.5v10.4
	c0,1.4,1.1,2.5,2.5,2.5h62c1.4,0,2.5-1.1,2.5-2.5V79.7C80.3,78.3,79.2,77.2,77.8,77.2z M68.9,40.8C57.4,32.8,50.1,19.9,49.4,5.9
	h19.6V40.8z M65.5,44.5H26.3c9.6-6.2,16.6-15.4,20.3-26C49.9,28.9,56.5,38.1,65.5,44.5z M44.1,5.9c-1.1,13.6-8.3,26-19.5,33.7V5.9
	H44.1z M24.6,49.5h44.3v27.7H24.6V49.5z M75.3,87.6h-57v-5.4h3.8c0,0,0,0,0,0h49.3c0,0,0,0,0,0h3.8V87.6z"/>
</svg>
