<?xml version="1.0" encoding="utf-8"?>
<!-- Generator: Adobe Illustrator 22.1.0, SVG Export Plug-In . SVG Version: 6.00 Build 0)  -->
<svg version="1.1" id="Layer_1" xmlns="http://www.w3.org/2000/svg" xmlns:xlink="http://www.w3.org/1999/xlink" x="0px" y="0px"
	 viewBox="0 0 543 242.5" style="enable-background:new 0 0 543 242.5;" xml:space="preserve">
<style type="text/css">
	.st0{fill:#C6E9FA;}
	.st1{opacity:0.7;fill:#C6E9FA;}
	.st2{opacity:0.4;fill:#C6E9FA;}
	.st3{opacity:0.1;fill:#C6E9FA;}
	.st4{fill:#005E9C;}
	.st5{fill:none;stroke:#005E9C;stroke-miterlimit:10;}
</style>
<g>
	<rect x="36.2" y="166.4" class="st0" width="494.3" height="47.6"/>
	<rect x="36.2" y="118.6" class="st1" width="494.3" height="47.6"/>
	<rect x="36.2" y="70.9" class="st2" width="494.3" height="47.6"/>
	<rect x="36.2" y="23.1" class="st3" width="494.3" height="47.6"/>
	<g>
		<path class="st4" d="M4.6,198.6v3.8c0,0,0,0.1,0.1,0.1H9c0,0,0.1,0,0.1-0.1V200c0-0.1,0.1-0.2,0.2-0.2h0.4c0.1,0,0.2,0.1,0.2,0.2
			v2.4c0,0,0,0.1,0.1,0.1h4.4c0,0,0.1,0,0.1-0.1v-3.8c0-0.1,0.1-0.2,0.2-0.2h0.4c0.1,0,0.2,0.1,0.2,0.2v4.5c0,0.1-0.1,0.2-0.2,0.2H4
			c-0.1,0-0.2-0.1-0.2-0.2v-4.5c0-0.1,0.1-0.2,0.2-0.2h0.4C4.6,198.5,4.6,198.5,4.6,198.6z"/>
		<path class="st4" d="M14.9,196.8H4c-0.1,0-0.2-0.1-0.2-0.2v-0.5c0-0.1,0.1-0.2,0.2-0.2h10.9c0.1,0,0.2,0.1,0.2,0.2v0.5
			C15.1,196.7,15,196.8,14.9,196.8z"/>
		<path class="st4" d="M11.3,189.5v3.7c0,0,0,0.1,0.1,0.1h1.4c0.5,0,0.9-0.1,1.2-0.4s0.5-0.6,0.5-1.1c0-0.4-0.1-0.7-0.3-1
			c-0.2-0.3-0.5-0.4-0.9-0.5c-0.1,0-0.1-0.1-0.1-0.2l0-0.5c0,0,0-0.1,0-0.1c0,0,0.1,0,0.1,0h0.1c0.6,0.1,1,0.4,1.4,0.8
			c0.3,0.4,0.5,0.9,0.5,1.6c0,0.7-0.2,1.3-0.7,1.7c-0.4,0.4-1,0.7-1.7,0.7H9.3c-0.7,0-1.3-0.2-1.7-0.7c-0.4-0.4-0.7-1-0.7-1.7
			c0-0.7,0.2-1.3,0.7-1.7c0.4-0.4,1-0.7,1.7-0.7h1.9C11.3,189.3,11.3,189.4,11.3,189.5z M8.1,192.8c0.3,0.3,0.7,0.4,1.2,0.4h1.2
			c0,0,0.1,0,0.1-0.1v-2.9c0,0,0-0.1-0.1-0.1H9.3c-0.5,0-0.9,0.1-1.2,0.4s-0.5,0.7-0.5,1.1C7.6,192.2,7.8,192.5,8.1,192.8z"/>
		<path class="st4" d="M14.5,187c-0.4,0.4-1,0.6-1.7,0.6H9.3c-0.7,0-1.3-0.2-1.7-0.7c-0.4-0.4-0.7-1-0.7-1.7c0-0.5,0.1-0.9,0.3-1.2
			c0.2-0.4,0.5-0.6,0.8-0.8c0.3-0.2,0.7-0.3,1.1-0.3h0.1c0.1,0,0.2,0.1,0.2,0.2l0,0.5c0,0.1,0,0.2-0.1,0.2H9c-0.4,0-0.7,0.1-1,0.4
			c-0.3,0.3-0.4,0.7-0.4,1.1s0.2,0.8,0.5,1.1c0.3,0.3,0.7,0.4,1.2,0.4h3.4c0.5,0,0.9-0.1,1.2-0.4c0.3-0.3,0.5-0.6,0.5-1.1
			s-0.1-0.8-0.4-1.1c-0.3-0.3-0.6-0.4-1-0.4h-0.1c-0.1,0-0.2-0.1-0.2-0.2v-0.5c0,0,0-0.1,0-0.1s0.1,0,0.1,0h0.1
			c0.4,0,0.7,0.1,1.1,0.3c0.3,0.2,0.6,0.5,0.8,0.8c0.2,0.4,0.3,0.8,0.3,1.2C15.2,186,15,186.6,14.5,187z"/>
		<path class="st4" d="M7.7,178.8v1.3c0,0,0,0.1,0.1,0.1h5.2c0.5,0,0.9-0.1,1.1-0.3s0.3-0.5,0.3-0.9v-0.2c0-0.1,0.1-0.2,0.2-0.2h0.4
			c0.1,0,0.2,0.1,0.2,0.2v0.3c0,0.6-0.1,1-0.4,1.4c-0.3,0.3-0.8,0.5-1.6,0.5H7.7c0,0-0.1,0-0.1,0.1v0.7c0,0.1-0.1,0.2-0.2,0.2H7.2
			c-0.1,0-0.2-0.1-0.2-0.2V181c0,0,0-0.1-0.1-0.1H5.1C5,181,5,180.9,5,180.8v-0.5c0-0.1,0.1-0.2,0.2-0.2h1.8c0,0,0.1,0,0.1-0.1v-1.3
			c0-0.1,0.1-0.2,0.2-0.2h0.4C7.6,178.6,7.7,178.7,7.7,178.8z"/>
		<path class="st4" d="M7.1,173.9c0-0.1,0.1-0.1,0.2-0.1l0.5,0.1c0.1,0,0.1,0.1,0.1,0.2c-0.1,0.2-0.1,0.4-0.1,0.6
			c0,0.4,0.2,0.8,0.6,1s0.9,0.4,1.5,0.4h4.9c0.1,0,0.2,0.1,0.2,0.2v0.5c0,0.1-0.1,0.2-0.2,0.2H7.2c-0.1,0-0.2-0.1-0.2-0.2v-0.5
			c0-0.1,0.1-0.2,0.2-0.2h1c0,0,0,0,0,0s0,0,0,0c-0.4-0.1-0.7-0.4-0.9-0.6c-0.2-0.3-0.3-0.6-0.3-0.9C6.9,174.3,7,174.1,7.1,173.9z"
			/>
		<path class="st4" d="M5.2,172.5c-0.1,0.1-0.3,0.2-0.5,0.2c-0.2,0-0.4-0.1-0.5-0.2S4,172.2,4,172c0-0.2,0.1-0.3,0.2-0.5
			c0.1-0.1,0.3-0.2,0.5-0.2c0.2,0,0.4,0.1,0.5,0.2c0.1,0.1,0.2,0.3,0.2,0.5C5.4,172.2,5.3,172.3,5.2,172.5z M14.9,172.4H7.2
			c-0.1,0-0.2-0.1-0.2-0.2v-0.5c0-0.1,0.1-0.2,0.2-0.2h7.7c0.1,0,0.2,0.1,0.2,0.2v0.5C15.1,172.4,15,172.4,14.9,172.4z"/>
		<path class="st4" d="M14.5,168.9c-0.4,0.4-1,0.6-1.7,0.6H9.3c-0.7,0-1.3-0.2-1.7-0.7c-0.4-0.4-0.7-1-0.7-1.7
			c0-0.5,0.1-0.9,0.3-1.2c0.2-0.4,0.5-0.6,0.8-0.8c0.3-0.2,0.7-0.3,1.1-0.3h0.1c0.1,0,0.2,0.1,0.2,0.2l0,0.5c0,0.1,0,0.2-0.1,0.2H9
			c-0.4,0-0.7,0.1-1,0.4c-0.3,0.3-0.4,0.7-0.4,1.1s0.2,0.8,0.5,1.1c0.3,0.3,0.7,0.4,1.2,0.4h3.4c0.5,0,0.9-0.1,1.2-0.4
			c0.3-0.3,0.5-0.6,0.5-1.1s-0.1-0.8-0.4-1.1c-0.3-0.3-0.6-0.4-1-0.4h-0.1c-0.1,0-0.2-0.1-0.2-0.2V165c0,0,0-0.1,0-0.1s0.1,0,0.1,0
			h0.1c0.4,0,0.7,0.1,1.1,0.3c0.3,0.2,0.6,0.5,0.8,0.8c0.2,0.4,0.3,0.8,0.3,1.2C15.2,167.9,15,168.5,14.5,168.9z"/>
		<path class="st4" d="M4.7,155.2c0.6-0.5,1.3-0.7,2.2-0.7c0.9,0,1.6,0.2,2.2,0.7s0.8,1,0.8,1.8v1.8c0,0,0,0.1,0.1,0.1h5
			c0.1,0,0.2,0.1,0.2,0.2v0.5c0,0.1-0.1,0.2-0.2,0.2H4c-0.1,0-0.2-0.1-0.2-0.2v-2.5C3.8,156.3,4.1,155.7,4.7,155.2z M8.5,155.9
			c-0.4-0.3-1-0.5-1.6-0.5c-0.7,0-1.2,0.2-1.7,0.5c-0.4,0.3-0.6,0.7-0.6,1.3v1.6c0,0,0,0.1,0.1,0.1h4.4c0,0,0.1,0,0.1-0.1v-1.6
			C9.2,156.6,8.9,156.2,8.5,155.9z"/>
		<path class="st4" d="M14.5,152.4c-0.4,0.4-1,0.7-1.7,0.7H9.3c-0.7,0-1.3-0.2-1.7-0.7c-0.4-0.4-0.7-1-0.7-1.7
			c0-0.7,0.2-1.3,0.7-1.7c0.4-0.4,1-0.7,1.7-0.7h3.5c0.7,0,1.3,0.2,1.7,0.7c0.4,0.4,0.7,1,0.7,1.7C15.2,151.4,15,152,14.5,152.4z
			 M14,149.6c-0.3-0.3-0.7-0.4-1.2-0.4H9.3c-0.5,0-0.9,0.1-1.2,0.4c-0.3,0.3-0.5,0.7-0.5,1.1c0,0.4,0.2,0.8,0.5,1.1s0.7,0.4,1.2,0.4
			h3.4c0.5,0,0.9-0.1,1.2-0.4s0.5-0.6,0.5-1.1C14.4,150.3,14.3,149.9,14,149.6z"/>
		<path class="st4" d="M14.9,145.6l-7.7,1.7h0c-0.1,0-0.1,0-0.1-0.1v-0.5c0-0.1,0-0.2,0.1-0.2l6.6-1.3c0,0,0,0,0,0s0,0,0,0l-6.6-1.3
			c-0.1,0-0.1-0.1-0.1-0.2v-0.5c0-0.1,0-0.2,0.1-0.2l6.6-1.3c0,0,0,0,0,0c0,0,0,0,0,0l-6.6-1.3c-0.1,0-0.1-0.1-0.1-0.2l0-0.5
			c0-0.1,0.1-0.2,0.2-0.1l7.7,1.7c0.1,0,0.1,0.1,0.1,0.2v0.5c0,0.1,0,0.2-0.1,0.2l-6.3,1.3c0,0,0,0,0,0c0,0,0,0,0,0l6.3,1.3
			c0.1,0,0.1,0.1,0.1,0.2v0.5C15.1,145.5,15,145.6,14.9,145.6z"/>
		<path class="st4" d="M11.3,133.7v3.7c0,0,0,0.1,0.1,0.1h1.4c0.5,0,0.9-0.1,1.2-0.4c0.3-0.3,0.5-0.6,0.5-1.1c0-0.4-0.1-0.7-0.3-1
			s-0.5-0.4-0.9-0.5c-0.1,0-0.1-0.1-0.1-0.2l0-0.5c0,0,0-0.1,0-0.1c0,0,0.1,0,0.1,0h0.1c0.6,0.1,1,0.4,1.4,0.8s0.5,0.9,0.5,1.6
			c0,0.7-0.2,1.3-0.7,1.7c-0.4,0.4-1,0.7-1.7,0.7H9.3c-0.7,0-1.3-0.2-1.7-0.7c-0.4-0.4-0.7-1-0.7-1.7c0-0.7,0.2-1.3,0.7-1.7
			c0.4-0.4,1-0.7,1.7-0.7h1.9C11.3,133.5,11.3,133.6,11.3,133.7z M8.1,137c0.3,0.3,0.7,0.4,1.2,0.4h1.2c0,0,0.1,0,0.1-0.1v-2.9
			c0,0,0-0.1-0.1-0.1H9.3c-0.5,0-0.9,0.1-1.2,0.4c-0.3,0.3-0.5,0.7-0.5,1.1C7.6,136.3,7.8,136.7,8.1,137z"/>
		<path class="st4" d="M7.1,128.5c0-0.1,0.1-0.1,0.2-0.1l0.5,0.1c0.1,0,0.1,0.1,0.1,0.2c-0.1,0.2-0.1,0.4-0.1,0.6
			c0,0.4,0.2,0.8,0.6,1c0.4,0.3,0.9,0.4,1.5,0.4h4.9c0.1,0,0.2,0.1,0.2,0.2v0.5c0,0.1-0.1,0.2-0.2,0.2H7.2c-0.1,0-0.2-0.1-0.2-0.2
			V131c0-0.1,0.1-0.2,0.2-0.2h1c0,0,0,0,0,0c0,0,0,0,0,0c-0.4-0.1-0.7-0.4-0.9-0.6c-0.2-0.3-0.3-0.6-0.3-0.9
			C6.9,128.9,7,128.7,7.1,128.5z"/>
		<path class="st4" d="M14.9,123.7H4c-0.1,0-0.2-0.1-0.2-0.2v-2.4c0-0.8,0.3-1.4,0.8-1.9c0.5-0.5,1.2-0.7,2.2-0.7h5.3
			c0.9,0,1.6,0.2,2.2,0.7s0.8,1.1,0.8,1.9v2.4C15.1,123.7,15,123.7,14.9,123.7z M14.3,122.8v-1.6c0-0.5-0.2-0.9-0.6-1.2
			c-0.4-0.3-0.9-0.5-1.6-0.5H6.8c-0.7,0-1.2,0.2-1.6,0.5c-0.4,0.3-0.6,0.7-0.6,1.3v1.6c0,0,0,0.1,0.1,0.1L14.3,122.8
			C14.3,122.9,14.3,122.9,14.3,122.8z"/>
		<path class="st4" d="M11.3,112.1v3.7c0,0,0,0.1,0.1,0.1h1.4c0.5,0,0.9-0.1,1.2-0.4s0.5-0.6,0.5-1.1c0-0.4-0.1-0.7-0.3-1
			s-0.5-0.4-0.9-0.5c-0.1,0-0.1-0.1-0.1-0.2l0-0.5c0,0,0-0.1,0-0.1c0,0,0.1,0,0.1,0h0.1c0.6,0.1,1,0.4,1.4,0.8s0.5,0.9,0.5,1.6
			c0,0.7-0.2,1.3-0.7,1.7c-0.4,0.4-1,0.7-1.7,0.7H9.3c-0.7,0-1.3-0.2-1.7-0.7c-0.4-0.4-0.7-1-0.7-1.7c0-0.7,0.2-1.3,0.7-1.7
			c0.4-0.4,1-0.7,1.7-0.7h1.9C11.3,111.9,11.3,112,11.3,112.1z M8.1,115.4c0.3,0.3,0.7,0.4,1.2,0.4h1.2c0,0,0.1,0,0.1-0.1v-2.9
			c0,0,0-0.1-0.1-0.1H9.3c-0.5,0-0.9,0.1-1.2,0.4s-0.5,0.7-0.5,1.1C7.6,114.8,7.8,115.1,8.1,115.4z"/>
		<path class="st4" d="M7.6,102.4c0.5-0.4,1.1-0.5,1.9-0.5h5.4c0.1,0,0.2,0.1,0.2,0.2v0.5c0,0.1-0.1,0.2-0.2,0.2H9.6
			c-0.6,0-1.1,0.1-1.4,0.4c-0.4,0.3-0.5,0.6-0.5,1c0,0.4,0.2,0.8,0.5,1.1c0.3,0.3,0.8,0.4,1.4,0.4h5.3c0.1,0,0.2,0.1,0.2,0.2v0.5
			c0,0.1-0.1,0.2-0.2,0.2H9.6c-0.6,0-1.1,0.1-1.4,0.4c-0.4,0.3-0.5,0.6-0.5,1c0,0.4,0.2,0.8,0.5,1.1c0.3,0.3,0.8,0.4,1.4,0.4h5.3
			c0.1,0,0.2,0.1,0.2,0.2v0.5c0,0.1-0.1,0.2-0.2,0.2H7.2c-0.1,0-0.2-0.1-0.2-0.2v-0.5c0-0.1,0.1-0.2,0.2-0.2h0.6c0,0,0,0,0.1,0
			c0,0,0,0,0,0c-0.3-0.2-0.5-0.4-0.7-0.7s-0.2-0.6-0.2-0.9c0-0.4,0.1-0.8,0.3-1.1c0.2-0.3,0.5-0.5,0.9-0.7c0.1,0,0,0,0-0.1
			c-0.4-0.2-0.7-0.4-0.9-0.8c-0.2-0.3-0.3-0.7-0.3-1.1C6.9,103.3,7.1,102.8,7.6,102.4z"/>
		<path class="st4" d="M7.6,96c0.5-0.4,1.1-0.6,1.9-0.6h5.4c0.1,0,0.2,0.1,0.2,0.2V96c0,0.1-0.1,0.2-0.2,0.2h-0.6c0,0,0,0-0.1,0
			c0,0,0,0,0,0.1c0.6,0.4,0.9,1,0.9,1.9c0,0.6-0.2,1.1-0.5,1.5c-0.3,0.4-0.9,0.6-1.7,0.6c-0.9,0-1.5-0.2-2-0.7s-0.6-1.1-0.6-2v-1.2
			c0,0,0-0.1-0.1-0.1H9.6c-0.6,0-1.1,0.1-1.4,0.4c-0.4,0.3-0.5,0.6-0.5,1.1c0,0.4,0.1,0.7,0.4,1s0.5,0.4,0.9,0.5
			C9,99.1,9,99.2,9,99.3l0,0.6c0,0.1,0,0.1,0,0.1c0,0-0.1,0-0.1,0c-0.6-0.1-1.1-0.3-1.4-0.8c-0.4-0.4-0.5-1-0.5-1.6
			C6.9,97,7.1,96.4,7.6,96z M14,96.7c-0.3-0.3-0.7-0.5-1.3-0.5h-1.5c0,0-0.1,0-0.1,0.1v1.2c0,0.6,0.2,1,0.5,1.3
			c0.3,0.3,0.8,0.5,1.4,0.5c0.5,0,0.9-0.1,1.2-0.4c0.3-0.3,0.4-0.6,0.4-1C14.4,97.5,14.3,97.1,14,96.7z"/>
		<path class="st4" d="M7.5,89.3c0.4-0.4,1-0.5,1.8-0.5h5.5c0.1,0,0.2,0.1,0.2,0.2v0.5c0,0.1-0.1,0.2-0.2,0.2H9.5
			c-0.6,0-1,0.1-1.3,0.4c-0.3,0.3-0.5,0.6-0.5,1.1c0,0.5,0.2,0.8,0.5,1.1c0.3,0.3,0.8,0.4,1.4,0.4h5.3c0.1,0,0.2,0.1,0.2,0.2v0.5
			c0,0.1-0.1,0.2-0.2,0.2H7.2c-0.1,0-0.2-0.1-0.2-0.2v-0.5c0-0.1,0.1-0.2,0.2-0.2h0.6c0,0,0,0,0,0c0,0,0,0,0,0
			c-0.6-0.4-0.9-0.9-0.9-1.7C6.9,90.1,7.1,89.6,7.5,89.3z"/>
		<path class="st4" d="M3.9,82.9v-0.5c0-0.1,0.1-0.2,0.2-0.2h10.9c0.1,0,0.2,0.1,0.2,0.2v0.5c0,0.1-0.1,0.2-0.2,0.2h-0.5
			c0,0,0,0-0.1,0c0,0,0,0,0,0c0.3,0.2,0.5,0.4,0.6,0.7c0.1,0.3,0.2,0.6,0.2,0.9c0,0.6-0.2,1.2-0.7,1.5c-0.4,0.4-1,0.6-1.7,0.6
			l-1.8,0l-1.8,0c-0.7,0-1.3-0.2-1.7-0.6c-0.4-0.4-0.7-0.9-0.7-1.5c0-0.3,0.1-0.7,0.2-0.9c0.1-0.3,0.3-0.5,0.6-0.7c0,0,0,0,0,0
			c0,0,0,0-0.1,0H4C3.9,83,3.9,83,3.9,82.9z M14,83.5c-0.3-0.3-0.7-0.4-1.2-0.4H9.3c-0.5,0-0.9,0.1-1.2,0.4s-0.5,0.6-0.5,1.1
			c0,0.4,0.2,0.8,0.5,1.1s0.7,0.4,1.2,0.4h3.4c0.5,0,0.9-0.1,1.2-0.4c0.3-0.3,0.5-0.7,0.5-1.1C14.4,84.1,14.3,83.7,14,83.5z"/>
		<path class="st4" d="M16.7,76.7c-0.8,0.4-1.8,0.7-3,0.9c-1.2,0.2-2.5,0.4-3.8,0.4c-1.3,0-2.6-0.1-3.9-0.4c-1.2-0.3-2.3-0.6-3.1-1
			c-0.1,0-0.1-0.1-0.1-0.2v-0.5c0-0.1,0-0.1,0.1-0.1c0,0,0.1,0,0.1,0c0.8,0.3,1.9,0.6,3.1,0.8S8.6,77,9.9,77c1.3,0,2.5-0.1,3.7-0.3
			s2.2-0.5,3-0.8c0,0,0,0,0.1,0c0,0,0.1,0,0.1,0c0,0,0,0.1,0,0.1v0.5C16.8,76.6,16.7,76.6,16.7,76.7z"/>
		<path class="st4" d="M14.5,73c-0.5,0.5-1.1,0.7-1.9,0.7H6.3c-0.8,0-1.4-0.2-1.9-0.7s-0.7-1.1-0.7-1.9s0.2-1.4,0.7-1.9
			s1.1-0.7,1.9-0.7H7c0.1,0,0.2,0.1,0.2,0.2v0.5c0,0.1-0.1,0.2-0.2,0.2H6.3c-0.6,0-1,0.2-1.3,0.5c-0.3,0.3-0.5,0.7-0.5,1.3
			s0.2,1,0.5,1.3c0.3,0.3,0.8,0.5,1.3,0.5h6.3c0.6,0,1-0.2,1.3-0.5c0.3-0.3,0.5-0.7,0.5-1.3s-0.2-1-0.5-1.3
			c-0.3-0.3-0.8-0.5-1.3-0.5h-2.3c0,0-0.1,0-0.1,0.1V71c0,0.1-0.1,0.2-0.2,0.2H9.7c-0.1,0-0.2-0.1-0.2-0.2v-2.3
			c0-0.1,0.1-0.2,0.2-0.2h2.9c0.8,0,1.4,0.2,1.9,0.7s0.7,1.1,0.7,1.9S15,72.6,14.5,73z"/>
		<path class="st4" d="M5.2,66.6c-0.1,0.1-0.3,0.2-0.5,0.2c-0.2,0-0.4-0.1-0.5-0.2S4,66.3,4,66.1c0-0.2,0.1-0.3,0.2-0.5
			c0.1-0.1,0.3-0.2,0.5-0.2c0.2,0,0.4,0.1,0.5,0.2c0.1,0.1,0.2,0.3,0.2,0.5C5.4,66.3,5.3,66.5,5.2,66.6z M14.9,66.5H7.2
			c-0.1,0-0.2-0.1-0.2-0.2v-0.5c0-0.1,0.1-0.2,0.2-0.2h7.7c0.1,0,0.2,0.1,0.2,0.2v0.5C15.1,66.5,15,66.5,14.9,66.5z"/>
		<path class="st4" d="M7,59.7v-0.5C7,59,7.1,59,7.2,59H15c1.1,0,1.9,0.3,2.5,0.8s0.8,1.3,0.8,2.4c0,0.1-0.1,0.2-0.2,0.2h-0.4
			c-0.1,0-0.2-0.1-0.2-0.2c0-0.8-0.2-1.4-0.7-1.7s-1.1-0.5-2-0.5h-0.6c0,0-0.1,0-0.1,0c0,0,0,0,0,0c0.3,0.2,0.5,0.4,0.6,0.7
			c0.1,0.3,0.2,0.6,0.2,0.9c0,0.7-0.2,1.2-0.7,1.6s-1,0.6-1.7,0.6H9.3c-0.7,0-1.3-0.2-1.7-0.6c-0.4-0.4-0.7-0.9-0.7-1.6
			c0-0.3,0.1-0.7,0.2-0.9s0.4-0.5,0.6-0.7c0,0,0,0,0-0.1s0,0,0,0H7.2C7.1,59.8,7,59.8,7,59.7z M13.9,60.2c-0.3-0.3-0.7-0.4-1.2-0.4
			H9.3c-0.5,0-0.9,0.1-1.2,0.4s-0.5,0.6-0.5,1.1c0,0.4,0.2,0.8,0.5,1.1s0.7,0.4,1.2,0.4h3.4c0.5,0,0.9-0.1,1.2-0.4
			c0.3-0.3,0.5-0.7,0.5-1.1C14.4,60.9,14.2,60.5,13.9,60.2z"/>
		<path class="st4" d="M7.6,53.1c0.5-0.4,1.1-0.6,1.9-0.6h5.4c0.1,0,0.2,0.1,0.2,0.2v0.5c0,0.1-0.1,0.2-0.2,0.2h-0.6c0,0,0,0-0.1,0
			c0,0,0,0,0,0.1c0.6,0.4,0.9,1,0.9,1.9c0,0.6-0.2,1.1-0.5,1.5c-0.3,0.4-0.9,0.6-1.7,0.6c-0.9,0-1.5-0.2-2-0.7s-0.6-1.1-0.6-2v-1.2
			c0,0,0-0.1-0.1-0.1H9.6c-0.6,0-1.1,0.1-1.4,0.4c-0.4,0.3-0.5,0.6-0.5,1.1c0,0.4,0.1,0.7,0.4,1s0.5,0.4,0.9,0.5
			C9,56.3,9,56.3,9,56.4L9,57c0,0.1,0,0.1,0,0.1c0,0-0.1,0-0.1,0c-0.6-0.1-1.1-0.3-1.4-0.8c-0.4-0.4-0.5-1-0.5-1.6
			C6.9,54.1,7.1,53.5,7.6,53.1z M14,53.9c-0.3-0.3-0.7-0.5-1.3-0.5h-1.5c0,0-0.1,0-0.1,0.1v1.2c0,0.6,0.2,1,0.5,1.3
			c0.3,0.3,0.8,0.5,1.4,0.5c0.5,0,0.9-0.1,1.2-0.4c0.3-0.3,0.4-0.6,0.4-1C14.4,54.6,14.3,54.2,14,53.9z"/>
		<path class="st4" d="M14.9,49.6l-7.7,1.7h0c-0.1,0-0.1,0-0.1-0.1v-0.5c0-0.1,0-0.2,0.1-0.2l6.6-1.3c0,0,0,0,0,0c0,0,0,0,0,0
			l-6.6-1.3C7,47.8,7,47.7,7,47.6v-0.5C7,47,7,47,7.1,47l6.6-1.3c0,0,0,0,0,0s0,0,0,0l-6.6-1.3C7,44.3,7,44.2,7,44.1l0-0.5
			c0-0.1,0.1-0.2,0.2-0.1l7.7,1.7c0.1,0,0.1,0.1,0.1,0.2v0.5c0,0.1,0,0.2-0.1,0.2l-6.3,1.3c0,0,0,0,0,0c0,0,0,0,0,0l6.3,1.3
			c0.1,0,0.1,0.1,0.1,0.2v0.5C15.1,49.5,15,49.6,14.9,49.6z"/>
		<path class="st4" d="M7.6,38.2c0.5-0.4,1.1-0.6,1.9-0.6h5.4c0.1,0,0.2,0.1,0.2,0.2v0.5c0,0.1-0.1,0.2-0.2,0.2h-0.6c0,0,0,0-0.1,0
			c0,0,0,0,0,0.1c0.6,0.4,0.9,1,0.9,1.9c0,0.6-0.2,1.1-0.5,1.5c-0.3,0.4-0.9,0.6-1.7,0.6c-0.9,0-1.5-0.2-2-0.7s-0.6-1.1-0.6-2v-1.2
			c0,0,0-0.1-0.1-0.1H9.6c-0.6,0-1.1,0.1-1.4,0.4c-0.4,0.3-0.5,0.6-0.5,1.1c0,0.4,0.1,0.7,0.4,1s0.5,0.4,0.9,0.5
			C9,41.3,9,41.4,9,41.5l0,0.6c0,0.1,0,0.1,0,0.1c0,0-0.1,0-0.1,0c-0.6-0.1-1.1-0.3-1.4-0.8c-0.4-0.4-0.5-1-0.5-1.6
			C6.9,39.2,7.1,38.6,7.6,38.2z M14,38.9c-0.3-0.3-0.7-0.5-1.3-0.5h-1.5c0,0-0.1,0-0.1,0.1v1.2c0,0.6,0.2,1,0.5,1.3
			c0.3,0.3,0.8,0.5,1.4,0.5c0.5,0,0.9-0.1,1.2-0.4c0.3-0.3,0.4-0.6,0.4-1C14.4,39.7,14.3,39.3,14,38.9z"/>
		<path class="st4" d="M7.7,33.2v1.3c0,0,0,0.1,0.1,0.1h5.2c0.5,0,0.9-0.1,1.1-0.3c0.2-0.2,0.3-0.5,0.3-0.9v-0.2
			c0-0.1,0.1-0.2,0.2-0.2h0.4c0.1,0,0.2,0.1,0.2,0.2v0.3c0,0.6-0.1,1-0.4,1.4c-0.3,0.3-0.8,0.5-1.6,0.5H7.7c0,0-0.1,0-0.1,0.1v0.7
			c0,0.1-0.1,0.2-0.2,0.2H7.2c-0.1,0-0.2-0.1-0.2-0.2v-0.7c0,0,0-0.1-0.1-0.1H5.1C5,35.3,5,35.3,5,35.2v-0.5c0-0.1,0.1-0.2,0.2-0.2
			h1.8c0,0,0.1,0,0.1-0.1v-1.3C7,33.1,7.1,33,7.2,33h0.4C7.6,33,7.7,33.1,7.7,33.2z"/>
		<path class="st4" d="M7.7,29v1.3c0,0,0,0.1,0.1,0.1h5.2c0.5,0,0.9-0.1,1.1-0.3c0.2-0.2,0.3-0.5,0.3-0.9V29c0-0.1,0.1-0.2,0.2-0.2
			h0.4c0.1,0,0.2,0.1,0.2,0.2v0.3c0,0.6-0.1,1-0.4,1.4c-0.3,0.3-0.8,0.5-1.6,0.5H7.7c0,0-0.1,0-0.1,0.1v0.7C7.7,32,7.6,32,7.5,32
			H7.2C7.1,32,7,32,7,31.9v-0.7c0,0,0-0.1-0.1-0.1H5.1C5,31.2,5,31.1,5,31v-0.5c0-0.1,0.1-0.2,0.2-0.2h1.8c0,0,0.1,0,0.1-0.1V29
			c0-0.1,0.1-0.2,0.2-0.2h0.4C7.6,28.8,7.7,28.9,7.7,29z"/>
		<path class="st4" d="M14.6,27c-0.4,0.4-0.9,0.6-1.5,0.6H13c-0.1,0-0.2-0.1-0.2-0.2v-0.5c0-0.1,0-0.2,0.1-0.2h0.1
			c0.4,0,0.7-0.1,1-0.4s0.4-0.6,0.4-1.1c0-0.4-0.1-0.8-0.4-1s-0.6-0.4-1-0.4c-0.3,0-0.6,0.1-0.8,0.2c-0.2,0.1-0.4,0.3-0.5,0.6
			c-0.1,0.2-0.3,0.5-0.4,0.9c-0.2,0.4-0.3,0.8-0.5,1c-0.2,0.3-0.4,0.5-0.7,0.7c-0.3,0.2-0.7,0.3-1.1,0.3c-0.7,0-1.2-0.2-1.6-0.6
			c-0.4-0.4-0.6-0.9-0.6-1.6c0-0.7,0.2-1.2,0.6-1.6c0.4-0.4,0.9-0.6,1.5-0.6h0c0.1,0,0.2,0.1,0.2,0.2v0.5c0,0,0,0.1,0,0.1
			c0,0-0.1,0-0.1,0H9c-0.4,0-0.7,0.1-1,0.4c-0.3,0.3-0.4,0.6-0.4,1s0.1,0.8,0.4,1c0.3,0.3,0.6,0.4,1,0.4c0.3,0,0.5-0.1,0.7-0.2
			c0.2-0.1,0.3-0.3,0.5-0.5s0.3-0.5,0.4-0.9c0.2-0.4,0.4-0.8,0.5-1.1s0.4-0.5,0.7-0.7S12.6,23,13,23c0.6,0,1.2,0.2,1.5,0.6
			s0.6,1,0.6,1.6C15.1,26,15,26.5,14.6,27z"/>
		<path class="st4" d="M16.8,20.8v0.5c0,0.1,0,0.1-0.1,0.1c0,0-0.1,0-0.1,0c-0.8-0.3-1.8-0.6-3-0.8s-2.4-0.3-3.7-0.3
			c-1.3,0-2.5,0.1-3.8,0.3S3.8,21.1,3,21.4c0,0,0,0-0.1,0c0,0-0.1,0-0.1,0c0,0,0-0.1,0-0.1v-0.5c0-0.1,0-0.1,0.1-0.2
			c0.8-0.4,1.8-0.7,3.1-1c1.2-0.3,2.5-0.4,3.9-0.4c1.3,0,2.6,0.1,3.8,0.4c1.2,0.2,2.2,0.6,3,0.9C16.7,20.6,16.8,20.7,16.8,20.8z"/>
	</g>
	<polyline class="st5" points="531,220.4 29.8,220.4 29.8,2.6 	"/>
	<path class="st5" d="M29.8,100.7c0,0,16.9,22.5,50.6,22.3c70.5-0.6,76-87.2,133.6-86.9c56.8,0.3,54.5,15.8,129.7,15.1
		c41.5-0.4,47.6-29.1,92.5-30.3c25-0.7,62.6,7.2,94.2,78.1"/>
	<g>
		<path class="st4" d="M64.9,231.3h0.4c0.1,0,0.1,0,0.1,0.1v8.2c0,0.1,0,0.1-0.1,0.1h-0.4c-0.1,0-0.1,0-0.1-0.1v-7.5c0,0,0,0,0,0
			c0,0,0,0,0,0l-1,0.5l-0.1,0c0,0,0,0-0.1,0c0,0,0,0,0-0.1v-0.3c0-0.1,0-0.1,0.1-0.1l1.1-0.7C64.8,231.4,64.8,231.3,64.9,231.3z"/>
		<path class="st4" d="M66.7,239.6v-0.4c0-0.1,0-0.1,0-0.2c0.1-0.1,0.1-0.2,0.2-0.3c0.2-0.3,0.5-0.8,0.9-1.5s0.7-1.2,1-1.7
			c0.5-0.9,0.8-1.7,0.8-2.3c0-0.4-0.1-0.8-0.3-1.1c-0.2-0.3-0.5-0.4-0.8-0.4c-0.3,0-0.6,0.1-0.8,0.4c-0.2,0.3-0.3,0.6-0.3,1.1v0.4
			c0,0.1,0,0.1-0.1,0.1h-0.4c-0.1,0-0.1,0-0.1-0.1v-0.5c0-0.6,0.2-1.1,0.5-1.5c0.3-0.4,0.8-0.6,1.3-0.6c0.5,0,1,0.2,1.3,0.6
			c0.3,0.4,0.5,0.9,0.5,1.5c0,0.7-0.3,1.6-0.9,2.6c-0.6,1-1.2,2.1-1.9,3.2c0,0,0,0,0,0s0,0,0,0h2.9c0.1,0,0.1,0,0.1,0.1v0.3
			c0,0.1,0,0.1-0.1,0.1h-3.6C66.7,239.7,66.7,239.7,66.7,239.6z"/>
		<path class="st4" d="M77.5,239.6l-0.3-1.6c0,0,0,0,0,0c0,0,0,0,0,0h-2.3c0,0,0,0,0,0c0,0,0,0,0,0l-0.3,1.6c0,0.1-0.1,0.1-0.1,0.1
			h-0.4c0,0-0.1,0-0.1,0c0,0,0-0.1,0-0.1l1.8-8.2c0-0.1,0.1-0.1,0.1-0.1h0.5c0.1,0,0.1,0,0.1,0.1l1.8,8.2v0c0,0.1,0,0.1-0.1,0.1
			h-0.4C77.5,239.7,77.5,239.7,77.5,239.6z M74.8,237.5C74.8,237.5,74.8,237.5,74.8,237.5l2.1,0c0,0,0,0,0,0l-1.1-5c0,0,0,0,0,0
			c0,0,0,0,0,0L74.8,237.5C74.8,237.4,74.8,237.4,74.8,237.5z"/>
		<path class="st4" d="M79.6,239.6v-8.2c0-0.1,0-0.1,0.1-0.1h0.4c0.1,0,0.1,0,0.1,0.1l1.4,3.5c0,0,0,0,0,0s0,0,0,0l1.4-3.5
			c0-0.1,0.1-0.1,0.1-0.1h0.4c0.1,0,0.1,0,0.1,0.1v8.2c0,0.1,0,0.1-0.1,0.1h-0.4c-0.1,0-0.1,0-0.1-0.1V233c0,0,0,0,0,0s0,0,0,0
			l-1.3,3.1c0,0.1-0.1,0.1-0.1,0.1c-0.1,0-0.1,0-0.1-0.1l-1.3-3.1c0,0,0,0,0,0c0,0,0,0,0,0v6.7c0,0.1,0,0.1-0.1,0.1h-0.4
			C79.6,239.7,79.6,239.7,79.6,239.6z"/>
	</g>
	<line class="st5" x1="74.4" y1="220.4" x2="74.4" y2="225.4"/>
	<g>
		<path class="st4" d="M120.8,237.2c0,0.4,0,0.8-0.1,1.1c-0.1,0.5-0.3,0.8-0.6,1.1c-0.3,0.3-0.7,0.4-1.2,0.4c-0.5,0-0.9-0.1-1.2-0.4
			s-0.5-0.7-0.6-1.1c-0.1-0.3-0.1-0.6-0.1-0.9c0-0.1,0-0.1,0.1-0.1h0.4c0.1,0,0.1,0,0.1,0.1c0,0.4,0,0.6,0.1,0.8
			c0.1,0.4,0.2,0.6,0.4,0.8c0.2,0.2,0.5,0.3,0.8,0.3c0.3,0,0.6-0.1,0.8-0.3c0.2-0.2,0.4-0.4,0.4-0.8c0.1-0.3,0.1-0.6,0.1-1.1
			c0-0.5,0-0.9-0.1-1.2c-0.1-0.3-0.2-0.5-0.4-0.7c-0.2-0.2-0.4-0.2-0.7-0.2c-0.1,0-0.2,0-0.3,0c0,0-0.1,0-0.1,0s-0.1,0-0.1,0
			l-0.2-0.2c0-0.1,0-0.1,0-0.2l1.7-2.7c0,0,0,0,0,0c0,0,0,0,0,0h-2.8c-0.1,0-0.1,0-0.1-0.1v-0.3c0-0.1,0-0.1,0.1-0.1h3.5
			c0.1,0,0.1,0,0.1,0.1v0.4c0,0,0,0.1,0,0.2l-1.6,2.5c0,0,0,0.1,0,0.1c0.4,0,0.7,0.2,0.9,0.4s0.4,0.6,0.5,0.9
			C120.7,236.2,120.8,236.7,120.8,237.2z"/>
		<path class="st4" d="M128.1,239.6l-0.3-1.6c0,0,0,0,0,0c0,0,0,0,0,0h-2.3c0,0,0,0,0,0c0,0,0,0,0,0l-0.3,1.6c0,0.1-0.1,0.1-0.1,0.1
			h-0.4c0,0-0.1,0-0.1,0c0,0,0-0.1,0-0.1l1.8-8.2c0-0.1,0.1-0.1,0.1-0.1h0.5c0.1,0,0.1,0,0.1,0.1l1.8,8.2v0c0,0.1,0,0.1-0.1,0.1
			h-0.4C128.1,239.7,128.1,239.7,128.1,239.6z M125.4,237.5C125.4,237.5,125.5,237.5,125.4,237.5l2.1,0c0,0,0,0,0,0l-1.1-5
			c0,0,0,0,0,0c0,0,0,0,0,0L125.4,237.5C125.4,237.4,125.4,237.4,125.4,237.5z"/>
		<path class="st4" d="M130.2,239.6v-8.2c0-0.1,0-0.1,0.1-0.1h0.4c0.1,0,0.1,0,0.1,0.1l1.4,3.5c0,0,0,0,0,0s0,0,0,0l1.4-3.5
			c0-0.1,0.1-0.1,0.1-0.1h0.4c0.1,0,0.1,0,0.1,0.1v8.2c0,0.1,0,0.1-0.1,0.1H134c-0.1,0-0.1,0-0.1-0.1V233c0,0,0,0,0,0s0,0,0,0
			l-1.3,3.1c0,0.1-0.1,0.1-0.1,0.1c-0.1,0-0.1,0-0.1-0.1l-1.3-3.1c0,0,0,0,0,0c0,0,0,0,0,0v6.7c0,0.1,0,0.1-0.1,0.1h-0.4
			C130.3,239.7,130.2,239.7,130.2,239.6z"/>
	</g>
	<line class="st5" x1="126.3" y1="220.4" x2="126.3" y2="225.4"/>
	<g>
		<path class="st4" d="M171.4,237.2c0,0.3,0,0.6-0.1,0.9c-0.1,0.6-0.3,1-0.6,1.3c-0.3,0.3-0.7,0.4-1.2,0.4c-0.5,0-0.8-0.1-1.1-0.4
			c-0.3-0.3-0.5-0.7-0.6-1.2c-0.1-0.3-0.1-0.6-0.1-1l0-3.9c0-0.6,0.2-1.1,0.5-1.5c0.3-0.4,0.8-0.6,1.3-0.6c0.5,0,0.9,0.2,1.2,0.6
			c0.3,0.4,0.5,0.9,0.5,1.5v0.1c0,0.1,0,0.1-0.1,0.1h-0.4c-0.1,0-0.1,0-0.1-0.1v-0.1c0-0.4-0.1-0.8-0.3-1c-0.2-0.3-0.5-0.4-0.8-0.4
			c-0.4,0-0.6,0.1-0.9,0.4c-0.2,0.3-0.3,0.6-0.3,1v1.8c0,0,0,0,0,0c0,0,0,0,0,0c0.1-0.2,0.3-0.4,0.5-0.5c0.2-0.1,0.4-0.2,0.7-0.2
			c0.4,0,0.8,0.1,1.1,0.4s0.5,0.6,0.6,1.1C171.4,236.3,171.4,236.7,171.4,237.2z M170.8,237.2c0-0.4,0-0.7-0.1-1.1
			c-0.2-0.6-0.5-1-1.1-1s-0.9,0.3-1.1,1c-0.1,0.3-0.1,0.6-0.1,1.1c0,0.4,0,0.7,0.1,1c0.1,0.8,0.5,1.1,1.1,1.1c0.6,0,1-0.4,1.1-1.2
			C170.8,237.7,170.8,237.4,170.8,237.2z"/>
		<path class="st4" d="M178.5,239.6l-0.3-1.6c0,0,0,0,0,0c0,0,0,0,0,0h-2.3c0,0,0,0,0,0c0,0,0,0,0,0l-0.3,1.6c0,0.1-0.1,0.1-0.1,0.1
			h-0.4c0,0-0.1,0-0.1,0c0,0,0-0.1,0-0.1l1.8-8.2c0-0.1,0.1-0.1,0.1-0.1h0.5c0.1,0,0.1,0,0.1,0.1l1.8,8.2v0c0,0.1,0,0.1-0.1,0.1
			h-0.4C178.6,239.7,178.5,239.7,178.5,239.6z M175.9,237.5C175.9,237.5,175.9,237.5,175.9,237.5l2.1,0c0,0,0,0,0,0l-1.1-5
			c0,0,0,0,0,0c0,0,0,0,0,0L175.9,237.5C175.8,237.4,175.8,237.4,175.9,237.5z"/>
		<path class="st4" d="M180.6,239.6v-8.2c0-0.1,0-0.1,0.1-0.1h0.4c0.1,0,0.1,0,0.1,0.1l1.4,3.5c0,0,0,0,0,0s0,0,0,0l1.4-3.5
			c0-0.1,0.1-0.1,0.1-0.1h0.4c0.1,0,0.1,0,0.1,0.1v8.2c0,0.1,0,0.1-0.1,0.1h-0.4c-0.1,0-0.1,0-0.1-0.1V233c0,0,0,0,0,0s0,0,0,0
			l-1.3,3.1c0,0.1-0.1,0.1-0.1,0.1c-0.1,0-0.1,0-0.1-0.1l-1.3-3.1c0,0,0,0,0,0c0,0,0,0,0,0v6.7c0,0.1,0,0.1-0.1,0.1h-0.4
			C180.7,239.7,180.6,239.7,180.6,239.6z"/>
	</g>
	<line class="st5" x1="176.1" y1="220.4" x2="176.1" y2="225.4"/>
	<g>
		<path class="st4" d="M221.5,237.8c0,0.6-0.2,1.1-0.5,1.5s-0.8,0.6-1.3,0.6c-0.5,0-0.9-0.2-1.2-0.6s-0.5-0.9-0.5-1.5v-0.1
			c0-0.1,0-0.1,0.1-0.1h0.4c0.1,0,0.1,0,0.1,0.1v0.1c0,0.4,0.1,0.8,0.3,1c0.2,0.3,0.5,0.4,0.8,0.4c0.4,0,0.6-0.1,0.9-0.4
			c0.2-0.3,0.3-0.6,0.3-1V236c0,0,0,0,0,0c0,0,0,0,0,0c-0.1,0.2-0.3,0.4-0.5,0.5c-0.2,0.1-0.4,0.2-0.7,0.2c-0.4,0-0.8-0.1-1.1-0.4
			c-0.3-0.3-0.5-0.6-0.6-1.1c-0.1-0.3-0.1-0.7-0.1-1.2c0-0.3,0-0.6,0.1-0.9c0.1-0.6,0.3-1,0.6-1.3c0.3-0.3,0.7-0.4,1.2-0.4
			c0.5,0,0.8,0.1,1.1,0.4c0.3,0.3,0.5,0.7,0.6,1.2c0.1,0.3,0.1,0.6,0.1,1L221.5,237.8z M220.8,235c0.1-0.3,0.1-0.6,0.1-1.1
			c0-0.4,0-0.7-0.1-1c-0.1-0.8-0.5-1.1-1.1-1.1c-0.6,0-1,0.4-1.1,1.2c0,0.3-0.1,0.6-0.1,0.9c0,0.4,0,0.7,0.1,1.1
			c0.2,0.6,0.5,1,1.1,1C220.3,236,220.6,235.7,220.8,235z"/>
		<path class="st4" d="M228.8,239.6l-0.3-1.6c0,0,0,0,0,0c0,0,0,0,0,0h-2.3c0,0,0,0,0,0c0,0,0,0,0,0l-0.3,1.6c0,0.1-0.1,0.1-0.1,0.1
			h-0.4c0,0-0.1,0-0.1,0c0,0,0-0.1,0-0.1l1.8-8.2c0-0.1,0.1-0.1,0.1-0.1h0.5c0.1,0,0.1,0,0.1,0.1l1.8,8.2v0c0,0.1,0,0.1-0.1,0.1H229
			C228.9,239.7,228.9,239.7,228.8,239.6z M226.2,237.5C226.2,237.5,226.2,237.5,226.2,237.5l2.1,0c0,0,0,0,0,0l-1.1-5c0,0,0,0,0,0
			c0,0,0,0,0,0L226.2,237.5C226.2,237.4,226.2,237.4,226.2,237.5z"/>
		<path class="st4" d="M231,239.6v-8.2c0-0.1,0-0.1,0.1-0.1h0.4c0.1,0,0.1,0,0.1,0.1l1.4,3.5c0,0,0,0,0,0s0,0,0,0l1.4-3.5
			c0-0.1,0.1-0.1,0.1-0.1h0.4c0.1,0,0.1,0,0.1,0.1v8.2c0,0.1,0,0.1-0.1,0.1h-0.4c-0.1,0-0.1,0-0.1-0.1V233c0,0,0,0,0,0s0,0,0,0
			l-1.3,3.1c0,0.1-0.1,0.1-0.1,0.1c-0.1,0-0.1,0-0.1-0.1l-1.3-3.1c0,0,0,0,0,0c0,0,0,0,0,0v6.7c0,0.1,0,0.1-0.1,0.1h-0.4
			C231,239.7,231,239.7,231,239.6z"/>
	</g>
	<line class="st5" x1="226" y1="220.4" x2="226" y2="225.4"/>
	<g>
		<path class="st4" d="M269.4,231.3h0.4c0.1,0,0.1,0,0.1,0.1v8.2c0,0.1,0,0.1-0.1,0.1h-0.4c-0.1,0-0.1,0-0.1-0.1v-7.5c0,0,0,0,0,0
			c0,0,0,0,0,0l-1,0.5l-0.1,0c0,0,0,0-0.1,0c0,0,0,0,0-0.1v-0.3c0-0.1,0-0.1,0.1-0.1l1.1-0.7C269.3,231.4,269.4,231.3,269.4,231.3z"
			/>
		<path class="st4" d="M271.2,239.6v-0.4c0-0.1,0-0.1,0-0.2c0.1-0.1,0.1-0.2,0.2-0.3c0.2-0.3,0.5-0.8,0.9-1.5s0.7-1.2,1-1.7
			c0.5-0.9,0.8-1.7,0.8-2.3c0-0.4-0.1-0.8-0.3-1.1c-0.2-0.3-0.5-0.4-0.8-0.4c-0.3,0-0.6,0.1-0.8,0.4c-0.2,0.3-0.3,0.6-0.3,1.1v0.4
			c0,0.1,0,0.1-0.1,0.1h-0.4c-0.1,0-0.1,0-0.1-0.1v-0.5c0-0.6,0.2-1.1,0.5-1.5c0.3-0.4,0.8-0.6,1.3-0.6c0.5,0,1,0.2,1.3,0.6
			c0.3,0.4,0.5,0.9,0.5,1.5c0,0.7-0.3,1.6-0.9,2.6c-0.6,1-1.2,2.1-1.9,3.2c0,0,0,0,0,0s0,0,0,0h2.9c0.1,0,0.1,0,0.1,0.1v0.3
			c0,0.1,0,0.1-0.1,0.1h-3.6C271.3,239.7,271.2,239.7,271.2,239.6z"/>
		<path class="st4" d="M282.1,231.9c0.3,0.4,0.5,1,0.5,1.7c0,0.7-0.2,1.2-0.5,1.6s-0.8,0.6-1.3,0.6h-1.3c0,0,0,0,0,0v3.7
			c0,0.1,0,0.1-0.1,0.1h-0.4c-0.1,0-0.1,0-0.1-0.1v-8.2c0-0.1,0-0.1,0.1-0.1h1.9C281.3,231.3,281.8,231.5,282.1,231.9z M281.6,234.8
			c0.2-0.3,0.4-0.7,0.4-1.2c0-0.5-0.1-0.9-0.4-1.2c-0.2-0.3-0.6-0.5-0.9-0.5h-1.2c0,0,0,0,0,0v3.3c0,0,0,0,0,0h1.2
			C281.1,235.3,281.4,235.2,281.6,234.8z"/>
		<path class="st4" d="M284,239.6v-8.2c0-0.1,0-0.1,0.1-0.1h0.4c0.1,0,0.1,0,0.1,0.1l1.4,3.5c0,0,0,0,0,0c0,0,0,0,0,0l1.4-3.5
			c0-0.1,0.1-0.1,0.1-0.1h0.4c0.1,0,0.1,0,0.1,0.1v8.2c0,0.1,0,0.1-0.1,0.1h-0.4c-0.1,0-0.1,0-0.1-0.1V233c0,0,0,0,0,0c0,0,0,0,0,0
			l-1.3,3.1c0,0.1-0.1,0.1-0.1,0.1c-0.1,0-0.1,0-0.1-0.1l-1.3-3.1c0,0,0,0,0,0s0,0,0,0v6.7c0,0.1,0,0.1-0.1,0.1h-0.4
			C284,239.7,284,239.7,284,239.6z"/>
	</g>
	<line class="st5" x1="330.1" y1="220.4" x2="330.1" y2="225.4"/>
	<line class="st5" x1="278.7" y1="220.4" x2="278.7" y2="225.4"/>
	<g>
		<path class="st4" d="M321.4,239.6v-0.4c0-0.1,0-0.1,0-0.2c0.1-0.1,0.1-0.2,0.2-0.3c0.2-0.3,0.5-0.8,0.9-1.5c0.4-0.7,0.7-1.2,1-1.7
			c0.5-0.9,0.8-1.7,0.8-2.3c0-0.4-0.1-0.8-0.3-1.1c-0.2-0.3-0.5-0.4-0.8-0.4c-0.3,0-0.6,0.1-0.8,0.4c-0.2,0.3-0.3,0.6-0.3,1.1v0.4
			c0,0.1,0,0.1-0.1,0.1h-0.4c-0.1,0-0.1,0-0.1-0.1v-0.5c0-0.6,0.2-1.1,0.5-1.5c0.3-0.4,0.8-0.6,1.3-0.6c0.5,0,1,0.2,1.3,0.6
			s0.5,0.9,0.5,1.5c0,0.7-0.3,1.6-0.9,2.6c-0.6,1-1.2,2.1-1.9,3.2c0,0,0,0,0,0s0,0,0,0h2.9c0.1,0,0.1,0,0.1,0.1v0.3
			c0,0.1,0,0.1-0.1,0.1h-3.6C321.4,239.7,321.4,239.7,321.4,239.6z"/>
		<path class="st4" d="M332.2,231.9c0.3,0.4,0.5,1,0.5,1.7c0,0.7-0.2,1.2-0.5,1.6c-0.3,0.4-0.8,0.6-1.3,0.6h-1.3c0,0,0,0,0,0v3.7
			c0,0.1,0,0.1-0.1,0.1H329c-0.1,0-0.1,0-0.1-0.1v-8.2c0-0.1,0-0.1,0.1-0.1h1.9C331.4,231.3,331.9,231.5,332.2,231.9z M331.8,234.8
			c0.2-0.3,0.4-0.7,0.4-1.2c0-0.5-0.1-0.9-0.4-1.2c-0.2-0.3-0.6-0.5-0.9-0.5h-1.2c0,0,0,0,0,0v3.3c0,0,0,0,0,0h1.2
			C331.2,235.3,331.5,235.2,331.8,234.8z"/>
		<path class="st4" d="M334.1,239.6v-8.2c0-0.1,0-0.1,0.1-0.1h0.4c0.1,0,0.1,0,0.1,0.1l1.4,3.5c0,0,0,0,0,0c0,0,0,0,0,0l1.4-3.5
			c0-0.1,0.1-0.1,0.1-0.1h0.4c0.1,0,0.1,0,0.1,0.1v8.2c0,0.1,0,0.1-0.1,0.1h-0.4c-0.1,0-0.1,0-0.1-0.1V233c0,0,0,0,0,0c0,0,0,0,0,0
			l-1.3,3.1c0,0.1-0.1,0.1-0.1,0.1c-0.1,0-0.1,0-0.1-0.1l-1.3-3.1c0,0,0,0,0,0c0,0,0,0,0,0v6.7c0,0.1,0,0.1-0.1,0.1h-0.4
			C334.2,239.7,334.1,239.7,334.1,239.6z"/>
	</g>
	<g>
		<path class="st4" d="M375.3,236.9v0.3c0,0.1,0,0.1-0.1,0.1h-0.4c0,0,0,0,0,0v2.2c0,0.1,0,0.1-0.1,0.1h-0.4c-0.1,0-0.1,0-0.1-0.1
			v-2.2c0,0,0,0,0,0h-2.7c-0.1,0-0.1,0-0.1-0.1V237c0,0,0-0.1,0-0.1l1.8-5.4c0-0.1,0.1-0.1,0.1-0.1h0.4c0.1,0,0.1,0,0.1,0.1
			l-1.8,5.3c0,0,0,0,0,0c0,0,0,0,0,0h2c0,0,0,0,0,0v-2c0-0.1,0-0.1,0.1-0.1h0.4c0.1,0,0.1,0,0.1,0.1v2c0,0,0,0,0,0h0.4
			C375.2,236.8,375.3,236.9,375.3,236.9z"/>
		<path class="st4" d="M382.2,231.9c0.3,0.4,0.5,1,0.5,1.7c0,0.7-0.2,1.2-0.5,1.6c-0.3,0.4-0.8,0.6-1.3,0.6h-1.3c0,0,0,0,0,0v3.7
			c0,0.1,0,0.1-0.1,0.1H379c-0.1,0-0.1,0-0.1-0.1v-8.2c0-0.1,0-0.1,0.1-0.1h1.9C381.4,231.3,381.9,231.5,382.2,231.9z M381.8,234.8
			c0.2-0.3,0.4-0.7,0.4-1.2c0-0.5-0.1-0.9-0.4-1.2c-0.2-0.3-0.6-0.5-0.9-0.5h-1.2c0,0,0,0,0,0v3.3c0,0,0,0,0,0h1.2
			C381.2,235.3,381.5,235.2,381.8,234.8z"/>
		<path class="st4" d="M384.1,239.6v-8.2c0-0.1,0-0.1,0.1-0.1h0.4c0.1,0,0.1,0,0.1,0.1l1.4,3.5c0,0,0,0,0,0c0,0,0,0,0,0l1.4-3.5
			c0-0.1,0.1-0.1,0.1-0.1h0.4c0.1,0,0.1,0,0.1,0.1v8.2c0,0.1,0,0.1-0.1,0.1h-0.4c-0.1,0-0.1,0-0.1-0.1V233c0,0,0,0,0,0c0,0,0,0,0,0
			l-1.3,3.1c0,0.1-0.1,0.1-0.1,0.1c-0.1,0-0.1,0-0.1-0.1l-1.3-3.1c0,0,0,0,0,0c0,0,0,0,0,0v6.7c0,0.1,0,0.1-0.1,0.1h-0.4
			C384.2,239.7,384.1,239.7,384.1,239.6z"/>
	</g>
	<g>
		<path class="st4" d="M425.3,237.2c0,0.3,0,0.6-0.1,0.9c-0.1,0.6-0.3,1-0.6,1.3c-0.3,0.3-0.7,0.4-1.2,0.4c-0.5,0-0.8-0.1-1.1-0.4
			c-0.3-0.3-0.5-0.7-0.6-1.2c-0.1-0.3-0.1-0.6-0.1-1l0-3.9c0-0.6,0.2-1.1,0.5-1.5c0.3-0.4,0.8-0.6,1.3-0.6c0.5,0,0.9,0.2,1.2,0.6
			c0.3,0.4,0.5,0.9,0.5,1.5v0.1c0,0.1,0,0.1-0.1,0.1h-0.4c-0.1,0-0.1,0-0.1-0.1v-0.1c0-0.4-0.1-0.8-0.3-1c-0.2-0.3-0.5-0.4-0.8-0.4
			c-0.4,0-0.6,0.1-0.9,0.4c-0.2,0.3-0.3,0.6-0.3,1v1.8c0,0,0,0,0,0s0,0,0,0c0.1-0.2,0.3-0.4,0.5-0.5c0.2-0.1,0.4-0.2,0.7-0.2
			c0.4,0,0.8,0.1,1.1,0.4s0.5,0.6,0.6,1.1C425.3,236.3,425.3,236.7,425.3,237.2z M424.7,237.2c0-0.4,0-0.7-0.1-1.1
			c-0.2-0.6-0.5-1-1.1-1c-0.6,0-0.9,0.3-1.1,1c-0.1,0.3-0.1,0.6-0.1,1.1c0,0.4,0,0.7,0.1,1c0.1,0.8,0.5,1.1,1.1,1.1
			c0.6,0,1-0.4,1.1-1.2C424.7,237.7,424.7,237.4,424.7,237.2z"/>
		<path class="st4" d="M432.5,231.9c0.3,0.4,0.5,1,0.5,1.7c0,0.7-0.2,1.2-0.5,1.6s-0.8,0.6-1.3,0.6h-1.3c0,0,0,0,0,0v3.7
			c0,0.1,0,0.1-0.1,0.1h-0.4c-0.1,0-0.1,0-0.1-0.1v-8.2c0-0.1,0-0.1,0.1-0.1h1.9C431.7,231.3,432.1,231.5,432.5,231.9z M432,234.8
			c0.2-0.3,0.4-0.7,0.4-1.2c0-0.5-0.1-0.9-0.4-1.2c-0.2-0.3-0.6-0.5-0.9-0.5h-1.2c0,0,0,0,0,0v3.3c0,0,0,0,0,0h1.2
			C431.4,235.3,431.8,235.2,432,234.8z"/>
		<path class="st4" d="M434.4,239.6v-8.2c0-0.1,0-0.1,0.1-0.1h0.4c0.1,0,0.1,0,0.1,0.1l1.4,3.5c0,0,0,0,0,0c0,0,0,0,0,0l1.4-3.5
			c0-0.1,0.1-0.1,0.1-0.1h0.4c0.1,0,0.1,0,0.1,0.1v8.2c0,0.1,0,0.1-0.1,0.1h-0.4c-0.1,0-0.1,0-0.1-0.1V233c0,0,0,0,0,0c0,0,0,0,0,0
			l-1.3,3.1c0,0.1-0.1,0.1-0.1,0.1c-0.1,0-0.1,0-0.1-0.1l-1.3-3.1c0,0,0,0,0,0s0,0,0,0v6.7c0,0.1,0,0.1-0.1,0.1h-0.4
			C434.4,239.7,434.4,239.7,434.4,239.6z"/>
	</g>
	<line class="st5" x1="380.2" y1="220.4" x2="380.2" y2="225.4"/>
	<g>
		<path class="st4" d="M474.6,235.3c0.3,0.1,0.5,0.4,0.6,0.7c0.2,0.4,0.3,0.9,0.3,1.4c0,0.4-0.1,0.8-0.2,1.2
			c-0.1,0.4-0.3,0.7-0.6,0.9c-0.3,0.2-0.6,0.3-1,0.3c-0.4,0-0.7-0.1-1-0.3c-0.3-0.2-0.5-0.5-0.6-0.9c-0.1-0.4-0.2-0.7-0.2-1.2
			c0-0.5,0.1-1,0.2-1.3c0.1-0.4,0.4-0.6,0.7-0.8c0,0,0,0,0-0.1c-0.3-0.1-0.5-0.3-0.6-0.6c-0.2-0.3-0.3-0.8-0.3-1.3
			c0-0.5,0.1-0.9,0.3-1.2c0.1-0.3,0.3-0.5,0.6-0.6c0.3-0.1,0.6-0.2,0.9-0.2c0.3,0,0.6,0.1,0.9,0.2s0.5,0.4,0.6,0.6
			c0.2,0.3,0.3,0.8,0.3,1.3c0,0.5-0.1,0.9-0.3,1.2C475.1,234.9,474.9,235.1,474.6,235.3C474.6,235.2,474.6,235.3,474.6,235.3z
			 M472.7,234.4c0.2,0.4,0.5,0.6,1,0.6c0.2,0,0.4-0.1,0.6-0.2s0.3-0.3,0.4-0.5c0.1-0.3,0.2-0.6,0.2-1c0-0.4-0.1-0.8-0.2-1
			c-0.1-0.2-0.2-0.3-0.4-0.4s-0.4-0.2-0.6-0.2c-0.4,0-0.8,0.2-1,0.6c-0.1,0.3-0.2,0.6-0.2,1C472.5,233.8,472.6,234.1,472.7,234.4z
			 M474.9,237.4c0-0.5-0.1-0.8-0.2-1.1c-0.2-0.5-0.5-0.7-1-0.7c-0.2,0-0.4,0.1-0.6,0.2c-0.2,0.1-0.3,0.3-0.4,0.6
			c-0.1,0.3-0.2,0.7-0.2,1.1c0,0.4,0,0.7,0.1,1c0.1,0.3,0.2,0.5,0.4,0.7c0.2,0.2,0.4,0.2,0.6,0.2c0.3,0,0.5-0.1,0.7-0.3
			c0.2-0.2,0.3-0.4,0.4-0.7C474.9,238,474.9,237.7,474.9,237.4z"/>
		<path class="st4" d="M482.9,231.9c0.3,0.4,0.5,1,0.5,1.7c0,0.7-0.2,1.2-0.5,1.6s-0.8,0.6-1.3,0.6h-1.3c0,0,0,0,0,0v3.7
			c0,0.1,0,0.1-0.1,0.1h-0.4c-0.1,0-0.1,0-0.1-0.1v-8.2c0-0.1,0-0.1,0.1-0.1h1.9C482.1,231.3,482.6,231.5,482.9,231.9z M482.4,234.8
			c0.2-0.3,0.4-0.7,0.4-1.2c0-0.5-0.1-0.9-0.4-1.2c-0.2-0.3-0.6-0.5-0.9-0.5h-1.2c0,0,0,0,0,0v3.3c0,0,0,0,0,0h1.2
			C481.9,235.3,482.2,235.2,482.4,234.8z"/>
		<path class="st4" d="M484.8,239.6v-8.2c0-0.1,0-0.1,0.1-0.1h0.4c0.1,0,0.1,0,0.1,0.1l1.4,3.5c0,0,0,0,0,0c0,0,0,0,0,0l1.4-3.5
			c0-0.1,0.1-0.1,0.1-0.1h0.4c0.1,0,0.1,0,0.1,0.1v8.2c0,0.1,0,0.1-0.1,0.1h-0.4c-0.1,0-0.1,0-0.1-0.1V233c0,0,0,0,0,0c0,0,0,0,0,0
			l-1.3,3.1c0,0.1-0.1,0.1-0.1,0.1c-0.1,0-0.1,0-0.1-0.1l-1.3-3.1c0,0,0,0,0,0s0,0,0,0v6.7c0,0.1,0,0.1-0.1,0.1h-0.4
			C484.8,239.7,484.8,239.7,484.8,239.6z"/>
	</g>
	<line class="st5" x1="430.1" y1="220.4" x2="430.1" y2="225.4"/>
	<g>
		<path class="st4" d="M521.2,231.3h0.4c0.1,0,0.1,0,0.1,0.1v8.2c0,0.1,0,0.1-0.1,0.1h-0.4c-0.1,0-0.1,0-0.1-0.1v-7.5c0,0,0,0,0,0
			c0,0,0,0,0,0l-1,0.5l-0.1,0c0,0,0,0-0.1,0c0,0,0,0,0-0.1v-0.3c0-0.1,0-0.1,0.1-0.1l1.1-0.7C521.1,231.4,521.1,231.3,521.2,231.3z"
			/>
		<path class="st4" d="M523.5,239.3c-0.4-0.4-0.5-0.9-0.5-1.5v-4.5c0-0.6,0.2-1.1,0.5-1.5c0.4-0.4,0.8-0.6,1.4-0.6
			c0.6,0,1.1,0.2,1.4,0.6s0.5,0.9,0.5,1.5v4.5c0,0.6-0.2,1.1-0.5,1.5c-0.4,0.4-0.8,0.6-1.4,0.6C524.3,239.9,523.8,239.7,523.5,239.3
			z M525.9,238.9c0.2-0.3,0.4-0.6,0.4-1.1v-4.6c0-0.4-0.1-0.8-0.4-1.1s-0.6-0.4-1-0.4c-0.4,0-0.7,0.1-0.9,0.4s-0.4,0.6-0.4,1.1v4.6
			c0,0.4,0.1,0.8,0.4,1.1s0.6,0.4,0.9,0.4C525.3,239.3,525.6,239.1,525.9,238.9z"/>
		<path class="st4" d="M534,231.9c0.3,0.4,0.5,1,0.5,1.7c0,0.7-0.2,1.2-0.5,1.6c-0.3,0.4-0.8,0.6-1.3,0.6h-1.3c0,0,0,0,0,0v3.7
			c0,0.1,0,0.1-0.1,0.1h-0.4c-0.1,0-0.1,0-0.1-0.1v-8.2c0-0.1,0-0.1,0.1-0.1h1.9C533.2,231.3,533.7,231.5,534,231.9z M533.5,234.8
			c0.2-0.3,0.4-0.7,0.4-1.2c0-0.5-0.1-0.9-0.4-1.2c-0.2-0.3-0.6-0.5-0.9-0.5h-1.2c0,0,0,0,0,0v3.3c0,0,0,0,0,0h1.2
			C533,235.3,533.3,235.2,533.5,234.8z"/>
		<path class="st4" d="M535.9,239.6v-8.2c0-0.1,0-0.1,0.1-0.1h0.4c0.1,0,0.1,0,0.1,0.1l1.4,3.5c0,0,0,0,0,0c0,0,0,0,0,0l1.4-3.5
			c0-0.1,0.1-0.1,0.1-0.1h0.4c0.1,0,0.1,0,0.1,0.1v8.2c0,0.1,0,0.1-0.1,0.1h-0.4c-0.1,0-0.1,0-0.1-0.1V233c0,0,0,0,0,0c0,0,0,0,0,0
			l-1.3,3.1c0,0.1-0.1,0.1-0.1,0.1c-0.1,0-0.1,0-0.1-0.1l-1.3-3.1c0,0,0,0,0,0c0,0,0,0,0,0v6.7c0,0.1,0,0.1-0.1,0.1H536
			C535.9,239.7,535.9,239.7,535.9,239.6z"/>
	</g>
	<line class="st5" x1="530.5" y1="220.4" x2="530.5" y2="225.4"/>
	<line class="st5" x1="480.3" y1="220.4" x2="480.3" y2="225.4"/>
</g>
</svg>
