<?xml version="1.0" encoding="utf-8"?>
<!-- Generator: Adobe Illustrator 22.1.0, SVG Export Plug-In . SVG Version: 6.00 Build 0)  -->
<svg version="1.1" xmlns="http://www.w3.org/2000/svg" xmlns:xlink="http://www.w3.org/1999/xlink" x="0px" y="0px"
	 viewBox="0 0 369.9 373.4" style="enable-background:new 0 0 369.9 373.4;" xml:space="preserve">
<style type="text/css">
	.st0{display:none;}
	.st1{display:inline;fill:#FFFFFF;}
	.st2{fill:#F5F3F2;}
	.st3{fill:#E0DAD6;}
	.st4{fill:url(#SVGID_1_);}
	.st5{fill:#FFFFFF;}
	.st6{fill:#636764;}
	.st7{opacity:0.7;}
	.st8{opacity:0.5;}
	.st9{opacity:0.5;fill:#FFFFFF;}
	.st10{enable-background:new    ;}
	.st11{clip-path:url(#SVGID_3_);enable-background:new    ;}
	.st12{fill:#41494D;}
	.st13{clip-path:url(#SVGID_5_);enable-background:new    ;}
	.st14{clip-path:url(#SVGID_7_);enable-background:new    ;}
	.st15{fill:#464E53;}
	.st16{fill:#485156;}
	.st17{fill:#4B5459;}
	.st18{fill:#4E575C;}
	.st19{fill:#505A5F;}
	.st20{fill:url(#SVGID_8_);}
	.st21{clip-path:url(#SVGID_10_);enable-background:new    ;}
	.st22{fill:#A6B1B7;}
	.st23{fill:#A3AEB4;}
	.st24{fill:#A0ABB1;}
	.st25{fill:#9CA8AE;}
	.st26{fill:#98A4AB;}
	.st27{fill:#93A0A7;}
	.st28{fill:#8D9AA2;}
	.st29{fill:#7D8C95;}
	.st30{fill:#7B8992;}
	.st31{fill:#78868F;}
	.st32{fill:#76848C;}
	.st33{fill:#738189;}
	.st34{fill:#717E86;}
	.st35{fill:#6E7B83;}
	.st36{fill:#6C7880;}
	.st37{fill:#69767D;}
	.st38{fill:#67737A;}
	.st39{fill:#647077;}
	.st40{fill:#616D74;}
	.st41{fill:#5F6A71;}
	.st42{fill:#5D686E;}
	.st43{fill:#5A656B;}
	.st44{fill:#586268;}
	.st45{fill:#555F65;}
	.st46{fill:#525C62;}
	.st47{fill:#434C50;}
	.st48{fill:#A9B3B9;}
	.st49{fill:#ACB5BB;}
	.st50{fill:#AEB8BD;}
	.st51{fill:#B1BABF;}
	.st52{fill:#B3BCC1;}
	.st53{fill:#B5BEC3;}
	.st54{fill:#B7C0C5;}
	.st55{fill:#B9C1C6;}
	.st56{fill:#BBC3C8;}
	.st57{fill:#BDC5C9;}
	.st58{fill:#BFC7CB;}
	.st59{fill:#C1C8CC;}
	.st60{fill:#C3CACE;}
	.st61{fill:#C4CBCF;}
</style>
<g class="st0">
	<path class="st1" d="M82.5,209.5h-9.3c-6,0-10.9-4.9-10.9-10.9v-28c0-6,4.9-10.9,10.9-10.9h9.3c6,0,10.9,4.9,10.9,10.9v28
		C93.4,204.6,88.5,209.5,82.5,209.5z M87.2,170.6c0-2.6-2.1-4.7-4.7-4.7h-9.3c-2.6,0-4.7,2.1-4.7,4.7v28c0,2.6,2.1,4.7,4.7,4.7h9.3
		c2.6,0,4.7-2.1,4.7-4.7V170.6z"/>
	<path class="st1" d="M127.6,209.5h-18.7c-1.7,0-3.1-1.4-3.1-3.1c0-1.7,1.4-3.1,3.1-3.1h6.2v-37.3h-4.7c-1.7,0-3.1-1.4-3.1-3.1
		c0-1.7,1.4-3.1,3.1-3.1h7.8c1.7,0,3.1,1.4,3.1,3.1v40.4h6.2c1.7,0,3.1,1.4,3.1,3.1C130.7,208.1,129.3,209.5,127.6,209.5z"/>
	<path class="st1" d="M171.2,209.5h-24.9c-1.2,0-2.3-0.7-2.8-1.8c-0.5-1.1-0.4-2.4,0.4-3.3l22.9-27.1c0.6-0.8,1.2-2.5,1.2-3.5v-3.1
		c0-2.6-2.1-4.7-4.7-4.7H154c-2.6,0-4.7,2.1-4.7,4.7v1.6c0,1.7-1.4,3.1-3.1,3.1c-1.7,0-3.1-1.4-3.1-3.1v-1.6c0-6,4.9-10.9,10.9-10.9
		h9.3c6,0,10.9,4.9,10.9,10.9v3.1c0,2.5-1.2,5.6-2.7,7.5L153,203.2h18.2c1.7,0,3.1,1.4,3.1,3.1C174.3,208.1,172.9,209.5,171.2,209.5
		z"/>
	<path class="st1" d="M205.4,209.5h-12.4c-5.1,0-9.3-4.2-9.3-9.3c0-1.7,1.4-3.1,3.1-3.1c1.7,0,3.1,1.4,3.1,3.1
		c0,1.7,1.4,3.1,3.1,3.1h12.4c1.7,0,3.1-1.4,3.1-3.1v-12.4c0-1.7-1.4-3.1-3.1-3.1c-9.5,0-9.6,0-9.6,0c-0.6,0-1.2-0.3-1.8-0.7
		c-1.3-1.1-1.5-3.1-0.4-4.4l11.4-13.5h-15.2v1.6c0,1.7-1.4,3.1-3.1,3.1c-1.7,0-3.1-1.4-3.1-3.1v-4.7c0-1.7,1.4-3.1,3.1-3.1h24.9
		c1.2,0,2.3,0.7,2.8,1.8c0.5,1.1,0.4,2.4-0.4,3.3l-11.4,13.5h2.7c5.1,0,9.3,4.2,9.3,9.3v12.4C214.7,205.3,210.5,209.5,205.4,209.5z"
		/>
	<path class="st1" d="M252,200.1h-3.1v6.2c0,1.7-1.4,3.1-3.1,3.1c-1.7,0-3.1-1.4-3.1-3.1v-6.2h-15.6c-1.7,0-3.1-1.4-3.1-3.1v-6.2
		c0-0.5,0.1-0.9,0.2-1.2l12.4-28c0.7-1.6,2.6-2.3,4.1-1.6c1.6,0.7,2.3,2.6,1.6,4.1l-12.2,27.4v2.5h12.4v-21.8c0-1.7,1.4-3.1,3.1-3.1
		c1.7,0,3.1,1.4,3.1,3.1v21.8h3.1c1.7,0,3.1,1.4,3.1,3.1C255.1,198.7,253.7,200.1,252,200.1z"/>
</g>
<g>
	<g>
		<g>
			
				<ellipse transform="matrix(0.7071 -0.7071 0.7071 0.7071 -77.6707 185.7237)" class="st2" cx="185.4" cy="186.6" rx="166.2" ry="166.2"/>
			
				<ellipse transform="matrix(0.7071 -0.7071 0.7071 0.7071 -77.6707 185.7237)" class="st3" cx="185.4" cy="186.6" rx="148.6" ry="148.6"/>
			
				<radialGradient id="SVGID_1_" cx="185.0376" cy="243.9046" r="200.8386" gradientTransform="matrix(0.9445 0 0 0.9445 10.0776 10.281)" gradientUnits="userSpaceOnUse">
				<stop  offset="0" style="stop-color:#009FE8"/>
				<stop  offset="1" style="stop-color:#2C6DA9"/>
			</radialGradient>
			<circle class="st4" cx="185.4" cy="186.6" r="140.4"/>
			<path class="st5" d="M74.9,273.3C100.6,306,140.5,327,185.4,327c44.8,0,84.8-21,110.5-53.8H74.9z"/>
			<g>
				<rect x="106.4" y="281.9" class="st6" width="2.2" height="18.2"/>
				<rect x="132.9" y="281.9" class="st6" width="2.2" height="18.2"/>
				<rect x="140.4" y="281.9" class="st6" width="2.2" height="18.2"/>
				<rect x="149.1" y="281.9" class="st6" width="2.2" height="18.2"/>
				<rect x="174.5" y="281.9" class="st6" width="2.2" height="18.2"/>
				<rect x="110.5" y="281.9" class="st6" width="1.3" height="18.2"/>
				<rect x="126.8" y="281.9" class="st6" width="1.3" height="18.2"/>
				<rect x="130.6" y="281.9" class="st6" width="1.3" height="18.2"/>
				<rect x="136.2" y="281.9" class="st6" width="1" height="18.2"/>
				<rect x="181.4" y="281.9" class="st6" width="2.2" height="18.2"/>
				<rect x="179.1" y="281.9" class="st6" width="1.3" height="18.2"/>
				<rect x="184.7" y="281.9" class="st6" width="1" height="18.2"/>
				<rect x="117.2" y="281.9" class="st6" width="0.7" height="18.2"/>
				<rect x="138.3" y="281.9" class="st6" width="0.7" height="18.2"/>
				<rect x="145.9" y="281.9" class="st6" width="0.7" height="18.2"/>
				<rect x="147.5" y="281.9" class="st6" width="0.7" height="18.2"/>
				<rect x="166.4" y="281.9" class="st6" width="2.2" height="18.2"/>
				<rect x="163.2" y="281.9" class="st6" width="0.7" height="18.2"/>
				<rect x="164.9" y="281.9" class="st6" width="0.7" height="18.2"/>
				<rect x="152.6" y="281.9" class="st6" width="0.7" height="18.2"/>
				<rect x="124.3" y="281.9" class="st6" width="0.7" height="18.2"/>
				<rect x="113" y="281.9" class="st6" width="2" height="18.2"/>
				<rect x="121.7" y="281.9" class="st6" width="2" height="18.2"/>
				<rect x="213.8" y="281.9" class="st6" width="1.3" height="18.2"/>
				<rect x="211.3" y="281.9" class="st6" width="0.7" height="18.2"/>
				<rect x="208.6" y="281.9" class="st6" width="2" height="18.2"/>
				<rect x="173" y="281.9" class="st6" width="0.7" height="18.2"/>
				<rect x="170.3" y="281.9" class="st6" width="2" height="18.2"/>
				<rect x="192.1" y="281.9" class="st6" width="0.7" height="18.2"/>
				<rect x="189.5" y="281.9" class="st6" width="2" height="18.2"/>
				<rect x="159.4" y="281.9" class="st6" width="1.3" height="18.2"/>
				<rect x="204.7" y="281.9" class="st6" width="1.3" height="18.2"/>
				<rect x="156.9" y="281.9" class="st6" width="0.7" height="18.2"/>
				<rect x="186.8" y="281.9" class="st6" width="0.7" height="18.2"/>
				<rect x="206.5" y="281.9" class="st6" width="0.7" height="18.2"/>
				<rect x="154.2" y="281.9" class="st6" width="2" height="18.2"/>
				<rect x="219.3" y="281.9" class="st6" width="2.2" height="18.2"/>
				<rect x="226.8" y="281.9" class="st6" width="2.2" height="18.2"/>
				<rect x="235.5" y="281.9" class="st6" width="2.2" height="18.2"/>
				<rect x="260.9" y="281.9" class="st6" width="2.2" height="18.2"/>
				<rect x="217" y="281.9" class="st6" width="1.3" height="18.2"/>
				<rect x="222.6" y="281.9" class="st6" width="1" height="18.2"/>
				<rect x="224.7" y="281.9" class="st6" width="0.7" height="18.2"/>
				<rect x="232.2" y="281.9" class="st6" width="0.7" height="18.2"/>
				<rect x="233.9" y="281.9" class="st6" width="0.7" height="18.2"/>
				<rect x="252.8" y="281.9" class="st6" width="2.2" height="18.2"/>
				<rect x="249.6" y="281.9" class="st6" width="0.7" height="18.2"/>
				<rect x="251.2" y="281.9" class="st6" width="0.7" height="18.2"/>
				<rect x="239" y="281.9" class="st6" width="0.7" height="18.2"/>
				<rect x="259.4" y="281.9" class="st6" width="0.7" height="18.2"/>
				<rect x="256.7" y="281.9" class="st6" width="2" height="18.2"/>
				<rect x="245.8" y="281.9" class="st6" width="1.3" height="18.2"/>
				<rect x="243.3" y="281.9" class="st6" width="0.7" height="18.2"/>
				<rect x="240.6" y="281.9" class="st6" width="2" height="18.2"/>
				<rect x="196.4" y="281.9" class="st6" width="2.2" height="18.2"/>
				<rect x="194.9" y="281.9" class="st6" width="0.7" height="18.2"/>
				<rect x="199.9" y="281.9" class="st6" width="0.7" height="18.2"/>
				<rect x="201.6" y="281.9" class="st6" width="2" height="18.2"/>
			</g>
			<g>
				<path class="st6" d="M160.9,309.7c0,2.2-0.8,3.5-2.3,3.5c-1.3,0-2.2-1.2-2.2-3.4c0-2.2,0.9-3.4,2.3-3.4
					C160.1,306.4,160.9,307.6,160.9,309.7z M157.3,309.8c0,1.7,0.5,2.7,1.3,2.7c0.9,0,1.3-1.1,1.3-2.7c0-1.6-0.4-2.7-1.3-2.7
					C157.9,307.1,157.3,308,157.3,309.8z"/>
				<path class="st6" d="M163.6,307.3L163.6,307.3l-1.2,0.6l-0.2-0.7l1.4-0.8h0.8v6.6h-0.9V307.3z"/>
				<path class="st6" d="M166.9,313.1v-0.5l0.7-0.7c1.7-1.6,2.4-2.4,2.4-3.4c0-0.7-0.3-1.3-1.3-1.3c-0.6,0-1.1,0.3-1.4,0.6l-0.3-0.6
					c0.5-0.4,1.1-0.7,1.9-0.7c1.4,0,2,1,2,1.9c0,1.2-0.9,2.2-2.3,3.5l-0.5,0.5v0h2.9v0.7H166.9z"/>
				<path class="st6" d="M172.3,312c0.3,0.2,0.8,0.4,1.5,0.4c1.1,0,1.5-0.7,1.5-1.3c0-0.9-0.8-1.3-1.7-1.3H173v-0.7h0.5
					c0.6,0,1.5-0.3,1.5-1.1c0-0.5-0.3-1-1.2-1c-0.5,0-1,0.2-1.3,0.4l-0.2-0.6c0.3-0.3,1-0.5,1.7-0.5c1.3,0,1.9,0.8,1.9,1.6
					c0,0.7-0.4,1.3-1.2,1.5v0c0.8,0.2,1.5,0.8,1.5,1.7c0,1-0.8,2-2.4,2c-0.7,0-1.4-0.2-1.7-0.4L172.3,312z"/>
				<path class="st6" d="M180,313.1v-1.8h-3v-0.6l2.9-4.2h1v4.1h0.9v0.7h-0.9v1.8H180z M180,310.6v-2.2c0-0.3,0-0.7,0-1h0
					c-0.2,0.4-0.4,0.7-0.5,1l-1.6,2.2v0H180z"/>
				<path class="st6" d="M186.4,307.2h-2.5l-0.3,1.7c0.1,0,0.3,0,0.5,0c0.5,0,1,0.1,1.4,0.4c0.5,0.3,0.9,0.9,0.9,1.7
					c0,1.3-1,2.2-2.4,2.2c-0.7,0-1.3-0.2-1.6-0.4l0.2-0.7c0.3,0.2,0.8,0.4,1.4,0.4c0.8,0,1.6-0.5,1.6-1.4c0-0.9-0.6-1.5-1.9-1.5
					c-0.4,0-0.7,0-0.9,0.1l0.4-3.1h3.1V307.2z"/>
				<path class="st6" d="M191.4,307.1c-0.2,0-0.4,0-0.7,0c-1.4,0.2-2.1,1.3-2.3,2.3h0c0.3-0.4,0.9-0.8,1.6-0.8c1.2,0,2,0.8,2,2.1
					c0,1.2-0.8,2.3-2.2,2.3c-1.4,0-2.3-1.1-2.3-2.8c0-1.3,0.5-2.3,1.1-3c0.5-0.5,1.3-0.9,2.1-1c0.3,0,0.5,0,0.6,0V307.1z
					 M191.1,310.9c0-0.9-0.5-1.5-1.4-1.5c-0.5,0-1,0.3-1.3,0.8c-0.1,0.1-0.1,0.2-0.1,0.4c0,1.1,0.5,1.9,1.4,1.9
					C190.6,312.5,191.1,311.8,191.1,310.9z"/>
				<path class="st6" d="M197.1,306.5v0.6l-2.9,6h-0.9l2.8-5.8v0h-3.2v-0.7H197.1z"/>
				<path class="st6" d="M197.9,311.4c0-0.8,0.5-1.4,1.3-1.8l0,0c-0.7-0.3-1-0.9-1-1.5c0-1,0.9-1.7,2-1.7c1.3,0,1.9,0.8,1.9,1.6
					c0,0.6-0.3,1.2-1.1,1.5v0c0.8,0.3,1.3,0.9,1.3,1.7c0,1.1-1,1.9-2.2,1.9C198.7,313.2,197.9,312.4,197.9,311.4z M201.4,311.3
					c0-0.8-0.6-1.2-1.4-1.4c-0.8,0.2-1.2,0.7-1.2,1.4c0,0.7,0.5,1.3,1.3,1.3C200.9,312.5,201.4,312,201.4,311.3z M199,308.1
					c0,0.7,0.5,1,1.2,1.2c0.6-0.2,1-0.6,1-1.2c0-0.5-0.3-1.1-1.1-1.1C199.4,307,199,307.5,199,308.1z"/>
				<path class="st6" d="M203.7,312.4c0.2,0,0.4,0,0.7,0c0.5-0.1,1-0.3,1.4-0.6c0.4-0.4,0.7-1,0.9-1.7h0c-0.4,0.4-0.9,0.7-1.5,0.7
					c-1.2,0-1.9-0.9-1.9-2c0-1.2,0.9-2.3,2.2-2.3c1.3,0,2.2,1.1,2.2,2.8c0,1.4-0.5,2.5-1.1,3.1c-0.5,0.5-1.2,0.8-1.9,0.9
					c-0.3,0-0.6,0.1-0.8,0V312.4z M204,308.7c0,0.8,0.5,1.4,1.3,1.4c0.6,0,1.1-0.3,1.3-0.7c0.1-0.1,0.1-0.2,0.1-0.3
					c0-1.1-0.4-2-1.3-2C204.5,307.1,204,307.7,204,308.7z"/>
			</g>
		</g>
	</g>
	<g class="st7">
		<g>
			<path class="st5" d="M125.7,103.5h-4.5c0-8.4,6.8-15.3,15.3-15.3v4.5C130.5,92.8,125.7,97.6,125.7,103.5L125.7,103.5z"/>
			<path class="st5" d="M118.4,103.5h-4.5c0-12.5,10.1-22.6,22.6-22.6v4.5C126.4,85.5,118.4,93.6,118.4,103.5L118.4,103.5z"/>
			<path class="st5" d="M111,103.5h-4.5c0-16.5,13.4-29.9,29.9-29.9v4.5C122.4,78.2,111,89.5,111,103.5L111,103.5z"/>
		</g>
		<path class="st5" d="M136.6,100.2c0,1.9-1.5,3.4-3.4,3.4c-1.9,0-3.4-1.5-3.4-3.4c0-1.9,1.5-3.4,3.4-3.4
			C135.1,96.7,136.6,98.3,136.6,100.2z"/>
	</g>
	<g class="st7">
		<path class="st5" d="M146.2,100.9c0.9,0.5,2.2,1,3.5,1c2,0,3.2-1.1,3.2-2.6c0-1.4-0.8-2.2-2.9-3c-2.5-0.9-4-2.2-4-4.3
			c0-2.4,2-4.1,4.9-4.1c1.6,0,2.7,0.4,3.4,0.7l-0.5,1.6c-0.5-0.3-1.5-0.7-2.9-0.7c-2.1,0-2.9,1.2-2.9,2.3c0,1.4,0.9,2.1,3,2.9
			c2.6,1,3.9,2.2,3.9,4.5c0,2.3-1.7,4.4-5.3,4.4c-1.5,0-3.1-0.4-3.9-1L146.2,100.9z"/>
		<path class="st5" d="M157.5,95.3c0-1.1,0-2.1-0.1-3h1.7l0.1,1.8h0.1c0.6-1,1.6-2,3.4-2c1.5,0,2.6,0.9,3.1,2.2h0
			c0.3-0.6,0.8-1.1,1.2-1.4c0.7-0.5,1.4-0.8,2.4-0.8c1.4,0,3.6,0.9,3.6,4.7v6.4h-1.9v-6.2c0-2.1-0.8-3.4-2.4-3.4
			c-1.1,0-2,0.8-2.3,1.8c-0.1,0.3-0.2,0.6-0.2,1v6.7h-1.9v-6.5c0-1.7-0.8-3-2.3-3c-1.2,0-2.1,1-2.5,2c-0.1,0.3-0.2,0.6-0.2,1v6.6
			h-1.9V95.3z"/>
		<path class="st5" d="M182.4,103.3l-0.2-1.4h-0.1c-0.6,0.9-1.8,1.6-3.3,1.6c-2.2,0-3.3-1.6-3.3-3.1c0-2.6,2.3-4.1,6.6-4.1v-0.2
			c0-0.9-0.2-2.5-2.5-2.5c-1,0-2.1,0.3-2.8,0.8l-0.5-1.3c0.9-0.6,2.2-1,3.6-1c3.3,0,4.1,2.3,4.1,4.5v4.1c0,0.9,0,1.9,0.2,2.6H182.4z
			 M182.1,97.7c-2.2,0-4.6,0.3-4.6,2.5c0,1.3,0.9,1.9,1.9,1.9c1.4,0,2.3-0.9,2.6-1.8c0.1-0.2,0.1-0.4,0.1-0.6V97.7z"/>
		<path class="st5" d="M187.2,95.8c0-1.3,0-2.4-0.1-3.4h1.7l0.1,2.1h0.1c0.5-1.5,1.7-2.4,3-2.4c0.2,0,0.4,0,0.6,0.1v1.9
			c-0.2,0-0.4-0.1-0.7-0.1c-1.4,0-2.4,1.1-2.7,2.5c0,0.3-0.1,0.6-0.1,0.9v5.8h-2V95.8z"/>
		<path class="st5" d="M196.9,89.2v3.1h2.8v1.5h-2.8v5.9c0,1.4,0.4,2.1,1.5,2.1c0.5,0,0.9-0.1,1.1-0.1l0.1,1.5
			c-0.4,0.2-1,0.3-1.8,0.3c-0.9,0-1.7-0.3-2.1-0.8c-0.6-0.6-0.8-1.6-0.8-2.8v-5.9h-1.7v-1.5h1.7v-2.6L196.9,89.2z"/>
		<path class="st5" d="M219.6,96.6c-0.1-2.1-0.2-4.7-0.2-6.6h-0.1c-0.5,1.8-1.1,3.7-1.9,5.8l-2.7,7.4h-1.5l-2.5-7.2
			c-0.7-2.1-1.3-4.1-1.8-5.9h0c0,1.9-0.2,4.4-0.3,6.7l-0.4,6.5h-1.9l1.1-15.2l2.5,0l2.6,7.3c0.6,1.9,1.2,3.5,1.5,5.1h0.1
			c0.4-1.5,0.9-3.2,1.6-5.1l2.7-7.3h2.5l0.9,15.2H220L219.6,96.6z"/>
		<path class="st5" d="M226,98.2c0,2.7,1.8,3.8,3.7,3.8c1.4,0,2.3-0.2,3-0.6l0.3,1.4c-0.7,0.3-1.9,0.7-3.6,0.7
			c-3.4,0-5.4-2.2-5.4-5.5c0-3.3,1.9-5.9,5.1-5.9c3.6,0,4.5,3.1,4.5,5.1c0,0.4,0,0.7-0.1,0.9H226z M231.8,96.8
			c0-1.3-0.5-3.2-2.8-3.2c-2,0-2.9,1.9-3,3.2H231.8z"/>
		<path class="st5" d="M238.6,89.2v3.1h2.8v1.5h-2.8v5.9c0,1.4,0.4,2.1,1.5,2.1c0.5,0,0.9-0.1,1.2-0.1l0.1,1.5
			c-0.4,0.2-1,0.3-1.8,0.3c-0.9,0-1.7-0.3-2.1-0.8c-0.6-0.6-0.8-1.6-0.8-2.8v-5.9h-1.7v-1.5h1.7v-2.6L238.6,89.2z"/>
		<path class="st5" d="M244.7,98.2c0,2.7,1.8,3.8,3.7,3.8c1.4,0,2.3-0.2,3-0.6l0.3,1.4c-0.7,0.3-1.9,0.7-3.6,0.7
			c-3.4,0-5.4-2.2-5.4-5.5c0-3.3,1.9-5.9,5.1-5.9c3.6,0,4.5,3.1,4.5,5.1c0,0.4,0,0.7-0.1,0.9H244.7z M250.6,96.8
			c0-1.3-0.5-3.2-2.7-3.2c-2,0-2.9,1.9-3,3.2H250.6z"/>
		<path class="st5" d="M254.9,95.8c0-1.3,0-2.4-0.1-3.4h1.7l0.1,2.1h0.1c0.5-1.5,1.7-2.4,3-2.4c0.2,0,0.4,0,0.6,0.1v1.9
			c-0.2,0-0.4-0.1-0.7-0.1c-1.4,0-2.4,1.1-2.7,2.5c0,0.3-0.1,0.6-0.1,0.9v5.8h-2V95.8z"/>
	</g>
	<g>
		<path class="st5" d="M70.2,238.4h-3.8c-1.6,0-2.8-1.3-2.8-2.8c0-0.5,0.4-0.9,0.9-0.9c0.5,0,0.9,0.4,0.9,0.9c0,0.5,0.4,0.9,0.9,0.9
			h3.8c0.5,0,0.9-0.4,0.9-0.9v-3.8c0-0.5-0.4-0.9-0.9-0.9h-5.2c-0.5,0-0.9-0.4-0.9-0.9v-5.6c0-0.5,0.4-0.9,0.9-0.9h7.1
			c0.5,0,0.9,0.4,0.9,0.9c0,0.5-0.4,0.9-0.9,0.9H66v3.8h4.2c1.6,0,2.8,1.3,2.8,2.8v3.8C73.1,237.1,71.8,238.4,70.2,238.4z"/>
		<path class="st5" d="M82,238.4h-2.8c-1.8,0-3.3-1.5-3.3-3.3V228c0-2.6,1.9-4.7,4.2-4.7h3.3c0.5,0,0.9,0.4,0.9,0.9
			c0,0.5-0.4,0.9-0.9,0.9h-3.3c-1.3,0-2.4,1.3-2.4,2.8v1.3c0.4-0.2,0.9-0.3,1.4-0.3H82c1.8,0,3.3,1.5,3.3,3.3v2.8
			C85.3,236.9,83.8,238.4,82,238.4z M83.4,232.3c0-0.8-0.6-1.4-1.4-1.4h-2.8c-0.8,0-1.4,0.6-1.4,1.4v2.8c0,0.8,0.6,1.4,1.4,1.4H82
			c0.8,0,1.4-0.6,1.4-1.4V232.3z"/>
		<path class="st5" d="M97.1,227.4c0,0-1,0.8-2.2,2.2c-1.2,1.4-2.1,4.5-2.1,6.9v0.9c0,0.5-0.4,0.9-0.9,0.9c-0.5,0-0.9-0.4-0.9-0.9
			v-0.9c0-2.8,1.1-6.4,2.6-8.1c0.9-1.1,1.7-1.8,2.1-2.2v-1H90v0.9c0,0.5-0.4,0.9-0.9,0.9c-0.5,0-0.9-0.4-0.9-0.9v-1.9
			c0-0.5,0.4-0.9,0.9-0.9h7.5c0.5,0,0.9,0.4,0.9,0.9v2.4C97.5,226.9,97.4,227.2,97.1,227.4z"/>
		<path class="st5" d="M106.9,238.4h-3.8c-1.6,0-2.8-1.3-2.8-2.8v-3.3c0-0.9,0.4-1.7,1.2-2.3c-0.3-0.4-0.4-1-0.4-1.5v-2.4
			c0-1.6,1.3-2.8,2.8-2.8h2.4c1.6,0,2.8,1.3,2.8,2.8v2.4c0,0.5-0.2,1.1-0.4,1.5c0.7,0.5,1.2,1.3,1.2,2.3v3.3
			C109.7,237.1,108.5,238.4,106.9,238.4z M107.9,232.3c0-0.5-0.4-0.9-0.9-0.9h-3.8c-0.5,0-0.9,0.4-0.9,0.9v3.3
			c0,0.5,0.4,0.9,0.9,0.9h3.8c0.5,0,0.9-0.4,0.9-0.9V232.3z M107.1,226.2c0-0.5-0.4-0.9-0.9-0.9h-2.4c-0.5,0-0.9,0.4-0.9,0.9v2.4
			c0,0.5,0.4,0.9,0.9,0.9h2.4c0.5,0,0.9-0.4,0.9-0.9V226.2z"/>
		<path class="st5" d="M117.7,238.4h-3.3c-0.5,0-0.9-0.4-0.9-0.9c0-0.5,0.4-0.9,0.9-0.9h3.3c1.3,0,2.4-1.3,2.4-2.8v-1.3
			c-0.4,0.2-0.9,0.3-1.4,0.3h-2.8c-1.8,0-3.3-1.5-3.3-3.3v-2.8c0-1.8,1.5-3.3,3.3-3.3h2.8c1.8,0,3.3,1.5,3.3,3.3v7.1
			C122,236.3,120.1,238.4,117.7,238.4z M120.1,226.6c0-0.8-0.6-1.4-1.4-1.4h-2.8c-0.8,0-1.4,0.6-1.4,1.4v2.8c0,0.8,0.6,1.4,1.4,1.4
			h2.8c0.8,0,1.4-0.6,1.4-1.4V226.6z"/>
	</g>
	<g>
		<path class="st5" d="M223.5,136.9h-5.2c-0.5,0-0.9-0.4-0.9-0.9c0-0.5,0.4-0.9,0.9-0.9h1.7v-10.5h-1.3c-0.5,0-0.9-0.4-0.9-0.9
			c0-0.5,0.4-0.9,0.9-0.9h2.2c0.5,0,0.9,0.4,0.9,0.9v11.4h1.7c0.5,0,0.9,0.4,0.9,0.9C224.4,136.5,224,136.9,223.5,136.9z"/>
		<path class="st5" d="M235.8,136.9h-7c-0.3,0-0.7-0.2-0.8-0.5c-0.2-0.3-0.1-0.7,0.1-0.9l6.4-7.6c0.2-0.2,0.3-0.7,0.3-1V126
			c0-0.7-0.6-1.3-1.3-1.3H231c-0.7,0-1.3,0.6-1.3,1.3v0.4c0,0.5-0.4,0.9-0.9,0.9c-0.5,0-0.9-0.4-0.9-0.9V126c0-1.7,1.4-3.1,3.1-3.1
			h2.6c1.7,0,3.1,1.4,3.1,3.1v0.9c0,0.7-0.3,1.6-0.8,2.1l-5.2,6.2h5.1c0.5,0,0.9,0.4,0.9,0.9C236.6,136.5,236.2,136.9,235.8,136.9z"
			/>
		<path class="st5" d="M244.5,129.9h-1.7c-0.5,0-0.9-0.4-0.9-0.9v-0.9c0-0.5,0.4-0.9,0.9-0.9h1.7c0.5,0,0.9,0.4,0.9,0.9v0.9
			C245.4,129.5,245,129.9,244.5,129.9z M244.5,136.9h-1.7c-0.5,0-0.9-0.4-0.9-0.9v-0.9c0-0.5,0.4-0.9,0.9-0.9h1.7
			c0.5,0,0.9,0.4,0.9,0.9v0.9C245.4,136.5,245,136.9,244.5,136.9z"/>
		<path class="st5" d="M256.7,136.9h-3.5c-1.4,0-2.6-1.2-2.6-2.6c0-0.5,0.4-0.9,0.9-0.9c0.5,0,0.9,0.4,0.9,0.9
			c0,0.5,0.4,0.9,0.9,0.9h3.5c0.5,0,0.9-0.4,0.9-0.9v-3.5c0-0.5-0.4-0.9-0.9-0.9c-2.7,0-2.7,0-2.7,0c-0.2,0-0.3-0.1-0.5-0.2
			c-0.4-0.3-0.4-0.9-0.1-1.2l3.2-3.8h-4.3v0.4c0,0.5-0.4,0.9-0.9,0.9c-0.5,0-0.9-0.4-0.9-0.9v-1.3c0-0.5,0.4-0.9,0.9-0.9h7
			c0.3,0,0.7,0.2,0.8,0.5c0.2,0.3,0.1,0.7-0.1,0.9l-3.2,3.8h0.8c1.4,0,2.6,1.2,2.6,2.6v3.5C259.3,135.7,258.2,136.9,256.7,136.9z"/>
		<path class="st5" d="M269.8,134.3H269v1.7c0,0.5-0.4,0.9-0.9,0.9c-0.5,0-0.9-0.4-0.9-0.9v-1.7h-4.4c-0.5,0-0.9-0.4-0.9-0.9v-1.7
			c0-0.1,0-0.2,0.1-0.3l3.5-7.9c0.2-0.4,0.7-0.7,1.2-0.5c0.4,0.2,0.7,0.7,0.5,1.2l-3.4,7.7v0.7h3.5v-6.1c0-0.5,0.4-0.9,0.9-0.9
			c0.5,0,0.9,0.4,0.9,0.9v6.1h0.9c0.5,0,0.9,0.4,0.9,0.9C270.7,133.9,270.3,134.3,269.8,134.3z"/>
		<path class="st5" d="M278.6,129.9h-1.7c-0.5,0-0.9-0.4-0.9-0.9v-0.9c0-0.5,0.4-0.9,0.9-0.9h1.7c0.5,0,0.9,0.4,0.9,0.9v0.9
			C279.4,129.5,279,129.9,278.6,129.9z M278.6,136.9h-1.7c-0.5,0-0.9-0.4-0.9-0.9v-0.9c0-0.5,0.4-0.9,0.9-0.9h1.7
			c0.5,0,0.9,0.4,0.9,0.9v0.9C279.4,136.5,279,136.9,278.6,136.9z"/>
		<path class="st5" d="M290.8,136.9h-3.5c-1.4,0-2.6-1.2-2.6-2.6c0-0.5,0.4-0.9,0.9-0.9c0.5,0,0.9,0.4,0.9,0.9
			c0,0.5,0.4,0.9,0.9,0.9h3.5c0.5,0,0.9-0.4,0.9-0.9v-3.5c0-0.5-0.4-0.9-0.9-0.9H286c-0.5,0-0.9-0.4-0.9-0.9v-5.2
			c0-0.5,0.4-0.9,0.9-0.9h6.5c0.5,0,0.9,0.4,0.9,0.9c0,0.5-0.4,0.9-0.9,0.9h-5.7v3.5h3.9c1.4,0,2.6,1.2,2.6,2.6v3.5
			C293.4,135.7,292.2,136.9,290.8,136.9z"/>
		<path class="st5" d="M301.7,136.9h-2.6c-1.7,0-3.1-1.4-3.1-3.1v-6.5c0-2.4,1.8-4.4,3.9-4.4h3.1c0.5,0,0.9,0.4,0.9,0.9
			c0,0.5-0.4,0.9-0.9,0.9H300c-1.2,0-2.2,1.2-2.2,2.6v1.2c0.4-0.2,0.9-0.3,1.3-0.3h2.6c1.7,0,3.1,1.4,3.1,3.1v2.6
			C304.8,135.5,303.4,136.9,301.7,136.9z M303,131.2c0-0.7-0.6-1.3-1.3-1.3h-2.6c-0.7,0-1.3,0.6-1.3,1.3v2.6c0,0.7,0.6,1.3,1.3,1.3
			h2.6c0.7,0,1.3-0.6,1.3-1.3V131.2z"/>
	</g>
	<g>
		<path class="st5" d="M275.8,208.3c-0.6,0.4-1.4,0.2-1.7-0.4l-3.7-5.7l-2.7,2.5v2.6c0,0.7-0.6,1.2-1.2,1.2c-0.7,0-1.2-0.6-1.2-1.2
			v-16.7c0-0.7,0.6-1.2,1.2-1.2c0.7,0,1.2,0.6,1.2,1.2v10.7l6.6-6.1c0.5-0.5,1.3-0.4,1.7,0.1c0.5,0.5,0.4,1.3-0.1,1.7l-3.7,3.5
			l3.9,6.1C276.5,207.1,276.3,207.9,275.8,208.3z"/>
		<path class="st5" d="M292.4,205.4c-0.1,1.7-1.5,3-3.2,3h-0.6c-0.7,0-1.3-0.2-1.9-0.6c-0.5,0.4-1.1,0.6-1.9,0.6h-0.6
			c-1.7,0-3.1-1.4-3.2-3l-0.6-14.9c0-0.7,0.5-1.2,1.2-1.3c0.7,0,1.2,0.5,1.3,1.2c0.6,14.8,0.6,14.8,0.6,14.8c0,0.3,0.3,0.6,0.7,0.6
			h0.6c0.3,0,0.6-0.3,0.6-0.6v-9.3c0-0.7,0.6-1.2,1.2-1.2c0.7,0,1.2,0.6,1.2,1.2c0,9.3,0,9.3,0,9.3c0,0.3,0.3,0.6,0.6,0.6h0.6
			c0.3,0,0.7-0.3,0.7-0.6l0.6-14.8c0-0.7,0.6-1.2,1.3-1.2c0.7,0,1.2,0.6,1.2,1.3C292.4,205.4,292.4,205.4,292.4,205.4z"/>
		<path class="st5" d="M307.8,208.5c-0.7,0-1.2-0.6-1.2-1.2v-8.6c0-0.7-0.6-1.2-1.2-1.2h-3.7c-1.4,0-2.5,1.1-2.5,2.5v7.4
			c0,0.7-0.6,1.2-1.2,1.2c-0.7,0-1.2-0.6-1.2-1.2v-16.7c0-0.7,0.6-1.2,1.2-1.2c0.7,0,1.2,0.6,1.2,1.2v5c0.7-0.4,1.6-0.7,2.5-0.7h3.7
			c2,0,3.7,1.7,3.7,3.7v8.6C309,207.9,308.5,208.5,307.8,208.5z"/>
	</g>
	<g class="st8">
		<path class="st9" d="M130.4,223.1l11.5,9.9c2.6,2.2,7.5,4.1,11,4.1h163.5c0.1-0.2,0.1-0.4,0.2-0.5H152.9c-3.3,0-8.1-1.8-10.6-3.9
			l-11.5-9.9c-2.6-2.2-7.5-4.1-11-4.1H48.6c0,0.2,0.1,0.4,0.1,0.5h71C123.1,219.2,127.8,221,130.4,223.1z"/>
		<path class="st9" d="M219.2,142.5c-3.3,0-8.1-1.8-10.6-3.9l-11.5-9.9c-2.6-2.2-7.5-4.1-11-4.1H59.4c-0.1,0.2-0.2,0.4-0.3,0.5h127
			c3.3,0,8.1,1.8,10.6,3.9l11.5,9.9c2.6,2.2,7.5,4.1,11,4.1h99.6c-0.1-0.2-0.1-0.4-0.2-0.5H219.2z"/>
		<path class="st9" d="M313.3,244.4c0.1-0.2,0.2-0.4,0.2-0.5H57.1c0.1,0.2,0.2,0.4,0.2,0.5H313.3z"/>
		<path class="st9" d="M62.8,118.2h245.2c-0.1-0.2-0.2-0.4-0.3-0.5H63.1C63,117.8,62.9,118,62.8,118.2z"/>
	</g>
	<g>
		<path class="st9" d="M197.5,249.7c-5.5,0-10,3.3-10,7.5c0,2.9,2.3,5.4,5.5,6.7l-1.1,4.1l3.3-3.5c0.7,0.1,1.5,0.2,2.2,0.2
			c5.5,0,10-3.3,10-7.5C207.5,253,203,249.7,197.5,249.7z M191.3,257.4c0-0.7,0.6-1.3,1.3-1.3c0.7,0,1.3,0.6,1.3,1.3
			c0,0.7-0.6,1.3-1.3,1.3C191.8,258.7,191.3,258.1,191.3,257.4z M197.5,258.7c-0.7,0-1.3-0.6-1.3-1.3c0-0.7,0.6-1.3,1.3-1.3
			c0.7,0,1.3,0.6,1.3,1.3C198.8,258.1,198.2,258.7,197.5,258.7z M202.4,258.7c-0.7,0-1.3-0.6-1.3-1.3c0-0.7,0.6-1.3,1.3-1.3
			c0.7,0,1.3,0.6,1.3,1.3C203.7,258.1,203.1,258.7,202.4,258.7z"/>
		<path class="st9" d="M223.6,249.7c-3.6,0-6.6,2.9-6.6,6.6c0,3,2,5.5,4.7,6.3l1.8,5.3l1.8-5.3c2.7-0.8,4.7-3.3,4.7-6.3
			C230.2,252.7,227.3,249.7,223.6,249.7z M223.6,258.9c-1.4,0-2.6-1.2-2.6-2.6c0-1.4,1.2-2.6,2.6-2.6c1.4,0,2.6,1.2,2.6,2.6
			C226.2,257.7,225.1,258.9,223.6,258.9z"/>
		<path class="st9" d="M171.3,249.1c-5.4,0-9.7,4.4-9.7,9.7c0,5.4,4.4,9.7,9.7,9.7c5.4,0,9.7-4.4,9.7-9.7
			C181.1,253.4,176.7,249.1,171.3,249.1z M172.7,266.6c-0.3,0.1-0.6,0.1-0.9,0.1v-3.1h2.7C174.1,265,173.4,266,172.7,266.6z
			 M168.1,263.6h2.7v3.1c-0.3,0-0.6-0.1-0.9-0.1C169.2,266,168.6,265,168.1,263.6z M163.4,259.2h3c0,1.2,0.2,2.4,0.4,3.5h-2.5
			C163.8,261.6,163.5,260.4,163.4,259.2z M170,251c0.3-0.1,0.6-0.1,0.9-0.1v2.9h-2.6C168.7,252.5,169.3,251.6,170,251z M174.4,253.8
			h-2.6v-2.9c0.3,0,0.6,0.1,0.9,0.1C173.4,251.6,174,252.5,174.4,253.8z M174.7,254.7c0.3,1,0.5,2.2,0.5,3.5h-3.4v-3.5H174.7z
			 M170.9,254.7v3.5h-3.4c0-1.2,0.2-2.4,0.5-3.5H170.9z M166.4,258.2h-3c0.1-1.3,0.5-2.4,1.1-3.5h2.4
			C166.6,255.8,166.5,257,166.4,258.2z M167.4,259.2h3.4v3.5h-3C167.6,261.6,167.4,260.4,167.4,259.2z M171.8,262.6v-3.5h3.4
			c0,1.2-0.2,2.4-0.4,3.5H171.8z M176.2,259.2h3c-0.1,1.3-0.4,2.4-1,3.5h-2.5C176.1,261.6,176.2,260.4,176.2,259.2z M176.2,258.2
			c0-1.2-0.2-2.4-0.5-3.5h2.4c0.6,1,1,2.2,1.1,3.5H176.2z M177.4,253.8h-2c-0.3-0.9-0.6-1.6-1.1-2.3
			C175.6,252,176.6,252.8,177.4,253.8z M168.3,251.5c-0.4,0.6-0.8,1.4-1.1,2.3h-2C166,252.8,167.1,252,168.3,251.5z M165,263.6h2.1
			c0.3,1,0.7,1.8,1.2,2.5C167,265.6,165.9,264.7,165,263.6z M174.4,266.1c0.5-0.7,0.9-1.5,1.2-2.5h2.1
			C176.8,264.7,175.7,265.6,174.4,266.1z"/>
		<g class="st8">
			<path class="st5" d="M86.6,261.6c-1.9,0-3.5,1.6-3.5,3.5c0,1.9,1.6,3.5,3.5,3.5c1.9,0,3.5-1.6,3.5-3.5
				C90.1,263.1,88.5,261.6,86.6,261.6z"/>
			<path class="st5" d="M86.6,257.5v2.2c3,0,5.4,2.4,5.4,5.4h2.2C94.2,260.9,90.8,257.5,86.6,257.5z"/>
			<path class="st5" d="M86.6,253.3v2.2c5.3,0,9.5,4.3,9.5,9.5h2.2C98.4,258.6,93.1,253.3,86.6,253.3z"/>
			<path class="st5" d="M86.6,249.1v2.2c7.6,0,13.7,6.2,13.7,13.7h2.2C102.6,256.3,95.4,249.1,86.6,249.1z"/>
		</g>
		<path class="st9" d="M256.2,257.5v-1.9c0-3.5-2.9-6.4-6.4-6.4c-3.5,0-6.4,2.9-6.4,6.4v1.9h-1.5v10.8h15.8v-10.8H256.2z
			 M245.2,255.6c0-2.5,2-4.6,4.6-4.6s4.6,2,4.6,4.6v1.9h-9.1V255.6z M250.5,263.8v2h-1.3v-2c-0.6-0.3-1.1-0.9-1.1-1.6
			c0-1,0.8-1.7,1.7-1.7c1,0,1.7,0.8,1.7,1.7C251.5,262.9,251.1,263.5,250.5,263.8z"/>
		<g class="st8">
			<rect x="109.3" y="260" class="st5" width="3.4" height="7.1"/>
			<rect x="114.7" y="256.8" class="st5" width="3.4" height="10.3"/>
			<rect x="120" y="253.7" class="st5" width="3.4" height="13.4"/>
			<rect x="125.3" y="250.5" class="st5" width="3.4" height="16.6"/>
		</g>
		<g class="st8">
			<path class="st5" d="M283.5,249.1h-15.1c-0.5,0-0.9,0.4-0.9,0.9v17.6c0,0.5,0.4,0.9,0.9,0.9h10.4c0.2,0,0.4-0.1,0.6-0.3l4.8-4.8
				c0.2-0.2,0.3-0.4,0.3-0.6V250C284.4,249.5,284,249.1,283.5,249.1z M269.3,250.9h13.4V262h-3.9c-0.5,0-0.9,0.4-0.9,0.9v3.9h-8.6
				V250.9z M281.4,263.7l-1.8,1.8v-1.8H281.4z"/>
			<path class="st5" d="M271.7,254h8.7c0.3,0,0.5-0.2,0.5-0.5c0-0.3-0.2-0.5-0.5-0.5h-8.7c-0.3,0-0.5,0.2-0.5,0.5
				C271.2,253.8,271.4,254,271.7,254z"/>
			<path class="st5" d="M271.7,256.7h8.7c0.3,0,0.5-0.2,0.5-0.5s-0.2-0.5-0.5-0.5h-8.7c-0.3,0-0.5,0.2-0.5,0.5
				S271.4,256.7,271.7,256.7z"/>
			<path class="st5" d="M280.4,259.3c0.3,0,0.5-0.2,0.5-0.5c0-0.3-0.2-0.5-0.5-0.5h-8.7c-0.3,0-0.5,0.2-0.5,0.5
				c0,0.3,0.2,0.5,0.5,0.5H280.4z"/>
		</g>
		<path class="st9" d="M154.4,251.9H136c-0.6,0-1.1,0.5-1.1,1.1v11.8c0,0.6,0.5,1.1,1.1,1.1h18.4c0.6,0,1.1-0.5,1.1-1.1v-11.8
			C155.4,252.3,154.9,251.9,154.4,251.9z M151.3,254l-6.1,4.7l-6.1-4.7H151.3z M137,263.7v-8.6l7.5,5.8c0.2,0.1,0.4,0.2,0.6,0.2
			c0.2,0,0.5-0.1,0.6-0.2l7.5-5.8v8.6H137z"/>
	</g>
	<g class="st8">
		<g class="st10">
			<g class="st10">
				<defs>
					<path id="SVGID_2_" class="st10" d="M339.5,277.1c-31.1,53-88.6,88.7-154.6,88.7C250.9,365.7,308.5,330.1,339.5,277.1z"/>
				</defs>
				<clipPath id="SVGID_3_">
					<use xlink:href="#SVGID_2_"  style="overflow:visible;"/>
				</clipPath>
				<g class="st11">
					<path class="st12" d="M339.5,277.1c-31.1,53-88.6,88.7-154.6,88.7C250.9,365.7,308.5,330.1,339.5,277.1"/>
				</g>
			</g>
			<g class="st10">
				<defs>
					<path id="SVGID_4_" class="st10" d="M30.4,96.4C14.9,122.9,6,153.8,6,186.7C6,153.8,14.9,122.9,30.4,96.4z"/>
				</defs>
				<clipPath id="SVGID_5_">
					<use xlink:href="#SVGID_4_"  style="overflow:visible;"/>
				</clipPath>
				<g class="st13">
					<path class="st12" d="M6,186.7c0-33,8.9-63.8,24.4-90.3C14.9,122.9,6,153.8,6,186.7"/>
				</g>
			</g>
			<g class="st10">
				<defs>
					<path id="SVGID_6_" class="st10" d="M185,7.7c98.9,0,179,80.1,179,179C364,87.9,283.8,7.7,185,7.7z"/>
				</defs>
				<clipPath id="SVGID_7_">
					<use xlink:href="#SVGID_6_"  style="overflow:visible;"/>
				</clipPath>
				<g class="st14">
					<path class="st15" d="M185,7.7c2.1,0,4.3,0,6.4,0.1C189.2,7.8,187.1,7.7,185,7.7"/>
					<path class="st16" d="M191.4,7.8c9.2,0.3,18.3,1.3,27.1,3C209.7,9.2,200.6,8.2,191.4,7.8"/>
					<path class="st17" d="M218.5,10.9c9.6,1.8,18.9,4.4,27.9,7.7C237.4,15.3,228.1,12.7,218.5,10.9"/>
					<path class="st18" d="M246.4,18.5c11.5,4.2,22.4,9.5,32.7,15.9C268.8,28.1,257.9,22.7,246.4,18.5"/>
					<path class="st19" d="M279.1,34.4c31.9,19.8,57.2,49.3,71.6,84.5C336.3,83.7,311,54.2,279.1,34.4"/>
					<path class="st18" d="M350.7,118.9c4.6,11.1,8,22.8,10.3,34.9C358.7,141.7,355.2,130,350.7,118.9"/>
					<path class="st17" d="M360.9,153.8c1.8,9.5,2.8,19.2,3,29.1C363.7,173,362.7,163.3,360.9,153.8"/>
					<path class="st16" d="M363.9,182.9c0,1.3,0,2.5,0,3.8C364,185.5,364,184.2,363.9,182.9"/>
				</g>
			</g>
			<g>
				<linearGradient id="SVGID_8_" gradientUnits="userSpaceOnUse" x1="71.1009" y1="72.8496" x2="300.1948" y2="301.9436">
					<stop  offset="0" style="stop-color:#97A9B3"/>
					<stop  offset="0.4709" style="stop-color:#FFFFFF"/>
					<stop  offset="1" style="stop-color:#97A9B3"/>
				</linearGradient>
				<circle class="st20" cx="185" cy="186.7" r="172.2"/>
			</g>
			<g class="st10">
				<defs>
					<path id="SVGID_9_" class="st10" d="M185,14.5c0-3.8,0-6.8,0-6.8c98.9,0,179,80.1,179,179c0,98.9-80.1,179-179,179
						c-98.9,0-179-80.1-179-179c0-98.9,80.1-179,179-179C185,7.7,185,10.8,185,14.5c-95.1,0-172.2,77.1-172.2,172.2
						c0,95.1,77.1,172.2,172.2,172.2c95.1,0,172.2-77.1,172.2-172.2C357.2,91.6,280.1,14.5,185,14.5z"/>
				</defs>
				<clipPath id="SVGID_10_">
					<use xlink:href="#SVGID_9_"  style="overflow:visible;"/>
				</clipPath>
				<g class="st21">
					<path class="st22" d="M185,14.5c0-3.8,0-6.8,0-6.8c98.9,0,179,80.1,179,179c0,98.9-80.1,179-179,179c-98.9,0-179-80.1-179-179
						c0-98.9,80.1-179,179-179C185,7.7,185,10.8,185,14.5c-95.1,0-172.2,77.1-172.2,172.2c0,95.1,77.1,172.2,172.2,172.2
						c95.1,0,172.2-77.1,172.2-172.2C357.2,91.6,280.1,14.5,185,14.5"/>
					<path class="st22" d="M185,12.5c-0.8,0.1-1.9,0.1-2.7,0.2c0.8,0.1,1.9,0.2,2.7,0.3C89.9,14.5,12.8,91.6,12.8,186.7
						c0,95.1,77.1,172.2,172.2,172.2c95.1,0,172.2-77.1,172.2-172.2c0-95.1-77.1-172.2-172.2-172.2c0.4-0.4,0.9-1,1.3-1.4
						c18.7,1.1,182.4,16.5,170,203.8C381.7,114.4,292,7.4,185,12.5c0-2.8,0-4.8,0-4.8c98.9,0,179,80.1,179,179
						c0,98.9-80.1,179-179,179c-98.9,0-179-80.1-179-179c0-98.9,80.1-179,179-179C185,7.7,185,9.7,185,12.5"/>
					<path class="st23" d="M185,12.1c-2.2,2.4-7.6,0.6-10.8,0.9c3.2,0.1,7.6,0.3,10.8,0.4C89.9,14.5,12.8,91.6,12.8,186.7
						c0,95.1,77.1,172.2,172.2,172.2c95.1,0,172.2-77.1,172.2-172.2c0-95.1-77.1-172.2-172.2-172.2c4-0.1,9.4-0.3,13.4-0.4
						c69.1,6.7,108.1,46.5,125.2,69.6c21.2,28.6,27.9,55.9,29,61.1c1.4,6.6,1.4,6.6,2,80.7c8.5-30,15.2-89.7-34.6-152.3
						C270.6,11,187,10,185,12.1c0-2.6,0-4.4,0-4.4c98.9,0,179,80.1,179,179c0,98.9-80.1,179-179,179c-98.9,0-179-80.1-179-179
						c0-98.9,80.1-179,179-179C185,7.7,185,9.6,185,12.1"/>
					<path class="st24" d="M185,11.9c-5.8,6.2-12.8,0.9-19.1,1.9c6.4,1.1,12.7-0.1,19.1-0.1c-95.1,0.9-172.2,78-172.2,173
						c0,95.1,77.1,172.2,172.2,172.2c95.1,0,172.2-77.1,172.2-172.2c0-95.1-77.1-172.2-172.2-172.2c4.2-0.1,9.8-0.1,14-0.2
						c95.8,9.2,181.5,96,152.9,220.3C367,196.9,364,131.2,328.4,83.8C268.9,4.3,185.5,11.4,185,11.9c0-2.4,0-4.2,0-4.2
						c98.9,0,179,80.1,179,179c0,98.9-80.1,179-179,179c-98.9,0-179-80.1-179-179c0-98.9,80.1-179,179-179C185,7.7,185,9.4,185,11.9
						"/>
					<path class="st25" d="M185,11.7c-1.6,1.7-5.3,0.2-7.6,0.4c-0.1,0-13.6,0.8-23.6,3.9c12.9-1.4,19.4-2.1,31.3-2.1
						C89.9,14.5,12.8,91.6,12.8,186.7c0,95.1,77.1,172.2,172.2,172.2c95.1,0,172.2-77.1,172.2-172.2c0-95.1-77.1-172.2-172.2-172.2
						c4.2,0,9.8,0,14.1,0c87.2,8.2,187.7,92.8,149.5,230.2c9.7-15.4,29.1-91-18.4-158.6C272.8,4.4,185.5,11.1,185,11.7
						c0-2.3,0-4,0-4c98.9,0,179,80.1,179,179c0,98.9-80.1,179-179,179c-98.9,0-179-80.1-179-179c0-98.9,80.1-179,179-179
						C185,7.7,185,9.3,185,11.7"/>
					<path class="st26" d="M185,11.5c-2.4,2.5-8,0.5-11.5,0.7c-3.3,0.2-15.4,1.2-31.5,6.4c33.6-4.4,33.6-4.4,43-4.5
						C89.9,14.5,12.8,91.6,12.8,186.7c0,95.1,77.1,172.2,172.2,172.2c95.1,0,172.2-77.1,172.2-172.2c0-95.1-77.1-172.2-172.2-172.2
						c0.7-0.1,1.6-0.3,2.2-0.5c94.1,5.3,204.9,84,156.7,242.6c10.1-19.5,39-89.5-13.5-170.6C282.3,12,187.4,9,185,11.5
						c0-2.2,0-3.8,0-3.8c98.9,0,179,80.1,179,179c0,98.9-80.1,179-179,179c-98.9,0-179-80.1-179-179c0-98.9,80.1-179,179-179
						C185,7.7,185,9.3,185,11.5"/>
					<path class="st27" d="M185,11.3c-1.5,1.5-5,0.2-7.1,0.3c-14.7,0.6-30.7,4.1-47.6,10.3c43.4-7.7,43.4-7.7,54.7-7.7
						C89.9,14.5,12.8,91.6,12.8,186.7c0,95.1,77.1,172.2,172.2,172.2c95.1,0,172.2-77.1,172.2-172.2c0-95.1-77.1-172.2-172.2-172.2
						c4.2,0.1,9.9,0.2,14.1,0.3C310.8,25,397.3,140.7,337.4,268.9c31.3-50,31.4-118.9,0.3-171.5C282.9,4.9,185.6,10.7,185,11.3
						c0-2.1,0-3.6,0-3.6c98.9,0,179,80.1,179,179c0,98.9-80.1,179-179,179c-98.9,0-179-80.1-179-179c0-98.9,80.1-179,179-179
						C185,7.7,185,9.2,185,11.3"/>
					<path class="st28" d="M185,11.2c-2.5,2.6-8.4,0.5-12,0.7c-10.7,0.6-32.9,3.7-61,17.9c27.4-9.8,42.5-15.1,73-15.3
						C89.9,14.5,12.8,91.6,12.8,186.7c0,95.1,77.1,172.2,172.2,172.2c95.1,0,172.2-77.1,172.2-172.2c0-95.1-77.1-172.2-172.2-172.2
						c4.2,0.1,9.9,0.3,14.1,0.4c107,9.7,208.2,127.3,128.6,269.7c14.9-19.9,60-92,11.6-184.7C294.5,14.1,188,7.9,185,11.2
						c0-2.1,0-3.4,0-3.4c98.9,0,179,80.1,179,179c0,98.9-80.1,179-179,179c-98.9,0-179-80.1-179-179c0-98.9,80.1-179,179-179
						C185,7.7,185,9.1,185,11.2"/>
					<path class="st29" d="M185,11c-1.2,1.3-4.1,0.1-5.9,0.2c-44.6,1.6-85.7,21.9-122.2,60.4c-20.1,21.1-44,59.2-44,120.7
						c0,90.2,80.4,168.1,172.1,166.6c158-2.5,234.8-186.6,124.5-298.4C256.3,6.7,185.3,10.6,185,11c0-2,0-3.3,0-3.3
						c98.9,0,179,80.1,179,179c0,98.9-80.1,179-179,179c-98.9,0-179-80.1-179-179c0-98.9,80.1-179,179-179C185,7.7,185,9,185,11"/>
					<path class="st30" d="M185,10.8c-2.5,2.7-8.6,0.5-12.2,0.7c-50.1,2.7-160,51.9-160,180.9c0,80.1,70.7,168.3,172.3,166.8
						c158.3-2.4,235.2-186.6,124.6-298.7C256.2,6.3,185.3,10.4,185,10.8c0-1.9,0-3.1,0-3.1c98.9,0,179,80.1,179,179
						c0,98.9-80.1,179-179,179c-98.9,0-179-80.1-179-179c0-98.9,80.1-179,179-179C185,7.7,185,8.9,185,10.8"/>
					<path class="st31" d="M185,10.6c-1.3,1.4-4.4,0.2-6.3,0.2c-15.9,0.6-71.4,6.3-117.8,55.2c-48.3,50.9-48.3,107.7-48.3,126.3
						c0,80.1,70.8,168.4,172.4,166.9c158.6-2.2,235.6-186.7,124.7-299C256.5,6.3,185.3,10.2,185,10.6c0-1.7,0-2.9,0-2.9
						c98.9,0,179,80.1,179,179c0,98.9-80.1,179-179,179c-98.9,0-179-80.1-179-179c0-98.9,80.1-179,179-179C185,7.7,185,8.9,185,10.6
						"/>
					<path class="st32" d="M185,10.4c-2.5,2.7-8.6,0.5-12.2,0.6c-36.6,1.9-81.8,23-107.6,50.2c-37,39-52.7,78.2-52.7,131.1
						c0,80.1,70.9,168.4,172.5,167.1c158.9-2.1,235.9-186.7,124.9-299.3C256.4,5.9,185.3,10,185,10.4c0-1.6,0-2.7,0-2.7
						c98.9,0,179,80.1,179,179c0,98.9-80.1,179-179,179c-98.9,0-179-80.1-179-179c0-98.9,80.1-179,179-179C185,7.7,185,8.8,185,10.4
						"/>
					<path class="st33" d="M185,10.2c-2.2,2.3-7.5,0.4-10.8,0.5c-29.4,1.4-73.8,12.9-117.8,59.4c-16.5,17.4-44.1,56.3-44.1,122.2
						c0,80.2,70.9,168.6,172.7,167.3c159.1-2,236.2-186.8,125-299.6C256.5,5.7,185.3,9.8,185,10.2c0-1.5,0-2.4,0-2.4
						c98.9,0,179,80.1,179,179c0,98.9-80.1,179-179,179c-98.9,0-179-80.1-179-179c0-98.9,80.1-179,179-179C185,7.7,185,8.7,185,10.2
						"/>
					<path class="st34" d="M185,9.9c-1.3,1.4-4.5,0.2-6.4,0.2c-42.1,1.6-86.5,21.8-115.8,52.7c-50.6,53.4-50.6,106.7-50.6,129.4
						c0,80.2,71,168.7,172.9,167.5c159.3-1.9,236.5-186.9,125.1-299.9C256.6,5.6,185.3,9.5,185,9.9c0-1.3,0-2.2,0-2.2
						c98.9,0,179,80.1,179,179c0,98.9-80.1,179-179,179c-98.9,0-179-80.1-179-179c0-98.9,80.1-179,179-179C185,7.7,185,8.6,185,9.9"
						/>
					<path class="st35" d="M185,9.6c-0.9,0.9-3,0.1-4.3,0.1C99.5,12.3,11.9,81,11.9,187.7C11.9,282.1,91.1,361,185,360
						C344.6,358.2,421.8,173,310.2,59.8C256.7,5.5,185.3,9.2,185,9.6c0-1.2,0-1.9,0-1.9c98.9,0,179,80.1,179,179
						c0,98.9-80.1,179-179,179c-98.9,0-179-80.1-179-179c0-98.9,80.1-179,179-179C185,7.7,185,8.5,185,9.6"/>
					<path class="st36" d="M185,9.4c-0.7,0.7-2.2,0.1-3.2,0.1c-32.4,0.9-80.2,11.6-124.2,58.1c-30.4,32.1-45.8,74-45.8,124.7
						c0,80.3,71.1,168.9,173.2,167.9c159.8-1.7,237.1-187,125.3-300.5C256.8,5.4,185.3,9,185,9.4c98.9-1.6,179,78.5,179,177.4
						c0,98.9-80.1,179-179,179c-98.9,0-179-80.1-179-179c0-98.9,80.1-179,179-179C185,7.7,185,8.3,185,9.4"/>
					<path class="st37" d="M185,9.1c-2.8,2.9-9.3,0.5-13.3,0.7c-30.3,1.6-77.3,18.5-108.8,51.8c-45.4,48-51.2,95-51.2,130.7
						c0,80.7,69.7,167.6,173.4,168.1c158.4,0.8,236.9-187.5,125.4-300.8C256.9,5.3,185.3,8.7,185,9.1c98.9-1.4,179,78.7,179,177.6
						c0,98.9-80.1,179-179,179c-98.9,0-179-80.1-179-179c0-98.9,80.1-179,179-179C185,7.7,185,8.2,185,9.1"/>
					<path class="st38" d="M185,8.9c-2.5,2.6-8.3,0.4-11.9,0.6c-37.2,1.8-83,23-109.1,50.5c-36.9,39-52.6,78.5-52.6,132.3
						c0,80.4,71.3,169.3,173.6,168.3c160.2-1.5,237.6-187.2,125.4-301C256.6,4.9,185.3,8.5,185,8.9c98.9-1.2,179,79,179,177.8
						c0,98.9-80.1,179-179,179c-98.9,0-179-80.1-179-179c0-98.9,80.1-179,179-179C185,7.7,185,8.2,185,8.9"/>
					<path class="st39" d="M185,8.7c-2.5,2.6-8.5,0.4-12.2,0.6c-37.1,1.7-82.9,23-109,50.5c-36.9,39-52.6,78.6-52.6,132.5
						c0,80.5,71.4,169.6,173.8,168.6c160.3-1.5,237.7-187.4,125.5-301.3C256.6,4.8,185.3,8.3,185,8.7c98.9-1,179,79.1,179,178
						c0,98.9-80.1,179-179,179c-98.9,0-179-80.1-179-179c0-98.9,80.1-179,179-179C185,7.7,185,8.1,185,8.7"/>
					<path class="st40" d="M185,8.6c-1.9,1.9-6.3,0.2-9,0.3c-39.9,1.4-85,21.8-112.4,50.6c-23.3,24.6-54.1,65-52.7,132.7
						c2,95,85,172.3,181.3,168.8c155.7-5.7,229.5-198.7,116.2-303.6C249.2,2.6,185.3,8.2,185,8.6c98.9-0.8,179,79.3,179,178.2
						c0,98.9-80.1,179-179,179c-98.9,0-179-80.1-179-179c0-98.9,80.1-179,179-179C185,7.7,185,8,185,8.6"/>
					<path class="st41" d="M185,8.4c-0.7,0.7-2.3,0-3.2,0.1C129.5,9.4,86.3,35.3,63.3,59.3c-36,37.5-52.8,79-52.8,130.7
						c0,92,81.5,172.1,174.4,171.4c161-1.1,238.4-187.4,125.6-302C256.9,4.9,185.3,8,185,8.4c98.9-0.7,179,79.4,179,178.3
						c0,98.9-80.1,179-179,179c-98.9,0-179-80.1-179-179c0-98.9,80.1-179,179-179C185,7.7,185,8,185,8.4"/>
					<path class="st42" d="M185,8.3c-2.6,2.8-8.9,0.4-12.8,0.6c-15.1,0.7-67.8,6.6-114.6,55.9c-31.4,33-47.3,75.9-47.3,127.5
						c0,81.2,70.2,168.6,174.6,169.5c159.5,1.3,238.2-188,125.6-302.3C256.6,4.5,185.3,7.9,185,8.3c98.9-0.6,179,79.6,179,178.4
						c0,98.9-80.1,179-179,179c-98.9,0-179-80.1-179-179c0-98.9,80.1-179,179-179C185,7.7,185,7.9,185,8.3"/>
					<path class="st43" d="M185,8.2c-2.2,2.3-7.4,0.3-10.6,0.4C87.2,11.7,10.5,90.9,10.1,178C9.6,305,111.1,362.1,183.5,362
						c162.6-0.2,241-186.9,127.1-302.6C256.7,4.6,185.3,7.8,185,8.2c98.9-0.5,179,79.7,179,178.5c0,98.9-80.1,179-179,179
						c-98.9,0-179-80.1-179-179c0-98.9,80.1-179,179-179C185,7.7,185,7.9,185,8.2"/>
					<path class="st44" d="M185,8.1c-0.5,0.5-1.6,0-2.3,0C137.1,8.7,91.3,28.5,60.2,61.2C9.8,114.1,9.8,170.8,9.8,192.1
						c0,80.1,72,169.8,175.2,170.2c159.1,0.7,237.8-189,125.7-303C257,4.8,185.3,7.7,185,8.1c98.9-0.4,179,79.8,179,178.6
						c0,98.9-80.1,179-179,179c-98.9,0-179-80.1-179-179c0-98.9,80.1-179,179-179C185,7.7,185,7.9,185,8.1"/>
					<path class="st45" d="M185,8c-2.7,2.9-9.2,0.4-13.2,0.5C93.4,11.8,9.4,83.6,9.4,185.3c0,98.2,78.8,177.7,175.6,177.3
						c161.7-0.8,239.2-187.9,125.7-303.3C256.6,4.4,185.3,7.6,185,8c98.9-0.3,179,79.9,179,178.7c0,98.9-80.1,179-179,179
						c-98.9,0-179-80.1-179-179c0-98.9,80.1-179,179-179C185,7.7,185,7.8,185,8"/>
					<path class="st46" d="M185,7.9c-1.9,2-6.3,0.2-9.1,0.3C136.1,9.4,89.4,30,62.4,58.3C25.1,97.3,9.2,137.3,9.2,192
						c0,81.2,72.2,171.3,175.8,170.8c161.9-0.8,239.4-188,125.7-303.6C256.8,4.5,185.3,7.5,185,7.9c98.9-0.2,179,79.9,179,178.8
						c0,98.9-80.1,179-179,179c-98.9,0-179-80.1-179-179c0-98.9,80.1-179,179-179C185,7.7,185,7.8,185,7.9"/>
					<path class="st19" d="M185,7.9c-2.8,2.9-9.4,0.4-13.4,0.5C134.3,9.9,88.3,30.8,62.2,58.1C24.8,97.2,8.9,137.3,8.9,192
						c0,82.2,70.8,170.6,176.1,171.1c159.5,0.8,238.2-189.5,125.7-303.9C256.6,4.4,185.3,7.5,185,7.9c98.9-0.1,179,80,179,178.9
						c0,98.9-80.1,179-179,179c-98.9,0-179-80.1-179-179c0-98.9,80.1-179,179-179C185,7.7,185,7.8,185,7.9"/>
					<path class="st18" d="M185,7.8c-2.8,2.9-9.4,0.4-13.5,0.5C134.2,9.8,88.2,30.7,62.1,58C24.6,97.1,8.6,137.2,8.6,192
						C8.6,273.4,81,363.9,185,363.4c128.3-0.5,211.8-124.1,165.5-244.9c8.7,21,13.4,44,13.4,68.2c0,98.9-80.1,179-179,179
						c-98.9,0-179-80.1-179-179C6,87.9,86.1,7.7,185,7.8C185,7.7,185,7.8,185,7.8"/>
					<path class="st17" d="M185,7.8c-1.9,1.9-6.3,0.2-9,0.2c-20.5,0.5-73.2,7.2-120.5,56.6C24.2,97.2,8.3,140,8.3,192
						c0,81.7,72.5,172.4,176.7,171.8c112.3-0.7,194.5-98.8,176-210c2,10.7,3,21.7,3,33c0,98.9-80.1,179-179,179
						c-98.9,0-179-80.1-179-179C6,87.9,86.1,7.7,185,7.8C185,7.7,185,7.7,185,7.8"/>
					<path class="st16" d="M185,7.7c-2.9,3.1-9.9,0.4-14.2,0.6c-10.7,0.4-66.5,5.1-114.1,54.6C24,97,7.6,140.4,8,191.9
						C8.8,285.8,92.9,366.2,188,364c86.2-2,174.3-64.8,175.9-181.1c0,1.3,0,2.5,0,3.8c0,98.9-80.1,179-179,179
						c-98.9,0-179-80.1-179-179C6,87.9,86.1,7.7,185,7.7C185,7.7,185,7.7,185,7.7"/>
					<path class="st15" d="M185,7.7c-2.9,3-9.6,0.4-13.7,0.5c-10.8,0.4-67,5-114.2,54C23.9,96.8,7.3,140.4,7.7,191.9
						C8.6,286,92.9,366.6,188.2,364.3c90.2-2.2,161.9-65.5,174.2-153.9C350.9,298,275.8,365.7,185,365.7c-98.9,0-179-80.1-179-179
						C6,87.9,86.1,7.7,185,7.7L185,7.7"/>
					<path class="st47" d="M150,11.1C-20.8,51.7-36.2,255.7,88.4,335.5c90.5,57.9,227.3,27.8,268.2-97.7c-22,74-90.5,128-171.6,128
						c-98.9,0-179-80.1-179-179C6,95.3,74.5,19.9,163,9.1C159.1,9.7,153.8,10.4,150,11.1"/>
					<path class="st12" d="M117.3,21c-159.8,68.3-136.5,275.1,0.5,330.4c71.5,28.8,172.9,15,226.8-83.4
						c-29.6,58-89.9,97.7-159.5,97.7c-98.9,0-179-80.1-179-179c0-80.1,52.6-148,125.2-170.8c-3.7,1.3-8.6,3.1-12.3,4.4
						C118.4,20.5,117.8,20.8,117.3,21"/>
					<path class="st48" d="M358,200.7c3.8-83.6-46.1-174.1-166.2-187.9C289.3,8,379.2,114,357.7,208.3
						C357.7,206,357.9,203,358,200.7"/>
					<path class="st49" d="M358.6,195.4c0.4-96.7-61.3-168.1-157.2-181.9C285.5,7.8,378,117.4,358.5,199.6
						C358.5,198.3,358.6,196.7,358.6,195.4"/>
					<path class="st50" d="M358.4,178.1C356,146.4,338.2,41.1,210.2,14.5c6.7-1.8,66.7,8,107.7,56.7c50.5,59.8,41.2,119.1,41,119.6
						C358.8,187,358.6,181.9,358.4,178.1"/>
					<path class="st51" d="M358.9,181.9c-0.6-1-0.2-2.7-0.3-3.8c-2.7-38-17.3-74.5-41.1-102.8c-25-29.6-58.1-49.5-98.5-59.2
						c68.4,7.8,141.1,76.3,140.3,166.1C359.3,182,359,182,358.9,181.9"/>
					<path class="st52" d="M358.4,172.8c-10.7-48.7-14.8-67-40.8-97.6c-17.8-20.9-37.4-33.4-38.2-33.9
						c-16.8-10.6-36.1-15.6-53.7-24.2C300.9,32.8,355.7,97.6,359,174.5C358.8,174,358.5,173.3,358.4,172.8"/>
					<path class="st53" d="M357.4,163.6C337.3,64.7,279.4,39.3,232.8,18.9c57.8,13.7,119.5,68.9,125.5,148.2
						C358.1,166,357.7,164.6,357.4,163.6"/>
					<path class="st54" d="M355.9,154.1C333.5,62.4,272.8,35.6,240.2,21.2C302.4,39.4,349.5,95,357.3,159.6
						C356.9,157.9,356.3,155.7,355.9,154.1"/>
					<path class="st55" d="M353.8,144.5c-21.3-72-65.6-101.4-106.2-120.7c54.6,17.8,99.1,70.4,108.3,127.8
						C355.3,149.5,354.4,146.7,353.8,144.5"/>
					<path class="st56" d="M350.8,133.7c-17.5-49.2-47.8-83.1-95.4-106.7c40.3,15.5,86.5,57.6,98.8,116.8
						C353.1,140.8,351.8,136.8,350.8,133.7"/>
					<path class="st57" d="M349.2,128.5c-16.9-43.6-43.5-73.7-85.9-97.7c34.8,14.6,76.3,55.1,88.4,104.3
						C350.9,133.1,350,130.5,349.2,128.5"/>
					<path class="st58" d="M342.9,113.3c-20.4-41.2-46.2-61.7-71-77.9c28.7,14,64.2,49.7,76.7,90.7
						C346.9,122.3,344.8,117.1,342.9,113.3"/>
					<path class="st59" d="M343.1,113.2c-10.5-20.7-27-47.7-62.1-72.1c32.3,18.4,56.6,54.9,63.5,75
						C344.1,115.2,343.6,114.1,343.1,113.2"/>
					<path class="st60" d="M335.5,98.7c-17.7-28.7-35-42.8-43.3-49.6c14.3,9,37.7,34.8,46.3,54.6
						C337.6,102.2,336.4,100.2,335.5,98.7"/>
					<path class="st18" d="M268,28.1c-23.4-11.1-43-19.1-83-20.3c34.6-0.1,67,9.8,94.4,26.8C275.9,32.6,271.5,29.9,268,28.1"/>
					<path class="st17" d="M236.7,15.3C220.9,11.2,208.5,8,185,7.8c21.6,0,42.3,3.8,61.5,10.8C243.5,17.6,239.6,16.2,236.7,15.3"/>
					<path class="st61" d="M326.7,85c-7.1-9.5-7.1-9.5-16.4-19.6c2.9,2.8,11.7,11.2,16.7,20C326.9,85.3,326.8,85.1,326.7,85"/>
					<path class="st16" d="M202.7,8.6c-5.3-0.4-12.4-0.8-17.8-0.9c11.4,0,22.6,1.1,33.5,3.1c-4.1-0.6-9.5-1.4-13.6-2
						C204.2,8.8,203.4,8.7,202.7,8.6"/>
					<path class="st15" d="M185,7.7c2.1,0,4.3,0,6.4,0.1C189.4,7.8,186.3,9.1,185,7.7"/>
				</g>
			</g>
		</g>
	</g>
	<g>
		<path class="st5" d="M82.2,208.5h-9.3c-6,0-10.9-4.9-10.9-10.9v-28c0-6,4.9-10.9,10.9-10.9h9.3c6,0,10.9,4.9,10.9,10.9v28
			C93.1,203.6,88.2,208.5,82.2,208.5z M86.9,169.6c0-2.6-2.1-4.7-4.7-4.7h-9.3c-2.6,0-4.7,2.1-4.7,4.7v28c0,2.6,2.1,4.7,4.7,4.7h9.3
			c2.6,0,4.7-2.1,4.7-4.7V169.6z"/>
		<path class="st5" d="M127.3,208.5h-18.7c-1.7,0-3.1-1.4-3.1-3.1c0-1.7,1.4-3.1,3.1-3.1h6.2v-37.3h-4.7c-1.7,0-3.1-1.4-3.1-3.1
			c0-1.7,1.4-3.1,3.1-3.1h7.8c1.7,0,3.1,1.4,3.1,3.1v40.4h6.2c1.7,0,3.1,1.4,3.1,3.1C130.4,207.1,129,208.5,127.3,208.5z"/>
		<path class="st5" d="M170.9,208.5H146c-1.2,0-2.3-0.7-2.8-1.8c-0.5-1.1-0.4-2.4,0.4-3.3l22.9-27.1c0.6-0.8,1.2-2.5,1.2-3.5v-3.1
			c0-2.6-2.1-4.7-4.7-4.7h-9.3c-2.6,0-4.7,2.1-4.7,4.7v1.6c0,1.7-1.4,3.1-3.1,3.1c-1.7,0-3.1-1.4-3.1-3.1v-1.6
			c0-6,4.9-10.9,10.9-10.9h9.3c6,0,10.9,4.9,10.9,10.9v3.1c0,2.5-1.2,5.6-2.7,7.5l-18.6,22.1h18.2c1.7,0,3.1,1.4,3.1,3.1
			C174,207.1,172.6,208.5,170.9,208.5z"/>
		<path class="st5" d="M205.1,208.5h-12.4c-5.1,0-9.3-4.2-9.3-9.3c0-1.7,1.4-3.1,3.1-3.1c1.7,0,3.1,1.4,3.1,3.1
			c0,1.7,1.4,3.1,3.1,3.1h12.4c1.7,0,3.1-1.4,3.1-3.1v-12.4c0-1.7-1.4-3.1-3.1-3.1c-9.5,0-9.6,0-9.6,0c-0.6,0-1.2-0.3-1.8-0.7
			c-1.3-1.1-1.5-3.1-0.4-4.4l11.4-13.5h-15.2v1.6c0,1.7-1.4,3.1-3.1,3.1c-1.7,0-3.1-1.4-3.1-3.1v-4.7c0-1.7,1.4-3.1,3.1-3.1h24.9
			c1.2,0,2.3,0.7,2.8,1.8c0.5,1.1,0.4,2.4-0.4,3.3l-11.4,13.5h2.7c5.1,0,9.3,4.2,9.3,9.3v12.4C214.4,204.3,210.2,208.5,205.1,208.5z
			"/>
		<path class="st5" d="M251.7,199.1h-3.1v6.2c0,1.7-1.4,3.1-3.1,3.1c-1.7,0-3.1-1.4-3.1-3.1v-6.2h-15.6c-1.7,0-3.1-1.4-3.1-3.1v-6.2
			c0-0.5,0.1-0.9,0.2-1.2l12.4-28c0.7-1.6,2.6-2.3,4.1-1.6c1.6,0.7,2.3,2.6,1.6,4.1L230,190.4v2.5h12.4v-21.8c0-1.7,1.4-3.1,3.1-3.1
			c1.7,0,3.1,1.4,3.1,3.1v21.8h3.1c1.7,0,3.1,1.4,3.1,3.1S253.5,199.1,251.7,199.1z"/>
	</g>
</g>
</svg>
