<?xml version="1.0" encoding="utf-8"?>
<!-- Generator: Adobe Illustrator 22.1.0, SVG Export Plug-In . SVG Version: 6.00 Build 0)  -->
<svg version="1.1" xmlns="http://www.w3.org/2000/svg" xmlns:xlink="http://www.w3.org/1999/xlink" x="0px" y="0px"
	 viewBox="0 0 244.3 244.3" style="enable-background:new 0 0 244.3 244.3;" xml:space="preserve">
<style type="text/css">
	.st0{fill:url(#SVGID_1_);}
	.st1{fill:#E1A687;}
	.st2{opacity:0.6;fill:url(#SVGID_2_);}
	.st3{opacity:0.6;fill:url(#SVGID_3_);}
	.st4{fill:url(#SVGID_4_);}
	.st5{fill:#CD7B62;}
	.st6{fill:#91594C;}
	.st7{fill:url(#SVGID_5_);}
	.st8{fill:#BA534B;}
	.st9{fill:#C54037;}
	.st10{fill:#D3514A;}
	.st11{fill:#D3E9F4;}
	.st12{fill:#E1BB60;}
	.st13{fill:#78E6F9;}
	.st14{opacity:0.8;fill:#78E6F9;}
	.st15{fill:none;stroke:#CD7B62;stroke-miterlimit:10;}
	.st16{clip-path:url(#SVGID_7_);fill:#A4F6FF;}
	.st17{clip-path:url(#SVGID_9_);}
	.st18{fill:#A4F6FF;}
	.st19{fill:url(#SVGID_10_);}
	.st20{opacity:0.6;fill:url(#SVGID_11_);}
	.st21{opacity:0.6;fill:url(#SVGID_12_);}
	.st22{fill:url(#SVGID_13_);}
	.st23{fill:url(#SVGID_14_);}
	.st24{clip-path:url(#SVGID_16_);fill:#A4F6FF;}
	.st25{clip-path:url(#SVGID_18_);}
	.st26{fill:url(#SVGID_19_);}
	.st27{opacity:0.6;fill:url(#SVGID_20_);}
	.st28{fill:url(#SVGID_21_);}
	.st29{clip-path:url(#SVGID_23_);fill:#62933F;}
	.st30{clip-path:url(#SVGID_23_);fill:#231F20;}
	.st31{fill:url(#SVGID_24_);}
	.st32{clip-path:url(#SVGID_26_);fill:#62933F;}
	.st33{clip-path:url(#SVGID_26_);fill:#231F20;}
	.st34{opacity:0.6;fill:url(#SVGID_27_);}
	.st35{fill:url(#SVGID_28_);}
	.st36{fill:#FFFFFF;}
	.st37{fill:url(#SVGID_29_);}
	.st38{opacity:0.6;fill:url(#SVGID_30_);}
	.st39{fill:url(#SVGID_31_);}
	.st40{clip-path:url(#SVGID_33_);fill:#62933F;}
	.st41{clip-path:url(#SVGID_33_);fill:#231F20;}
	.st42{fill:url(#SVGID_34_);}
	.st43{clip-path:url(#SVGID_36_);fill:#62933F;}
	.st44{clip-path:url(#SVGID_36_);fill:#231F20;}
	.st45{opacity:0.6;fill:url(#SVGID_37_);}
	.st46{fill:url(#SVGID_38_);}
	.st47{fill:url(#SVGID_39_);}
	.st48{opacity:0.6;fill:url(#SVGID_40_);}
	.st49{fill:url(#SVGID_41_);}
	.st50{clip-path:url(#SVGID_43_);fill:#62933F;}
	.st51{clip-path:url(#SVGID_43_);fill:#231F20;}
	.st52{fill:url(#SVGID_44_);}
	.st53{clip-path:url(#SVGID_46_);fill:#62933F;}
	.st54{clip-path:url(#SVGID_46_);fill:#231F20;}
	.st55{opacity:0.6;fill:url(#SVGID_47_);}
	.st56{fill:url(#SVGID_48_);}
	.st57{fill:url(#SVGID_49_);}
	.st58{fill:url(#SVGID_50_);}
	.st59{opacity:0.6;fill:url(#SVGID_51_);}
	.st60{fill:url(#SVGID_52_);}
	.st61{clip-path:url(#SVGID_54_);fill:#62933F;}
	.st62{clip-path:url(#SVGID_54_);fill:#231F20;}
	.st63{fill:url(#SVGID_55_);}
	.st64{clip-path:url(#SVGID_57_);fill:#62933F;}
	.st65{clip-path:url(#SVGID_57_);fill:#231F20;}
	.st66{opacity:0.6;fill:url(#SVGID_58_);}
	.st67{fill:url(#SVGID_59_);}
	.st68{fill:url(#SVGID_60_);}
	.st69{fill:#E37830;}
	.st70{fill:#E0902F;}
	.st71{fill:url(#SVGID_61_);}
	.st72{fill:url(#SVGID_62_);}
	.st73{fill:#83441E;}
	.st74{opacity:0.2;fill:#E37830;}
	.st75{fill:#DDA447;}
	.st76{opacity:0.7;fill:#F7E8D3;}
	.st77{fill:#BE8739;}
	.st78{fill:#F3FAFD;}
	.st79{opacity:0.7;fill:url(#SVGID_63_);}
	.st80{fill:#EEBB72;}
	.st81{fill:none;}
	.st82{fill:url(#SVGID_64_);}
	.st83{fill:url(#SVGID_65_);}
	.st84{fill:url(#SVGID_66_);}
	.st85{fill:url(#SVGID_67_);}
	.st86{fill:url(#SVGID_68_);}
	.st87{fill:url(#SVGID_69_);}
	.st88{fill:url(#SVGID_70_);}
	.st89{fill:url(#SVGID_71_);}
	.st90{fill:url(#SVGID_72_);}
	.st91{fill:url(#SVGID_73_);}
	.st92{fill:url(#SVGID_74_);}
	.st93{fill:url(#SVGID_75_);}
	.st94{fill:url(#SVGID_76_);}
	.st95{fill:url(#SVGID_77_);}
	.st96{fill:url(#SVGID_78_);}
	.st97{fill:url(#SVGID_79_);}
	.st98{fill:url(#SVGID_80_);}
	.st99{fill:url(#SVGID_81_);}
	.st100{fill:url(#SVGID_82_);}
	.st101{fill:url(#SVGID_83_);}
	.st102{fill:#EA833D;}
	.st103{fill:url(#SVGID_84_);}
	.st104{fill:url(#SVGID_85_);}
	.st105{fill:url(#SVGID_86_);}
	.st106{fill:url(#SVGID_87_);}
	.st107{fill:#A2E8F9;}
	.st108{fill:url(#SVGID_88_);}
	.st109{fill:url(#SVGID_89_);}
	.st110{opacity:0.7;fill:url(#SVGID_90_);}
	.st111{fill:url(#SVGID_91_);}
	.st112{fill:url(#SVGID_92_);}
	.st113{fill:url(#SVGID_93_);}
	.st114{fill:url(#SVGID_94_);}
	.st115{fill:url(#SVGID_95_);}
	.st116{fill:url(#SVGID_96_);}
	.st117{fill:url(#SVGID_97_);}
	.st118{fill:url(#SVGID_98_);}
	.st119{fill:url(#SVGID_99_);}
	.st120{fill:url(#SVGID_100_);}
	.st121{fill:url(#SVGID_101_);}
	.st122{fill:url(#SVGID_102_);}
	.st123{fill:url(#SVGID_103_);}
	.st124{fill:url(#SVGID_104_);}
	.st125{fill:url(#SVGID_105_);}
	.st126{fill:url(#SVGID_106_);}
	.st127{fill:url(#SVGID_107_);}
	.st128{fill:url(#SVGID_108_);}
	.st129{fill:url(#SVGID_109_);}
	.st130{fill:url(#SVGID_110_);}
	.st131{fill:url(#SVGID_111_);}
	.st132{fill:url(#SVGID_112_);}
	.st133{fill:url(#SVGID_113_);}
	.st134{fill:url(#SVGID_114_);}
	.st135{fill:url(#SVGID_115_);}
	.st136{fill:url(#SVGID_116_);}
	.st137{opacity:0.7;fill:url(#SVGID_117_);}
	.st138{fill:url(#SVGID_118_);}
	.st139{fill:url(#SVGID_119_);}
	.st140{fill:url(#SVGID_120_);}
	.st141{fill:url(#SVGID_121_);}
	.st142{fill:url(#SVGID_122_);}
	.st143{fill:url(#SVGID_123_);}
	.st144{fill:url(#SVGID_124_);}
	.st145{fill:url(#SVGID_125_);}
	.st146{fill:url(#SVGID_126_);}
	.st147{fill:url(#SVGID_127_);}
	.st148{fill:url(#SVGID_128_);}
	.st149{fill:url(#SVGID_129_);}
	.st150{fill:url(#SVGID_130_);}
	.st151{fill:url(#SVGID_131_);}
	.st152{fill:url(#SVGID_132_);}
	.st153{fill:url(#SVGID_133_);}
	.st154{fill:url(#SVGID_134_);}
	.st155{fill:url(#SVGID_135_);}
	.st156{fill:url(#SVGID_136_);}
	.st157{fill:url(#SVGID_137_);}
	.st158{fill:url(#SVGID_138_);}
	.st159{fill:url(#SVGID_139_);}
	.st160{fill:url(#SVGID_140_);}
	.st161{fill:url(#SVGID_141_);}
	.st162{fill:#BF8D43;}
	.st163{fill:url(#SVGID_142_);}
	.st164{fill:url(#SVGID_143_);}
	.st165{opacity:0.7;fill:url(#SVGID_144_);}
	.st166{fill:url(#SVGID_145_);}
	.st167{fill:url(#SVGID_146_);}
	.st168{fill:url(#SVGID_147_);}
	.st169{fill:url(#SVGID_148_);}
	.st170{fill:url(#SVGID_149_);}
	.st171{fill:url(#SVGID_150_);}
	.st172{fill:url(#SVGID_151_);}
	.st173{fill:url(#SVGID_152_);}
	.st174{fill:url(#SVGID_153_);}
	.st175{fill:url(#SVGID_154_);}
	.st176{fill:url(#SVGID_155_);}
	.st177{fill:url(#SVGID_156_);}
	.st178{fill:url(#SVGID_157_);}
	.st179{fill:url(#SVGID_158_);}
	.st180{fill:url(#SVGID_159_);}
	.st181{fill:url(#SVGID_160_);}
	.st182{fill:url(#SVGID_161_);}
	.st183{fill:url(#SVGID_162_);}
	.st184{fill:url(#SVGID_163_);}
	.st185{fill:url(#SVGID_164_);}
	.st186{fill:url(#SVGID_165_);}
	.st187{fill:url(#SVGID_166_);}
	.st188{fill:url(#SVGID_167_);}
	.st189{fill:url(#SVGID_168_);}
	.st190{fill:url(#SVGID_169_);}
	.st191{fill:url(#SVGID_170_);}
	.st192{opacity:0.7;fill:url(#SVGID_171_);}
	.st193{fill:url(#SVGID_172_);}
	.st194{fill:url(#SVGID_173_);}
	.st195{fill:url(#SVGID_174_);}
	.st196{fill:url(#SVGID_175_);}
	.st197{fill:url(#SVGID_176_);}
	.st198{fill:url(#SVGID_177_);}
	.st199{fill:url(#SVGID_178_);}
	.st200{fill:url(#SVGID_179_);}
	.st201{fill:url(#SVGID_180_);}
	.st202{fill:url(#SVGID_181_);}
	.st203{fill:url(#SVGID_182_);}
	.st204{fill:url(#SVGID_183_);}
	.st205{fill:url(#SVGID_184_);}
	.st206{fill:url(#SVGID_185_);}
	.st207{fill:url(#SVGID_186_);}
	.st208{fill:url(#SVGID_187_);}
	.st209{fill:url(#SVGID_188_);}
	.st210{fill:url(#SVGID_189_);}
	.st211{fill:url(#SVGID_190_);}
	.st212{fill:url(#SVGID_191_);}
	.st213{fill:url(#SVGID_192_);}
	.st214{fill:url(#SVGID_193_);}
	.st215{fill:url(#SVGID_194_);}
	.st216{fill:url(#SVGID_195_);}
	.st217{fill:url(#SVGID_196_);}
	.st218{fill:url(#SVGID_197_);}
	.st219{opacity:0.7;fill:url(#SVGID_198_);}
	.st220{fill:url(#SVGID_199_);}
	.st221{fill:url(#SVGID_200_);}
	.st222{fill:url(#SVGID_201_);}
	.st223{fill:url(#SVGID_202_);}
	.st224{fill:url(#SVGID_203_);}
	.st225{fill:url(#SVGID_204_);}
	.st226{fill:url(#SVGID_205_);}
	.st227{fill:url(#SVGID_206_);}
	.st228{fill:url(#SVGID_207_);}
	.st229{fill:url(#SVGID_208_);}
	.st230{fill:url(#SVGID_209_);}
	.st231{fill:url(#SVGID_210_);}
	.st232{fill:url(#SVGID_211_);}
	.st233{fill:url(#SVGID_212_);}
	.st234{fill:url(#SVGID_213_);}
	.st235{fill:url(#SVGID_214_);}
	.st236{fill:url(#SVGID_215_);}
	.st237{fill:url(#SVGID_216_);}
	.st238{fill:url(#SVGID_217_);}
	.st239{fill:url(#SVGID_218_);}
	.st240{fill:url(#SVGID_219_);}
	.st241{fill:url(#SVGID_220_);}
	.st242{fill:url(#SVGID_221_);}
	.st243{fill:url(#SVGID_222_);}
	.st244{fill:#E8492D;}
	.st245{fill:#E7E2DE;}
	.st246{fill:url(#SVGID_223_);}
	.st247{fill:#CECDCB;}
	.st248{fill:#818282;}
	.st249{fill:#CECDCB;stroke:#CECDCB;stroke-miterlimit:10;}
	.st250{fill:#E8E8E8;}
	.st251{fill:#EFEFEF;}
	.st252{fill:url(#SVGID_224_);}
	.st253{fill:url(#SVGID_225_);}
	.st254{fill:#FFFF00;}
	.st255{fill:#22AF17;}
	.st256{opacity:0.7;}
	.st257{fill:#FFFF2B;}
	.st258{fill:#FFFF55;}
	.st259{fill:#FFFF80;}
	.st260{fill:#FFFFAA;}
	.st261{fill:#FFFFD4;}
	.st262{fill:url(#SVGID_226_);}
	.st263{fill:url(#SVGID_227_);}
	.st264{fill:url(#SVGID_228_);}
	.st265{fill:#232323;}
	.st266{fill:#3D3D3D;}
	.st267{fill:#C66259;}
	.st268{opacity:0.2;fill:#353535;}
	.st269{fill:#817979;}
	.st270{opacity:0.3;}
	.st271{fill:#353535;}
	.st272{fill:#382B28;}
	.st273{fill:#231F20;}
	.st274{opacity:0.1;}
	.st275{fill:url(#SVGID_229_);}
	.st276{fill:url(#SVGID_230_);}
	.st277{fill:#2B2B2B;}
	.st278{fill:#161616;}
	.st279{opacity:0.5;}
	.st280{fill:#A6A8AB;}
	.st281{fill:#E2E2E2;}
	.st282{opacity:0.3;fill:#353535;}
	.st283{fill:url(#SVGID_231_);}
	.st284{fill:url(#SVGID_232_);}
	.st285{fill:url(#SVGID_233_);}
	.st286{fill:url(#SVGID_234_);}
	.st287{fill:#B54C47;}
	.st288{opacity:0.8;fill:#88DFED;}
	.st289{fill:#E3E4E5;}
	.st290{fill:url(#SVGID_235_);}
	.st291{fill:url(#SVGID_236_);}
	.st292{fill:url(#SVGID_237_);}
	.st293{fill:url(#SVGID_238_);}
	.st294{opacity:0.2;}
	.st295{fill:#6D5C57;}
	.st296{fill:#68493F;}
	.st297{opacity:0.2;fill:url(#SVGID_239_);}
	.st298{opacity:0.2;fill:url(#SVGID_240_);}
	.st299{opacity:0.5;fill:#6D5C57;}
	.st300{fill:url(#SVGID_241_);}
	.st301{fill:#7C8B8E;}
	.st302{fill:url(#SVGID_242_);}
	.st303{fill:url(#SVGID_243_);}
	.st304{fill:#3D2219;}
	.st305{fill:#332E2D;}
	.st306{fill:#E6E6E6;}
	.st307{fill:url(#SVGID_244_);}
	.st308{fill:url(#SVGID_245_);}
	.st309{fill:url(#SVGID_246_);}
	.st310{fill:url(#SVGID_247_);}
	.st311{opacity:0.2;fill:url(#SVGID_248_);}
	.st312{opacity:0.2;fill:url(#SVGID_249_);}
	.st313{fill:url(#SVGID_250_);}
	.st314{fill:url(#SVGID_251_);}
	.st315{fill:url(#SVGID_252_);}
	.st316{fill:url(#SVGID_253_);}
	.st317{fill:url(#SVGID_254_);}
	.st318{fill:url(#SVGID_255_);}
	.st319{fill:url(#SVGID_256_);}
	.st320{fill:none;stroke:url(#SVGID_257_);stroke-miterlimit:10;}
	.st321{fill:url(#SVGID_258_);}
	.st322{fill:#301812;}
	.st323{opacity:0.2;fill:url(#SVGID_259_);}
	.st324{opacity:0.2;fill:url(#SVGID_260_);}
	.st325{fill:url(#SVGID_261_);}
	.st326{fill:#B0CDD1;}
	.st327{fill:url(#SVGID_262_);}
	.st328{fill:url(#SVGID_263_);}
	.st329{fill:none;stroke:#231F20;stroke-width:6;stroke-miterlimit:10;}
	.st330{fill:url(#SVGID_264_);}
	.st331{fill:url(#SVGID_265_);}
	.st332{fill:url(#SVGID_266_);}
	.st333{fill:url(#SVGID_267_);}
	.st334{fill:url(#SVGID_268_);}
	.st335{fill:url(#SVGID_269_);}
	.st336{fill:url(#SVGID_270_);}
	.st337{fill:url(#SVGID_271_);}
	.st338{fill:url(#SVGID_272_);}
	.st339{fill:url(#SVGID_273_);}
	.st340{opacity:0.2;fill:url(#SVGID_274_);}
	.st341{opacity:0.2;fill:url(#SVGID_275_);}
	.st342{fill:url(#SVGID_276_);}
	.st343{fill:url(#SVGID_277_);}
	.st344{fill:url(#SVGID_278_);}
	.st345{fill:url(#SVGID_279_);}
	.st346{fill:url(#SVGID_280_);}
	.st347{fill:url(#SVGID_281_);}
	.st348{fill:url(#SVGID_282_);}
	.st349{opacity:0.2;fill:url(#SVGID_283_);}
	.st350{opacity:0.2;fill:url(#SVGID_284_);}
	.st351{fill:url(#SVGID_285_);}
	.st352{fill:url(#SVGID_286_);}
	.st353{fill:url(#SVGID_287_);}
	.st354{fill:url(#SVGID_288_);}
	.st355{fill:url(#SVGID_289_);}
	.st356{fill:url(#SVGID_290_);}
	.st357{fill:url(#SVGID_291_);}
	.st358{fill:none;stroke:url(#SVGID_292_);stroke-miterlimit:10;}
	.st359{fill:url(#SVGID_293_);}
	.st360{opacity:0.2;fill:url(#SVGID_294_);}
	.st361{opacity:0.2;fill:url(#SVGID_295_);}
	.st362{fill:url(#SVGID_296_);}
	.st363{fill:url(#SVGID_297_);}
	.st364{fill:url(#SVGID_298_);}
</style>
<g id="Baby_sad">
</g>
<g id="Baby_pleased">
</g>
<g id="Baby_ecstatic">
</g>
<g id="Fish_dead">
</g>
<g id="Fish_pleased">
</g>
<g id="Fish_ecstatic">
</g>
<g id="Robot_destoyed">
</g>
<g id="Robot_pleased">
</g>
<g id="Robot_ecstatic">
</g>
<g id="Sad_Dog">
</g>
<g id="Dog">
</g>
<g id="Dog_ecstatic">
</g>
<g id="Old_man_sad">
</g>
<g id="Old_man_pleased">
</g>
<g id="Old_man_ecstatic">
	<g>
		<path class="st265" d="M11.2,71.5c0,0,25.8,13.7,42.6,6.1C70.6,70,73.6,43.4,73.6,43.4l-5.2-3.9l-17.7,7.9L11.2,71.5z"/>
		<path class="st265" d="M233,69.4c0,0-25.8,13.7-42.6,6.1s-19.8-34.2-19.8-34.2l5.2-3.9l17.7,7.9L233,69.4z"/>
		<path class="st266" d="M211.2,131.3c0,61.2-25.7,84.3-86.9,84.3s-93.8-21-93.8-82.1S63.1,28.6,124.3,28.6S211.2,70.1,211.2,131.3z
			"/>
		<path class="st267" d="M124.6,190.6L124.6,190.6c-8.5,0-15.4-6.9-15.4-15.4v-1.7H140v1.7C140,183.7,133.1,190.6,124.6,190.6z"/>
		<ellipse class="st268" cx="77.2" cy="107.5" rx="23.9" ry="25.2"/>
		<ellipse class="st268" cx="168.2" cy="107.5" rx="23.9" ry="25.2"/>
		<circle class="st269" cx="78.5" cy="104.2" r="21.1"/>
		<circle class="st269" cx="167.3" cy="104.2" r="21.1"/>
		<g class="st270">
			<g>
				<path class="st265" d="M101.1,190.6c1.8,5,5.3,8.6,9.3,10.5c4.1,2,8.8,2.5,13.6,2.5c4.7-0.1,9.2-1,12.9-3.6
					c3.7-2.6,6.5-6.8,8.2-11.8c0.6,5.2-1.1,11.1-5.3,15.2c-2,2.1-4.6,3.7-7.4,4.6c-0.7,0.2-1.4,0.5-2.1,0.7l-2.1,0.4
					c-1.4,0.3-2.8,0.3-4.2,0.4c-5.5,0.1-11.3-0.9-16.1-4.4C103.1,201.8,100.3,195.9,101.1,190.6z"/>
			</g>
		</g>
		<path class="st271" d="M153.8,198.6L153.8,198.6c-14.3,0-27.9-10.5-29.6-24.7l0,0c-1.6,14.2-15.2,24.7-29.5,24.7h0
			c-15.5,0-28.2-12.6-28.2-28.2v-9.8c0-27.1,22-49.1,49.1-49.1h17.2c27.1,0,49.1,22,49.1,49.1v9.8C182,186,169.4,198.6,153.8,198.6z
			"/>
		<path class="st282" d="M153.8,198.6L153.8,198.6c-14.3,0-27.9-10.5-29.6-24.7l0,0c-1.6,14.2-15.2,24.7-29.5,24.7h0
			c-15.5,0-28.2-12.6-28.2-28.2v-9.8c0-27.1,22-49.1,49.1-49.1h17.2c27.1,0,49.1,22,49.1,49.1v9.8C182,186,169.4,198.6,153.8,198.6z
			"/>
		<g>
			<path class="st265" d="M68.4,138.7c5.8-9.6,13.9-17.8,23.4-24.2c9.4-6.4,20.9-10.8,33-10.9c6,0,11.9,1.2,17.5,3
				c5.5,2,10.7,4.7,15.5,7.9c9.4,6.5,17.5,14.6,23.4,24.1c-8.6-7.1-17.5-13.4-26.9-18.4c-4.8-2.3-9.6-4.4-14.5-5.9
				c-2.5-0.5-5-1.4-7.5-1.6c-2.5-0.5-5-0.5-7.5-0.6c-10.1,0-20.1,3.2-29.6,8C85.7,125.1,76.9,131.5,68.4,138.7z"/>
		</g>
		<g>
			<path class="st265" d="M44.7,99.9c-0.2-3.8,0.4-7.6,1.3-11.4c1-3.7,2.4-7.5,4.6-10.8c4.1-6.8,11.4-12.3,19.6-13.8l3-0.6
				c1-0.1,2-0.1,3-0.2c2-0.2,4,0,6,0.1c4,0.5,8.2,1.6,11.7,3.7c1.8,1.1,3.4,2.4,4.8,3.9c1.4,1.5,2.6,3.1,3.6,4.8
				c1,1.7,1.9,3.4,2.7,5.1c0.9,1.7,1.6,3.4,3,4.6c-1.9-0.6-3.3-2.2-4.6-3.5c-1.3-1.4-2.5-2.8-3.8-4.1c-2.5-2.6-5.2-4.7-8.3-6.1
				c-3-1.4-6.4-1.9-9.8-2.1c-1.7,0-3.4-0.1-5.2,0.1c-1.8,0.1-3.4,0.4-5.1,0.6c-6.7,1.1-12.4,5-16.9,10.3
				C50.2,86,47.1,92.8,44.7,99.9z"/>
		</g>
		<g>
			<path class="st265" d="M201.8,99.9c-2.3-7.2-5.5-13.9-9.9-19.4c-4.5-5.4-10.2-9.2-16.9-10.3c-1.7-0.3-3.3-0.6-5.1-0.6
				c-1.8-0.2-3.5-0.1-5.2-0.1c-3.4,0.2-6.7,0.8-9.8,2.1c-3,1.3-5.8,3.4-8.3,6.1c-1.3,1.3-2.5,2.7-3.8,4.1c-1.3,1.4-2.7,2.9-4.6,3.5
				c1.5-1.2,2.2-3,3-4.6c0.8-1.7,1.7-3.4,2.7-5.1c1-1.7,2.2-3.3,3.6-4.8c1.4-1.5,3.1-2.8,4.8-3.9c3.6-2.2,7.7-3.3,11.7-3.7
				c2-0.1,4.1-0.3,6-0.1c1,0.1,2,0,3,0.2l3,0.6c8.2,1.5,15.5,7,19.6,13.8c2.2,3.4,3.6,7.1,4.6,10.8C201.4,92.3,202,96.1,201.8,99.9z
				"/>
		</g>
		<g>
			<path class="st265" d="M102.9,106.4c2-3.3,5-6,8.5-8c3.4-2,7.4-3.1,11.5-3.2c2-0.1,4,0.2,6,0.5c1.9,0.5,3.9,1.1,5.7,2
				c3.6,1.8,6.7,4.5,8.5,8c-2.6-2.8-5.9-4.8-9.3-6.2c-3.4-1.3-7.1-1.9-10.8-1.8c-3.7,0-7.3,0.9-10.7,2.4
				C108.8,101.6,105.6,103.7,102.9,106.4z"/>
		</g>
		<circle class="st272" cx="72.9" cy="108" r="12.3"/>
		<circle class="st273" cx="72.9" cy="108" r="6.8"/>
		<circle class="st272" cx="173.7" cy="107.5" r="12.3"/>
		<circle class="st273" cx="174.1" cy="107.9" r="6.8"/>
		<g class="st274">
			<path class="st271" d="M188.4,149.8c2.5,14.3-1.7,38.9-4.8,52.3c19-12.8,27.6-35.5,27.6-70.7c0-2.6-0.1-5.1-0.2-7.5
				C203.4,139.7,188.4,149.8,188.4,149.8z"/>
			<path class="st271" d="M69.5,206.6c-12.4-17.8-14.8-56.8-14.8-56.8c-14-4.7-20.8-14.8-24.1-23.8c-0.1,2.5-0.2,5-0.2,7.6
				C30.5,172.6,43.9,195.3,69.5,206.6z"/>
		</g>
		<g>
			<path class="st278" d="M134.8,116.4h-21.1c-6.3,0-11.3,5.1-11.3,11.3v0.9c0,8.6,5,16.1,12.3,19.7c2.1,1,4.5-1.1,3.8-3.4l-0.2-0.6
				c0,0-2.7,1.1-6.3-5c-1.2-2.1-1-3.6-0.3-4.7c1.6-2.2,5.2-1.3,5.9,1.3l4,14.3c0.8,0.1,1.7,0.2,2.6,0.2c1.2,0,2.3-0.1,3.5-0.3
				l3.9-14.2c0.7-2.6,4.3-3.5,5.9-1.3c0.8,1.1,1,2.6-0.3,4.7c-3.5,6-6.3,5-6.3,5l0,0c-0.7,2.4,1.9,4.5,4.1,3.2
				c6.6-3.8,11-10.8,11-19v-0.9C146.2,121.5,141.1,116.4,134.8,116.4z"/>
		</g>
		<g class="st279">
			<path class="st280" d="M141.6,125.7c-0.3,0-0.6-0.1-0.8-0.3c0,0-3.4-3.6-16-3.4c-12.8,0.2-16.9,3.4-16.9,3.5
				c-0.4,0.3-1.1,0.3-1.4-0.1c-0.4-0.4-0.3-1.1,0.1-1.4c0.2-0.2,4.5-3.7,18.2-3.9c0.3,0,0.7,0,1,0c12.9,0,16.5,3.9,16.6,4.1
				c0.4,0.4,0.3,1.1-0.1,1.4C142.1,125.6,141.8,125.7,141.6,125.7z"/>
		</g>
		<linearGradient id="SVGID_1_" gradientUnits="userSpaceOnUse" x1="60.1162" y1="83.7995" x2="75.017" y2="100.3559">
			<stop  offset="0" style="stop-color:#FFFFFF"/>
			<stop  offset="1" style="stop-color:#FFFFFF;stop-opacity:0"/>
		</linearGradient>
		<path class="st0" d="M65.3,115.6c-6.3-7.3-5.5-18.3,1.8-24.5c7.3-6.3,18.3-5.5,24.5,1.8L65.3,115.6z"/>
		<linearGradient id="SVGID_2_" gradientUnits="userSpaceOnUse" x1="149.4391" y1="83.9663" x2="164.3399" y2="100.5227">
			<stop  offset="0" style="stop-color:#FFFFFF"/>
			<stop  offset="1" style="stop-color:#FFFFFF;stop-opacity:0"/>
		</linearGradient>
		<path style="fill:url(#SVGID_2_);" d="M154.6,115.8c-6.3-7.3-5.5-18.3,1.8-24.5c7.3-6.3,18.3-5.5,24.5,1.8L154.6,115.8z"/>
		<circle class="st36" cx="69.8" cy="113.3" r="2.3"/>
		<circle class="st36" cx="76.5" cy="103.3" r="4.2"/>
		<circle class="st36" cx="177.9" cy="103.3" r="4.2"/>
		<circle class="st36" cx="170.4" cy="113.3" r="2.3"/>
		<g>
			<path class="st265" d="M61.1,61.2c4.6-3.4,9.8-6.1,15.3-7.8c5.5-1.6,11.5-2.2,17.3-0.6c2.8,0.8,5.6,2.1,7.9,4
				c2.3,1.8,4.3,4,6.3,6c1.9,2.1,3.9,4,6.2,5.4c2.3,1.4,4.9,2,7.6,2.1c2.7,0.1,5.4-0.2,7.7-1.4c2.3-1.2,4.2-3.2,5.9-5.4
				c1.7-2.2,3.1-4.7,5-7c1.9-2.3,4.6-4.2,7.7-4.6c3-0.3,5.8-0.2,8.7-0.3c2.9,0,5.8,0.2,8.6,0.7c5.7,1.1,11,3.6,15.9,6.5
				c-5.1-2.5-10.4-4.7-16-5.4c-5.5-0.8-11.4-0.4-16.8,0.2c-2.6,0.4-4.8,2-6.5,4.1c-1.7,2.1-3.1,4.6-4.8,7c-1.7,2.4-3.8,4.7-6.5,6.1
				c-2.7,1.5-5.9,1.9-8.8,1.8c-3-0.1-6-0.9-8.6-2.5c-2.6-1.6-4.7-3.7-6.6-5.8c-1.9-2.1-3.8-4.2-6-5.9c-2.1-1.7-4.6-3-7.2-3.9
				c-5.3-1.7-11.1-1.4-16.5,0C71.2,55.7,65.9,58.1,61.1,61.2z"/>
		</g>
		<g>
			<path class="st265" d="M80.9,49.8c2.8-3.2,6.2-6,10.2-7.8c2-0.9,4.2-1.4,6.4-1.5c2.3,0,4.5,0.5,6.5,1.6c2,1.1,3.7,2.7,5,4.5
				c1.3,1.7,2.5,3.6,3.6,5.4c2.2,3.5,4.9,7,8.8,7c1.9,0.1,3.7-0.4,5.1-1.7c1.4-1.2,2.5-3,3.4-4.9l2.7-5.8c1-1.9,2.1-4,4.2-5.3
				c1-0.7,2.4-0.9,3.4-0.9l3.2-0.1c2.2,0,4.4,0.1,6.5,0.6c4.3,1.1,7.9,3.7,11,6.6c-3.5-2.4-7.2-4.8-11.3-5.5c-2-0.4-4.1-0.4-6.2-0.3
				l-3.2,0.3c-1.1,0.1-1.8,0.3-2.6,0.8c-1.5,1-2.5,2.9-3.4,4.7l-2.6,5.8c-0.9,2-2.1,4-3.8,5.6c-1.7,1.7-4.3,2.5-6.7,2.3
				c-2.4-0.1-4.7-1.2-6.4-2.8c-1.7-1.6-2.9-3.5-4-5.3c-2.3-3.6-4.3-7.4-7.8-9.5c-1.7-1-3.7-1.6-5.7-1.7c-2,0-4.1,0.4-6,1.1
				C87.6,44.5,84.1,47,80.9,49.8z"/>
		</g>
		<path class="st266" d="M75.2,42.5l-6.8-5.2c0,0-64.6,27.5-66.9,35.6c0,0,4.1,22.3,8.8,27c0,0,27.9-51.8,57.3-58.4l6.2,3.2
			L75.2,42.5z"/>
		<path class="st266" d="M169.1,40.1l6.8-5.2c0,0,64.6,27.5,66.9,35.6c0,0-4.1,22.3-8.8,27c0,0-27.9-51.8-57.3-58.4l-6.2,3.2
			L169.1,40.1z"/>
		<path class="st271" d="M99.1,199.5c0,0-2.9-32,25-31.7c27.9,0.3,26.4,31.3,26.4,31.3S121.6,210.5,99.1,199.5z"/>
		<g>
			<path class="st265" d="M146.7,179.1c0.5-2.3-0.4-4.7-2.3-6c-1.9-1.3-4.1-1.7-6.4-2.1c-2.3-0.4-4.6-0.9-6.9-1.5
				c-2.3-0.6-4.5-1.3-6.8-2.3l0,0l1.1,0c-2.3,0.9-4.5,1.6-6.8,2.3c-2.3,0.6-4.6,1.1-6.9,1.5c-2.3,0.4-4.6,0.8-6.5,2.1
				c-1.9,1.3-2.8,3.7-2.3,6c-0.7-2.2,0-4.9,1.9-6.5c1.9-1.6,4.4-2.3,6.6-2.8c2.2-0.6,4.5-1.3,6.6-2.1c2.2-0.8,4.3-1.7,6.3-2.7
				l0.6-0.3l0.5,0.3l0,0c1.9,1,4.1,1.9,6.3,2.7c2.2,0.8,4.4,1.5,6.6,2.1c2.2,0.6,4.7,1.2,6.5,2.8
				C146.7,174.2,147.4,176.8,146.7,179.1z"/>
		</g>
		<g>
			<rect x="123.5" y="153.8" class="st265" width="2.5" height="11.5"/>
		</g>
		<circle class="st265" cx="84" cy="148.5" r="0.8"/>
		<circle class="st265" cx="91.7" cy="151.3" r="0.8"/>
		<circle class="st265" cx="86.2" cy="154.1" r="0.8"/>
		<circle class="st265" cx="88.9" cy="148.5" r="0.8"/>
		<circle class="st265" cx="79.2" cy="154.1" r="0.8"/>
		<circle class="st265" cx="87.8" cy="161.6" r="0.8"/>
		<circle class="st265" cx="94" cy="157" r="0.8"/>
		<circle class="st265" cx="101.6" cy="157.2" r="0.8"/>
		<circle class="st265" cx="99.5" cy="152.9" r="0.8"/>
		<circle class="st265" cx="97.2" cy="146.3" r="0.8"/>
		<circle class="st265" cx="96.7" cy="162.9" r="0.8"/>
		<circle class="st265" cx="90.7" cy="165.3" r="0.8"/>
		<circle class="st265" cx="80" cy="165" r="0.8"/>
		<circle class="st265" cx="85.6" cy="169.1" r="0.8"/>
		<circle class="st265" cx="148.6" cy="147.3" r="0.8"/>
		<circle class="st265" cx="156.3" cy="150.1" r="0.8"/>
		<circle class="st265" cx="150.8" cy="152.9" r="0.8"/>
		<circle class="st265" cx="153.5" cy="147.3" r="0.8"/>
		<circle class="st265" cx="143.8" cy="152.9" r="0.8"/>
		<circle class="st265" cx="152.4" cy="160.4" r="0.8"/>
		<circle class="st265" cx="158.6" cy="155.7" r="0.8"/>
		<circle class="st265" cx="166.2" cy="156" r="0.8"/>
		<circle class="st265" cx="164.1" cy="151.7" r="0.8"/>
		<circle class="st265" cx="161.7" cy="145.1" r="0.8"/>
		<circle class="st265" cx="161.3" cy="161.7" r="0.8"/>
		<circle class="st265" cx="155.3" cy="164.1" r="0.8"/>
		<circle class="st265" cx="144.6" cy="163.8" r="0.8"/>
		<circle class="st265" cx="150.2" cy="167.9" r="0.8"/>
		<g class="st270">
			<path class="st265" d="M114.8,186.3l-4.1-4.2c0.3-0.2,6.2-6,13.9-6c0,0,0,0,0,0c7.5,0,12.8,4,13,4.2l-3.6,4.7c0,0-4-3-9.4-3
				c0,0,0,0,0,0C119.3,182,114.8,186.3,114.8,186.3z"/>
		</g>
		<path class="st281" d="M105.9,175c0,0-3-9.2-0.4-13.1c0.8-0.1,3.8,8.3,5.1,9.2C107.7,172.8,106.5,174.4,105.9,175z"/>
	</g>
</g>
</svg>
