<?xml version="1.0" encoding="utf-8"?>
<!-- Generator: Adobe Illustrator 22.1.0, SVG Export Plug-In . SVG Version: 6.00 Build 0)  -->
<svg version="1.1" xmlns="http://www.w3.org/2000/svg" xmlns:xlink="http://www.w3.org/1999/xlink" x="0px" y="0px"
	 viewBox="0 0 272.3 272.3" style="enable-background:new 0 0 272.3 272.3;" xml:space="preserve">
<style type="text/css">
	.st0{fill:url(#SVGID_1_);}
	.st1{fill:#E1A687;}
	.st2{opacity:0.6;fill:url(#SVGID_2_);}
	.st3{opacity:0.6;fill:url(#SVGID_3_);}
	.st4{fill:url(#SVGID_4_);}
	.st5{fill:#CD7B62;}
	.st6{fill:#91594C;}
	.st7{fill:url(#SVGID_5_);}
	.st8{fill:#BA534B;}
	.st9{fill:#C54037;}
	.st10{fill:#D3514A;}
	.st11{fill:#D3E9F4;}
	.st12{fill:#E1BB60;}
	.st13{fill:#78E6F9;}
	.st14{opacity:0.8;fill:#78E6F9;}
	.st15{fill:none;stroke:#CD7B62;stroke-miterlimit:10;}
	.st16{clip-path:url(#SVGID_7_);fill:#A4F6FF;}
	.st17{clip-path:url(#SVGID_9_);}
	.st18{fill:#A4F6FF;}
	.st19{fill:url(#SVGID_10_);}
	.st20{opacity:0.6;fill:url(#SVGID_11_);}
	.st21{opacity:0.6;fill:url(#SVGID_12_);}
	.st22{fill:url(#SVGID_13_);}
	.st23{fill:url(#SVGID_14_);}
	.st24{clip-path:url(#SVGID_16_);fill:#A4F6FF;}
	.st25{clip-path:url(#SVGID_18_);}
	.st26{fill:url(#SVGID_19_);}
	.st27{opacity:0.6;fill:url(#SVGID_20_);}
	.st28{fill:url(#SVGID_21_);}
	.st29{clip-path:url(#SVGID_23_);fill:#62933F;}
	.st30{clip-path:url(#SVGID_23_);fill:#231F20;}
	.st31{fill:url(#SVGID_24_);}
	.st32{clip-path:url(#SVGID_26_);fill:#62933F;}
	.st33{clip-path:url(#SVGID_26_);fill:#231F20;}
	.st34{opacity:0.6;fill:url(#SVGID_27_);}
	.st35{fill:url(#SVGID_28_);}
	.st36{fill:#FFFFFF;}
	.st37{fill:url(#SVGID_29_);}
	.st38{opacity:0.6;fill:url(#SVGID_30_);}
	.st39{fill:url(#SVGID_31_);}
	.st40{clip-path:url(#SVGID_33_);fill:#62933F;}
	.st41{clip-path:url(#SVGID_33_);fill:#231F20;}
	.st42{fill:url(#SVGID_34_);}
	.st43{clip-path:url(#SVGID_36_);fill:#62933F;}
	.st44{clip-path:url(#SVGID_36_);fill:#231F20;}
	.st45{opacity:0.6;fill:url(#SVGID_37_);}
	.st46{fill:url(#SVGID_38_);}
	.st47{fill:url(#SVGID_39_);}
	.st48{opacity:0.6;fill:url(#SVGID_40_);}
	.st49{fill:url(#SVGID_41_);}
	.st50{clip-path:url(#SVGID_43_);fill:#62933F;}
	.st51{clip-path:url(#SVGID_43_);fill:#231F20;}
	.st52{fill:url(#SVGID_44_);}
	.st53{clip-path:url(#SVGID_46_);fill:#62933F;}
	.st54{clip-path:url(#SVGID_46_);fill:#231F20;}
	.st55{opacity:0.6;fill:url(#SVGID_47_);}
	.st56{fill:url(#SVGID_48_);}
	.st57{fill:url(#SVGID_49_);}
	.st58{fill:url(#SVGID_50_);}
	.st59{opacity:0.6;fill:url(#SVGID_51_);}
	.st60{fill:url(#SVGID_52_);}
	.st61{clip-path:url(#SVGID_54_);fill:#62933F;}
	.st62{clip-path:url(#SVGID_54_);fill:#231F20;}
	.st63{fill:url(#SVGID_55_);}
	.st64{clip-path:url(#SVGID_57_);fill:#62933F;}
	.st65{clip-path:url(#SVGID_57_);fill:#231F20;}
	.st66{opacity:0.6;fill:url(#SVGID_58_);}
	.st67{fill:url(#SVGID_59_);}
	.st68{fill:url(#SVGID_60_);}
	.st69{fill:#E37830;}
	.st70{fill:#E0902F;}
	.st71{fill:url(#SVGID_61_);}
	.st72{fill:url(#SVGID_62_);}
	.st73{fill:#83441E;}
	.st74{opacity:0.2;fill:#E37830;}
	.st75{fill:#DDA447;}
	.st76{opacity:0.7;fill:#F7E8D3;}
	.st77{fill:#BE8739;}
	.st78{fill:#F3FAFD;}
	.st79{opacity:0.7;fill:url(#SVGID_63_);}
	.st80{fill:#EEBB72;}
	.st81{fill:none;}
	.st82{fill:url(#SVGID_64_);}
	.st83{fill:url(#SVGID_65_);}
	.st84{fill:url(#SVGID_66_);}
	.st85{fill:url(#SVGID_67_);}
	.st86{fill:url(#SVGID_68_);}
	.st87{fill:url(#SVGID_69_);}
	.st88{fill:url(#SVGID_70_);}
	.st89{fill:url(#SVGID_71_);}
	.st90{fill:url(#SVGID_72_);}
	.st91{fill:url(#SVGID_73_);}
	.st92{fill:url(#SVGID_74_);}
	.st93{fill:url(#SVGID_75_);}
	.st94{fill:url(#SVGID_76_);}
	.st95{fill:url(#SVGID_77_);}
	.st96{fill:url(#SVGID_78_);}
	.st97{fill:url(#SVGID_79_);}
	.st98{fill:url(#SVGID_80_);}
	.st99{fill:url(#SVGID_81_);}
	.st100{fill:url(#SVGID_82_);}
	.st101{fill:url(#SVGID_83_);}
	.st102{fill:#EA833D;}
	.st103{fill:url(#SVGID_84_);}
	.st104{fill:url(#SVGID_85_);}
	.st105{fill:url(#SVGID_86_);}
	.st106{fill:url(#SVGID_87_);}
	.st107{fill:#A2E8F9;}
	.st108{fill:url(#SVGID_88_);}
	.st109{fill:url(#SVGID_89_);}
	.st110{opacity:0.7;fill:url(#SVGID_90_);}
	.st111{fill:url(#SVGID_91_);}
	.st112{fill:url(#SVGID_92_);}
	.st113{fill:url(#SVGID_93_);}
	.st114{fill:url(#SVGID_94_);}
	.st115{fill:url(#SVGID_95_);}
	.st116{fill:url(#SVGID_96_);}
	.st117{fill:url(#SVGID_97_);}
	.st118{fill:url(#SVGID_98_);}
	.st119{fill:url(#SVGID_99_);}
	.st120{fill:url(#SVGID_100_);}
	.st121{fill:url(#SVGID_101_);}
	.st122{fill:url(#SVGID_102_);}
	.st123{fill:url(#SVGID_103_);}
	.st124{fill:url(#SVGID_104_);}
	.st125{fill:url(#SVGID_105_);}
	.st126{fill:url(#SVGID_106_);}
	.st127{fill:url(#SVGID_107_);}
	.st128{fill:url(#SVGID_108_);}
	.st129{fill:url(#SVGID_109_);}
	.st130{fill:url(#SVGID_110_);}
	.st131{fill:url(#SVGID_111_);}
	.st132{fill:url(#SVGID_112_);}
	.st133{fill:url(#SVGID_113_);}
	.st134{fill:url(#SVGID_114_);}
	.st135{fill:url(#SVGID_115_);}
	.st136{fill:url(#SVGID_116_);}
	.st137{opacity:0.7;fill:url(#SVGID_117_);}
	.st138{fill:url(#SVGID_118_);}
	.st139{fill:url(#SVGID_119_);}
	.st140{fill:url(#SVGID_120_);}
	.st141{fill:url(#SVGID_121_);}
	.st142{fill:url(#SVGID_122_);}
	.st143{fill:url(#SVGID_123_);}
	.st144{fill:url(#SVGID_124_);}
	.st145{fill:url(#SVGID_125_);}
	.st146{fill:url(#SVGID_126_);}
	.st147{fill:url(#SVGID_127_);}
	.st148{fill:url(#SVGID_128_);}
	.st149{fill:url(#SVGID_129_);}
	.st150{fill:url(#SVGID_130_);}
	.st151{fill:url(#SVGID_131_);}
	.st152{fill:url(#SVGID_132_);}
	.st153{fill:url(#SVGID_133_);}
	.st154{fill:url(#SVGID_134_);}
	.st155{fill:url(#SVGID_135_);}
	.st156{fill:url(#SVGID_136_);}
	.st157{fill:url(#SVGID_137_);}
	.st158{fill:url(#SVGID_138_);}
	.st159{fill:url(#SVGID_139_);}
	.st160{fill:url(#SVGID_140_);}
	.st161{fill:url(#SVGID_141_);}
	.st162{fill:#BF8D43;}
	.st163{fill:url(#SVGID_142_);}
	.st164{fill:url(#SVGID_143_);}
	.st165{opacity:0.7;fill:url(#SVGID_144_);}
	.st166{fill:url(#SVGID_145_);}
	.st167{fill:url(#SVGID_146_);}
	.st168{fill:url(#SVGID_147_);}
	.st169{fill:url(#SVGID_148_);}
	.st170{fill:url(#SVGID_149_);}
	.st171{fill:url(#SVGID_150_);}
	.st172{fill:url(#SVGID_151_);}
	.st173{fill:url(#SVGID_152_);}
	.st174{fill:url(#SVGID_153_);}
	.st175{fill:url(#SVGID_154_);}
	.st176{fill:url(#SVGID_155_);}
	.st177{fill:url(#SVGID_156_);}
	.st178{fill:url(#SVGID_157_);}
	.st179{fill:url(#SVGID_158_);}
	.st180{fill:url(#SVGID_159_);}
	.st181{fill:url(#SVGID_160_);}
	.st182{fill:url(#SVGID_161_);}
	.st183{fill:url(#SVGID_162_);}
	.st184{fill:url(#SVGID_163_);}
	.st185{fill:url(#SVGID_164_);}
	.st186{fill:url(#SVGID_165_);}
	.st187{fill:url(#SVGID_166_);}
	.st188{fill:url(#SVGID_167_);}
	.st189{fill:url(#SVGID_168_);}
	.st190{fill:url(#SVGID_169_);}
	.st191{fill:url(#SVGID_170_);}
	.st192{opacity:0.7;fill:url(#SVGID_171_);}
	.st193{fill:url(#SVGID_172_);}
	.st194{fill:url(#SVGID_173_);}
	.st195{fill:url(#SVGID_174_);}
	.st196{fill:url(#SVGID_175_);}
	.st197{fill:url(#SVGID_176_);}
	.st198{fill:url(#SVGID_177_);}
	.st199{fill:url(#SVGID_178_);}
	.st200{fill:url(#SVGID_179_);}
	.st201{fill:url(#SVGID_180_);}
	.st202{fill:url(#SVGID_181_);}
	.st203{fill:url(#SVGID_182_);}
	.st204{fill:url(#SVGID_183_);}
	.st205{fill:url(#SVGID_184_);}
	.st206{fill:url(#SVGID_185_);}
	.st207{fill:url(#SVGID_186_);}
	.st208{fill:url(#SVGID_187_);}
	.st209{fill:url(#SVGID_188_);}
	.st210{fill:url(#SVGID_189_);}
	.st211{fill:url(#SVGID_190_);}
	.st212{fill:url(#SVGID_191_);}
	.st213{fill:url(#SVGID_192_);}
	.st214{fill:url(#SVGID_193_);}
	.st215{fill:url(#SVGID_194_);}
	.st216{fill:url(#SVGID_195_);}
	.st217{fill:url(#SVGID_196_);}
	.st218{fill:url(#SVGID_197_);}
	.st219{opacity:0.7;fill:url(#SVGID_198_);}
	.st220{fill:url(#SVGID_199_);}
	.st221{fill:url(#SVGID_200_);}
	.st222{fill:url(#SVGID_201_);}
	.st223{fill:url(#SVGID_202_);}
	.st224{fill:url(#SVGID_203_);}
	.st225{fill:url(#SVGID_204_);}
	.st226{fill:url(#SVGID_205_);}
	.st227{fill:url(#SVGID_206_);}
	.st228{fill:url(#SVGID_207_);}
	.st229{fill:url(#SVGID_208_);}
	.st230{fill:url(#SVGID_209_);}
	.st231{fill:url(#SVGID_210_);}
	.st232{fill:url(#SVGID_211_);}
	.st233{fill:url(#SVGID_212_);}
	.st234{fill:url(#SVGID_213_);}
	.st235{fill:url(#SVGID_214_);}
	.st236{fill:url(#SVGID_215_);}
	.st237{fill:url(#SVGID_216_);}
	.st238{fill:url(#SVGID_217_);}
	.st239{fill:url(#SVGID_218_);}
	.st240{fill:url(#SVGID_219_);}
	.st241{fill:url(#SVGID_220_);}
	.st242{fill:url(#SVGID_221_);}
	.st243{fill:url(#SVGID_222_);}
	.st244{fill:#E8492D;}
	.st245{fill:#E7E2DE;}
	.st246{fill:url(#SVGID_223_);}
	.st247{fill:#CECDCB;}
	.st248{fill:#818282;}
	.st249{fill:#CECDCB;stroke:#CECDCB;stroke-miterlimit:10;}
	.st250{fill:#E8E8E8;}
	.st251{fill:#EFEFEF;}
	.st252{fill:url(#SVGID_224_);}
	.st253{fill:url(#SVGID_225_);}
	.st254{fill:#FFFF00;}
	.st255{fill:#22AF17;}
	.st256{opacity:0.7;}
	.st257{fill:#FFFF2B;}
	.st258{fill:#FFFF55;}
	.st259{fill:#FFFF80;}
	.st260{fill:#FFFFAA;}
	.st261{fill:#FFFFD4;}
	.st262{fill:url(#SVGID_226_);}
	.st263{fill:url(#SVGID_227_);}
	.st264{fill:url(#SVGID_228_);}
	.st265{fill:#232323;}
	.st266{fill:#3D3D3D;}
	.st267{fill:#C66259;}
	.st268{opacity:0.2;fill:#353535;}
	.st269{fill:#817979;}
	.st270{opacity:0.3;}
	.st271{fill:#353535;}
	.st272{fill:#382B28;}
	.st273{fill:#231F20;}
	.st274{opacity:0.1;}
	.st275{fill:url(#SVGID_229_);}
	.st276{fill:url(#SVGID_230_);}
	.st277{fill:#2B2B2B;}
	.st278{fill:#161616;}
	.st279{opacity:0.5;}
	.st280{fill:#A6A8AB;}
	.st281{fill:#E2E2E2;}
	.st282{opacity:0.3;fill:#353535;}
	.st283{fill:url(#SVGID_231_);}
	.st284{fill:url(#SVGID_232_);}
	.st285{fill:url(#SVGID_233_);}
	.st286{fill:url(#SVGID_234_);}
	.st287{fill:#B54C47;}
	.st288{opacity:0.8;fill:#88DFED;}
	.st289{fill:#E3E4E5;}
	.st290{fill:url(#SVGID_235_);}
	.st291{fill:url(#SVGID_236_);}
	.st292{fill:url(#SVGID_237_);}
	.st293{fill:url(#SVGID_238_);}
	.st294{opacity:0.2;}
	.st295{fill:#6D5C57;}
	.st296{fill:#68493F;}
	.st297{opacity:0.2;fill:url(#SVGID_239_);}
	.st298{opacity:0.2;fill:url(#SVGID_240_);}
	.st299{opacity:0.5;fill:#6D5C57;}
	.st300{fill:url(#SVGID_241_);}
	.st301{fill:#7C8B8E;}
	.st302{fill:url(#SVGID_242_);}
	.st303{fill:url(#SVGID_243_);}
	.st304{fill:#3D2219;}
	.st305{fill:#332E2D;}
	.st306{fill:#E6E6E6;}
	.st307{fill:url(#SVGID_244_);}
	.st308{fill:url(#SVGID_245_);}
	.st309{fill:url(#SVGID_246_);}
	.st310{fill:url(#SVGID_247_);}
	.st311{opacity:0.2;fill:url(#SVGID_248_);}
	.st312{opacity:0.2;fill:url(#SVGID_249_);}
	.st313{fill:url(#SVGID_250_);}
	.st314{fill:url(#SVGID_251_);}
	.st315{fill:url(#SVGID_252_);}
	.st316{fill:url(#SVGID_253_);}
	.st317{fill:url(#SVGID_254_);}
	.st318{fill:url(#SVGID_255_);}
	.st319{fill:url(#SVGID_256_);}
	.st320{fill:none;stroke:url(#SVGID_257_);stroke-miterlimit:10;}
	.st321{fill:url(#SVGID_258_);}
	.st322{fill:#301812;}
	.st323{opacity:0.2;fill:url(#SVGID_259_);}
	.st324{opacity:0.2;fill:url(#SVGID_260_);}
	.st325{fill:url(#SVGID_261_);}
	.st326{fill:#B0CDD1;}
	.st327{fill:url(#SVGID_262_);}
	.st328{fill:url(#SVGID_263_);}
	.st329{fill:none;stroke:#231F20;stroke-width:6;stroke-miterlimit:10;}
	.st330{fill:url(#SVGID_264_);}
	.st331{fill:url(#SVGID_265_);}
	.st332{fill:url(#SVGID_266_);}
	.st333{fill:url(#SVGID_267_);}
	.st334{fill:url(#SVGID_268_);}
	.st335{fill:url(#SVGID_269_);}
	.st336{fill:url(#SVGID_270_);}
	.st337{fill:url(#SVGID_271_);}
	.st338{fill:url(#SVGID_272_);}
	.st339{fill:url(#SVGID_273_);}
	.st340{opacity:0.2;fill:url(#SVGID_274_);}
	.st341{opacity:0.2;fill:url(#SVGID_275_);}
	.st342{fill:url(#SVGID_276_);}
	.st343{fill:url(#SVGID_277_);}
	.st344{fill:url(#SVGID_278_);}
	.st345{fill:url(#SVGID_279_);}
	.st346{fill:url(#SVGID_280_);}
	.st347{fill:url(#SVGID_281_);}
	.st348{fill:url(#SVGID_282_);}
	.st349{opacity:0.2;fill:url(#SVGID_283_);}
	.st350{opacity:0.2;fill:url(#SVGID_284_);}
	.st351{fill:url(#SVGID_285_);}
	.st352{fill:url(#SVGID_286_);}
	.st353{fill:url(#SVGID_287_);}
	.st354{fill:url(#SVGID_288_);}
	.st355{fill:url(#SVGID_289_);}
	.st356{fill:url(#SVGID_290_);}
	.st357{fill:url(#SVGID_291_);}
	.st358{fill:none;stroke:url(#SVGID_292_);stroke-miterlimit:10;}
	.st359{fill:url(#SVGID_293_);}
	.st360{opacity:0.2;fill:url(#SVGID_294_);}
	.st361{opacity:0.2;fill:url(#SVGID_295_);}
	.st362{fill:url(#SVGID_296_);}
	.st363{fill:url(#SVGID_297_);}
	.st364{fill:url(#SVGID_298_);}
</style>
<g id="Baby_sad">
</g>
<g id="Baby_pleased">
</g>
<g id="Baby_ecstatic">
</g>
<g id="Fish_dead">
</g>
<g id="Fish_pleased">
</g>
<g id="Fish_ecstatic">
</g>
<g id="Robot_destoyed">
</g>
<g id="Robot_pleased">
</g>
<g id="Robot_ecstatic">
</g>
<g id="Sad_Dog">
</g>
<g id="Dog">
</g>
<g id="Dog_ecstatic">
</g>
<g id="Old_man_sad">
</g>
<g id="Old_man_pleased">
</g>
<g id="Old_man_ecstatic">
	<g>
		<rect x="28.2" y="35.6" class="st289" width="215.3" height="75"/>
		<linearGradient id="SVGID_1_" gradientUnits="userSpaceOnUse" x1="7.1455" y1="136.8454" x2="55.8167" y2="136.8454">
			<stop  offset="0" style="stop-color:#A54641"/>
			<stop  offset="0.9723" style="stop-color:#875342"/>
		</linearGradient>
		<path class="st0" d="M55.8,113.9c0,0-22.5-52.5-43-28.8c-13.6,15.7,0.2,37.4,11.1,50.3c5.8,6.8,7.3,16.3,4.1,24.7
			c-2.7,6.9-5.1,15.1-4.3,21c1.6,12.4,23.5,20.8,27.8,5.6S55.8,113.9,55.8,113.9z"/>
		
			<linearGradient id="SVGID_2_" gradientUnits="userSpaceOnUse" x1="8253.3096" y1="136.8454" x2="8301.9805" y2="136.8454" gradientTransform="matrix(-1 0 0 1 8518.4443 0)">
			<stop  offset="0" style="stop-color:#A54641"/>
			<stop  offset="0.9723" style="stop-color:#875342"/>
		</linearGradient>
		<path style="fill:url(#SVGID_2_);" d="M216.5,113.9c0,0,22.5-52.5,43-28.8c13.6,15.7-0.2,37.4-11.1,50.3
			c-5.8,6.8-7.3,16.3-4.1,24.7c2.7,6.9,5.1,15.1,4.3,21c-1.6,12.4-23.5,20.8-27.8,5.6S216.5,113.9,216.5,113.9z"/>
		<linearGradient id="SVGID_3_" gradientUnits="userSpaceOnUse" x1="41.5443" y1="136.0635" x2="233.5024" y2="136.0635">
			<stop  offset="0" style="stop-color:#806044"/>
			<stop  offset="0.5182" style="stop-color:#8D6A4F"/>
			<stop  offset="1" style="stop-color:#926E54"/>
		</linearGradient>
		<path style="fill:url(#SVGID_3_);" d="M137.5,270.5c-55,0-98.8-46.2-95.8-101.2L62.3,57.3C63.9,26.1,89.7,1.6,121,1.6h33
			c31.3,0,57.1,24.4,58.7,55.7l20.6,112.1C236.3,224.3,192.6,270.5,137.5,270.5z"/>
		<linearGradient id="SVGID_4_" gradientUnits="userSpaceOnUse" x1="137.0554" y1="312.694" x2="137.5536" y2="185.6441">
			<stop  offset="0" style="stop-color:#A54641"/>
			<stop  offset="0.9723" style="stop-color:#875342;stop-opacity:0"/>
		</linearGradient>
		<path class="st4" d="M137.5,258.2L137.5,258.2c-22.3,0-40.4-18.1-40.4-40.4v-49h80.8v49C177.9,240.1,159.8,258.2,137.5,258.2z"/>
		<g class="st294">
			<path class="st295" d="M137.8,270.7c55,0,98.8-46.2,95.8-101.2l-9.6-52.3c5.9,56.4-43.9,47.4-43.9,47.4l-16.3-10h-48.2
				l-20.2,10.3c-38.9,6.3-44.5-25.7-44.1-46.6l-9.4,51.2C39,224.5,82.7,270.7,137.8,270.7z M200.2,177.5c0,0-11.6,36.9-43,32.6
				l-1.6-15c0,0-17.6,1.8-33.4,0l-3.6,15.4c0,0-31.1,3.5-41.5-32.9C77.2,177.5,127.3,189.3,200.2,177.5z"/>
		</g>
		<path class="st296" d="M199.6,199.9c2.2-6.1,4.4-12.3,5.8-18.6c0.1-0.8,0.3-1.6,0.4-2.3c0.1-0.4,0.1-0.8,0.1-1.1l0-0.6
			c0-0.2-0.1-0.2-0.1-0.3c-0.1-0.3-0.7-0.6-1.4-0.9c-0.7-0.3-1.4-0.5-2.2-0.7c-3.1-0.7-6.4-1.3-9.6-2.2c-3.2-0.9-6.4-2.1-9.4-3.8
			c-3-1.7-5.8-3.9-8.1-6.7c-4.6-5.5-6.6-12.7-7-19.6l6-0.2c0,6.1,1.2,12.2,4.6,17c3.4,4.9,8.9,8.2,14.8,10.3c3,1.1,6.1,1.9,9.3,2.9
			c0.8,0.3,1.6,0.5,2.4,0.9c0.8,0.4,1.8,0.8,2.3,2.1c0.1,0.3,0.2,0.7,0.1,1l-0.1,0.7c0,0.4-0.1,0.9-0.2,1.3
			c-0.1,0.8-0.4,1.6-0.6,2.4C204.9,188,202.3,193.9,199.6,199.9z"/>
		<g>
			<path class="st296" d="M76.8,177.2c5.1,0.8,10.2,1.5,15.3,2c5.1,0.6,10.2,1,15.4,1.3c10.3,0.6,20.5,1,30.8,0.9
				c10.3-0.1,20.5-0.4,30.8-1.2c10.3-0.6,20.5-1.9,30.7-3c-5,1-10.1,2.1-15.2,2.9c-5.1,0.7-10.2,1.5-15.4,2
				c-10.3,1.2-20.6,1.6-30.9,1.8c-10.3,0.1-20.7-0.4-31-1.5c-5.1-0.5-10.3-1.2-15.4-2C86.8,179.6,81.7,178.6,76.8,177.2z"/>
		</g>
		<path class="st296" d="M75.2,199.9c-2.7-5.9-5.3-11.9-7.2-18.2c-0.2-0.8-0.4-1.6-0.6-2.4c-0.1-0.4-0.2-0.8-0.2-1.3l-0.1-0.7
			c0-0.2,0.1-0.6,0.1-1c0.6-1.3,1.6-1.7,2.3-2.1c0.8-0.4,1.6-0.7,2.4-0.9c3.2-1,6.3-1.8,9.3-2.9c6-2.1,11.4-5.4,14.8-10.3
			c3.4-4.9,4.6-11,4.6-17l6,0.2c-0.5,6.9-2.4,14.1-7,19.6c-2.2,2.8-5.1,5-8.1,6.7c-3,1.7-6.2,2.9-9.4,3.8c-3.2,0.9-6.5,1.5-9.6,2.2
			c-0.8,0.2-1.5,0.4-2.2,0.7c-0.7,0.2-1.3,0.6-1.4,0.9c0,0.1,0,0.1-0.1,0.3l0,0.6c0,0.4,0,0.8,0.1,1.1c0.1,0.8,0.2,1.6,0.4,2.3
			C70.8,187.6,73,193.8,75.2,199.9z"/>
		<linearGradient id="SVGID_5_" gradientUnits="userSpaceOnUse" x1="71.5268" y1="88.809" x2="118.2666" y2="88.809">
			<stop  offset="0" style="stop-color:#806044"/>
			<stop  offset="0.5182" style="stop-color:#8D6A4F"/>
			<stop  offset="1" style="stop-color:#926E54"/>
		</linearGradient>
		<ellipse style="opacity:0.2;fill:url(#SVGID_5_);" cx="94.9" cy="88.8" rx="23.4" ry="24.1"/>
		<linearGradient id="SVGID_7_" gradientUnits="userSpaceOnUse" x1="154.5313" y1="88.809" x2="201.2712" y2="88.809">
			<stop  offset="0" style="stop-color:#806044"/>
			<stop  offset="0.5182" style="stop-color:#8D6A4F"/>
			<stop  offset="1" style="stop-color:#926E54"/>
		</linearGradient>
		<ellipse style="opacity:0.2;fill:url(#SVGID_7_);" cx="177.9" cy="88.8" rx="23.4" ry="24.1"/>
		<path class="st299" d="M171.6,164.9c0,9.2-6.9,5.7-12.9,11.8c-6.1,6.2-11.5,22-20.9,22c-9.3,0-16.2-15.9-22.3-22
			c-6.2-6.1-11.5-2.4-11.5-11.8c-0.2-38.8,12.2-11.6,30.9-11.6C153.5,153.4,171.6,121.7,171.6,164.9z"/>
		<linearGradient id="SVGID_9_" gradientUnits="userSpaceOnUse" x1="137.5234" y1="160.3771" x2="137.5234" y2="98.3801">
			<stop  offset="0" style="stop-color:#A54641"/>
			<stop  offset="0.9723" style="stop-color:#875342;stop-opacity:0"/>
		</linearGradient>
		<path style="fill:url(#SVGID_9_);" d="M171.3,153.4c0,9.2-6.9,5.7-12.9,11.8c-6.1,6.2-11.5,22-20.9,22c-9.3,0-16.2-15.9-22.3-22
			c-6.2-6.1-11.5-2.4-11.5-11.8c0-18.7,15.1-63.7,33.8-63.7S171.3,134.7,171.3,153.4z"/>
		<path class="st296" d="M118.3,31l12,27.6c2,5,1.9,10.9-0.4,15.9c-0.6,1.3-1.3,2.5-2.1,3.6c-0.4,0.6-0.9,1.1-1.3,1.6l-1.2,1.4
			l-5,5.6l-3.9-3.7l5.5-5.2l1.4-1.3c0.4-0.4,0.8-0.8,1.1-1.2c0.7-0.8,1.4-1.8,1.9-2.7c2.2-3.9,2.8-8.8,1.5-13.2L118.3,31z"/>
		<path class="st296" d="M153.6,31l-9.4,28.5c-1.3,4.5-0.7,9.3,1.5,13.2c0.6,1,1.2,1.9,1.9,2.7c0.3,0.4,0.8,0.8,1.1,1.2l1.4,1.3
			l5.5,5.2l-3.9,3.7l-5-5.6l-1.2-1.4c-0.4-0.5-0.9-1.1-1.3-1.6c-0.8-1.1-1.5-2.4-2.1-3.6c-2.3-5.1-2.4-10.9-0.4-15.9L153.6,31z"/>
		<path class="st296" d="M119.2,84.7c1,5.5,0,11-2.6,15.8c-2.6,4.8-7,8.3-11.7,10.6c-0.6,0.3-1.2,0.6-1.8,0.9l-1.9,0.7
			c-1.2,0.5-2.5,0.9-3.7,1.4l-3.8,0.9c-1.3,0.3-2.5,0.7-3.8,0.8c-2.6,0.3-5.2,0.8-7.8,1l-7.8,0.4l7.8-0.6c2.6-0.2,5.1-0.8,7.7-1.2
			c1.3-0.2,2.5-0.6,3.8-0.9l3.7-1c1.2-0.5,2.4-1,3.6-1.5l1.8-0.7c0.6-0.3,1.1-0.6,1.7-1c4.5-2.4,8.5-5.9,10.8-10.5
			c2.3-4.5,3-9.8,2-14.6L119.2,84.7z"/>
		<path class="st296" d="M158.2,87c-1,4.8-0.3,10.1,2,14.6c2.3,4.5,6.3,8.1,10.8,10.5c0.6,0.3,1.1,0.7,1.7,1l1.8,0.7
			c1.2,0.5,2.4,1,3.6,1.5l3.7,1c1.3,0.3,2.5,0.8,3.8,0.9c2.6,0.4,5.1,1,7.7,1.2l7.8,0.6l-7.8-0.4c-2.6-0.1-5.2-0.7-7.8-1
			c-1.3-0.1-2.6-0.5-3.8-0.8l-3.8-0.9c-1.2-0.4-2.5-0.9-3.7-1.4l-1.9-0.7c-0.6-0.3-1.2-0.6-1.8-0.9c-4.7-2.3-9.1-5.9-11.7-10.6
			c-2.6-4.8-3.6-10.3-2.6-15.8L158.2,87z"/>
		<path class="st296" d="M74.4,181.2c0.1-1,0.5-2.1,1.2-2.9c0.6-0.9,1.4-1.6,2.3-2.3c0.9-0.7,1.8-1.2,2.8-1.6c1-0.4,2-0.8,3-1.1
			l0.4,2c-1,0.2-2,0.3-3,0.6c-1,0.3-1.9,0.6-2.8,1.1c-0.9,0.4-1.7,1-2.5,1.7C75.2,179.3,74.6,180.2,74.4,181.2z"/>
		<path class="st296" d="M193.4,174.1c1.1,0.3,2,0.6,2.9,1c0.9,0.4,1.9,0.9,2.7,1.4c0.9,0.6,1.7,1.2,2.3,2c0.6,0.8,1.1,1.7,1.2,2.7
			c-0.6-1.9-2.3-3.1-4-3.8c-1.7-0.7-3.7-1.1-5.5-1.3L193.4,174.1z"/>
		<path class="st296" d="M79.2,187.2c0.4,8.7,1.7,17.3,4.1,25.6c2.4,8.3,5.9,16.2,10.9,22.9c5,6.8,11.6,12.2,19.2,15.5
			c7.6,3.3,16,4.6,24.5,4.4c8.4-0.1,16.8-1.6,24.3-5.2c7.5-3.5,13.9-9.2,18.7-16.1c4.8-6.9,8.1-14.9,10.4-23.2
			c2.3-8.3,3.5-16.9,3.7-25.7c0.4,4.3,0.5,8.7,0.2,13.1c-0.2,4.4-0.7,8.8-1.6,13.1c-1.7,8.6-4.7,17.2-9.5,24.8
			c-2.4,3.8-5.3,7.3-8.7,10.4c-3.4,3.1-7.1,5.8-11.2,7.8c-4.1,2-8.4,3.6-12.9,4.4c-4.4,1-8.9,1.3-13.4,1.5c-9,0.1-18.1-1.3-26.5-5.1
			c-8.3-3.9-15.5-10-20.5-17.5c-5.1-7.5-8.2-16-10.1-24.6c-0.9-4.3-1.5-8.7-1.8-13.1C78.8,195.9,78.8,191.6,79.2,187.2z"/>
		<path class="st301" d="M87.3,98l20.2-0.6c0,0-3.3-4.6-7.2-4.2C96.5,93.6,94.2,92.6,87.3,98z"/>
		<linearGradient id="SVGID_10_" gradientUnits="userSpaceOnUse" x1="138.3459" y1="169.5315" x2="138.3459" y2="79.1019">
			<stop  offset="3.425481e-02" style="stop-color:#BA7B68"/>
			<stop  offset="1" style="stop-color:#BA7B68;stop-opacity:0"/>
		</linearGradient>
		<path class="st19" d="M137.6,96.1L137.6,96.1c4.8,0,8.5,4.3,7.8,9.1l-2.6,17.1c-0.6,4.1,0.2,8.3,2.3,11.9l5.8,10
			c3.3,5.7,1.9,13-3.4,17l-1.5,1.1c-5,3.8-11.9,3.5-16.5-0.6l-1.1-0.9c-4.4-3.9-5.7-10.3-3.1-15.6l5.7-11.6
			c1.7-3.4,2.2-7.2,1.6-10.9l-2.8-17.5C129,100.5,132.8,96.1,137.6,96.1z"/>
		<linearGradient id="SVGID_11_" gradientUnits="userSpaceOnUse" x1="137.7585" y1="239.5876" x2="137.7585" y2="209.357">
			<stop  offset="3.425481e-02" style="stop-color:#BA7B68"/>
			<stop  offset="1" style="stop-color:#BA7B68;stop-opacity:0"/>
		</linearGradient>
		<path style="fill:url(#SVGID_11_);" d="M115.1,213.5c2.4-0.5,4.9-0.7,7.5-0.5c2.5,0.2,5.1,0.7,7.6,1.7c1.3,0.5,2.4,1.2,3.7,1.9
			c1.1,0.8,2.3,1.6,3.3,2.6c2.1,1.9,3.6,4.4,5,6.9l-7.6,0.1l0,0c0.4-0.9,0.8-1.4,1.2-2c0.4-0.6,0.8-1.1,1.2-1.7c0.9-1,1.8-2,2.8-2.9
			c2-1.8,4.2-3.2,6.5-4.2c2.3-1,4.7-1.7,7.2-1.9c1.2-0.2,2.4-0.1,3.6-0.2c1.2,0,2.4,0.2,3.5,0.2c-1.1,0.3-2.3,0.5-3.4,0.8
			c-1.1,0.4-2.2,0.6-3.2,1.1c-2.1,0.8-3.9,2.1-5.6,3.4c-1.6,1.4-3,3-4,4.7c-0.5,0.9-1,1.8-1.4,2.7c-0.2,0.5-0.4,0.9-0.5,1.4
			c-0.1,0.4-0.3,1-0.3,1.2l0,0l-7.4,0.8l-0.2-0.8c-0.5-2-1-4-2.1-5.8c-0.5-1-1.2-1.7-1.8-2.6c-0.8-0.8-1.5-1.6-2.4-2.2
			c-1.8-1.4-3.8-2.5-6.1-3.3C119.9,214.1,117.5,213.6,115.1,213.5z"/>
		<path class="st304" d="M104,94c-1-0.5-2.2-0.9-3.3-0.8c-2.3,0.2-4.1,0-6.6,1c-0.2,0.6-0.3,1.2-0.3,1.9c0,0.6,0.1,1.2,0.3,1.8
			l10.2-0.3c0.1-0.5,0.2-1,0.2-1.5C104.4,95.3,104.3,94.6,104,94z"/>
		<path class="st305" d="M77.5,98.5l6.6,1.5l-0.4,0.1l0,0c1.7-1.9,3.6-3.5,5.7-4.9c2.1-1.4,4.4-2.6,7-3.2c1.3-0.3,2.7-0.5,4.2-0.3
			c1.4,0.2,2.8,0.6,3.9,1.4c2.4,1.5,4,4,4.1,6.6c-1.6-2-3.4-3.4-5.4-4.1c-1-0.3-2-0.6-3.1-0.7c-1-0.1-2,0-3.1,0.3
			c-2.1,0.5-4.3,1.4-6.5,2.4c-2.2,1-4.3,2.2-6.5,3.3l0,0l-0.2,0.2l-0.2-0.1L77.5,98.5z"/>
		<path class="st301" d="M187.3,96.3l-20.2-0.6c0,0,3.3-4.6,7.2-4.2C178.2,91.9,180.5,90.9,187.3,96.3z"/>
		<path class="st304" d="M182.1,95.1c0-1-0.3-1.8-0.7-2.6c-2.6-1-4.4-0.8-6.8-1c-0.7-0.1-1.4,0-2.1,0.2c-0.8,0.9-1.2,2.1-1.2,3.4
			c0,0.2,0,0.5,0.1,0.7l10.6,0.3C182.1,95.8,182.1,95.5,182.1,95.1z"/>
		<path class="st305" d="M197.2,96.8l-6.3,2.4l-0.2,0.1l-0.2-0.2l0,0c-2.2-1.1-4.3-2.3-6.5-3.3c-2.1-1-4.3-2-6.5-2.4
			c-1.1-0.3-2.1-0.3-3.1-0.3c-1.1,0.1-2.1,0.3-3.1,0.7c-2,0.7-3.8,2.1-5.4,4.1c0.1-2.6,1.7-5.1,4.1-6.6c1.2-0.8,2.6-1.2,3.9-1.4
			c1.5-0.1,2.9,0,4.2,0.3c2.6,0.6,4.9,1.9,7,3.2c2.1,1.4,4,3,5.7,4.9l0,0l-0.4-0.1L197.2,96.8z"/>
		<g>
			<path class="st36" d="M78.1,107.6l-23.5-5.8c3.8-15.4,22.2-43.8,64.4-41.5l-1.4,24.2C84.6,82.6,78.3,106.6,78.1,107.6z"/>
		</g>
		<g>
			<path class="st36" d="M195.4,107.1c-0.7-2.6-7.7-25.1-39.5-23.3l-1.4-24.2c42.2-2.4,60.5,26.1,64.4,41.5l-11.7,2.9L195.4,107.1z"
				/>
		</g>
		<g>
			<path class="st296" d="M95.7,107.6c-2.7,0-5.8-0.4-9.3-1.3l0.5-1.9c17.9,4.7,22.4-5.5,22.4-5.6l1.9,0.8
				C111,99.9,107.6,107.6,95.7,107.6z"/>
		</g>
		<g>
			<path class="st296" d="M179.2,106.5c-11.9,0-15.3-7.7-15.5-8.1l1.9-0.8l-0.9,0.4l0.9-0.4c0.2,0.4,4.7,10.2,22.4,5.6l0.5,1.9
				C184.9,106.1,181.8,106.5,179.2,106.5z"/>
		</g>
		<g>
			<path class="st296" d="M233.5,150c2.1-3.5,3.8-7.4,4.2-11.3c0.2-1.9-0.1-3.8-1-5.1c-0.9-1.3-2.4-2.1-4-2.7l-1.5-0.5l0.2-1.6
				c0.5-4.5,1.5-8.8,2.6-13c1.2-4.2,2.7-8.4,4.7-12.3c2-3.9,4.3-7.7,7.3-10.9c3-3.2,6.6-5.8,10.5-7.6c-3.8,2.1-7.1,4.9-9.7,8.3
				c-2.6,3.4-4.5,7.2-6.1,11.1c-1.6,3.9-2.7,8.1-3.5,12.2c-0.8,4.1-1.4,8.4-1.5,12.5l-1.3-2.1c2.1,1.1,4.2,2.8,5.3,5.2
				c1,2.4,0.8,4.9,0.2,7C238.6,143.3,236.2,146.8,233.5,150z"/>
		</g>
		<g>
			<path class="st296" d="M40.3,149.4c-2.7-3.1-5.1-6.7-6.3-10.9c-0.6-2.1-0.8-4.6,0.2-7c1-2.4,3.1-4,5.3-5.2l-1.3,2.1
				c-0.1-4.1-0.7-8.4-1.5-12.5c-0.8-4.1-1.9-8.3-3.5-12.2c-1.6-3.9-3.5-7.7-6.1-11.1c-2.6-3.3-5.9-6.2-9.7-8.3
				c4,1.8,7.5,4.4,10.5,7.6c3,3.3,5.3,7,7.3,10.9c2,3.9,3.4,8.1,4.7,12.3c1.2,4.3,2.1,8.5,2.6,13l0.2,1.6l-1.5,0.5
				c-1.6,0.6-3.1,1.3-4,2.7c-0.9,1.3-1.1,3.2-1,5.1C36.5,141.9,38.2,145.8,40.3,149.4z"/>
		</g>
		<g>
			<path class="st273" d="M81.2,156c-23.8,0-43.1-19.3-43.1-43.1V79.2c0-3.3,2.7-6.1,6.1-6.1h74.1c3.3,0,6.1,2.7,6.1,6.1v33.7
				C124.3,136.7,105,156,81.2,156z M50.2,85.3v27.6c0,17.1,13.9,31,31,31s31-13.9,31-31V85.3H50.2z"/>
		</g>
		<g>
			<path class="st273" d="M193.8,156c-23.8,0-43.1-19.3-43.1-43.1V79.2c0-3.3,2.7-6.1,6.1-6.1h74.1c3.3,0,6.1,2.7,6.1,6.1v33.7
				C236.9,136.7,217.6,156,193.8,156z M162.8,85.3v27.6c0,17.1,13.9,31,31,31s31-13.9,31-31V85.3H162.8z"/>
		</g>
		<g>
			<path class="st273" d="M121.1,96.8l-5.6-10.7c4.8-2.5,12.7-5.4,22.4-5.4c7.5,0.1,15,1.9,21.7,5.4L154,96.8c-3.5-1.8-9.1-4-16.2-4
				c-0.1,0-0.2,0-0.3,0C130.3,92.8,124.6,95,121.1,96.8z"/>
		</g>
		<g>
			<rect x="23.7" y="85.4" class="st273" width="20.5" height="12.1"/>
		</g>
		<g>
			<rect x="230.9" y="83.6" class="st273" width="20.5" height="12.1"/>
		</g>
		<rect x="27.8" y="89.7" class="st306" width="8.1" height="4"/>
		<rect x="239.5" y="87.7" class="st306" width="8.1" height="4"/>
	</g>
</g>
</svg>
