<svg id="Layer_1" data-name="Layer 1" xmlns="http://www.w3.org/2000/svg" xmlns:xlink="http://www.w3.org/1999/xlink" viewBox="0 0 148.9 245.34">
  <defs>
    <style>
      .cls-1 {
        clip-path: url(#clip-path);
      }

      .cls-2, .cls-28, .cls-5, .cls-7 {
        fill: none;
      }

      .cls-2 {
        clip-path: url(#clip-path-3);
      }

      .cls-3 {
        fill: url(#linear-gradient);
      }

      .cls-4 {
        clip-path: url(#clip-path-2);
      }

      .cls-5 {
        clip-path: url(#clip-path-4);
      }

      .cls-6 {
        fill: url(#linear-gradient-2);
      }

      .cls-8 {
        fill: #c7eafb;
      }

      .cls-10, .cls-9 {
        fill: #005e9e;
      }

      .cls-10, .cls-11 {
        isolation: isolate;
        font-family: BarlowCondensed-Regular, Barlow Condensed;
      }

      .cls-10 {
        font-size: 14px;
      }

      .cls-11 {
        font-size: 11px;
      }

      .cls-12 {
        clip-path: url(#clip-path-5);
      }

      .cls-13 {
        fill: #6dcff6;
      }

      .cls-14 {
        fill: #00b3f0;
      }

      .cls-15 {
        fill: #0072bc;
      }

      .cls-16 {
        fill: #c66259;
      }

      .cls-17 {
        opacity: 0.5;
      }

      .cls-18 {
        clip-path: url(#clip-path-14);
      }

      .cls-19 {
        clip-path: url(#clip-path-17);
      }

      .cls-20 {
        clip-path: url(#clip-path-22);
      }

      .cls-21 {
        fill: #353535;
      }

      .cls-22 {
        clip-path: url(#clip-path-28);
      }

      .cls-23 {
        clip-path: url(#clip-path-29);
      }

      .cls-24 {
        clip-path: url(#clip-path-31);
      }

      .cls-25 {
        clip-path: url(#clip-path-32);
      }

      .cls-26 {
        clip-path: url(#clip-path-39);
      }

      .cls-27 {
        clip-path: url(#clip-path-44);
      }

      .cls-28 {
        stroke: #c7eafb;
        stroke-linecap: round;
        stroke-miterlimit: 10;
        stroke-width: 0.95px;
      }

      .cls-29 {
        clip-path: url(#clip-path-47);
      }

      .cls-30 {
        mask: url(#mask);
      }

      .cls-31 {
        fill: url(#linear-gradient-3);
      }

      .cls-32 {
        clip-path: url(#clip-path-48);
      }

      .cls-33 {
        mask: url(#mask-2);
      }

      .cls-34 {
        fill: url(#linear-gradient-4);
      }

      .cls-35 {
        fill: #fff;
      }

      .cls-36 {
        clip-path: url(#clip-path-54);
      }

      .cls-37 {
        clip-path: url(#clip-path-57);
      }

      .cls-38 {
        clip-path: url(#clip-path-64);
      }

      .cls-39 {
        clip-path: url(#clip-path-95);
      }

      .cls-40 {
        clip-path: url(#clip-path-98);
      }

      .cls-41 {
        clip-path: url(#clip-path-101);
      }

      .cls-42 {
        clip-path: url(#clip-path-104);
      }

      .cls-43 {
        clip-path: url(#clip-path-107);
      }

      .cls-44 {
        clip-path: url(#clip-path-110);
      }

      .cls-45 {
        clip-path: url(#clip-path-113);
      }

      .cls-46 {
        clip-path: url(#clip-path-116);
      }

      .cls-47 {
        clip-path: url(#clip-path-119);
      }

      .cls-48 {
        clip-path: url(#clip-path-122);
      }

      .cls-49 {
        clip-path: url(#clip-path-125);
      }

      .cls-50 {
        clip-path: url(#clip-path-128);
      }

      .cls-51 {
        clip-path: url(#clip-path-131);
      }

      .cls-52 {
        clip-path: url(#clip-path-134);
      }

      .cls-53 {
        clip-path: url(#clip-path-137);
      }

      .cls-54 {
        clip-path: url(#clip-path-140);
      }

      .cls-55 {
        clip-path: url(#clip-path-143);
      }

      .cls-56 {
        clip-path: url(#clip-path-146);
      }

      .cls-57 {
        clip-path: url(#clip-path-149);
      }

      .cls-58 {
        clip-path: url(#clip-path-152);
      }

      .cls-59 {
        clip-path: url(#clip-path-155);
      }

      .cls-60 {
        clip-path: url(#clip-path-158);
      }

      .cls-61 {
        clip-path: url(#clip-path-161);
      }

      .cls-62 {
        clip-path: url(#clip-path-164);
      }

      .cls-63 {
        clip-path: url(#clip-path-167);
      }

      .cls-64 {
        clip-path: url(#clip-path-170);
      }

      .cls-65 {
        clip-path: url(#clip-path-173);
      }

      .cls-66 {
        clip-path: url(#clip-path-176);
      }

      .cls-67 {
        clip-path: url(#clip-path-179);
      }
    </style>
    <clipPath id="clip-path">
      <rect class="cls-2" x="26.49" y="111.97" width="20.6" height="20.4" transform="translate(-72.28 55.98) rotate(-41.99)"/>
    </clipPath>
    <linearGradient id="linear-gradient" x1="-4923.04" y1="-1000.79" x2="-4922.04" y2="-1000.79" gradientTransform="translate(26878.38 45700.7) rotate(48.01) scale(10.53)" gradientUnits="userSpaceOnUse">
      <stop offset="0" stop-color="#fff"/>
      <stop offset="1"/>
    </linearGradient>
    <clipPath id="clip-path-2">
      <rect class="cls-5" x="68.72" y="112.08" width="20.6" height="20.4" transform="translate(-61.52 84.25) rotate(-41.99)"/>
    </clipPath>
    <linearGradient id="linear-gradient-2" x1="-4923.04" y1="-1000.79" x2="-4922.04" y2="-1000.79" gradientTransform="translate(26920.61 45700.78) rotate(48.01) scale(10.53)" xlink:href="#linear-gradient"/>
    <clipPath id="clip-path-3">
      <path class="cls-7" d="M32.9,117.4a8.23,8.23,0,0,0-.8,11.6l12.4-10.8a8,8,0,0,0-6.2-2.8,8.2,8.2,0,0,0-5.4,2"/>
    </clipPath>
    <clipPath id="clip-path-4">
      <path class="cls-7" d="M75.1,117.5a8.23,8.23,0,0,0-.8,11.6l12.4-10.8a8,8,0,0,0-6.2-2.8,7.88,7.88,0,0,0-5.4,2"/>
    </clipPath>
    <clipPath id="clip-path-5" transform="translate(-1.9 69.04)">
      <rect class="cls-7" x="-7.7" y="73.6" width="128.7" height="112.1"/>
    </clipPath>
    <clipPath id="clip-path-14" transform="translate(-1.9 69.04)">
      <rect class="cls-7" x="26.3" y="113.2" width="22.6" height="23.8"/>
    </clipPath>
    <clipPath id="clip-path-17" transform="translate(-1.9 69.04)">
      <rect class="cls-7" x="69.4" y="113.2" width="22.6" height="23.8"/>
    </clipPath>
    <clipPath id="clip-path-22" transform="translate(-1.9 69.04)">
      <rect class="cls-7" x="48.9" y="163.3" width="20.9" height="10"/>
    </clipPath>
    <clipPath id="clip-path-28" transform="translate(-1.9 69.04)">
      <rect class="cls-7" x="22.3" y="104.2" width="30.1" height="17.4"/>
    </clipPath>
    <clipPath id="clip-path-29" transform="translate(-1.9 69.04)">
      <rect class="cls-7" x="22.3" y="104.2" width="30" height="17.4"/>
    </clipPath>
    <clipPath id="clip-path-31" transform="translate(-1.9 69.04)">
      <rect class="cls-7" x="66.5" y="104.2" width="30.1" height="17.4"/>
    </clipPath>
    <clipPath id="clip-path-32" transform="translate(-1.9 69.04)">
      <rect class="cls-7" x="66.5" y="104.2" width="30" height="17.4"/>
    </clipPath>
    <clipPath id="clip-path-39" transform="translate(-1.9 69.04)">
      <rect class="cls-7" x="15.5" y="132.9" width="85.4" height="39.1"/>
    </clipPath>
    <clipPath id="clip-path-44" transform="translate(-1.9 69.04)">
      <rect class="cls-7" x="49.5" y="129.4" width="20.7" height="16.1"/>
    </clipPath>
    <clipPath id="clip-path-47" transform="translate(-1.9 69.04)">
      <path class="cls-7" d="M32.9,117.4a8.23,8.23,0,0,0-.8,11.6l12.4-10.8a8,8,0,0,0-6.2-2.8,8.2,8.2,0,0,0-5.4,2"/>
    </clipPath>
    <mask id="mask" x="6" y="162.34" width="57.7" height="57.8" maskUnits="userSpaceOnUse">
      <g transform="translate(-1.9 69.04)">
        <g id="SVGID">
          <g class="cls-1">
            <polygon class="cls-3" points="38.3 93.3 65.6 123.7 35.2 151.1 7.9 120.7 38.3 93.3"/>
          </g>
        </g>
      </g>
    </mask>
    <linearGradient id="linear-gradient-3" x1="-4923.04" y1="-1000.79" x2="-4922.04" y2="-1000.79" gradientTransform="translate(26876.48 45769.73) rotate(48.01) scale(10.53)" gradientUnits="userSpaceOnUse">
      <stop offset="0" stop-color="#fff"/>
      <stop offset="1" stop-color="#fff"/>
    </linearGradient>
    <clipPath id="clip-path-48" transform="translate(-1.9 69.04)">
      <path class="cls-7" d="M75.1,117.5a8.23,8.23,0,0,0-.8,11.6l12.4-10.8a8,8,0,0,0-6.2-2.8,7.88,7.88,0,0,0-5.4,2"/>
    </clipPath>
    <mask id="mask-2" x="48.2" y="162.44" width="57.8" height="57.7" maskUnits="userSpaceOnUse">
      <g transform="translate(-1.9 69.04)">
        <g id="SVGID-2" data-name="SVGID">
          <g class="cls-4">
            <polygon class="cls-6" points="80.5 93.4 107.9 123.8 77.5 151.1 50.1 120.8 80.5 93.4"/>
          </g>
        </g>
      </g>
    </mask>
    <linearGradient id="linear-gradient-4" x1="-4923.04" y1="-1000.79" x2="-4922.04" y2="-1000.79" gradientTransform="translate(26918.71 45769.81) rotate(48.01) scale(10.53)" xlink:href="#linear-gradient-3"/>
    <clipPath id="clip-path-54" transform="translate(-1.9 69.04)">
      <rect class="cls-7" x="30" y="98.7" width="56.8" height="9.9"/>
    </clipPath>
    <clipPath id="clip-path-57" transform="translate(-1.9 69.04)">
      <rect class="cls-7" x="39.4" y="93.4" width="38" height="9.9"/>
    </clipPath>
    <clipPath id="clip-path-64" transform="translate(-1.9 69.04)">
      <rect class="cls-7" x="49.6" y="147.1" width="21" height="11.9"/>
    </clipPath>
    <clipPath id="clip-path-95" transform="translate(-1.9 69.04)">
      <rect class="cls-7" x="40.5" y="144.2" width="0.7" height="0.7"/>
    </clipPath>
    <clipPath id="clip-path-98" transform="translate(-1.9 69.04)">
      <rect class="cls-7" x="44.1" y="145.5" width="0.7" height="0.7"/>
    </clipPath>
    <clipPath id="clip-path-101" transform="translate(-1.9 69.04)">
      <rect class="cls-7" x="41.5" y="146.8" width="0.7" height="0.7"/>
    </clipPath>
    <clipPath id="clip-path-104" transform="translate(-1.9 69.04)">
      <rect class="cls-7" x="42.8" y="144.2" width="0.7" height="0.7"/>
    </clipPath>
    <clipPath id="clip-path-107" transform="translate(-1.9 69.04)">
      <rect class="cls-7" x="38.2" y="146.8" width="0.7" height="0.7"/>
    </clipPath>
    <clipPath id="clip-path-110" transform="translate(-1.9 69.04)">
      <rect class="cls-7" x="42.3" y="150.4" width="0.7" height="0.7"/>
    </clipPath>
    <clipPath id="clip-path-113" transform="translate(-1.9 69.04)">
      <rect class="cls-7" x="45.2" y="148.2" width="0.7" height="0.7"/>
    </clipPath>
    <clipPath id="clip-path-116" transform="translate(-1.9 69.04)">
      <rect class="cls-7" x="48.8" y="148.3" width="0.7" height="0.7"/>
    </clipPath>
    <clipPath id="clip-path-119" transform="translate(-1.9 69.04)">
      <rect class="cls-7" x="47.8" y="146.3" width="0.7" height="0.7"/>
    </clipPath>
    <clipPath id="clip-path-122" transform="translate(-1.9 69.04)">
      <rect class="cls-7" x="46.7" y="143.2" width="0.7" height="0.7"/>
    </clipPath>
    <clipPath id="clip-path-125" transform="translate(-1.9 69.04)">
      <rect class="cls-7" x="46.5" y="151" width="0.7" height="0.7"/>
    </clipPath>
    <clipPath id="clip-path-128" transform="translate(-1.9 69.04)">
      <rect class="cls-7" x="43.6" y="152.1" width="0.7" height="0.7"/>
    </clipPath>
    <clipPath id="clip-path-131" transform="translate(-1.9 69.04)">
      <rect class="cls-7" x="38.6" y="152" width="0.7" height="0.7"/>
    </clipPath>
    <clipPath id="clip-path-134" transform="translate(-1.9 69.04)">
      <rect class="cls-7" x="41.2" y="153.9" width="0.7" height="0.7"/>
    </clipPath>
    <clipPath id="clip-path-137" transform="translate(-1.9 69.04)">
      <rect class="cls-7" x="71" y="143.6" width="0.7" height="0.7"/>
    </clipPath>
    <clipPath id="clip-path-140" transform="translate(-1.9 69.04)">
      <rect class="cls-7" x="74.7" y="144.9" width="0.7" height="0.7"/>
    </clipPath>
    <clipPath id="clip-path-143" transform="translate(-1.9 69.04)">
      <rect class="cls-7" x="72.1" y="146.3" width="0.7" height="0.7"/>
    </clipPath>
    <clipPath id="clip-path-146" transform="translate(-1.9 69.04)">
      <rect class="cls-7" x="73.3" y="143.6" width="0.7" height="0.7"/>
    </clipPath>
    <clipPath id="clip-path-149" transform="translate(-1.9 69.04)">
      <rect class="cls-7" x="68.7" y="146.3" width="0.7" height="0.7"/>
    </clipPath>
    <clipPath id="clip-path-152" transform="translate(-1.9 69.04)">
      <rect class="cls-7" x="72.8" y="149.8" width="0.7" height="0.7"/>
    </clipPath>
    <clipPath id="clip-path-155" transform="translate(-1.9 69.04)">
      <rect class="cls-7" x="75.8" y="147.6" width="0.7" height="0.7"/>
    </clipPath>
    <clipPath id="clip-path-158" transform="translate(-1.9 69.04)">
      <rect class="cls-7" x="79.3" y="147.7" width="0.7" height="0.7"/>
    </clipPath>
    <clipPath id="clip-path-161" transform="translate(-1.9 69.04)">
      <rect class="cls-7" x="78.3" y="145.7" width="0.7" height="0.7"/>
    </clipPath>
    <clipPath id="clip-path-164" transform="translate(-1.9 69.04)">
      <rect class="cls-7" x="77.2" y="142.6" width="0.7" height="0.7"/>
    </clipPath>
    <clipPath id="clip-path-167" transform="translate(-1.9 69.04)">
      <rect class="cls-7" x="77" y="150.4" width="0.7" height="0.7"/>
    </clipPath>
    <clipPath id="clip-path-170" transform="translate(-1.9 69.04)">
      <rect class="cls-7" x="74.2" y="151.5" width="0.7" height="0.7"/>
    </clipPath>
    <clipPath id="clip-path-173" transform="translate(-1.9 69.04)">
      <rect class="cls-7" x="69.1" y="151.4" width="0.7" height="0.7"/>
    </clipPath>
    <clipPath id="clip-path-176" transform="translate(-1.9 69.04)">
      <rect class="cls-7" x="71.8" y="153.3" width="0.7" height="0.7"/>
    </clipPath>
    <clipPath id="clip-path-179" transform="translate(-1.9 69.04)">
      <rect class="cls-7" x="53.5" y="157.6" width="12.8" height="4.8"/>
    </clipPath>
  </defs>
  <g id="Adjust_thermostat" data-name="Adjust thermostat">
    <g>
      <rect class="cls-8" x="25.5" y="69.04" width="123.4" height="150"/>
      <g>
        <path class="cls-9" d="M47.7,27.4l-2-9.5h0c0-.1,0-.1.1-.1h.8c.1,0,.1,0,.2.1l1.5,7.8h0l1.5-7.8c0-.1.1-.1.2-.1h.8c.1,0,.1.1.1.2l-2,9.5c0,.1-.1.1-.2.1h-.8C47.8,27.5,47.7,27.5,47.7,27.4Z" transform="translate(-1.9 69.04)"/>
        <path class="cls-9" d="M52.2,18.9a.72.72,0,1,1,.5.2C52.5,19.2,52.4,19.1,52.2,18.9Zm0,8.5V20.6c0-.1,0-.1.1-.1H53c.1,0,.1,0,.1.1v6.8c0,.1,0,.1-.1.1h-.7A.1.1,0,0,1,52.2,27.4Z" transform="translate(-1.9 69.04)"/>
        <path class="cls-9" d="M55.3,27.1a1.61,1.61,0,0,1-.6-1.3v-.1c0-.1,0-.1.1-.1h.7c.1,0,.1,0,.1.1v.1a1.14,1.14,0,0,0,.3.8,1.22,1.22,0,0,0,.9.3,1,1,0,0,0,1.1-1.1,1.42,1.42,0,0,0-.2-.6,1,1,0,0,0-.5-.4l-.8-.4a3.92,3.92,0,0,1-.9-.4c-.2-.1-.4-.4-.6-.6a1.49,1.49,0,0,1-.3-1,1.68,1.68,0,0,1,.6-1.4,2.5,2.5,0,0,1,3,0,1.82,1.82,0,0,1,.6,1.4h0c0,.1,0,.1-.1.1h-.6c-.1,0-.1,0-.1-.1v-.1a1.1,1.1,0,1,0-2.2,0,1.42,1.42,0,0,0,.2.6c.1.2.3.3.4.4a5.74,5.74,0,0,1,.7.4,3.6,3.6,0,0,1,.9.5c.2.2.5.4.7.6a1.69,1.69,0,0,1,.3,1,1.82,1.82,0,0,1-.6,1.4,2.54,2.54,0,0,1-1.6.5A3.39,3.39,0,0,1,55.3,27.1Z" transform="translate(-1.9 69.04)"/>
        <path class="cls-9" d="M60.3,18.9a.72.72,0,1,1,.5.2A.37.37,0,0,1,60.3,18.9Zm0,8.5V20.6c0-.1,0-.1.1-.1h.7c.1,0,.1,0,.1.1v6.8c0,.1,0,.1-.1.1h-.7C60.3,27.5,60.3,27.5,60.3,27.4Z" transform="translate(-1.9 69.04)"/>
        <path class="cls-9" d="M65.4,21.2H64.3a.1.1,0,0,0-.1.1v4.3a2,2,0,0,0,.2.9c.1.2.4.2.7.2h.1c.1,0,.1,0,.1.1v.6c0,.1,0,.1-.1.1H65a1.7,1.7,0,0,1-1.3-.4c-.3-.2-.4-.7-.4-1.4V21.1a.1.1,0,0,0-.1-.1h-.5c-.1,0-.1,0-.1-.1v-.5c0-.1,0-.1.1-.1h.5a.1.1,0,0,0,.1-.1V18.6c0-.1,0-.1.1-.1h.7c.1,0,.1,0,.1.1v1.6a.1.1,0,0,0,.1.1h1.1c.1,0,.1,0,.1.1V21C65.5,21.1,65.5,21.2,65.4,21.2Z" transform="translate(-1.9 69.04)"/>
      </g>
      <g>
        <path class="cls-9" d="M69.7,27.2a1.61,1.61,0,0,1-.5-1.1v-.5h.7c.1,0,.1,0,.1.1v.1a1.08,1.08,0,0,0,.2.8,1.14,1.14,0,0,0,.8.3,1.09,1.09,0,0,0,.9-.4,1.27,1.27,0,0,0,.4-.9.76.76,0,0,0-.2-.5c-.1-.1-.2-.3-.4-.3a2.39,2.39,0,0,0-.7-.3,4.35,4.35,0,0,1-.7-.4,1.21,1.21,0,0,1-.5-.5,1.88,1.88,0,0,1-.2-.8v-.3a2.1,2.1,0,0,1,.7-1.4,2.46,2.46,0,0,1,1.5-.5,1.7,1.7,0,0,1,1.3.4,1.66,1.66,0,0,1,.5,1.2v.3h0c0,.1-.1.1-.2.1h-.6c-.1,0-.1,0-.1-.1v-.3a1,1,0,0,0-1-1,1.14,1.14,0,0,0-.8.3,1.23,1.23,0,0,0-.4.8,1.27,1.27,0,0,0,.1.6.78.78,0,0,0,.4.4,4.88,4.88,0,0,0,.7.3,5.94,5.94,0,0,1,.8.4,1.21,1.21,0,0,1,.5.5,1.88,1.88,0,0,1,.2.8,2.11,2.11,0,0,1-.6,1.6,2.35,2.35,0,0,1-1.7.6A1.68,1.68,0,0,1,69.7,27.2Z" transform="translate(-1.9 69.04)"/>
        <path class="cls-9" d="M81.8,20.8a1.7,1.7,0,0,1,.4,1.3v.5l-.6,4.7c0,.1-.1.1-.2.1h-.8v-.1l.6-4.6v-.3a2,2,0,0,0-.2-.9.86.86,0,0,0-.6-.3,1.22,1.22,0,0,0-.9.4,1.82,1.82,0,0,0-.4,1.1l-.6,4.7c0,.1-.1.1-.2.1h-.8v-.1l.6-4.6v-.3a2,2,0,0,0-.2-.9.86.86,0,0,0-.6-.3,1.09,1.09,0,0,0-.9.4,1.82,1.82,0,0,0-.4,1.1l-.6,4.7c0,.1-.1.1-.2.1h-.8v-.1l.8-6.8v-.1H76c.1,0,.1,0,.1.1V21h0a1.79,1.79,0,0,1,.7-.5,2.35,2.35,0,0,1,.8-.2,1.61,1.61,0,0,1,.9.3,1.16,1.16,0,0,1,.5.7h0a1.78,1.78,0,0,1,.8-.7,1.49,1.49,0,0,1,.9-.2A1,1,0,0,1,81.8,20.8Z" transform="translate(-1.9 69.04)"/>
        <path class="cls-9" d="M87.3,20.4H88c.1,0,.1,0,.1.1l-.8,6.8c0,.1-.1.1-.2.1h-.8v-.1l.1-.4h0a2.65,2.65,0,0,1-.6.5,1.88,1.88,0,0,1-.8.2,1.66,1.66,0,0,1-1.2-.5,2,2,0,0,1-.4-1.4v-.3c0-.3.1-.9.2-1.6s.1-1.1.2-1.5a2.63,2.63,0,0,1,.7-1.5,1.82,1.82,0,0,1,1.4-.6,1.36,1.36,0,0,1,1.3.7h0l.1-.4C87.2,20.5,87.2,20.4,87.3,20.4Zm-1.2,6a1.78,1.78,0,0,0,.4-1l.3-2.8v-.2a1,1,0,0,0-.3-.8.91.91,0,0,0-.7-.3,1,1,0,0,0-.9.4,1.78,1.78,0,0,0-.4,1c0,.2-.1.7-.2,1.4l-.2,1.4v.3a1.14,1.14,0,0,0,.3.8.91.91,0,0,0,.7.3A3,3,0,0,0,86.1,26.4Z" transform="translate(-1.9 69.04)"/>
        <path class="cls-9" d="M92.7,20.5c.1,0,.1.1,0,.2l-.2.7c0,.1-.1.1-.2.1s-.2-.1-.4-.1h-.2a1.38,1.38,0,0,0-.9.5,2.2,2.2,0,0,0-.5,1.2l-.5,4.2c0,.1-.1.1-.2.1h-.7v-.1l.8-6.8v-.1h.8c.1,0,.1,0,.1.1l-.1.8h0c.4-.7.8-1.1,1.4-1.1A3.39,3.39,0,0,1,92.7,20.5Z" transform="translate(-1.9 69.04)"/>
        <path class="cls-9" d="M96,21.1H94.9a.1.1,0,0,0-.1.1l-.5,4.3v.3a.71.71,0,0,0,.8.8h.2v.1l-.1.6c0,.1-.1.1-.2.1h-.3a1.8,1.8,0,0,1-1.1-.3,1.33,1.33,0,0,1-.4-1v-.4l.6-4.6h-.5c-.1,0-.1,0-.1-.1l.1-.5v-.1h.6l.2-1.6v-.1H95c.1,0,.1,0,.1.1L95,20.4v.1h1c.1,0,.1,0,.1.1l-.1.5Z" transform="translate(-1.9 69.04)"/>
        <path class="cls-9" d="M100.6,20.4h.7c.1,0,.1,0,.1.1l-.8,6.8a3.74,3.74,0,0,1-.9,2.3,2.79,2.79,0,0,1-2.3.7c-.1,0-.1-.1-.1-.2l.1-.6c0-.1.1-.1.2-.1a2.54,2.54,0,0,0,1.6-.5,2.06,2.06,0,0,0,.6-1.7l.1-.4h0a1.79,1.79,0,0,1-.7.5,2.35,2.35,0,0,1-.8.2,1.66,1.66,0,0,1-1.2-.5,1.7,1.7,0,0,1-.4-1.3v-.4l.3-3a2.64,2.64,0,0,1,.7-1.6,2,2,0,0,1,1.4-.6,2.35,2.35,0,0,1,.8.2,1.21,1.21,0,0,1,.5.5c0,.1.1.1.1,0l.1-.4C100.5,20.5,100.6,20.4,100.6,20.4Zm-1.1,5.9a1.53,1.53,0,0,0,.4-1l.3-2.8v-.2a1.14,1.14,0,0,0-.3-.8.91.91,0,0,0-.7-.3,1.22,1.22,0,0,0-.9.4,1.28,1.28,0,0,0-.4,1l-.3,2.8v.2a1.14,1.14,0,0,0,.3.8.91.91,0,0,0,.7.3A1.22,1.22,0,0,0,99.5,26.3Z" transform="translate(-1.9 69.04)"/>
        <path class="cls-9" d="M105.9,20.5c.1,0,.1.1,0,.2l-.2.7c0,.1-.1.1-.2.1s-.2-.1-.4-.1h-.2a1.38,1.38,0,0,0-.9.5,2.2,2.2,0,0,0-.5,1.2l-.5,4.2c0,.1-.1.1-.2.1H102v-.1l.8-6.8v-.1h.8c.1,0,.1,0,.1.1l-.1.8h0c.4-.7.8-1.1,1.4-1.1A3,3,0,0,1,105.9,20.5Z" transform="translate(-1.9 69.04)"/>
        <path class="cls-9" d="M106.2,27.4l.8-6.8v-.1h.8c.1,0,.1,0,.1.1l-.8,6.8c0,.1-.1.1-.2.1h-.7Zm1-8.4a.76.76,0,0,1-.2-.5,1.42,1.42,0,0,1,.2-.6c.1-.2.3-.2.5-.2a.52.52,0,0,1,.4.2.76.76,0,0,1,.2.4,1.42,1.42,0,0,1-.2.6c-.1.2-.3.2-.5.2S107.4,19.1,107.2,19Z" transform="translate(-1.9 69.04)"/>
        <path class="cls-9" d="M113.2,17.7h.8c.1,0,.1,0,.1.1l-1.2,9.5c0,.1-.1.1-.2.1h-.8v-.1l.1-.3h0a2.65,2.65,0,0,1-.6.5,1.88,1.88,0,0,1-.8.2,1.66,1.66,0,0,1-1.2-.5,2,2,0,0,1-.4-1.4v-.3c0-.3.1-.9.2-1.6s.1-1.1.2-1.5a2.63,2.63,0,0,1,.7-1.5,1.82,1.82,0,0,1,1.4-.6,1.36,1.36,0,0,1,1.3.7h0l.4-3.3Zm-1.4,8.7a1.78,1.78,0,0,0,.4-1l.3-2.8v-.2a1,1,0,0,0-.3-.8.91.91,0,0,0-.7-.3,1,1,0,0,0-.9.4,1.78,1.78,0,0,0-.4,1c0,.2-.1.7-.2,1.4l-.2,1.4v.3a1.14,1.14,0,0,0,.3.8.91.91,0,0,0,.7.3A4.61,4.61,0,0,0,111.8,26.4Z" transform="translate(-1.9 69.04)"/>
        <path class="cls-9" d="M114.7,27.3a.76.76,0,0,1-.2-.5.91.91,0,0,1,.3-.7.86.86,0,0,1,.6-.3c.2,0,.3.1.5.2a.76.76,0,0,1,.2.5.91.91,0,0,1-.3.7.86.86,0,0,1-.6.3A.76.76,0,0,1,114.7,27.3Z" transform="translate(-1.9 69.04)"/>
        <path class="cls-9" d="M121.4,20.4h.7c.1,0,.1,0,.1.1l-.8,6.8a3.74,3.74,0,0,1-.9,2.3,2.79,2.79,0,0,1-2.3.7c-.1,0-.1-.1-.1-.2l.1-.6c0-.1.1-.1.2-.1a2.54,2.54,0,0,0,1.6-.5,2.06,2.06,0,0,0,.6-1.7l.1-.4h0a1.79,1.79,0,0,1-.7.5,2.35,2.35,0,0,1-.8.2A1.66,1.66,0,0,1,118,27a1.7,1.7,0,0,1-.4-1.3v-.4l.4-3a2.64,2.64,0,0,1,.7-1.6,2,2,0,0,1,1.4-.6,2.35,2.35,0,0,1,.8.2,1.21,1.21,0,0,1,.5.5c0,.1.1.1.1,0l.1-.4C121.3,20.5,121.4,20.4,121.4,20.4Zm-1.1,5.9a1.53,1.53,0,0,0,.4-1l.3-2.8v-.2a1.14,1.14,0,0,0-.3-.8.91.91,0,0,0-.7-.3,1.22,1.22,0,0,0-.9.4,1.53,1.53,0,0,0-.4,1l-.3,2.8v.2a1.14,1.14,0,0,0,.3.8.91.91,0,0,0,.7.3A1.22,1.22,0,0,0,120.3,26.3Z" transform="translate(-1.9 69.04)"/>
        <path class="cls-9" d="M123.5,27.1a1.9,1.9,0,0,1-.5-1.3v-.3l.4-3a2,2,0,0,1,.8-1.5,2.27,2.27,0,0,1,1.6-.6,2.17,2.17,0,0,1,1.4.5,1.9,1.9,0,0,1,.5,1.3v.3l-.4,3a2.47,2.47,0,0,1-.8,1.6,2.27,2.27,0,0,1-1.6.6A2.59,2.59,0,0,1,123.5,27.1Zm2.4-.7a1.16,1.16,0,0,0,.4-1l.4-2.9v-.2a1.14,1.14,0,0,0-.3-.8.91.91,0,0,0-.7-.3,1.22,1.22,0,0,0-.9.4,1.53,1.53,0,0,0-.4,1l-.4,2.9v.2a1.14,1.14,0,0,0,.3.8.91.91,0,0,0,.7.3A3.55,3.55,0,0,0,125.9,26.4Z" transform="translate(-1.9 69.04)"/>
        <path class="cls-9" d="M129.6,27.4l-.8-6.8h0c0-.1,0-.1.1-.1h.8c.1,0,.1,0,.1.1l.5,5.4h0l1.8-5.4c0-.1.1-.1.2-.1h.9v.1l-2.5,6.8c0,.1-.1.1-.2.1h-.8C129.6,27.5,129.6,27.5,129.6,27.4Z" transform="translate(-1.9 69.04)"/>
      </g>
      <text class="cls-10" transform="translate(131.05 96.54)"> </text>
      <g>
        <path class="cls-9" d="M52.3,34.2H51.2a.1.1,0,0,0-.1.1v4.3a2,2,0,0,0,.2.9c.1.2.4.2.7.2h.1c.1,0,.1,0,.1.1v.6c0,.1,0,.1-.1.1h-.3a1.7,1.7,0,0,1-1.3-.4c-.3-.2-.4-.7-.4-1.4V34.1A.1.1,0,0,0,50,34h-.5c-.1,0-.1,0-.1-.1v-.5c0-.1,0-.1.1-.1H50a.1.1,0,0,0,.1-.1V31.6c0-.1,0-.1.1-.1H51c.1,0,.1,0,.1.1v1.6a.1.1,0,0,0,.1.1h1.1c.1,0,.1,0,.1.1V34C52.4,34.1,52.4,34.2,52.3,34.2Z" transform="translate(-1.9 69.04)"/>
        <path class="cls-9" d="M54.1,40a2.11,2.11,0,0,1-.6-1.6v-3a1.89,1.89,0,0,1,.6-1.5,2.43,2.43,0,0,1,3.2,0,2,2,0,0,1,.6,1.5v3a2.27,2.27,0,0,1-.6,1.6,2.43,2.43,0,0,1-3.2,0Zm2.5-.6a1.49,1.49,0,0,0,.3-1V35.5a1.69,1.69,0,0,0-.3-1,1,1,0,0,0-.9-.4,1.09,1.09,0,0,0-.9.4,1.21,1.21,0,0,0-.3,1v2.9a1.69,1.69,0,0,0,.3,1,1,1,0,0,0,.9.4A3.55,3.55,0,0,0,56.6,39.4Z" transform="translate(-1.9 69.04)"/>
        <path class="cls-9" d="M63.2,40.4l-1.5-6.8h0c0-.1,0-.1.1-.1h.7c.1,0,.1,0,.2.1l1,5.4h0l1-5.4c0-.1.1-.1.2-.1h.6c.1,0,.1,0,.2.1l1,5.5h0l1-5.5c0-.1.1-.1.2-.1h.7c.1,0,.1.1.1.2l-1.5,6.8c0,.1-.1.1-.2.1h-.7c-.1,0-.1,0-.2-.1l-1-5.1h0l-1,5.1c0,.1-.1.1-.2.1h-.7C63.3,40.5,63.2,40.5,63.2,40.4Z" transform="translate(-1.9 69.04)"/>
        <path class="cls-9" d="M73.5,33.9a2.35,2.35,0,0,1,.6,1.7v4.7c0,.1,0,.1-.1.1h-.7c-.1,0-.1,0-.1-.1V40h0a2,2,0,0,1-1.5.7,1.74,1.74,0,0,1-1.9-2,1.83,1.83,0,0,1,.7-1.7,2.79,2.79,0,0,1,1.8-.6h1a.1.1,0,0,0,.1-.1v-.5a1.8,1.8,0,0,0-.3-1.1,1,1,0,0,0-.9-.4,1,1,0,0,0-1,1c0,.1-.1.1-.2.1h-.9v-.1a1.56,1.56,0,0,1,.7-1.3,2.46,2.46,0,0,1,1.5-.5A1,1,0,0,1,73.5,33.9Zm-.8,5.5a1.16,1.16,0,0,0,.4-1V37.2a.1.1,0,0,0-.1-.1H72a1.5,1.5,0,0,0-1.1.4,1.25,1.25,0,0,0-.4,1.1,1.22,1.22,0,0,0,.3.9,1.14,1.14,0,0,0,.8.3A2.82,2.82,0,0,0,72.7,39.4Z" transform="translate(-1.9 69.04)"/>
        <path class="cls-9" d="M78,34.2H77a.1.1,0,0,0-.1.1v4.3a2,2,0,0,0,.2.9c.1.2.4.2.7.2H78c.1,0,.1,0,.1.1v.6c0,.1,0,.1-.1.1h-.3a1.7,1.7,0,0,1-1.3-.4c-.3-.2-.4-.7-.4-1.4V34.1a.1.1,0,0,0-.1-.1h-.5c-.1,0-.1,0-.1-.1v-.5c0-.1,0-.1.1-.1h.5a.1.1,0,0,0,.1-.1V31.6c0-.1,0-.1.1-.1h.7c.1,0,.1,0,.1.1v1.6a.1.1,0,0,0,.1.1h1c.1,0,.1,0,.1.1V34C78.2,34.1,78.1,34.2,78,34.2Z" transform="translate(-1.9 69.04)"/>
        <path class="cls-9" d="M79.9,40a2.11,2.11,0,0,1-.6-1.6v-3a1.89,1.89,0,0,1,.6-1.5,2.11,2.11,0,0,1,1.6-.6,2.66,2.66,0,0,1,1.2.3,2.7,2.7,0,0,1,.8.7,1.69,1.69,0,0,1,.3,1v.1c0,.1,0,.1-.1.1h-.8v-.2a1.14,1.14,0,0,0-.3-.8,1.22,1.22,0,0,0-.9-.3,1.09,1.09,0,0,0-.9.4,1.21,1.21,0,0,0-.3,1v2.9a1.69,1.69,0,0,0,.3,1,1,1,0,0,0,.9.4,1.4,1.4,0,0,0,.9-.3.83.83,0,0,0,.3-.8v-.1c0-.1,0-.1.1-.1h.7c.1,0,.1,0,.1.1v.2a1.82,1.82,0,0,1-.6,1.4,2.11,2.11,0,0,1-1.6.6A4.47,4.47,0,0,1,79.9,40Z" transform="translate(-1.9 69.04)"/>
        <path class="cls-9" d="M88.9,33.9a2.54,2.54,0,0,1,.5,1.6v4.8c0,.1,0,.1-.1.1h-.7c-.1,0-.1,0-.1-.1V35.6a1.8,1.8,0,0,0-.3-1.1.91.91,0,0,0-.8-.4,1,1,0,0,0-.9.4,1.8,1.8,0,0,0-.3,1.1v4.7c0,.1,0,.1-.1.1h-.7c-.1,0-.1,0-.1-.1V30.8c0-.1,0-.1.1-.1h.7c.1,0,.1,0,.1.1V34h0a1.58,1.58,0,0,1,1.5-.7A1.56,1.56,0,0,1,88.9,33.9Z" transform="translate(-1.9 69.04)"/>
        <path class="cls-9" d="M95.3,31.8a2.68,2.68,0,0,0-.2,1.1v.4a.1.1,0,0,0,.1.1h1.1c.1,0,.1,0,.1.1V34c0,.1,0,.1-.1.1H95.2a.1.1,0,0,0-.1.1v6.1c0,.1,0,.1-.1.1h-.7c-.1,0-.1,0-.1-.1V34.2a.1.1,0,0,0-.1-.1h-.6c-.1,0-.1,0-.1-.1v-.5c0-.1,0-.1.1-.1H94a.1.1,0,0,0,.1-.1v-.4a3,3,0,0,1,.4-1.8,1.72,1.72,0,0,1,1.5-.5h.2c.1,0,.1,0,.1.1v.6c0,.1,0,.1-.1.1H96C95.7,31.5,95.4,31.6,95.3,31.8Z" transform="translate(-1.9 69.04)"/>
        <path class="cls-9" d="M101,33.4h.7c.1,0,.1,0,.1.1v6.8c0,.1,0,.1-.1.1H101c-.1,0-.1,0-.1-.1v-.5h0a1.51,1.51,0,0,1-1.4.7,1.73,1.73,0,0,1-1.3-.5,2.25,2.25,0,0,1-.5-1.5v-5c0-.1,0-.1.1-.1h.7c.1,0,.1,0,.1.1v4.8a1.8,1.8,0,0,0,.3,1.1.91.91,0,0,0,.8.4,1,1,0,0,0,.9-.4,1.8,1.8,0,0,0,.3-1.1V33.6C100.9,33.5,100.9,33.4,101,33.4Z" transform="translate(-1.9 69.04)"/>
        <path class="cls-9" d="M107.4,33.9a2.54,2.54,0,0,1,.5,1.6v4.8c0,.1,0,.1-.1.1H107c-.1,0-.1,0-.1-.1V35.6a1.8,1.8,0,0,0-.3-1.1.91.91,0,0,0-.8-.4,1,1,0,0,0-.9.4,1.8,1.8,0,0,0-.3,1.1v4.7c0,.1,0,.1-.1.1h-.7c-.1,0-.1,0-.1-.1V33.5c0-.1,0-.1.1-.1h.7c.1,0,.1,0,.1.1V34h0a1.58,1.58,0,0,1,1.5-.7A1.49,1.49,0,0,1,107.4,33.9Z" transform="translate(-1.9 69.04)"/>
        <path class="cls-9" d="M115.9,33.9a2.35,2.35,0,0,1,.6,1.7v4.7c0,.1,0,.1-.1.1h-.7c-.1,0-.1,0-.1-.1V40h0a2,2,0,0,1-1.5.7,1.74,1.74,0,0,1-1.9-2,1.83,1.83,0,0,1,.7-1.7,2.79,2.79,0,0,1,1.8-.6h1a.1.1,0,0,0,.1-.1v-.5a1.8,1.8,0,0,0-.3-1.1,1,1,0,0,0-.9-.4,1,1,0,0,0-1,1c0,.1-.1.1-.2.1h-.9v-.1a1.56,1.56,0,0,1,.7-1.3,2.46,2.46,0,0,1,1.5-.5C115,33.3,115.5,33.5,115.9,33.9Zm-.8,5.5a1.16,1.16,0,0,0,.4-1V37.2a.1.1,0,0,0-.1-.1h-1a1.5,1.5,0,0,0-1.1.4,1.25,1.25,0,0,0-.4,1.1,1.22,1.22,0,0,0,.3.9,1.14,1.14,0,0,0,.8.3A2.82,2.82,0,0,0,115.1,39.4Z" transform="translate(-1.9 69.04)"/>
        <path class="cls-9" d="M121.9,33.9a2.54,2.54,0,0,1,.5,1.6v4.8c0,.1,0,.1-.1.1h-.7c-.1,0-.1,0-.1-.1V35.6a1.8,1.8,0,0,0-.3-1.1.91.91,0,0,0-.8-.4,1,1,0,0,0-.9.4,1.8,1.8,0,0,0-.3,1.1v4.7c0,.1,0,.1-.1.1h-.7c-.1,0-.1,0-.1-.1V33.5c0-.1,0-.1.1-.1h.7c.1,0,.1,0,.1.1V34h0a1.58,1.58,0,0,1,1.5-.7A1.43,1.43,0,0,1,121.9,33.9Z" transform="translate(-1.9 69.04)"/>
        <path class="cls-9" d="M127.4,30.7h.7c.1,0,.1,0,.1.1v9.5c0,.1,0,.1-.1.1h-.7c-.1,0-.1,0-.1-.1V40h0a2.65,2.65,0,0,1-.6.5,1.88,1.88,0,0,1-.8.2,1.49,1.49,0,0,1-1.3-.6,3.39,3.39,0,0,1-.6-1.5V35.5a2.46,2.46,0,0,1,.5-1.5,1.68,1.68,0,0,1,1.4-.6,1.51,1.51,0,0,1,1.4.7h0V31C127.2,30.7,127.3,30.7,127.4,30.7Zm-.5,8.7a1.69,1.69,0,0,0,.3-1V35.6a1.49,1.49,0,0,0-.3-1,.91.91,0,0,0-.8-.4,1,1,0,0,0-.9.4,1.69,1.69,0,0,0-.3,1v2.8a1.69,1.69,0,0,0,.3,1,1,1,0,0,0,.9.4A2,2,0,0,0,126.9,39.4Z" transform="translate(-1.9 69.04)"/>
      </g>
      <g>
        <path class="cls-9" d="M45.8,44.9a.73.73,0,1,1,.5.2A.37.37,0,0,1,45.8,44.9Zm0,8.5V46.6c0-.1,0-.1.1-.1h.7c.1,0,.1,0,.1.1v6.8c0,.1,0,.1-.1.1h-.7C45.8,53.5,45.8,53.5,45.8,53.4Z" transform="translate(-1.9 69.04)"/>
        <path class="cls-9" d="M52.4,46.9a2.54,2.54,0,0,1,.5,1.6v4.8c0,.1,0,.1-.1.1H52c-.1,0-.1,0-.1-.1V48.6a1.8,1.8,0,0,0-.3-1.1.91.91,0,0,0-.8-.4,1,1,0,0,0-.9.4,1.8,1.8,0,0,0-.3,1.1v4.7c0,.1,0,.1-.1.1h-.7c-.1,0-.1,0-.1-.1V46.5c0-.1,0-.1.1-.1h.7c.1,0,.1,0,.1.1V47h0a1.58,1.58,0,0,1,1.5-.7A1.61,1.61,0,0,1,52.4,46.9Z" transform="translate(-1.9 69.04)"/>
        <path class="cls-9" d="M56,44.8a2.68,2.68,0,0,0-.2,1.1v.4a.1.1,0,0,0,.1.1H57c.1,0,.1,0,.1.1V47c0,.1,0,.1-.1.1H55.9a.1.1,0,0,0-.1.1v6.1c0,.1,0,.1-.1.1H55c-.1,0-.1,0-.1-.1V47.2a.1.1,0,0,0-.1-.1h-.6c-.1,0-.1,0-.1-.1v-.5c0-.1,0-.1.1-.1h.6a.1.1,0,0,0,.1-.1v-.4a3,3,0,0,1,.4-1.8,1.72,1.72,0,0,1,1.5-.5H57c.1,0,.1,0,.1.1v.6c0,.1,0,.1-.1.1h-.2C56.4,44.5,56.1,44.6,56,44.8Z" transform="translate(-1.9 69.04)"/>
        <path class="cls-9" d="M58.8,53a2.11,2.11,0,0,1-.6-1.6v-3a1.89,1.89,0,0,1,.6-1.5,2.43,2.43,0,0,1,3.2,0,2,2,0,0,1,.6,1.5v3A2.27,2.27,0,0,1,62,53a2.43,2.43,0,0,1-3.2,0Zm2.5-.6a1.49,1.49,0,0,0,.3-1V48.5a1.69,1.69,0,0,0-.3-1,1,1,0,0,0-.9-.4,1.09,1.09,0,0,0-.9.4,1.21,1.21,0,0,0-.3,1v2.9a1.69,1.69,0,0,0,.3,1,1,1,0,0,0,.9.4A3.55,3.55,0,0,0,61.3,52.4Z" transform="translate(-1.9 69.04)"/>
        <path class="cls-9" d="M67.1,46.5c.1,0,.1.1.1.2l-.2.7c0,.1-.1.1-.2.1s-.2-.1-.4-.1h-.2a1,1,0,0,0-.8.5,2.13,2.13,0,0,0-.3,1.2v4.2c0,.1,0,.1-.1.1h-.7c-.1,0-.1,0-.1-.1V46.5c0-.1,0-.1.1-.1H65c.1,0,.1,0,.1.1v.8h0c.3-.7.7-1.1,1.3-1.1A1.54,1.54,0,0,1,67.1,46.5Z" transform="translate(-1.9 69.04)"/>
        <path class="cls-9" d="M75.2,46.9a2.86,2.86,0,0,1,.5,1.7v4.7c0,.1,0,.1-.1.1h-.7c-.1,0-.1,0-.1-.1V48.7a1.61,1.61,0,0,0-.3-1.1.91.91,0,0,0-.8-.4.81.81,0,0,0-.8.4,1.8,1.8,0,0,0-.3,1.1v4.7c0,.1,0,.1-.1.1h-.7c-.1,0-.1,0-.1-.1V48.8a1.61,1.61,0,0,0-.3-1.1.91.91,0,0,0-.8-.4.81.81,0,0,0-.8.4,1.8,1.8,0,0,0-.3,1.1v4.7c0,.1,0,.1-.1.1h-.7c-.1,0-.1,0-.1-.1V46.7c0-.1,0-.1.1-.1h.7c.1,0,.1,0,.1.1V47h0a2.65,2.65,0,0,1,.6-.5,1.88,1.88,0,0,1,.8-.2,1.22,1.22,0,0,1,.9.3c.2.2.5.4.6.7h0a1.58,1.58,0,0,1,.7-.7,1.49,1.49,0,0,1,.9-.2A1.15,1.15,0,0,1,75.2,46.9Z" transform="translate(-1.9 69.04)"/>
        <path class="cls-9" d="M80.9,46.9a2.35,2.35,0,0,1,.6,1.7v4.7c0,.1,0,.1-.1.1h-.7c-.1,0-.1,0-.1-.1V53h0a2,2,0,0,1-1.5.7A2.13,2.13,0,0,1,77.9,50a2.79,2.79,0,0,1,1.8-.6h1a.1.1,0,0,0,.1-.1v-.5a1.8,1.8,0,0,0-.3-1.1,1,1,0,0,0-.9-.4,1,1,0,0,0-1,1c0,.1-.1.1-.2.1h-.9v-.1a1.56,1.56,0,0,1,.7-1.3,2.46,2.46,0,0,1,1.5-.5C80,46.3,80.5,46.5,80.9,46.9Zm-.8,5.5a1.16,1.16,0,0,0,.4-1V50.2a.1.1,0,0,0-.1-.1h-1a1.5,1.5,0,0,0-1.1.4,1.25,1.25,0,0,0-.4,1.1,1.22,1.22,0,0,0,.3.9,1.14,1.14,0,0,0,.8.3A2.82,2.82,0,0,0,80.1,52.4Z" transform="translate(-1.9 69.04)"/>
        <path class="cls-9" d="M85.4,47.2H84.3a.1.1,0,0,0-.1.1v4.3a2,2,0,0,0,.2.9c.1.2.4.2.7.2h.1c.1,0,.1,0,.1.1v.6c0,.1,0,.1-.1.1H85a1.7,1.7,0,0,1-1.3-.4c-.3-.2-.4-.7-.4-1.4V47.1a.1.1,0,0,0-.1-.1h-.5c-.1,0-.1,0-.1-.1v-.5c0-.1,0-.1.1-.1h.5a.1.1,0,0,0,.1-.1V44.6c0-.1,0-.1.1-.1h.7c.1,0,.1,0,.1.1v1.6a.1.1,0,0,0,.1.1h1.1c.1,0,.1,0,.1.1V47C85.5,47.1,85.5,47.2,85.4,47.2Z" transform="translate(-1.9 69.04)"/>
        <path class="cls-9" d="M86.9,44.9a.71.71,0,0,1,1-1,.75.75,0,0,1,.1.5.68.68,0,0,1-.7.7C87.2,45.2,87,45.1,86.9,44.9Zm0,8.5V46.6c0-.1,0-.1.1-.1h.7c.1,0,.1,0,.1.1v6.8c0,.1,0,.1-.1.1H87C86.9,53.5,86.9,53.5,86.9,53.4Z" transform="translate(-1.9 69.04)"/>
        <path class="cls-9" d="M90.8,53.4l-1.7-6.8v-.1c0-.1,0-.1.1-.1H90c.1,0,.1,0,.2.1l1.2,5.4h0l1.2-5.4c0-.1.1-.1.2-.1h.9v.1L92,53.4c0,.1-.1.1-.2.1H91C90.9,53.5,90.9,53.5,90.8,53.4Z" transform="translate(-1.9 69.04)"/>
        <path class="cls-9" d="M98.9,50.3H95.7a.1.1,0,0,0-.1.1v1a1.69,1.69,0,0,0,.3,1,1,1,0,0,0,.9.4,1.14,1.14,0,0,0,.8-.3,1.61,1.61,0,0,0,.4-.7c0-.1.1-.1.2-.1H99v.1a1.86,1.86,0,0,1-.7,1.3,2.46,2.46,0,0,1-1.5.5,2.06,2.06,0,0,1-2.2-2.2v-3a1.89,1.89,0,0,1,.6-1.5,2.43,2.43,0,0,1,3.2,0,2,2,0,0,1,.6,1.5v1.8C99.1,50.3,99,50.3,98.9,50.3ZM96,47.5a1.49,1.49,0,0,0-.3,1v.9a.1.1,0,0,0,.1.1H98a.1.1,0,0,0,.1-.1v-.9a1.69,1.69,0,0,0-.3-1,1,1,0,0,0-.9-.4A1.88,1.88,0,0,0,96,47.5Z" transform="translate(-1.9 69.04)"/>
        <path class="cls-9" d="M104.6,53.4l-1.7-6.8v-.1c0-.1,0-.1.1-.1h.8c.1,0,.1,0,.2.1l1.2,5.4h0l1.2-5.4c0-.1.1-.1.2-.1h.9v.1l-1.7,6.8c0,.1-.1.1-.2.1h-.8C104.6,53.5,104.6,53.5,104.6,53.4Z" transform="translate(-1.9 69.04)"/>
        <path class="cls-9" d="M108.7,44.9a.72.72,0,1,1,.5.2A.37.37,0,0,1,108.7,44.9Zm0,8.5V46.6c0-.1,0-.1.1-.1h.7c.1,0,.1,0,.1.1v6.8c0,.1,0,.1-.1.1h-.7A.1.1,0,0,1,108.7,53.4Z" transform="translate(-1.9 69.04)"/>
        <path class="cls-9" d="M114.8,43.7h.7c.1,0,.1,0,.1.1v9.5c0,.1,0,.1-.1.1h-.7c-.1,0-.1,0-.1-.1V53h0a2.65,2.65,0,0,1-.6.5,1.88,1.88,0,0,1-.8.2,1.49,1.49,0,0,1-1.3-.6,3.39,3.39,0,0,1-.6-1.5V48.5a2.46,2.46,0,0,1,.5-1.5,1.68,1.68,0,0,1,1.4-.6,1.51,1.51,0,0,1,1.4.7h0V44C114.7,43.7,114.7,43.7,114.8,43.7Zm-.4,8.7a1.69,1.69,0,0,0,.3-1V48.6a1.49,1.49,0,0,0-.3-1,.91.91,0,0,0-.8-.4,1,1,0,0,0-.9.4,1.69,1.69,0,0,0-.3,1v2.8a1.69,1.69,0,0,0,.3,1,1,1,0,0,0,.9.4A3,3,0,0,0,114.4,52.4Z" transform="translate(-1.9 69.04)"/>
        <path class="cls-9" d="M121.5,50.3h-3.2a.1.1,0,0,0-.1.1v1a1.69,1.69,0,0,0,.3,1,1,1,0,0,0,.9.4,1.14,1.14,0,0,0,.8-.3,1.61,1.61,0,0,0,.4-.7c0-.1.1-.1.2-.1h.8v.1a1.86,1.86,0,0,1-.7,1.3,2.46,2.46,0,0,1-1.5.5,2.06,2.06,0,0,1-2.2-2.2v-3a1.89,1.89,0,0,1,.6-1.5,2.43,2.43,0,0,1,3.2,0,2,2,0,0,1,.6,1.5v1.8C121.6,50.3,121.6,50.3,121.5,50.3Zm-2.9-2.8a1.49,1.49,0,0,0-.3,1v.9a.1.1,0,0,0,.1.1h2.3a.1.1,0,0,0,.1-.1v-.9a1.69,1.69,0,0,0-.3-1,1,1,0,0,0-.9-.4A1.88,1.88,0,0,0,118.6,47.5Z" transform="translate(-1.9 69.04)"/>
        <path class="cls-9" d="M123.5,53a2.11,2.11,0,0,1-.6-1.6v-3a1.89,1.89,0,0,1,.6-1.5,2.43,2.43,0,0,1,3.2,0,2,2,0,0,1,.6,1.5v3a2.27,2.27,0,0,1-.6,1.6,2.43,2.43,0,0,1-3.2,0Zm2.5-.6a1.49,1.49,0,0,0,.3-1V48.5a1.69,1.69,0,0,0-.3-1,1.27,1.27,0,0,0-.9-.4,1.09,1.09,0,0,0-.9.4,1.49,1.49,0,0,0-.3,1v2.9a1.69,1.69,0,0,0,.3,1,1.21,1.21,0,0,0,1.8,0Z" transform="translate(-1.9 69.04)"/>
        <path class="cls-9" d="M129.2,53.1a1.61,1.61,0,0,1-.6-1.3v-.1c0-.1,0-.1.1-.1h.7c.1,0,.1,0,.1.1v.1a1.14,1.14,0,0,0,.3.8,1.22,1.22,0,0,0,.9.3,1,1,0,0,0,1.1-1.1,1.42,1.42,0,0,0-.2-.6,1,1,0,0,0-.5-.4l-.8-.4a3.92,3.92,0,0,1-.9-.4c-.2-.1-.4-.4-.6-.6a1.89,1.89,0,0,1,.3-2.4,2.5,2.5,0,0,1,3,0,1.68,1.68,0,0,1,.6,1.4h0c0,.1,0,.1-.1.1H132c-.1,0-.1,0-.1-.1v-.1a1.1,1.1,0,1,0-2.2,0,1.42,1.42,0,0,0,.2.6c.1.2.3.3.4.4a5.74,5.74,0,0,1,.7.4,3.6,3.6,0,0,1,.9.5,3.74,3.74,0,0,1,.7.6,1.49,1.49,0,0,1,.3,1,1.82,1.82,0,0,1-.6,1.4,2.54,2.54,0,0,1-1.6.5A3.39,3.39,0,0,1,129.2,53.1Z" transform="translate(-1.9 69.04)"/>
      </g>
      <g>
        <path class="cls-9" d="M47.9,66a2.11,2.11,0,0,1-.6-1.6v-3a1.89,1.89,0,0,1,.6-1.5,2.43,2.43,0,0,1,3.2,0,2,2,0,0,1,.6,1.5v3a2.27,2.27,0,0,1-.6,1.6,2.43,2.43,0,0,1-3.2,0Zm2.5-.6a1.49,1.49,0,0,0,.3-1V61.5a1.69,1.69,0,0,0-.3-1,1.27,1.27,0,0,0-.9-.4,1.09,1.09,0,0,0-.9.4,1.49,1.49,0,0,0-.3,1v2.9a1.69,1.69,0,0,0,.3,1,1.27,1.27,0,0,0,.9.4A1.49,1.49,0,0,0,50.4,65.4Z" transform="translate(-1.9 69.04)"/>
        <path class="cls-9" d="M57.1,59.9a2.54,2.54,0,0,1,.5,1.6v4.8c0,.1,0,.1-.1.1h-.7c-.1,0-.1,0-.1-.1V61.6a1.8,1.8,0,0,0-.3-1.1.91.91,0,0,0-.8-.4,1,1,0,0,0-.9.4,1.8,1.8,0,0,0-.3,1.1v4.7c0,.1,0,.1-.1.1h-.7c-.1,0-.1,0-.1-.1V59.5c0-.1,0-.1.1-.1h.7c.1,0,.1,0,.1.1V60h0a1.58,1.58,0,0,1,1.5-.7A1.56,1.56,0,0,1,57.1,59.9Z" transform="translate(-1.9 69.04)"/>
        <path class="cls-9" d="M64.3,60.2H63.2a.1.1,0,0,0-.1.1v4.3a2,2,0,0,0,.2.9c.1.2.4.2.7.2h.1c.1,0,.1,0,.1.1v.6c0,.1,0,.1-.1.1h-.4a1.7,1.7,0,0,1-1.3-.4c-.3-.2-.4-.7-.4-1.4V60.1a.1.1,0,0,0-.1-.1h-.5c-.1,0-.1,0-.1-.1v-.5c0-.1,0-.1.1-.1h.5a.1.1,0,0,0,.1-.1V57.6c0-.1,0-.1.1-.1h.7c.1,0,.1,0,.1.1v1.6a.1.1,0,0,0,.1.1h1.1c.1,0,.1,0,.1.1V60C64.5,60.1,64.4,60.2,64.3,60.2Z" transform="translate(-1.9 69.04)"/>
        <path class="cls-9" d="M69.6,59.9a2.54,2.54,0,0,1,.5,1.6v4.8c0,.1,0,.1-.1.1h-.7c-.1,0-.1,0-.1-.1V61.6a1.8,1.8,0,0,0-.3-1.1.91.91,0,0,0-.8-.4,1,1,0,0,0-.9.4,1.8,1.8,0,0,0-.3,1.1v4.7c0,.1,0,.1-.1.1h-.7c-.1,0-.1,0-.1-.1V56.8c0-.1,0-.1.1-.1h.7c.1,0,.1,0,.1.1V60h0a1.58,1.58,0,0,1,1.5-.7A1.73,1.73,0,0,1,69.6,59.9Z" transform="translate(-1.9 69.04)"/>
        <path class="cls-9" d="M75.7,63.3H72.5a.1.1,0,0,0-.1.1v1a1.69,1.69,0,0,0,.3,1,1.27,1.27,0,0,0,.9.4,1.14,1.14,0,0,0,.8-.3,1.61,1.61,0,0,0,.4-.7c0-.1.1-.1.2-.1h.8v.1a1.86,1.86,0,0,1-.7,1.3,2.46,2.46,0,0,1-1.5.5,2.06,2.06,0,0,1-2.2-2.2v-3a1.89,1.89,0,0,1,.6-1.5,2.43,2.43,0,0,1,3.2,0,2,2,0,0,1,.6,1.5v1.8C75.9,63.3,75.8,63.3,75.7,63.3Zm-2.9-2.8a1.49,1.49,0,0,0-.3,1v.9a.1.1,0,0,0,.1.1h2.3a.1.1,0,0,0,.1-.1v-.9a1.69,1.69,0,0,0-.3-1,1.27,1.27,0,0,0-.9-.4A1.88,1.88,0,0,0,72.8,60.5Z" transform="translate(-1.9 69.04)"/>
        <path class="cls-9" d="M80.4,66.1a1.61,1.61,0,0,1-.6-1.3v-.1c0-.1,0-.1.1-.1h.7c.1,0,.1,0,.1.1v.1a1.14,1.14,0,0,0,.3.8,1.22,1.22,0,0,0,.9.3A1,1,0,0,0,83,64.8a1.42,1.42,0,0,0-.2-.6,1,1,0,0,0-.5-.4l-.8-.4a3.92,3.92,0,0,1-.9-.4c-.2-.1-.4-.4-.6-.6a1.89,1.89,0,0,1,.3-2.4,2.5,2.5,0,0,1,3,0,1.68,1.68,0,0,1,.6,1.4h0c0,.1,0,.1-.1.1h-.6c-.1,0-.1,0-.1-.1v-.1a1.1,1.1,0,1,0-2.2,0,1.42,1.42,0,0,0,.2.6c.1.2.3.3.4.4a5.74,5.74,0,0,1,.7.4,3.6,3.6,0,0,1,.9.5,3.74,3.74,0,0,1,.7.6,1.49,1.49,0,0,1,.3,1,1.82,1.82,0,0,1-.6,1.4,2.54,2.54,0,0,1-1.6.5A3.39,3.39,0,0,1,80.4,66.1Z" transform="translate(-1.9 69.04)"/>
        <path class="cls-9" d="M92.4,59.9a2.86,2.86,0,0,1,.5,1.7v4.7c0,.1,0,.1-.1.1H92c-.1,0-.1,0-.1-.1V61.7a1.61,1.61,0,0,0-.3-1.1.91.91,0,0,0-.8-.4.81.81,0,0,0-.8.4,1.8,1.8,0,0,0-.3,1.1v4.7c0,.1,0,.1-.1.1h-.7c-.1,0-.1,0-.1-.1V61.8a1.61,1.61,0,0,0-.3-1.1.91.91,0,0,0-.8-.4.81.81,0,0,0-.8.4,1.8,1.8,0,0,0-.3,1.1v4.7c0,.1,0,.1-.1.1h-.7c-.1,0-.1,0-.1-.1V59.7c0-.1,0-.1.1-.1h.7c.1,0,.1,0,.1.1V60h0a2.65,2.65,0,0,1,.6-.5,1.88,1.88,0,0,1,.8-.2,1.22,1.22,0,0,1,.9.3c.2.2.5.4.6.7h0a1.58,1.58,0,0,1,.7-.7,1.49,1.49,0,0,1,.9-.2A1.38,1.38,0,0,1,92.4,59.9Z" transform="translate(-1.9 69.04)"/>
        <path class="cls-9" d="M98.1,59.9a2.35,2.35,0,0,1,.6,1.7v4.7c0,.1,0,.1-.1.1h-.7c-.1,0-.1,0-.1-.1V66h0a2,2,0,0,1-1.5.7A2.13,2.13,0,0,1,95.1,63a2.79,2.79,0,0,1,1.8-.6h1a.1.1,0,0,0,.1-.1v-.5a1.8,1.8,0,0,0-.3-1.1,1,1,0,0,0-.9-.4,1,1,0,0,0-1,1c0,.1-.1.1-.2.1h-.9v-.1a1.56,1.56,0,0,1,.7-1.3,2.46,2.46,0,0,1,1.5-.5C97.2,59.3,97.7,59.5,98.1,59.9Zm-.9,5.5a1.16,1.16,0,0,0,.4-1V63.2a.1.1,0,0,0-.1-.1h-1a1.5,1.5,0,0,0-1.1.4,1.25,1.25,0,0,0-.4,1.1,1.22,1.22,0,0,0,.3.9,1.14,1.14,0,0,0,.8.3A2.3,2.3,0,0,0,97.2,65.4Z" transform="translate(-1.9 69.04)"/>
        <path class="cls-9" d="M103.2,59.5c.1,0,.1.1.1.2l-.2.7c0,.1-.1.1-.2.1s-.2-.1-.4-.1h-.2a1,1,0,0,0-.8.5,2.13,2.13,0,0,0-.3,1.2v4.2c0,.1,0,.1-.1.1h-.7c-.1,0-.1,0-.1-.1V59.5c0-.1,0-.1.1-.1h.7c.1,0,.1,0,.1.1v.8h0c.3-.7.7-1.1,1.3-1.1A4.88,4.88,0,0,1,103.2,59.5Z" transform="translate(-1.9 69.04)"/>
        <path class="cls-9" d="M106.6,60.2h-1.1a.1.1,0,0,0-.1.1v4.3a2,2,0,0,0,.2.9c.1.2.4.2.7.2h.1c.1,0,.1,0,.1.1v.6c0,.1,0,.1-.1.1h-.3a1.7,1.7,0,0,1-1.3-.4c-.3-.2-.4-.7-.4-1.4V60.1a.1.1,0,0,0-.1-.1h-.5c-.1,0-.1,0-.1-.1v-.5c0-.1,0-.1.1-.1h.5a.1.1,0,0,0,.1-.1V57.6c0-.1,0-.1.1-.1h.7c.1,0,.1,0,.1.1v1.6a.1.1,0,0,0,.1.1h1.1c.1,0,.1,0,.1.1V60C106.8,60.1,106.7,60.2,106.6,60.2Z" transform="translate(-1.9 69.04)"/>
        <path class="cls-9" d="M114.2,59.4h.7c.1,0,.1,0,.1.1v6.8a3.17,3.17,0,0,1-.7,2.3,2.68,2.68,0,0,1-2.3.7c-.1,0-.1-.1-.1-.2v-.6c0-.1,0-.1.1-.1a2.35,2.35,0,0,0,1.6-.5,2.5,2.5,0,0,0,.4-1.7v-.4h0a2.65,2.65,0,0,1-.6.5,1.88,1.88,0,0,1-.8.2,1.68,1.68,0,0,1-1.4-.6,2.54,2.54,0,0,1-.5-1.6v-3a2.54,2.54,0,0,1,.5-1.6,1.68,1.68,0,0,1,1.4-.6,2.35,2.35,0,0,1,.8.2,1.47,1.47,0,0,1,.6.5h0v-.4C114.1,59.5,114.1,59.4,114.2,59.4Zm-.5,5.9a1.49,1.49,0,0,0,.3-1V61.5a1.69,1.69,0,0,0-.3-1,.91.91,0,0,0-.8-.4,1.09,1.09,0,0,0-.9.4,1.49,1.49,0,0,0-.3,1v2.8a1.69,1.69,0,0,0,.3,1,1.27,1.27,0,0,0,.9.4A.91.91,0,0,0,113.7,65.3Z" transform="translate(-1.9 69.04)"/>
        <path class="cls-9" d="M119.6,59.5c.1,0,.1.1.1.2l-.2.7c0,.1-.1.1-.2.1s-.2-.1-.4-.1h-.2a1,1,0,0,0-.8.5,2.13,2.13,0,0,0-.3,1.2v4.2c0,.1,0,.1-.1.1h-.7c-.1,0-.1,0-.1-.1V59.5c0-.1,0-.1.1-.1h.7c.1,0,.1,0,.1.1v.8h0c.3-.7.7-1.1,1.3-1.1A4.88,4.88,0,0,1,119.6,59.5Z" transform="translate(-1.9 69.04)"/>
        <path class="cls-9" d="M120.8,57.9a.72.72,0,1,1,.5.2A.37.37,0,0,1,120.8,57.9Zm0,8.5V59.6c0-.1,0-.1.1-.1h.7c.1,0,.1,0,.1.1v6.8c0,.1,0,.1-.1.1h-.7C120.8,66.5,120.8,66.5,120.8,66.4Z" transform="translate(-1.9 69.04)"/>
        <path class="cls-9" d="M126.9,56.7h.7c.1,0,.1,0,.1.1v9.5c0,.1,0,.1-.1.1h-.7c-.1,0-.1,0-.1-.1V66h0a2.65,2.65,0,0,1-.6.5,1.88,1.88,0,0,1-.8.2,1.49,1.49,0,0,1-1.3-.6,3.39,3.39,0,0,1-.6-1.5V61.5A2.46,2.46,0,0,1,124,60a1.68,1.68,0,0,1,1.4-.6,1.51,1.51,0,0,1,1.4.7h0V57C126.8,56.7,126.8,56.7,126.9,56.7Zm-.5,8.7a1.69,1.69,0,0,0,.3-1V61.6a1.49,1.49,0,0,0-.3-1,.91.91,0,0,0-.8-.4,1,1,0,0,0-.9.4,1.69,1.69,0,0,0-.3,1v2.8a1.69,1.69,0,0,0,.3,1,1,1,0,0,0,.9.4A2,2,0,0,0,126.4,65.4Z" transform="translate(-1.9 69.04)"/>
        <path class="cls-9" d="M129.5,66.2a1,1,0,0,1,0-1.2.55.55,0,0,1,.5-.2.76.76,0,0,1,.5.2.73.73,0,0,1,.2.6,1.42,1.42,0,0,1-.2.6c-.1.2-.3.2-.5.2A.37.37,0,0,1,129.5,66.2Z" transform="translate(-1.9 69.04)"/>
      </g>
      <text class="cls-11" transform="translate(129.62 135.54)"> </text>
      <g class="cls-12">
        <path class="cls-13" d="M113-19.7C107.7.8,81.2,11.7,53.8,4.6S8.6-24.9,13.9-45.4s31.8-28.2,59.2-21c27.4,7,45.2,26.2,39.9,46.7" transform="translate(-1.9 69.04)"/>
      </g>
      <g>
        <g class="cls-12">
          <path class="cls-9" d="M78-18.5a13.22,13.22,0,0,1,5.3,1.1,34.71,34.71,0,0,0-.7-12.7,42.75,42.75,0,0,1-7.1,4c-3,4.1-9.6,7-17.2,7-7.4,0-13.7-2.6-16.9-6.5a43.73,43.73,0,0,1-9.3-6.5S39,1.8,59.3,3.5a22.29,22.29,0,0,0,6.4-.4A15.25,15.25,0,0,1,63.9-4,14.3,14.3,0,0,1,78-18.5" transform="translate(-1.9 69.04)"/>
        </g>
        <g class="cls-12">
          <path class="cls-14" d="M83.3-17.4A13.22,13.22,0,0,0,78-18.5,14.3,14.3,0,0,0,63.9-4a14.88,14.88,0,0,0,1.9,7.2c9.3-2,16.1-9.8,17.5-20.6" transform="translate(-1.9 69.04)"/>
        </g>
        <g class="cls-12">
          <path class="cls-9" d="M79.7-18.4v.7c0,10.1-6,18.6-13.9,20.8h0c9.3-1.9,16.1-9.7,17.5-20.5a13.64,13.64,0,0,0-3.6-1" transform="translate(-1.9 69.04)"/>
        </g>
      </g>
      <g>
        <g class="cls-12">
          <path class="cls-15" d="M6.5,108.2s12.2,6.5,20.1,2.9S36,94.9,36,94.9L33.5,93l-8.4,3.7Z" transform="translate(-1.9 69.04)"/>
        </g>
        <g class="cls-12">
          <path class="cls-15" d="M111.3,107.2s-12.2,6.5-20.1,2.9-9.4-16.2-9.4-16.2L84.3,92l8.4,3.7Z" transform="translate(-1.9 69.04)"/>
        </g>
        <g class="cls-12">
          <path class="cls-14" d="M101,136.4c0,28.9-12.2,39.9-41.1,39.9s-44.3-9.9-44.3-38.8S31,87.9,59.9,87.9,101,107.5,101,136.4" transform="translate(-1.9 69.04)"/>
        </g>
        <g class="cls-12">
          <path class="cls-16" d="M60,164.5h0a7.34,7.34,0,0,1-7.3-7.3v-.8H67.2v.8a7.13,7.13,0,0,1-7.2,7.3" transform="translate(-1.9 69.04)"/>
        </g>
        <g class="cls-12">
          <g class="cls-17">
            <g class="cls-18">
              <g class="cls-18">
                <path class="cls-15" d="M48.9,125.2c0,6.6-5.1,11.9-11.3,11.9s-11.3-5.3-11.3-11.9,5.1-11.9,11.3-11.9,11.3,5.3,11.3,11.9" transform="translate(-1.9 69.04)"/>
              </g>
            </g>
          </g>
        </g>
        <g class="cls-12">
          <g class="cls-17">
            <g class="cls-19">
              <g class="cls-19">
                <path class="cls-15" d="M91.9,125.2c0,6.6-5.1,11.9-11.3,11.9s-11.3-5.3-11.3-11.9,5.1-11.9,11.3-11.9,11.3,5.3,11.3,11.9" transform="translate(-1.9 69.04)"/>
              </g>
            </g>
          </g>
        </g>
        <g class="cls-12">
          <path class="cls-8" d="M48.2,123.6a10,10,0,1,1-10-10,10,10,0,0,1,10,10" transform="translate(-1.9 69.04)"/>
        </g>
        <g class="cls-12">
          <path class="cls-8" d="M90.2,123.6a10,10,0,1,1-10-10,10,10,0,0,1,10,10" transform="translate(-1.9 69.04)"/>
        </g>
        <g class="cls-12">
          <g class="cls-17">
            <g class="cls-20">
              <g class="cls-20">
                <path class="cls-15" d="M48.9,164.5a8.79,8.79,0,0,0,4.4,5,15.21,15.21,0,0,0,6.4,1.2,9.72,9.72,0,0,0,10-7.3,8.72,8.72,0,0,1-2.5,7.2,9.88,9.88,0,0,1-3.5,2.2c-.3.1-.6.2-1,.3l-1,.2a13.55,13.55,0,0,1-2,.2,12.2,12.2,0,0,1-7.6-2.1,7.55,7.55,0,0,1-3.2-6.9" transform="translate(-1.9 69.04)"/>
              </g>
            </g>
          </g>
        </g>
        <g class="cls-12">
          <path class="cls-21" d="M73.9,168.3h0c-6.8,0-13.2-5-14-11.7-.8,6.7-7.2,11.7-14,11.7h0A13.29,13.29,0,0,1,32.6,155v-4.6a23.22,23.22,0,0,1,23.2-23.2H64a23.22,23.22,0,0,1,23.2,23.2V155a13.36,13.36,0,0,1-13.3,13.3" transform="translate(-1.9 69.04)"/>
        </g>
        <g class="cls-12">
          <path class="cls-9" d="M73.9,168.3h0c-6.8,0-13.2-5-14-11.7-.8,6.7-7.2,11.7-14,11.7h0A13.29,13.29,0,0,1,32.6,155v-4.6a23.22,23.22,0,0,1,23.2-23.2H64a23.22,23.22,0,0,1,23.2,23.2V155a13.36,13.36,0,0,1-13.3,13.3" transform="translate(-1.9 69.04)"/>
        </g>
        <g class="cls-12">
          <path class="cls-15" d="M33.5,139.9a37.36,37.36,0,0,1,11-11.4,28.45,28.45,0,0,1,15.6-5.1,29.47,29.47,0,0,1,8.3,1.4,35.73,35.73,0,0,1,7.3,3.7,38.86,38.86,0,0,1,11.1,11.4,75.34,75.34,0,0,0-12.7-8.7,45.35,45.35,0,0,0-6.9-2.8c-1.2-.3-2.3-.6-3.5-.8s-2.4-.2-3.6-.3a30.94,30.94,0,0,0-14,3.8,75.25,75.25,0,0,0-12.6,8.8" transform="translate(-1.9 69.04)"/>
        </g>
        <g class="cls-12">
          <g class="cls-17">
            <g class="cls-22">
              <g class="cls-23">
                <path class="cls-15" d="M22.3,121.6a19.89,19.89,0,0,1,.6-5.4,16.44,16.44,0,0,1,2.2-5.1,14,14,0,0,1,9.3-6.5l1.4-.3a6.6,6.6,0,0,1,1.4-.1,14.31,14.31,0,0,1,2.9.1,12,12,0,0,1,5.5,1.8,13,13,0,0,1,2.3,1.8,12.42,12.42,0,0,1,1.7,2.3c.5.8.9,1.6,1.3,2.4a6.36,6.36,0,0,0,1.4,2.2,5.25,5.25,0,0,1-2.2-1.7c-.6-.7-1.2-1.3-1.8-1.9a15.22,15.22,0,0,0-3.9-2.9,14,14,0,0,0-4.6-1,20.83,20.83,0,0,0-2.5,0,19.67,19.67,0,0,0-2.4.3,12.84,12.84,0,0,0-8,4.9,28.86,28.86,0,0,0-4.6,9.1" transform="translate(-1.9 69.04)"/>
              </g>
            </g>
          </g>
        </g>
        <g class="cls-12">
          <g class="cls-17">
            <g class="cls-24">
              <g class="cls-25">
                <path class="cls-15" d="M96.6,121.6a28.59,28.59,0,0,0-4.7-9.2,13.29,13.29,0,0,0-8-4.9,19.67,19.67,0,0,0-2.4-.3,10.44,10.44,0,0,0-2.5,0,14,14,0,0,0-4.6,1,11.67,11.67,0,0,0-3.9,2.9c-.6.6-1.2,1.3-1.8,1.9a6.2,6.2,0,0,1-2.2,1.7,6.36,6.36,0,0,0,1.4-2.2c.4-.8.8-1.6,1.3-2.4a12.42,12.42,0,0,1,1.7-2.3,10.18,10.18,0,0,1,2.3-1.8,15.48,15.48,0,0,1,5.5-1.8,28.1,28.1,0,0,1,2.9-.1,6.6,6.6,0,0,1,1.4.1l1.4.3a14.26,14.26,0,0,1,9.3,6.5,20.71,20.71,0,0,1,2.2,5.1,21.28,21.28,0,0,1,.7,5.5" transform="translate(-1.9 69.04)"/>
              </g>
            </g>
          </g>
        </g>
        <g class="cls-12">
          <path class="cls-15" d="M49.8,124.6a11.49,11.49,0,0,1,9.4-5.3,26.35,26.35,0,0,1,2.8.2,14.26,14.26,0,0,1,2.7.9,8.21,8.21,0,0,1,4,3.8,11.66,11.66,0,0,0-4.4-2.9,14.81,14.81,0,0,0-5.1-.9,12.52,12.52,0,0,0-5,1.1,23.18,23.18,0,0,0-4.4,3.1" transform="translate(-1.9 69.04)"/>
        </g>
        <g class="cls-12">
          <path class="cls-15" d="M41.4,125.4a5.8,5.8,0,1,1-5.8-5.8,5.8,5.8,0,0,1,5.8,5.8" transform="translate(-1.9 69.04)"/>
        </g>
        <g class="cls-12">
          <path class="cls-9" d="M38.8,125.4a3.2,3.2,0,1,1-3.2-3.2,3.16,3.16,0,0,1,3.2,3.2" transform="translate(-1.9 69.04)"/>
        </g>
        <g class="cls-12">
          <path class="cls-15" d="M89.1,125.2a5.8,5.8,0,1,1-5.8-5.8,5.8,5.8,0,0,1,5.8,5.8" transform="translate(-1.9 69.04)"/>
        </g>
        <g class="cls-12">
          <path class="cls-9" d="M86.7,125.3a3.2,3.2,0,1,1-3.2-3.2,3.29,3.29,0,0,1,3.2,3.2" transform="translate(-1.9 69.04)"/>
        </g>
        <g class="cls-12">
          <g class="cls-17">
            <g class="cls-26">
              <g>
                <g class="cls-26">
                  <path class="cls-15" d="M90.2,145.2c1.2,6.8-.8,18.4-2.3,24.7,9-6.1,13-16.8,13-33.4,0-1.2,0-2.4-.1-3.6-3.5,7.5-10.6,12.3-10.6,12.3" transform="translate(-1.9 69.04)"/>
                </g>
                <g class="cls-26">
                  <path class="cls-15" d="M34,172c-5.9-8.4-7-26.9-7-26.9a17.93,17.93,0,0,1-11.4-11.3c-.1,1.2-.1,2.4-.1,3.6,0,18.6,6.4,29.3,18.5,34.6" transform="translate(-1.9 69.04)"/>
                </g>
              </g>
            </g>
          </g>
        </g>
        <g class="cls-12">
          <path class="cls-9" d="M64.9,129.4h-10a5.38,5.38,0,0,0-5.4,5.4v.4a10.41,10.41,0,0,0,5.8,9.3,1.32,1.32,0,0,0,1.8-1.6l-.1-.3s-1.3.5-3-2.3c-.6-1-.5-1.7-.1-2.2a1.61,1.61,0,0,1,2.8.6l1.9,6.8c.4,0,.8.1,1.2.1.6,0,1.1-.1,1.6-.1l1.9-6.7a1.57,1.57,0,0,1,2.8-.6c.4.5.5,1.2-.1,2.2-1.7,2.8-3,2.3-3,2.3a1.3,1.3,0,0,0,1.9,1.5,10.34,10.34,0,0,0,5.2-9v-.4a5.21,5.21,0,0,0-5.2-5.4" transform="translate(-1.9 69.04)"/>
        </g>
        <g class="cls-12">
          <g class="cls-27">
            <g class="cls-27">
              <path class="cls-9" d="M64.9,129.4h-10a5.38,5.38,0,0,0-5.4,5.4v.4a10.41,10.41,0,0,0,5.8,9.3,1.32,1.32,0,0,0,1.8-1.6l-.1-.3s-1.3.5-3-2.3c-.6-1-.5-1.7-.1-2.2a1.61,1.61,0,0,1,2.8.6l1.9,6.8c.4,0,.8.1,1.2.1.6,0,1.1-.1,1.6-.1l1.9-6.7a1.57,1.57,0,0,1,2.8-.6c.4.5.5,1.2-.1,2.2-1.7,2.8-3,2.3-3,2.3a1.3,1.3,0,0,0,1.9,1.5,10.34,10.34,0,0,0,5.2-9v-.4a5.21,5.21,0,0,0-5.2-5.4" transform="translate(-1.9 69.04)"/>
            </g>
          </g>
        </g>
        <g class="cls-12">
          <path class="cls-28" d="M51.8,133.3s1.9-1.7,8.3-1.7,8,1.7,8,1.7" transform="translate(-1.9 69.04)"/>
        </g>
      </g>
      <g class="cls-29">
        <g class="cls-30">
          <polygon class="cls-31" points="35.7 176.74 49.3 191.94 34 205.74 20.4 190.54 35.7 176.74"/>
        </g>
      </g>
      <g class="cls-32">
        <g class="cls-33">
          <polygon class="cls-34" points="77.9 176.84 91.6 192.04 76.3 205.74 62.6 190.64 77.9 176.84"/>
        </g>
      </g>
      <g>
        <g class="cls-12">
          <path class="cls-35" d="M35.2,127.9a1.1,1.1,0,1,1-1.1-1.1,1.18,1.18,0,0,1,1.1,1.1" transform="translate(-1.9 69.04)"/>
        </g>
        <g class="cls-12">
          <path class="cls-35" d="M39.3,123.2a2,2,0,1,1-2-2,2,2,0,0,1,2,2" transform="translate(-1.9 69.04)"/>
        </g>
        <g class="cls-12">
          <path class="cls-35" d="M87.2,123.2a2,2,0,1,1-2-2,2,2,0,0,1,2,2" transform="translate(-1.9 69.04)"/>
        </g>
        <g class="cls-12">
          <path class="cls-35" d="M82.8,127.9a1.1,1.1,0,1,1-1.1-1.1,1.18,1.18,0,0,1,1.1,1.1" transform="translate(-1.9 69.04)"/>
        </g>
        <g class="cls-12">
          <g class="cls-17">
            <g class="cls-36">
              <g class="cls-36">
                <path class="cls-15" d="M30,103.3a24.59,24.59,0,0,1,7.2-3.7,15.22,15.22,0,0,1,8.2-.3,10.86,10.86,0,0,1,3.7,1.9,41.07,41.07,0,0,1,3,2.9,11.75,11.75,0,0,0,3,2.5,6.53,6.53,0,0,0,3.6,1,7.66,7.66,0,0,0,3.7-.7,8.63,8.63,0,0,0,2.8-2.6,34.33,34.33,0,0,1,2.4-3.3,5.92,5.92,0,0,1,3.7-2.2c1.4-.1,2.7-.1,4.1-.1a28.28,28.28,0,0,1,4.1.3,22.48,22.48,0,0,1,7.5,3.1,22.67,22.67,0,0,0-7.6-2.5,30.61,30.61,0,0,0-8,.1,5.11,5.11,0,0,0-3.1,1.9c-.8,1-1.5,2.2-2.3,3.3a9.6,9.6,0,0,1-3.1,2.9,7.72,7.72,0,0,1-4.2.8,8.49,8.49,0,0,1-4.1-1.2,16.26,16.26,0,0,1-3.1-2.7,24.67,24.67,0,0,0-2.8-2.8,11.12,11.12,0,0,0-3.4-1.8,13.8,13.8,0,0,0-7.8,0,22.69,22.69,0,0,0-7.5,3.2" transform="translate(-1.9 69.04)"/>
              </g>
            </g>
          </g>
        </g>
        <g class="cls-12">
          <g class="cls-17">
            <g class="cls-37">
              <g class="cls-37">
                <path class="cls-15" d="M39.4,97.9a14.7,14.7,0,0,1,4.8-3.7,7.75,7.75,0,0,1,3-.7,6.81,6.81,0,0,1,3.1.8,8.09,8.09,0,0,1,2.4,2.1c.6.8,1.2,1.7,1.7,2.5,1,1.7,2.3,3.3,4.2,3.3a3.49,3.49,0,0,0,2.4-.8,6.34,6.34,0,0,0,1.6-2.3l1.3-2.7a6,6,0,0,1,2-2.5,3.17,3.17,0,0,1,1.6-.4H69a10.88,10.88,0,0,1,3.1.3,13.13,13.13,0,0,1,5.2,3.1A12.53,12.53,0,0,0,72,94.3a9.52,9.52,0,0,0-2.9-.1l-1.5.1a1.59,1.59,0,0,0-1.2.4,6,6,0,0,0-1.6,2.2l-1.2,2.8a7.61,7.61,0,0,1-1.8,2.6,4.07,4.07,0,0,1-3.2,1.1,4.82,4.82,0,0,1-3-1.3,11,11,0,0,1-1.9-2.5C52.6,97.8,51.6,96,50,95a5,5,0,0,0-2.7-.8,8.68,8.68,0,0,0-2.8.5,16.9,16.9,0,0,0-5.1,3.2" transform="translate(-1.9 69.04)"/>
              </g>
            </g>
          </g>
        </g>
        <g class="cls-12">
          <path class="cls-14" d="M36.7,94.4,33.5,92S2.9,105,1.9,108.8c0,0,1.9,10.5,4.2,12.8,0,0,13.2-24.5,27.1-27.6l3,1.5Z" transform="translate(-1.9 69.04)"/>
        </g>
        <g class="cls-12">
          <path class="cls-14" d="M81.1,93.3l3.2-2.4s30.6,13,31.6,16.8c0,0-1.9,10.5-4.2,12.8,0,0-13.2-24.5-27.1-27.6l-3,1.5Z" transform="translate(-1.9 69.04)"/>
        </g>
        <g class="cls-12">
          <path class="cls-15" d="M48,168.6s-1.4-15.1,11.8-15,12.5,14.8,12.5,14.8-13.7,5.5-24.3.2" transform="translate(-1.9 69.04)"/>
        </g>
        <g class="cls-12">
          <path class="cls-9" d="M69.6,155.9a6.09,6.09,0,0,0-3.1-1.3,28.11,28.11,0,0,1-3.1-1c-.9-.3-1.8-.7-2.7-1.1v-5.4H59.5v5.4a20.29,20.29,0,0,1-2.6,1.1c-1,.4-2.1.7-3.1,1a9.32,9.32,0,0,0-3.1,1.3,2.81,2.81,0,0,0-.9,3.1,2.88,2.88,0,0,1,1.1-2.9,7.56,7.56,0,0,1,3.1-1c1.1-.2,2.2-.4,3.3-.7s2-.6,3-1c1,.4,2,.7,3,1s2.2.5,3.3.7a7.11,7.11,0,0,1,3,1,2.8,2.8,0,0,1,1.1,2.8,3.67,3.67,0,0,0-1.1-3" transform="translate(-1.9 69.04)"/>
        </g>
        <g class="cls-12">
          <g class="cls-38">
            <g class="cls-38">
              <path class="cls-9" d="M69.6,155.9a6.09,6.09,0,0,0-3.1-1.3,28.11,28.11,0,0,1-3.1-1c-.9-.3-1.8-.7-2.7-1.1v-5.4H59.5v5.4a20.29,20.29,0,0,1-2.6,1.1c-1,.4-2.1.7-3.1,1a9.32,9.32,0,0,0-3.1,1.3,2.81,2.81,0,0,0-.9,3.1,2.88,2.88,0,0,1,1.1-2.9,7.56,7.56,0,0,1,3.1-1c1.1-.2,2.2-.4,3.3-.7s2-.6,3-1c1,.4,2,.7,3,1s2.2.5,3.3.7a7.11,7.11,0,0,1,3,1,2.8,2.8,0,0,1,1.1,2.8,3.67,3.67,0,0,0-1.1-3" transform="translate(-1.9 69.04)"/>
            </g>
          </g>
        </g>
        <g class="cls-12">
          <path class="cls-9" d="M41.2,144.6a.4.4,0,1,1-.4-.4.37.37,0,0,1,.4.4" transform="translate(-1.9 69.04)"/>
        </g>
        <g class="cls-12">
          <path class="cls-9" d="M44.9,145.9a.4.4,0,1,1-.4-.4.43.43,0,0,1,.4.4" transform="translate(-1.9 69.04)"/>
        </g>
        <g class="cls-12">
          <path class="cls-9" d="M42.3,147.2a.4.4,0,1,1-.4-.4.43.43,0,0,1,.4.4" transform="translate(-1.9 69.04)"/>
        </g>
        <g class="cls-12">
          <path class="cls-9" d="M43.5,144.6a.4.4,0,1,1-.4-.4.37.37,0,0,1,.4.4" transform="translate(-1.9 69.04)"/>
        </g>
        <g class="cls-12">
          <path class="cls-9" d="M38.9,147c.1.2.1.4-.1.5s-.4.1-.5-.1-.1-.4.1-.5a.35.35,0,0,1,.5.1" transform="translate(-1.9 69.04)"/>
        </g>
        <g class="cls-12">
          <path class="cls-9" d="M43,150.5c.1.2.1.4-.1.5s-.4.1-.5-.1-.1-.4.1-.5.4,0,.5.1" transform="translate(-1.9 69.04)"/>
        </g>
        <g class="cls-12">
          <path class="cls-9" d="M45.9,148.4c.1.2.1.4-.1.5s-.4.1-.5-.1-.1-.4.1-.5.4-.1.5.1" transform="translate(-1.9 69.04)"/>
        </g>
        <g class="cls-12">
          <path class="cls-9" d="M49.5,148.5c.1.2.1.4-.1.5s-.4.1-.5-.1-.1-.4.1-.5.4-.1.5.1" transform="translate(-1.9 69.04)"/>
        </g>
        <g class="cls-12">
          <path class="cls-9" d="M48.5,146.4c.1.2.1.4-.1.5s-.4.1-.5-.1-.1-.4.1-.5.4,0,.5.1" transform="translate(-1.9 69.04)"/>
        </g>
        <g class="cls-12">
          <path class="cls-9" d="M47.4,143.3c.1.2.1.4-.1.5s-.4.1-.5-.1-.1-.4.1-.5.4,0,.5.1" transform="translate(-1.9 69.04)"/>
        </g>
        <g class="cls-12">
          <path class="cls-9" d="M47.2,151.2c.1.2.1.4-.1.5s-.4.1-.5-.1-.1-.4.1-.5.3-.1.5.1" transform="translate(-1.9 69.04)"/>
        </g>
        <g class="cls-12">
          <path class="cls-9" d="M44.3,152.3c.1.2.1.4-.1.5s-.4.1-.5-.1-.1-.4.1-.5.4-.1.5.1" transform="translate(-1.9 69.04)"/>
        </g>
        <g class="cls-12">
          <path class="cls-9" d="M39.3,152.2c.1.2.1.4-.1.5s-.4.1-.5-.1-.1-.4.1-.5.4-.1.5.1" transform="translate(-1.9 69.04)"/>
        </g>
        <g class="cls-12">
          <path class="cls-9" d="M41.9,154.1c.1.2.1.4-.1.5s-.4.1-.5-.1-.1-.4.1-.5.4-.1.5.1" transform="translate(-1.9 69.04)"/>
        </g>
        <g class="cls-12">
          <path class="cls-9" d="M71.8,144a.4.4,0,1,1-.4-.4.43.43,0,0,1,.4.4" transform="translate(-1.9 69.04)"/>
        </g>
        <g class="cls-12">
          <path class="cls-9" d="M75.4,145.3a.4.4,0,1,1-.4-.4.43.43,0,0,1,.4.4" transform="translate(-1.9 69.04)"/>
        </g>
        <g class="cls-12">
          <path class="cls-9" d="M72.8,146.6a.4.4,0,1,1-.4-.4c.2.1.4.2.4.4" transform="translate(-1.9 69.04)"/>
        </g>
        <g class="cls-12">
          <path class="cls-9" d="M74.1,144a.4.4,0,1,1-.4-.4.43.43,0,0,1,.4.4" transform="translate(-1.9 69.04)"/>
        </g>
        <g class="cls-12">
          <path class="cls-9" d="M69.4,146.4c.1.2.1.4-.1.5s-.4.1-.5-.1-.1-.4.1-.5a.44.44,0,0,1,.5.1" transform="translate(-1.9 69.04)"/>
        </g>
        <g class="cls-12">
          <path class="cls-9" d="M73.5,150c.1.2.1.4-.1.5s-.4.1-.5-.1-.1-.4.1-.5.4-.1.5.1" transform="translate(-1.9 69.04)"/>
        </g>
        <g class="cls-12">
          <path class="cls-9" d="M76.4,147.8c.1.2.1.4-.1.5s-.4.1-.5-.1-.1-.4.1-.5.4-.1.5.1" transform="translate(-1.9 69.04)"/>
        </g>
        <g class="cls-12">
          <path class="cls-9" d="M80,147.9c.1.2.1.4-.1.5s-.4.1-.5-.1-.1-.4.1-.5.4-.1.5.1" transform="translate(-1.9 69.04)"/>
        </g>
        <g class="cls-12">
          <path class="cls-9" d="M79,145.9c.1.2.1.4-.1.5s-.4.1-.5-.1-.1-.4.1-.5.4-.1.5.1" transform="translate(-1.9 69.04)"/>
        </g>
        <g class="cls-12">
          <path class="cls-9" d="M77.9,142.8c.1.2.1.4-.1.5s-.4.1-.5-.1-.1-.4.1-.5.4-.1.5.1" transform="translate(-1.9 69.04)"/>
        </g>
        <g class="cls-12">
          <path class="cls-9" d="M77.7,150.6c.1.2.1.4-.1.5s-.4.1-.5-.1-.1-.4.1-.5a.35.35,0,0,1,.5.1" transform="translate(-1.9 69.04)"/>
        </g>
        <g class="cls-12">
          <path class="cls-9" d="M74.9,151.7c.1.2.1.4-.1.5s-.4.1-.5-.1-.1-.4.1-.5.3-.1.5.1" transform="translate(-1.9 69.04)"/>
        </g>
        <g class="cls-12">
          <path class="cls-9" d="M69.8,151.6c.1.2.1.4-.1.5s-.4.1-.5-.1-.1-.4.1-.5a.35.35,0,0,1,.5.1" transform="translate(-1.9 69.04)"/>
        </g>
        <g class="cls-12">
          <path class="cls-9" d="M72.5,153.5c.1.2.1.4-.1.5s-.4.1-.5-.1-.1-.4.1-.5.3-.1.5.1" transform="translate(-1.9 69.04)"/>
        </g>
        <g class="cls-12">
          <g class="cls-39">
            <g class="cls-39">
              <path class="cls-9" d="M41.2,144.6a.4.4,0,1,1-.4-.4.37.37,0,0,1,.4.4" transform="translate(-1.9 69.04)"/>
            </g>
          </g>
        </g>
        <g class="cls-12">
          <g class="cls-40">
            <g class="cls-40">
              <path class="cls-9" d="M44.9,145.9a.4.4,0,1,1-.4-.4.43.43,0,0,1,.4.4" transform="translate(-1.9 69.04)"/>
            </g>
          </g>
        </g>
        <g class="cls-12">
          <g class="cls-41">
            <g class="cls-41">
              <path class="cls-9" d="M42.3,147.2a.4.4,0,1,1-.4-.4.43.43,0,0,1,.4.4" transform="translate(-1.9 69.04)"/>
            </g>
          </g>
        </g>
        <g class="cls-12">
          <g class="cls-42">
            <g class="cls-42">
              <path class="cls-9" d="M43.5,144.6a.4.4,0,1,1-.4-.4.37.37,0,0,1,.4.4" transform="translate(-1.9 69.04)"/>
            </g>
          </g>
        </g>
        <g class="cls-12">
          <g class="cls-43">
            <g class="cls-43">
              <path class="cls-9" d="M38.9,147c.1.2.1.4-.1.5s-.4.1-.5-.1-.1-.4.1-.5a.35.35,0,0,1,.5.1" transform="translate(-1.9 69.04)"/>
            </g>
          </g>
        </g>
        <g class="cls-12">
          <g class="cls-44">
            <g class="cls-44">
              <path class="cls-9" d="M43,150.5c.1.2.1.4-.1.5s-.4.1-.5-.1-.1-.4.1-.5.4,0,.5.1" transform="translate(-1.9 69.04)"/>
            </g>
          </g>
        </g>
        <g class="cls-12">
          <g class="cls-45">
            <g class="cls-45">
              <path class="cls-9" d="M45.9,148.4c.1.2.1.4-.1.5s-.4.1-.5-.1-.1-.4.1-.5.4-.1.5.1" transform="translate(-1.9 69.04)"/>
            </g>
          </g>
        </g>
        <g class="cls-12">
          <g class="cls-46">
            <g class="cls-46">
              <path class="cls-9" d="M49.5,148.5c.1.2.1.4-.1.5s-.4.1-.5-.1-.1-.4.1-.5.4-.1.5.1" transform="translate(-1.9 69.04)"/>
            </g>
          </g>
        </g>
        <g class="cls-12">
          <g class="cls-47">
            <g class="cls-47">
              <path class="cls-9" d="M48.5,146.4c.1.2.1.4-.1.5s-.4.1-.5-.1-.1-.4.1-.5.4,0,.5.1" transform="translate(-1.9 69.04)"/>
            </g>
          </g>
        </g>
        <g class="cls-12">
          <g class="cls-48">
            <g class="cls-48">
              <path class="cls-9" d="M47.4,143.3c.1.2.1.4-.1.5s-.4.1-.5-.1-.1-.4.1-.5.4,0,.5.1" transform="translate(-1.9 69.04)"/>
            </g>
          </g>
        </g>
        <g class="cls-12">
          <g class="cls-49">
            <g class="cls-49">
              <path class="cls-9" d="M47.2,151.2c.1.2.1.4-.1.5s-.4.1-.5-.1-.1-.4.1-.5.3-.1.5.1" transform="translate(-1.9 69.04)"/>
            </g>
          </g>
        </g>
        <g class="cls-12">
          <g class="cls-50">
            <g class="cls-50">
              <path class="cls-9" d="M44.3,152.3c.1.2.1.4-.1.5s-.4.1-.5-.1-.1-.4.1-.5.4-.1.5.1" transform="translate(-1.9 69.04)"/>
            </g>
          </g>
        </g>
        <g class="cls-12">
          <g class="cls-51">
            <g class="cls-51">
              <path class="cls-9" d="M39.3,152.2c.1.2.1.4-.1.5s-.4.1-.5-.1-.1-.4.1-.5.4-.1.5.1" transform="translate(-1.9 69.04)"/>
            </g>
          </g>
        </g>
        <g class="cls-12">
          <g class="cls-52">
            <g class="cls-52">
              <path class="cls-9" d="M41.9,154.1c.1.2.1.4-.1.5s-.4.1-.5-.1-.1-.4.1-.5.4-.1.5.1" transform="translate(-1.9 69.04)"/>
            </g>
          </g>
        </g>
        <g class="cls-12">
          <g class="cls-53">
            <g class="cls-53">
              <path class="cls-9" d="M71.8,144a.4.4,0,1,1-.4-.4.43.43,0,0,1,.4.4" transform="translate(-1.9 69.04)"/>
            </g>
          </g>
        </g>
        <g class="cls-12">
          <g class="cls-54">
            <g class="cls-54">
              <path class="cls-9" d="M75.4,145.3a.4.4,0,1,1-.4-.4.43.43,0,0,1,.4.4" transform="translate(-1.9 69.04)"/>
            </g>
          </g>
        </g>
        <g class="cls-12">
          <g class="cls-55">
            <g class="cls-55">
              <path class="cls-9" d="M72.8,146.6a.4.4,0,1,1-.4-.4c.2.1.4.2.4.4" transform="translate(-1.9 69.04)"/>
            </g>
          </g>
        </g>
        <g class="cls-12">
          <g class="cls-56">
            <g class="cls-56">
              <path class="cls-9" d="M74.1,144a.4.4,0,1,1-.4-.4.43.43,0,0,1,.4.4" transform="translate(-1.9 69.04)"/>
            </g>
          </g>
        </g>
        <g class="cls-12">
          <g class="cls-57">
            <g class="cls-57">
              <path class="cls-9" d="M69.4,146.4c.1.2.1.4-.1.5s-.4.1-.5-.1-.1-.4.1-.5a.44.44,0,0,1,.5.1" transform="translate(-1.9 69.04)"/>
            </g>
          </g>
        </g>
        <g class="cls-12">
          <g class="cls-58">
            <g class="cls-58">
              <path class="cls-9" d="M73.5,150c.1.2.1.4-.1.5s-.4.1-.5-.1-.1-.4.1-.5.4-.1.5.1" transform="translate(-1.9 69.04)"/>
            </g>
          </g>
        </g>
        <g class="cls-12">
          <g class="cls-59">
            <g class="cls-59">
              <path class="cls-9" d="M76.4,147.8c.1.2.1.4-.1.5s-.4.1-.5-.1-.1-.4.1-.5.4-.1.5.1" transform="translate(-1.9 69.04)"/>
            </g>
          </g>
        </g>
        <g class="cls-12">
          <g class="cls-60">
            <g class="cls-60">
              <path class="cls-9" d="M80,147.9c.1.2.1.4-.1.5s-.4.1-.5-.1-.1-.4.1-.5.4-.1.5.1" transform="translate(-1.9 69.04)"/>
            </g>
          </g>
        </g>
        <g class="cls-12">
          <g class="cls-61">
            <g class="cls-61">
              <path class="cls-9" d="M79,145.9c.1.2.1.4-.1.5s-.4.1-.5-.1-.1-.4.1-.5.4-.1.5.1" transform="translate(-1.9 69.04)"/>
            </g>
          </g>
        </g>
        <g class="cls-12">
          <g class="cls-62">
            <g class="cls-62">
              <path class="cls-9" d="M77.9,142.8c.1.2.1.4-.1.5s-.4.1-.5-.1-.1-.4.1-.5.4-.1.5.1" transform="translate(-1.9 69.04)"/>
            </g>
          </g>
        </g>
        <g class="cls-12">
          <g class="cls-63">
            <g class="cls-63">
              <path class="cls-9" d="M77.7,150.6c.1.2.1.4-.1.5s-.4.1-.5-.1-.1-.4.1-.5a.35.35,0,0,1,.5.1" transform="translate(-1.9 69.04)"/>
            </g>
          </g>
        </g>
        <g class="cls-12">
          <g class="cls-64">
            <g class="cls-64">
              <path class="cls-9" d="M74.9,151.7c.1.2.1.4-.1.5s-.4.1-.5-.1-.1-.4.1-.5.3-.1.5.1" transform="translate(-1.9 69.04)"/>
            </g>
          </g>
        </g>
        <g class="cls-12">
          <g class="cls-65">
            <g class="cls-65">
              <path class="cls-9" d="M69.8,151.6c.1.2.1.4-.1.5s-.4.1-.5-.1-.1-.4.1-.5a.35.35,0,0,1,.5.1" transform="translate(-1.9 69.04)"/>
            </g>
          </g>
        </g>
        <g class="cls-12">
          <g class="cls-66">
            <g class="cls-66">
              <path class="cls-9" d="M72.5,153.5c.1.2.1.4-.1.5s-.4.1-.5-.1-.1-.4.1-.5.3-.1.5.1" transform="translate(-1.9 69.04)"/>
            </g>
          </g>
        </g>
        <g class="cls-12">
          <g class="cls-17">
            <g class="cls-67">
              <g class="cls-67">
                <path class="cls-15" d="M55.4,162.5l-1.9-2a10.78,10.78,0,0,1,6.6-2.8h0a11,11,0,0,1,6.2,2l-1.7,2.2a8.29,8.29,0,0,0-4.5-1.4h0a7,7,0,0,0-4.7,2" transform="translate(-1.9 69.04)"/>
              </g>
            </g>
          </g>
        </g>
      </g>
    </g>
  </g>
</svg>
