<svg xmlns="http://www.w3.org/2000/svg" xmlns:xlink="http://www.w3.org/1999/xlink" viewBox="0 0 148.9 245.34">
  <defs>
    <style>
      .cls-1 {
        clip-path: url(#clip-path);
      }

      .cls-2, .cls-28, .cls-5, .cls-7 {
        fill: none;
      }

      .cls-2 {
        clip-path: url(#clip-path-3);
      }

      .cls-3 {
        fill: url(#linear-gradient);
      }

      .cls-4 {
        clip-path: url(#clip-path-2);
      }

      .cls-5 {
        clip-path: url(#clip-path-4);
      }

      .cls-6 {
        fill: url(#linear-gradient-2);
      }

      .cls-8 {
        fill: #c7eafb;
      }

      .cls-10, .cls-9 {
        isolation: isolate;
        font-family: BarlowCondensed-Regular, Barlow Condensed;
      }

      .cls-9 {
        font-size: 14px;
      }

      .cls-13, .cls-9 {
        fill: #005e9e;
      }

      .cls-10 {
        font-size: 11px;
      }

      .cls-11 {
        clip-path: url(#clip-path-5);
      }

      .cls-12 {
        fill: #6dcff6;
      }

      .cls-14 {
        fill: #00b3f0;
      }

      .cls-15 {
        fill: #0072bc;
      }

      .cls-16 {
        fill: #c66259;
      }

      .cls-17 {
        opacity: 0.5;
      }

      .cls-18 {
        clip-path: url(#clip-path-14);
      }

      .cls-19 {
        clip-path: url(#clip-path-17);
      }

      .cls-20 {
        clip-path: url(#clip-path-22);
      }

      .cls-21 {
        fill: #353535;
      }

      .cls-22 {
        clip-path: url(#clip-path-28);
      }

      .cls-23 {
        clip-path: url(#clip-path-29);
      }

      .cls-24 {
        clip-path: url(#clip-path-31);
      }

      .cls-25 {
        clip-path: url(#clip-path-32);
      }

      .cls-26 {
        clip-path: url(#clip-path-39);
      }

      .cls-27 {
        clip-path: url(#clip-path-44);
      }

      .cls-28 {
        stroke: #c7eafb;
        stroke-linecap: round;
        stroke-miterlimit: 10;
        stroke-width: 0.95px;
      }

      .cls-29 {
        clip-path: url(#clip-path-47);
      }

      .cls-30 {
        mask: url(#mask);
      }

      .cls-31 {
        fill: url(#linear-gradient-3);
      }

      .cls-32 {
        clip-path: url(#clip-path-48);
      }

      .cls-33 {
        mask: url(#mask-2);
      }

      .cls-34 {
        fill: url(#linear-gradient-4);
      }

      .cls-35 {
        fill: #fff;
      }

      .cls-36 {
        clip-path: url(#clip-path-54);
      }

      .cls-37 {
        clip-path: url(#clip-path-57);
      }

      .cls-38 {
        clip-path: url(#clip-path-64);
      }

      .cls-39 {
        clip-path: url(#clip-path-95);
      }

      .cls-40 {
        clip-path: url(#clip-path-98);
      }

      .cls-41 {
        clip-path: url(#clip-path-101);
      }

      .cls-42 {
        clip-path: url(#clip-path-104);
      }

      .cls-43 {
        clip-path: url(#clip-path-107);
      }

      .cls-44 {
        clip-path: url(#clip-path-110);
      }

      .cls-45 {
        clip-path: url(#clip-path-113);
      }

      .cls-46 {
        clip-path: url(#clip-path-116);
      }

      .cls-47 {
        clip-path: url(#clip-path-119);
      }

      .cls-48 {
        clip-path: url(#clip-path-122);
      }

      .cls-49 {
        clip-path: url(#clip-path-125);
      }

      .cls-50 {
        clip-path: url(#clip-path-128);
      }

      .cls-51 {
        clip-path: url(#clip-path-131);
      }

      .cls-52 {
        clip-path: url(#clip-path-134);
      }

      .cls-53 {
        clip-path: url(#clip-path-137);
      }

      .cls-54 {
        clip-path: url(#clip-path-140);
      }

      .cls-55 {
        clip-path: url(#clip-path-143);
      }

      .cls-56 {
        clip-path: url(#clip-path-146);
      }

      .cls-57 {
        clip-path: url(#clip-path-149);
      }

      .cls-58 {
        clip-path: url(#clip-path-152);
      }

      .cls-59 {
        clip-path: url(#clip-path-155);
      }

      .cls-60 {
        clip-path: url(#clip-path-158);
      }

      .cls-61 {
        clip-path: url(#clip-path-161);
      }

      .cls-62 {
        clip-path: url(#clip-path-164);
      }

      .cls-63 {
        clip-path: url(#clip-path-167);
      }

      .cls-64 {
        clip-path: url(#clip-path-170);
      }

      .cls-65 {
        clip-path: url(#clip-path-173);
      }

      .cls-66 {
        clip-path: url(#clip-path-176);
      }

      .cls-67 {
        clip-path: url(#clip-path-179);
      }
    </style>
    <clipPath id="clip-path">
      <rect class="cls-2" x="34.19" y="111.97" width="20.6" height="20.4" transform="translate(-70.31 61.13) rotate(-41.99)"/>
    </clipPath>
    <linearGradient id="linear-gradient" x1="-4915.34" y1="-1000.79" x2="-4914.34" y2="-1000.79" gradientTransform="translate(26831.84 45640.42) rotate(48.01) scale(10.53)" gradientUnits="userSpaceOnUse">
      <stop offset="0" stop-color="#fff"/>
      <stop offset="1"/>
    </linearGradient>
    <clipPath id="clip-path-2">
      <rect class="cls-5" x="76.42" y="112.08" width="20.6" height="20.4" transform="translate(-59.54 89.4) rotate(-41.99)"/>
    </clipPath>
    <linearGradient id="linear-gradient-2" x1="-4915.34" y1="-1000.79" x2="-4914.34" y2="-1000.79" gradientTransform="translate(26874.07 45640.5) rotate(48.01) scale(10.53)" xlink:href="#linear-gradient"/>
    <clipPath id="clip-path-3">
      <path class="cls-7" d="M40.6,117.4a8.23,8.23,0,0,0-.8,11.6l12.4-10.8a8,8,0,0,0-6.2-2.8,8.2,8.2,0,0,0-5.4,2"/>
    </clipPath>
    <clipPath id="clip-path-4">
      <path class="cls-7" d="M82.8,117.5a8.23,8.23,0,0,0-.8,11.6l12.4-10.8a8,8,0,0,0-6.2-2.8,7.88,7.88,0,0,0-5.4,2"/>
    </clipPath>
    <clipPath id="clip-path-5" transform="translate(-9.6 69.04)">
      <rect class="cls-7" y="73.6" width="128.7" height="112.1"/>
    </clipPath>
    <clipPath id="clip-path-14" transform="translate(-9.6 69.04)">
      <rect class="cls-7" x="34" y="113.2" width="22.6" height="23.8"/>
    </clipPath>
    <clipPath id="clip-path-17" transform="translate(-9.6 69.04)">
      <rect class="cls-7" x="77.1" y="113.2" width="22.6" height="23.8"/>
    </clipPath>
    <clipPath id="clip-path-22" transform="translate(-9.6 69.04)">
      <rect class="cls-7" x="56.6" y="163.3" width="20.9" height="10"/>
    </clipPath>
    <clipPath id="clip-path-28" transform="translate(-9.6 69.04)">
      <rect class="cls-7" x="30" y="104.2" width="30.1" height="17.4"/>
    </clipPath>
    <clipPath id="clip-path-29" transform="translate(-9.6 69.04)">
      <rect class="cls-7" x="30" y="104.2" width="30" height="17.4"/>
    </clipPath>
    <clipPath id="clip-path-31" transform="translate(-9.6 69.04)">
      <rect class="cls-7" x="74.2" y="104.2" width="30.1" height="17.4"/>
    </clipPath>
    <clipPath id="clip-path-32" transform="translate(-9.6 69.04)">
      <rect class="cls-7" x="74.2" y="104.2" width="30" height="17.4"/>
    </clipPath>
    <clipPath id="clip-path-39" transform="translate(-9.6 69.04)">
      <rect class="cls-7" x="23.2" y="132.9" width="85.4" height="39.1"/>
    </clipPath>
    <clipPath id="clip-path-44" transform="translate(-9.6 69.04)">
      <rect class="cls-7" x="57.2" y="129.4" width="20.7" height="16.1"/>
    </clipPath>
    <clipPath id="clip-path-47" transform="translate(-9.6 69.04)">
      <path class="cls-7" d="M40.6,117.4a8.23,8.23,0,0,0-.8,11.6l12.4-10.8a8,8,0,0,0-6.2-2.8,8.2,8.2,0,0,0-5.4,2"/>
    </clipPath>
    <mask id="mask" x="6" y="162.34" width="57.7" height="57.8" maskUnits="userSpaceOnUse">
      <g transform="translate(-9.6 69.04)">
        <g id="SVGID">
          <g class="cls-1">
            <polygon class="cls-3" points="46 93.3 73.3 123.7 42.9 151.1 15.6 120.7 46 93.3"/>
          </g>
        </g>
      </g>
    </mask>
    <linearGradient id="linear-gradient-3" x1="-4915.34" y1="-1000.79" x2="-4914.34" y2="-1000.79" gradientTransform="translate(26822.24 45709.46) rotate(48.01) scale(10.53)" gradientUnits="userSpaceOnUse">
      <stop offset="0" stop-color="#fff"/>
      <stop offset="1" stop-color="#fff"/>
    </linearGradient>
    <clipPath id="clip-path-48" transform="translate(-9.6 69.04)">
      <path class="cls-7" d="M82.8,117.5a8.23,8.23,0,0,0-.8,11.6l12.4-10.8a8,8,0,0,0-6.2-2.8,7.88,7.88,0,0,0-5.4,2"/>
    </clipPath>
    <mask id="mask-2" x="48.2" y="162.44" width="57.8" height="57.7" maskUnits="userSpaceOnUse">
      <g transform="translate(-9.6 69.04)">
        <g id="SVGID-2" data-name="SVGID">
          <g class="cls-4">
            <polygon class="cls-6" points="88.2 93.4 115.6 123.8 85.2 151.1 57.8 120.8 88.2 93.4"/>
          </g>
        </g>
      </g>
    </mask>
    <linearGradient id="linear-gradient-4" x1="-4915.34" y1="-1000.79" x2="-4914.34" y2="-1000.79" gradientTransform="translate(26864.47 45709.54) rotate(48.01) scale(10.53)" xlink:href="#linear-gradient-3"/>
    <clipPath id="clip-path-54" transform="translate(-9.6 69.04)">
      <rect class="cls-7" x="37.7" y="98.7" width="56.8" height="9.9"/>
    </clipPath>
    <clipPath id="clip-path-57" transform="translate(-9.6 69.04)">
      <rect class="cls-7" x="47.1" y="93.4" width="38" height="9.9"/>
    </clipPath>
    <clipPath id="clip-path-64" transform="translate(-9.6 69.04)">
      <rect class="cls-7" x="57.3" y="147.1" width="21" height="11.9"/>
    </clipPath>
    <clipPath id="clip-path-95" transform="translate(-9.6 69.04)">
      <rect class="cls-7" x="48.2" y="144.2" width="0.7" height="0.7"/>
    </clipPath>
    <clipPath id="clip-path-98" transform="translate(-9.6 69.04)">
      <rect class="cls-7" x="51.8" y="145.5" width="0.7" height="0.7"/>
    </clipPath>
    <clipPath id="clip-path-101" transform="translate(-9.6 69.04)">
      <rect class="cls-7" x="49.2" y="146.8" width="0.7" height="0.7"/>
    </clipPath>
    <clipPath id="clip-path-104" transform="translate(-9.6 69.04)">
      <rect class="cls-7" x="50.5" y="144.2" width="0.7" height="0.7"/>
    </clipPath>
    <clipPath id="clip-path-107" transform="translate(-9.6 69.04)">
      <rect class="cls-7" x="45.9" y="146.8" width="0.7" height="0.7"/>
    </clipPath>
    <clipPath id="clip-path-110" transform="translate(-9.6 69.04)">
      <rect class="cls-7" x="50" y="150.4" width="0.7" height="0.7"/>
    </clipPath>
    <clipPath id="clip-path-113" transform="translate(-9.6 69.04)">
      <rect class="cls-7" x="52.9" y="148.2" width="0.7" height="0.7"/>
    </clipPath>
    <clipPath id="clip-path-116" transform="translate(-9.6 69.04)">
      <rect class="cls-7" x="56.5" y="148.3" width="0.7" height="0.7"/>
    </clipPath>
    <clipPath id="clip-path-119" transform="translate(-9.6 69.04)">
      <rect class="cls-7" x="55.5" y="146.3" width="0.7" height="0.7"/>
    </clipPath>
    <clipPath id="clip-path-122" transform="translate(-9.6 69.04)">
      <rect class="cls-7" x="54.4" y="143.2" width="0.7" height="0.7"/>
    </clipPath>
    <clipPath id="clip-path-125" transform="translate(-9.6 69.04)">
      <rect class="cls-7" x="54.2" y="151" width="0.7" height="0.7"/>
    </clipPath>
    <clipPath id="clip-path-128" transform="translate(-9.6 69.04)">
      <rect class="cls-7" x="51.3" y="152.1" width="0.7" height="0.7"/>
    </clipPath>
    <clipPath id="clip-path-131" transform="translate(-9.6 69.04)">
      <rect class="cls-7" x="46.3" y="152" width="0.7" height="0.7"/>
    </clipPath>
    <clipPath id="clip-path-134" transform="translate(-9.6 69.04)">
      <rect class="cls-7" x="48.9" y="153.9" width="0.7" height="0.7"/>
    </clipPath>
    <clipPath id="clip-path-137" transform="translate(-9.6 69.04)">
      <rect class="cls-7" x="78.7" y="143.6" width="0.7" height="0.7"/>
    </clipPath>
    <clipPath id="clip-path-140" transform="translate(-9.6 69.04)">
      <rect class="cls-7" x="82.4" y="144.9" width="0.7" height="0.7"/>
    </clipPath>
    <clipPath id="clip-path-143" transform="translate(-9.6 69.04)">
      <rect class="cls-7" x="79.8" y="146.3" width="0.7" height="0.7"/>
    </clipPath>
    <clipPath id="clip-path-146" transform="translate(-9.6 69.04)">
      <rect class="cls-7" x="81" y="143.6" width="0.7" height="0.7"/>
    </clipPath>
    <clipPath id="clip-path-149" transform="translate(-9.6 69.04)">
      <rect class="cls-7" x="76.4" y="146.3" width="0.7" height="0.7"/>
    </clipPath>
    <clipPath id="clip-path-152" transform="translate(-9.6 69.04)">
      <rect class="cls-7" x="80.5" y="149.8" width="0.7" height="0.7"/>
    </clipPath>
    <clipPath id="clip-path-155" transform="translate(-9.6 69.04)">
      <rect class="cls-7" x="83.5" y="147.6" width="0.7" height="0.7"/>
    </clipPath>
    <clipPath id="clip-path-158" transform="translate(-9.6 69.04)">
      <rect class="cls-7" x="87" y="147.7" width="0.7" height="0.7"/>
    </clipPath>
    <clipPath id="clip-path-161" transform="translate(-9.6 69.04)">
      <rect class="cls-7" x="86" y="145.7" width="0.7" height="0.7"/>
    </clipPath>
    <clipPath id="clip-path-164" transform="translate(-9.6 69.04)">
      <rect class="cls-7" x="84.9" y="142.6" width="0.7" height="0.7"/>
    </clipPath>
    <clipPath id="clip-path-167" transform="translate(-9.6 69.04)">
      <rect class="cls-7" x="84.7" y="150.4" width="0.7" height="0.7"/>
    </clipPath>
    <clipPath id="clip-path-170" transform="translate(-9.6 69.04)">
      <rect class="cls-7" x="81.9" y="151.5" width="0.7" height="0.7"/>
    </clipPath>
    <clipPath id="clip-path-173" transform="translate(-9.6 69.04)">
      <rect class="cls-7" x="76.8" y="151.4" width="0.7" height="0.7"/>
    </clipPath>
    <clipPath id="clip-path-176" transform="translate(-9.6 69.04)">
      <rect class="cls-7" x="79.5" y="153.3" width="0.7" height="0.7"/>
    </clipPath>
    <clipPath id="clip-path-179" transform="translate(-9.6 69.04)">
      <rect class="cls-7" x="61.2" y="157.6" width="12.8" height="4.8"/>
    </clipPath>
  </defs>
  <g id="Layer_2" data-name="Layer 2">
    <g id="Layer_1-2" data-name="Layer 1">
      <rect class="cls-8" x="25.5" y="69.04" width="123.4" height="150"/>
      <text class="cls-9" transform="translate(131.05 96.54)"> </text>
      <text class="cls-10" transform="translate(129.62 135.54)"> </text>
      <g class="cls-11">
        <path class="cls-12" d="M120.7-19.7C115.4.8,88.9,11.7,61.5,4.6s-45.2-29.5-39.9-50,31.8-28.2,59.2-21c27.4,7,45.2,26.2,39.9,46.7" transform="translate(-9.6 69.04)"/>
      </g>
      <g>
        <g class="cls-11">
          <path class="cls-13" d="M85.7-18.5A13.22,13.22,0,0,1,91-17.4a34.71,34.71,0,0,0-.7-12.7,42.75,42.75,0,0,1-7.1,4c-3,4.1-9.6,7-17.2,7-7.4,0-13.7-2.6-16.9-6.5a43.73,43.73,0,0,1-9.3-6.5S46.7,1.8,67,3.5a22.29,22.29,0,0,0,6.4-.4A15.25,15.25,0,0,1,71.6-4,14.3,14.3,0,0,1,85.7-18.5" transform="translate(-9.6 69.04)"/>
        </g>
        <g class="cls-11">
          <path class="cls-14" d="M91-17.4a13.22,13.22,0,0,0-5.3-1.1A14.3,14.3,0,0,0,71.6-4a14.88,14.88,0,0,0,1.9,7.2c9.3-2,16.1-9.8,17.5-20.6" transform="translate(-9.6 69.04)"/>
        </g>
        <g class="cls-11">
          <path class="cls-13" d="M87.4-18.4v.7c0,10.1-6,18.6-13.9,20.8h0C82.8,1.2,89.6-6.6,91-17.4a13.64,13.64,0,0,0-3.6-1" transform="translate(-9.6 69.04)"/>
        </g>
      </g>
      <g>
        <g class="cls-11">
          <path class="cls-15" d="M14.2,108.2s12.2,6.5,20.1,2.9,9.4-16.2,9.4-16.2L41.2,93l-8.4,3.7Z" transform="translate(-9.6 69.04)"/>
        </g>
        <g class="cls-11">
          <path class="cls-15" d="M119,107.2s-12.2,6.5-20.1,2.9-9.4-16.2-9.4-16.2L92,92l8.4,3.7Z" transform="translate(-9.6 69.04)"/>
        </g>
        <g class="cls-11">
          <path class="cls-14" d="M108.7,136.4c0,28.9-12.2,39.9-41.1,39.9s-44.3-9.9-44.3-38.8S38.7,87.9,67.6,87.9s41.1,19.6,41.1,48.5" transform="translate(-9.6 69.04)"/>
        </g>
        <g class="cls-11">
          <path class="cls-16" d="M67.7,164.5h0a7.34,7.34,0,0,1-7.3-7.3v-.8H74.9v.8a7.13,7.13,0,0,1-7.2,7.3" transform="translate(-9.6 69.04)"/>
        </g>
        <g class="cls-11">
          <g class="cls-17">
            <g class="cls-18">
              <g class="cls-18">
                <path class="cls-15" d="M56.6,125.2c0,6.6-5.1,11.9-11.3,11.9S34,131.8,34,125.2s5.1-11.9,11.3-11.9,11.3,5.3,11.3,11.9" transform="translate(-9.6 69.04)"/>
              </g>
            </g>
          </g>
        </g>
        <g class="cls-11">
          <g class="cls-17">
            <g class="cls-19">
              <g class="cls-19">
                <path class="cls-15" d="M99.6,125.2c0,6.6-5.1,11.9-11.3,11.9S77,131.8,77,125.2s5.1-11.9,11.3-11.9,11.3,5.3,11.3,11.9" transform="translate(-9.6 69.04)"/>
              </g>
            </g>
          </g>
        </g>
        <g class="cls-11">
          <path class="cls-8" d="M55.9,123.6a10,10,0,1,1-10-10,10,10,0,0,1,10,10" transform="translate(-9.6 69.04)"/>
        </g>
        <g class="cls-11">
          <path class="cls-8" d="M97.9,123.6a10,10,0,1,1-10-10,10,10,0,0,1,10,10" transform="translate(-9.6 69.04)"/>
        </g>
        <g class="cls-11">
          <g class="cls-17">
            <g class="cls-20">
              <g class="cls-20">
                <path class="cls-15" d="M56.6,164.5a8.79,8.79,0,0,0,4.4,5,15.21,15.21,0,0,0,6.4,1.2,9.72,9.72,0,0,0,10-7.3,8.72,8.72,0,0,1-2.5,7.2,9.88,9.88,0,0,1-3.5,2.2c-.3.1-.6.2-1,.3l-1,.2a13.55,13.55,0,0,1-2,.2,12.2,12.2,0,0,1-7.6-2.1,7.55,7.55,0,0,1-3.2-6.9" transform="translate(-9.6 69.04)"/>
              </g>
            </g>
          </g>
        </g>
        <g class="cls-11">
          <path class="cls-21" d="M81.6,168.3h0c-6.8,0-13.2-5-14-11.7-.8,6.7-7.2,11.7-14,11.7h0A13.29,13.29,0,0,1,40.3,155v-4.6a23.22,23.22,0,0,1,23.2-23.2h8.2a23.22,23.22,0,0,1,23.2,23.2V155a13.36,13.36,0,0,1-13.3,13.3" transform="translate(-9.6 69.04)"/>
        </g>
        <g class="cls-11">
          <path class="cls-13" d="M81.6,168.3h0c-6.8,0-13.2-5-14-11.7-.8,6.7-7.2,11.7-14,11.7h0A13.29,13.29,0,0,1,40.3,155v-4.6a23.22,23.22,0,0,1,23.2-23.2h8.2a23.22,23.22,0,0,1,23.2,23.2V155a13.36,13.36,0,0,1-13.3,13.3" transform="translate(-9.6 69.04)"/>
        </g>
        <g class="cls-11">
          <path class="cls-15" d="M41.2,139.9a37.36,37.36,0,0,1,11-11.4,28.45,28.45,0,0,1,15.6-5.1,29.47,29.47,0,0,1,8.3,1.4,35.73,35.73,0,0,1,7.3,3.7,38.86,38.86,0,0,1,11.1,11.4,75.34,75.34,0,0,0-12.7-8.7,45.35,45.35,0,0,0-6.9-2.8c-1.2-.3-2.3-.6-3.5-.8s-2.4-.2-3.6-.3a30.94,30.94,0,0,0-14,3.8,75.25,75.25,0,0,0-12.6,8.8" transform="translate(-9.6 69.04)"/>
        </g>
        <g class="cls-11">
          <g class="cls-17">
            <g class="cls-22">
              <g class="cls-23">
                <path class="cls-15" d="M30,121.6a19.89,19.89,0,0,1,.6-5.4,16.44,16.44,0,0,1,2.2-5.1,14,14,0,0,1,9.3-6.5l1.4-.3a6.6,6.6,0,0,1,1.4-.1,14.31,14.31,0,0,1,2.9.1,12,12,0,0,1,5.5,1.8,13,13,0,0,1,2.3,1.8,12.42,12.42,0,0,1,1.7,2.3c.5.8.9,1.6,1.3,2.4a6.36,6.36,0,0,0,1.4,2.2,5.25,5.25,0,0,1-2.2-1.7c-.6-.7-1.2-1.3-1.8-1.9a15.22,15.22,0,0,0-3.9-2.9,14,14,0,0,0-4.6-1,20.83,20.83,0,0,0-2.5,0,19.67,19.67,0,0,0-2.4.3,12.84,12.84,0,0,0-8,4.9,28.86,28.86,0,0,0-4.6,9.1" transform="translate(-9.6 69.04)"/>
              </g>
            </g>
          </g>
        </g>
        <g class="cls-11">
          <g class="cls-17">
            <g class="cls-24">
              <g class="cls-25">
                <path class="cls-15" d="M104.3,121.6a28.59,28.59,0,0,0-4.7-9.2,13.29,13.29,0,0,0-8-4.9,19.67,19.67,0,0,0-2.4-.3,10.44,10.44,0,0,0-2.5,0,14,14,0,0,0-4.6,1,11.67,11.67,0,0,0-3.9,2.9c-.6.6-1.2,1.3-1.8,1.9a6.2,6.2,0,0,1-2.2,1.7,6.36,6.36,0,0,0,1.4-2.2c.4-.8.8-1.6,1.3-2.4a12.42,12.42,0,0,1,1.7-2.3,10.18,10.18,0,0,1,2.3-1.8,15.48,15.48,0,0,1,5.5-1.8,28.1,28.1,0,0,1,2.9-.1,6.6,6.6,0,0,1,1.4.1l1.4.3a14.26,14.26,0,0,1,9.3,6.5,20.71,20.71,0,0,1,2.2,5.1,21.28,21.28,0,0,1,.7,5.5" transform="translate(-9.6 69.04)"/>
              </g>
            </g>
          </g>
        </g>
        <g class="cls-11">
          <path class="cls-15" d="M57.5,124.6a11.49,11.49,0,0,1,9.4-5.3,26.35,26.35,0,0,1,2.8.2,14.26,14.26,0,0,1,2.7.9,8.21,8.21,0,0,1,4,3.8,11.66,11.66,0,0,0-4.4-2.9,14.81,14.81,0,0,0-5.1-.9,12.52,12.52,0,0,0-5,1.1,23.18,23.18,0,0,0-4.4,3.1" transform="translate(-9.6 69.04)"/>
        </g>
        <g class="cls-11">
          <path class="cls-15" d="M49.1,125.4a5.8,5.8,0,1,1-5.8-5.8,5.8,5.8,0,0,1,5.8,5.8" transform="translate(-9.6 69.04)"/>
        </g>
        <g class="cls-11">
          <path class="cls-13" d="M46.5,125.4a3.2,3.2,0,1,1-3.2-3.2,3.16,3.16,0,0,1,3.2,3.2" transform="translate(-9.6 69.04)"/>
        </g>
        <g class="cls-11">
          <path class="cls-15" d="M96.8,125.2a5.8,5.8,0,1,1-5.8-5.8,5.8,5.8,0,0,1,5.8,5.8" transform="translate(-9.6 69.04)"/>
        </g>
        <g class="cls-11">
          <path class="cls-13" d="M94.4,125.3a3.2,3.2,0,1,1-3.2-3.2,3.29,3.29,0,0,1,3.2,3.2" transform="translate(-9.6 69.04)"/>
        </g>
        <g class="cls-11">
          <g class="cls-17">
            <g class="cls-26">
              <g>
                <g class="cls-26">
                  <path class="cls-15" d="M97.9,145.2c1.2,6.8-.8,18.4-2.3,24.7,9-6.1,13-16.8,13-33.4,0-1.2,0-2.4-.1-3.6-3.5,7.5-10.6,12.3-10.6,12.3" transform="translate(-9.6 69.04)"/>
                </g>
                <g class="cls-26">
                  <path class="cls-15" d="M41.7,172c-5.9-8.4-7-26.9-7-26.9a17.93,17.93,0,0,1-11.4-11.3c-.1,1.2-.1,2.4-.1,3.6,0,18.6,6.4,29.3,18.5,34.6" transform="translate(-9.6 69.04)"/>
                </g>
              </g>
            </g>
          </g>
        </g>
        <g class="cls-11">
          <path class="cls-13" d="M72.6,129.4h-10a5.38,5.38,0,0,0-5.4,5.4v.4a10.41,10.41,0,0,0,5.8,9.3,1.32,1.32,0,0,0,1.8-1.6l-.1-.3s-1.3.5-3-2.3c-.6-1-.5-1.7-.1-2.2a1.61,1.61,0,0,1,2.8.6l1.9,6.8c.4,0,.8.1,1.2.1.6,0,1.1-.1,1.6-.1l1.9-6.7a1.57,1.57,0,0,1,2.8-.6c.4.5.5,1.2-.1,2.2-1.7,2.8-3,2.3-3,2.3a1.3,1.3,0,0,0,1.9,1.5,10.34,10.34,0,0,0,5.2-9v-.4a5.21,5.21,0,0,0-5.2-5.4" transform="translate(-9.6 69.04)"/>
        </g>
        <g class="cls-11">
          <g class="cls-27">
            <g class="cls-27">
              <path class="cls-13" d="M72.6,129.4h-10a5.38,5.38,0,0,0-5.4,5.4v.4a10.41,10.41,0,0,0,5.8,9.3,1.32,1.32,0,0,0,1.8-1.6l-.1-.3s-1.3.5-3-2.3c-.6-1-.5-1.7-.1-2.2a1.61,1.61,0,0,1,2.8.6l1.9,6.8c.4,0,.8.1,1.2.1.6,0,1.1-.1,1.6-.1l1.9-6.7a1.57,1.57,0,0,1,2.8-.6c.4.5.5,1.2-.1,2.2-1.7,2.8-3,2.3-3,2.3a1.3,1.3,0,0,0,1.9,1.5,10.34,10.34,0,0,0,5.2-9v-.4a5.21,5.21,0,0,0-5.2-5.4" transform="translate(-9.6 69.04)"/>
            </g>
          </g>
        </g>
        <g class="cls-11">
          <path class="cls-28" d="M59.5,133.3s1.9-1.7,8.3-1.7,8,1.7,8,1.7" transform="translate(-9.6 69.04)"/>
        </g>
      </g>
      <g class="cls-29">
        <g class="cls-30">
          <polygon class="cls-31" points="35.7 176.74 49.3 191.94 34 205.74 20.4 190.54 35.7 176.74"/>
        </g>
      </g>
      <g class="cls-32">
        <g class="cls-33">
          <polygon class="cls-34" points="77.9 176.84 91.6 192.04 76.3 205.74 62.6 190.64 77.9 176.84"/>
        </g>
      </g>
      <g>
        <g class="cls-11">
          <path class="cls-35" d="M42.9,127.9a1.1,1.1,0,1,1-1.1-1.1,1.18,1.18,0,0,1,1.1,1.1" transform="translate(-9.6 69.04)"/>
        </g>
        <g class="cls-11">
          <path class="cls-35" d="M47,123.2a2,2,0,1,1-2-2,2,2,0,0,1,2,2" transform="translate(-9.6 69.04)"/>
        </g>
        <g class="cls-11">
          <path class="cls-35" d="M94.9,123.2a2,2,0,1,1-2-2,2,2,0,0,1,2,2" transform="translate(-9.6 69.04)"/>
        </g>
        <g class="cls-11">
          <path class="cls-35" d="M90.5,127.9a1.1,1.1,0,1,1-1.1-1.1,1.18,1.18,0,0,1,1.1,1.1" transform="translate(-9.6 69.04)"/>
        </g>
        <g class="cls-11">
          <g class="cls-17">
            <g class="cls-36">
              <g class="cls-36">
                <path class="cls-15" d="M37.7,103.3a24.59,24.59,0,0,1,7.2-3.7,15.22,15.22,0,0,1,8.2-.3,10.86,10.86,0,0,1,3.7,1.9,41.07,41.07,0,0,1,3,2.9,11.75,11.75,0,0,0,3,2.5,6.53,6.53,0,0,0,3.6,1,7.66,7.66,0,0,0,3.7-.7,8.63,8.63,0,0,0,2.8-2.6,34.33,34.33,0,0,1,2.4-3.3A5.92,5.92,0,0,1,79,98.8c1.4-.1,2.7-.1,4.1-.1a28.28,28.28,0,0,1,4.1.3,22.48,22.48,0,0,1,7.5,3.1,22.67,22.67,0,0,0-7.6-2.5,30.61,30.61,0,0,0-8,.1,5.11,5.11,0,0,0-3.1,1.9c-.8,1-1.5,2.2-2.3,3.3a9.6,9.6,0,0,1-3.1,2.9,7.72,7.72,0,0,1-4.2.8,8.49,8.49,0,0,1-4.1-1.2,16.26,16.26,0,0,1-3.1-2.7,24.67,24.67,0,0,0-2.8-2.8,11.12,11.12,0,0,0-3.4-1.8,13.8,13.8,0,0,0-7.8,0,22.69,22.69,0,0,0-7.5,3.2" transform="translate(-9.6 69.04)"/>
              </g>
            </g>
          </g>
        </g>
        <g class="cls-11">
          <g class="cls-17">
            <g class="cls-37">
              <g class="cls-37">
                <path class="cls-15" d="M47.1,97.9a14.7,14.7,0,0,1,4.8-3.7,7.75,7.75,0,0,1,3-.7,6.81,6.81,0,0,1,3.1.8,8.09,8.09,0,0,1,2.4,2.1c.6.8,1.2,1.7,1.7,2.5,1,1.7,2.3,3.3,4.2,3.3a3.49,3.49,0,0,0,2.4-.8,6.34,6.34,0,0,0,1.6-2.3l1.3-2.7a6,6,0,0,1,2-2.5,3.17,3.17,0,0,1,1.6-.4h1.5a10.88,10.88,0,0,1,3.1.3A13.13,13.13,0,0,1,85,96.9a12.53,12.53,0,0,0-5.3-2.6,9.52,9.52,0,0,0-2.9-.1l-1.5.1a1.59,1.59,0,0,0-1.2.4,6,6,0,0,0-1.6,2.2l-1.2,2.8a7.61,7.61,0,0,1-1.8,2.6,4.07,4.07,0,0,1-3.2,1.1,4.82,4.82,0,0,1-3-1.3,11,11,0,0,1-1.9-2.5c-1.1-1.8-2.1-3.6-3.7-4.6a5,5,0,0,0-2.7-.8,8.68,8.68,0,0,0-2.8.5,16.9,16.9,0,0,0-5.1,3.2" transform="translate(-9.6 69.04)"/>
              </g>
            </g>
          </g>
        </g>
        <g class="cls-11">
          <path class="cls-14" d="M44.4,94.4,41.2,92S10.6,105,9.6,108.8c0,0,1.9,10.5,4.2,12.8,0,0,13.2-24.5,27.1-27.6l3,1.5Z" transform="translate(-9.6 69.04)"/>
        </g>
        <g class="cls-11">
          <path class="cls-14" d="M88.8,93.3,92,90.9s30.6,13,31.6,16.8c0,0-1.9,10.5-4.2,12.8,0,0-13.2-24.5-27.1-27.6l-3,1.5Z" transform="translate(-9.6 69.04)"/>
        </g>
        <g class="cls-11">
          <path class="cls-15" d="M55.7,168.6s-1.4-15.1,11.8-15S80,168.4,80,168.4s-13.7,5.5-24.3.2" transform="translate(-9.6 69.04)"/>
        </g>
        <g class="cls-11">
          <path class="cls-13" d="M77.3,155.9a6.09,6.09,0,0,0-3.1-1.3,28.11,28.11,0,0,1-3.1-1c-.9-.3-1.8-.7-2.7-1.1v-5.4H67.2v5.4a20.29,20.29,0,0,1-2.6,1.1c-1,.4-2.1.7-3.1,1a9.32,9.32,0,0,0-3.1,1.3,2.81,2.81,0,0,0-.9,3.1,2.88,2.88,0,0,1,1.1-2.9,7.56,7.56,0,0,1,3.1-1c1.1-.2,2.2-.4,3.3-.7s2-.6,3-1c1,.4,2,.7,3,1s2.2.5,3.3.7a7.11,7.11,0,0,1,3,1,2.8,2.8,0,0,1,1.1,2.8,3.67,3.67,0,0,0-1.1-3" transform="translate(-9.6 69.04)"/>
        </g>
        <g class="cls-11">
          <g class="cls-38">
            <g class="cls-38">
              <path class="cls-13" d="M77.3,155.9a6.09,6.09,0,0,0-3.1-1.3,28.11,28.11,0,0,1-3.1-1c-.9-.3-1.8-.7-2.7-1.1v-5.4H67.2v5.4a20.29,20.29,0,0,1-2.6,1.1c-1,.4-2.1.7-3.1,1a9.32,9.32,0,0,0-3.1,1.3,2.81,2.81,0,0,0-.9,3.1,2.88,2.88,0,0,1,1.1-2.9,7.56,7.56,0,0,1,3.1-1c1.1-.2,2.2-.4,3.3-.7s2-.6,3-1c1,.4,2,.7,3,1s2.2.5,3.3.7a7.11,7.11,0,0,1,3,1,2.8,2.8,0,0,1,1.1,2.8,3.67,3.67,0,0,0-1.1-3" transform="translate(-9.6 69.04)"/>
            </g>
          </g>
        </g>
        <g class="cls-11">
          <path class="cls-13" d="M48.9,144.6a.4.4,0,1,1-.4-.4.37.37,0,0,1,.4.4" transform="translate(-9.6 69.04)"/>
        </g>
        <g class="cls-11">
          <path class="cls-13" d="M52.6,145.9a.4.4,0,1,1-.4-.4.43.43,0,0,1,.4.4" transform="translate(-9.6 69.04)"/>
        </g>
        <g class="cls-11">
          <path class="cls-13" d="M50,147.2a.4.4,0,1,1-.4-.4.43.43,0,0,1,.4.4" transform="translate(-9.6 69.04)"/>
        </g>
        <g class="cls-11">
          <path class="cls-13" d="M51.2,144.6a.4.4,0,1,1-.4-.4.37.37,0,0,1,.4.4" transform="translate(-9.6 69.04)"/>
        </g>
        <g class="cls-11">
          <path class="cls-13" d="M46.6,147c.1.2.1.4-.1.5s-.4.1-.5-.1-.1-.4.1-.5a.35.35,0,0,1,.5.1" transform="translate(-9.6 69.04)"/>
        </g>
        <g class="cls-11">
          <path class="cls-13" d="M50.7,150.5c.1.2.1.4-.1.5s-.4.1-.5-.1-.1-.4.1-.5.4,0,.5.1" transform="translate(-9.6 69.04)"/>
        </g>
        <g class="cls-11">
          <path class="cls-13" d="M53.6,148.4c.1.2.1.4-.1.5s-.4.1-.5-.1-.1-.4.1-.5.4-.1.5.1" transform="translate(-9.6 69.04)"/>
        </g>
        <g class="cls-11">
          <path class="cls-13" d="M57.2,148.5c.1.2.1.4-.1.5s-.4.1-.5-.1-.1-.4.1-.5.4-.1.5.1" transform="translate(-9.6 69.04)"/>
        </g>
        <g class="cls-11">
          <path class="cls-13" d="M56.2,146.4c.1.2.1.4-.1.5s-.4.1-.5-.1-.1-.4.1-.5.4,0,.5.1" transform="translate(-9.6 69.04)"/>
        </g>
        <g class="cls-11">
          <path class="cls-13" d="M55.1,143.3c.1.2.1.4-.1.5s-.4.1-.5-.1-.1-.4.1-.5.4,0,.5.1" transform="translate(-9.6 69.04)"/>
        </g>
        <g class="cls-11">
          <path class="cls-13" d="M54.9,151.2c.1.2.1.4-.1.5s-.4.1-.5-.1-.1-.4.1-.5.3-.1.5.1" transform="translate(-9.6 69.04)"/>
        </g>
        <g class="cls-11">
          <path class="cls-13" d="M52,152.3c.1.2.1.4-.1.5s-.4.1-.5-.1-.1-.4.1-.5.4-.1.5.1" transform="translate(-9.6 69.04)"/>
        </g>
        <g class="cls-11">
          <path class="cls-13" d="M47,152.2c.1.2.1.4-.1.5s-.4.1-.5-.1-.1-.4.1-.5.4-.1.5.1" transform="translate(-9.6 69.04)"/>
        </g>
        <g class="cls-11">
          <path class="cls-13" d="M49.6,154.1c.1.2.1.4-.1.5s-.4.1-.5-.1-.1-.4.1-.5.4-.1.5.1" transform="translate(-9.6 69.04)"/>
        </g>
        <g class="cls-11">
          <path class="cls-13" d="M79.5,144a.4.4,0,1,1-.4-.4.43.43,0,0,1,.4.4" transform="translate(-9.6 69.04)"/>
        </g>
        <g class="cls-11">
          <path class="cls-13" d="M83.1,145.3a.4.4,0,1,1-.4-.4.43.43,0,0,1,.4.4" transform="translate(-9.6 69.04)"/>
        </g>
        <g class="cls-11">
          <path class="cls-13" d="M80.5,146.6a.4.4,0,1,1-.4-.4c.2.1.4.2.4.4" transform="translate(-9.6 69.04)"/>
        </g>
        <g class="cls-11">
          <path class="cls-13" d="M81.8,144a.4.4,0,1,1-.4-.4.43.43,0,0,1,.4.4" transform="translate(-9.6 69.04)"/>
        </g>
        <g class="cls-11">
          <path class="cls-13" d="M77.1,146.4c.1.2.1.4-.1.5s-.4.1-.5-.1-.1-.4.1-.5a.44.44,0,0,1,.5.1" transform="translate(-9.6 69.04)"/>
        </g>
        <g class="cls-11">
          <path class="cls-13" d="M81.2,150c.1.2.1.4-.1.5s-.4.1-.5-.1-.1-.4.1-.5.4-.1.5.1" transform="translate(-9.6 69.04)"/>
        </g>
        <g class="cls-11">
          <path class="cls-13" d="M84.1,147.8c.1.2.1.4-.1.5s-.4.1-.5-.1-.1-.4.1-.5.4-.1.5.1" transform="translate(-9.6 69.04)"/>
        </g>
        <g class="cls-11">
          <path class="cls-13" d="M87.7,147.9c.1.2.1.4-.1.5s-.4.1-.5-.1-.1-.4.1-.5.4-.1.5.1" transform="translate(-9.6 69.04)"/>
        </g>
        <g class="cls-11">
          <path class="cls-13" d="M86.7,145.9c.1.2.1.4-.1.5s-.4.1-.5-.1-.1-.4.1-.5.4-.1.5.1" transform="translate(-9.6 69.04)"/>
        </g>
        <g class="cls-11">
          <path class="cls-13" d="M85.6,142.8c.1.2.1.4-.1.5s-.4.1-.5-.1-.1-.4.1-.5.4-.1.5.1" transform="translate(-9.6 69.04)"/>
        </g>
        <g class="cls-11">
          <path class="cls-13" d="M85.4,150.6c.1.2.1.4-.1.5s-.4.1-.5-.1-.1-.4.1-.5a.35.35,0,0,1,.5.1" transform="translate(-9.6 69.04)"/>
        </g>
        <g class="cls-11">
          <path class="cls-13" d="M82.6,151.7c.1.2.1.4-.1.5s-.4.1-.5-.1-.1-.4.1-.5.3-.1.5.1" transform="translate(-9.6 69.04)"/>
        </g>
        <g class="cls-11">
          <path class="cls-13" d="M77.5,151.6c.1.2.1.4-.1.5s-.4.1-.5-.1-.1-.4.1-.5a.35.35,0,0,1,.5.1" transform="translate(-9.6 69.04)"/>
        </g>
        <g class="cls-11">
          <path class="cls-13" d="M80.2,153.5c.1.2.1.4-.1.5s-.4.1-.5-.1-.1-.4.1-.5.3-.1.5.1" transform="translate(-9.6 69.04)"/>
        </g>
        <g class="cls-11">
          <g class="cls-39">
            <g class="cls-39">
              <path class="cls-13" d="M48.9,144.6a.4.4,0,1,1-.4-.4.37.37,0,0,1,.4.4" transform="translate(-9.6 69.04)"/>
            </g>
          </g>
        </g>
        <g class="cls-11">
          <g class="cls-40">
            <g class="cls-40">
              <path class="cls-13" d="M52.6,145.9a.4.4,0,1,1-.4-.4.43.43,0,0,1,.4.4" transform="translate(-9.6 69.04)"/>
            </g>
          </g>
        </g>
        <g class="cls-11">
          <g class="cls-41">
            <g class="cls-41">
              <path class="cls-13" d="M50,147.2a.4.4,0,1,1-.4-.4.43.43,0,0,1,.4.4" transform="translate(-9.6 69.04)"/>
            </g>
          </g>
        </g>
        <g class="cls-11">
          <g class="cls-42">
            <g class="cls-42">
              <path class="cls-13" d="M51.2,144.6a.4.4,0,1,1-.4-.4.37.37,0,0,1,.4.4" transform="translate(-9.6 69.04)"/>
            </g>
          </g>
        </g>
        <g class="cls-11">
          <g class="cls-43">
            <g class="cls-43">
              <path class="cls-13" d="M46.6,147c.1.2.1.4-.1.5s-.4.1-.5-.1-.1-.4.1-.5a.35.35,0,0,1,.5.1" transform="translate(-9.6 69.04)"/>
            </g>
          </g>
        </g>
        <g class="cls-11">
          <g class="cls-44">
            <g class="cls-44">
              <path class="cls-13" d="M50.7,150.5c.1.2.1.4-.1.5s-.4.1-.5-.1-.1-.4.1-.5.4,0,.5.1" transform="translate(-9.6 69.04)"/>
            </g>
          </g>
        </g>
        <g class="cls-11">
          <g class="cls-45">
            <g class="cls-45">
              <path class="cls-13" d="M53.6,148.4c.1.2.1.4-.1.5s-.4.1-.5-.1-.1-.4.1-.5.4-.1.5.1" transform="translate(-9.6 69.04)"/>
            </g>
          </g>
        </g>
        <g class="cls-11">
          <g class="cls-46">
            <g class="cls-46">
              <path class="cls-13" d="M57.2,148.5c.1.2.1.4-.1.5s-.4.1-.5-.1-.1-.4.1-.5.4-.1.5.1" transform="translate(-9.6 69.04)"/>
            </g>
          </g>
        </g>
        <g class="cls-11">
          <g class="cls-47">
            <g class="cls-47">
              <path class="cls-13" d="M56.2,146.4c.1.2.1.4-.1.5s-.4.1-.5-.1-.1-.4.1-.5.4,0,.5.1" transform="translate(-9.6 69.04)"/>
            </g>
          </g>
        </g>
        <g class="cls-11">
          <g class="cls-48">
            <g class="cls-48">
              <path class="cls-13" d="M55.1,143.3c.1.2.1.4-.1.5s-.4.1-.5-.1-.1-.4.1-.5.4,0,.5.1" transform="translate(-9.6 69.04)"/>
            </g>
          </g>
        </g>
        <g class="cls-11">
          <g class="cls-49">
            <g class="cls-49">
              <path class="cls-13" d="M54.9,151.2c.1.2.1.4-.1.5s-.4.1-.5-.1-.1-.4.1-.5.3-.1.5.1" transform="translate(-9.6 69.04)"/>
            </g>
          </g>
        </g>
        <g class="cls-11">
          <g class="cls-50">
            <g class="cls-50">
              <path class="cls-13" d="M52,152.3c.1.2.1.4-.1.5s-.4.1-.5-.1-.1-.4.1-.5.4-.1.5.1" transform="translate(-9.6 69.04)"/>
            </g>
          </g>
        </g>
        <g class="cls-11">
          <g class="cls-51">
            <g class="cls-51">
              <path class="cls-13" d="M47,152.2c.1.2.1.4-.1.5s-.4.1-.5-.1-.1-.4.1-.5.4-.1.5.1" transform="translate(-9.6 69.04)"/>
            </g>
          </g>
        </g>
        <g class="cls-11">
          <g class="cls-52">
            <g class="cls-52">
              <path class="cls-13" d="M49.6,154.1c.1.2.1.4-.1.5s-.4.1-.5-.1-.1-.4.1-.5.4-.1.5.1" transform="translate(-9.6 69.04)"/>
            </g>
          </g>
        </g>
        <g class="cls-11">
          <g class="cls-53">
            <g class="cls-53">
              <path class="cls-13" d="M79.5,144a.4.4,0,1,1-.4-.4.43.43,0,0,1,.4.4" transform="translate(-9.6 69.04)"/>
            </g>
          </g>
        </g>
        <g class="cls-11">
          <g class="cls-54">
            <g class="cls-54">
              <path class="cls-13" d="M83.1,145.3a.4.4,0,1,1-.4-.4.43.43,0,0,1,.4.4" transform="translate(-9.6 69.04)"/>
            </g>
          </g>
        </g>
        <g class="cls-11">
          <g class="cls-55">
            <g class="cls-55">
              <path class="cls-13" d="M80.5,146.6a.4.4,0,1,1-.4-.4c.2.1.4.2.4.4" transform="translate(-9.6 69.04)"/>
            </g>
          </g>
        </g>
        <g class="cls-11">
          <g class="cls-56">
            <g class="cls-56">
              <path class="cls-13" d="M81.8,144a.4.4,0,1,1-.4-.4.43.43,0,0,1,.4.4" transform="translate(-9.6 69.04)"/>
            </g>
          </g>
        </g>
        <g class="cls-11">
          <g class="cls-57">
            <g class="cls-57">
              <path class="cls-13" d="M77.1,146.4c.1.2.1.4-.1.5s-.4.1-.5-.1-.1-.4.1-.5a.44.44,0,0,1,.5.1" transform="translate(-9.6 69.04)"/>
            </g>
          </g>
        </g>
        <g class="cls-11">
          <g class="cls-58">
            <g class="cls-58">
              <path class="cls-13" d="M81.2,150c.1.2.1.4-.1.5s-.4.1-.5-.1-.1-.4.1-.5.4-.1.5.1" transform="translate(-9.6 69.04)"/>
            </g>
          </g>
        </g>
        <g class="cls-11">
          <g class="cls-59">
            <g class="cls-59">
              <path class="cls-13" d="M84.1,147.8c.1.2.1.4-.1.5s-.4.1-.5-.1-.1-.4.1-.5.4-.1.5.1" transform="translate(-9.6 69.04)"/>
            </g>
          </g>
        </g>
        <g class="cls-11">
          <g class="cls-60">
            <g class="cls-60">
              <path class="cls-13" d="M87.7,147.9c.1.2.1.4-.1.5s-.4.1-.5-.1-.1-.4.1-.5.4-.1.5.1" transform="translate(-9.6 69.04)"/>
            </g>
          </g>
        </g>
        <g class="cls-11">
          <g class="cls-61">
            <g class="cls-61">
              <path class="cls-13" d="M86.7,145.9c.1.2.1.4-.1.5s-.4.1-.5-.1-.1-.4.1-.5.4-.1.5.1" transform="translate(-9.6 69.04)"/>
            </g>
          </g>
        </g>
        <g class="cls-11">
          <g class="cls-62">
            <g class="cls-62">
              <path class="cls-13" d="M85.6,142.8c.1.2.1.4-.1.5s-.4.1-.5-.1-.1-.4.1-.5.4-.1.5.1" transform="translate(-9.6 69.04)"/>
            </g>
          </g>
        </g>
        <g class="cls-11">
          <g class="cls-63">
            <g class="cls-63">
              <path class="cls-13" d="M85.4,150.6c.1.2.1.4-.1.5s-.4.1-.5-.1-.1-.4.1-.5a.35.35,0,0,1,.5.1" transform="translate(-9.6 69.04)"/>
            </g>
          </g>
        </g>
        <g class="cls-11">
          <g class="cls-64">
            <g class="cls-64">
              <path class="cls-13" d="M82.6,151.7c.1.2.1.4-.1.5s-.4.1-.5-.1-.1-.4.1-.5.3-.1.5.1" transform="translate(-9.6 69.04)"/>
            </g>
          </g>
        </g>
        <g class="cls-11">
          <g class="cls-65">
            <g class="cls-65">
              <path class="cls-13" d="M77.5,151.6c.1.2.1.4-.1.5s-.4.1-.5-.1-.1-.4.1-.5a.35.35,0,0,1,.5.1" transform="translate(-9.6 69.04)"/>
            </g>
          </g>
        </g>
        <g class="cls-11">
          <g class="cls-66">
            <g class="cls-66">
              <path class="cls-13" d="M80.2,153.5c.1.2.1.4-.1.5s-.4.1-.5-.1-.1-.4.1-.5.3-.1.5.1" transform="translate(-9.6 69.04)"/>
            </g>
          </g>
        </g>
        <g class="cls-11">
          <g class="cls-17">
            <g class="cls-67">
              <g class="cls-67">
                <path class="cls-15" d="M63.1,162.5l-1.9-2a10.78,10.78,0,0,1,6.6-2.8h0a11,11,0,0,1,6.2,2l-1.7,2.2a8.29,8.29,0,0,0-4.5-1.4h0a7,7,0,0,0-4.7,2" transform="translate(-9.6 69.04)"/>
              </g>
            </g>
          </g>
        </g>
      </g>
      <g>
        <path class="cls-13" d="M51.66,27.57l-2-9.52v0c0-.09,0-.13.12-.13h.79a.13.13,0,0,1,.15.13l1.51,7.82s0,0,0,0,0,0,0,0L53.76,18a.14.14,0,0,1,.15-.13h.76q.15,0,.12.15l-2,9.52a.13.13,0,0,1-.15.13h-.8A.14.14,0,0,1,51.66,27.57Z" transform="translate(-9.6 69.04)"/>
        <path class="cls-13" d="M56.17,19.1a.78.78,0,0,1,.57-1.34.72.72,0,0,1,.55.22.79.79,0,0,1-.55,1.35A.78.78,0,0,1,56.17,19.1Zm.08,8.46v-6.8a.12.12,0,0,1,.14-.14h.71c.1,0,.14,0,.14.14v6.8a.12.12,0,0,1-.14.14h-.71A.13.13,0,0,1,56.25,27.56Z" transform="translate(-9.6 69.04)"/>
        <path class="cls-13" d="M59.35,27.27A1.64,1.64,0,0,1,58.77,26v-.1a.13.13,0,0,1,.14-.14h.67a.13.13,0,0,1,.14.14v.09a1,1,0,0,0,.33.75,1.2,1.2,0,0,0,.86.31,1.06,1.06,0,0,0,.81-.31,1,1,0,0,0,.31-.78,1,1,0,0,0-.19-.61,1.87,1.87,0,0,0-.46-.39q-.26-.14-.78-.36a7.61,7.61,0,0,1-.9-.44,2,2,0,0,1-.62-.62,1.82,1.82,0,0,1-.25-1,1.85,1.85,0,0,1,.55-1.42,2.11,2.11,0,0,1,1.49-.51,2.08,2.08,0,0,1,1.51.53,1.85,1.85,0,0,1,.56,1.41v0a.12.12,0,0,1-.14.14h-.64c-.1,0-.14,0-.14-.14v-.08a1,1,0,0,0-.32-.78,1.1,1.1,0,0,0-.82-.31,1.05,1.05,0,0,0-.8.31,1.09,1.09,0,0,0-.3.78A.92.92,0,0,0,60,23a1.52,1.52,0,0,0,.45.38c.17.09.42.21.74.35a8,8,0,0,1,.94.48,2.19,2.19,0,0,1,.66.63,1.94,1.94,0,0,1-.3,2.39,2.2,2.2,0,0,1-1.55.52A2.31,2.31,0,0,1,59.35,27.27Z" transform="translate(-9.6 69.04)"/>
        <path class="cls-13" d="M64.32,19.1a.82.82,0,0,1,0-1.12.75.75,0,0,1,.57-.22.72.72,0,0,1,.55.22.79.79,0,0,1-.55,1.35A.76.76,0,0,1,64.32,19.1Zm.08,8.46v-6.8c0-.1,0-.14.14-.14h.71c.1,0,.14,0,.14.14v6.8a.12.12,0,0,1-.14.14h-.71A.12.12,0,0,1,64.4,27.56Z" transform="translate(-9.6 69.04)"/>
        <path class="cls-13" d="M69.55,21.36H68.49s-.06,0-.06.05V25.7a1.35,1.35,0,0,0,.22.89.86.86,0,0,0,.69.23h.14a.13.13,0,0,1,.14.14v.6a.13.13,0,0,1-.14.14h-.35a1.88,1.88,0,0,1-1.25-.36A1.69,1.69,0,0,1,67.45,26V21.41s0-.05-.06-.05h-.54a.12.12,0,0,1-.14-.14v-.46c0-.1,0-.14.14-.14h.54a.05.05,0,0,0,.06-.06V19a.13.13,0,0,1,.14-.14h.7a.13.13,0,0,1,.14.14v1.57a.05.05,0,0,0,.06.06h1.06a.12.12,0,0,1,.14.14v.46A.13.13,0,0,1,69.55,21.36Z" transform="translate(-9.6 69.04)"/>
        <path class="cls-13" d="M75,24.54H71.83s0,0,0,.05v1a1.41,1.41,0,0,0,.32,1,1.1,1.1,0,0,0,.87.37,1.14,1.14,0,0,0,.76-.27,1.25,1.25,0,0,0,.41-.71.16.16,0,0,1,.16-.12l.7,0a.11.11,0,0,1,.09,0,.11.11,0,0,1,0,.11,2,2,0,0,1-.68,1.31,2.2,2.2,0,0,1-1.47.48,2.11,2.11,0,0,1-1.59-.59,2.07,2.07,0,0,1-.6-1.55v-3a2.09,2.09,0,0,1,.6-1.55A2.12,2.12,0,0,1,73,20.5a2.16,2.16,0,0,1,1.6.6,2.08,2.08,0,0,1,.59,1.55V24.4A.12.12,0,0,1,75,24.54Zm-2.92-2.8a1.46,1.46,0,0,0-.32,1v.93s0,.06,0,.06h2.3s.05,0,.05-.06v-.93a1.42,1.42,0,0,0-.33-1,1.17,1.17,0,0,0-.88-.37A1.13,1.13,0,0,0,72.1,21.74Z" transform="translate(-9.6 69.04)"/>
        <path class="cls-13" d="M79.73,27.27A1.67,1.67,0,0,1,79.15,26v-.1a.13.13,0,0,1,.14-.14H80a.13.13,0,0,1,.14.14v.09a1,1,0,0,0,.32.75,1.2,1.2,0,0,0,.87.31,1.09,1.09,0,0,0,.81-.31,1.06,1.06,0,0,0,.31-.78,1,1,0,0,0-.2-.61,1.57,1.57,0,0,0-.46-.39c-.17-.09-.43-.21-.77-.36a7.11,7.11,0,0,1-.91-.44,2,2,0,0,1-.61-.62,1.82,1.82,0,0,1-.26-1,1.85,1.85,0,0,1,.55-1.42,2.44,2.44,0,0,1,3,0,1.85,1.85,0,0,1,.56,1.41v0a.12.12,0,0,1-.14.14h-.65a.12.12,0,0,1-.14-.14v-.08a1,1,0,0,0-.31-.78,1.12,1.12,0,0,0-.82-.31,1.06,1.06,0,0,0-.81.31,1.09,1.09,0,0,0-.3.78.92.92,0,0,0,.18.57,1.52,1.52,0,0,0,.45.38l.74.35a8.27,8.27,0,0,1,1,.48,2.16,2.16,0,0,1,.65.63,1.7,1.7,0,0,1,.28,1,1.77,1.77,0,0,1-.57,1.38,2.25,2.25,0,0,1-1.56.52A2.33,2.33,0,0,1,79.73,27.27Z" transform="translate(-9.6 69.04)"/>
        <path class="cls-13" d="M91.64,21.13a2.78,2.78,0,0,1,.46,1.71v4.72a.12.12,0,0,1-.14.14h-.7a.13.13,0,0,1-.14-.14V22.93a1.87,1.87,0,0,0-.3-1.13.91.91,0,0,0-.79-.41,1,1,0,0,0-.84.4,1.83,1.83,0,0,0-.31,1.11v4.66a.12.12,0,0,1-.14.14H88a.13.13,0,0,1-.14-.14V22.93a1.87,1.87,0,0,0-.3-1.13.91.91,0,0,0-.78-.41,1,1,0,0,0-.85.4,1.76,1.76,0,0,0-.31,1.11v4.66a.13.13,0,0,1-.14.14h-.7a.13.13,0,0,1-.14-.14v-6.8a.12.12,0,0,1,.14-.14h.7a.12.12,0,0,1,.14.14v.43a.05.05,0,0,0,0,0l0,0a1.74,1.74,0,0,1,1.4-.68,1.58,1.58,0,0,1,.92.26,1.7,1.7,0,0,1,.61.73s0,0,0,0,0,0,0,0a1.7,1.7,0,0,1,.68-.74,1.9,1.9,0,0,1,.93-.24A1.53,1.53,0,0,1,91.64,21.13Z" transform="translate(-9.6 69.04)"/>
        <path class="cls-13" d="M97.38,21.14a2.42,2.42,0,0,1,.59,1.7v4.72a.13.13,0,0,1-.14.14h-.71a.12.12,0,0,1-.14-.14v-.42s0,0,0,0a.05.05,0,0,0,0,0,1.86,1.86,0,0,1-1.56.68A2.1,2.1,0,0,1,94,27.37a1.88,1.88,0,0,1-.56-1.56,2.13,2.13,0,0,1,.68-1.74,2.8,2.8,0,0,1,1.81-.56h1s.06,0,.06-.05v-.55a1.78,1.78,0,0,0-.33-1.12,1,1,0,0,0-.87-.42,1.07,1.07,0,0,0-.72.28,1.12,1.12,0,0,0-.35.72.13.13,0,0,1-.14.14l-.79,0a.11.11,0,0,1-.12-.14A1.85,1.85,0,0,1,94.33,21a2.18,2.18,0,0,1,1.48-.52A2,2,0,0,1,97.38,21.14Zm-.82,5.43a1.29,1.29,0,0,0,.42-1V24.37a.05.05,0,0,0-.06-.06h-1a1.52,1.52,0,0,0-1.07.36,1.37,1.37,0,0,0-.39,1.06,1.23,1.23,0,0,0,.3.91,1.06,1.06,0,0,0,.79.3A1.46,1.46,0,0,0,96.56,26.57Z" transform="translate(-9.6 69.04)"/>
        <path class="cls-13" d="M102.52,20.7a.16.16,0,0,1,.07.18l-.17.73c0,.08-.06.11-.17.08a1,1,0,0,0-.42-.08h-.17a1,1,0,0,0-.82.53,2.12,2.12,0,0,0-.32,1.21v4.2a.13.13,0,0,1-.14.14h-.72a.13.13,0,0,1-.14-.14v-6.8a.12.12,0,0,1,.14-.14h.72a.12.12,0,0,1,.14.14v.84s0,0,0,0l0,0a1.39,1.39,0,0,1,1.33-1.06A1.16,1.16,0,0,1,102.52,20.7Z" transform="translate(-9.6 69.04)"/>
        <path class="cls-13" d="M106,21.36H104.9s-.06,0-.06.05V25.7a1.34,1.34,0,0,0,.23.89.85.85,0,0,0,.68.23h.14A.12.12,0,0,1,106,27v.6a.12.12,0,0,1-.14.14h-.35a1.88,1.88,0,0,1-1.25-.36,1.69,1.69,0,0,1-.43-1.35V21.41a0,0,0,0,0,0-.05h-.55a.13.13,0,0,1-.14-.14v-.46a.12.12,0,0,1,.14-.14h.55s0,0,0-.06V19a.13.13,0,0,1,.14-.14h.7a.12.12,0,0,1,.14.14v1.57a.05.05,0,0,0,.06.06H106c.1,0,.14,0,.14.14v.46A.12.12,0,0,1,106,21.36Z" transform="translate(-9.6 69.04)"/>
        <path class="cls-13" d="M110.71,20.62h.71c.1,0,.14,0,.14.14v6.8a3.3,3.3,0,0,1-.69,2.27,2.78,2.78,0,0,1-2.32.71.14.14,0,0,1-.14-.15v-.6a.12.12,0,0,1,.14-.14,1.94,1.94,0,0,0,1.57-.51,2.57,2.57,0,0,0,.45-1.66v-.42a.08.08,0,0,0,0,0s0,0,0,0a1.56,1.56,0,0,1-.61.53,1.79,1.79,0,0,1-.79.18,1.72,1.72,0,0,1-1.39-.59,2.28,2.28,0,0,1-.51-1.55v-3a2.3,2.3,0,0,1,.51-1.57,1.77,1.77,0,0,1,1.39-.58,1.79,1.79,0,0,1,.79.18,1.53,1.53,0,0,1,.61.52s0,0,0,0a.06.06,0,0,0,0,0v-.43A.12.12,0,0,1,110.71,20.62Zm-.47,5.88a1.37,1.37,0,0,0,.33-1V22.72a1.42,1.42,0,0,0-.33-1,1.1,1.1,0,0,0-.85-.37,1.16,1.16,0,0,0-.87.37,1.42,1.42,0,0,0-.33,1v2.82a1.37,1.37,0,0,0,.33,1,1.13,1.13,0,0,0,.87.37A1.07,1.07,0,0,0,110.24,26.5Z" transform="translate(-9.6 69.04)"/>
        <path class="cls-13" d="M116.13,20.7a.16.16,0,0,1,.07.18l-.17.73c0,.08-.07.11-.17.08a1,1,0,0,0-.42-.08h-.17a1,1,0,0,0-.82.53,2.12,2.12,0,0,0-.33,1.21v4.2c0,.09,0,.14-.13.14h-.72a.13.13,0,0,1-.14-.14v-6.8a.12.12,0,0,1,.14-.14H114c.09,0,.13,0,.13.14v.84s0,0,0,0l0,0a1.39,1.39,0,0,1,1.33-1.06A1.16,1.16,0,0,1,116.13,20.7Z" transform="translate(-9.6 69.04)"/>
        <path class="cls-13" d="M117.25,19.1a.78.78,0,0,1,.57-1.34.72.72,0,0,1,.55.22.79.79,0,0,1-.55,1.35A.78.78,0,0,1,117.25,19.1Zm.08,8.46v-6.8a.12.12,0,0,1,.14-.14h.71c.1,0,.14,0,.14.14v6.8a.12.12,0,0,1-.14.14h-.71A.13.13,0,0,1,117.33,27.56Z" transform="translate(-9.6 69.04)"/>
        <path class="cls-13" d="M123.49,17.9h.71a.12.12,0,0,1,.14.14v9.52a.12.12,0,0,1-.14.14h-.71a.13.13,0,0,1-.14-.14v-.31a.05.05,0,0,0,0,0s0,0,0,0a1.7,1.7,0,0,1-1.34.59,1.83,1.83,0,0,1-1.43-.59,2.21,2.21,0,0,1-.53-1.55v-3a2.21,2.21,0,0,1,.53-1.57,1.86,1.86,0,0,1,1.43-.58,1.69,1.69,0,0,1,1.34.61s0,0,0,0a.05.05,0,0,0,0,0V18A.13.13,0,0,1,123.49,17.9ZM123,26.57a1.37,1.37,0,0,0,.33-1V22.72a1.42,1.42,0,0,0-.33-1,1.1,1.1,0,0,0-.85-.37,1.16,1.16,0,0,0-.87.37,1.38,1.38,0,0,0-.34,1v2.89a1.33,1.33,0,0,0,.34,1,1.13,1.13,0,0,0,.87.37A1.07,1.07,0,0,0,123,26.57Z" transform="translate(-9.6 69.04)"/>
        <path class="cls-13" d="M126,27.45a.8.8,0,0,1-.22-.56.75.75,0,0,1,.79-.79.8.8,0,0,1,.56.22.75.75,0,0,1,.22.57.75.75,0,0,1-.78.78A.75.75,0,0,1,126,27.45Z" transform="translate(-9.6 69.04)"/>
        <path class="cls-13" d="M132,20.62h.72a.12.12,0,0,1,.14.14v6.8a3.3,3.3,0,0,1-.69,2.27,2.81,2.81,0,0,1-2.32.71.14.14,0,0,1-.14-.15v-.6a.12.12,0,0,1,.14-.14,1.94,1.94,0,0,0,1.57-.51,2.57,2.57,0,0,0,.44-1.66v-.42s0,0,0,0,0,0-.05,0a1.53,1.53,0,0,1-.6.53,1.84,1.84,0,0,1-.8.18,1.73,1.73,0,0,1-1.39-.59,2.28,2.28,0,0,1-.51-1.55v-3a2.3,2.3,0,0,1,.51-1.57,1.79,1.79,0,0,1,1.39-.58,1.84,1.84,0,0,1,.8.18,1.51,1.51,0,0,1,.6.52s0,0,.05,0,0,0,0,0v-.43A.12.12,0,0,1,132,20.62Zm-.46,5.88a1.41,1.41,0,0,0,.32-1V22.72a1.46,1.46,0,0,0-.32-1,1.12,1.12,0,0,0-.85-.37,1.13,1.13,0,0,0-.87.37,1.42,1.42,0,0,0-.34,1v2.82a1.37,1.37,0,0,0,.34,1,1.1,1.1,0,0,0,.87.37A1.09,1.09,0,0,0,131.51,26.5Z" transform="translate(-9.6 69.04)"/>
        <path class="cls-13" d="M134.84,27.22a2.07,2.07,0,0,1-.6-1.55v-3a2.1,2.1,0,0,1,.6-1.55,2.42,2.42,0,0,1,3.21,0,2.1,2.1,0,0,1,.6,1.55v3a2.07,2.07,0,0,1-.6,1.55,2.17,2.17,0,0,1-1.61.59A2.14,2.14,0,0,1,134.84,27.22Zm2.48-.65a1.41,1.41,0,0,0,.34-1V22.72a1.42,1.42,0,0,0-.34-1,1.18,1.18,0,0,0-.88-.37,1.15,1.15,0,0,0-.87.37,1.42,1.42,0,0,0-.33,1V25.6a1.41,1.41,0,0,0,.33,1,1.14,1.14,0,0,0,.87.36A1.18,1.18,0,0,0,137.32,26.57Z" transform="translate(-9.6 69.04)"/>
        <path class="cls-13" d="M141.24,27.57l-1.73-6.8,0-.06c0-.06,0-.09.13-.09h.81a.14.14,0,0,1,.15.12l1.21,5.31s0,0,0,0a.11.11,0,0,0,0,0L143,20.74a.15.15,0,0,1,.16-.12H144a.14.14,0,0,1,.11,0,.11.11,0,0,1,0,.11l-1.72,6.79a.13.13,0,0,1-.15.13h-.84A.15.15,0,0,1,141.24,27.57Z" transform="translate(-9.6 69.04)"/>
        <path class="cls-13" d="M39.89,34.1a2.21,2.21,0,0,1,.53,1.55v3a2.2,2.2,0,0,1-.53,1.56,1.8,1.8,0,0,1-1.41.58,2,2,0,0,1-.74-.14,1.62,1.62,0,0,1-.62-.46s0,0,0,0a.05.05,0,0,0,0,0v3a.13.13,0,0,1-.14.14H36.2c-.1,0-.15-.05-.15-.14V33.76c0-.1.05-.14.15-.14h.71a.12.12,0,0,1,.14.14v.32a0,0,0,0,0,0,0s0,0,.05,0a1.68,1.68,0,0,1,.61-.44,1.92,1.92,0,0,1,.74-.15A1.78,1.78,0,0,1,39.89,34.1Zm-.79.64a1.16,1.16,0,0,0-.87-.37,1.1,1.1,0,0,0-.85.37,1.42,1.42,0,0,0-.33,1V38.6a1.39,1.39,0,0,0,.33,1,1.07,1.07,0,0,0,.85.37,1.13,1.13,0,0,0,.87-.37,1.35,1.35,0,0,0,.34-1V35.72A1.38,1.38,0,0,0,39.1,34.74Z" transform="translate(-9.6 69.04)"/>
        <path class="cls-13" d="M45.62,34.14a2.42,2.42,0,0,1,.58,1.7v4.72a.12.12,0,0,1-.14.14h-.71a.13.13,0,0,1-.14-.14v-.42a.05.05,0,0,0,0,0l0,0a1.83,1.83,0,0,1-1.55.68,2.08,2.08,0,0,1-1.34-.44,1.85,1.85,0,0,1-.57-1.56,2.1,2.1,0,0,1,.69-1.74,2.79,2.79,0,0,1,1.8-.56h1s.05,0,.05,0v-.55a1.84,1.84,0,0,0-.32-1.12,1.09,1.09,0,0,0-1.59-.14,1.18,1.18,0,0,0-.36.72.12.12,0,0,1-.14.14l-.78,0a.14.14,0,0,1-.11,0,.12.12,0,0,1,0-.1A1.89,1.89,0,0,1,42.56,34a2.2,2.2,0,0,1,1.49-.52A2.07,2.07,0,0,1,45.62,34.14Zm-.83,5.43a1.29,1.29,0,0,0,.42-1V37.37s0-.06-.05-.06h-1a1.5,1.5,0,0,0-1.06.36,1.37,1.37,0,0,0-.4,1.06,1.19,1.19,0,0,0,.31.91,1.06,1.06,0,0,0,.79.3A1.43,1.43,0,0,0,44.79,39.57Z" transform="translate(-9.6 69.04)"/>
        <path class="cls-13" d="M50.76,33.7a.15.15,0,0,1,.06.18l-.16.73c0,.08-.07.11-.17.08a1,1,0,0,0-.42-.08H49.9a1.07,1.07,0,0,0-.83.53,2.2,2.2,0,0,0-.32,1.21v4.2a.12.12,0,0,1-.14.14H47.9a.13.13,0,0,1-.14-.14v-6.8a.12.12,0,0,1,.14-.14h.71c.1,0,.14,0,.14.14v.84s0,0,0,0,0,0,0,0a1.39,1.39,0,0,1,1.33-1.06A1.17,1.17,0,0,1,50.76,33.7Z" transform="translate(-9.6 69.04)"/>
        <path class="cls-13" d="M55.46,34.14a2.42,2.42,0,0,1,.59,1.7v4.72a.13.13,0,0,1-.14.14h-.72a.13.13,0,0,1-.14-.14v-.42s0,0,0,0l-.05,0a1.83,1.83,0,0,1-1.55.68,2.1,2.1,0,0,1-1.34-.44,1.85,1.85,0,0,1-.56-1.56,2.1,2.1,0,0,1,.68-1.74A2.8,2.8,0,0,1,54,36.51h1s0,0,0,0v-.55a1.77,1.77,0,0,0-.32-1.12,1,1,0,0,0-.87-.42,1,1,0,0,0-.72.28,1.18,1.18,0,0,0-.36.72c0,.09,0,.14-.13.14l-.79,0a.11.11,0,0,1-.1,0,.09.09,0,0,1,0-.1A1.85,1.85,0,0,1,52.41,34a2.16,2.16,0,0,1,1.48-.52A2.06,2.06,0,0,1,55.46,34.14Zm-.83,5.43a1.29,1.29,0,0,0,.42-1V37.37s0-.06,0-.06H54a1.5,1.5,0,0,0-1.06.36,1.37,1.37,0,0,0-.39,1.06,1.23,1.23,0,0,0,.3.91,1.06,1.06,0,0,0,.79.3A1.43,1.43,0,0,0,54.63,39.57Z" transform="translate(-9.6 69.04)"/>
        <path class="cls-13" d="M61.63,40.57l-1.73-6.8,0-.06c0-.06,0-.09.13-.09h.81a.14.14,0,0,1,.15.12l1.21,5.31s0,0,0,0,0,0,0,0l1.19-5.31a.15.15,0,0,1,.16-.12h.81a.14.14,0,0,1,.11,0,.11.11,0,0,1,0,.11l-1.72,6.79a.13.13,0,0,1-.15.13h-.84A.15.15,0,0,1,61.63,40.57Z" transform="translate(-9.6 69.04)"/>
        <path class="cls-13" d="M69.7,37.54H66.5a0,0,0,0,0,0,.05v1a1.37,1.37,0,0,0,.33,1,1.08,1.08,0,0,0,.86.37,1.12,1.12,0,0,0,.76-.27,1.25,1.25,0,0,0,.41-.71.16.16,0,0,1,.16-.12l.7,0a.13.13,0,0,1,.1,0,.13.13,0,0,1,0,.11,2,2,0,0,1-.67,1.31,2.21,2.21,0,0,1-1.48.48,2.14,2.14,0,0,1-1.59-.59,2.07,2.07,0,0,1-.6-1.55v-3a2.09,2.09,0,0,1,.6-1.55,2.42,2.42,0,0,1,3.19,0,2.09,2.09,0,0,1,.6,1.55V37.4A.13.13,0,0,1,69.7,37.54Zm-2.92-2.8a1.42,1.42,0,0,0-.33,1v.93s0,.06,0,.06h2.3a.05.05,0,0,0,.06-.06v-.93a1.42,1.42,0,0,0-.34-1,1.15,1.15,0,0,0-.88-.37A1.11,1.11,0,0,0,66.78,34.74Z" transform="translate(-9.6 69.04)"/>
        <path class="cls-13" d="M74.3,33.7a.14.14,0,0,1,.07.18l-.17.73c0,.08-.06.11-.16.08a1,1,0,0,0-.42-.08h-.17a1.05,1.05,0,0,0-.83.53,2.2,2.2,0,0,0-.32,1.21v4.2a.13.13,0,0,1-.14.14h-.71a.12.12,0,0,1-.14-.14v-6.8c0-.1,0-.14.14-.14h.71a.12.12,0,0,1,.14.14v.84s0,0,0,0,0,0,.05,0a1.39,1.39,0,0,1,1.33-1.06A1.14,1.14,0,0,1,74.3,33.7Z" transform="translate(-9.6 69.04)"/>
        <path class="cls-13" d="M79.43,40.57l-1.74-6.8v-.06q0-.09.12-.09h.81a.15.15,0,0,1,.16.12L80,39.05s0,0,0,0,0,0,0,0l1.19-5.31a.14.14,0,0,1,.15-.12h.81a.12.12,0,0,1,.11,0,.11.11,0,0,1,0,.11l-1.73,6.79c0,.09-.06.13-.15.13h-.84A.14.14,0,0,1,79.43,40.57Z" transform="translate(-9.6 69.04)"/>
        <path class="cls-13" d="M83.54,32.1a.78.78,0,0,1,.56-1.34.75.75,0,0,1,.56.22.85.85,0,0,1,0,1.12.75.75,0,0,1-.56.23A.74.74,0,0,1,83.54,32.1Zm.07,8.46v-6.8a.12.12,0,0,1,.14-.14h.72a.12.12,0,0,1,.14.14v6.8a.13.13,0,0,1-.14.14h-.72A.13.13,0,0,1,83.61,40.56Z" transform="translate(-9.6 69.04)"/>
        <path class="cls-13" d="M89.77,30.9h.72a.13.13,0,0,1,.14.14v9.52a.13.13,0,0,1-.14.14h-.72a.13.13,0,0,1-.14-.14v-.31a.05.05,0,0,0,0,0s0,0,0,0a1.7,1.7,0,0,1-1.34.59,1.83,1.83,0,0,1-1.43-.59,2.26,2.26,0,0,1-.53-1.55v-3a2.26,2.26,0,0,1,.53-1.57,1.86,1.86,0,0,1,1.43-.58,1.69,1.69,0,0,1,1.34.61s0,0,0,0a.05.05,0,0,0,0,0V31A.13.13,0,0,1,89.77,30.9Zm-.47,8.67a1.37,1.37,0,0,0,.33-1V35.72a1.42,1.42,0,0,0-.33-1,1.1,1.1,0,0,0-.84-.37,1.17,1.17,0,0,0-.88.37,1.38,1.38,0,0,0-.34,1v2.89a1.33,1.33,0,0,0,.34,1,1.13,1.13,0,0,0,.88.37A1.07,1.07,0,0,0,89.3,39.57Z" transform="translate(-9.6 69.04)"/>
        <path class="cls-13" d="M96.42,37.54H93.23s-.06,0-.06.05v1a1.37,1.37,0,0,0,.33,1,1.09,1.09,0,0,0,.86.37,1.15,1.15,0,0,0,.77-.27,1.3,1.3,0,0,0,.41-.71.16.16,0,0,1,.15-.12l.7,0a.13.13,0,0,1,.1,0,.11.11,0,0,1,0,.11,2,2,0,0,1-.68,1.31,2.21,2.21,0,0,1-1.48.48,2.1,2.1,0,0,1-1.58-.59,2.07,2.07,0,0,1-.6-1.55v-3a2.09,2.09,0,0,1,.6-1.55,2.11,2.11,0,0,1,1.58-.6,2.17,2.17,0,0,1,1.61.6,2.12,2.12,0,0,1,.59,1.55V37.4A.12.12,0,0,1,96.42,37.54Zm-2.92-2.8a1.42,1.42,0,0,0-.33,1v.93a.05.05,0,0,0,.06.06h2.3s0,0,0-.06v-.93a1.42,1.42,0,0,0-.33-1,1.18,1.18,0,0,0-.89-.37A1.13,1.13,0,0,0,93.5,34.74Z" transform="translate(-9.6 69.04)"/>
        <path class="cls-13" d="M98.47,40.22a2.1,2.1,0,0,1-.59-1.55v-3a2.1,2.1,0,0,1,.6-1.55,2.16,2.16,0,0,1,1.6-.61,2.2,2.2,0,0,1,1.61.61,2.1,2.1,0,0,1,.6,1.55v3a2.07,2.07,0,0,1-.6,1.55,2.19,2.19,0,0,1-1.61.59A2.16,2.16,0,0,1,98.47,40.22Zm2.48-.65a1.37,1.37,0,0,0,.34-1V35.72a1.38,1.38,0,0,0-.34-1,1.16,1.16,0,0,0-.87-.37,1.13,1.13,0,0,0-.87.37,1.38,1.38,0,0,0-.34,1V38.6a1.37,1.37,0,0,0,.34,1,1.12,1.12,0,0,0,.87.36A1.15,1.15,0,0,0,101,39.57Z" transform="translate(-9.6 69.04)"/>
        <path class="cls-13" d="M104.14,40.27a1.67,1.67,0,0,1-.58-1.32v-.1a.13.13,0,0,1,.14-.14h.67a.12.12,0,0,1,.14.14v.09a1,1,0,0,0,.33.75,1.2,1.2,0,0,0,.86.31,1.1,1.1,0,0,0,.82-.31,1.06,1.06,0,0,0,.3-.78,1,1,0,0,0-.19-.61,1.57,1.57,0,0,0-.46-.39c-.17-.09-.43-.21-.77-.36a7.11,7.11,0,0,1-.91-.44,1.9,1.9,0,0,1-.61-.62,1.74,1.74,0,0,1-.26-1,1.85,1.85,0,0,1,.55-1.42,2.12,2.12,0,0,1,1.49-.51,2.06,2.06,0,0,1,1.51.53,1.82,1.82,0,0,1,.56,1.41v0c0,.1,0,.14-.14.14H107a.12.12,0,0,1-.14-.14v-.08a1,1,0,0,0-.32-.78,1.09,1.09,0,0,0-.81-.31,1.06,1.06,0,0,0-.81.31,1.09,1.09,0,0,0-.3.78.92.92,0,0,0,.18.57,1.52,1.52,0,0,0,.45.38c.18.09.42.21.74.35a9.2,9.2,0,0,1,1,.48,2.28,2.28,0,0,1,.65.63,1.77,1.77,0,0,1,.28,1,1.75,1.75,0,0,1-.58,1.38,2.2,2.2,0,0,1-1.55.52A2.33,2.33,0,0,1,104.14,40.27Z" transform="translate(-9.6 69.04)"/>
        <path class="cls-13" d="M115.24,30.9H116a.13.13,0,0,1,.14.14v9.52a.13.13,0,0,1-.14.14h-.71a.12.12,0,0,1-.14-.14v-.31a.05.05,0,0,0,0,0s0,0,0,0a1.72,1.72,0,0,1-1.35.59,1.83,1.83,0,0,1-1.42-.59,2.22,2.22,0,0,1-.54-1.55v-3a2.22,2.22,0,0,1,.54-1.57,1.85,1.85,0,0,1,1.42-.58,1.72,1.72,0,0,1,1.35.61s0,0,0,0a.05.05,0,0,0,0,0V31A.12.12,0,0,1,115.24,30.9Zm-.47,8.67a1.37,1.37,0,0,0,.33-1V35.72a1.42,1.42,0,0,0-.33-1,1.1,1.1,0,0,0-.85-.37,1.16,1.16,0,0,0-.87.37,1.38,1.38,0,0,0-.35,1v2.89a1.33,1.33,0,0,0,.35,1,1.13,1.13,0,0,0,.87.37A1.07,1.07,0,0,0,114.77,39.57Z" transform="translate(-9.6 69.04)"/>
        <path class="cls-13" d="M117.83,32.1a.78.78,0,0,1,.57-1.34A.71.71,0,0,1,119,31a.82.82,0,0,1,0,1.12.72.72,0,0,1-.55.23A.78.78,0,0,1,117.83,32.1Zm.08,8.46v-6.8a.12.12,0,0,1,.14-.14h.72a.12.12,0,0,1,.14.14v6.8a.13.13,0,0,1-.14.14h-.72A.13.13,0,0,1,117.91,40.56Z" transform="translate(-9.6 69.04)"/>
        <path class="cls-13" d="M121.94,40.57l-1.73-6.8,0-.06c0-.06,0-.09.13-.09h.81a.15.15,0,0,1,.16.12l1.2,5.31s0,0,0,0,0,0,0,0l1.19-5.31a.14.14,0,0,1,.15-.12h.81a.14.14,0,0,1,.11,0,.11.11,0,0,1,0,.11l-1.72,6.79a.13.13,0,0,1-.15.13h-.84A.15.15,0,0,1,121.94,40.57Z" transform="translate(-9.6 69.04)"/>
        <path class="cls-13" d="M130,37.54h-3.19s-.06,0-.06.05v1a1.37,1.37,0,0,0,.33,1,1.08,1.08,0,0,0,.86.37,1.12,1.12,0,0,0,.76-.27,1.32,1.32,0,0,0,.42-.71.15.15,0,0,1,.15-.12l.7,0a.13.13,0,0,1,.1,0s0,.06,0,.11a2,2,0,0,1-.68,1.31,2.21,2.21,0,0,1-1.48.48,2.14,2.14,0,0,1-1.59-.59,2.06,2.06,0,0,1-.59-1.55v-3a2.08,2.08,0,0,1,.59-1.55,2.42,2.42,0,0,1,3.19,0,2.09,2.09,0,0,1,.6,1.55V37.4A.13.13,0,0,1,130,37.54Zm-2.92-2.8a1.42,1.42,0,0,0-.33,1v.93a.05.05,0,0,0,.06.06h2.29a.05.05,0,0,0,.06-.06v-.93a1.38,1.38,0,0,0-.34-1,1.15,1.15,0,0,0-.88-.37A1.11,1.11,0,0,0,127.09,34.74Z" transform="translate(-9.6 69.04)"/>
        <path class="cls-13" d="M134.61,33.7a.14.14,0,0,1,.07.18l-.16.73c0,.08-.07.11-.17.08a1,1,0,0,0-.42-.08h-.17a1.05,1.05,0,0,0-.83.53,2.2,2.2,0,0,0-.32,1.21v4.2a.13.13,0,0,1-.14.14h-.71a.12.12,0,0,1-.14-.14v-6.8c0-.1,0-.14.14-.14h.71a.12.12,0,0,1,.14.14v.84s0,0,0,0,0,0,.05,0A1.39,1.39,0,0,1,134,33.55,1.14,1.14,0,0,1,134.61,33.7Z" transform="translate(-9.6 69.04)"/>
        <path class="cls-13" d="M138.06,34.36H137a0,0,0,0,0-.05,0V38.7a1.35,1.35,0,0,0,.22.89.86.86,0,0,0,.69.23H138a.13.13,0,0,1,.14.14v.6a.13.13,0,0,1-.14.14h-.35a1.93,1.93,0,0,1-1.26-.36A1.73,1.73,0,0,1,136,39V34.41s0,0-.06,0h-.54a.12.12,0,0,1-.14-.14v-.46c0-.1,0-.14.14-.14h.54a.05.05,0,0,0,.06-.06V32a.12.12,0,0,1,.14-.14h.7a.13.13,0,0,1,.14.14v1.57s0,.06.05.06h1.07a.12.12,0,0,1,.14.14v.46A.13.13,0,0,1,138.06,34.36Z" transform="translate(-9.6 69.04)"/>
        <path class="cls-13" d="M139.48,32.1a.82.82,0,0,1,0-1.12.82.82,0,0,1,1.12,0,.82.82,0,0,1,0,1.12.8.8,0,0,1-1.12,0Zm.08,8.46v-6.8c0-.1,0-.14.14-.14h.71a.12.12,0,0,1,.14.14v6.8a.13.13,0,0,1-.14.14h-.71A.12.12,0,0,1,139.56,40.56Z" transform="translate(-9.6 69.04)"/>
        <path class="cls-13" d="M145.71,30.9h.72a.13.13,0,0,1,.14.14v9.52a.13.13,0,0,1-.14.14h-.72a.13.13,0,0,1-.14-.14v-.31s0,0,0,0,0,0-.05,0a1.7,1.7,0,0,1-1.34.59,1.85,1.85,0,0,1-1.43-.59,2.26,2.26,0,0,1-.53-1.55v-3a2.26,2.26,0,0,1,.53-1.57,1.87,1.87,0,0,1,1.43-.58,1.69,1.69,0,0,1,1.34.61s0,0,.05,0,0,0,0,0V31A.13.13,0,0,1,145.71,30.9Zm-.46,8.67a1.41,1.41,0,0,0,.32-1V35.72a1.46,1.46,0,0,0-.32-1,1.12,1.12,0,0,0-.85-.37,1.17,1.17,0,0,0-.88.37,1.38,1.38,0,0,0-.34,1v2.89a1.33,1.33,0,0,0,.34,1,1.13,1.13,0,0,0,.88.37A1.09,1.09,0,0,0,145.25,39.57Z" transform="translate(-9.6 69.04)"/>
        <path class="cls-13" d="M148.72,40.22a2.07,2.07,0,0,1-.6-1.55v-3a2.1,2.1,0,0,1,.6-1.55,2.42,2.42,0,0,1,3.21,0,2.1,2.1,0,0,1,.6,1.55v3a2.07,2.07,0,0,1-.6,1.55,2.17,2.17,0,0,1-1.61.59A2.14,2.14,0,0,1,148.72,40.22Zm2.48-.65a1.41,1.41,0,0,0,.34-1V35.72a1.42,1.42,0,0,0-.34-1,1.22,1.22,0,0,0-1.75,0,1.42,1.42,0,0,0-.33,1V38.6a1.41,1.41,0,0,0,.33,1,1.24,1.24,0,0,0,1.75,0Z" transform="translate(-9.6 69.04)"/>
        <path class="cls-13" d="M154.39,40.27a1.64,1.64,0,0,1-.58-1.32v-.1a.12.12,0,0,1,.14-.14h.67a.13.13,0,0,1,.14.14v.09a1,1,0,0,0,.33.75A1.18,1.18,0,0,0,156,40a1.08,1.08,0,0,0,.81-.31,1,1,0,0,0,.31-.78,1,1,0,0,0-.2-.61,1.67,1.67,0,0,0-.45-.39c-.18-.09-.43-.21-.78-.36a7.61,7.61,0,0,1-.9-.44,1.93,1.93,0,0,1-.62-.62,1.82,1.82,0,0,1-.26-1,1.86,1.86,0,0,1,.56-1.42,2.42,2.42,0,0,1,3,0,1.85,1.85,0,0,1,.56,1.41v0a.12.12,0,0,1-.14.14h-.64c-.1,0-.14,0-.14-.14v-.08a1,1,0,0,0-.32-.78,1.1,1.1,0,0,0-.82-.31,1,1,0,0,0-.8.31,1.09,1.09,0,0,0-.3.78A.92.92,0,0,0,155,36a1.52,1.52,0,0,0,.45.38c.17.09.42.21.74.35a8.93,8.93,0,0,1,.94.48,2,2,0,0,1,.65.63,1.7,1.7,0,0,1,.28,1,1.77,1.77,0,0,1-.57,1.38,2.2,2.2,0,0,1-1.55.52A2.31,2.31,0,0,1,154.39,40.27Z" transform="translate(-9.6 69.04)"/>
        <path class="cls-13" d="M61.79,56.46a.16.16,0,0,1,0-.1V55.8a.12.12,0,0,1,.14-.14,1.34,1.34,0,0,0,.67-.17A1,1,0,0,0,63,55a6.63,6.63,0,0,0,.31-1.21.09.09,0,0,0,0-.05,0,0,0,0,1,0,0l-1.78-6.89v0c0-.08,0-.11.14-.11h.76a.13.13,0,0,1,.15.12l1.23,5.5s0,0,0,0,0,0,0,0l1.22-5.5a.14.14,0,0,1,.15-.12H66a.12.12,0,0,1,.11,0,.14.14,0,0,1,0,.11l-2,7.54a6.45,6.45,0,0,1-.5,1.38,1.37,1.37,0,0,1-.63.63,3,3,0,0,1-1.11.17h-.07A.07.07,0,0,1,61.79,56.46Z" transform="translate(-9.6 69.04)"/>
        <path class="cls-13" d="M70.07,45.1a.78.78,0,0,1,.57-1.34.71.71,0,0,1,.55.22.82.82,0,0,1,0,1.12.72.72,0,0,1-.55.23A.78.78,0,0,1,70.07,45.1Zm.08,8.46v-6.8a.12.12,0,0,1,.14-.14H71a.12.12,0,0,1,.14.14v6.8a.13.13,0,0,1-.14.14h-.72A.13.13,0,0,1,70.15,53.56Z" transform="translate(-9.6 69.04)"/>
        <path class="cls-13" d="M76.79,47.11a2.49,2.49,0,0,1,.47,1.63v4.82a.12.12,0,0,1-.14.14h-.71a.13.13,0,0,1-.14-.14V48.83a1.7,1.7,0,0,0-.3-1.07,1,1,0,0,0-.83-.37,1,1,0,0,0-.88.4A1.76,1.76,0,0,0,74,48.9v4.66a.13.13,0,0,1-.14.14h-.72a.13.13,0,0,1-.14-.14v-6.8a.12.12,0,0,1,.14-.14h.72a.12.12,0,0,1,.14.14v.44s0,0,0,0,0,0,0,0a1.54,1.54,0,0,1,.63-.53,2.08,2.08,0,0,1,.82-.17A1.57,1.57,0,0,1,76.79,47.11Z" transform="translate(-9.6 69.04)"/>
        <path class="cls-13" d="M80.39,45a2.15,2.15,0,0,0-.23,1.12v.43a.05.05,0,0,0,.06.06H81.3a.12.12,0,0,1,.14.14v.46a.13.13,0,0,1-.14.14H80.22s-.06,0-.06,0v6.15a.13.13,0,0,1-.14.14h-.7a.13.13,0,0,1-.14-.14V47.41a0,0,0,0,0-.05,0h-.56a.12.12,0,0,1-.14-.14v-.46c0-.1,0-.14.14-.14h.56s.05,0,.05-.06v-.45a2.75,2.75,0,0,1,.45-1.76,1.82,1.82,0,0,1,1.5-.55h.19a.12.12,0,0,1,.14.14v.58a.13.13,0,0,1-.14.14h-.17A.82.82,0,0,0,80.39,45Z" transform="translate(-9.6 69.04)"/>
        <path class="cls-13" d="M83.21,53.22a2.07,2.07,0,0,1-.6-1.55v-3a2.1,2.1,0,0,1,.6-1.55,2.42,2.42,0,0,1,3.21,0,2.1,2.1,0,0,1,.6,1.55v3a2.07,2.07,0,0,1-.6,1.55,2.17,2.17,0,0,1-1.61.59A2.14,2.14,0,0,1,83.21,53.22Zm2.47-.65a1.37,1.37,0,0,0,.35-1V48.72a1.38,1.38,0,0,0-.35-1,1.16,1.16,0,0,0-.87-.37,1.13,1.13,0,0,0-.87.37,1.42,1.42,0,0,0-.33,1V51.6a1.41,1.41,0,0,0,.33,1,1.12,1.12,0,0,0,.87.36A1.15,1.15,0,0,0,85.68,52.57Z" transform="translate(-9.6 69.04)"/>
        <path class="cls-13" d="M91.57,46.7a.14.14,0,0,1,.07.18l-.17.73c0,.08-.06.11-.17.08a1,1,0,0,0-.42-.08h-.16a1.05,1.05,0,0,0-.83.53,2.2,2.2,0,0,0-.32,1.21v4.2a.13.13,0,0,1-.14.14h-.72a.13.13,0,0,1-.14-.14v-6.8a.12.12,0,0,1,.14-.14h.72a.12.12,0,0,1,.14.14v.84s0,0,0,0l0,0A1.39,1.39,0,0,1,91,46.55,1.16,1.16,0,0,1,91.57,46.7Z" transform="translate(-9.6 69.04)"/>
        <path class="cls-13" d="M99.63,47.13a2.78,2.78,0,0,1,.47,1.71v4.72a.13.13,0,0,1-.14.14h-.7a.12.12,0,0,1-.14-.14V48.93a1.87,1.87,0,0,0-.3-1.13.93.93,0,0,0-.8-.41,1,1,0,0,0-.84.4,1.83,1.83,0,0,0-.3,1.11v4.66a.13.13,0,0,1-.14.14H96a.13.13,0,0,1-.14-.14V48.93a1.87,1.87,0,0,0-.3-1.13.91.91,0,0,0-.78-.41,1,1,0,0,0-.84.4,1.77,1.77,0,0,0-.32,1.11v4.66a.12.12,0,0,1-.14.14h-.7a.13.13,0,0,1-.14-.14v-6.8a.12.12,0,0,1,.14-.14h.7c.1,0,.14,0,.14.14v.43a.05.05,0,0,0,0,0s0,0,0,0a1.74,1.74,0,0,1,1.4-.68,1.59,1.59,0,0,1,.93.26,1.62,1.62,0,0,1,.6.73s0,0,0,0,0,0,0,0a1.66,1.66,0,0,1,.69-.74,1.89,1.89,0,0,1,.92-.24A1.52,1.52,0,0,1,99.63,47.13Z" transform="translate(-9.6 69.04)"/>
        <path class="cls-13" d="M105.37,47.14a2.38,2.38,0,0,1,.59,1.7v4.72a.12.12,0,0,1-.14.14h-.71a.13.13,0,0,1-.14-.14v-.42a.05.05,0,0,0,0,0s0,0,0,0a1.85,1.85,0,0,1-1.56.68,2.07,2.07,0,0,1-1.33-.44,1.85,1.85,0,0,1-.57-1.56,2.1,2.1,0,0,1,.69-1.74,2.77,2.77,0,0,1,1.8-.56h1s.06,0,.06,0v-.55a1.84,1.84,0,0,0-.32-1.12,1.09,1.09,0,0,0-1.59-.14,1.18,1.18,0,0,0-.36.72.13.13,0,0,1-.14.14l-.78,0a.14.14,0,0,1-.11,0,.12.12,0,0,1,0-.1,1.89,1.89,0,0,1,.67-1.33,2.18,2.18,0,0,1,1.49-.52A2,2,0,0,1,105.37,47.14Zm-.82,5.43a1.29,1.29,0,0,0,.42-1V50.37a.05.05,0,0,0-.06-.06h-1a1.5,1.5,0,0,0-1.06.36,1.34,1.34,0,0,0-.4,1.06,1.23,1.23,0,0,0,.3.91,1.08,1.08,0,0,0,.79.3A1.44,1.44,0,0,0,104.55,52.57Z" transform="translate(-9.6 69.04)"/>
        <path class="cls-13" d="M109.87,47.36H108.8a0,0,0,0,0,0,0V51.7a1.35,1.35,0,0,0,.22.89.86.86,0,0,0,.69.23h.14a.13.13,0,0,1,.14.14v.6a.13.13,0,0,1-.14.14h-.35a1.88,1.88,0,0,1-1.25-.36,1.69,1.69,0,0,1-.43-1.35V47.41s0,0-.06,0h-.54a.12.12,0,0,1-.14-.14v-.46c0-.1,0-.14.14-.14h.54a.05.05,0,0,0,.06-.06V45a.13.13,0,0,1,.14-.14h.7a.13.13,0,0,1,.14.14v1.57s0,.06,0,.06h1.07a.12.12,0,0,1,.14.14v.46A.13.13,0,0,1,109.87,47.36Z" transform="translate(-9.6 69.04)"/>
        <path class="cls-13" d="M111.29,45.1a.82.82,0,0,1,0-1.12.74.74,0,0,1,.57-.22.72.72,0,0,1,.55.22.82.82,0,0,1,0,1.12.73.73,0,0,1-.55.23A.75.75,0,0,1,111.29,45.1Zm.08,8.46v-6.8c0-.1,0-.14.14-.14h.71a.12.12,0,0,1,.14.14v6.8a.13.13,0,0,1-.14.14h-.71A.12.12,0,0,1,111.37,53.56Z" transform="translate(-9.6 69.04)"/>
        <path class="cls-13" d="M115.4,53.57l-1.74-6.8v-.06q0-.09.12-.09h.82a.14.14,0,0,1,.15.12l1.2,5.31s0,0,0,0,0,0,0,0l1.19-5.31a.14.14,0,0,1,.15-.12h.82a.12.12,0,0,1,.1,0,.11.11,0,0,1,0,.11l-1.72,6.79c0,.09-.06.13-.16.13h-.84A.14.14,0,0,1,115.4,53.57Z" transform="translate(-9.6 69.04)"/>
        <path class="cls-13" d="M119.82,53.22a2.07,2.07,0,0,1-.6-1.55v-3a2.1,2.1,0,0,1,.6-1.55,2.42,2.42,0,0,1,3.21,0,2.1,2.1,0,0,1,.6,1.55v3a2.07,2.07,0,0,1-.6,1.55,2.17,2.17,0,0,1-1.61.59A2.14,2.14,0,0,1,119.82,53.22Zm2.47-.65a1.37,1.37,0,0,0,.35-1V48.72a1.38,1.38,0,0,0-.35-1,1.16,1.16,0,0,0-.87-.37,1.13,1.13,0,0,0-.87.37,1.42,1.42,0,0,0-.34,1V51.6a1.41,1.41,0,0,0,.34,1,1.12,1.12,0,0,0,.87.36A1.15,1.15,0,0,0,122.29,52.57Z" transform="translate(-9.6 69.04)"/>
        <path class="cls-13" d="M125.49,53.27a1.64,1.64,0,0,1-.58-1.32v-.1c0-.09,0-.14.13-.14h.68a.13.13,0,0,1,.14.14v.09a1,1,0,0,0,.33.75,1.18,1.18,0,0,0,.86.31,1.09,1.09,0,0,0,.81-.31,1.06,1.06,0,0,0,.31-.78,1,1,0,0,0-.2-.61,1.57,1.57,0,0,0-.46-.39c-.17-.09-.43-.21-.77-.36a6.32,6.32,0,0,1-.9-.44,1.93,1.93,0,0,1-.62-.62,1.82,1.82,0,0,1-.26-1,1.85,1.85,0,0,1,.55-1.42,2.44,2.44,0,0,1,3,0,1.85,1.85,0,0,1,.56,1.41v0a.12.12,0,0,1-.14.14h-.65a.12.12,0,0,1-.14-.14v-.08a1,1,0,0,0-.31-.78,1.12,1.12,0,0,0-.82-.31,1.06,1.06,0,0,0-.81.31,1.09,1.09,0,0,0-.3.78.92.92,0,0,0,.18.57,1.82,1.82,0,0,0,.45.38l.74.35a8.27,8.27,0,0,1,.95.48,2.16,2.16,0,0,1,.65.63,1.7,1.7,0,0,1,.28,1,1.77,1.77,0,0,1-.57,1.38,2.23,2.23,0,0,1-1.56.52A2.28,2.28,0,0,1,125.49,53.27Z" transform="translate(-9.6 69.04)"/>
        <path class="cls-13" d="M41.85,66.27A1.64,1.64,0,0,1,41.27,65v-.1a.13.13,0,0,1,.14-.14h.67a.13.13,0,0,1,.14.14v.09a1,1,0,0,0,.33.75,1.2,1.2,0,0,0,.86.31,1.06,1.06,0,0,0,.81-.31,1,1,0,0,0,.31-.78,1,1,0,0,0-.19-.61,1.87,1.87,0,0,0-.46-.39q-.26-.13-.78-.36a7.61,7.61,0,0,1-.9-.44,2,2,0,0,1-.62-.62,1.82,1.82,0,0,1-.25-1,1.85,1.85,0,0,1,.55-1.42,2.11,2.11,0,0,1,1.49-.51,2.08,2.08,0,0,1,1.51.53,1.85,1.85,0,0,1,.56,1.41v0a.12.12,0,0,1-.14.14h-.64c-.1,0-.14,0-.14-.14v-.08a1,1,0,0,0-.32-.78,1.1,1.1,0,0,0-.82-.31,1.05,1.05,0,0,0-.8.31,1.09,1.09,0,0,0-.3.78.92.92,0,0,0,.18.57,1.52,1.52,0,0,0,.45.38c.17.09.42.21.74.35a8,8,0,0,1,.94.48,2.19,2.19,0,0,1,.66.63,1.94,1.94,0,0,1-.3,2.39,2.2,2.2,0,0,1-1.55.52A2.31,2.31,0,0,1,41.85,66.27Z" transform="translate(-9.6 69.04)"/>
        <path class="cls-13" d="M47.23,66.22a2.07,2.07,0,0,1-.6-1.55v-3a2.1,2.1,0,0,1,.6-1.55,2.42,2.42,0,0,1,3.21,0,2.1,2.1,0,0,1,.6,1.55v3a2.07,2.07,0,0,1-.6,1.55,2.17,2.17,0,0,1-1.61.59A2.14,2.14,0,0,1,47.23,66.22Zm2.47-.65a1.37,1.37,0,0,0,.35-1V61.72a1.38,1.38,0,0,0-.35-1,1.21,1.21,0,0,0-1.74,0,1.42,1.42,0,0,0-.33,1V64.6a1.41,1.41,0,0,0,.33,1,1.23,1.23,0,0,0,1.74,0Z" transform="translate(-9.6 69.04)"/>
        <path class="cls-13" d="M56.42,60.08A2.22,2.22,0,0,1,57,61.65v3a2.21,2.21,0,0,1-.53,1.55,1.83,1.83,0,0,1-1.43.59,2,2,0,0,1-.72-.14,1.71,1.71,0,0,1-.62-.45s0,0,0,0a.05.05,0,0,0,0,0v.31a.13.13,0,0,1-.14.14h-.71a.12.12,0,0,1-.14-.14V57a.12.12,0,0,1,.14-.14h.71a.13.13,0,0,1,.14.14v3a.05.05,0,0,0,0,0s0,0,.05,0a1.65,1.65,0,0,1,.61-.43A1.79,1.79,0,0,1,55,59.5,1.85,1.85,0,0,1,56.42,60.08Zm-.79.66a1.14,1.14,0,0,0-.88-.37,1.1,1.1,0,0,0-.84.37,1.46,1.46,0,0,0-.32,1v2.89a1.41,1.41,0,0,0,.32,1,1.07,1.07,0,0,0,.84.37,1.11,1.11,0,0,0,.88-.37,1.33,1.33,0,0,0,.34-1V61.72A1.38,1.38,0,0,0,55.63,60.74Z" transform="translate(-9.6 69.04)"/>
        <path class="cls-13" d="M61.51,59.7a.14.14,0,0,1,.07.18l-.16.73c0,.08-.07.11-.17.08a1,1,0,0,0-.42-.08h-.17a1.05,1.05,0,0,0-.83.53,2.2,2.2,0,0,0-.32,1.21v4.2a.13.13,0,0,1-.14.14h-.71a.12.12,0,0,1-.14-.14v-6.8c0-.1,0-.14.14-.14h.71a.12.12,0,0,1,.14.14v.84s0,0,0,0,0,0,0,0a1.39,1.39,0,0,1,1.33-1.06A1.14,1.14,0,0,1,61.51,59.7Z" transform="translate(-9.6 69.04)"/>
        <path class="cls-13" d="M66.64,63.54H63.45s-.06,0-.06.05v1a1.37,1.37,0,0,0,.33,1,1.08,1.08,0,0,0,.86.37,1.12,1.12,0,0,0,.76-.27,1.32,1.32,0,0,0,.42-.71.14.14,0,0,1,.15-.12l.7,0a.13.13,0,0,1,.1,0s0,.06,0,.11a2.06,2.06,0,0,1-.68,1.31,2.21,2.21,0,0,1-1.48.48A2.14,2.14,0,0,1,63,66.22a2.06,2.06,0,0,1-.59-1.55v-3A2.08,2.08,0,0,1,63,60.1a2.42,2.42,0,0,1,3.19,0,2.09,2.09,0,0,1,.6,1.55V63.4A.13.13,0,0,1,66.64,63.54Zm-2.92-2.8a1.42,1.42,0,0,0-.33,1v.93a.05.05,0,0,0,.06.06h2.29a.05.05,0,0,0,.06-.06v-.93a1.38,1.38,0,0,0-.34-1,1.15,1.15,0,0,0-.88-.37A1.11,1.11,0,0,0,63.72,60.74Z" transform="translate(-9.6 69.04)"/>
        <path class="cls-13" d="M71,66.56V57a.13.13,0,0,1,.14-.14h.72A.13.13,0,0,1,72,57v9.52a.13.13,0,0,1-.14.14H71.1A.13.13,0,0,1,71,66.56Z" transform="translate(-9.6 69.04)"/>
        <path class="cls-13" d="M77.22,60.14a2.42,2.42,0,0,1,.59,1.7v4.72a.13.13,0,0,1-.14.14H77a.13.13,0,0,1-.14-.14v-.42s0,0,0,0l-.05,0a1.83,1.83,0,0,1-1.55.68,2.1,2.1,0,0,1-1.34-.44,1.88,1.88,0,0,1-.56-1.56A2.13,2.13,0,0,1,74,63.07a2.8,2.8,0,0,1,1.81-.56h1s0,0,0,0v-.55a1.77,1.77,0,0,0-.32-1.12,1,1,0,0,0-.87-.42,1.07,1.07,0,0,0-.72.28,1.12,1.12,0,0,0-.35.72.13.13,0,0,1-.14.14l-.79,0a.12.12,0,0,1-.1,0,.09.09,0,0,1,0-.1A1.85,1.85,0,0,1,74.17,60a2.16,2.16,0,0,1,1.48-.52A2,2,0,0,1,77.22,60.14Zm-.83,5.43a1.26,1.26,0,0,0,.42-1V63.37s0-.06,0-.06h-1a1.51,1.51,0,0,0-1.06.36,1.37,1.37,0,0,0-.39,1.06,1.23,1.23,0,0,0,.3.91,1.06,1.06,0,0,0,.79.3A1.42,1.42,0,0,0,76.39,65.57Z" transform="translate(-9.6 69.04)"/>
        <path class="cls-13" d="M85.16,59.7a.16.16,0,0,1,.07.18l-.17.73c0,.08-.07.11-.17.08a1,1,0,0,0-.42-.08H84.3a1,1,0,0,0-.82.53,2.12,2.12,0,0,0-.32,1.21v4.2a.13.13,0,0,1-.14.14H82.3a.13.13,0,0,1-.14-.14v-6.8a.12.12,0,0,1,.14-.14H83a.12.12,0,0,1,.14.14v.84s0,0,0,0l0,0a1.39,1.39,0,0,1,1.33-1.06A1.16,1.16,0,0,1,85.16,59.7Z" transform="translate(-9.6 69.04)"/>
        <path class="cls-13" d="M90.28,63.54H87.09s-.06,0-.06.05v1a1.37,1.37,0,0,0,.33,1,1.09,1.09,0,0,0,.86.37,1.15,1.15,0,0,0,.77-.27A1.25,1.25,0,0,0,89.4,65a.16.16,0,0,1,.15-.12l.7,0a.13.13,0,0,1,.1,0,.11.11,0,0,1,0,.11,2,2,0,0,1-.68,1.31,2.21,2.21,0,0,1-1.48.48,2.1,2.1,0,0,1-1.58-.59,2.07,2.07,0,0,1-.6-1.55v-3a2.09,2.09,0,0,1,.6-1.55,2.11,2.11,0,0,1,1.58-.6,2.17,2.17,0,0,1,1.61.6,2.12,2.12,0,0,1,.59,1.55V63.4A.12.12,0,0,1,90.28,63.54Zm-2.92-2.8a1.42,1.42,0,0,0-.33,1v.93a.05.05,0,0,0,.06.06h2.3s0,0,0-.06v-.93a1.42,1.42,0,0,0-.33-1,1.18,1.18,0,0,0-.89-.37A1.13,1.13,0,0,0,87.36,60.74Z" transform="translate(-9.6 69.04)"/>
        <path class="cls-13" d="M95.25,56.9H96a.13.13,0,0,1,.14.14v9.52a.13.13,0,0,1-.14.14h-.72a.13.13,0,0,1-.14-.14v-.31s0,0,0,0,0,0,0,0a1.7,1.7,0,0,1-1.34.59,1.83,1.83,0,0,1-1.43-.59,2.26,2.26,0,0,1-.53-1.55v-3a2.26,2.26,0,0,1,.53-1.57,1.86,1.86,0,0,1,1.43-.58,1.69,1.69,0,0,1,1.34.61s0,0,0,0,0,0,0,0V57A.13.13,0,0,1,95.25,56.9Zm-.47,8.67a1.37,1.37,0,0,0,.33-1V61.72a1.42,1.42,0,0,0-.33-1,1.1,1.1,0,0,0-.84-.37,1.17,1.17,0,0,0-.88.37,1.38,1.38,0,0,0-.34,1v2.89a1.33,1.33,0,0,0,.34,1,1.13,1.13,0,0,0,.88.37A1.07,1.07,0,0,0,94.78,65.57Z" transform="translate(-9.6 69.04)"/>
        <path class="cls-13" d="M100.65,58.1a.82.82,0,0,1,0-1.12.82.82,0,0,1,1.12,0,.82.82,0,0,1,0,1.12.8.8,0,0,1-1.12,0Zm.08,8.46v-6.8c0-.1,0-.14.14-.14h.71a.12.12,0,0,1,.14.14v6.8a.13.13,0,0,1-.14.14h-.71A.12.12,0,0,1,100.73,66.56Z" transform="translate(-9.6 69.04)"/>
        <path class="cls-13" d="M107.37,60.11a2.55,2.55,0,0,1,.47,1.63v4.82a.13.13,0,0,1-.14.14H107a.13.13,0,0,1-.14-.14V61.83a1.7,1.7,0,0,0-.3-1.07,1,1,0,0,0-.83-.37,1,1,0,0,0-.87.4,1.77,1.77,0,0,0-.32,1.11v4.66a.13.13,0,0,1-.14.14h-.71a.12.12,0,0,1-.14-.14v-6.8c0-.1,0-.14.14-.14h.71a.12.12,0,0,1,.14.14v.44a.05.05,0,0,0,0,0s0,0,0,0a1.56,1.56,0,0,1,.64-.53,2,2,0,0,1,.82-.17A1.57,1.57,0,0,1,107.37,60.11Z" transform="translate(-9.6 69.04)"/>
        <path class="cls-13" d="M111.81,60.36h-1.06s-.06,0-.06,0V64.7a1.34,1.34,0,0,0,.23.89.85.85,0,0,0,.68.23h.14a.12.12,0,0,1,.14.14v.6a.12.12,0,0,1-.14.14h-.35a1.9,1.9,0,0,1-1.25-.36,1.73,1.73,0,0,1-.43-1.35V60.41s0,0,0,0h-.55a.13.13,0,0,1-.14-.14v-.46a.12.12,0,0,1,.14-.14h.55s0,0,0-.06V58a.13.13,0,0,1,.14-.14h.7a.12.12,0,0,1,.14.14v1.57a.05.05,0,0,0,.06.06h1.06c.1,0,.14,0,.14.14v.46A.12.12,0,0,1,111.81,60.36Z" transform="translate(-9.6 69.04)"/>
        <path class="cls-13" d="M117.29,63.54H114.1s-.06,0-.06.05v1a1.37,1.37,0,0,0,.33,1,1.09,1.09,0,0,0,.86.37,1.12,1.12,0,0,0,.76-.27,1.32,1.32,0,0,0,.42-.71.15.15,0,0,1,.15-.12l.7,0a.13.13,0,0,1,.1,0,.11.11,0,0,1,0,.11,2.06,2.06,0,0,1-.68,1.31,2.21,2.21,0,0,1-1.48.48,2.14,2.14,0,0,1-1.59-.59,2.06,2.06,0,0,1-.59-1.55v-3a2.08,2.08,0,0,1,.59-1.55,2.42,2.42,0,0,1,3.19,0,2.09,2.09,0,0,1,.6,1.55V63.4A.13.13,0,0,1,117.29,63.54Zm-2.92-2.8a1.42,1.42,0,0,0-.33,1v.93a.05.05,0,0,0,.06.06h2.29a.05.05,0,0,0,.06-.06v-.93a1.38,1.38,0,0,0-.34-1,1.15,1.15,0,0,0-.88-.37A1.13,1.13,0,0,0,114.37,60.74Z" transform="translate(-9.6 69.04)"/>
        <path class="cls-13" d="M118.81,66.56V57a.13.13,0,0,1,.14-.14h.72a.13.13,0,0,1,.14.14v9.52a.13.13,0,0,1-.14.14H119A.13.13,0,0,1,118.81,66.56Z" transform="translate(-9.6 69.04)"/>
        <path class="cls-13" d="M121.47,58.1a.78.78,0,0,1,.56-1.34.75.75,0,0,1,.56.22.85.85,0,0,1,0,1.12.75.75,0,0,1-.56.23A.74.74,0,0,1,121.47,58.1Zm.07,8.46v-6.8a.12.12,0,0,1,.14-.14h.72a.12.12,0,0,1,.14.14v6.8a.13.13,0,0,1-.14.14h-.72A.13.13,0,0,1,121.54,66.56Z" transform="translate(-9.6 69.04)"/>
        <path class="cls-13" d="M127.7,59.62h.72a.12.12,0,0,1,.14.14v6.8a3.3,3.3,0,0,1-.69,2.27,2.81,2.81,0,0,1-2.32.71.13.13,0,0,1-.14-.15v-.6c0-.1,0-.14.14-.14a2,2,0,0,0,1.57-.51,2.63,2.63,0,0,0,.44-1.66v-.42s0,0,0,0,0,0-.05,0a1.6,1.6,0,0,1-.6.53,1.84,1.84,0,0,1-.8.18,1.73,1.73,0,0,1-1.39-.59,2.28,2.28,0,0,1-.51-1.55V61.65a2.3,2.3,0,0,1,.51-1.57,1.79,1.79,0,0,1,1.39-.58,1.84,1.84,0,0,1,.8.18,1.58,1.58,0,0,1,.6.52s0,0,.05,0,0,0,0-.05v-.43A.12.12,0,0,1,127.7,59.62Zm-.46,5.88a1.41,1.41,0,0,0,.32-1V61.72a1.46,1.46,0,0,0-.32-1,1.12,1.12,0,0,0-.85-.37,1.13,1.13,0,0,0-.87.37,1.42,1.42,0,0,0-.34,1v2.82a1.37,1.37,0,0,0,.34,1,1.1,1.1,0,0,0,.87.37A1.09,1.09,0,0,0,127.24,65.5Z" transform="translate(-9.6 69.04)"/>
        <path class="cls-13" d="M134.21,63.54H131a0,0,0,0,0-.05.05v1a1.37,1.37,0,0,0,.33,1,1.06,1.06,0,0,0,.86.37,1.14,1.14,0,0,0,.76-.27,1.25,1.25,0,0,0,.41-.71.16.16,0,0,1,.16-.12l.7,0a.11.11,0,0,1,.09,0,.11.11,0,0,1,0,.11,2,2,0,0,1-.68,1.31,2.19,2.19,0,0,1-1.47.48,2.11,2.11,0,0,1-1.59-.59,2.07,2.07,0,0,1-.6-1.55v-3a2.09,2.09,0,0,1,.6-1.55,2.12,2.12,0,0,1,1.59-.6,2.16,2.16,0,0,1,1.6.6,2.08,2.08,0,0,1,.59,1.55V63.4A.12.12,0,0,1,134.21,63.54Zm-2.91-2.8a1.42,1.42,0,0,0-.33,1v.93s0,.06.05.06h2.3s.05,0,.05-.06v-.93a1.42,1.42,0,0,0-.33-1,1.17,1.17,0,0,0-.88-.37A1.1,1.1,0,0,0,131.3,60.74Z" transform="translate(-9.6 69.04)"/>
        <path class="cls-13" d="M139.67,60.11a2.55,2.55,0,0,1,.47,1.63v4.82a.13.13,0,0,1-.14.14h-.72a.13.13,0,0,1-.14-.14V61.83a1.7,1.7,0,0,0-.3-1.07,1,1,0,0,0-.83-.37,1,1,0,0,0-.88.4,1.76,1.76,0,0,0-.31,1.11v4.66a.13.13,0,0,1-.14.14H136a.13.13,0,0,1-.14-.14v-6.8a.12.12,0,0,1,.14-.14h.72a.12.12,0,0,1,.14.14v.44a.05.05,0,0,0,0,0s0,0,0,0a1.6,1.6,0,0,1,.63-.53,2.08,2.08,0,0,1,.82-.17A1.6,1.6,0,0,1,139.67,60.11Z" transform="translate(-9.6 69.04)"/>
        <path class="cls-13" d="M144.11,60.36h-1.06s-.06,0-.06,0V64.7a1.34,1.34,0,0,0,.23.89.84.84,0,0,0,.68.23H144a.12.12,0,0,1,.14.14v.6a.12.12,0,0,1-.14.14h-.35a1.88,1.88,0,0,1-1.25-.36A1.69,1.69,0,0,1,142,65V60.41a0,0,0,0,0,0,0h-.55a.13.13,0,0,1-.14-.14v-.46a.12.12,0,0,1,.14-.14H142s0,0,0-.06V58a.13.13,0,0,1,.14-.14h.7A.12.12,0,0,1,143,58v1.57a.05.05,0,0,0,.06.06h1.06a.12.12,0,0,1,.14.14v.46A.13.13,0,0,1,144.11,60.36Z" transform="translate(-9.6 69.04)"/>
        <path class="cls-13" d="M149.59,63.54h-3.2a0,0,0,0,0,0,.05v1a1.37,1.37,0,0,0,.33,1,1.08,1.08,0,0,0,.86.37,1.12,1.12,0,0,0,.76-.27,1.25,1.25,0,0,0,.41-.71.16.16,0,0,1,.16-.12l.7,0a.14.14,0,0,1,.1,0,.13.13,0,0,1,0,.11,2,2,0,0,1-.68,1.31,2.19,2.19,0,0,1-1.47.48,2.11,2.11,0,0,1-1.59-.59,2.07,2.07,0,0,1-.6-1.55v-3a2.09,2.09,0,0,1,.6-1.55,2.12,2.12,0,0,1,1.59-.6,2.16,2.16,0,0,1,1.6.6,2.09,2.09,0,0,1,.6,1.55V63.4A.13.13,0,0,1,149.59,63.54Zm-2.92-2.8a1.42,1.42,0,0,0-.33,1v.93s0,.06,0,.06h2.3s.05,0,.05-.06v-.93a1.42,1.42,0,0,0-.33-1,1.15,1.15,0,0,0-.88-.37A1.11,1.11,0,0,0,146.67,60.74Z" transform="translate(-9.6 69.04)"/>
        <path class="cls-13" d="M151,66.45a.76.76,0,0,1-.22-.56.75.75,0,0,1,.22-.57.77.77,0,0,1,.56-.22.79.79,0,0,1,.56.22.76.76,0,0,1,.23.57.77.77,0,0,1-.23.56.75.75,0,0,1-.56.22A.73.73,0,0,1,151,66.45Z" transform="translate(-9.6 69.04)"/>
      </g>
    </g>
  </g>
</svg>
