<?xml version="1.0" encoding="utf-8"?>
<!-- Generator: Adobe Illustrator 22.1.0, SVG Export Plug-In . SVG Version: 6.00 Build 0)  -->
<svg version="1.1" id="Icons" xmlns="http://www.w3.org/2000/svg" xmlns:xlink="http://www.w3.org/1999/xlink" x="0px" y="0px"
	 viewBox="0 0 107.8 107.8" style="enable-background:new 0 0 107.8 107.8;" xml:space="preserve">
<path fill="white" d="M100.4,43.3c-0.1-0.2-0.2-0.3-0.3-0.5c-7.7-12-21.1-20-36.4-20c-0.4,0-0.8,0-1.2,0c-0.1,0-0.2,0-0.3,0c-0.2,0-0.3,0-0.5,0
	c-8.8,0.4-17,3.4-23.7,8.4C17.9,34.1,2.5,50.7,1,70.9C1,71,1,71,1,71.1c0,0,0,0,0,0c-0.1,1-0.1,1.9-0.1,2.9c0,6,4.9,11,11,11h22.4
	h28.6h29c8.3,0,15.1-6.8,15.1-15.1V66C106.9,57.7,104.5,49.9,100.4,43.3z M5.9,74c0-0.1,0-0.3,0-0.4h1.6c5,0,9-4,9.2-8.9
	c0-1.3-0.9-2.5-2.2-2.7c-1.6-0.2-2.9,1-2.8,2.5c0,2.3-2,4.1-4.3,4.1h0c-0.5,0-1-0.5-0.9-1C8.7,54.2,18,43,30.6,38.3
	c-1.6,1.9-3,3.9-4.3,6.1c-0.1,0.2-0.2,0.3-0.3,0.5c-1.2,2.2-2.3,4.5-3.2,7c-0.3,0.8-1.4,0.8-1.7,0C21.1,51.4,21,51,21,50.5
	c0-1.3-1-2.4-2.3-2.5c-1.5-0.1-2.7,1-2.7,2.5c0,3.6,2,6.7,5.1,8.2c-0.1,0.5-0.2,1-0.2,1.6c0,0,0,0.1,0,0.1c-0.2,1.8-0.4,3.7-0.4,5.6
	v5.2c0,3.3,1.2,6.4,3.2,8.8H11.8C8.6,80,5.9,77.3,5.9,74z M101.9,69.9c0,5.6-4.5,10.1-10.1,10.1h-4c-0.7,0-1.3-0.6-1.3-1.3v-3
	c6.3-1.2,11-6.7,11-13.3c0-4.9-4.1-8.9-8.9-8.9h-2.5c-1.3,0-2.5,0.9-2.6,2.2c-0.1,1.5,1,2.8,2.5,2.8h2.8c2.1,0,3.8,1.7,3.8,3.8
	c0,4-2.8,7.4-6.6,8.3c-1.2-3.1-4.2-5.4-7.7-5.4H74c-2.3,0-4.1-1.9-4.1-4.1l0-3.1c0-1.3-0.9-2.5-2.2-2.6c-1.5-0.1-2.8,1-2.8,2.5v3.3
	c0,5.1,4.1,9.1,9.1,9.1h4.2c1.8,0,3.3,1.5,3.3,3.3v5.5c0,0.5-0.4,0.9-0.9,0.9H62.8H44.9c-0.3-5.2-4.7-9.4-10-9.4l-1.5,0
	c-1.3,0-2.5,0.9-2.6,2.2c-0.1,1.5,1,2.8,2.5,2.8H35c2.1,0,3.9,1.3,4.6,3.1c0.3,0.6-0.2,1.3-0.9,1.3h-4.4c-4.9,0-8.8-3.9-8.8-8.8V66
	c0-0.5,0-1,0-1.5c0-0.7,0.6-1.2,1.3-1.2H42c3.9,0,7.1,3.2,7.1,7.1l0,1.7c0,1.3,0.9,2.5,2.2,2.6c1.5,0.1,2.8-1,2.8-2.5v-1.8
	c0-4.1-2-7.7-5.1-9.9c0.6-3.1,3.4-5.5,6.7-5.5l1.7,0c1.3,0,2.5-0.9,2.6-2.2c0.1-1.5-1-2.8-2.5-2.8h-1.8c-5.4,0-9.9,3.6-11.3,8.5
	c-0.7-0.1-1.5-0.2-2.3-0.2l-14.6,0c-0.6,0-1-0.5-0.9-1.1c0.7-3.1,1.9-6.1,3.4-8.9H41c5.1,0,9.3-4.1,9.4-9.1c0-1.3-0.9-2.6-2.2-2.7
	c-1.5-0.2-2.8,1.1-2.8,2.6c0.1,2.4-2,4.3-4.4,4.3l-5.4,0c-1.5,0-1.9-0.9-1.5-1.4c6-7.3,14.6-12.4,24.4-13.7c0.7-0.1,1.3,0.4,1.3,1.1
	v6.6c0,6.7,5.4,12.1,12.1,12c0.5,0,0.9,0.4,0.9,0.9V54c0,1.3,0.9,2.5,2.2,2.6c1.5,0.1,2.8-1,2.8-2.5l0-5.3c0-3.2-2.6-6-5.8-6
	c-3.9,0.1-7.2-3.1-7.2-7l0-7.1c0-0.5,0.4-0.9,0.9-0.9c10.5,0.5,19.9,5.3,26.5,12.6c0.5,0.5,0.1,1.3-0.6,1.3h-3.7
	c-2,0-3.4-1.6-3.4-3.6c0-1.4-1.2-2.6-2.7-2.4c-1.4,0.1-2.3,1.5-2.3,2.8c0.2,4.6,3.9,8.2,8.5,8.2h8.8c3.3,5.6,5.2,12.2,5.2,19.2V69.9
	z"/>
</svg>
