<?xml version="1.0" encoding="utf-8"?>
<!-- Generator: Adobe Illustrator 22.1.0, SVG Export Plug-In . SVG Version: 6.00 Build 0)  -->
<svg version="1.1" id="Icons" xmlns="http://www.w3.org/2000/svg" xmlns:xlink="http://www.w3.org/1999/xlink" x="0px" y="0px"
	 viewBox="0 0 99.8 99.8" style="enable-background:new 0 0 99.8 99.8;" xml:space="preserve">
<g>
	<rect fill="white"  x="41.8" y="90.2" width="16.2" height="5"/>
	<path fill="white" d="M49.6,98.8h0.5c1.2,0,2.2-1,2.2-2.2h-5C47.4,97.8,48.4,98.8,49.6,98.8z"/>
	<path fill="white" d="M78.1,29.2C78.1,13.6,65.4,1,49.9,1S21.7,13.6,21.7,29.2c0,7.7,3.2,15.1,8.7,20.4c0,0.5,0,1.1,0.3,1.5c1,2.3,1.9,4,2.7,5.5
		c1.9,3.5,3,5.5,3,11.2c0,2.9-0.2,5.9-0.7,8.8c-0.3,2,0,4.1,1,6l0.7,1.4h4.4v4.8H58v-4.8h4.4l0.7-1.4c1-1.9,1.3-3.9,1-6
		c-0.4-2.9-0.7-5.9-0.7-8.8c0-5.7,1.1-7.6,3-11.2c0.8-1.5,1.7-3.2,2.7-5.5c0.2-0.5,0.3-1,0.3-1.5C74.9,44.2,78.1,36.9,78.1,29.2z
		 M26.7,29.2C26.7,16.4,37.1,6,49.9,6c12.8,0,23.2,10.4,23.2,23.2c0,6.6-2.8,12.9-7.7,17.3h-31C29.5,42.1,26.7,35.8,26.7,29.2z
		 M59.1,78.9H40.7c-0.1-0.5-0.1-1.1,0-1.6c0.3-2.3,0.6-4.7,0.7-7h17.2c0.1,2.3,0.3,4.7,0.7,7C59.2,77.8,59.2,78.3,59.1,78.9z
		 M62,54.2c-1.7,3.2-3.2,5.8-3.5,11H41.3c-0.3-5.2-1.8-7.8-3.5-11c-0.5-0.8-0.9-1.7-1.4-2.8h27.1C62.9,52.5,62.4,53.4,62,54.2z"/>
</g>
</svg>
