<?xml version="1.0" encoding="utf-8"?>
<!-- Generator: Adobe Illustrator 22.1.0, SVG Export Plug-In . SVG Version: 6.00 Build 0)  -->
<svg version="1.1" id="Icons" xmlns="http://www.w3.org/2000/svg" xmlns:xlink="http://www.w3.org/1999/xlink" x="0px" y="0px"
	 viewBox="0 0 90.2 90.2" style="enable-background:new 0 0 90.2 90.2;" xml:space="preserve">
<g>
	<path fill="white" d="M86.5,51.7c0-11.7-6.5-22.5-16.7-28.1v-7c0-1.4-1.1-2.5-2.5-2.5H41.6c-1.4,0-2.5,1.1-2.5,2.5v7C29,29.2,22.4,40,22.4,51.7
		c0,11.7,6.5,22.5,16.7,28.1v7c0,1.4,1.1,2.5,2.5,2.5h25.7c1.4,0,2.5-1.1,2.5-2.5v-7C80,74.2,86.5,63.4,86.5,51.7z M27.4,51.7
		c0-8.9,4.5-17.3,11.7-22.3v9.1c-0.1,0.1-0.2,0.3-0.3,0.4c-0.2,0.2-0.3,0.4-0.5,0.7c-0.2,0.3-0.4,0.6-0.6,0.8
		c-0.2,0.2-0.3,0.5-0.5,0.7c-0.2,0.3-0.3,0.6-0.5,0.9c-0.1,0.2-0.3,0.5-0.4,0.7c-0.2,0.3-0.3,0.6-0.4,0.9c-0.1,0.2-0.2,0.5-0.3,0.7
		c-0.1,0.3-0.2,0.7-0.3,1c-0.1,0.2-0.2,0.5-0.2,0.7c-0.1,0.4-0.2,0.7-0.3,1.1c-0.1,0.2-0.1,0.5-0.2,0.7c-0.1,0.4-0.1,0.8-0.2,1.2
		c0,0.2-0.1,0.4-0.1,0.6c-0.1,0.6-0.1,1.2-0.1,1.9s0,1.2,0.1,1.9c0,0.2,0.1,0.4,0.1,0.6c0.1,0.4,0.1,0.8,0.2,1.2
		c0,0.2,0.1,0.5,0.2,0.7c0.1,0.4,0.2,0.7,0.3,1.1c0.1,0.3,0.2,0.5,0.2,0.7c0.1,0.3,0.2,0.7,0.3,1c0.1,0.3,0.2,0.5,0.3,0.7
		c0.1,0.3,0.3,0.6,0.4,0.9c0.1,0.2,0.3,0.5,0.4,0.7c0.2,0.3,0.3,0.6,0.5,0.9c0.1,0.2,0.3,0.5,0.5,0.7c0.2,0.3,0.4,0.6,0.6,0.8
		c0.2,0.2,0.3,0.4,0.5,0.7c0.1,0.1,0.2,0.3,0.3,0.4V74C31.9,69,27.4,60.6,27.4,51.7z M64.8,84.3H44.1v-6V63.9c0-0.6-0.2-1.3-0.7-1.7
		c-2.7-2.8-4.2-6.5-4.2-10.4s1.5-7.6,4.2-10.4c0.4-0.5,0.7-1.1,0.7-1.7V25.1v-6h20.7v6v14.4c0,0.6,0.2,1.3,0.7,1.7
		c2.7,2.8,4.2,6.5,4.2,10.4s-1.5,7.6-4.2,10.4c-0.4,0.5-0.7,1.1-0.7,1.7v14.4V84.3z M69.8,74v-9.1c0.1-0.1,0.2-0.3,0.3-0.4
		c0.2-0.2,0.3-0.4,0.5-0.7c0.2-0.3,0.4-0.6,0.6-0.8c0.2-0.2,0.3-0.5,0.5-0.7c0.2-0.3,0.3-0.6,0.5-0.9c0.1-0.2,0.3-0.5,0.4-0.7
		c0.2-0.3,0.3-0.6,0.4-0.9c0.1-0.2,0.2-0.5,0.3-0.7c0.1-0.3,0.2-0.7,0.3-1c0.1-0.2,0.2-0.5,0.2-0.7c0.1-0.4,0.2-0.7,0.3-1.1
		c0.1-0.2,0.1-0.5,0.2-0.7c0.1-0.4,0.1-0.8,0.2-1.2c0-0.2,0.1-0.4,0.1-0.6c0.1-0.6,0.1-1.2,0.1-1.9s0-1.2-0.1-1.9
		c0-0.2-0.1-0.4-0.1-0.6c-0.1-0.4-0.1-0.8-0.2-1.2c0-0.2-0.1-0.5-0.2-0.7c-0.1-0.4-0.2-0.7-0.3-1.1c-0.1-0.3-0.2-0.5-0.2-0.7
		c-0.1-0.3-0.2-0.7-0.3-1c-0.1-0.3-0.2-0.5-0.3-0.7c-0.1-0.3-0.3-0.6-0.4-0.9c-0.1-0.2-0.3-0.5-0.4-0.7c-0.2-0.3-0.3-0.6-0.5-0.9
		c-0.1-0.2-0.3-0.5-0.5-0.7c-0.2-0.3-0.4-0.6-0.6-0.8c-0.2-0.2-0.3-0.4-0.5-0.7c-0.1-0.1-0.2-0.3-0.3-0.4v-9.1
		c7.2,5,11.7,13.4,11.7,22.3S77,69,69.8,74z"/>
	<polygon fill="white"  points="52,27.6 57,27.6 54.5,23.3 	"/>
	<path fill="white" d="M57,3.4c0-1.4-1.1-2.5-2.5-2.5c-28,0-50.8,22.8-50.8,50.8c0,1.4,1.1,2.5,2.5,2.5s2.5-1.1,2.5-2.5
		c0-25.3,20.6-45.8,45.8-45.8C55.9,5.9,57,4.8,57,3.4z"/>
</g>
</svg>
