<?xml version="1.0" encoding="utf-8"?>
<!-- Generator: Adobe Illustrator 22.1.0, SVG Export Plug-In . SVG Version: 6.00 Build 0)  -->
<svg version="1.1" id="Icons" xmlns="http://www.w3.org/2000/svg" xmlns:xlink="http://www.w3.org/1999/xlink" x="0px" y="0px"
	 viewBox="0 0 92.9 92.9" style="enable-background:new 0 0 92.9 92.9;" xml:space="preserve">
<g>
	<path fill="white" d="M23.3,88.7c-0.4,1.2,0,2.5,1.1,3.1c0.4,0.2,0.8,0.3,1.2,0.3c0.7,0,1.5-0.3,2-1l6.6-8.4c-2.6-0.9-5-2-7.3-3.4L23.3,88.7z"/>
	<path fill="white" d="M39,45H26.4l3.7-9.7l-3.8-4.1l-5.9,15.4c-0.3,0.8-0.2,1.6,0.3,2.3c0.5,0.7,1.2,1.1,2.1,1.1h15.3l-7.9,20.8
		c1.4,0.9,2.9,1.8,4.4,2.4l8.9-23.4L39,45z"/>
	<path fill="white" d="M35.1,73.5c1.6,0.7,3.3,1.2,5.1,1.6l12.2-15.5L49,55.8L35.1,73.5z"/>
	<path fill="white" d="M63.1,14.2l-1.8,4.7c4.4,2.4,8.2,5.8,11,10c0.9,1.3,1.6,2.6,2.3,4c2,4.1,3.1,8.7,3.1,13.6c0,7.5-2.6,14.4-7,19.7
		c-0.2,0.3-0.4,0.5-0.7,0.8c-0.2,0.3-0.4,0.5-0.7,0.7L68.7,67l-0.7-0.7l-9.9-10.8l-0.7-0.7L56.8,54l0.6-0.8l0.6-0.8l14.1-18
		c0.3-0.3,0.4-0.7,0.5-1.1c0.1-0.5,0-1.1-0.2-1.5c-0.3-0.6-0.8-1-1.4-1.2c-0.3-0.1-0.5-0.2-0.8-0.2H54.8l4-10.4l0.4-0.9l0.4-0.9
		l1.8-4.7l0.4-0.9l0.4-0.9l2.8-7.3c0.3-0.8,0.2-1.6-0.3-2.3c-0.5-0.7-1.2-1.1-2.1-1.1H39.5c-1,0-2,0.6-2.3,1.6l-2.9,7.7l-0.5,1.2
		l-0.5,1.3l-2.6,6.8l-0.6,1.5l-0.3,0.8l-0.3,0.8l-0.1,0.3l-0.4,1l-0.5-0.6L28.3,23l-0.4-0.5l-0.3-0.3l-0.4-0.4
		c0.2-0.2,0.5-0.4,0.7-0.6l0-0.1l0.4-1l2.4-6.4c-2.1,1-4.1,2.2-5.9,3.6c-0.4,0.3-0.7,0.5-1,0.8c-0.6,0.5-1.2,1-1.8,1.5
		c0,0-0.1,0.1-0.1,0.1c-0.1,0.1-0.1,0.1-0.2,0.2c-0.6,0.5-1.1,1.1-1.6,1.6c-0.3,0.3-0.6,0.6-0.9,1c-5.6,6.4-9,14.8-9,23.9
		c0,12.4,6.2,23.3,15.7,29.9c0.3,0.2,0.6,0.4,0.9,0.6c0.3,0.2,0.6,0.4,0.9,0.6c2.5,1.5,5.1,2.7,7.9,3.6c0.3,0.1,0.7,0.2,1,0.3
		c0.3,0.1,0.7,0.2,1,0.3c2.8,0.7,5.8,1.1,8.8,1.1c8.1,0,15.6-2.7,21.6-7.1c0.4-0.3,0.7-0.5,1-0.8c0.6-0.5,1.2-1,1.8-1.5
		c0,0,0.1-0.1,0.1-0.1c0.1-0.1,0.1-0.1,0.2-0.2c0.6-0.5,1.1-1.1,1.6-1.6c0.3-0.3,0.6-0.6,0.9-1c5.6-6.4,9-14.8,9-23.9
		C82.8,32.4,74.8,20.3,63.1,14.2z M33.2,26.9l0.4-1l2.6-6.9l0.5-1.2l0.5-1.2l2.2-5.7l0.4-1.1l0.4-1.1l1.1-2.9h17.6l-1.5,3.9L57,10.7
		l-0.4,0.9l-1.8,4.7l-0.4,0.9l-0.4,0.9l-5.2,13.8c-0.3,0.8-0.2,1.6,0.3,2.3s1.2,1.1,2.1,1.1H65L54.6,48.7L54,49.5l-0.6,0.8l-0.7-0.7
		L52,48.8L34.3,29.6l-0.8-0.8L32.8,28L33.2,26.9z M64.9,71.7c-0.3,0.2-0.5,0.4-0.8,0.6c-5,3.4-11.1,5.5-17.7,5.5
		c-1.8,0-3.7-0.2-5.4-0.5c-0.4-0.1-0.7-0.1-1.1-0.2c-0.4-0.1-0.7-0.2-1.1-0.2c-3.4-0.9-6.6-2.3-9.4-4.1c-0.3-0.2-0.6-0.4-0.9-0.6
		c-0.3-0.2-0.6-0.4-0.8-0.6c-7.6-5.7-12.6-14.8-12.6-25.1c0-7.5,2.6-14.3,7-19.7c0.2-0.3,0.4-0.5,0.7-0.8c0.2-0.3,0.4-0.5,0.7-0.8
		l0.7,0.7l0.7,0.7l0.7,0.8l0.8,0.8l0.8,0.8l3.8,4.1l0.8,0.8l0.8,0.8l7.5,8.1l0.9,1l0.9,1l2.5,2.7l0.8,0.9l0.8,0.8l3.1,3.3l0.7,0.7
		l0.7,0.7l3.4,3.7l0.7,0.7l0.7,0.7l9.4,10.2l0.7,0.7l0.7,0.7C65.5,71.3,65.2,71.5,64.9,71.7z"/>
</g>
</svg>
