<?xml version="1.0" encoding="utf-8"?>
<!-- Generator: Adobe Illustrator 22.1.0, SVG Export Plug-In . SVG Version: 6.00 Build 0)  -->
<svg version="1.1" id="Icons" xmlns="http://www.w3.org/2000/svg" xmlns:xlink="http://www.w3.org/1999/xlink" x="0px" y="0px"
	 viewBox="0 0 99.8 99.8" style="enable-background:new 0 0 99.8 99.8;" xml:space="preserve">
<g>
	<path fill="white" d="M87.9,18.3h-4V3c0-1.4-1.1-2.5-2.5-2.5h-63c-1.4,0-2.5,1.1-2.5,2.5v15.3h-4c-1.4,0-2.5,1.1-2.5,2.5v76
		c0,1.4,1.1,2.5,2.5,2.5h76c1.4,0,2.5-1.1,2.5-2.5v-76C90.4,19.4,89.2,18.3,87.9,18.3z M20.9,5.5h58V18h-58V5.5z M85.4,94.3h-71v-71
		h71V94.3z"/>
	<path fill="white" d="M49.9,84c13.9,0,25.3-11.3,25.3-25.3S63.8,33.5,49.9,33.5S24.6,44.9,24.6,58.8S35.9,84,49.9,84z M49.9,38.5
		c11.2,0,20.3,9.1,20.3,20.3C70.1,70,61,79,49.9,79C38.7,79,29.6,70,29.6,58.8C29.6,47.6,38.7,38.5,49.9,38.5z"/>
	<circle fill="white" cx="28.7" cy="12.1" r="2.5"/>
</g>
</svg>
