<svg xmlns="http://www.w3.org/2000/svg" viewBox="0 0 261.14 261.14"><defs><style>.cls-1{isolation:isolate;}.cls-2{fill:#ffde17;}.cls-3,.cls-5{fill:#005e9e;}.cls-4{fill:#00b3f0;}.cls-5,.cls-7{opacity:0.2;}.cls-5{mix-blend-mode:multiply;}.cls-6,.cls-7{fill:#fff;}</style></defs><title>Artboard 11</title><g class="cls-1"><g id="Layer_1" data-name="Layer 1"><circle class="cls-2" cx="130.57" cy="130.57" r="130.57"/><circle class="cls-3" cx="130.57" cy="130.57" r="119.47"/><circle class="cls-4" cx="130.57" cy="130.57" r="80.61"/><path class="cls-5" d="M130.8,11.1V250a119.47,119.47,0,0,0,0-238.94Z"/><rect class="cls-6" x="130.18" y="53.44" width="0.77" height="16.59"/><rect class="cls-6" x="127.78" y="53.49" width="0.77" height="16.61" transform="matrix(1, -0.03, 0.03, 1, -2.08, 4.51)"/><rect class="cls-6" x="125.38" y="53.61" width="0.77" height="16.61" transform="translate(-4.01 8.92) rotate(-4)"/><rect class="cls-6" x="122.99" y="53.82" width="0.77" height="16.59" transform="translate(-5.82 13.24) rotate(-6)"/><rect class="cls-6" x="120.6" y="54.11" width="0.77" height="16.6" transform="matrix(0.99, -0.14, 0.14, 0.99, -7.51, 17.45)"/><rect class="cls-6" x="118.23" y="54.49" width="0.77" height="16.6" transform="matrix(0.98, -0.17, 0.17, 0.98, -9.1, 21.55)"/><rect class="cls-6" x="115.87" y="54.95" width="0.77" height="16.59" transform="translate(-10.61 25.55) rotate(-12)"/><rect class="cls-6" x="113.53" y="55.49" width="0.77" height="16.59" transform="translate(-12.05 29.46) rotate(-14)"/><rect class="cls-6" x="111.21" y="56.11" width="0.77" height="16.59" transform="translate(-13.43 33.26) rotate(-16)"/><rect class="cls-6" x="108.91" y="56.81" width="0.77" height="16.59" transform="translate(-14.77 36.96) rotate(-18)"/><rect class="cls-6" x="106.64" y="57.6" width="0.77" height="16.58" transform="translate(-16.08 40.58) rotate(-20)"/><rect class="cls-6" x="104.4" y="58.46" width="0.77" height="16.59" transform="translate(-17.38 44.12) rotate(-22)"/><rect class="cls-6" x="102.19" y="59.39" width="0.77" height="16.59" transform="translate(-18.67 47.58) rotate(-24)"/><rect class="cls-6" x="100.01" y="60.41" width="0.77" height="16.58" transform="translate(-19.96 50.96) rotate(-26)"/><rect class="cls-6" x="97.87" y="61.5" width="0.77" height="16.59" transform="translate(-21.27 54.3) rotate(-28)"/><rect class="cls-6" x="95.77" y="62.66" width="0.77" height="16.6" transform="translate(-22.6 57.59) rotate(-30)"/><rect class="cls-6" x="93.71" y="63.9" width="0.77" height="16.6" transform="translate(-23.96 60.84) rotate(-32)"/><rect class="cls-6" x="166.66" y="180.64" width="0.77" height="16.6" transform="translate(-74.74 117.22) rotate(-32)"/><rect class="cls-6" x="168.67" y="179.34" width="0.77" height="16.59" transform="translate(-76.02 126.61) rotate(-34)"/><rect class="cls-6" x="91.69" y="65.21" width="0.77" height="16.59" transform="translate(-25.36 64.06) rotate(-34)"/><rect class="cls-6" x="89.73" y="66.59" width="0.77" height="16.6" transform="translate(-26.81 67.27) rotate(-36)"/><rect class="cls-6" x="170.64" y="177.95" width="0.77" height="16.6" transform="translate(-76.81 136.11) rotate(-36)"/><rect class="cls-6" x="172.56" y="176.5" width="0.77" height="16.61" transform="translate(-77.11 145.65) rotate(-38)"/><rect class="cls-6" x="87.81" y="68.03" width="0.77" height="16.61" transform="translate(-28.3 70.48) rotate(-38)"/><rect class="cls-6" x="174.42" y="174.99" width="0.77" height="16.6" transform="translate(-76.92 155.24) rotate(-40)"/><rect class="cls-6" x="85.94" y="69.55" width="0.77" height="16.6" transform="translate(-29.84 73.71) rotate(-40)"/><rect class="cls-6" x="84.13" y="71.12" width="0.77" height="16.6" transform="matrix(0.74, -0.67, 0.67, 0.74, -31.43, 76.95)"/><polygon class="cls-6" points="181.89 188.14 170.78 175.81 171.36 175.29 182.46 187.63 181.89 188.14"/><rect class="cls-6" x="177.99" y="171.77" width="0.77" height="16.61" transform="translate(-75.03 174.45) rotate(-44)"/><rect class="cls-6" x="82.38" y="72.76" width="0.77" height="16.61" transform="translate(-33.08 80.24) rotate(-44)"/><rect class="cls-6" x="80.68" y="74.46" width="0.77" height="16.61" transform="translate(-34.78 83.58) rotate(-46)"/><rect class="cls-6" x="179.69" y="170.07" width="0.77" height="16.61" transform="translate(-73.33 184) rotate(-46)"/><polygon class="cls-6" points="187.63 182.46 175.29 171.36 175.81 170.78 188.14 181.89 187.63 182.46"/><rect class="cls-6" x="79.04" y="76.22" width="0.77" height="16.6" transform="translate(-36.53 86.98) rotate(-48)"/><rect class="cls-6" x="182.91" y="166.51" width="0.77" height="16.6" transform="translate(-68.44 202.86) rotate(-50)"/><rect class="cls-6" x="77.46" y="78.03" width="0.77" height="16.6" transform="translate(-38.32 90.48) rotate(-50)"/><rect class="cls-6" x="184.42" y="164.64" width="0.77" height="16.61" transform="translate(-65.25 212.09) rotate(-52)"/><rect class="cls-6" x="75.95" y="79.89" width="0.77" height="16.61" transform="translate(-40.16 94.05) rotate(-52)"/><rect class="cls-6" x="74.5" y="81.81" width="0.77" height="16.6" transform="translate(-42.03 97.73) rotate(-54)"/><rect class="cls-6" x="185.86" y="162.72" width="0.77" height="16.6" transform="translate(-61.59 221.17) rotate(-54)"/><rect class="cls-6" x="73.12" y="83.79" width="0.77" height="16.59" transform="translate(-43.93 101.53) rotate(-56)"/><rect class="cls-6" x="187.25" y="160.77" width="0.77" height="16.59" transform="translate(-57.45 230.07) rotate(-56)"/><rect class="cls-6" x="188.55" y="158.74" width="0.77" height="16.6" transform="matrix(0.53, -0.85, 0.85, 0.53, -52.84, 238.75)"/><rect class="cls-6" x="71.82" y="85.8" width="0.77" height="16.6" transform="translate(-45.86 105.46) rotate(-58)"/><rect class="cls-6" x="70.58" y="87.86" width="0.77" height="16.6" transform="translate(-47.79 109.54) rotate(-60)"/><rect class="cls-6" x="189.79" y="156.68" width="0.77" height="16.6" transform="translate(-47.79 247.19) rotate(-60)"/><rect class="cls-6" x="190.96" y="154.59" width="0.77" height="16.59" transform="translate(-42.3 255.36) rotate(-62)"/><rect class="cls-6" x="69.41" y="89.96" width="0.77" height="16.59" transform="translate(-49.73 113.75) rotate(-62)"/><rect class="cls-6" x="192.05" y="152.45" width="0.77" height="16.58" transform="translate(-36.4 263.24) rotate(-64)"/><rect class="cls-6" x="68.32" y="92.1" width="0.77" height="16.58" transform="translate(-51.65 118.13) rotate(-64)"/><rect class="cls-6" x="67.31" y="94.28" width="0.77" height="16.59" transform="translate(-53.55 122.7) rotate(-66)"/><rect class="cls-6" x="193.06" y="150.27" width="0.77" height="16.59" transform="translate(-30.09 270.79) rotate(-66)"/><rect class="cls-6" x="66.37" y="96.49" width="0.77" height="16.59" transform="translate(-55.41 127.42) rotate(-68)"/><rect class="cls-6" x="194" y="148.06" width="0.77" height="16.59" transform="translate(-23.4 278.02) rotate(-68)"/><rect class="cls-6" x="65.5" y="98.74" width="0.77" height="16.58" transform="translate(-57.22 132.33) rotate(-70)"/><rect class="cls-6" x="194.87" y="145.82" width="0.77" height="16.58" transform="translate(-16.34 284.88) rotate(-70)"/><rect class="cls-6" x="64.72" y="101" width="0.77" height="16.59" transform="translate(-58.96 137.45) rotate(-72)"/><rect class="cls-6" x="195.65" y="143.54" width="0.77" height="16.59" transform="translate(-8.95 291.35) rotate(-72)"/><rect class="cls-6" x="64.02" y="103.3" width="0.77" height="16.59" transform="translate(-60.62 142.75) rotate(-74)"/><rect class="cls-6" x="196.35" y="141.24" width="0.77" height="16.59" transform="translate(-1.25 297.43) rotate(-74)"/><rect class="cls-6" x="63.4" y="105.62" width="0.77" height="16.59" transform="translate(-62.18 148.24) rotate(-76)"/><rect class="cls-6" x="196.97" y="138.93" width="0.77" height="16.59" transform="translate(6.76 303.1) rotate(-76)"/><rect class="cls-6" x="197.51" y="136.59" width="0.77" height="16.59" transform="translate(15.04 308.33) rotate(-78)"/><rect class="cls-6" x="62.86" y="107.96" width="0.77" height="16.59" transform="translate(-63.62 153.95) rotate(-78)"/><rect class="cls-6" x="197.96" y="134.22" width="0.77" height="16.6" transform="translate(23.54 313.1) rotate(-80)"/><rect class="cls-6" x="62.4" y="110.32" width="0.77" height="16.6" transform="translate(-64.93 159.86) rotate(-80)"/><rect class="cls-6" x="198.34" y="131.85" width="0.77" height="16.6" transform="matrix(0.14, -0.99, 0.99, 0.14, 32.28, 317.43)"/><rect class="cls-6" x="62.03" y="112.69" width="0.77" height="16.6" transform="translate(-66.08 165.96) rotate(-82)"/><rect class="cls-6" x="61.73" y="115.08" width="0.77" height="16.59" transform="translate(-67.08 172.25) rotate(-84)"/><rect class="cls-6" x="198.64" y="129.47" width="0.77" height="16.59" transform="translate(41.21 321.29) rotate(-84)"/><rect class="cls-6" x="198.84" y="127.07" width="0.77" height="16.61" transform="translate(50.28 324.66) rotate(-86)"/><rect class="cls-6" x="61.53" y="117.47" width="0.77" height="16.61" transform="translate(-67.87 178.76) rotate(-86)"/><rect class="cls-6" x="61.4" y="119.86" width="0.77" height="16.61" transform="translate(-68.46 185.44) rotate(-88)"/><rect class="cls-6" x="198.96" y="124.67" width="0.77" height="16.61" transform="translate(59.5 327.56) rotate(-88)"/><rect class="cls-6" x="53.44" y="130.18" width="16.59" height="0.77"/><rect class="cls-6" x="191.1" y="130.18" width="16.59" height="0.77"/><rect class="cls-6" x="53.49" y="132.59" width="16.61" height="0.77" transform="translate(-4.63 2.25) rotate(-2.01)"/><rect class="cls-6" x="191.04" y="127.78" width="16.61" height="0.77" transform="translate(-4.38 7.08) rotate(-2.01)"/><rect class="cls-6" x="53.61" y="134.98" width="16.61" height="0.77" transform="translate(-9.23 4.62) rotate(-3.97)"/><rect class="cls-6" x="190.92" y="125.38" width="16.61" height="0.77" transform="translate(-8.35 14.31) rotate(-4.03)"/><rect class="cls-6" x="53.82" y="137.38" width="16.59" height="0.77" transform="translate(-14.06 7.25) rotate(-6)"/><rect class="cls-6" x="190.73" y="122.99" width="16.59" height="0.77" transform="translate(-11.91 21.68) rotate(-6.06)"/><rect class="cls-6" x="54.11" y="139.76" width="16.6" height="0.77" transform="translate(-18.96 10.09) rotate(-8.03)"/><rect class="cls-6" x="190.42" y="120.6" width="16.6" height="0.77" transform="translate(-14.86 28.73) rotate(-7.97)"/><rect class="cls-6" x="54.49" y="142.14" width="16.6" height="0.77" transform="translate(-23.83 13.09) rotate(-10.01)"/><rect class="cls-6" x="190.05" y="118.23" width="16.6" height="0.77" transform="translate(-17.61 36.3) rotate(-10.01)"/><rect class="cls-6" x="189.6" y="115.87" width="16.59" height="0.77" transform="translate(-19.78 43.48) rotate(-11.95)"/><rect class="cls-6" x="54.95" y="144.49" width="16.59" height="0.77" transform="translate(-28.74 16.32) rotate(-12)"/><rect class="cls-6" x="189.06" y="113.53" width="16.59" height="0.77" transform="translate(-21.71 51.16) rotate(-14.01)"/><rect class="cls-6" x="55.49" y="146.84" width="16.59" height="0.77" transform="translate(-33.74 19.82) rotate(-14.01)"/><rect class="cls-6" x="188.43" y="111.21" width="16.59" height="0.77" transform="translate(-23.13 58.52) rotate(-15.99)"/><rect class="cls-6" x="56.11" y="149.16" width="16.59" height="0.77" transform="translate(-38.71 23.53) rotate(-15.99)"/><rect class="cls-6" x="56.81" y="151.45" width="16.59" height="0.77" transform="translate(-43.68 27.5) rotate(-17.97)"/><rect class="cls-6" x="187.74" y="108.91" width="16.59" height="0.77" transform="translate(-24.16 65.83) rotate(-17.97)"/><rect class="cls-6" x="186.96" y="106.64" width="16.58" height="0.77" transform="translate(-24.83 73.21) rotate(-19.99)"/><rect class="cls-6" x="57.6" y="153.73" width="16.58" height="0.77" transform="translate(-48.72 31.81) rotate(-19.99)"/><rect class="cls-6" x="186.09" y="104.4" width="16.59" height="0.77" transform="translate(-25.1 80.48) rotate(-22.01)"/><rect class="cls-6" x="58.46" y="155.97" width="16.59" height="0.77" transform="translate(-53.73 36.41) rotate(-22.01)"/><rect class="cls-6" x="59.39" y="158.18" width="16.59" height="0.77" transform="translate(-58.67 41.27) rotate(-24.01)"/><rect class="cls-6" x="185.15" y="102.19" width="16.59" height="0.77" transform="translate(-24.99 87.41) rotate(-23.96)"/><rect class="cls-6" x="184.14" y="100.01" width="16.58" height="0.77" transform="translate(-24.53 94.38) rotate(-25.96)"/><rect class="cls-6" x="60.41" y="160.36" width="16.58" height="0.77" transform="translate(-63.54 46.42) rotate(-26.01)"/><rect class="cls-6" x="183.05" y="97.87" width="16.59" height="0.77" transform="translate(-23.73 101.21) rotate(-27.97)"/><rect class="cls-6" x="61.5" y="162.5" width="16.59" height="0.77" transform="translate(-68.33 51.87) rotate(-28.02)"/><rect class="cls-6" x="181.87" y="95.77" width="16.6" height="0.77" transform="translate(-22.59 108.05) rotate(-30.02)"/><rect class="cls-6" x="62.66" y="164.6" width="16.6" height="0.77" transform="translate(-73.03 57.64) rotate(-30.02)"/><rect class="cls-6" x="63.9" y="166.66" width="16.6" height="0.77" transform="translate(-77.6 63.72) rotate(-32.03)"/><rect class="cls-6" x="180.64" y="93.71" width="16.6" height="0.77" transform="translate(-21.16 114.35) rotate(-31.98)"/><rect class="cls-6" x="65.21" y="168.67" width="16.59" height="0.77" transform="translate(-82.05 70.13) rotate(-34.05)"/><rect class="cls-6" x="179.34" y="91.69" width="16.59" height="0.77" transform="translate(-19.41 120.67) rotate(-34)"/><rect class="cls-6" x="177.95" y="89.73" width="16.6" height="0.77" transform="translate(-17.39 126.75) rotate(-36.02)"/><rect class="cls-6" x="66.59" y="170.64" width="16.6" height="0.77" transform="translate(-86.25 76.73) rotate(-36.02)"/><rect class="cls-6" x="68.03" y="172.55" width="16.61" height="0.77" transform="translate(-90.31 83.7) rotate(-38.01)"/><rect class="cls-6" x="176.5" y="87.81" width="16.61" height="0.77" transform="translate(-15.11 132.52) rotate(-38.01)"/><rect class="cls-6" x="69.55" y="174.42" width="16.6" height="0.77" transform="matrix(0.77, -0.64, 0.64, 0.77, -94.16, 90.95)"/><polygon class="cls-6" points="172.29 94.71 170.59 92.83 185.77 76.71 189.91 81.31 172.29 94.71"/><rect class="cls-6" x="71.12" y="176.24" width="16.6" height="0.77" transform="translate(-97.82 98.6) rotate(-42.03)"/><rect class="cls-6" x="72.76" y="177.99" width="16.61" height="0.77" transform="translate(-101.17 106.41) rotate(-44.01)"/><rect class="cls-6" x="74.46" y="179.69" width="16.61" height="0.77" transform="translate(-104.25 114.48) rotate(-45.99)"/><rect class="cls-6" x="170.07" y="80.68" width="16.61" height="0.77" transform="translate(-3.91 152.9) rotate(-45.95)"/><rect class="cls-6" x="76.22" y="181.33" width="16.6" height="0.77" transform="translate(-107.04 122.82) rotate(-47.97)"/><polygon class="cls-6" points="171.36 85.85 170.78 85.33 181.89 73 182.46 73.51 171.36 85.85"/><rect class="cls-6" x="166.51" y="77.46" width="16.6" height="0.77" transform="translate(2.8 161.7) rotate(-49.99)"/><rect class="cls-6" x="78.03" y="182.91" width="16.6" height="0.77" transform="translate(-109.57 131.58) rotate(-49.99)"/><rect class="cls-6" x="79.89" y="184.42" width="16.61" height="0.77" transform="translate(-111.74 140.6) rotate(-52.02)"/><rect class="cls-6" x="164.64" y="75.95" width="16.61" height="0.77" transform="translate(6.29 165.58) rotate(-51.99)"/><rect class="cls-6" x="81.81" y="185.86" width="16.6" height="0.77" transform="translate(-113.52 149.61) rotate(-53.98)"/><rect class="cls-6" x="162.72" y="74.5" width="16.6" height="0.77" transform="translate(9.88 169.18) rotate(-53.98)"/><rect class="cls-6" x="160.77" y="73.12" width="16.59" height="0.77" transform="translate(13.58 172.56) rotate(-56)"/><rect class="cls-6" x="83.79" y="187.25" width="16.59" height="0.77" transform="translate(-114.98 159.16) rotate(-56.03)"/><rect class="cls-6" x="158.74" y="71.82" width="16.6" height="0.77" transform="translate(17.33 175.65) rotate(-58.02)"/><rect class="cls-6" x="85.8" y="188.55" width="16.6" height="0.77" transform="translate(-116 168.68) rotate(-58.02)"/><rect class="cls-6" x="156.68" y="70.58" width="16.6" height="0.77" transform="translate(20.99 178.3) rotate(-59.98)"/><rect class="cls-6" x="154.59" y="69.41" width="16.59" height="0.77" transform="translate(24.85 180.92) rotate(-62.03)"/><rect class="cls-6" x="152.45" y="68.32" width="16.58" height="0.77" transform="translate(28.6 183.14) rotate(-64.04)"/><rect class="cls-6" x="150.27" y="67.31" width="16.59" height="0.77" transform="translate(32.31 185.1) rotate(-66.04)"/><rect class="cls-6" x="148.06" y="66.37" width="16.59" height="0.77" transform="translate(35.87 186.69) rotate(-67.99)"/><rect class="cls-6" x="145.82" y="65.5" width="16.58" height="0.77" transform="translate(39.51 188.18) rotate(-70.01)"/><rect class="cls-6" x="143.54" y="64.72" width="16.59" height="0.77" transform="translate(43.05 189.44) rotate(-72.03)"/><rect class="cls-6" x="141.24" y="64.02" width="16.59" height="0.77" transform="translate(46.43 190.42) rotate(-74.01)"/><rect class="cls-6" x="138.93" y="63.4" width="16.59" height="0.77" transform="translate(49.7 191.18) rotate(-75.99)"/><rect class="cls-6" x="136.59" y="62.86" width="16.59" height="0.77" transform="translate(53.02 191.89) rotate(-78.05)"/><rect class="cls-6" x="134.22" y="62.4" width="16.6" height="0.77" transform="translate(55.9 192.22) rotate(-79.99)"/><rect class="cls-6" x="131.85" y="62.03" width="16.6" height="0.77" transform="translate(58.9 192.55) rotate(-82.03)"/><rect class="cls-6" x="129.47" y="61.73" width="16.59" height="0.77" transform="translate(61.46 192.56) rotate(-83.94)"/><rect class="cls-6" x="127.07" y="61.53" width="16.61" height="0.77" transform="matrix(0.07, -1, 1, 0.07, 64.09, 192.6)"/><rect class="cls-6" x="124.67" y="61.4" width="16.61" height="0.77" transform="translate(66.55 192.51) rotate(-87.99)"/><path class="cls-6" d="M109.5,158.35a.63.63,0,0,1-.11-.58l12.38-45.12c0-.05,0-.11,0-.18a.34.34,0,0,0-.25-.11H108.23a.25.25,0,0,0-.29.29v3a.64.64,0,0,1-.73.72h-2.82a.64.64,0,0,1-.72-.72v-7a.64.64,0,0,1,.72-.73h22.16a.64.64,0,0,1,.72.73v3.33a6.47,6.47,0,0,1-.14.87l-12.31,45.11a.74.74,0,0,1-.8.65h-4A.67.67,0,0,1,109.5,158.35Z"/><path class="cls-6" d="M149.87,131.91a8.44,8.44,0,0,1,3.84,4.13,20.22,20.22,0,0,1,1.66,8.4,20.86,20.86,0,0,1-1.08,6.88,11.58,11.58,0,0,1-4,5.76,10.63,10.63,0,0,1-6.59,2.06,10.35,10.35,0,0,1-6.44-2,12,12,0,0,1-4-5.8,23,23,0,0,1-1-6.95,18.83,18.83,0,0,1,1.38-7.75,9.11,9.11,0,0,1,4-4.71c.19-.14.19-.29,0-.43a9,9,0,0,1-3.91-3.91,16.15,16.15,0,0,1-1.52-7.39,15.57,15.57,0,0,1,1.52-7.38,9.57,9.57,0,0,1,4-4.2,11.89,11.89,0,0,1,6-1.45,12.3,12.3,0,0,1,5.94,1.41,9.36,9.36,0,0,1,4,4.09,15.14,15.14,0,0,1,1.74,7.61,14.93,14.93,0,0,1-1.52,7.16,9.74,9.74,0,0,1-4,4.06C149.63,131.62,149.63,131.77,149.87,131.91Zm-12.6-11.29a11.37,11.37,0,0,0,1.16,5.43,5.35,5.35,0,0,0,5.28,3.55,5.77,5.77,0,0,0,3.41-1,6.08,6.08,0,0,0,2.17-2.82,12.37,12.37,0,0,0,1-5.22,11.32,11.32,0,0,0-1.23-5.5,5.58,5.58,0,0,0-5.36-3.4,5.49,5.49,0,0,0-5.36,3.62A12,12,0,0,0,137.27,120.62Zm13,23.53a16.64,16.64,0,0,0-1-6.23c-1-2.79-2.85-4.2-5.51-4.2s-4.44,1.5-5.5,4.49a17.57,17.57,0,0,0-.87,5.94,17,17,0,0,0,.72,5.29,7.82,7.82,0,0,0,2.1,3.87,5,5,0,0,0,3.55,1.34,5.34,5.34,0,0,0,3.77-1.41,7.94,7.94,0,0,0,2.17-4A20.64,20.64,0,0,0,150.23,144.15Z"/><path class="cls-7" d="M223.93,55.76a119.49,119.49,0,0,0-202.14,124A264.38,264.38,0,0,1,223.93,55.76Z"/><path class="cls-7" d="M204.07,58A103.42,103.42,0,0,0,32.32,163.58,264.4,264.4,0,0,1,204.07,58Z"/></g></g></svg>