<?xml version="1.0" encoding="utf-8"?>
<!-- Generator: Adobe Illustrator 22.1.0, SVG Export Plug-In . SVG Version: 6.00 Build 0)  -->
<svg version="1.1" id="Layer_1" xmlns="http://www.w3.org/2000/svg" xmlns:xlink="http://www.w3.org/1999/xlink" x="0px" y="0px"
	 viewBox="0 0 35 35" style="enable-background:new 0 0 35 35;" xml:space="preserve">
<style type="text/css">
	.st0{fill:#F0BE3A;}
	.st1{fill:#A57C29;}
</style>
<g>
	<g>
		<path class="st0" d="M31.9,0.8c0.7-0.2,1.3-0.1,1.8,0.4c0.5,0.4,0.8,0.9,0.8,1.6v21.9c0,1.1-0.6,2-1.7,2.8
			c-1.1,0.8-2.6,1.2-4.2,1.2c-1.7,0-3.1-0.4-4.2-1.2c-1.1-0.8-1.7-1.7-1.7-2.8c0-1.1,0.6-2,1.7-2.8s2.6-1.2,4.2-1.2
			c1.1,0,2.1,0.2,3,0.6v-12l-16.9,5.3v14.2c0,1.1-0.6,2-1.7,2.8c-1.1,0.8-2.6,1.2-4.2,1.2s-3.1-0.4-4.2-1.2
			c-1.1-0.8-1.7-1.7-1.7-2.8s0.6-2,1.7-2.8s2.6-1.2,4.2-1.2c1.1,0,2.1,0.2,3,0.6V8.8c0-0.4,0.1-0.8,0.4-1.1c0.3-0.4,0.6-0.6,1-0.8
			L31.9,0.8z"/>
	</g>
	<path class="st1" d="M8,28.2c0.1-0.1,0.1-0.2,0.1-0.3S8.1,27.7,8,27.5l-0.8-0.8c-0.1-0.1-0.2-0.1-0.3-0.1c-0.1,0-0.3,0.1-0.3,0.1
		L4.3,29L2,26.7c-0.1-0.1-0.2-0.1-0.3-0.1c-0.1,0-0.2,0.1-0.3,0.1l-0.8,0.8c-0.1,0.1-0.1,0.2-0.1,0.3c0,0.1,0.1,0.3,0.2,0.3l2.2,2.2
		l-2.3,2.2c-0.1,0.1-0.1,0.2-0.1,0.3c0,0.1,0.1,0.2,0.2,0.3l0.8,0.8c0.1,0.1,0.2,0.1,0.3,0.1c0.1,0,0.3-0.1,0.3-0.2l2.2-2.2l2.2,2.3
		c0.1,0.1,0.2,0.1,0.3,0.1s0.2-0.1,0.3-0.2L8,33.2c0.1-0.1,0.2-0.2,0.2-0.3c0-0.1-0.1-0.3-0.1-0.3l-2.3-2.2L8,28.2z"/>
</g>
</svg>
