<svg id="Layer_1" data-name="Layer 1" xmlns="http://www.w3.org/2000/svg" viewBox="0 0 359.38 218.49"><defs><style>.cls-1{fill:#005e9e;}.cls-2{fill:#00b3f0;}.cls-3{fill:#e1f4fd;}.cls-4{fill:#0072bc;}.cls-5{fill:#ffde17;}.cls-6{fill:none;stroke:#005e9e;stroke-miterlimit:10;}.cls-7{fill:#6dcff6;}.cls-8{opacity:0.4;}</style></defs><title>Artboard 23</title><circle class="cls-1" cx="87.43" cy="199.06" r="19.43"/><circle class="cls-2" cx="87.43" cy="199.06" r="11.02"/><circle class="cls-1" cx="287.11" cy="199.06" r="19.43"/><polygon class="cls-3" points="219.62 17.78 70.92 17.78 49.41 77.41 142.14 79.02 267.02 103.93 219.62 17.78"/><path class="cls-4" d="M327.41,121.1,277.1,107.22,227.3,14.66A27.86,27.86,0,0,0,202.76,0H85.57A25.12,25.12,0,0,0,62,16.59l-22,61L27.56,78.63A19.47,19.47,0,0,0,9.79,98v87.75a13.27,13.27,0,0,0,13.28,13.28H56V181.72a32.11,32.11,0,1,1,64.21,0v17.34H254.44V181.72a32.11,32.11,0,0,1,29-31.95c1-.1,2.08-.15,3.14-.15a32.1,32.1,0,0,1,32.1,32.1v17.34H347V146.8A26.66,26.66,0,0,0,327.41,121.1Zm-111.84-83,9.18,57.43L150.54,80.7a4.9,4.9,0,0,1-3.94-4.81V22.71a4.93,4.93,0,0,1,4.93-4.93h40.26A24.08,24.08,0,0,1,215.57,38.07ZM49.41,77.41,67.48,27.33a14.44,14.44,0,0,1,13.6-9.55h0V74.47a3.43,3.43,0,0,1-3.49,3.43Zm40.67-2.65V21.21a3.42,3.42,0,0,1,3.43-3.43H127a3.43,3.43,0,0,1,3.43,3.43V75.44a3.43,3.43,0,0,1-3.5,3.43l-33.46-.69A3.42,3.42,0,0,1,90.08,74.76ZM234.16,97.38l-9.69-60.66a2.52,2.52,0,0,1,4.69-1.61L263,96.66a3.87,3.87,0,0,1-4.14,5.65Z"/><path class="cls-5" d="M339.1,158.43H347V146.8a26.63,26.63,0,0,0-1.26-8.05h-24a1.14,1.14,0,0,0-1,1.74l7.35,11.81A13,13,0,0,0,339.1,158.43Z"/><rect class="cls-2" x="331.89" y="171.57" width="27.49" height="27.49" rx="6.47" ry="6.47"/><rect class="cls-2" y="171.57" width="27.49" height="27.49" rx="6.47" ry="6.47"/><path class="cls-1" d="M219.68,91.83l-22.63-7.57a3,3,0,0,1-2-3.6l1-3.81a6.31,6.31,0,0,1,6.12-4.75h11a6.5,6.5,0,0,1,6.5,6.5Z"/><path class="cls-1" d="M213.56,88.21l6.12,7.29h-1.14a3.14,3.14,0,0,0-3.14,3.14v2.92a3.13,3.13,0,0,0,3.14,3.14h9.29a3.14,3.14,0,0,0,3.15-3.14V98.64a3.15,3.15,0,0,0-3.15-3.14h-1.57l-6.58-16.9Z"/><path class="cls-6" d="M138.52,15.12V138.75s18.54,11.62,18.23,50.88h65.52V183a54.18,54.18,0,0,1,13.83-36.15l.91-1-2.85-48.49-9.8-58.61a18.88,18.88,0,0,0-2.42-6.57L214,18.84a22.28,22.28,0,0,0-16.72-7.55H142.34A3.82,3.82,0,0,0,138.52,15.12Z"/><path class="cls-1" d="M150.58,100.46h21.67a0,0,0,0,1,0,0v3.65a2.89,2.89,0,0,1-2.89,2.89H153.47a2.89,2.89,0,0,1-2.89-2.89v-3.65A0,0,0,0,1,150.58,100.46Z"/><circle class="cls-6" cx="52.58" cy="110.48" r="12.66"/><circle class="cls-2" cx="287.11" cy="199.06" r="11.02"/><path class="cls-7" d="M9.79,100.46H23.93A3.56,3.56,0,0,1,27.49,104v15.56a3.56,3.56,0,0,1-3.56,3.56H9.79a0,0,0,0,1,0,0V100.46A0,0,0,0,1,9.79,100.46Z"/><path class="cls-6" d="M150.58,100.46h21.67a0,0,0,0,1,0,0v8a3.32,3.32,0,0,1-3.32,3.32h-15a3.32,3.32,0,0,1-3.32-3.32v-8A0,0,0,0,1,150.58,100.46Z"/><path class="cls-6" d="M87.92,76.5V19.75a3.8,3.8,0,0,1,3.8-3.8h37a3.8,3.8,0,0,1,3.79,3.8V77.26a3.79,3.79,0,0,1-3.87,3.8l-37-.76A3.8,3.8,0,0,1,87.92,76.5Z"/><g class="cls-8"><path class="cls-7" d="M44.37,178.83a40.43,40.43,0,0,1,2.1-17.18,43.36,43.36,0,0,1,9.16-15.12,44.07,44.07,0,0,1,14.65-10.3,44.48,44.48,0,0,1,35.29,0,44,44,0,0,1,14.64,10.3,43.39,43.39,0,0,1,9.17,15.12,40.42,40.42,0,0,1,2.09,17.18,45.87,45.87,0,0,0-14.25-29.3,42.91,42.91,0,0,0-58.6,0A45.92,45.92,0,0,0,44.37,178.83Z"/></g><g class="cls-8"><path class="cls-7" d="M245.22,178.83a38.12,38.12,0,0,1,1.94-16.35,41,41,0,0,1,8.69-14.41,41.87,41.87,0,0,1,14-9.83,42.23,42.23,0,0,1,33.62,0,41.87,41.87,0,0,1,13.95,9.83,41,41,0,0,1,8.69,14.41A38.12,38.12,0,0,1,328,178.83a43.79,43.79,0,0,0-13.61-27.78,40.77,40.77,0,0,0-55.56,0A43.79,43.79,0,0,0,245.22,178.83Z"/></g></svg>