<svg xmlns="http://www.w3.org/2000/svg" xmlns:xlink="http://www.w3.org/1999/xlink" viewBox="0 0 108.4 118.4">
  <defs>
    <style>
      .cls-1 {
        fill: none;
      }

      .cls-2 {
        fill: #c7eafb;
      }

      .cls-3 {
        fill: #ffde17;
      }

      .cls-4 {
        clip-path: url(#clip-path);
      }

      .cls-5 {
        clip-path: url(#clip-path-3);
      }

      .cls-6 {
        fill: #6dcff6;
      }

      .cls-7 {
        fill: #e8e3df;
      }

      .cls-8 {
        fill: #00b3f0;
      }

      .cls-9 {
        fill: #005e9e;
      }

      .cls-10 {
        fill: #0072bc;
      }
    </style>
    <clipPath id="clip-path">
      <rect class="cls-1" x="16.6" y="75.3" width="17.5" height="9.6"/>
    </clipPath>
    <clipPath id="clip-path-3">
      <rect class="cls-1" x="72" y="75.1" width="17.2" height="9.6"/>
    </clipPath>
  </defs>
  <g id="Layer_3" data-name="Layer 3">
    <rect class="cls-2" width="108.4" height="118.4"/>
    <g>
      <path class="cls-3" d="M24.5,75.5a9.26,9.26,0,0,0-4.4,1.1H29a10,10,0,0,0-4.5-1.1"/>
      <path class="cls-3" d="M24.5,94.7A9.13,9.13,0,0,0,29.9,93H19a9.67,9.67,0,0,0,5.5,1.7"/>
      <path class="cls-3" d="M81.6,94.5A9.83,9.83,0,0,0,86.7,93H76.5a9,9,0,0,0,5.1,1.5"/>
      <path class="cls-3" d="M81.6,75.3a9.85,9.85,0,0,0-4.8,1.3h9.6a9.56,9.56,0,0,0-4.8-1.3"/>
      <path class="cls-3" d="M72,84.9a9.58,9.58,0,0,1,4.8-8.3H28.9a9.55,9.55,0,0,1,5.2,8.5,9.89,9.89,0,0,1-4.2,8H76.5A9.88,9.88,0,0,1,72,84.9"/>
      <path class="cls-3" d="M34.1,85.1a9.55,9.55,0,0,0-5.2-8.5H20a9.25,9.25,0,0,0-3.3,2.9V90.8a8.76,8.76,0,0,0,2.4,2.3H30a10.08,10.08,0,0,0,4.1-8"/>
      <path class="cls-3" d="M89.1,91V78.8a8.68,8.68,0,0,0-2.7-2.3H76.8a9.56,9.56,0,0,0-.3,16.4H86.8A8,8,0,0,0,89.1,91"/>
      <g class="cls-4">
        <g class="cls-4">
          <path class="cls-3" d="M16.6,79.4a9.48,9.48,0,0,1,7.9-4.1,9.6,9.6,0,0,1,9.6,9.6H16.7"/>
        </g>
      </g>
      <g class="cls-5">
        <g class="cls-5">
          <path class="cls-3" d="M89.1,84.8H72a9.6,9.6,0,0,1,17.1-6"/>
        </g>
      </g>
      <rect class="cls-6" x="51.6" y="47.7" width="3.5" height="15.6"/>
      <rect class="cls-7" x="24.5" y="65.4" width="57.1" height="39.6"/>
      <rect class="cls-6" x="24.5" y="65.4" width="57.1" height="39.6"/>
      <rect class="cls-8" x="32.6" y="84.6" width="41.4" height="14.3"/>
      <rect class="cls-9" x="31.9" y="85" width="1.5" height="14.3"/>
      <rect class="cls-9" x="37" y="85" width="1.5" height="14.3"/>
      <rect class="cls-9" x="42.2" y="85" width="1.5" height="14.3"/>
      <rect class="cls-9" x="47.4" y="85" width="1.5" height="14.3"/>
      <rect class="cls-9" x="52.6" y="85" width="1.5" height="14.3"/>
      <rect class="cls-9" x="57.7" y="85" width="1.5" height="14.3"/>
      <rect class="cls-9" x="62.9" y="85" width="1.5" height="14.3"/>
      <rect class="cls-9" x="68.1" y="85" width="1.5" height="14.3"/>
      <rect class="cls-9" x="73.3" y="85" width="1.5" height="14.3"/>
      <path class="cls-2" d="M73.8,98c-1.1-4.1-3.9-7.5-5.9-8.2-.9-.3-1.5.6-2.5,2.1A9.75,9.75,0,0,1,62,95.5c-2,1-3.1-.6-4.4-2.6A13.83,13.83,0,0,0,54,88.8c-2.1-1.4-3.5.5-5,2.4-1.1,1.5-2.3,3-3.8,3.1-2,.1-2.7-1-3.4-2.2a4.42,4.42,0,0,0-2.6-2.4c-2.4-.7-5.5,5.3-6.4,7.7l-.5-.2c.1-.4,3.7-9,7-8a4.82,4.82,0,0,1,2.8,2.6c.7,1.2,1.3,2.1,2.9,1.9,1.3-.1,2.4-1.5,3.4-2.9,1.5-2,3.2-4.2,5.7-2.6a15,15,0,0,1,3.8,4.2c1.4,2.1,2.2,3.2,3.7,2.4a9,9,0,0,0,3.2-3.5c1-1.5,1.8-2.7,3.1-2.3,2.3.8,5.1,4.7,6.2,8.6Z"/>
      <path class="cls-10" d="M76.2,101.1H30.4V82.3H76.3v18.8ZM34.8,96.6H71.7V86.8H34.8Z"/>
    </g>
    <path class="cls-3" d="M56.8,47.7a3.5,3.5,0,1,1-3.5-3.5,3.48,3.48,0,0,1,3.5,3.5"/>
    <path class="cls-3" d="M58.7,81.8H47.9V62.3a.9.9,0,0,1,.9-.9h9a.9.9,0,0,1,.9.9Z"/>
    <path class="cls-2" d="M43.3,79.8H38.1V69.1h5.2Zm-3.7-1.5h2.2V70.6H39.6Z"/>
    <path class="cls-2" d="M68.5,79.8H63.3V69.1h5.2Zm-3.7-1.5H67V70.6H64.8Z"/>
    <g>
      <path class="cls-9" d="M28.9,6.19h-3a0,0,0,0,0-.05,0V9.47a0,0,0,0,0,.05,0h1.9a.12.12,0,0,1,.13.13v.56a.12.12,0,0,1-.13.13h-1.9s-.05,0-.05.05v3.24a0,0,0,0,0,.05,0h3a.12.12,0,0,1,.13.13v.54a.12.12,0,0,1-.13.13H25a.12.12,0,0,1-.13-.13V5.51A.12.12,0,0,1,25,5.38H28.9a.12.12,0,0,1,.13.13v.55A.12.12,0,0,1,28.9,6.19Z"/>
      <path class="cls-9" d="M30.53,14.09A1.54,1.54,0,0,1,30,12.86v-.09c0-.09,0-.13.13-.13h.62c.09,0,.13,0,.13.13v.08a.91.91,0,0,0,.31.7,1.12,1.12,0,0,0,.8.28,1,1,0,0,0,1-1,.85.85,0,0,0-.19-.57,1.27,1.27,0,0,0-.42-.35c-.16-.09-.4-.2-.72-.34a6.63,6.63,0,0,1-.84-.41,1.82,1.82,0,0,1-.57-.57A1.72,1.72,0,0,1,30,9.63a1.72,1.72,0,0,1,.51-1.31,2.25,2.25,0,0,1,2.79,0,1.73,1.73,0,0,1,.52,1.32v0a.12.12,0,0,1-.13.13h-.6A.12.12,0,0,1,33,9.69V9.61a1,1,0,0,0-.29-.73A1,1,0,0,0,32,8.59a1,1,0,0,0-.75.3,1,1,0,0,0-.28.72.86.86,0,0,0,.17.53,1.43,1.43,0,0,0,.42.35q.24.13.69.33a7.17,7.17,0,0,1,.88.44,2.06,2.06,0,0,1,.6.58,1.83,1.83,0,0,1-.27,2.23,2.1,2.1,0,0,1-1.45.48A2.12,2.12,0,0,1,30.53,14.09Z"/>
      <path class="cls-9" d="M37.29,8.59h-1a.05.05,0,0,0-.06.06v4a1.24,1.24,0,0,0,.21.83.83.83,0,0,0,.64.22h.13c.08,0,.13,0,.13.12v.56a.12.12,0,0,1-.13.13H36.9a1.76,1.76,0,0,1-1.16-.33,1.6,1.6,0,0,1-.4-1.25V8.65s0-.06-.05-.06h-.51a.12.12,0,0,1-.13-.13V8a.12.12,0,0,1,.13-.13h.51s.05,0,.05-.06V6.4a.12.12,0,0,1,.13-.13h.65c.09,0,.13,0,.13.13V7.85a.05.05,0,0,0,.06.06h1c.09,0,.13,0,.13.13v.42C37.42,8.55,37.38,8.59,37.29,8.59Z"/>
      <path class="cls-9" d="M42,8.39A2.27,2.27,0,0,1,42.51,10v4.38a.12.12,0,0,1-.13.13h-.67a.12.12,0,0,1-.13-.13V14s0,0,0,0,0,0,0,0a1.68,1.68,0,0,1-1.44.64,2,2,0,0,1-1.25-.41,1.74,1.74,0,0,1-.52-1.45,2,2,0,0,1,.63-1.62,2.63,2.63,0,0,1,1.68-.51h.91s0,0,0-.06V10a1.65,1.65,0,0,0-.3-1,1,1,0,0,0-.8-.39.93.93,0,0,0-.67.26,1,1,0,0,0-.33.66.12.12,0,0,1-.13.13h-.73a.15.15,0,0,1-.1,0,.1.1,0,0,1,0-.09,1.75,1.75,0,0,1,.63-1.24A2,2,0,0,1,40.5,7.8,1.9,1.9,0,0,1,42,8.39Zm-.77,5a1.21,1.21,0,0,0,.39-1V11.39s0-.05,0-.05h-.92a1.41,1.41,0,0,0-1,.33,1.27,1.27,0,0,0-.36,1,1.13,1.13,0,0,0,.28.85,1,1,0,0,0,.73.28A1.33,1.33,0,0,0,41.19,13.44Z"/>
      <path class="cls-9" d="M47.51,8.34A2.06,2.06,0,0,1,48,9.79V12.6a2.08,2.08,0,0,1-.5,1.44,1.71,1.71,0,0,1-1.32.55,1.76,1.76,0,0,1-.68-.14,1.54,1.54,0,0,1-.57-.41s0,0,0,0a.05.05,0,0,0,0,0v.28c0,.09,0,.13-.13.13h-.66c-.09,0-.13,0-.13-.13V5.51a.12.12,0,0,1,.13-.13h.66a.12.12,0,0,1,.13.13V8.32s0,0,0,0,0,0,.05,0a1.57,1.57,0,0,1,.56-.39,1.76,1.76,0,0,1,.68-.14A1.73,1.73,0,0,1,47.51,8.34ZM46.77,9A1.05,1.05,0,0,0,46,8.61a1,1,0,0,0-.78.34,1.33,1.33,0,0,0-.3.91v2.69a1.31,1.31,0,0,0,.3.89,1,1,0,0,0,.78.34,1.05,1.05,0,0,0,.82-.34,1.27,1.27,0,0,0,.31-.89V9.86A1.29,1.29,0,0,0,46.77,9Z"/>
      <path class="cls-9" d="M49.37,14.35V5.51a.12.12,0,0,1,.13-.13h.66a.12.12,0,0,1,.13.13v8.84c0,.09,0,.13-.13.13H49.5C49.41,14.48,49.37,14.44,49.37,14.35Z"/>
      <path class="cls-9" d="M55.6,11.55h-3s-.05,0-.05,0v1a1.27,1.27,0,0,0,.31.89,1,1,0,0,0,.8.34,1.06,1.06,0,0,0,.71-.25,1.22,1.22,0,0,0,.38-.66.14.14,0,0,1,.14-.12l.65,0a.1.1,0,0,1,.09,0,.1.1,0,0,1,0,.1,1.86,1.86,0,0,1-.63,1.22,2,2,0,0,1-1.37.45A2,2,0,0,1,52.21,14a1.91,1.91,0,0,1-.55-1.44V9.79a1.94,1.94,0,0,1,.55-1.44,2.27,2.27,0,0,1,3,0,2,2,0,0,1,.56,1.44v1.63A.12.12,0,0,1,55.6,11.55ZM52.89,9a1.29,1.29,0,0,0-.31.91v.87a0,0,0,0,0,.05,0h2.14a0,0,0,0,0,0,0V9.86A1.34,1.34,0,0,0,54.51,9a1.06,1.06,0,0,0-.82-.34A1,1,0,0,0,52.89,9Z"/>
      <path class="cls-9" d="M56.73,14.35v-.62a.33.33,0,0,1,0-.17l2.66-4.74a.11.11,0,0,0,0-.05l0,0h-2.5c-.09,0-.13,0-.13-.13V8c0-.09,0-.13.13-.13h3.51c.09,0,.13,0,.13.13v.62a.33.33,0,0,1,0,.17l-2.69,4.74a0,0,0,0,0,0,0l0,0h2.59a.12.12,0,0,1,.13.13v.58a.12.12,0,0,1-.13.13H56.86C56.77,14.48,56.73,14.44,56.73,14.35Z"/>
      <path class="cls-9" d="M62.2,14a1.92,1.92,0,0,1-.56-1.44V9.79a2,2,0,0,1,.56-1.44,2,2,0,0,1,1.47-.55,2.21,2.21,0,0,1,1.08.25,1.77,1.77,0,0,1,.72.66,1.65,1.65,0,0,1,.25.9v.13c0,.09,0,.13-.13.13l-.66,0c-.09,0-.13-.05-.13-.14V9.67a1,1,0,0,0-.32-.74,1.06,1.06,0,0,0-.81-.32,1,1,0,0,0-.8.34,1.33,1.33,0,0,0-.3.91v2.67a1.33,1.33,0,0,0,.3.91,1,1,0,0,0,.8.34,1.06,1.06,0,0,0,.81-.32,1,1,0,0,0,.32-.74v-.1c0-.08,0-.12.13-.12h.66c.09,0,.13,0,.13.13v.14a1.65,1.65,0,0,1-.56,1.29,2.1,2.1,0,0,1-1.49.52A2,2,0,0,1,62.2,14Z"/>
      <path class="cls-9" d="M70.39,8.39A2.22,2.22,0,0,1,70.94,10v4.38a.12.12,0,0,1-.13.13h-.67a.12.12,0,0,1-.13-.13V14a0,0,0,0,0,0,0,.06.06,0,0,0,0,0,1.68,1.68,0,0,1-1.44.64,2,2,0,0,1-1.25-.41,1.74,1.74,0,0,1-.52-1.45,1.94,1.94,0,0,1,.64-1.62,2.58,2.58,0,0,1,1.67-.51H70s.05,0,.05-.06V10a1.65,1.65,0,0,0-.29-1,1,1,0,0,0-.81-.39.93.93,0,0,0-.67.26,1,1,0,0,0-.33.66c0,.09,0,.13-.13.13h-.73a.15.15,0,0,1-.1,0,.1.1,0,0,1,0-.09,1.75,1.75,0,0,1,.63-1.24,2,2,0,0,1,1.38-.48A1.89,1.89,0,0,1,70.39,8.39Zm-.77,5a1.21,1.21,0,0,0,.39-1V11.39s0-.05-.05-.05H69a1.41,1.41,0,0,0-1,.33,1.27,1.27,0,0,0-.36,1,1.13,1.13,0,0,0,.28.85,1,1,0,0,0,.73.28A1.33,1.33,0,0,0,69.62,13.44Z"/>
      <path class="cls-9" d="M78.78,11.55h-3s0,0,0,0v1a1.27,1.27,0,0,0,.31.89,1,1,0,0,0,.8.34,1,1,0,0,0,.7-.25,1.17,1.17,0,0,0,.39-.66.14.14,0,0,1,.14-.12l.65,0a.1.1,0,0,1,.09,0,.1.1,0,0,1,0,.1,1.86,1.86,0,0,1-.63,1.22,2,2,0,0,1-1.37.45A2,2,0,0,1,75.39,14a1.91,1.91,0,0,1-.55-1.44V9.79a1.94,1.94,0,0,1,.55-1.44,2.27,2.27,0,0,1,3,0,2,2,0,0,1,.56,1.44v1.63A.12.12,0,0,1,78.78,11.55ZM76.07,9a1.29,1.29,0,0,0-.31.91v.87a0,0,0,0,0,0,0h2.13s.06,0,.06,0V9.86A1.29,1.29,0,0,0,77.68,9a1,1,0,0,0-.81-.34A1,1,0,0,0,76.07,9Z"/>
      <path class="cls-9" d="M80.19,14.35V5.51a.12.12,0,0,1,.13-.13H81a.12.12,0,0,1,.13.13v8.84a.12.12,0,0,1-.13.13h-.67A.12.12,0,0,1,80.19,14.35Z"/>
      <path class="cls-9" d="M23.6,26A2.26,2.26,0,0,1,23,24.34V19.52a2.23,2.23,0,0,1,.61-1.63,2.14,2.14,0,0,1,1.6-.61,2.09,2.09,0,0,1,2.23,2.24v.22a.12.12,0,0,1-.13.13l-.68,0a.12.12,0,0,1-.13-.13v-.33a1.41,1.41,0,0,0-.35-1,1.37,1.37,0,0,0-1.87,0,1.41,1.41,0,0,0-.35,1v5a1.4,1.4,0,0,0,.35,1,1.34,1.34,0,0,0,1.87,0,1.4,1.4,0,0,0,.35-1v-.33a.12.12,0,0,1,.13-.13l.68,0a.12.12,0,0,1,.13.13v.21A2.26,2.26,0,0,1,26.82,26a2.23,2.23,0,0,1-1.62.61A2.18,2.18,0,0,1,23.6,26Z"/>
      <path class="cls-9" d="M32.25,20.39A2.27,2.27,0,0,1,32.8,22v4.38a.12.12,0,0,1-.13.13H32a.12.12,0,0,1-.13-.13V26s0,0,0,0a0,0,0,0,0,0,0,1.68,1.68,0,0,1-1.45.64,2,2,0,0,1-1.24-.41,1.74,1.74,0,0,1-.52-1.45,2,2,0,0,1,.63-1.62,2.63,2.63,0,0,1,1.68-.51h.91s.05,0,.05-.06V22a1.65,1.65,0,0,0-.3-1,1,1,0,0,0-.8-.39.91.91,0,0,0-.67.26,1,1,0,0,0-.33.66.12.12,0,0,1-.13.13h-.73a.15.15,0,0,1-.1,0,.1.1,0,0,1,0-.09,1.71,1.71,0,0,1,.63-1.24,2,2,0,0,1,1.37-.48A1.9,1.9,0,0,1,32.25,20.39Zm-.77,5.05a1.21,1.21,0,0,0,.39-1V23.39a0,0,0,0,0-.05-.05H30.9a1.41,1.41,0,0,0-1,.33,1.27,1.27,0,0,0-.36,1,1.13,1.13,0,0,0,.28.85,1,1,0,0,0,.73.28A1.33,1.33,0,0,0,31.48,25.44Z"/>
      <path class="cls-9" d="M34.16,26.35V17.51a.12.12,0,0,1,.13-.13H35a.12.12,0,0,1,.13.13v8.84c0,.09,0,.13-.13.13h-.66C34.2,26.48,34.16,26.44,34.16,26.35Z"/>
      <path class="cls-9" d="M40.39,23.55h-3s-.05,0-.05.05v.95a1.27,1.27,0,0,0,.31.89,1,1,0,0,0,.8.34,1.06,1.06,0,0,0,.71-.25,1.22,1.22,0,0,0,.38-.66.14.14,0,0,1,.14-.12l.65,0a.1.1,0,0,1,.09,0,.1.1,0,0,1,0,.1,1.86,1.86,0,0,1-.63,1.22,2,2,0,0,1-1.37.45A2,2,0,0,1,37,26a1.91,1.91,0,0,1-.55-1.44V21.79A1.94,1.94,0,0,1,37,20.35a2,2,0,0,1,1.48-.55,2.06,2.06,0,0,1,1.49.55,2,2,0,0,1,.55,1.44v1.63A.12.12,0,0,1,40.39,23.55ZM37.68,21a1.29,1.29,0,0,0-.31.91v.87a0,0,0,0,0,.05.05h2.14a0,0,0,0,0,0-.05v-.87A1.34,1.34,0,0,0,39.3,21a1.06,1.06,0,0,0-.82-.34A1,1,0,0,0,37.68,21Z"/>
      <path class="cls-9" d="M45.45,20.36a2.39,2.39,0,0,1,.44,1.52v4.47a.12.12,0,0,1-.13.13h-.67a.12.12,0,0,1-.13-.13V22a1.55,1.55,0,0,0-.28-1,.93.93,0,0,0-.77-.35,1,1,0,0,0-.81.38,1.59,1.59,0,0,0-.29,1v4.33a.12.12,0,0,1-.13.13H42a.12.12,0,0,1-.13-.13V20a.12.12,0,0,1,.13-.13h.67a.12.12,0,0,1,.13.13v.41s0,0,0,0,0,0,0,0a1.53,1.53,0,0,1,.59-.48,1.8,1.8,0,0,1,.76-.17A1.5,1.5,0,0,1,45.45,20.36Z"/>
      <path class="cls-9" d="M49.58,20.59h-1s-.05,0-.05.06v4a1.24,1.24,0,0,0,.21.83.82.82,0,0,0,.63.22h.13c.09,0,.13,0,.13.12v.56c0,.09,0,.13-.13.13h-.32A1.81,1.81,0,0,1,48,26.15a1.6,1.6,0,0,1-.39-1.25V20.65s0-.06-.05-.06h-.51c-.09,0-.13,0-.13-.13V20c0-.09,0-.13.13-.13h.51s.05,0,.05-.06V18.4c0-.09,0-.13.13-.13h.65c.09,0,.13,0,.13.13v1.45s0,.06.05.06h1c.09,0,.13,0,.13.13v.42C49.71,20.55,49.67,20.59,49.58,20.59Z"/>
      <path class="cls-9" d="M54.25,20.39A2.26,2.26,0,0,1,54.79,22v4.38c0,.09,0,.13-.13.13H54c-.09,0-.13,0-.13-.13V26s0,0,0,0a.06.06,0,0,0-.05,0,1.68,1.68,0,0,1-1.44.64,2,2,0,0,1-1.24-.41,1.74,1.74,0,0,1-.53-1.45,2,2,0,0,1,.64-1.62,2.59,2.59,0,0,1,1.68-.51h.91s0,0,0-.06V22a1.65,1.65,0,0,0-.3-1,1,1,0,0,0-.81-.39.93.93,0,0,0-.67.26,1.1,1.1,0,0,0-.33.66c0,.09,0,.13-.13.13H50.9a.13.13,0,0,1-.09,0,.1.1,0,0,1,0-.09,1.74,1.74,0,0,1,.62-1.24,2,2,0,0,1,1.38-.48A1.91,1.91,0,0,1,54.25,20.39Zm-.77,5.05a1.21,1.21,0,0,0,.39-1V23.39a0,0,0,0,0,0-.05h-.93a1.4,1.4,0,0,0-1,.33,1.24,1.24,0,0,0-.37,1,1.13,1.13,0,0,0,.28.85,1,1,0,0,0,.74.28A1.34,1.34,0,0,0,53.48,25.44Z"/>
      <path class="cls-9" d="M59.35,17.38H60a.12.12,0,0,1,.13.13v8.84a.12.12,0,0,1-.13.13h-.67a.12.12,0,0,1-.13-.13v-.28s0,0,0,0,0,0-.05,0a1.6,1.6,0,0,1-1.25.55A1.71,1.71,0,0,1,56.59,26a2.08,2.08,0,0,1-.5-1.44V21.79a2.06,2.06,0,0,1,.5-1.45,1.7,1.7,0,0,1,1.32-.54,1.58,1.58,0,0,1,1.25.56s0,0,.05,0,0,0,0,0V17.51A.12.12,0,0,1,59.35,17.38Zm-.43,8.06a1.31,1.31,0,0,0,.3-.89V21.86a1.33,1.33,0,0,0-.3-.91,1,1,0,0,0-.79-.34,1,1,0,0,0-.81.34,1.29,1.29,0,0,0-.32.91v2.69a1.28,1.28,0,0,0,.32.89,1,1,0,0,0,.81.34A1,1,0,0,0,58.92,25.44Z"/>
      <path class="cls-9" d="M62.14,26a1.91,1.91,0,0,1-.55-1.44V21.8a2,2,0,0,1,.56-1.44,2,2,0,0,1,1.48-.56,2,2,0,0,1,1.5.56,2,2,0,0,1,.56,1.44v2.8A1.92,1.92,0,0,1,65.13,26a2,2,0,0,1-1.5.55A2,2,0,0,1,62.14,26Zm2.3-.61a1.21,1.21,0,0,0,.32-.9V21.86a1.25,1.25,0,0,0-.32-.91,1,1,0,0,0-.81-.34,1,1,0,0,0-.8.34,1.29,1.29,0,0,0-.32.91v2.67a1.25,1.25,0,0,0,.32.9,1,1,0,0,0,.8.34A1,1,0,0,0,64.44,25.43Z"/>
      <path class="cls-9" d="M69.91,20a.16.16,0,0,1,.07.17l-.16.68c0,.08-.06.1-.16.08a.75.75,0,0,0-.39-.08h-.15a1,1,0,0,0-.77.49,2,2,0,0,0-.3,1.12v3.9c0,.09,0,.13-.13.13h-.66c-.09,0-.13,0-.13-.13V20c0-.09,0-.13.13-.13h.66c.09,0,.13,0,.13.13v.78s0,0,0,0a.06.06,0,0,0,.05,0,1.29,1.29,0,0,1,1.23-1A1.11,1.11,0,0,1,69.91,20Z"/>
      <path class="cls-9" d="M76.64,17.38h.67a.12.12,0,0,1,.13.13v8.84a.12.12,0,0,1-.13.13h-.67a.12.12,0,0,1-.13-.13v-.28s0,0,0,0,0,0,0,0a1.6,1.6,0,0,1-1.25.55A1.7,1.7,0,0,1,73.88,26a2.08,2.08,0,0,1-.5-1.44V21.79a2.06,2.06,0,0,1,.5-1.45,1.69,1.69,0,0,1,1.32-.54,1.58,1.58,0,0,1,1.25.56s0,0,0,0,0,0,0,0V17.51A.12.12,0,0,1,76.64,17.38Zm-.43,8.06a1.31,1.31,0,0,0,.3-.89V21.86a1.33,1.33,0,0,0-.3-.91,1,1,0,0,0-.79-.34,1,1,0,0,0-.81.34,1.29,1.29,0,0,0-.32.91v2.69a1.28,1.28,0,0,0,.32.89,1,1,0,0,0,.81.34A1,1,0,0,0,76.21,25.44Z"/>
      <path class="cls-9" d="M82.82,23.55h-3s-.06,0-.06.05v.95a1.32,1.32,0,0,0,.31.89,1,1,0,0,0,.8.34,1,1,0,0,0,.71-.25,1.22,1.22,0,0,0,.38-.66c0-.08.07-.12.14-.12l.65,0a.1.1,0,0,1,.09,0,.1.1,0,0,1,0,.1,1.86,1.86,0,0,1-.63,1.22,2,2,0,0,1-1.37.45A2,2,0,0,1,79.43,26a1.91,1.91,0,0,1-.55-1.44V21.79a1.94,1.94,0,0,1,.55-1.44,2,2,0,0,1,1.48-.55,2.06,2.06,0,0,1,1.49.55A2,2,0,0,1,83,21.79v1.63A.12.12,0,0,1,82.82,23.55ZM80.11,21a1.34,1.34,0,0,0-.31.91v.87s0,.05.06.05H82a0,0,0,0,0,.05-.05v-.87a1.29,1.29,0,0,0-.31-.91,1.05,1.05,0,0,0-.82-.34A1,1,0,0,0,80.11,21Z"/>
      <path class="cls-9" d="M32.84,38.37l-.32-1.62s0,0,0,0l0,0H30.1l-.05,0s0,0,0,0l-.32,1.62a.13.13,0,0,1-.14.11H28.9a.13.13,0,0,1-.1,0,.11.11,0,0,1,0-.1l1.95-8.84a.13.13,0,0,1,.14-.12h.78a.13.13,0,0,1,.14.12l2,8.84v0c0,.07,0,.11-.12.11H33A.14.14,0,0,1,32.84,38.37ZM30.24,36H32.3s0,0,0-.05l-1-5.11s0,0,0,0,0,0,0,0l-1,5.11A0,0,0,0,0,30.24,36Z"/>
      <path class="cls-9" d="M37.85,31.91h.66c.09,0,.13,0,.13.13v6.31A3.14,3.14,0,0,1,38,40.47a2.6,2.6,0,0,1-2.16.65.13.13,0,0,1-.13-.14v-.56a.12.12,0,0,1,.13-.13,1.75,1.75,0,0,0,1.46-.47,2.38,2.38,0,0,0,.42-1.54v-.39a.05.05,0,0,0,0,0s0,0-.05,0a1.46,1.46,0,0,1-.56.49,1.58,1.58,0,0,1-.74.17A1.63,1.63,0,0,1,35.06,38a2.13,2.13,0,0,1-.48-1.45V33.79a2.1,2.1,0,0,1,.48-1.45,1.63,1.63,0,0,1,1.29-.54,1.86,1.86,0,0,1,.74.16,1.54,1.54,0,0,1,.56.49s0,0,.05,0,0,0,0,0V32C37.72,32,37.76,31.91,37.85,31.91Zm-.44,5.46a1.3,1.3,0,0,0,.31-.89V33.86a1.34,1.34,0,0,0-.31-.91,1,1,0,0,0-.79-.34,1,1,0,0,0-.8.34,1.29,1.29,0,0,0-.31.91v2.62a1.25,1.25,0,0,0,.31.89,1,1,0,0,0,.8.35A1,1,0,0,0,37.41,37.37Z"/>
      <path class="cls-9" d="M43.23,31.91h.66c.09,0,.13,0,.13.13v6.31c0,.09,0,.13-.13.13h-.66c-.09,0-.13,0-.13-.13v-.44s0,0,0,0l0,0a1.39,1.39,0,0,1-1.3.67,1.64,1.64,0,0,1-1.24-.47A2,2,0,0,1,40,36.66V32c0-.09,0-.13.13-.13h.66c.09,0,.13,0,.13.13v4.42a1.53,1.53,0,0,0,.27,1,.94.94,0,0,0,.77.33,1,1,0,0,0,.82-.38,1.66,1.66,0,0,0,.29-1V32C43.1,32,43.14,31.91,43.23,31.91Z"/>
      <path class="cls-9" d="M49,32.39A2.26,2.26,0,0,1,49.53,34v4.38c0,.09,0,.13-.13.13h-.66c-.09,0-.13,0-.13-.13V38l0,0a.06.06,0,0,0-.05,0,1.68,1.68,0,0,1-1.44.64,2,2,0,0,1-1.24-.41,1.74,1.74,0,0,1-.53-1.45A2,2,0,0,1,46,35.11a2.61,2.61,0,0,1,1.68-.51h.91s0,0,0-.06V34a1.65,1.65,0,0,0-.3-1,1,1,0,0,0-.81-.39.9.9,0,0,0-.66.26,1.06,1.06,0,0,0-.34.66c0,.09,0,.13-.13.13h-.72a.13.13,0,0,1-.1,0,.1.1,0,0,1,0-.09,1.74,1.74,0,0,1,.62-1.24,2.05,2.05,0,0,1,1.38-.48A1.91,1.91,0,0,1,49,32.39Zm-.77,5a1.21,1.21,0,0,0,.39-1V35.39a0,0,0,0,0,0,0h-.93a1.4,1.4,0,0,0-1,.33,1.24,1.24,0,0,0-.37,1,1.17,1.17,0,0,0,.28.85,1,1,0,0,0,.74.28A1.34,1.34,0,0,0,48.22,37.44Z"/>
      <path class="cls-9" d="M57,32.39A2.26,2.26,0,0,1,57.5,34v4.38c0,.09,0,.13-.13.13h-.66c-.09,0-.13,0-.13-.13V38l0,0a.06.06,0,0,0-.05,0,1.68,1.68,0,0,1-1.44.64,2,2,0,0,1-1.24-.41,1.74,1.74,0,0,1-.53-1.45,2,2,0,0,1,.64-1.62,2.59,2.59,0,0,1,1.68-.51h.91s0,0,0-.06V34a1.65,1.65,0,0,0-.3-1,1,1,0,0,0-.81-.39.93.93,0,0,0-.67.26,1.1,1.1,0,0,0-.33.66c0,.09,0,.13-.13.13h-.73a.13.13,0,0,1-.09,0,.1.1,0,0,1,0-.09,1.74,1.74,0,0,1,.62-1.24,2,2,0,0,1,1.38-.48A1.91,1.91,0,0,1,57,32.39Zm-.77,5a1.21,1.21,0,0,0,.39-1V35.39a0,0,0,0,0,0,0H55.6a1.4,1.4,0,0,0-1,.33,1.24,1.24,0,0,0-.37,1,1.13,1.13,0,0,0,.28.85,1,1,0,0,0,.74.28A1.34,1.34,0,0,0,56.19,37.44Z"/>
      <path class="cls-9" d="M65.86,35.29v.57a.12.12,0,0,1-.13.13h-.4s0,0,0,0v2.31a.12.12,0,0,1-.13.13h-.67a.12.12,0,0,1-.13-.13V36s0,0,0,0H61.17a.12.12,0,0,1-.13-.13v-.5s0-.08,0-.15L63,29.49a.16.16,0,0,1,.16-.11h.71c.1,0,.14.05.11.15l-1.87,5.56a0,0,0,0,0,0,0l0,0H64.3s0,0,0-.06v-2a.12.12,0,0,1,.13-.13h.67a.12.12,0,0,1,.13.13v2s0,.06,0,.06h.4C65.82,35.16,65.86,35.2,65.86,35.29Z"/>
      <path class="cls-9" d="M70.7,36.36A2.22,2.22,0,0,1,70.12,38a2,2,0,0,1-1.5.61,1.82,1.82,0,0,1-1.4-.61,2.32,2.32,0,0,1-.55-1.62v-.2c0-.09,0-.13.13-.13h.66c.09,0,.13,0,.13.13v.18a1.65,1.65,0,0,0,.3,1,.9.9,0,0,0,.73.4,1,1,0,0,0,.83-.39,1.6,1.6,0,0,0,.31-1V34.6a.05.05,0,0,0,0,0l0,0a1.14,1.14,0,0,1-.47.4,1.47,1.47,0,0,1-.64.14,1.82,1.82,0,0,1-1.3-.48,2.33,2.33,0,0,1-.65-1.33,5.9,5.9,0,0,1-.1-1.16,6.79,6.79,0,0,1,0-1,2.24,2.24,0,0,1,.63-1.42,2,2,0,0,1,1.4-.49,1.94,1.94,0,0,1,1.32.45,2.08,2.08,0,0,1,.65,1.34,5,5,0,0,1,.09,1Zm-1-3.08a5.19,5.19,0,0,0,.08-1.06,7.16,7.16,0,0,0-.06-1q-.23-1.11-1.08-1.11a1,1,0,0,0-.72.29,1.63,1.63,0,0,0-.37.89,6.65,6.65,0,0,0-.07.95,5.13,5.13,0,0,0,.12,1.12,1.3,1.3,0,0,0,.37.72.91.91,0,0,0,.67.25C69.18,34.31,69.54,34,69.68,33.28Z"/>
      <path class="cls-9" d="M75.31,38a2.22,2.22,0,0,1-.61-1.64V31.52a2.19,2.19,0,0,1,.61-1.63,2.13,2.13,0,0,1,1.6-.61,2.19,2.19,0,0,1,1.62.6,2.24,2.24,0,0,1,.6,1.64v.22a.12.12,0,0,1-.13.13l-.67,0a.12.12,0,0,1-.13-.13v-.33a1.41,1.41,0,0,0-.35-1,1.37,1.37,0,0,0-1.87,0,1.37,1.37,0,0,0-.36,1v5a1.36,1.36,0,0,0,.36,1,1.34,1.34,0,0,0,1.87,0,1.4,1.4,0,0,0,.35-1v-.33a.12.12,0,0,1,.13-.13L79,36c.09,0,.13,0,.13.13v.21A2.22,2.22,0,0,1,78.52,38a2.19,2.19,0,0,1-1.61.61A2.16,2.16,0,0,1,75.31,38Z"/>
    </g>
  </g>
  <g id="Layer_2" data-name="Layer 2">
    <polygon class="cls-9" points="35.8 59.7 34.8 59.7 34.8 51.6 24.9 51.6 24.9 28.8 25.9 28.8 25.9 50.6 35.8 50.6 35.8 59.7"/>
    <path class="cls-9" d="M35.4,64.5A2.5,2.5,0,1,1,37.9,62,2.48,2.48,0,0,1,35.4,64.5Zm0-4A1.5,1.5,0,1,0,36.9,62,1.54,1.54,0,0,0,35.4,60.5Z"/>
  </g>
</svg>
