<?xml version="1.0" encoding="utf-8"?>
<!-- Generator: Adobe Illustrator 25.4.1, SVG Export Plug-In . SVG Version: 6.00 Build 0)  -->
<svg version="1.1" xmlns="http://www.w3.org/2000/svg" xmlns:xlink="http://www.w3.org/1999/xlink" x="0px" y="0px"
	 viewBox="0 0 108.4 118.4" style="enable-background:new 0 0 108.4 118.4;" xml:space="preserve">
<style type="text/css">
	.st0{fill:#C7EAFB;}
	.st1{fill:#FFDE17;}
	.st2{clip-path:url(#SVGID_00000068654798287909373330000003155052433644634264_);}
	.st3{clip-path:url(#SVGID_00000165919195549457067920000004272736326882661515_);}
	.st4{clip-path:url(#SVGID_00000100376669934464400560000006959944406513825947_);}
	.st5{clip-path:url(#SVGID_00000127765504889738397270000006495421554897892007_);}
	.st6{fill:#6DCFF6;}
	.st7{fill:#E8E3DF;}
	.st8{fill:#00B3F0;}
	.st9{fill:#005E9E;}
	.st10{fill:#0072BC;}
</style>
<g id="Layer_3">
	<rect class="st0" width="108.4" height="118.4"/>
	<g>
		<g>
			<g>
				<path class="st1" d="M24.5,75.5c-1.6,0-3.1,0.4-4.4,1.1H29C27.6,75.9,26.1,75.5,24.5,75.5"/>
			</g>
		</g>
		<g>
			<g>
				<path class="st1" d="M24.5,94.7c2,0,3.9-0.6,5.4-1.7H19C20.6,94.1,22.5,94.7,24.5,94.7"/>
			</g>
		</g>
		<g>
			<g>
				<path class="st1" d="M81.6,94.5c1.9,0,3.6-0.6,5.1-1.5H76.5C78,94,79.7,94.5,81.6,94.5"/>
			</g>
		</g>
		<g>
			<g>
				<path class="st1" d="M81.6,75.3c-1.7,0-3.4,0.5-4.8,1.3h9.6C85,75.8,83.4,75.3,81.6,75.3"/>
			</g>
		</g>
		<g>
			<g>
				<path class="st1" d="M72,84.9c0-3.6,2-6.7,4.8-8.3H28.9c3.1,1.6,5.2,4.8,5.2,8.5c0,3.3-1.7,6.2-4.2,8h46.6
					C73.8,91.3,72,88.3,72,84.9"/>
			</g>
		</g>
		<g>
			<g>
				<path class="st1" d="M34.1,85.1c0-3.7-2.1-6.9-5.2-8.5H20c-1.3,0.7-2.5,1.7-3.3,2.9v11.3c0.7,0.9,1.4,1.7,2.4,2.3H30
					C32.4,91.3,34.1,88.4,34.1,85.1"/>
			</g>
		</g>
		<g>
			<g>
				<path class="st1" d="M89.1,91V78.8c-0.7-0.9-1.6-1.7-2.7-2.3h-9.6c-2.9,1.7-4.8,4.8-4.8,8.3c0,3.4,1.8,6.4,4.5,8.1h10.3
					C87.6,92.5,88.4,91.8,89.1,91"/>
			</g>
		</g>
		<g>
			<g>
				<g>
					<g>
						<defs>
							<rect id="SVGID_1_" x="16.6" y="75.3" width="17.5" height="9.6"/>
						</defs>
						<clipPath id="SVGID_00000144322823895318742930000014660061414073420976_">
							<use xlink:href="#SVGID_1_"  style="overflow:visible;"/>
						</clipPath>
						<g style="clip-path:url(#SVGID_00000144322823895318742930000014660061414073420976_);">
							<g>
								<defs>
									<rect id="SVGID_00000011726291021198960260000008443871228631595672_" x="16.6" y="75.3" width="17.5" height="9.6"/>
								</defs>
								<clipPath id="SVGID_00000117635439026796046760000007417216565375123610_">
									<use xlink:href="#SVGID_00000011726291021198960260000008443871228631595672_"  style="overflow:visible;"/>
								</clipPath>
								<g style="clip-path:url(#SVGID_00000117635439026796046760000007417216565375123610_);">
									<path class="st1" d="M16.6,79.4c1.7-2.5,4.6-4.1,7.9-4.1c5.3,0,9.6,4.3,9.6,9.6H16.7"/>
								</g>
							</g>
						</g>
					</g>
				</g>
			</g>
		</g>
		<g>
			<g>
				<g>
					<g>
						<defs>
							<rect id="SVGID_00000178887901569312012910000000639903905003655100_" x="72" y="75.1" width="17.2" height="9.6"/>
						</defs>
						<clipPath id="SVGID_00000000216194157914126430000003002796661085019286_">
							<use xlink:href="#SVGID_00000178887901569312012910000000639903905003655100_"  style="overflow:visible;"/>
						</clipPath>
						<g style="clip-path:url(#SVGID_00000000216194157914126430000003002796661085019286_);">
							<g>
								<defs>
									<rect id="SVGID_00000083079808589524847120000015854896980647791256_" x="72" y="75.1" width="17.2" height="9.6"/>
								</defs>
								<clipPath id="SVGID_00000166659556355060249870000012020493172614845370_">
									<use xlink:href="#SVGID_00000083079808589524847120000015854896980647791256_"  style="overflow:visible;"/>
								</clipPath>
								<g style="clip-path:url(#SVGID_00000166659556355060249870000012020493172614845370_);">
									<path class="st1" d="M89.1,84.8H72c0-5.3,4.3-9.6,9.6-9.6c3,0,5.8,1.4,7.5,3.6"/>
								</g>
							</g>
						</g>
					</g>
				</g>
			</g>
		</g>
		<g>
			<g>
				<rect x="51.6" y="47.7" class="st6" width="3.5" height="15.6"/>
			</g>
		</g>
		<g>
			<g>
				<rect x="24.5" y="65.4" class="st7" width="57.1" height="39.6"/>
			</g>
		</g>
		<g>
			<g>
				<rect x="24.5" y="65.4" class="st6" width="57.1" height="39.6"/>
			</g>
		</g>
		<g>
			<g>
				<rect x="32.6" y="84.6" class="st8" width="41.4" height="14.3"/>
			</g>
		</g>
		<g>
			<g>
				<rect x="31.9" y="85" class="st9" width="1.5" height="14.3"/>
			</g>
		</g>
		<g>
			<g>
				<rect x="37" y="85" class="st9" width="1.5" height="14.3"/>
			</g>
		</g>
		<g>
			<g>
				<rect x="42.2" y="85" class="st9" width="1.5" height="14.3"/>
			</g>
		</g>
		<g>
			<g>
				<rect x="47.4" y="85" class="st9" width="1.5" height="14.3"/>
			</g>
		</g>
		<g>
			<g>
				<rect x="52.6" y="85" class="st9" width="1.5" height="14.3"/>
			</g>
		</g>
		<g>
			<g>
				<rect x="57.7" y="85" class="st9" width="1.5" height="14.3"/>
			</g>
		</g>
		<g>
			<g>
				<rect x="62.9" y="85" class="st9" width="1.5" height="14.3"/>
			</g>
		</g>
		<g>
			<g>
				<rect x="68.1" y="85" class="st9" width="1.5" height="14.3"/>
			</g>
		</g>
		<g>
			<g>
				<rect x="73.3" y="85" class="st9" width="1.5" height="14.3"/>
			</g>
		</g>
		<g>
			<g>
				<path class="st0" d="M73.8,98c-1.1-4.1-3.9-7.5-5.9-8.2c-0.9-0.3-1.5,0.6-2.5,2.1c-0.9,1.3-1.8,2.8-3.4,3.6
					c-2,1-3.1-0.6-4.4-2.6c-0.9-1.4-2-3-3.6-4.1c-2.1-1.4-3.5,0.5-5,2.4c-1.1,1.5-2.3,3-3.8,3.1c-2,0.1-2.7-1-3.4-2.2
					c-0.6-1-1.2-2-2.6-2.4c-2.4-0.7-5.5,5.3-6.4,7.7l-0.5-0.2c0.1-0.4,3.7-9,7-8c1.6,0.5,2.2,1.6,2.8,2.6c0.7,1.2,1.3,2.1,2.9,1.9
					c1.3-0.1,2.4-1.5,3.4-2.9c1.5-2,3.2-4.2,5.7-2.6c1.7,1.1,2.8,2.8,3.8,4.2c1.4,2.1,2.2,3.2,3.7,2.4c1.4-0.7,2.4-2.2,3.2-3.5
					c1-1.5,1.8-2.7,3.1-2.3c2.3,0.8,5.1,4.7,6.2,8.6L73.8,98z"/>
			</g>
		</g>
		<g>
			<g>
				<path class="st10" d="M76.2,101.1H30.4V82.3h45.9v18.8H76.2z M34.8,96.6h36.9v-9.8H34.8V96.6z"/>
			</g>
		</g>
	</g>
	<g>
		<path class="st1" d="M56.8,47.7c0,1.9-1.5,3.5-3.5,3.5c-1.9,0-3.5-1.5-3.5-3.5c0-1.9,1.5-3.5,3.5-3.5
			C55.2,44.2,56.8,45.7,56.8,47.7"/>
	</g>
	<g>
		<path class="st1" d="M58.7,81.8H47.9V62.3c0-0.5,0.4-0.9,0.9-0.9h9c0.5,0,0.9,0.4,0.9,0.9L58.7,81.8z"/>
	</g>
	<g>
		<path class="st0" d="M43.3,79.8h-5.2V69.1h5.2V79.8z M39.6,78.3h2.2v-7.7h-2.2V78.3z"/>
	</g>
	<g>
		<path class="st0" d="M68.5,79.8h-5.2V69.1h5.2V79.8z M64.8,78.3H67v-7.7h-2.2V78.3z"/>
	</g>
	<g>
		<path class="st9" d="M28.9,6.2h-3c0,0-0.1,0-0.1,0.1v3.2c0,0,0,0.1,0.1,0.1h1.9c0.1,0,0.1,0,0.1,0.1v0.6c0,0.1,0,0.1-0.1,0.1h-1.9
			c0,0-0.1,0-0.1,0.1v3.2c0,0,0,0.1,0.1,0.1h3c0.1,0,0.1,0,0.1,0.1v0.5c0,0.1,0,0.1-0.1,0.1H25c-0.1,0-0.1,0-0.1-0.1V5.5
			c0-0.1,0-0.1,0.1-0.1h3.9c0.1,0,0.1,0,0.1,0.1v0.5C29,6.1,29,6.2,28.9,6.2z"/>
		<path class="st9" d="M30.5,14.1c-0.4-0.3-0.5-0.7-0.5-1.2v-0.1c0-0.1,0-0.1,0.1-0.1h0.6c0.1,0,0.1,0,0.1,0.1v0.1
			c0,0.3,0.1,0.5,0.3,0.7c0.2,0.2,0.5,0.3,0.8,0.3c0.3,0,0.6-0.1,0.8-0.3c0.2-0.2,0.3-0.4,0.3-0.7c0-0.2-0.1-0.4-0.2-0.6
			c-0.1-0.2-0.3-0.3-0.4-0.4c-0.2-0.1-0.4-0.2-0.7-0.3c-0.3-0.1-0.6-0.3-0.8-0.4s-0.4-0.3-0.6-0.6C30.1,10.3,30,10,30,9.6
			c0-0.6,0.2-1,0.5-1.3c0.3-0.3,0.8-0.5,1.4-0.5c0.6,0,1.1,0.2,1.4,0.5c0.3,0.3,0.5,0.8,0.5,1.3v0c0,0.1,0,0.1-0.1,0.1h-0.6
			c-0.1,0-0.1,0-0.1-0.1V9.6c0-0.3-0.1-0.5-0.3-0.7c-0.2-0.2-0.4-0.3-0.8-0.3s-0.6,0.1-0.7,0.3c-0.2,0.2-0.3,0.4-0.3,0.7
			c0,0.2,0.1,0.4,0.2,0.5c0.1,0.1,0.3,0.3,0.4,0.4c0.2,0.1,0.4,0.2,0.7,0.3c0.4,0.2,0.6,0.3,0.9,0.4c0.2,0.1,0.4,0.3,0.6,0.6
			c0.2,0.3,0.3,0.6,0.3,0.9c0,0.5-0.2,1-0.5,1.3c-0.4,0.3-0.8,0.5-1.4,0.5C31.4,14.5,30.9,14.4,30.5,14.1z"/>
		<path class="st9" d="M37.3,8.6h-1c0,0-0.1,0-0.1,0.1v4c0,0.4,0.1,0.7,0.2,0.8c0.1,0.2,0.4,0.2,0.6,0.2h0.1c0.1,0,0.1,0,0.1,0.1
			v0.6c0,0.1,0,0.1-0.1,0.1h-0.3c-0.5,0-0.9-0.1-1.2-0.3c-0.3-0.2-0.4-0.6-0.4-1.3V8.6c0,0,0-0.1-0.1-0.1h-0.5c-0.1,0-0.1,0-0.1-0.1
			V8c0-0.1,0-0.1,0.1-0.1h0.5c0,0,0.1,0,0.1-0.1V6.4c0-0.1,0-0.1,0.1-0.1h0.6c0.1,0,0.1,0,0.1,0.1v1.5c0,0,0,0.1,0.1,0.1h1
			c0.1,0,0.1,0,0.1,0.1v0.4C37.4,8.6,37.4,8.6,37.3,8.6z"/>
		<path class="st9" d="M42,8.4c0.4,0.4,0.5,0.9,0.5,1.6v4.4c0,0.1,0,0.1-0.1,0.1h-0.7c-0.1,0-0.1,0-0.1-0.1V14c0,0,0,0,0,0
			c0,0,0,0,0,0c-0.3,0.4-0.8,0.6-1.4,0.6c-0.5,0-0.9-0.1-1.2-0.4s-0.5-0.8-0.5-1.4c0-0.7,0.2-1.3,0.6-1.6c0.4-0.3,1-0.5,1.7-0.5h0.9
			c0,0,0.1,0,0.1-0.1V10c0-0.4-0.1-0.8-0.3-1c-0.2-0.3-0.5-0.4-0.8-0.4c-0.3,0-0.5,0.1-0.7,0.3c-0.2,0.2-0.3,0.4-0.3,0.7
			c0,0.1,0,0.1-0.1,0.1l-0.7,0c0,0-0.1,0-0.1,0s0-0.1,0-0.1c0-0.5,0.3-0.9,0.6-1.2s0.8-0.5,1.4-0.5C41.1,7.8,41.6,8,42,8.4z
			 M41.2,13.4c0.3-0.2,0.4-0.5,0.4-1v-1.1c0,0,0-0.1-0.1-0.1h-0.9c-0.4,0-0.7,0.1-1,0.3s-0.4,0.5-0.4,1c0,0.4,0.1,0.7,0.3,0.9
			c0.2,0.2,0.4,0.3,0.7,0.3C40.6,13.8,40.9,13.7,41.2,13.4z"/>
		<path class="st9" d="M47.5,8.3C47.8,8.7,48,9.2,48,9.8v2.8c0,0.6-0.2,1.1-0.5,1.4c-0.3,0.4-0.8,0.6-1.3,0.6c-0.2,0-0.5,0-0.7-0.1
			c-0.2-0.1-0.4-0.2-0.6-0.4c0,0,0,0,0,0c0,0,0,0,0,0v0.3c0,0.1,0,0.1-0.1,0.1h-0.7c-0.1,0-0.1,0-0.1-0.1V5.5c0-0.1,0-0.1,0.1-0.1
			h0.7c0.1,0,0.1,0,0.1,0.1v2.8c0,0,0,0,0,0c0,0,0,0,0.1,0c0.2-0.2,0.3-0.3,0.6-0.4c0.2-0.1,0.4-0.1,0.7-0.1
			C46.7,7.8,47.2,8,47.5,8.3z M46.8,9c-0.2-0.2-0.5-0.3-0.8-0.3c-0.3,0-0.6,0.1-0.8,0.3c-0.2,0.2-0.3,0.5-0.3,0.9v2.7
			c0,0.4,0.1,0.7,0.3,0.9c0.2,0.2,0.5,0.3,0.8,0.3c0.3,0,0.6-0.1,0.8-0.3s0.3-0.5,0.3-0.9V9.9C47.1,9.5,47,9.2,46.8,9z"/>
		<path class="st9" d="M49.4,14.4V5.5c0-0.1,0-0.1,0.1-0.1h0.7c0.1,0,0.1,0,0.1,0.1v8.8c0,0.1,0,0.1-0.1,0.1h-0.7
			C49.4,14.5,49.4,14.4,49.4,14.4z"/>
		<path class="st9" d="M55.6,11.5h-3c0,0-0.1,0-0.1,0.1v0.9c0,0.4,0.1,0.7,0.3,0.9s0.5,0.3,0.8,0.3c0.3,0,0.5-0.1,0.7-0.3
			c0.2-0.2,0.3-0.4,0.4-0.7c0-0.1,0.1-0.1,0.1-0.1l0.7,0c0,0,0.1,0,0.1,0s0,0.1,0,0.1c-0.1,0.5-0.3,0.9-0.6,1.2
			c-0.4,0.3-0.8,0.4-1.4,0.4c-0.6,0-1.1-0.2-1.5-0.5c-0.4-0.4-0.6-0.8-0.6-1.4V9.8c0-0.6,0.2-1.1,0.6-1.4c0.4-0.4,0.9-0.6,1.5-0.6
			c0.6,0,1.1,0.2,1.5,0.6c0.4,0.4,0.6,0.8,0.6,1.4v1.6C55.7,11.5,55.7,11.5,55.6,11.5z M52.9,9c-0.2,0.2-0.3,0.5-0.3,0.9v0.9
			c0,0,0,0.1,0.1,0.1h2.1c0,0,0.1,0,0.1-0.1V9.9c0-0.4-0.1-0.7-0.3-0.9c-0.2-0.2-0.5-0.3-0.8-0.3C53.4,8.6,53.1,8.7,52.9,9z"/>
		<path class="st9" d="M56.7,14.4v-0.6c0-0.1,0-0.1,0-0.2l2.7-4.7c0,0,0,0,0,0c0,0,0,0,0,0h-2.5c-0.1,0-0.1,0-0.1-0.1V8
			c0-0.1,0-0.1,0.1-0.1h3.5c0.1,0,0.1,0,0.1,0.1v0.6c0,0.1,0,0.1,0,0.2l-2.7,4.7c0,0,0,0,0,0c0,0,0,0,0,0h2.6c0.1,0,0.1,0,0.1,0.1
			v0.6c0,0.1,0,0.1-0.1,0.1h-3.6C56.8,14.5,56.7,14.4,56.7,14.4z"/>
		<path class="st9" d="M62.2,14c-0.4-0.4-0.6-0.8-0.6-1.4V9.8c0-0.6,0.2-1.1,0.6-1.4c0.4-0.4,0.9-0.6,1.5-0.6c0.4,0,0.8,0.1,1.1,0.2
			c0.3,0.2,0.6,0.4,0.7,0.7s0.3,0.6,0.3,0.9v0.1c0,0.1,0,0.1-0.1,0.1l-0.7,0c-0.1,0-0.1,0-0.1-0.1V9.7c0-0.3-0.1-0.5-0.3-0.7
			c-0.2-0.2-0.5-0.3-0.8-0.3S63.1,8.7,62.9,9c-0.2,0.2-0.3,0.5-0.3,0.9v2.7c0,0.4,0.1,0.7,0.3,0.9c0.2,0.2,0.5,0.3,0.8,0.3
			s0.6-0.1,0.8-0.3c0.2-0.2,0.3-0.5,0.3-0.7v-0.1c0-0.1,0-0.1,0.1-0.1l0.7,0c0.1,0,0.1,0,0.1,0.1v0.1c0,0.5-0.2,1-0.6,1.3
			c-0.4,0.3-0.9,0.5-1.5,0.5S62.6,14.4,62.2,14z"/>
		<path class="st9" d="M70.4,8.4c0.4,0.4,0.5,0.9,0.5,1.6v4.4c0,0.1,0,0.1-0.1,0.1h-0.7c-0.1,0-0.1,0-0.1-0.1V14c0,0,0,0,0,0
			c0,0,0,0,0,0c-0.3,0.4-0.8,0.6-1.4,0.6c-0.5,0-0.9-0.1-1.2-0.4c-0.4-0.3-0.5-0.8-0.5-1.4c0-0.7,0.2-1.3,0.6-1.6s1-0.5,1.7-0.5H70
			c0,0,0.1,0,0.1-0.1V10c0-0.4-0.1-0.8-0.3-1c-0.2-0.3-0.5-0.4-0.8-0.4c-0.3,0-0.5,0.1-0.7,0.3c-0.2,0.2-0.3,0.4-0.3,0.7
			c0,0.1,0,0.1-0.1,0.1l-0.7,0c0,0-0.1,0-0.1,0s0-0.1,0-0.1c0-0.5,0.3-0.9,0.6-1.2c0.4-0.3,0.8-0.5,1.4-0.5C69.5,7.8,70,8,70.4,8.4z
			 M69.6,13.4c0.3-0.2,0.4-0.5,0.4-1v-1.1c0,0,0-0.1-0.1-0.1H69c-0.4,0-0.7,0.1-1,0.3c-0.2,0.2-0.4,0.5-0.4,1c0,0.4,0.1,0.7,0.3,0.9
			c0.2,0.2,0.4,0.3,0.7,0.3C69.1,13.8,69.4,13.7,69.6,13.4z"/>
		<path class="st9" d="M78.8,11.5h-3c0,0-0.1,0-0.1,0.1v0.9c0,0.4,0.1,0.7,0.3,0.9c0.2,0.2,0.5,0.3,0.8,0.3c0.3,0,0.5-0.1,0.7-0.3
			c0.2-0.2,0.3-0.4,0.4-0.7c0-0.1,0.1-0.1,0.1-0.1l0.6,0c0,0,0.1,0,0.1,0c0,0,0,0.1,0,0.1c-0.1,0.5-0.3,0.9-0.6,1.2
			c-0.4,0.3-0.8,0.4-1.4,0.4c-0.6,0-1.1-0.2-1.5-0.5c-0.4-0.4-0.6-0.8-0.6-1.4V9.8c0-0.6,0.2-1.1,0.6-1.4s0.9-0.6,1.5-0.6
			c0.6,0,1.1,0.2,1.5,0.6s0.6,0.8,0.6,1.4v1.6C78.9,11.5,78.9,11.5,78.8,11.5z M76.1,9c-0.2,0.2-0.3,0.5-0.3,0.9v0.9
			c0,0,0,0.1,0.1,0.1h2.1c0,0,0.1,0,0.1-0.1V9.9c0-0.4-0.1-0.7-0.3-0.9c-0.2-0.2-0.5-0.3-0.8-0.3C76.5,8.6,76.3,8.7,76.1,9z"/>
		<path class="st9" d="M80.2,14.4V5.5c0-0.1,0-0.1,0.1-0.1H81c0.1,0,0.1,0,0.1,0.1v8.8c0,0.1,0,0.1-0.1,0.1h-0.7
			C80.2,14.5,80.2,14.4,80.2,14.4z"/>
		<path class="st9" d="M23.6,26c-0.4-0.4-0.6-1-0.6-1.6v-4.8c0-0.7,0.2-1.2,0.6-1.6c0.4-0.4,0.9-0.6,1.6-0.6c0.7,0,1.2,0.2,1.6,0.6
			c0.4,0.4,0.6,0.9,0.6,1.6v0.2c0,0.1,0,0.1-0.1,0.1l-0.7,0c-0.1,0-0.1,0-0.1-0.1v-0.3c0-0.4-0.1-0.7-0.4-1
			c-0.2-0.3-0.5-0.4-0.9-0.4c-0.4,0-0.7,0.1-0.9,0.4c-0.2,0.3-0.4,0.6-0.4,1v5c0,0.4,0.1,0.7,0.4,1c0.2,0.3,0.5,0.4,0.9,0.4
			c0.4,0,0.7-0.1,0.9-0.4c0.2-0.3,0.4-0.6,0.4-1v-0.3c0-0.1,0-0.1,0.1-0.1l0.7,0c0.1,0,0.1,0,0.1,0.1v0.2c0,0.7-0.2,1.2-0.6,1.6
			c-0.4,0.4-0.9,0.6-1.6,0.6S24,26.4,23.6,26z"/>
		<path class="st9" d="M32.2,20.4c0.4,0.4,0.5,0.9,0.5,1.6v4.4c0,0.1,0,0.1-0.1,0.1H32c-0.1,0-0.1,0-0.1-0.1V26c0,0,0,0,0,0
			c0,0,0,0,0,0c-0.3,0.4-0.8,0.6-1.4,0.6c-0.5,0-0.9-0.1-1.2-0.4s-0.5-0.8-0.5-1.4c0-0.7,0.2-1.3,0.6-1.6c0.4-0.3,1-0.5,1.7-0.5h0.9
			c0,0,0.1,0,0.1-0.1V22c0-0.4-0.1-0.8-0.3-1c-0.2-0.3-0.5-0.4-0.8-0.4c-0.3,0-0.5,0.1-0.7,0.3c-0.2,0.2-0.3,0.4-0.3,0.7
			c0,0.1,0,0.1-0.1,0.1l-0.7,0c0,0-0.1,0-0.1,0s0-0.1,0-0.1c0-0.5,0.3-0.9,0.6-1.2s0.8-0.5,1.4-0.5C31.4,19.8,31.9,20,32.2,20.4z
			 M31.5,25.4c0.3-0.2,0.4-0.5,0.4-1v-1.1c0,0,0-0.1-0.1-0.1h-0.9c-0.4,0-0.7,0.1-1,0.3s-0.4,0.5-0.4,1c0,0.4,0.1,0.7,0.3,0.9
			c0.2,0.2,0.4,0.3,0.7,0.3C30.9,25.8,31.2,25.7,31.5,25.4z"/>
		<path class="st9" d="M34.2,26.4v-8.8c0-0.1,0-0.1,0.1-0.1H35c0.1,0,0.1,0,0.1,0.1v8.8c0,0.1,0,0.1-0.1,0.1h-0.7
			C34.2,26.5,34.2,26.4,34.2,26.4z"/>
		<path class="st9" d="M40.4,23.5h-3c0,0-0.1,0-0.1,0.1v0.9c0,0.4,0.1,0.7,0.3,0.9s0.5,0.3,0.8,0.3c0.3,0,0.5-0.1,0.7-0.3
			c0.2-0.2,0.3-0.4,0.4-0.7c0-0.1,0.1-0.1,0.1-0.1l0.6,0c0,0,0.1,0,0.1,0c0,0,0,0.1,0,0.1c-0.1,0.5-0.3,0.9-0.6,1.2
			c-0.4,0.3-0.8,0.4-1.4,0.4c-0.6,0-1.1-0.2-1.5-0.5c-0.4-0.4-0.6-0.8-0.6-1.4v-2.8c0-0.6,0.2-1.1,0.6-1.4c0.4-0.4,0.9-0.6,1.5-0.6
			c0.6,0,1.1,0.2,1.5,0.6c0.4,0.4,0.6,0.8,0.6,1.4v1.6C40.5,23.5,40.5,23.5,40.4,23.5z M37.7,21c-0.2,0.2-0.3,0.5-0.3,0.9v0.9
			c0,0,0,0.1,0.1,0.1h2.1c0,0,0.1,0,0.1-0.1v-0.9c0-0.4-0.1-0.7-0.3-0.9c-0.2-0.2-0.5-0.3-0.8-0.3C38.1,20.6,37.9,20.7,37.7,21z"/>
		<path class="st9" d="M45.5,20.4c0.3,0.4,0.4,0.9,0.4,1.5v4.5c0,0.1,0,0.1-0.1,0.1h-0.7c-0.1,0-0.1,0-0.1-0.1V22
			c0-0.4-0.1-0.8-0.3-1c-0.2-0.2-0.4-0.4-0.8-0.4c-0.3,0-0.6,0.1-0.8,0.4c-0.2,0.3-0.3,0.6-0.3,1v4.3c0,0.1,0,0.1-0.1,0.1H42
			c-0.1,0-0.1,0-0.1-0.1V20c0-0.1,0-0.1,0.1-0.1h0.7c0.1,0,0.1,0,0.1,0.1v0.4c0,0,0,0,0,0c0,0,0,0,0,0c0.2-0.2,0.4-0.4,0.6-0.5
			c0.2-0.1,0.5-0.2,0.8-0.2C44.8,19.8,45.2,20,45.5,20.4z"/>
		<path class="st9" d="M49.6,20.6h-1c0,0-0.1,0-0.1,0.1v4c0,0.4,0.1,0.7,0.2,0.8c0.1,0.2,0.4,0.2,0.6,0.2h0.1c0.1,0,0.1,0,0.1,0.1
			v0.6c0,0.1,0,0.1-0.1,0.1h-0.3c-0.5,0-0.9-0.1-1.2-0.3c-0.3-0.2-0.4-0.6-0.4-1.3v-4.3c0,0,0-0.1-0.1-0.1h-0.5
			c-0.1,0-0.1,0-0.1-0.1V20c0-0.1,0-0.1,0.1-0.1h0.5c0,0,0.1,0,0.1-0.1v-1.5c0-0.1,0-0.1,0.1-0.1h0.6c0.1,0,0.1,0,0.1,0.1v1.5
			c0,0,0,0.1,0.1,0.1h1c0.1,0,0.1,0,0.1,0.1v0.4C49.7,20.6,49.7,20.6,49.6,20.6z"/>
		<path class="st9" d="M54.2,20.4c0.4,0.4,0.5,0.9,0.5,1.6v4.4c0,0.1,0,0.1-0.1,0.1H54c-0.1,0-0.1,0-0.1-0.1V26c0,0,0,0,0,0
			c0,0,0,0,0,0c-0.3,0.4-0.8,0.6-1.4,0.6c-0.5,0-0.9-0.1-1.2-0.4s-0.5-0.8-0.5-1.4c0-0.7,0.2-1.3,0.6-1.6c0.4-0.3,1-0.5,1.7-0.5h0.9
			c0,0,0.1,0,0.1-0.1V22c0-0.4-0.1-0.8-0.3-1c-0.2-0.3-0.5-0.4-0.8-0.4c-0.3,0-0.5,0.1-0.7,0.3c-0.2,0.2-0.3,0.4-0.3,0.7
			c0,0.1,0,0.1-0.1,0.1l-0.7,0c0,0-0.1,0-0.1,0s0-0.1,0-0.1c0-0.5,0.3-0.9,0.6-1.2s0.8-0.5,1.4-0.5C53.4,19.8,53.9,20,54.2,20.4z
			 M53.5,25.4c0.3-0.2,0.4-0.5,0.4-1v-1.1c0,0,0-0.1-0.1-0.1h-0.9c-0.4,0-0.7,0.1-1,0.3s-0.4,0.5-0.4,1c0,0.4,0.1,0.7,0.3,0.9
			c0.2,0.2,0.4,0.3,0.7,0.3C52.9,25.8,53.2,25.7,53.5,25.4z"/>
		<path class="st9" d="M59.4,17.4H60c0.1,0,0.1,0,0.1,0.1v8.8c0,0.1,0,0.1-0.1,0.1h-0.7c-0.1,0-0.1,0-0.1-0.1v-0.3c0,0,0,0,0,0
			c0,0,0,0,0,0c-0.3,0.4-0.7,0.5-1.2,0.5c-0.6,0-1-0.2-1.3-0.6c-0.3-0.4-0.5-0.8-0.5-1.4v-2.8c0-0.6,0.2-1.1,0.5-1.4
			c0.3-0.4,0.8-0.5,1.3-0.5c0.5,0,0.9,0.2,1.2,0.6c0,0,0,0,0,0c0,0,0,0,0,0v-2.8C59.2,17.4,59.3,17.4,59.4,17.4z M58.9,25.4
			c0.2-0.2,0.3-0.5,0.3-0.9v-2.7c0-0.4-0.1-0.7-0.3-0.9c-0.2-0.2-0.5-0.3-0.8-0.3c-0.3,0-0.6,0.1-0.8,0.3c-0.2,0.2-0.3,0.5-0.3,0.9
			v2.7c0,0.4,0.1,0.7,0.3,0.9c0.2,0.2,0.5,0.3,0.8,0.3C58.5,25.8,58.7,25.7,58.9,25.4z"/>
		<path class="st9" d="M62.1,26c-0.4-0.4-0.6-0.8-0.6-1.4v-2.8c0-0.6,0.2-1.1,0.6-1.4c0.4-0.4,0.9-0.6,1.5-0.6
			c0.6,0,1.1,0.2,1.5,0.6c0.4,0.4,0.6,0.9,0.6,1.4v2.8c0,0.6-0.2,1.1-0.6,1.4c-0.4,0.4-0.9,0.5-1.5,0.5S62.5,26.4,62.1,26z
			 M64.4,25.4c0.2-0.2,0.3-0.5,0.3-0.9v-2.7c0-0.4-0.1-0.7-0.3-0.9c-0.2-0.2-0.5-0.3-0.8-0.3c-0.3,0-0.6,0.1-0.8,0.3
			c-0.2,0.2-0.3,0.5-0.3,0.9v2.7c0,0.4,0.1,0.7,0.3,0.9c0.2,0.2,0.5,0.3,0.8,0.3C64,25.8,64.2,25.7,64.4,25.4z"/>
		<path class="st9" d="M69.9,20c0.1,0,0.1,0.1,0.1,0.2l-0.2,0.7c0,0.1-0.1,0.1-0.2,0.1c-0.1-0.1-0.2-0.1-0.4-0.1c-0.1,0-0.1,0-0.2,0
			c-0.3,0-0.6,0.2-0.8,0.5c-0.2,0.3-0.3,0.7-0.3,1.1v3.9c0,0.1,0,0.1-0.1,0.1h-0.7c-0.1,0-0.1,0-0.1-0.1V20c0-0.1,0-0.1,0.1-0.1h0.7
			c0.1,0,0.1,0,0.1,0.1v0.8c0,0,0,0,0,0c0,0,0,0,0,0c0.3-0.7,0.7-1,1.2-1C69.6,19.8,69.8,19.9,69.9,20z"/>
		<path class="st9" d="M76.6,17.4h0.7c0.1,0,0.1,0,0.1,0.1v8.8c0,0.1,0,0.1-0.1,0.1h-0.7c-0.1,0-0.1,0-0.1-0.1v-0.3c0,0,0,0,0,0
			c0,0,0,0,0,0c-0.3,0.4-0.7,0.5-1.2,0.5c-0.6,0-1-0.2-1.3-0.6c-0.3-0.4-0.5-0.8-0.5-1.4v-2.8c0-0.6,0.2-1.1,0.5-1.4
			c0.3-0.4,0.8-0.5,1.3-0.5c0.5,0,0.9,0.2,1.2,0.6c0,0,0,0,0,0c0,0,0,0,0,0v-2.8C76.5,17.4,76.6,17.4,76.6,17.4z M76.2,25.4
			c0.2-0.2,0.3-0.5,0.3-0.9v-2.7c0-0.4-0.1-0.7-0.3-0.9c-0.2-0.2-0.5-0.3-0.8-0.3c-0.3,0-0.6,0.1-0.8,0.3c-0.2,0.2-0.3,0.5-0.3,0.9
			v2.7c0,0.4,0.1,0.7,0.3,0.9c0.2,0.2,0.5,0.3,0.8,0.3C75.7,25.8,76,25.7,76.2,25.4z"/>
		<path class="st9" d="M82.8,23.5h-3c0,0-0.1,0-0.1,0.1v0.9c0,0.4,0.1,0.7,0.3,0.9c0.2,0.2,0.5,0.3,0.8,0.3c0.3,0,0.5-0.1,0.7-0.3
			c0.2-0.2,0.3-0.4,0.4-0.7c0-0.1,0.1-0.1,0.1-0.1l0.6,0c0,0,0.1,0,0.1,0c0,0,0,0.1,0,0.1c-0.1,0.5-0.3,0.9-0.6,1.2
			c-0.4,0.3-0.8,0.4-1.4,0.4c-0.6,0-1.1-0.2-1.5-0.5c-0.4-0.4-0.6-0.8-0.6-1.4v-2.8c0-0.6,0.2-1.1,0.6-1.4s0.9-0.6,1.5-0.6
			c0.6,0,1.1,0.2,1.5,0.6s0.6,0.8,0.6,1.4v1.6C83,23.5,82.9,23.5,82.8,23.5z M80.1,21c-0.2,0.2-0.3,0.5-0.3,0.9v0.9
			c0,0,0,0.1,0.1,0.1H82c0,0,0.1,0,0.1-0.1v-0.9c0-0.4-0.1-0.7-0.3-0.9c-0.2-0.2-0.5-0.3-0.8-0.3C80.6,20.6,80.3,20.7,80.1,21z"/>
		<path class="st9" d="M32.8,38.4l-0.3-1.6c0,0,0,0,0,0c0,0,0,0,0,0h-2.4c0,0,0,0,0,0c0,0,0,0,0,0l-0.3,1.6c0,0.1-0.1,0.1-0.1,0.1
			h-0.7c0,0-0.1,0-0.1,0s0-0.1,0-0.1l2-8.8c0-0.1,0.1-0.1,0.1-0.1h0.8c0.1,0,0.1,0,0.1,0.1l2,8.8v0c0,0.1,0,0.1-0.1,0.1H33
			C32.9,38.5,32.9,38.4,32.8,38.4z M30.2,35.9h2.1c0,0,0,0,0-0.1l-1-5.1c0,0,0,0,0,0s0,0,0,0L30.2,35.9
			C30.2,35.9,30.2,35.9,30.2,35.9z"/>
		<path class="st9" d="M37.8,31.9h0.7c0.1,0,0.1,0,0.1,0.1v6.3c0,0.9-0.2,1.6-0.6,2.1s-1.1,0.7-2.2,0.7c-0.1,0-0.1-0.1-0.1-0.1v-0.6
			c0-0.1,0-0.1,0.1-0.1c0.7,0,1.2-0.1,1.5-0.5c0.3-0.3,0.4-0.8,0.4-1.5v-0.4c0,0,0,0,0,0c0,0,0,0,0,0c-0.1,0.2-0.3,0.4-0.6,0.5
			s-0.5,0.2-0.7,0.2c-0.5,0-1-0.2-1.3-0.5c-0.3-0.4-0.5-0.8-0.5-1.4v-2.7c0-0.6,0.2-1.1,0.5-1.4c0.3-0.4,0.7-0.5,1.3-0.5
			c0.3,0,0.5,0.1,0.7,0.2s0.4,0.3,0.6,0.5c0,0,0,0,0,0c0,0,0,0,0,0V32C37.7,31.9,37.8,31.9,37.8,31.9z M37.4,37.4
			c0.2-0.2,0.3-0.5,0.3-0.9v-2.6c0-0.4-0.1-0.7-0.3-0.9c-0.2-0.2-0.5-0.3-0.8-0.3c-0.3,0-0.6,0.1-0.8,0.3c-0.2,0.2-0.3,0.5-0.3,0.9
			v2.6c0,0.4,0.1,0.7,0.3,0.9s0.5,0.3,0.8,0.3C36.9,37.7,37.2,37.6,37.4,37.4z"/>
		<path class="st9" d="M43.2,31.9h0.7c0.1,0,0.1,0,0.1,0.1v6.3c0,0.1,0,0.1-0.1,0.1h-0.7c-0.1,0-0.1,0-0.1-0.1v-0.4c0,0,0,0,0,0
			c0,0,0,0,0,0c-0.3,0.5-0.7,0.7-1.3,0.7c-0.5,0-0.9-0.2-1.2-0.5S40,37.3,40,36.7V32c0-0.1,0-0.1,0.1-0.1h0.7c0.1,0,0.1,0,0.1,0.1
			v4.4c0,0.4,0.1,0.8,0.3,1c0.2,0.2,0.4,0.3,0.8,0.3c0.3,0,0.6-0.1,0.8-0.4c0.2-0.3,0.3-0.6,0.3-1V32C43.1,31.9,43.1,31.9,43.2,31.9
			z"/>
		<path class="st9" d="M49,32.4c0.4,0.4,0.5,0.9,0.5,1.6v4.4c0,0.1,0,0.1-0.1,0.1h-0.7c-0.1,0-0.1,0-0.1-0.1V38c0,0,0,0,0,0
			c0,0,0,0,0,0c-0.3,0.4-0.8,0.6-1.4,0.6c-0.5,0-0.9-0.1-1.2-0.4s-0.5-0.8-0.5-1.4c0-0.7,0.2-1.3,0.6-1.6c0.4-0.3,1-0.5,1.7-0.5h0.9
			c0,0,0.1,0,0.1-0.1V34c0-0.4-0.1-0.8-0.3-1c-0.2-0.3-0.5-0.4-0.8-0.4c-0.3,0-0.5,0.1-0.7,0.3c-0.2,0.2-0.3,0.4-0.3,0.7
			c0,0.1,0,0.1-0.1,0.1l-0.7,0c0,0-0.1,0-0.1,0s0-0.1,0-0.1c0-0.5,0.3-0.9,0.6-1.2s0.8-0.5,1.4-0.5C48.1,31.8,48.6,32,49,32.4z
			 M48.2,37.4c0.3-0.2,0.4-0.5,0.4-1v-1.1c0,0,0-0.1-0.1-0.1h-0.9c-0.4,0-0.7,0.1-1,0.3s-0.4,0.5-0.4,1c0,0.4,0.1,0.7,0.3,0.9
			c0.2,0.2,0.4,0.3,0.7,0.3C47.7,37.8,48,37.7,48.2,37.4z"/>
		<path class="st9" d="M57,32.4c0.4,0.4,0.5,0.9,0.5,1.6v4.4c0,0.1,0,0.1-0.1,0.1h-0.7c-0.1,0-0.1,0-0.1-0.1V38c0,0,0,0,0,0
			c0,0,0,0,0,0c-0.3,0.4-0.8,0.6-1.4,0.6c-0.5,0-0.9-0.1-1.2-0.4s-0.5-0.8-0.5-1.4c0-0.7,0.2-1.3,0.6-1.6c0.4-0.3,1-0.5,1.7-0.5h0.9
			c0,0,0.1,0,0.1-0.1V34c0-0.4-0.1-0.8-0.3-1c-0.2-0.3-0.5-0.4-0.8-0.4c-0.3,0-0.5,0.1-0.7,0.3c-0.2,0.2-0.3,0.4-0.3,0.7
			c0,0.1,0,0.1-0.1,0.1l-0.7,0c0,0-0.1,0-0.1,0s0-0.1,0-0.1c0-0.5,0.3-0.9,0.6-1.2s0.8-0.5,1.4-0.5C56.1,31.8,56.6,32,57,32.4z
			 M56.2,37.4c0.3-0.2,0.4-0.5,0.4-1v-1.1c0,0,0-0.1-0.1-0.1h-0.9c-0.4,0-0.7,0.1-1,0.3s-0.4,0.5-0.4,1c0,0.4,0.1,0.7,0.3,0.9
			c0.2,0.2,0.4,0.3,0.7,0.3C55.6,37.8,55.9,37.7,56.2,37.4z"/>
		<path class="st9" d="M65.9,35.3v0.6c0,0.1,0,0.1-0.1,0.1h-0.4c0,0-0.1,0-0.1,0.1v2.3c0,0.1,0,0.1-0.1,0.1h-0.7
			c-0.1,0-0.1,0-0.1-0.1V36c0,0,0-0.1-0.1-0.1h-3.1c-0.1,0-0.1,0-0.1-0.1v-0.5c0,0,0-0.1,0-0.2l2-5.7c0-0.1,0.1-0.1,0.2-0.1h0.7
			c0.1,0,0.1,0,0.1,0.1l-1.9,5.6c0,0,0,0,0,0c0,0,0,0,0,0h2.1c0,0,0.1,0,0.1-0.1v-2c0-0.1,0-0.1,0.1-0.1h0.7c0.1,0,0.1,0,0.1,0.1v2
			c0,0,0,0.1,0.1,0.1h0.4C65.8,35.2,65.9,35.2,65.9,35.3z"/>
		<path class="st9" d="M70.7,36.4c0,0.7-0.2,1.2-0.6,1.6c-0.4,0.4-0.9,0.6-1.5,0.6c-0.6,0-1-0.2-1.4-0.6s-0.6-0.9-0.6-1.6v-0.2
			c0-0.1,0-0.1,0.1-0.1h0.7c0.1,0,0.1,0,0.1,0.1v0.2c0,0.4,0.1,0.8,0.3,1c0.2,0.3,0.4,0.4,0.7,0.4c0.3,0,0.6-0.1,0.8-0.4
			c0.2-0.3,0.3-0.6,0.3-1v-1.7c0,0,0,0,0,0c0,0,0,0,0,0c-0.1,0.2-0.3,0.3-0.5,0.4c-0.2,0.1-0.4,0.1-0.6,0.1c-0.5,0-1-0.2-1.3-0.5
			c-0.3-0.3-0.6-0.8-0.6-1.3c-0.1-0.3-0.1-0.7-0.1-1.2c0-0.4,0-0.7,0.1-1c0.1-0.6,0.3-1.1,0.6-1.4c0.4-0.3,0.8-0.5,1.4-0.5
			c0.5,0,1,0.2,1.3,0.5c0.3,0.3,0.6,0.8,0.6,1.3c0.1,0.3,0.1,0.6,0.1,1L70.7,36.4z M69.7,33.3c0.1-0.3,0.1-0.6,0.1-1.1
			c0-0.4,0-0.7-0.1-1c-0.1-0.7-0.5-1.1-1.1-1.1c-0.3,0-0.5,0.1-0.7,0.3c-0.2,0.2-0.3,0.5-0.4,0.9c0,0.3-0.1,0.7-0.1,0.9
			c0,0.4,0,0.8,0.1,1.1c0.1,0.3,0.2,0.6,0.4,0.7s0.4,0.2,0.7,0.2C69.2,34.3,69.5,34,69.7,33.3z"/>
		<path class="st9" d="M75.3,38c-0.4-0.4-0.6-1-0.6-1.6v-4.8c0-0.7,0.2-1.2,0.6-1.6c0.4-0.4,0.9-0.6,1.6-0.6c0.7,0,1.2,0.2,1.6,0.6
			c0.4,0.4,0.6,0.9,0.6,1.6v0.2c0,0.1,0,0.1-0.1,0.1l-0.7,0c-0.1,0-0.1,0-0.1-0.1v-0.3c0-0.4-0.1-0.7-0.4-1
			c-0.2-0.3-0.5-0.4-0.9-0.4c-0.4,0-0.7,0.1-0.9,0.4s-0.4,0.6-0.4,1v5c0,0.4,0.1,0.7,0.4,1c0.2,0.3,0.5,0.4,0.9,0.4
			c0.4,0,0.7-0.1,0.9-0.4c0.2-0.3,0.4-0.6,0.4-1v-0.3c0-0.1,0-0.1,0.1-0.1l0.7,0c0.1,0,0.1,0,0.1,0.1v0.2c0,0.7-0.2,1.2-0.6,1.6
			c-0.4,0.4-0.9,0.6-1.6,0.6C76.2,38.6,75.7,38.4,75.3,38z"/>
	</g>
</g>
<g id="Layer_2">
	<g>
		<polygon class="st9" points="35.8,59.7 34.8,59.7 34.8,51.6 24.9,51.6 24.9,28.8 25.9,28.8 25.9,50.6 35.8,50.6 		"/>
	</g>
	<g>
		<path class="st9" d="M35.4,64.5c-1.4,0-2.5-1.1-2.5-2.5s1.1-2.5,2.5-2.5c1.4,0,2.5,1.1,2.5,2.5S36.8,64.5,35.4,64.5z M35.4,60.5
			c-0.8,0-1.5,0.7-1.5,1.5s0.7,1.5,1.5,1.5c0.8,0,1.5-0.7,1.5-1.5S36.2,60.5,35.4,60.5z"/>
	</g>
</g>
</svg>
