<?xml version="1.0" encoding="utf-8"?>
<!-- Generator: Adobe Illustrator 22.1.0, SVG Export Plug-In . SVG Version: 6.00 Build 0)  -->
<svg version="1.1" xmlns="http://www.w3.org/2000/svg" xmlns:xlink="http://www.w3.org/1999/xlink" x="0px" y="0px"
	 viewBox="0 0 298 298" style="enable-background:new 0 0 298 298;" xml:space="preserve">
<style type="text/css">
	.st0{fill:url(#SVGID_1_);}
	.st1{fill:#E1A687;}
	.st2{opacity:0.6;fill:url(#SVGID_2_);}
	.st3{opacity:0.6;fill:url(#SVGID_3_);}
	.st4{fill:url(#SVGID_4_);}
	.st5{fill:#CD7B62;}
	.st6{fill:#91594C;}
	.st7{fill:url(#SVGID_5_);}
	.st8{fill:#BA534B;}
	.st9{fill:#C54037;}
	.st10{fill:#D3514A;}
	.st11{fill:#D3E9F4;}
	.st12{fill:#E1BB60;}
	.st13{fill:#78E6F9;}
	.st14{opacity:0.8;fill:#78E6F9;}
	.st15{fill:none;stroke:#CD7B62;stroke-miterlimit:10;}
	.st16{clip-path:url(#SVGID_7_);fill:#A4F6FF;}
	.st17{clip-path:url(#SVGID_9_);}
	.st18{fill:#A4F6FF;}
	.st19{fill:url(#SVGID_10_);}
	.st20{opacity:0.6;fill:url(#SVGID_11_);}
	.st21{opacity:0.6;fill:url(#SVGID_12_);}
	.st22{fill:url(#SVGID_13_);}
	.st23{fill:url(#SVGID_14_);}
	.st24{clip-path:url(#SVGID_16_);fill:#A4F6FF;}
	.st25{clip-path:url(#SVGID_18_);}
	.st26{fill:url(#SVGID_19_);}
	.st27{opacity:0.6;fill:url(#SVGID_20_);}
	.st28{fill:url(#SVGID_21_);}
	.st29{clip-path:url(#SVGID_23_);fill:#62933F;}
	.st30{clip-path:url(#SVGID_23_);fill:#231F20;}
	.st31{fill:url(#SVGID_24_);}
	.st32{clip-path:url(#SVGID_26_);fill:#62933F;}
	.st33{clip-path:url(#SVGID_26_);fill:#231F20;}
	.st34{opacity:0.6;fill:url(#SVGID_27_);}
	.st35{fill:url(#SVGID_28_);}
	.st36{fill:#FFFFFF;}
	.st37{fill:url(#SVGID_29_);}
	.st38{opacity:0.6;fill:url(#SVGID_30_);}
	.st39{fill:url(#SVGID_31_);}
	.st40{clip-path:url(#SVGID_33_);fill:#62933F;}
	.st41{clip-path:url(#SVGID_33_);fill:#231F20;}
	.st42{fill:url(#SVGID_34_);}
	.st43{clip-path:url(#SVGID_36_);fill:#62933F;}
	.st44{clip-path:url(#SVGID_36_);fill:#231F20;}
	.st45{opacity:0.6;fill:url(#SVGID_37_);}
	.st46{fill:url(#SVGID_38_);}
	.st47{fill:url(#SVGID_39_);}
	.st48{opacity:0.6;fill:url(#SVGID_40_);}
	.st49{fill:url(#SVGID_41_);}
	.st50{clip-path:url(#SVGID_43_);fill:#62933F;}
	.st51{clip-path:url(#SVGID_43_);fill:#231F20;}
	.st52{fill:url(#SVGID_44_);}
	.st53{clip-path:url(#SVGID_46_);fill:#62933F;}
	.st54{clip-path:url(#SVGID_46_);fill:#231F20;}
	.st55{opacity:0.6;fill:url(#SVGID_47_);}
	.st56{fill:url(#SVGID_48_);}
	.st57{fill:url(#SVGID_49_);}
	.st58{fill:url(#SVGID_50_);}
	.st59{opacity:0.6;fill:url(#SVGID_51_);}
	.st60{fill:url(#SVGID_52_);}
	.st61{clip-path:url(#SVGID_54_);fill:#62933F;}
	.st62{clip-path:url(#SVGID_54_);fill:#231F20;}
	.st63{fill:url(#SVGID_55_);}
	.st64{clip-path:url(#SVGID_57_);fill:#62933F;}
	.st65{clip-path:url(#SVGID_57_);fill:#231F20;}
	.st66{opacity:0.6;fill:url(#SVGID_58_);}
	.st67{fill:url(#SVGID_59_);}
	.st68{fill:url(#SVGID_60_);}
	.st69{fill:#E37830;}
	.st70{fill:#E0902F;}
	.st71{fill:url(#SVGID_61_);}
	.st72{fill:url(#SVGID_62_);}
	.st73{fill:#83441E;}
	.st74{opacity:0.2;fill:#E37830;}
	.st75{fill:#DDA447;}
	.st76{opacity:0.7;fill:#F7E8D3;}
	.st77{fill:#BE8739;}
	.st78{fill:#F3FAFD;}
	.st79{opacity:0.7;fill:url(#SVGID_63_);}
	.st80{fill:#EEBB72;}
	.st81{fill:none;}
	.st82{fill:url(#SVGID_64_);}
	.st83{fill:url(#SVGID_65_);}
	.st84{fill:url(#SVGID_66_);}
	.st85{fill:url(#SVGID_67_);}
	.st86{fill:url(#SVGID_68_);}
	.st87{fill:url(#SVGID_69_);}
	.st88{fill:url(#SVGID_70_);}
	.st89{fill:url(#SVGID_71_);}
	.st90{fill:url(#SVGID_72_);}
	.st91{fill:url(#SVGID_73_);}
	.st92{fill:url(#SVGID_74_);}
	.st93{fill:url(#SVGID_75_);}
	.st94{fill:url(#SVGID_76_);}
	.st95{fill:url(#SVGID_77_);}
	.st96{fill:url(#SVGID_78_);}
	.st97{fill:url(#SVGID_79_);}
	.st98{fill:url(#SVGID_80_);}
	.st99{fill:url(#SVGID_81_);}
	.st100{fill:url(#SVGID_82_);}
	.st101{fill:url(#SVGID_83_);}
	.st102{fill:#EA833D;}
	.st103{fill:url(#SVGID_84_);}
	.st104{fill:url(#SVGID_85_);}
	.st105{fill:url(#SVGID_86_);}
	.st106{fill:url(#SVGID_87_);}
	.st107{fill:#A2E8F9;}
	.st108{fill:url(#SVGID_88_);}
	.st109{fill:url(#SVGID_89_);}
	.st110{opacity:0.7;fill:url(#SVGID_90_);}
	.st111{fill:url(#SVGID_91_);}
	.st112{fill:url(#SVGID_92_);}
	.st113{fill:url(#SVGID_93_);}
	.st114{fill:url(#SVGID_94_);}
	.st115{fill:url(#SVGID_95_);}
	.st116{fill:url(#SVGID_96_);}
	.st117{fill:url(#SVGID_97_);}
	.st118{fill:url(#SVGID_98_);}
	.st119{fill:url(#SVGID_99_);}
	.st120{fill:url(#SVGID_100_);}
	.st121{fill:url(#SVGID_101_);}
	.st122{fill:url(#SVGID_102_);}
	.st123{fill:url(#SVGID_103_);}
	.st124{fill:url(#SVGID_104_);}
	.st125{fill:url(#SVGID_105_);}
	.st126{fill:url(#SVGID_106_);}
	.st127{fill:url(#SVGID_107_);}
	.st128{fill:url(#SVGID_108_);}
	.st129{fill:url(#SVGID_109_);}
	.st130{fill:url(#SVGID_110_);}
	.st131{fill:url(#SVGID_111_);}
	.st132{fill:url(#SVGID_112_);}
	.st133{fill:url(#SVGID_113_);}
	.st134{fill:url(#SVGID_114_);}
	.st135{fill:url(#SVGID_115_);}
	.st136{fill:url(#SVGID_116_);}
	.st137{opacity:0.7;fill:url(#SVGID_117_);}
	.st138{fill:url(#SVGID_118_);}
	.st139{fill:url(#SVGID_119_);}
	.st140{fill:url(#SVGID_120_);}
	.st141{fill:url(#SVGID_121_);}
	.st142{fill:url(#SVGID_122_);}
	.st143{fill:url(#SVGID_123_);}
	.st144{fill:url(#SVGID_124_);}
	.st145{fill:url(#SVGID_125_);}
	.st146{fill:url(#SVGID_126_);}
	.st147{fill:url(#SVGID_127_);}
	.st148{fill:url(#SVGID_128_);}
	.st149{fill:url(#SVGID_129_);}
	.st150{fill:url(#SVGID_130_);}
	.st151{fill:url(#SVGID_131_);}
	.st152{fill:url(#SVGID_132_);}
	.st153{fill:url(#SVGID_133_);}
	.st154{fill:url(#SVGID_134_);}
	.st155{fill:url(#SVGID_135_);}
	.st156{fill:url(#SVGID_136_);}
	.st157{fill:url(#SVGID_137_);}
	.st158{fill:url(#SVGID_138_);}
	.st159{fill:url(#SVGID_139_);}
	.st160{fill:url(#SVGID_140_);}
	.st161{fill:url(#SVGID_141_);}
	.st162{fill:#BF8D43;}
	.st163{fill:url(#SVGID_142_);}
	.st164{fill:url(#SVGID_143_);}
	.st165{opacity:0.7;fill:url(#SVGID_144_);}
	.st166{fill:url(#SVGID_145_);}
	.st167{fill:url(#SVGID_146_);}
	.st168{fill:url(#SVGID_147_);}
	.st169{fill:url(#SVGID_148_);}
	.st170{fill:url(#SVGID_149_);}
	.st171{fill:url(#SVGID_150_);}
	.st172{fill:url(#SVGID_151_);}
	.st173{fill:url(#SVGID_152_);}
	.st174{fill:url(#SVGID_153_);}
	.st175{fill:url(#SVGID_154_);}
	.st176{fill:url(#SVGID_155_);}
	.st177{fill:url(#SVGID_156_);}
	.st178{fill:url(#SVGID_157_);}
	.st179{fill:url(#SVGID_158_);}
	.st180{fill:url(#SVGID_159_);}
	.st181{fill:url(#SVGID_160_);}
	.st182{fill:url(#SVGID_161_);}
	.st183{fill:url(#SVGID_162_);}
	.st184{fill:url(#SVGID_163_);}
	.st185{fill:url(#SVGID_164_);}
	.st186{fill:url(#SVGID_165_);}
	.st187{fill:url(#SVGID_166_);}
	.st188{fill:url(#SVGID_167_);}
	.st189{fill:url(#SVGID_168_);}
	.st190{fill:url(#SVGID_169_);}
	.st191{fill:url(#SVGID_170_);}
	.st192{opacity:0.7;fill:url(#SVGID_171_);}
	.st193{fill:url(#SVGID_172_);}
	.st194{fill:url(#SVGID_173_);}
	.st195{fill:url(#SVGID_174_);}
	.st196{fill:url(#SVGID_175_);}
	.st197{fill:url(#SVGID_176_);}
	.st198{fill:url(#SVGID_177_);}
	.st199{fill:url(#SVGID_178_);}
	.st200{fill:url(#SVGID_179_);}
	.st201{fill:url(#SVGID_180_);}
	.st202{fill:url(#SVGID_181_);}
	.st203{fill:url(#SVGID_182_);}
	.st204{fill:url(#SVGID_183_);}
	.st205{fill:url(#SVGID_184_);}
	.st206{fill:url(#SVGID_185_);}
	.st207{fill:url(#SVGID_186_);}
	.st208{fill:url(#SVGID_187_);}
	.st209{fill:url(#SVGID_188_);}
	.st210{fill:url(#SVGID_189_);}
	.st211{fill:url(#SVGID_190_);}
	.st212{fill:url(#SVGID_191_);}
	.st213{fill:url(#SVGID_192_);}
	.st214{fill:url(#SVGID_193_);}
	.st215{fill:url(#SVGID_194_);}
	.st216{fill:url(#SVGID_195_);}
	.st217{fill:url(#SVGID_196_);}
	.st218{fill:url(#SVGID_197_);}
	.st219{opacity:0.7;fill:url(#SVGID_198_);}
	.st220{fill:url(#SVGID_199_);}
	.st221{fill:url(#SVGID_200_);}
	.st222{fill:url(#SVGID_201_);}
	.st223{fill:url(#SVGID_202_);}
	.st224{fill:url(#SVGID_203_);}
	.st225{fill:url(#SVGID_204_);}
	.st226{fill:url(#SVGID_205_);}
	.st227{fill:url(#SVGID_206_);}
	.st228{fill:url(#SVGID_207_);}
	.st229{fill:url(#SVGID_208_);}
	.st230{fill:url(#SVGID_209_);}
	.st231{fill:url(#SVGID_210_);}
	.st232{fill:url(#SVGID_211_);}
	.st233{fill:url(#SVGID_212_);}
	.st234{fill:url(#SVGID_213_);}
	.st235{fill:url(#SVGID_214_);}
	.st236{fill:url(#SVGID_215_);}
	.st237{fill:url(#SVGID_216_);}
	.st238{fill:url(#SVGID_217_);}
	.st239{fill:url(#SVGID_218_);}
	.st240{fill:url(#SVGID_219_);}
	.st241{fill:url(#SVGID_220_);}
	.st242{fill:url(#SVGID_221_);}
	.st243{fill:url(#SVGID_222_);}
	.st244{fill:#E8492D;}
	.st245{fill:#E7E2DE;}
	.st246{fill:url(#SVGID_223_);}
	.st247{fill:#CECDCB;}
	.st248{fill:#818282;}
	.st249{fill:#CECDCB;stroke:#CECDCB;stroke-miterlimit:10;}
	.st250{fill:#E8E8E8;}
	.st251{fill:#EFEFEF;}
	.st252{fill:url(#SVGID_224_);}
	.st253{fill:url(#SVGID_225_);}
	.st254{fill:#FFFF00;}
	.st255{fill:#22AF17;}
	.st256{opacity:0.7;}
	.st257{fill:#FFFF2B;}
	.st258{fill:#FFFF55;}
	.st259{fill:#FFFF80;}
	.st260{fill:#FFFFAA;}
	.st261{fill:#FFFFD4;}
	.st262{fill:url(#SVGID_226_);}
	.st263{fill:url(#SVGID_227_);}
	.st264{fill:url(#SVGID_228_);}
	.st265{fill:#232323;}
	.st266{fill:#3D3D3D;}
	.st267{fill:#C66259;}
	.st268{opacity:0.2;fill:#353535;}
	.st269{fill:#817979;}
	.st270{opacity:0.3;}
	.st271{fill:#353535;}
	.st272{fill:#382B28;}
	.st273{fill:#231F20;}
	.st274{opacity:0.1;}
	.st275{fill:url(#SVGID_229_);}
	.st276{fill:url(#SVGID_230_);}
	.st277{fill:#2B2B2B;}
	.st278{fill:#161616;}
	.st279{opacity:0.5;}
	.st280{fill:#A6A8AB;}
	.st281{fill:#E2E2E2;}
	.st282{opacity:0.3;fill:#353535;}
	.st283{fill:url(#SVGID_231_);}
	.st284{fill:url(#SVGID_232_);}
	.st285{fill:url(#SVGID_233_);}
	.st286{fill:url(#SVGID_234_);}
	.st287{fill:#B54C47;}
	.st288{opacity:0.8;fill:#88DFED;}
	.st289{fill:#E3E4E5;}
	.st290{fill:url(#SVGID_235_);}
	.st291{fill:url(#SVGID_236_);}
	.st292{fill:url(#SVGID_237_);}
	.st293{fill:url(#SVGID_238_);}
	.st294{opacity:0.2;}
	.st295{fill:#6D5C57;}
	.st296{fill:#68493F;}
	.st297{opacity:0.2;fill:url(#SVGID_239_);}
	.st298{opacity:0.2;fill:url(#SVGID_240_);}
	.st299{opacity:0.5;fill:#6D5C57;}
	.st300{fill:url(#SVGID_241_);}
	.st301{fill:#7C8B8E;}
	.st302{fill:url(#SVGID_242_);}
	.st303{fill:url(#SVGID_243_);}
	.st304{fill:#3D2219;}
	.st305{fill:#332E2D;}
	.st306{fill:#E6E6E6;}
	.st307{fill:url(#SVGID_244_);}
	.st308{fill:url(#SVGID_245_);}
	.st309{fill:url(#SVGID_246_);}
	.st310{fill:url(#SVGID_247_);}
	.st311{opacity:0.2;fill:url(#SVGID_248_);}
	.st312{opacity:0.2;fill:url(#SVGID_249_);}
	.st313{fill:url(#SVGID_250_);}
	.st314{fill:url(#SVGID_251_);}
	.st315{fill:url(#SVGID_252_);}
	.st316{fill:url(#SVGID_253_);}
	.st317{fill:url(#SVGID_254_);}
	.st318{fill:url(#SVGID_255_);}
	.st319{fill:url(#SVGID_256_);}
	.st320{fill:none;stroke:url(#SVGID_257_);stroke-miterlimit:10;}
	.st321{fill:url(#SVGID_258_);}
	.st322{fill:#301812;}
	.st323{opacity:0.2;fill:url(#SVGID_259_);}
	.st324{opacity:0.2;fill:url(#SVGID_260_);}
	.st325{fill:url(#SVGID_261_);}
	.st326{fill:#B0CDD1;}
	.st327{fill:url(#SVGID_262_);}
	.st328{fill:url(#SVGID_263_);}
	.st329{fill:none;stroke:#231F20;stroke-width:6;stroke-miterlimit:10;}
	.st330{fill:url(#SVGID_264_);}
	.st331{fill:url(#SVGID_265_);}
	.st332{fill:url(#SVGID_266_);}
	.st333{fill:url(#SVGID_267_);}
	.st334{fill:url(#SVGID_268_);}
	.st335{fill:url(#SVGID_269_);}
	.st336{fill:url(#SVGID_270_);}
	.st337{fill:url(#SVGID_271_);}
	.st338{fill:url(#SVGID_272_);}
	.st339{fill:url(#SVGID_273_);}
	.st340{opacity:0.2;fill:url(#SVGID_274_);}
	.st341{opacity:0.2;fill:url(#SVGID_275_);}
	.st342{fill:url(#SVGID_276_);}
	.st343{fill:url(#SVGID_277_);}
	.st344{fill:url(#SVGID_278_);}
	.st345{fill:url(#SVGID_279_);}
	.st346{fill:url(#SVGID_280_);}
	.st347{fill:url(#SVGID_281_);}
	.st348{fill:url(#SVGID_282_);}
	.st349{opacity:0.2;fill:url(#SVGID_283_);}
	.st350{opacity:0.2;fill:url(#SVGID_284_);}
	.st351{fill:url(#SVGID_285_);}
	.st352{fill:url(#SVGID_286_);}
	.st353{fill:url(#SVGID_287_);}
	.st354{fill:url(#SVGID_288_);}
	.st355{fill:url(#SVGID_289_);}
	.st356{fill:url(#SVGID_290_);}
	.st357{fill:url(#SVGID_291_);}
	.st358{fill:none;stroke:url(#SVGID_292_);stroke-miterlimit:10;}
	.st359{fill:url(#SVGID_293_);}
	.st360{opacity:0.2;fill:url(#SVGID_294_);}
	.st361{opacity:0.2;fill:url(#SVGID_295_);}
	.st362{fill:url(#SVGID_296_);}
	.st363{fill:url(#SVGID_297_);}
	.st364{fill:url(#SVGID_298_);}
</style>
<g id="Baby_sad">
</g>
<g id="Baby_pleased">
</g>
<g id="Baby_ecstatic">
</g>
<g id="Fish_dead">
</g>
<g id="Fish_pleased">
</g>
<g id="Fish_ecstatic">
</g>
<g id="Robot_destoyed">
</g>
<g id="Robot_pleased">
</g>
<g id="Robot_ecstatic">
	<g>
		<g>
			<path class="st244" d="M33.5,160.8c-6.5,0-12.7,1.6-18.1,4.4h36.2C46.2,162.4,40,160.8,33.5,160.8z"/>
			<path class="st244" d="M33.5,239c8.2,0,15.8-2.5,22.1-6.8H11.4C17.7,236.5,25.3,239,33.5,239z"/>
			<path class="st244" d="M265.8,238.3c7.7,0,14.8-2.2,20.8-6.1H245C251,236,258.1,238.3,265.8,238.3z"/>
			<path class="st244" d="M265.8,160c-7.1,0-13.7,1.9-19.5,5.2h38.9C279.5,161.9,272.9,160,265.8,160z"/>
			<path class="st244" d="M226.7,199.1c0-14.5,7.9-27.2,19.7-33.9H51.6c12.5,6.5,21.1,19.6,21.1,34.7c0,13.4-6.8,25.3-17.1,32.3H245
				C234,225.3,226.7,213.1,226.7,199.1z"/>
			<path class="st244" d="M72.6,199.9c0-15.1-8.6-28.2-21.1-34.7H15.4c-5.4,2.8-10,6.9-13.6,11.7v45.9c2.6,3.6,5.9,6.8,9.6,9.4h44.1
				C65.9,225.2,72.6,213.3,72.6,199.9z"/>
			<path class="st244" d="M296.1,223.9v-49.5c-3-3.7-6.7-6.8-10.9-9.2h-38.9c-11.8,6.8-19.7,19.4-19.7,33.9
				c0,13.9,7.3,26.2,18.3,33.1h41.7C290.2,230,293.5,227.1,296.1,223.9z"/>
		</g>
		<path class="st244" d="M1.5,176.7c7.1-10,18.8-16.6,32-16.6c21.6,0,39.1,17.5,39.1,39.1H1.8"/>
		<path class="st244" d="M296.1,198.5h-69.5c0-21.6,17.5-39.1,39.1-39.1c12.4,0,23.5,5.8,30.6,14.8"/>
		<g>
			<polygon class="st245" points="143.7,47.7 143.7,78.5 149.7,80.8 143.7,82.2 143.7,110.9 157.8,110.9 157.8,47.7 			"/>
		</g>
		<path class="st244" d="M172.8,186.6h-44v-79.4c0-2.1,1.7-3.8,3.8-3.8H169c2.1,0,3.8,1.7,3.8,3.8V186.6z"/>
		<rect x="33.5" y="119.9" class="st245" width="232.3" height="161.1"/>
		<linearGradient id="SVGID_1_" gradientUnits="userSpaceOnUse" x1="149.6546" y1="172.0962" x2="149.6546" y2="261.5931">
			<stop  offset="0" style="stop-color:#E7E2DE;stop-opacity:0"/>
			<stop  offset="0.989" style="stop-color:#E7E2DE"/>
		</linearGradient>
		<rect x="33.5" y="119.9" class="st0" width="232.3" height="161.1"/>
		<circle class="st244" cx="150.7" cy="47.7" r="14"/>
		<rect x="66.6" y="197.7" class="st247" width="168.3" height="58.1"/>
		<g>
			<g>
				<rect x="63.5" y="199.5" class="st248" width="6.1" height="58.1"/>
			</g>
			<g>
				<rect x="84.6" y="199.5" class="st248" width="6.1" height="58.1"/>
			</g>
			<g>
				<rect x="105.6" y="199.5" class="st248" width="6.1" height="58.1"/>
			</g>
			<g>
				<rect x="126.7" y="199.5" class="st248" width="6.1" height="58.1"/>
			</g>
			<g>
				<rect x="147.7" y="199.5" class="st248" width="6.1" height="58.1"/>
			</g>
			<g>
				<rect x="168.8" y="199.5" class="st248" width="6.1" height="58.1"/>
			</g>
			<g>
				<rect x="189.8" y="199.5" class="st248" width="6.1" height="58.1"/>
			</g>
			<g>
				<rect x="210.8" y="199.5" class="st248" width="6.1" height="58.1"/>
			</g>
			<g>
				<rect x="231.9" y="199.5" class="st248" width="6.1" height="58.1"/>
			</g>
		</g>
		<g>
			<path class="st244" d="M233.9,252.5c-4.5-16.5-15.9-30.6-23.8-33.4c-3.6-1.3-6.2,2.4-10.2,8.5c-3.5,5.4-7.5,11.5-13.9,14.8
				c-8.2,4.2-12.7-2.6-17.8-10.5c-3.8-5.8-8.1-12.3-14.7-16.7c-8.6-5.6-14.3,1.9-20.4,9.9c-4.6,6-9.3,12.2-15.5,12.7
				c-7.9,0.5-10.9-4.2-13.7-8.9c-2.4-3.9-4.8-8-10.4-9.6c-9.8-3-22.2,21.6-26.2,31.3l-1.9-0.8c0.6-1.5,15-36.5,28.6-32.5
				c6.3,1.9,9.1,6.5,11.6,10.5c2.8,4.7,5.1,8.4,11.8,7.9c5.3-0.4,9.7-6.2,14-11.9c6.1-8,12.9-17,23.1-10.4
				c7,4.6,11.4,11.3,15.3,17.3c5.6,8.6,8.9,13,15.2,9.8c5.9-3,9.7-8.9,13.1-14.1c3.9-6,7.3-11.2,12.5-9.3
				c9.4,3.3,20.9,19.2,25.1,34.8L233.9,252.5z"/>
		</g>
		<g>
			<path class="st244" d="M244,264.8H57.5v-76.2H244V264.8z M75.6,246.7h150.2v-39.9H75.6V246.7z"/>
		</g>
		<polygon class="st249" points="110.4,141 104.4,141 99.4,150.8 94.4,141 88.4,141 96.4,156.7 88.4,172.4 94.4,172.4 99.4,162.6 
			104.4,172.4 110.4,172.4 102.4,156.7 		"/>
		<polygon class="st249" points="213.1,141 207.1,141 202.1,150.8 197.1,141 191.1,141 199.1,156.7 191.1,172.4 197.1,172.4 
			202.1,162.6 207.1,172.4 213.1,172.4 205.1,156.7 		"/>
		<path class="st250" d="M80.7,117.3c2.2-2.6,7-7.1,8.2-8.3c1.3-1.2,2.4-2.5,3.3-4c1.9-2.9,2.9-6.3,3.1-9.9c0.2-3.3-1.3-6.4-3.8-9.1
			c-2.5-2.7-5.6-5.2-8.4-8.2c-1.4-1.5-2.7-3.2-3.6-5.2c-0.9-2-1.2-4.2-1-6.4c0.6-4.2,2.4-7.8,4.2-11.3c1.8-3.4,3.8-6.9,3.7-10.7
			c-0.1-3.8-2-7.5-4.1-10.7c2.4,3.1,4.6,6.6,4.9,10.6c0.4,4.1-1.6,7.9-3.1,11.4c-1.6,3.5-3,7.2-3.3,10.8c-0.3,3.6,1.7,6.7,4.4,9.2
			c2.7,2.6,5.9,4.8,8.9,7.7c1.5,1.5,2.9,3.1,3.9,5.1c1,2,1.6,4.3,1.6,6.6c0.1,4.3-0.9,8.7-3,12.5c-1.1,1.9-2.3,3.7-3.8,5.3
			c-1.5,1.6-3,3-5.1,4.3H80.7z"/>
		<path class="st250" d="M201,115.2c-1.1-0.5-1.8-1-2.5-1.5c-0.7-0.5-1.4-1.2-2-1.8c-1.3-1.3-2.3-2.8-3-4.4c-1.6-3.2-1.9-6.8-1.5-10
			c0.3-3.2,1.2-6.5,3-9.3c1.7-2.8,4.5-4.7,5.7-7c1.3-2.3,0.9-5.5-0.6-7.9c-1.4-2.5-3.7-4.8-4.7-7.8c-1.1-2.9-1.2-6.1-0.8-9.1
			c0.4-3,1.1-6,2-8.8c-0.8,2.9-1.5,5.9-1.7,8.9c-0.2,3,0,6,1.2,8.8c1.1,2.8,3.3,4.8,5.1,7.4c0.9,1.3,1.5,2.9,1.7,4.5
			c0.3,1.6,0.3,3.3-0.4,4.9c-0.7,1.6-1.7,2.9-2.6,4c-0.9,1.2-1.7,2.3-2.3,3.6c-1.2,2.4-1.7,5.2-1.7,8c0,2.7,0.5,5.4,1.9,7.5
			c0.7,1,1.5,2,2.4,2.7c0.5,0.4,1,0.7,1.5,1c3.5,1.6,6.1,6.3,6.4,6.3H201z"/>
		<path class="st250" d="M80.2,80c-3-0.6-5.7-2.5-7.6-5.2c-1.9-2.7-2.6-6-2.6-9.2c0-3.2,0.7-6.4,2.4-9.3c1.6-2.9,4.3-4.8,5.9-6.8
			c1.5-2,1.5-5.1,0.5-7.7c-1-2.6-3.1-5-3.7-8c-0.6-3,0.1-6.1,1-8.8c1-2.8,2.3-5.5,3.7-8c-1.3,2.6-2.5,5.3-3.3,8.2
			c-0.8,2.8-1.3,5.8-0.6,8.5c0.7,2.8,2.8,4.9,4.1,7.7c0.7,1.4,1,2.9,1.2,4.5c0.2,1.6-0.2,3.3-1,4.8c-0.8,1.5-1.7,2.7-2.6,3.8
			c-0.8,1.2-1.5,2.3-2.1,3.5c-1,2.4-1.6,5.1-1.8,7.8c-0.2,2.7,0.1,5.3,1.2,7.8C76,76,77.8,78.3,80.2,80z"/>
		<g>
			<polygon class="st251" points="37.8,144.4 58.8,167.3 36.4,145.8 			"/>
		</g>
		<g>
			<polygon class="st251" points="151.5,157.9 172.5,180.8 150,159.3 			"/>
		</g>
		<g>
			<polygon class="st251" points="168.2,154.3 145.9,175.9 167.5,153.5 			"/>
		</g>
		<g>
			<polygon class="st251" points="263.4,257.3 241.1,278.9 262.7,256.6 			"/>
		</g>
		<g>
			<polygon class="st251" points="263.4,261.1 250.5,273.3 262.7,260.4 			"/>
		</g>
		<polygon class="st251" points="235.4,119.9 255,141.2 232.7,119.9 		"/>
		<g>
			<polygon class="st251" points="142.5,154.6 163.5,177.5 141.1,156 			"/>
		</g>
		<g>
			<polygon class="st251" points="38.4,136.5 45.4,135.3 38.7,137.5 			"/>
		</g>
		<g>
			<polygon class="st251" points="35.1,140.1 63.7,132.9 35.2,140.6 			"/>
		</g>
	</g>
</g>
<g id="Sad_Dog">
</g>
<g id="Dog">
</g>
<g id="Dog_ecstatic">
</g>
<g id="Old_man_sad">
</g>
<g id="Old_man_pleased">
</g>
<g id="Old_man_ecstatic">
</g>
</svg>
