<?xml version="1.0" encoding="utf-8"?>
<!-- Generator: Adobe Illustrator 25.4.1, SVG Export Plug-In . SVG Version: 6.00 Build 0)  -->
<svg version="1.1" xmlns="http://www.w3.org/2000/svg" xmlns:xlink="http://www.w3.org/1999/xlink" x="0px" y="0px"
	 viewBox="0 0 1920 1080" style="enable-background:new 0 0 1920 1080;" xml:space="preserve">
<style type="text/css">
	.st0{display:none;}
	.st1{fill:#40C8F4;}
	.st2{fill:#00BAF2;}
	.st3{fill:#0599D0;}
	.st4{fill:none;stroke:#0599D0;stroke-miterlimit:10;}
	.st5{fill:#FFFFFF;}
</style>
<g id="Layer_1" class="st0">
	
		<image style="display:inline;overflow:visible;" width="1000" height="157" xlink:href="../../../../Downloads/energy-behaviors-banner.png"  transform="matrix(1 0 0 1 460 461)">
	</image>
</g>
<g id="Layer_2">
	<rect x="531.7" y="462.9" class="st1" width="857.1" height="96.8"/>
	<polygon class="st2" points="616.4,615.3 460.1,615.3 500.6,565.8 460.1,518.3 531.7,518.3 531.7,559.7 	"/>
	<polygon class="st3" points="616.4,559.7 616.4,615.3 531.7,559.7 	"/>
	<line class="st4" x1="460.1" y1="518.3" x2="460" y2="518.3"/>
	<polygon class="st2" points="1304.1,615.3 1460.4,615.3 1419.9,565.8 1460.4,518.3 1388.8,518.3 1388.8,559.7 	"/>
	<polygon class="st3" points="1304.1,559.7 1304.1,615.3 1388.8,559.7 	"/>
	<g>
		<path class="st5" d="M621.8,512c-0.3-1.4-0.3-2.9,0.5-4.4c0.4-0.7,1-1.4,1.7-1.8c0.2-0.1,0.4-0.2,0.5-0.3l0.5-0.2l0.8-0.4
			c2.3-1.2,4.6-2.5,6.9-3.8c2.3-1.3,4.6-2.5,6.9-3.7l7-3.6c4.7-2.4,9.4-4.7,14.2-6.9c2.4-1.1,4.8-2.2,7.2-3.2l3.5-1.5
			c0.7-0.4,0.9-1.6,0.7-2.8l0,0c-0.1-0.3,0.1-0.5,0.4-0.6c0.2-0.1,0.5,0.1,0.6,0.3c0.3,0.6,0.5,1.4,0.5,2.2c0,0.8-0.3,1.7-1,2.3
			c-0.1,0.1-0.2,0.2-0.3,0.2c-0.1,0.1-0.3,0.2-0.3,0.2l-0.4,0.3l-0.8,0.5l-1.7,1c-2.3,1.4-4.5,2.7-6.8,4c-4.6,2.6-9.2,5.1-13.9,7.5
			l-7.1,3.5c-2.4,1.1-4.8,2.3-7.2,3.3c-2.4,1.1-4.8,2.1-7.3,3.1l-1,0.3l-0.4,0.1c-0.1,0-0.2,0.1-0.4,0.1c-0.5,0.2-0.8,0.5-1.2,0.9
			c-0.6,0.8-1,2.1-1,3.2l0,0.1c0,0.3-0.2,0.5-0.5,0.5C622,512.4,621.8,512.2,621.8,512z"/>
	</g>
	<g>
		<path class="st5" d="M634.8,544c-0.3-1.4-0.3-2.9,0.5-4.4c0.4-0.7,1-1.4,1.7-1.8c0.2-0.1,0.4-0.2,0.5-0.3l0.5-0.2l0.8-0.4
			c2.3-1.2,4.6-2.5,6.9-3.8c2.3-1.3,4.6-2.5,6.9-3.7l7-3.6c4.7-2.4,9.4-4.7,14.2-6.9c2.4-1.1,4.8-2.2,7.2-3.2l3.5-1.5
			c0.7-0.4,0.9-1.6,0.7-2.8l0,0c-0.1-0.3,0.1-0.5,0.4-0.6c0.2-0.1,0.5,0.1,0.6,0.3c0.3,0.6,0.5,1.4,0.5,2.2c0,0.8-0.3,1.7-1,2.3
			c-0.1,0.1-0.2,0.2-0.3,0.2c-0.1,0.1-0.3,0.2-0.3,0.2l-0.4,0.3l-0.8,0.5l-1.7,1c-2.3,1.4-4.5,2.7-6.8,4c-4.6,2.6-9.2,5.1-13.9,7.5
			l-7.1,3.5c-2.4,1.1-4.8,2.3-7.2,3.3c-2.4,1.1-4.8,2.1-7.3,3.1l-1,0.3l-0.4,0.1c-0.1,0-0.2,0.1-0.4,0.1c-0.5,0.2-0.8,0.5-1.2,0.9
			c-0.6,0.8-1,2.1-1,3.2l0,0.1c0,0.3-0.2,0.5-0.5,0.5C635,544.4,634.8,544.2,634.8,544z"/>
	</g>
	<g>
		<g>
			<path class="st5" d="M654.5,525.5c-1.1-0.3-1.9-1-2.4-2c-0.5-1-0.6-1.9-0.4-2.8c0.2-0.9,0.6-1.7,1.2-2.4c0.6-0.7,1.5-1.6,2.6-2.6
				l-0.4-1.6c-0.5,1.8-1.6,3.1-3.1,3.9c-1.1,0.5-2.1,0.6-3.1,0.2c-1-0.4-1.8-1.2-2.4-2.6c-0.3-0.6-0.5-1.3-0.8-2.3l-2.9-11.9
				l4.8-2.3l3.1,12.6c0.1,0.3,0.2,0.6,0.3,0.9c0.5,1,1,1.3,1.7,1c0.6-0.3,1-0.8,1.2-1.6c0.2-0.7,0.2-1.6,0-2.7l-2.9-11.9l4.8-2.3
				l5.2,21.5c0.6,2.4,0.5,4.2-0.2,5.6c-0.7,1.4-1.8,2.4-3.1,3C656.7,525.8,655.6,525.9,654.5,525.5z M656.4,521.5
				c0.2-0.6,0.1-1.4-0.1-2.4l-0.5-2.2c-1,1-1.7,1.9-2.1,2.7c-0.4,0.8-0.4,1.7,0,2.6c0.1,0.3,0.4,0.5,0.8,0.6s0.7,0.1,1.1-0.1
				C655.9,522.4,656.2,522,656.4,521.5z"/>
		</g>
	</g>
	<g>
		<path class="st5" d="M706.7,536c-1.8,0-3.4-0.2-4.7-0.7c-1.3-0.5-2.4-1.2-3.1-2c-0.8-0.9-1.4-1.9-1.8-3.1c-0.4-1.2-0.7-2.6-0.7-4
			c0-0.3,0-0.6,0-0.9c0-1.2,0.1-2.5,0.2-3.8l1.7-15.8c0.2-2.3,0.6-4.4,1.2-6.1c0.5-1.7,1.3-3.2,2.3-4.6c1-1.3,2.3-2.4,3.9-3
			c1.6-0.7,3.6-1,5.8-1c2,0,3.7,0.3,5.1,0.9c1.4,0.6,2.4,1.4,3.1,2.5c0.7,1.1,1.2,2.5,1.4,4c0.1,0.8,0.2,1.6,0.2,2.6
			c0,0.9-0.1,1.8-0.2,2.8l-0.4,3.4h-5.6l0.3-3c0.1-0.7,0.1-1.2,0.2-1.6c0-0.4,0.1-0.9,0.1-1.5c0-0.6,0-1,0-1.3
			c0-0.3-0.1-0.7-0.2-1.2c-0.1-0.4-0.2-0.8-0.3-1c-0.1-0.2-0.3-0.5-0.6-0.8c-0.2-0.3-0.5-0.5-0.9-0.6c-0.3-0.1-0.7-0.3-1.2-0.3
			c-0.5-0.1-1-0.1-1.5-0.1c-1,0-1.9,0.2-2.6,0.5c-0.7,0.3-1.3,0.7-1.8,1.2c-0.5,0.5-0.8,1.1-1.2,2c-0.3,0.8-0.5,1.7-0.7,2.5
			c-0.1,0.8-0.3,1.9-0.4,3.1l-1.8,17.6c-0.1,1.1-0.2,2.1-0.2,3c0,1.8,0.2,3.1,0.7,4c0.7,1.3,2.1,2,4.3,2c0.8,0,1.5-0.1,2.2-0.3
			c0.6-0.2,1.1-0.5,1.6-0.9c0.4-0.4,0.8-0.8,1.1-1.3c0.3-0.4,0.5-1,0.7-1.8c0.2-0.8,0.3-1.5,0.4-2.1c0.1-0.6,0.2-1.5,0.3-2.5
			l0.3-3.2h5.6l-0.3,3.2c-0.2,2.1-0.6,4-1.1,5.5c-0.5,1.6-1.2,3-2.2,4.2c-0.9,1.2-2.2,2.2-3.7,2.8C710.6,535.6,708.8,536,706.7,536z
			"/>
		<path class="st5" d="M734,535.1c-1.2,0.5-2.7,0.8-4.4,0.8s-3.1-0.3-4.2-0.8c-1.1-0.5-2-1.3-2.5-2.3c-0.6-1-0.9-2.2-1.1-3.7
			c-0.1-0.6-0.1-1.3-0.1-2c0-0.9,0.1-1.9,0.2-2.9l0.9-9.1c0.4-3.8,1.4-6.7,3-8.7c1.6-2,4-3,7.3-3c1.7,0,3.1,0.3,4.2,0.8
			c1.1,0.6,2,1.3,2.6,2.3c0.6,1,0.9,2.2,1.1,3.7c0.1,0.6,0.1,1.3,0.1,2c0,0.9-0.1,1.8-0.2,2.8l-0.9,9.1c-0.2,1.9-0.5,3.5-1,4.9
			c-0.4,1.4-1.1,2.6-1.9,3.6C736.3,533.8,735.3,534.6,734,535.1z M728.9,531.5c0.3,0.1,0.8,0.2,1.2,0.2s0.9-0.1,1.3-0.2
			c0.4-0.2,0.7-0.3,1-0.5c0.3-0.2,0.5-0.5,0.7-0.9c0.2-0.4,0.4-0.8,0.5-1.1c0.1-0.3,0.2-0.8,0.3-1.4c0.1-0.6,0.2-1.1,0.2-1.4
			c0-0.4,0.1-0.9,0.2-1.6l1-9.8c0.1-0.7,0.1-1.2,0.1-1.6c0-0.4,0-0.9,0.1-1.5c0-0.6,0-1.1-0.1-1.4c-0.1-0.3-0.1-0.7-0.3-1.1
			c-0.1-0.4-0.3-0.7-0.5-0.9c-0.2-0.2-0.5-0.4-0.8-0.5s-0.8-0.2-1.2-0.2c-0.5,0-1,0.1-1.5,0.3c-0.4,0.2-0.8,0.4-1.1,0.8
			c-0.3,0.4-0.5,0.7-0.7,1.1c-0.2,0.4-0.3,0.9-0.5,1.5s-0.2,1.2-0.3,1.6c-0.1,0.5-0.1,1.1-0.2,1.9l-1,9.8c-0.1,0.7-0.1,1.2-0.1,1.6
			c0,0.4,0,0.8-0.1,1.4c0,0.6,0,1,0.1,1.4c0.1,0.3,0.1,0.7,0.3,1.1c0.1,0.4,0.3,0.7,0.5,0.9C728.2,531.2,728.5,531.4,728.9,531.5z"
			/>
		<path class="st5" d="M742.3,535.5l3.3-31.5h5.6l-0.3,3.1c2.7-2.4,5.3-3.5,7.9-3.5c2.3,0,3.7,1.3,4,3.9c2.8-2.6,5.6-3.9,8.3-3.9
			c0.9,0,1.6,0.2,2.2,0.6c0.6,0.4,1,0.9,1.3,1.5c0.3,0.6,0.4,1.3,0.5,2.1c0.1,0.4,0.1,0.7,0.1,1.1c0,0.4,0,0.9-0.1,1.3l-2.7,25.5
			h-5.6l2.5-23.9c0-0.4,0.1-0.7,0.1-1c0-0.7-0.1-1.3-0.3-1.8c-0.3-0.6-0.9-0.9-1.9-0.9c-1.2,0-2.7,0.7-4.4,2.1c0,0,0,0.1,0,0.3
			c0,0.1,0,0.2,0,0.3l-2.6,24.9h-5.6l2.5-23.9c0-0.4,0.1-0.7,0.1-1c0-0.7-0.1-1.3-0.3-1.8c-0.3-0.6-0.9-0.9-1.9-0.9
			c-1.2,0-2.6,0.7-4.4,2l-2.7,25.5H742.3z"/>
		<path class="st5" d="M775.2,545.9l4.4-41.9h5.6l-0.2,2.5c1.9-2,4-3,6.2-3c0.9,0,1.7,0.2,2.4,0.5c0.7,0.3,1.3,0.7,1.7,1.2
			c0.4,0.5,0.8,1.1,1.1,1.8c0.3,0.7,0.5,1.4,0.6,2.1c0.1,0.7,0.2,1.5,0.2,2.3c0,0.5,0,0.9,0,1.3c0,0.3,0,0.6,0,0.9
			c0,0.6-0.1,1.3-0.1,1.9l-0.8,7.5c-0.9,8.6-3.9,13-9.1,13c-1.9,0-3.5-0.9-5-2.8l-1.3,12.8H775.2z M786.5,531.5
			c0.6,0,1.1-0.2,1.6-0.5c0.4-0.3,0.8-0.7,1.1-1.1c0.3-0.4,0.5-1.1,0.7-1.9c0.2-0.8,0.4-1.6,0.5-2.3c0.1-0.7,0.2-1.6,0.3-2.8
			l0.8-7.5c0.1-1.4,0.2-2.7,0.2-3.8c0-1.1-0.2-2-0.7-2.7c-0.5-0.7-1.2-1-2.1-1c-1.3,0-2.7,0.6-4.2,1.7l-2.1,20.3
			C783.7,531,785,531.5,786.5,531.5z"/>
		<path class="st5" d="M811.2,535.1c-1.2,0.5-2.7,0.8-4.4,0.8s-3.1-0.3-4.2-0.8c-1.1-0.5-2-1.3-2.5-2.3c-0.6-1-0.9-2.2-1.1-3.7
			c-0.1-0.6-0.1-1.3-0.1-2c0-0.9,0.1-1.9,0.2-2.9l0.9-9.1c0.4-3.8,1.4-6.7,3-8.7c1.6-2,4-3,7.3-3c1.7,0,3.1,0.3,4.2,0.8
			c1.1,0.6,2,1.3,2.6,2.3c0.6,1,0.9,2.2,1.1,3.7c0.1,0.6,0.1,1.3,0.1,2c0,0.9-0.1,1.8-0.2,2.8l-0.9,9.1c-0.2,1.9-0.5,3.5-1,4.9
			c-0.4,1.4-1.1,2.6-1.9,3.6C813.5,533.8,812.5,534.6,811.2,535.1z M806,531.5c0.3,0.1,0.8,0.2,1.2,0.2s0.9-0.1,1.3-0.2
			c0.4-0.2,0.7-0.3,1-0.5c0.3-0.2,0.5-0.5,0.7-0.9c0.2-0.4,0.4-0.8,0.5-1.1c0.1-0.3,0.2-0.8,0.3-1.4c0.1-0.6,0.2-1.1,0.2-1.4
			c0-0.4,0.1-0.9,0.2-1.6l1-9.8c0.1-0.7,0.1-1.2,0.1-1.6c0-0.4,0-0.9,0.1-1.5c0-0.6,0-1.1-0.1-1.4c-0.1-0.3-0.1-0.7-0.3-1.1
			c-0.1-0.4-0.3-0.7-0.5-0.9c-0.2-0.2-0.5-0.4-0.8-0.5s-0.8-0.2-1.2-0.2c-0.5,0-1,0.1-1.5,0.3c-0.4,0.2-0.8,0.4-1.1,0.8
			c-0.3,0.4-0.5,0.7-0.7,1.1c-0.2,0.4-0.3,0.9-0.5,1.5s-0.2,1.2-0.3,1.6c-0.1,0.5-0.1,1.1-0.2,1.9l-1,9.8c-0.1,0.7-0.1,1.2-0.1,1.6
			c0,0.4,0,0.8-0.1,1.4c0,0.6,0,1,0.1,1.4c0.1,0.3,0.1,0.7,0.3,1.1c0.1,0.4,0.3,0.7,0.5,0.9C805.4,531.2,805.7,531.4,806,531.5z"/>
		<path class="st5" d="M819.6,535.5l3.3-31.5h5.6l-0.4,4.5c2.2-3.2,4.7-4.9,7.4-4.9c0.1,0,0.4,0,0.9,0.1l-0.7,6.2
			c-0.9-0.4-1.9-0.6-3-0.6c-1,0-1.9,0.2-2.7,0.7c-0.8,0.4-1.6,1.2-2.5,2.4l-2.4,23.2H819.6z"/>
		<path class="st5" d="M843,535.9c-2.4,0-4-0.6-4.9-1.9c-0.7-1-1.1-2.4-1.1-4.2c0-0.5,0-0.9,0.1-1.4l2.2-20.7H836l0.4-3.8h3.3l1-9.2
			h5.6l-1,9.2h5l-0.4,3.8h-5l-2.1,20.3c0,0.4-0.1,0.7-0.1,1c0,0.8,0.1,1.4,0.4,1.8c0.3,0.5,1.1,0.8,2.2,0.8c0.9,0,1.6-0.1,2.2-0.2
			l-0.4,4.2C845.5,535.8,844.2,535.9,843,535.9z"/>
		<path class="st5" d="M855.1,535.9c-1.8,0-3.2-0.8-4.2-2.2c-0.9-1.2-1.3-2.6-1.3-4.2c0-0.3,0-0.6,0.1-0.9c0.1-1.1,0.3-2.1,0.7-3
			c0.4-0.9,0.7-1.7,1-2.3c0.3-0.6,0.9-1.3,1.8-2c0.8-0.7,1.5-1.2,1.9-1.6c0.5-0.4,1.3-0.8,2.5-1.4c1.2-0.6,2.1-1,2.6-1.2
			c0.5-0.2,1.5-0.6,3-1.2c0.1,0,0.1-0.1,0.2-0.1l0.2-2.3c0.1-0.9,0.1-1.6,0.1-2.3c0-1-0.1-1.7-0.3-2.2c-0.3-0.9-1.1-1.3-2.4-1.3
			c-2.3,0-3.6,1.5-3.8,4.6l-0.2,1.5l-5.5-0.2c0-0.1,0-0.3,0.1-0.5c0-0.3,0.1-0.5,0.1-0.6c0.5-3.1,1.6-5.4,3.3-6.9
			c1.7-1.4,4-2.1,6.9-2.1c3,0,5.1,0.8,6.2,2.5c0.9,1.3,1.3,3.1,1.3,5.3c0,0.7,0,1.4-0.1,2.2l-1.5,14.5c-0.2,1.8-0.3,3.7-0.3,5.7
			c0,0.6,0,1.1,0,1.7h-5.1c-0.2-1.8-0.3-3.3-0.3-4.6c-0.6,1.4-1.5,2.6-2.7,3.6C858.1,535.4,856.7,535.9,855.1,535.9z M857.8,531
			c0.8,0,1.6-0.3,2.3-0.9s1.4-1.2,1.8-1.8l0.9-9c-0.1,0.1-0.3,0.1-0.5,0.3c-0.9,0.5-1.6,0.9-2.1,1.1c-0.5,0.3-1,0.6-1.8,1.1
			s-1.2,1-1.6,1.4c-0.4,0.4-0.7,1-1,1.6c-0.3,0.6-0.5,1.3-0.6,2.1c0,0.3-0.1,0.6-0.1,0.9c0,0.9,0.2,1.6,0.5,2.2
			C856.2,530.7,856.9,531,857.8,531z"/>
		<path class="st5" d="M870.6,535.5l3.3-31.5h5.6l-0.3,3.1c2.7-2.4,5.3-3.5,7.9-3.5c2.3,0,3.7,1.3,4,3.9c2.8-2.6,5.6-3.9,8.3-3.9
			c0.9,0,1.6,0.2,2.2,0.6c0.6,0.4,1,0.9,1.3,1.5c0.3,0.6,0.4,1.3,0.5,2.1c0.1,0.4,0.1,0.7,0.1,1.1c0,0.4,0,0.9-0.1,1.3l-2.7,25.5
			h-5.6l2.5-23.9c0-0.4,0.1-0.7,0.1-1c0-0.7-0.1-1.3-0.3-1.8c-0.3-0.6-0.9-0.9-1.9-0.9c-1.2,0-2.7,0.7-4.4,2.1c0,0,0,0.1,0,0.3
			c0,0.1,0,0.2,0,0.3l-2.6,24.9h-5.6l2.5-23.9c0-0.4,0.1-0.7,0.1-1c0-0.7-0.1-1.3-0.3-1.8c-0.3-0.6-0.9-0.9-1.9-0.9
			c-1.2,0-2.6,0.7-4.4,2l-2.7,25.5H870.6z"/>
		<path class="st5" d="M905,535.5l3.3-31.5h5.6l-3.3,31.5H905z M908.8,499.3l0.6-6h5.6l-0.6,6H908.8z"/>
		<path class="st5" d="M923.6,535.9c-1.8,0-3.3-0.3-4.4-0.8s-2-1.3-2.6-2.4c-0.6-1.1-0.9-2.4-1.1-3.9c-0.1-0.6-0.1-1.2-0.1-1.8
			c0-1.1,0.1-2.3,0.2-3.6l0.8-7.3c0.2-2.2,0.6-4,1-5.5c0.4-1.5,1.1-2.8,1.9-3.9c0.8-1.1,1.8-1.9,3.1-2.4c1.2-0.5,2.7-0.8,4.5-0.8
			c1.9,0,3.4,0.3,4.5,0.9c1.1,0.6,1.9,1.5,2.4,2.7c0.4,1.2,0.7,2.6,0.8,4.3c0,0.3,0,0.6,0,1c0,1.4-0.1,3-0.3,4.8l-0.3,2.6h-12.3
			l-0.4,4.3c-0.1,0.6-0.1,1-0.1,1.3c0,0.3-0.1,0.7-0.1,1.2c0,0.5,0,0.9,0,1.1s0,0.6,0,1c0,0.4,0,0.7,0.1,0.9s0.2,0.4,0.3,0.7
			c0.1,0.3,0.2,0.5,0.4,0.7s0.3,0.3,0.5,0.4s0.4,0.3,0.7,0.3s0.6,0.1,0.9,0.1c1.2,0,2.2-0.4,2.7-1.3c0.6-0.9,1-2.2,1.1-4l0.2-1.9
			h5.5l-0.2,1.3C932.7,532.6,929.5,535.9,923.6,535.9z M922.1,516.7h6.9l0.3-2.8c0.1-1,0.2-1.9,0.2-2.7c0-0.2,0-0.5,0-0.7
			c0-0.9-0.3-1.6-0.7-2.1c-0.4-0.5-1.1-0.7-2.1-0.7c-1.4,0-2.4,0.5-3,1.5c-0.6,1-1,2.9-1.3,5.8L922.1,516.7z"/>
		<path class="st5" d="M935.9,535.5l3.3-31.5h5.6l-0.3,3.1c2.8-2.4,5.4-3.6,8-3.6c0.9,0,1.6,0.2,2.2,0.6c0.6,0.4,1,0.9,1.3,1.5
			c0.2,0.6,0.4,1.3,0.5,2.1c0,0.3,0.1,0.7,0.1,1c0,0.4,0,0.9-0.1,1.3l-2.6,25.5h-5.6l2.5-23.9c0-0.4,0.1-0.7,0.1-1
			c0-0.7-0.1-1.3-0.3-1.8c-0.3-0.6-0.9-0.9-1.9-0.9c-1.2,0-2.7,0.7-4.4,2.1l-2.7,25.5H935.9z"/>
		<path class="st5" d="M965.8,535.9c-2.4,0-4-0.6-4.9-1.9c-0.7-1-1.1-2.4-1.1-4.2c0-0.5,0-0.9,0.1-1.4l2.2-20.7h-3.3l0.4-3.8h3.3
			l1-9.2h5.6l-1,9.2h5l-0.4,3.8h-5l-2.1,20.3c0,0.4-0.1,0.7-0.1,1c0,0.8,0.1,1.4,0.4,1.8c0.3,0.5,1.1,0.8,2.2,0.8
			c0.9,0,1.6-0.1,2.2-0.2l-0.4,4.2C968.3,535.8,966.9,535.9,965.8,535.9z"/>
		<path class="st5" d="M985.1,535.1c-1.2,0.5-2.7,0.8-4.4,0.8s-3.1-0.3-4.2-0.8c-1.1-0.5-2-1.3-2.5-2.3c-0.6-1-0.9-2.2-1.1-3.7
			c-0.1-0.6-0.1-1.3-0.1-2c0-0.9,0.1-1.9,0.2-2.9l0.9-9.1c0.4-3.8,1.4-6.7,3-8.7c1.6-2,4-3,7.3-3c1.7,0,3.1,0.3,4.2,0.8
			c1.1,0.6,2,1.3,2.6,2.3c0.6,1,0.9,2.2,1.1,3.7c0.1,0.6,0.1,1.3,0.1,2c0,0.9-0.1,1.8-0.2,2.8l-0.9,9.1c-0.2,1.9-0.5,3.5-1,4.9
			c-0.4,1.4-1.1,2.6-1.9,3.6C987.4,533.8,986.3,534.6,985.1,535.1z M979.9,531.5c0.3,0.1,0.8,0.2,1.2,0.2s0.9-0.1,1.3-0.2
			s0.7-0.3,1-0.5c0.3-0.2,0.5-0.5,0.7-0.9c0.2-0.4,0.4-0.8,0.5-1.1c0.1-0.3,0.2-0.8,0.3-1.4c0.1-0.6,0.2-1.1,0.2-1.4
			c0-0.4,0.1-0.9,0.2-1.6l1-9.8c0.1-0.7,0.1-1.2,0.1-1.6c0-0.4,0-0.9,0.1-1.5c0-0.6,0-1.1-0.1-1.4c-0.1-0.3-0.1-0.7-0.3-1.1
			c-0.1-0.4-0.3-0.7-0.5-0.9c-0.2-0.2-0.5-0.4-0.8-0.5c-0.3-0.2-0.8-0.2-1.2-0.2c-0.5,0-1,0.1-1.5,0.3c-0.4,0.2-0.8,0.4-1.1,0.8
			c-0.3,0.4-0.5,0.7-0.7,1.1c-0.2,0.4-0.3,0.9-0.5,1.5c-0.1,0.6-0.2,1.2-0.3,1.6s-0.1,1.1-0.2,1.9l-1,9.8c-0.1,0.7-0.1,1.2-0.1,1.6
			c0,0.4,0,0.8-0.1,1.4s0,1,0.1,1.4c0.1,0.3,0.1,0.7,0.3,1.1c0.1,0.4,0.3,0.7,0.5,0.9C979.3,531.2,979.6,531.4,979.9,531.5z"/>
		<path class="st5" d="M1004.2,535.5l4.6-44.2h16.8l-0.4,4.4h-10.9l-1.6,14.8h8.9l-0.4,4.3h-8.9l-1.7,16.4h11.1l-0.5,4.3H1004.2z"/>
		<path class="st5" d="M1023.9,535.5l3.3-31.5h5.6l-0.3,3.1c2.8-2.4,5.4-3.6,8-3.6c0.9,0,1.6,0.2,2.2,0.6c0.6,0.4,1,0.9,1.3,1.5
			c0.2,0.6,0.4,1.3,0.5,2.1c0,0.3,0.1,0.7,0.1,1c0,0.4,0,0.9-0.1,1.3l-2.6,25.5h-5.6l2.5-23.9c0-0.4,0.1-0.7,0.1-1
			c0-0.7-0.1-1.3-0.3-1.8c-0.3-0.6-0.9-0.9-1.9-0.9c-1.2,0-2.7,0.7-4.4,2.1l-2.7,25.5H1023.9z"/>
		<path class="st5" d="M1054.2,535.9c-1.8,0-3.3-0.3-4.4-0.8s-2-1.3-2.6-2.4c-0.6-1.1-0.9-2.4-1.1-3.9c-0.1-0.6-0.1-1.2-0.1-1.8
			c0-1.1,0.1-2.3,0.2-3.6l0.8-7.3c0.2-2.2,0.6-4,1-5.5c0.4-1.5,1.1-2.8,1.9-3.9c0.8-1.1,1.8-1.9,3.1-2.4c1.2-0.5,2.7-0.8,4.5-0.8
			c1.9,0,3.4,0.3,4.5,0.9c1.1,0.6,1.9,1.5,2.4,2.7c0.4,1.2,0.7,2.6,0.8,4.3c0,0.3,0,0.6,0,1c0,1.4-0.1,3-0.3,4.8l-0.3,2.6h-12.3
			l-0.4,4.3c-0.1,0.6-0.1,1-0.1,1.3c0,0.3-0.1,0.7-0.1,1.2c0,0.5,0,0.9,0,1.1s0,0.6,0,1c0,0.4,0,0.7,0.1,0.9s0.2,0.4,0.3,0.7
			c0.1,0.3,0.2,0.5,0.4,0.7s0.3,0.3,0.5,0.4s0.4,0.3,0.7,0.3s0.6,0.1,0.9,0.1c1.2,0,2.2-0.4,2.7-1.3c0.6-0.9,1-2.2,1.1-4l0.2-1.9
			h5.5l-0.2,1.3C1063.3,532.6,1060,535.9,1054.2,535.9z M1052.6,516.7h6.9l0.3-2.8c0.1-1,0.2-1.9,0.2-2.7c0-0.2,0-0.5,0-0.7
			c0-0.9-0.3-1.6-0.7-2.1c-0.4-0.5-1.1-0.7-2.1-0.7c-1.4,0-2.4,0.5-3,1.5c-0.6,1-1,2.9-1.3,5.8L1052.6,516.7z"/>
		<path class="st5" d="M1066.6,535.5l3.3-31.5h5.6l-0.4,4.5c2.2-3.2,4.7-4.9,7.4-4.9c0.1,0,0.4,0,0.9,0.1l-0.7,6.2
			c-0.9-0.4-1.9-0.6-3-0.6c-1,0-1.9,0.2-2.7,0.7s-1.6,1.2-2.5,2.4l-2.4,23.2H1066.6z"/>
		<path class="st5" d="M1090.4,545.3c-1.1,0-2.1,0-3-0.1s-1.7-0.1-2.6-0.2c-0.9-0.1-1.7-0.3-2.3-0.5c-0.6-0.2-1.2-0.5-1.7-0.9
			s-0.9-0.8-1.1-1.4c-0.2-0.4-0.2-0.9-0.3-1.4c0-0.2,0-0.3,0-0.5c0.2-1.6,0.8-3,1.8-4.2c1-1.2,2.2-2.2,3.6-2.8
			c-0.9-0.3-1.7-0.8-2.1-1.4c-0.4-0.5-0.6-1-0.6-1.7c0-0.1,0-0.2,0-0.3c0.1-1.1,0.5-2,1.1-2.8c0.7-0.8,1.6-1.8,3-2.9
			c-1.1-1-1.9-2.2-2.4-3.6c-0.3-0.9-0.4-2-0.4-3.3c0-0.8,0.1-1.6,0.2-2.5c0.4-3.6,1.4-6.4,3.1-8.3s4-2.9,6.8-2.9
			c3.2,0,5.2,1.2,6.1,3.5c0.3-0.4,0.9-0.9,1.8-1.6c0.9-0.7,1.8-1.2,2.8-1.7l0.9-0.4l1,3.7c-0.8,0.2-1.8,0.5-3.1,1s-2.1,0.9-2.4,1.1
			c0.2,0.6,0.3,1.5,0.4,2.7c0,0.5,0.1,1,0.1,1.5c0,0.6,0,1.1-0.1,1.6c-0.4,3.4-1.3,6.1-2.8,8s-3.8,2.9-6.9,2.9
			c-0.3,0-0.9-0.1-1.7-0.2c-0.8-0.1-1.2-0.2-1.3-0.2c0,0-0.1,0.2-0.4,0.5s-0.4,0.6-0.5,0.7c-0.1,0.1-0.2,0.3-0.3,0.6
			c-0.1,0.3-0.2,0.5-0.2,0.7c0,0.4,0.2,0.7,0.6,0.9c0.4,0.2,1,0.4,1.9,0.5c0.1,0,0.9,0.1,2.4,0.3c1.5,0.1,2.3,0.2,2.4,0.2
			c4.4,0.5,6.6,2.6,6.6,6.5c0,0.4,0,0.8-0.1,1.1c-0.3,2.8-1.3,4.8-2.9,6C1096,544.7,1093.6,545.3,1090.4,545.3z M1090.8,540.8
			c1.7,0,3-0.3,3.9-0.8c0.9-0.5,1.4-1.3,1.5-2.4c0-0.2,0-0.3,0-0.5c0-0.8-0.2-1.4-0.7-1.8c-0.6-0.5-1.7-0.9-3.3-1.1l-4.8-0.4
			c-0.6,0.4-1.2,1-1.8,1.8s-1,1.6-1.1,2.5c0,0.1,0,0.2,0,0.4c0,0.5,0.1,0.9,0.3,1.2c0.3,0.4,0.9,0.6,1.9,0.8
			S1089,540.8,1090.8,540.8z M1091.5,521.8c0.7,0,1.3-0.1,1.8-0.3c0.5-0.2,0.9-0.5,1.2-0.9c0.3-0.4,0.6-0.9,0.8-1.5
			c0.2-0.6,0.4-1.3,0.5-1.9c0.1-0.7,0.2-1.5,0.3-2.4c0.1-1.2,0.2-2.2,0.2-3.1c0-0.2,0-0.5,0-0.7c0-1.1-0.3-1.9-0.8-2.5
			c-0.5-0.6-1.3-0.9-2.4-0.9c-1.6,0-2.7,0.6-3.3,1.8c-0.7,1.2-1.1,3-1.4,5.5c-0.1,1-0.1,1.9-0.1,2.8c0,0.3,0,0.6,0,0.8
			c0,1,0.3,1.9,0.9,2.5S1090.4,521.8,1091.5,521.8z"/>
		<path class="st5" d="M1112.1,535.9c-1.8,0-3.3-0.3-4.4-0.8s-2-1.3-2.6-2.4c-0.6-1.1-0.9-2.4-1.1-3.9c-0.1-0.6-0.1-1.2-0.1-1.8
			c0-1.1,0.1-2.3,0.2-3.6l0.8-7.3c0.2-2.2,0.6-4,1-5.5c0.4-1.5,1.1-2.8,1.9-3.9c0.8-1.1,1.8-1.9,3.1-2.4c1.2-0.5,2.7-0.8,4.5-0.8
			c1.9,0,3.4,0.3,4.5,0.9c1.1,0.6,1.9,1.5,2.4,2.7c0.4,1.2,0.7,2.6,0.8,4.3c0,0.3,0,0.6,0,1c0,1.4-0.1,3-0.3,4.8l-0.3,2.6h-12.3
			l-0.4,4.3c-0.1,0.6-0.1,1-0.1,1.3c0,0.3-0.1,0.7-0.1,1.2c0,0.5,0,0.9,0,1.1s0,0.6,0,1c0,0.4,0,0.7,0.1,0.9s0.2,0.4,0.3,0.7
			c0.1,0.3,0.2,0.5,0.4,0.7s0.3,0.3,0.5,0.4s0.4,0.3,0.7,0.3s0.6,0.1,0.9,0.1c1.2,0,2.2-0.4,2.7-1.3c0.6-0.9,1-2.2,1.1-4l0.2-1.9
			h5.5l-0.2,1.3C1121.2,532.6,1117.9,535.9,1112.1,535.9z M1110.5,516.7h6.9l0.3-2.8c0.1-1,0.2-1.9,0.2-2.7c0-0.2,0-0.5,0-0.7
			c0-0.9-0.3-1.6-0.7-2.1c-0.4-0.5-1.1-0.7-2.1-0.7c-1.4,0-2.4,0.5-3,1.5c-0.6,1-1,2.9-1.3,5.8L1110.5,516.7z M1114.2,500.2
			l4.3-10.8h5.6l-7.1,10.8H1114.2z"/>
		<path class="st5" d="M1132.5,535.9c-2.4,0-4-0.6-4.9-1.9c-0.7-1-1.1-2.4-1.1-4.2c0-0.5,0-0.9,0.1-1.4l2.2-20.7h-3.3l0.4-3.8h3.3
			l1-9.2h5.6l-1,9.2h5l-0.4,3.8h-5l-2.1,20.3c0,0.4-0.1,0.7-0.1,1c0,0.8,0.1,1.4,0.4,1.8c0.3,0.5,1.1,0.8,2.2,0.8
			c0.9,0,1.6-0.1,2.2-0.2l-0.4,4.2C1135,535.8,1133.6,535.9,1132.5,535.9z"/>
		<path class="st5" d="M1139.4,535.5l3.3-31.5h5.6l-3.3,31.5H1139.4z M1143.2,499.3l0.6-6h5.6l-0.6,6H1143.2z"/>
		<path class="st5" d="M1157.8,535.9c-1.9,0-3.4-0.3-4.5-0.9c-1.2-0.6-2-1.4-2.5-2.5c-0.5-1.1-0.8-2.4-0.9-3.9c0-0.5-0.1-1-0.1-1.5
			c0-1.1,0.1-2.3,0.3-3.6l0.8-7.3c0.2-2.1,0.5-3.9,0.9-5.4c0.4-1.4,1-2.7,1.7-3.9c0.8-1.1,1.8-2,3-2.5s2.8-0.8,4.6-0.8
			c1.7,0,3,0.2,4.1,0.7s1.9,1.1,2.4,1.9c0.5,0.8,0.9,1.9,1,3.1c0.1,0.6,0.1,1.1,0.1,1.7c0,0.8-0.1,1.7-0.2,2.6l-0.2,1.8h-5.1
			l0.2-1.9c0.1-0.8,0.1-1.5,0.1-2.1c0-1-0.1-1.8-0.4-2.3c-0.4-0.9-1.2-1.3-2.5-1.3c-1.4,0-2.4,0.5-3,1.5s-1,2.9-1.3,5.8l-1,9.9
			c-0.1,1.1-0.2,2.1-0.2,2.9c0,1.2,0.1,2,0.4,2.6c0.4,1,1.3,1.4,2.6,1.4c0.6,0,1.1-0.1,1.5-0.3s0.8-0.4,1-0.7s0.5-0.7,0.7-1.2
			c0.2-0.5,0.3-1,0.4-1.5s0.2-1.1,0.3-1.9l0.3-2.5h5.1l-0.2,2.1c-0.2,1.7-0.5,3.1-0.8,4.3c-0.4,1.2-0.9,2.3-1.7,3.2
			c-0.7,0.9-1.7,1.6-2.8,2.1C1160.9,535.7,1159.5,535.9,1157.8,535.9z"/>
		<path class="st5" d="M1182.5,535.1c-1.2,0.5-2.7,0.8-4.4,0.8s-3.1-0.3-4.2-0.8c-1.1-0.5-2-1.3-2.5-2.3c-0.6-1-0.9-2.2-1.1-3.7
			c-0.1-0.6-0.1-1.3-0.1-2c0-0.9,0.1-1.9,0.2-2.9l0.9-9.1c0.4-3.8,1.4-6.7,3-8.7c1.6-2,4-3,7.3-3c1.7,0,3.1,0.3,4.2,0.8
			c1.1,0.6,2,1.3,2.6,2.3c0.6,1,0.9,2.2,1.1,3.7c0.1,0.6,0.1,1.3,0.1,2c0,0.9-0.1,1.8-0.2,2.8l-0.9,9.1c-0.2,1.9-0.5,3.5-1,4.9
			c-0.4,1.4-1.1,2.6-1.9,3.6C1184.7,533.8,1183.7,534.6,1182.5,535.1z M1177.3,531.5c0.3,0.1,0.8,0.2,1.2,0.2s0.9-0.1,1.3-0.2
			s0.7-0.3,1-0.5c0.3-0.2,0.5-0.5,0.7-0.9c0.2-0.4,0.4-0.8,0.5-1.1c0.1-0.3,0.2-0.8,0.3-1.4c0.1-0.6,0.2-1.1,0.2-1.4
			c0-0.4,0.1-0.9,0.2-1.6l1-9.8c0.1-0.7,0.1-1.2,0.1-1.6c0-0.4,0-0.9,0.1-1.5c0-0.6,0-1.1-0.1-1.4c-0.1-0.3-0.1-0.7-0.3-1.1
			c-0.1-0.4-0.3-0.7-0.5-0.9c-0.2-0.2-0.5-0.4-0.8-0.5c-0.3-0.2-0.8-0.2-1.2-0.2c-0.5,0-1,0.1-1.5,0.3c-0.4,0.2-0.8,0.4-1.1,0.8
			c-0.3,0.4-0.5,0.7-0.7,1.1c-0.2,0.4-0.3,0.9-0.5,1.5c-0.1,0.6-0.2,1.2-0.3,1.6s-0.1,1.1-0.2,1.9l-1,9.8c-0.1,0.7-0.1,1.2-0.1,1.6
			c0,0.4,0,0.8-0.1,1.4s0,1,0.1,1.4c0.1,0.3,0.1,0.7,0.3,1.1c0.1,0.4,0.3,0.7,0.5,0.9C1176.7,531.2,1177,531.4,1177.3,531.5z"/>
		<path class="st5" d="M1211.8,536c-3.7,0-6.3-1.1-8-3.4c-1.5-2.1-2.3-4.8-2.3-8.2c0-0.4,0-0.7,0-1.1l5.4-1.4c0,0.4,0,0.8,0,1.2
			c0,0.9,0.1,1.6,0.1,2.3c0.1,1,0.3,2,0.7,3c0.4,0.9,0.9,1.7,1.7,2.2c0.8,0.5,1.7,0.8,2.8,0.8c1.6,0,2.9-0.4,3.8-1.3
			c0.9-0.9,1.5-2.2,1.7-4c0-0.4,0.1-0.7,0.1-1c0-0.4,0-0.8-0.1-1.2c-0.1-0.7-0.3-1.3-0.4-1.8c-0.2-0.5-0.5-1.1-0.9-1.6
			c-0.4-0.6-0.8-1.1-1.1-1.5s-0.8-0.9-1.4-1.5l-6.7-6.7c-1.3-1.3-2.2-2.8-2.8-4.3c-0.4-1-0.6-2.2-0.6-3.6c0-0.6,0-1.2,0.1-1.8
			c0.3-3.2,1.5-5.7,3.5-7.4c2-1.8,4.6-2.7,7.8-2.7c0.1,0,0.1,0,0.2,0c3.4,0,5.8,0.9,7.4,2.7c1.5,1.8,2.2,4.5,2.2,8.2
			c0,0.2,0,0.3,0,0.5l-5.1,1.4c0-0.4,0-0.8,0-1.2c0-0.8,0-1.4-0.1-2.1c-0.1-0.9-0.3-1.8-0.7-2.6c-0.3-0.8-0.9-1.4-1.6-1.8
			c-0.6-0.3-1.4-0.5-2.2-0.5c-0.2,0-0.3,0-0.5,0c-3.4,0.2-5.2,1.8-5.5,4.9c0,0.3-0.1,0.7-0.1,1c0,0.9,0.1,1.6,0.4,2.3
			c0.4,0.9,1,1.8,1.9,2.8l6.7,6.6c1.8,1.8,3.1,3.6,4,5.6c0.7,1.6,1.1,3.3,1.1,5.2c0,0.5,0,1-0.1,1.5c-0.3,3.2-1.6,5.8-3.7,7.7
			C1217.5,535,1214.9,536,1211.8,536z"/>
		<path class="st5" d="M1230.3,535.9c-1.8,0-3.2-0.8-4.2-2.2c-0.9-1.2-1.3-2.6-1.3-4.2c0-0.3,0-0.6,0.1-0.9c0.1-1.1,0.3-2.1,0.7-3
			c0.4-0.9,0.7-1.7,1-2.3c0.3-0.6,0.9-1.3,1.8-2c0.8-0.7,1.5-1.2,1.9-1.6c0.5-0.4,1.3-0.8,2.5-1.4c1.2-0.6,2.1-1,2.6-1.2
			c0.5-0.2,1.5-0.6,3-1.2c0.1,0,0.1-0.1,0.2-0.1l0.2-2.3c0.1-0.9,0.1-1.6,0.1-2.3c0-1-0.1-1.7-0.3-2.2c-0.3-0.9-1.1-1.3-2.4-1.3
			c-2.3,0-3.6,1.5-3.8,4.6l-0.2,1.5l-5.5-0.2c0-0.1,0-0.3,0.1-0.5c0-0.3,0.1-0.5,0.1-0.6c0.5-3.1,1.6-5.4,3.3-6.9
			c1.7-1.4,4-2.1,6.9-2.1c3,0,5.1,0.8,6.2,2.5c0.9,1.3,1.3,3.1,1.3,5.3c0,0.7,0,1.4-0.1,2.2l-1.5,14.5c-0.2,1.8-0.3,3.7-0.3,5.7
			c0,0.6,0,1.1,0,1.7h-5.1c-0.2-1.8-0.3-3.3-0.3-4.6c-0.6,1.4-1.5,2.6-2.7,3.6C1233.4,535.4,1232,535.9,1230.3,535.9z M1233,531
			c0.8,0,1.6-0.3,2.3-0.9s1.4-1.2,1.8-1.8l0.9-9c-0.1,0.1-0.3,0.1-0.5,0.3c-0.9,0.5-1.6,0.9-2.1,1.1s-1,0.6-1.8,1.1
			c-0.7,0.5-1.2,1-1.6,1.4c-0.4,0.4-0.7,1-1,1.6c-0.3,0.6-0.5,1.3-0.6,2.1c0,0.3-0.1,0.6-0.1,0.9c0,0.9,0.2,1.6,0.5,2.2
			C1231.5,530.7,1232.1,531,1233,531z"/>
		<path class="st5" d="M1256.8,535.9c-1.9,0-3.5-0.9-5-2.8l-0.2,2.3h-5.6l4.6-44.2h5.6l-1.6,15.1c1.9-2,4-3,6.2-3
			c1,0,1.9,0.2,2.7,0.6c0.8,0.4,1.4,0.9,1.8,1.6s0.8,1.4,1,2.2s0.4,1.7,0.5,2.6c0,0.7,0.1,1.4,0.1,2c0,0.2,0,0.4,0,0.6
			c0,0.7-0.1,1.5-0.2,2.3l-0.8,7.5C1265,531.6,1261.9,535.9,1256.8,535.9z M1256.1,531.5c0.5,0,0.9-0.1,1.3-0.3
			c0.4-0.2,0.7-0.5,1-0.9c0.3-0.4,0.5-0.8,0.7-1.3s0.4-1,0.5-1.8c0.1-0.7,0.3-1.4,0.3-2s0.2-1.4,0.3-2.3l0.8-7.5
			c0.1-1.4,0.2-2.7,0.2-3.8c0-1.1-0.2-2-0.7-2.7c-0.5-0.7-1.2-1-2.1-1c-1.3,0-2.7,0.6-4.2,1.7l-2.1,20.4
			C1253.3,531,1254.6,531.5,1256.1,531.5z"/>
		<path class="st5" d="M1268.4,535.5l3.3-31.5h5.6l-3.3,31.5H1268.4z M1272.2,499.3l0.6-6h5.6l-0.6,6H1272.2z"/>
		<path class="st5" d="M1291.3,535.1c-1.2,0.5-2.7,0.8-4.4,0.8s-3.1-0.3-4.2-0.8c-1.1-0.5-2-1.3-2.5-2.3c-0.6-1-0.9-2.2-1.1-3.7
			c-0.1-0.6-0.1-1.3-0.1-2c0-0.9,0.1-1.9,0.2-2.9l0.9-9.1c0.4-3.8,1.4-6.7,3-8.7c1.6-2,4-3,7.3-3c1.7,0,3.1,0.3,4.2,0.8
			c1.1,0.6,2,1.3,2.6,2.3c0.6,1,0.9,2.2,1.1,3.7c0.1,0.6,0.1,1.3,0.1,2c0,0.9-0.1,1.8-0.2,2.8l-0.9,9.1c-0.2,1.9-0.5,3.5-1,4.9
			c-0.4,1.4-1.1,2.6-1.9,3.6C1293.5,533.8,1292.5,534.6,1291.3,535.1z M1286.1,531.5c0.3,0.1,0.8,0.2,1.2,0.2s0.9-0.1,1.3-0.2
			s0.7-0.3,1-0.5c0.3-0.2,0.5-0.5,0.7-0.9c0.2-0.4,0.4-0.8,0.5-1.1c0.1-0.3,0.2-0.8,0.3-1.4c0.1-0.6,0.2-1.1,0.2-1.4
			c0-0.4,0.1-0.9,0.2-1.6l1-9.8c0.1-0.7,0.1-1.2,0.1-1.6c0-0.4,0-0.9,0.1-1.5c0-0.6,0-1.1-0.1-1.4c-0.1-0.3-0.1-0.7-0.3-1.1
			c-0.1-0.4-0.3-0.7-0.5-0.9c-0.2-0.2-0.5-0.4-0.8-0.5c-0.3-0.2-0.8-0.2-1.2-0.2c-0.5,0-1,0.1-1.5,0.3c-0.4,0.2-0.8,0.4-1.1,0.8
			c-0.3,0.4-0.5,0.7-0.7,1.1c-0.2,0.4-0.3,0.9-0.5,1.5c-0.1,0.6-0.2,1.2-0.3,1.6s-0.1,1.1-0.2,1.9l-1,9.8c-0.1,0.7-0.1,1.2-0.1,1.6
			c0,0.4,0,0.8-0.1,1.4s0,1,0.1,1.4c0.1,0.3,0.1,0.7,0.3,1.1c0.1,0.4,0.3,0.7,0.5,0.9C1285.5,531.2,1285.7,531.4,1286.1,531.5z"/>
	</g>
</g>
</svg>
