<?xml version="1.0" encoding="utf-8"?>
<!-- Generator: Adobe Illustrator 22.1.0, SVG Export Plug-In . SVG Version: 6.00 Build 0)  -->
<svg version="1.1" id="Layer_1" xmlns="http://www.w3.org/2000/svg" xmlns:xlink="http://www.w3.org/1999/xlink" x="0px" y="0px"
	 viewBox="0 0 500 500" style="enable-background:new 0 0 500 500;" xml:space="preserve">
<g>
	<g>
		<path fill="white" d="M176.4,308.2h-14.8V142.6c0-20.8,16.9-37.7,37.8-37.7h139.1v172.9h-14.8V119.7H199.3c-12.7,0-23,10.3-23,23V308.2z"/>
	</g>
	<g>
		<path fill="white" d="M338.4,345.9H250v-14.8h73.6v-45.9H199.3c-12.7,0-23,10.3-23,23c0,12.7,10.3,23,23,23h11.8v14.8h-11.8
			c-20.8,0-37.8-16.9-37.8-37.8s16.9-37.8,37.8-37.8h139.1V345.9z"/>
	</g>
</g>
<g>
	<g>
		<path fill="white" d="M257.4,395.1l-26.8-28.8l-26.8,28.8v-94.4h53.7V395.1z M230.6,344.7l12.1,12.9v-42h-24.1v42L230.6,344.7z"/>
	</g>
	<g>
		<polygon fill="white" points="244.6,381.4 230.6,366.3 216.5,381.4 211.2,376.5 203.7,376.6 203.7,373.6 205.7,371.3 230.6,344.7 257.4,373.4 
			257.4,376.4 249.9,376.5 		"/>
	</g>
</g>
</svg>
