<?xml version="1.0" encoding="utf-8"?>
<!-- Generator: Adobe Illustrator 22.1.0, SVG Export Plug-In . SVG Version: 6.00 Build 0)  -->
<svg version="1.1" id="Icons" xmlns="http://www.w3.org/2000/svg" xmlns:xlink="http://www.w3.org/1999/xlink" x="0px" y="0px"
	 viewBox="0 0 115.5 115.5" style="enable-background:new 0 0 115.5 115.5;" xml:space="preserve">
<g>
	<path fill="white" d="M33,34c5.9,0,10.7-4.8,10.7-10.7S38.9,12.6,33,12.6s-10.7,4.8-10.7,10.7S27.1,34,33,34z M33,17.6c3.1,0,5.7,2.6,5.7,5.7
		c0,3.1-2.6,5.7-5.7,5.7c-3.1,0-5.7-2.6-5.7-5.7C27.3,20.2,29.8,17.6,33,17.6z"/>
	<path fill="white" d="M71.2,14c3.7,0,6.7-3,6.7-6.7c0-3.7-3-6.7-6.7-6.7c-3.7,0-6.7,3-6.7,6.7C64.6,11.1,67.6,14,71.2,14z M71.2,5.7
		c0.9,0,1.7,0.7,1.7,1.7S72.2,9,71.2,9s-1.7-0.7-1.7-1.7S70.3,5.7,71.2,5.7z"/>
	<path fill="white" d="M92.7,88l-11.9-8.2l3.2-25.6c0.1-0.7-0.1-1.4-0.6-2c-0.5-0.5-1.2-0.8-1.9-0.8h-0.7c-1.3-6.7-6.6-12.1-13.4-13.3
		c-1-6.4-6.6-11.3-13.3-11.3c-6.8,0-12.5,5.1-13.3,11.7c-7,0.7-12.6,6-13.8,12.9h-2.6c-0.7,0-1.4,0.3-1.9,0.8
		c-0.5,0.5-0.7,1.3-0.6,2l7.2,58.4c0.2,1.3,1.2,2.2,2.5,2.2h42.8c1.3,0,2.3-0.9,2.5-2.2l3.4-27.2l9.8,6.7c0.4,0.3,0.9,0.4,1.4,0.4
		c0.8,0,1.6-0.4,2.1-1.1C94.1,90.3,93.8,88.7,92.7,88z M42.3,43.4c0.2,0,0.3,0,0.5,0l3,0.2l-0.2-3c0-0.1,0-0.3,0-0.4
		c0-4.7,3.8-8.5,8.5-8.5c4.6,0,8.4,3.8,8.5,8.4l0,2.6l2.4,0.1c5.2,0.2,9.4,3.8,10.7,8.5H32C33.2,46.8,37.3,43.4,42.3,43.4z
		 M72,109.8H33.7l-6.6-53.4h51.5l-2.5,20.2L54.3,61.5c-1.1-0.8-2.7-0.5-3.5,0.6c-0.8,1.1-0.5,2.7,0.6,3.5l24,16.5L72,109.8z"/>
</g>
</svg>
