<?xml version="1.0" encoding="utf-8"?>
<!-- Generator: Adobe Illustrator 25.4.1, SVG Export Plug-In . SVG Version: 6.00 Build 0)  -->
<svg version="1.1" xmlns="http://www.w3.org/2000/svg" xmlns:xlink="http://www.w3.org/1999/xlink" x="0px" y="0px"
	 viewBox="0 0 516.2 413" style="enable-background:new 0 0 516.2 413;" xml:space="preserve">
<style type="text/css">
	.st0{fill:#E1F4FD;}
	.st1{fill:#FFDE17;}
	.st2{fill:#C7EAFB;}
	.st3{fill:#6DCFF6;}
	.st4{fill:#00B3F0;}
	.st5{fill:#0072BC;}
	.st6{fill:#005E9E;}
	.st7{opacity:0.2;fill:#0072BC;enable-background:new    ;}
	.st8{fill:#FFFFFF;}
	.st9{display:none;fill:#FFFFFF;stroke:#FFFFFF;stroke-width:6;stroke-miterlimit:10;}
</style>
<g id="Layer_1">
	<path class="st0" d="M308.8,139.7H34.3c-16.3,0-29.6-11.6-29.6-25.8v-85C4.7,14.7,18,3.1,34.3,3.1h274.5
		c16.3,0,29.6,11.6,29.6,25.8v85C338.4,128.1,325.1,139.7,308.8,139.7z"/>
	<circle class="st0" cx="218.9" cy="250.9" r="137.2"/>
	<g>
		<g>
			<g>
				<g>
					<path class="st1" d="M218.4,251.5l-58.3-105.2c18.6-10.3,37.1-15.1,58.3-15.1V251.5z"/>
				</g>
			</g>
			<g>
				<g>
					<path class="st2" d="M218.4,251.5L100,230.6c6.5-36.6,27.6-66.3,60.2-84.3L218.4,251.5z"/>
				</g>
			</g>
			<g>
				<g>
					<path class="st3" d="M218.4,251.5l-63.8,102c-42.8-26.8-63.5-73.2-54.7-122.9L218.4,251.5z"/>
				</g>
			</g>
			<g>
				<g>
					<path class="st4" d="M218.4,251.5l70.7,97.3c-40.9,29.7-91.7,31.5-134.5,4.7L218.4,251.5z"/>
				</g>
			</g>
			<g>
				<g>
					<path class="st5" d="M218.4,251.5l120-8.4c3,42.4-14.9,80.7-49.3,105.7L218.4,251.5z"/>
				</g>
			</g>
			<g>
				<g>
					<path class="st6" d="M218.4,251.5V131.1c63.8,0,115.6,48.3,120,111.9L218.4,251.5z"/>
				</g>
			</g>
		</g>
	</g>
	<circle class="st7" cx="215.2" cy="261.4" r="62.1"/>
	<circle class="st8" cx="218.9" cy="250.9" r="62.1"/>
	<path class="st9" d="M256.1,48.4c-1.5,0-2.9,0.2-4.2,0.7l1.6-7.6l-14.2,1.9l-1.1,5.2c-1.1,0.1-2.2,0.3-3.3,0.7c0-0.1,0-0.2,0-0.3
		c0-1.9-0.7-3.6-2.1-5c-1.4-1.4-3.1-2.1-5-2.1s-3.7,0.7-5,2.1c-1,1-1.6,2.2-1.9,3.5l-9.5,1.3l-0.8,2.6c-0.2-0.3-0.5-0.5-0.7-0.7
		c-1-1-2.8-2.1-5.7-2.1c-0.5,0-1,0-1.5,0.1h-4.1l1.6-7.5l-5.1-0.4c-0.7-0.1-1.2-0.1-1.6-0.1c-2.4,0-4.8,0.5-7.1,1.6
		s-4.3,2.5-5.8,4.3c-1.2,1.4-2.1,3-2.5,4.6c-1.4-1.7-3.6-2.7-6.5-2.7c-2.5,0-4.8,0.7-6.6,2l-0.1-3.3l-8.2,1.1l1.6-7.6h-13.7
		l-0.1,0.5l-1.5-0.3c-0.8-0.2-1.7-0.3-2.8-0.3c-2.7,0-5.2,0.5-7.6,1.5c-2.5,1-4.5,2.5-6.1,4.2c-1.1,1.3-1.9,2.7-2.4,4.1
		c-0.7-0.7-1.6-1.1-2.5-1.4l0.1-0.3h-13.8l0,0c-1.6-0.4-3.6-0.4-5.3,0h-1.7l1.3-5.9l-14.2,2l-0.9,4h-5.7c-1.2-0.2-2.6-0.2-3.9,0
		l2.9-7.9h-23l-0.1,0.2L54,40.8c-0.7-0.1-1.2-0.1-1.6-0.1c-2.4,0-4.8,0.5-7.1,1.6s-4.3,2.5-5.8,4.3c-1.8,2.1-2.8,4.5-2.8,6.9
		c0,3.1,1.3,4.9,2.4,5.8c1.4,1.2,3.2,1.8,5.5,1.8h0.1l0.2,10l-4.6,0.6l-0.9,4h-1.1l-2,10.3h1l-0.8,3.6c-0.2,1.2-0.4,2.2-0.4,3
		c0,2.5,0.8,4.5,2.2,6c1.5,1.5,3.5,2.3,5.7,2.3c0.6,0,1.3-0.1,2-0.2h10.5l0.2-0.8c1.1,0.6,2.5,1,4.3,1c1.5,0,3-0.4,4.3-1.1
		c1.4,0.7,3,1.1,4.8,1.1c0.1,0,0.2,0,0.3,0l0,0h24.3c0.3,0,0.6,0,0.9,0c3.6,0,6.7-1.1,9.1-3.3c0.3,0.4,0.6,0.8,1,1.2
		c1.3,1.3,3.1,2.1,5,2.1s3.6-0.7,5-2c0,0,0,0,0.1-0.1c0.7,0.6,1.4,1,2.3,1.4c1.6,0.7,3.4,1.1,5.4,1.1c2.3,0,4.4-0.5,6.3-1.4
		c0.8-0.4,1.6-0.9,2.3-1.4c0.1,0.1,0.2,0.2,0.3,0.3c0.5,0.5,1.1,1,1.7,1.3l1.9,0.6c0.4,0.1,0.9,0.1,1.4,0.1s0.9,0,1.4-0.1h8.1h4.2
		H170l0.2-1c1.4,0.8,3.1,1.1,5,1.1c0.9,0,1.8-0.1,2.6-0.3v0.2h21.7l0.2-0.8c1.1,0.6,2.5,1,4.3,1c1.5,0,3-0.4,4.3-1.1
		c1.4,0.7,3,1.1,4.8,1.1c5.3,0,9-3.2,10-8.4l1.1-5.8c0.4-1,0.6-2,0.7-3.1l0,0v-0.1c0-0.2,0-0.3,0-0.5s0-0.3,0-0.5v-8.6
		c0.3,0,0.6,0,0.9,0c1.6,0,3.2-0.4,4.8-1.2c1.3,0.8,2.8,1.2,4.4,1.2c1.5,0,3-0.3,4.3-1c1.1,0.5,2.3,0.8,3.6,0.8c1.6,0,3.2-0.3,4.5-1
		c1.4,0.8,3.1,1.2,5.1,1.2c5.3,0,9-3.2,10-8.4l1.1-5.8c0.5-1.2,0.7-2.4,0.7-3.7C264.1,51.4,261,48.4,256.1,48.4z"/>
	<g>
		<g>
			<path class="st6" d="M194.6,159.7c-1.6,0-3-1.3-3-3c0-1.1,0.6-2,1.5-2.6V111H412v3H196.1v40.1c0.9,0.5,1.5,1.5,1.5,2.6
				C197.6,158.4,196.3,159.7,194.6,159.7z"/>
			<path class="st8" d="M411,112.1v1H195.1v41.8c0.8,0.2,1.5,1,1.5,1.9c0,1.1-0.9,2-2,2s-2-0.9-2-2c0-0.9,0.6-1.7,1.5-1.9v-42.8
				L411,112.1 M413,110.1h-2H194.1h-2v2v41.6c-0.9,0.7-1.5,1.9-1.5,3.1c0,2.2,1.8,4,4,4s4-1.8,4-4c0-1.2-0.6-2.3-1.5-3.1v-38.6H411
				h2v-2v-1V110.1L413,110.1z"/>
		</g>
		<g>
			<path class="st6" d="M289.1,191.8c-1.6,0-3-1.3-3-3c0-1.1,0.6-2,1.5-2.6v-55.6H412v3H290.6v52.6c0.9,0.5,1.5,1.5,1.5,2.6
				C292,190.5,290.7,191.8,289.1,191.8z"/>
			<path class="st8" d="M411,131.7v1H289.6V187c0.8,0.2,1.5,1,1.5,1.9c0,1.1-0.9,2-2,2s-2-0.9-2-2c0-0.9,0.6-1.7,1.5-1.9v-55.3H411
				 M413,129.7h-2H288.6h-2v2v54.1c-0.9,0.7-1.5,1.9-1.5,3.1c0,2.2,1.8,4,4,4s4-1.8,4-4c0-1.2-0.6-2.3-1.5-3.1v-51.1H411h2v-2v-1
				V129.7L413,129.7z"/>
		</g>
		<g>
			<path class="st6" d="M301.6,289c-1.6,0-3-1.3-3-3s1.3-3,3-3c1.1,0,2,0.6,2.6,1.5h54.6V149.2H412v3h-50.3v135.3h-57.6
				C303.6,288.4,302.6,289,301.6,289z"/>
			<path class="st8" d="M411,150.2v1h-50.3v135.3h-57.2c-0.2,0.8-1,1.5-1.9,1.5c-1.1,0-2-0.9-2-2s0.9-2,2-2c0.9,0,1.7,0.6,1.9,1.5
				h56.2V150.2H411 M413,148.2h-2h-51.3h-2v2v133.3h-53c-0.7-0.9-1.9-1.5-3.1-1.5c-2.2,0-4,1.8-4,4s1.8,4,4,4c1.2,0,2.3-0.6,3.1-1.5
				h56h2v-2V153.2H411h2v-2v-1V148.2L413,148.2z"/>
		</g>
		<g>
			<path class="st6" d="M223.3,384.6v-41.7c-0.9-0.5-1.5-1.5-1.5-2.6c0-1.6,1.3-3,3-3c1.6,0,3,1.3,3,3c0,1.1-0.6,2-1.5,2.6v38.7h145
				V169H412v3h-37.7v212.6H223.3z"/>
			<path class="st8" d="M411,170v1h-37.7v212.6h-149v-41.4c-0.8-0.2-1.5-1-1.5-1.9c0-1.1,0.9-2,2-2s2,0.9,2,2c0,0.9-0.6,1.7-1.5,1.9
				v40.4h147V170H411 M413,168h-2h-38.7h-2v2v210.6h-143v-37.2c0.9-0.7,1.5-1.9,1.5-3.1c0-2.2-1.8-4-4-4s-4,1.8-4,4
				c0,1.2,0.6,2.3,1.5,3.1v40.2v2h2h149h2v-2V173H411h2v-2v-1V168L413,168z"/>
		</g>
		<g>
			<path class="st6" d="M137.9,397.7v-107c-0.9-0.5-1.5-1.5-1.5-2.6c0-1.6,1.3-3,3-3c1.6,0,3,1.3,3,3c0,1.1-0.6,2-1.5,2.6v104h242.9
				V189.1H412v3h-25.2v205.5H137.9V397.7z"/>
			<path class="st8" d="M411,190.1v1h-25.2v205.5H138.9V290c-0.8-0.2-1.5-1-1.5-1.9c0-1.1,0.9-2,2-2s2,0.9,2,2
				c0,0.9-0.6,1.7-1.5,1.9v105.7h244.9V190.1H411 M413,188.1h-2h-26.2h-2v2v203.5H141.9V291.2c0.9-0.7,1.5-1.9,1.5-3.1
				c0-2.2-1.8-4-4-4s-4,1.8-4,4c0,1.2,0.6,2.3,1.5,3.1v105.5v2h2h246.9h2v-2V193.1H411h2v-2v-1V188.1L413,188.1z"/>
		</g>
		<g>
			<path class="st6" d="M122.9,410.9V197.8h21.2c0.5-0.9,1.5-1.5,2.6-1.5c1.6,0,3,1.3,3,3s-1.3,3-3,3c-1.1,0-2-0.6-2.6-1.5h-18.2
				v207.1h271.3V209.2H412v3h-11.7v198.7H122.9z"/>
			<path class="st8" d="M146.7,197.4c1.1,0,2,0.9,2,2s-0.9,2-2,2c-0.9,0-1.7-0.6-1.9-1.5h-19.9V409h273.3V210.2H411v1h-11.7v198.7
				H123.9V198.8h20.9C145,198,145.8,197.4,146.7,197.4 M146.7,195.4c-1.2,0-2.3,0.6-3.1,1.5h-19.7h-2v2V410v2h2h275.3h2v-2V213.2
				h9.7h2v-2v-1v-2h-2h-12.7h-2v2v196.7H126.9V201.8h16.7c0.7,0.9,1.9,1.5,3.1,1.5c2.2,0,4-1.8,4-4
				C150.7,197.2,148.9,195.4,146.7,195.4L146.7,195.4z"/>
		</g>
	</g>
	<g>
		<g>
			<g>
				<path class="st4" d="M218.1,262.7c-6.4,0-11.6-5.2-11.6-11.6c0-2.6,1.8-6.6,5.4-11.9c2.6-3.8,5.1-6.8,5.2-6.9l1.1-1.3l1.1,1.3
					c0.1,0.1,2.6,3.2,5.2,6.9c3.6,5.2,5.4,9.2,5.4,11.9C229.7,257.5,224.5,262.7,218.1,262.7z M218.1,235.4c-3.2,4-8.9,12-8.9,15.7
					c0,4.9,4,8.9,8.9,8.9s8.9-4,8.9-8.9C227,247.4,221.3,239.4,218.1,235.4z"/>
			</g>
		</g>
		<g>
			<g>
				<path class="st4" d="M218.1,266.4c-5.3,0-10.3-0.3-14-1c-4.8-0.8-6.9-1.9-6.9-3.7c0-1,0-3.6,13.9-4.4l0.2,2.8
					c-5.8,0.4-9.2,1.1-10.7,1.7c2.1,0.8,8,1.9,17.5,1.9c9.6,0,15.4-1.1,17.5-1.9c-1.5-0.6-4.9-1.3-10.7-1.7l0.2-2.8
					c13.9,0.9,13.9,3.5,13.9,4.4c0,1.8-2.1,2.9-6.9,3.7C228.4,266,223.4,266.4,218.1,266.4z"/>
			</g>
		</g>
		<g>
			<g>
				<path class="st4" d="M190.2,258.2L190.2,258.2c-0.4-0.8,0-1.6,0.7-1.9c4.1-1.6,10.1-2.8,17.4-3.3l0.2,2.7
					c-6.9,0.5-12.8,1.7-16.6,3.2C191.3,259.2,190.5,258.9,190.2,258.2z"/>
			</g>
		</g>
		<g>
			<g>
				<path class="st4" d="M216.7,270.8c-11.6-0.1-27.1-2.1-30.7-6.9c-0.7-0.9,0-2.2,1.1-2.2l0,0c0.4,0,0.9,0.2,1.1,0.6
					c1.5,2.2,11.2,5.6,28.5,5.8c0.8,0,1.4,0.6,1.4,1.4l0,0C218.1,270.2,217.5,270.8,216.7,270.8z"/>
			</g>
		</g>
		<g>
			<g>
				<path class="st4" d="M227.3,269.1L227.3,269.1c-0.1-0.7,0.5-1.4,1.2-1.5c5.7-0.5,10.7-1.4,14.3-2.6c4.2-1.4,5.4-2.7,5.4-3.3
					c0-1.8-6.5-4.9-20.5-6l0.2-2.7c5.4,0.4,23,2.3,23,8.7c0,6-15.5,8.1-22.2,8.7C228.1,270.5,227.4,269.9,227.3,269.1z"/>
			</g>
		</g>
	</g>
</g>
<g id="Layer_2">
	<g>
		<path class="st6" d="M420,116.2c-0.4-0.4-0.6-1-0.6-1.7v-5.3c0-0.7,0.2-1.3,0.6-1.7c0.4-0.4,1-0.7,1.7-0.7c0.7,0,1.2,0.2,1.7,0.7
			c0.4,0.4,0.6,1,0.6,1.7v5.3c0,0.7-0.2,1.3-0.6,1.7c-0.4,0.4-1,0.7-1.7,0.7C421,116.8,420.4,116.6,420,116.2z M422.8,115.7
			c0.3-0.3,0.4-0.7,0.4-1.2v-5.4c0-0.5-0.1-0.9-0.4-1.2c-0.3-0.3-0.7-0.5-1.1-0.5c-0.5,0-0.8,0.2-1.1,0.5c-0.3,0.3-0.4,0.7-0.4,1.2
			v5.4c0,0.5,0.1,0.9,0.4,1.2c0.3,0.3,0.7,0.5,1.1,0.5C422.1,116.2,422.5,116,422.8,115.7z"/>
		<path class="st6" d="M427.9,110.2h-1.1c0,0-0.1,0-0.1,0.1v4.5c0,0.5,0.1,0.8,0.2,1c0.2,0.2,0.4,0.3,0.8,0.3h0.1
			c0.1,0,0.1,0,0.1,0.1v0.4c0,0.1,0,0.1-0.1,0.1h-0.3c-0.5,0-0.9-0.1-1.2-0.4c-0.3-0.2-0.4-0.7-0.4-1.4v-4.7c0,0,0-0.1-0.1-0.1h-0.6
			c-0.1,0-0.1,0-0.1-0.1v-0.3c0-0.1,0-0.1,0.1-0.1h0.6c0,0,0.1,0,0.1-0.1V108c0-0.1,0-0.1,0.1-0.1h0.4c0.1,0,0.1,0,0.1,0.1v1.6
			c0,0,0,0.1,0.1,0.1h1.1c0.1,0,0.1,0,0.1,0.1v0.3C428,110.2,428,110.2,427.9,110.2z"/>
		<path class="st6" d="M432.2,109.7c0.1,0,0.1,0.1,0.1,0.2l-0.1,0.5c0,0.1-0.1,0.1-0.2,0.1c-0.1-0.1-0.3-0.1-0.5-0.1
			c-0.4,0-0.7,0.2-0.9,0.6c-0.2,0.4-0.4,0.8-0.4,1.3v4.3c0,0.1,0,0.1-0.1,0.1h-0.5c-0.1,0-0.1,0-0.1-0.1v-6.8c0-0.1,0-0.1,0.1-0.1
			h0.5c0.1,0,0.1,0,0.1,0.1v0.9c0,0,0,0,0,0s0,0,0,0c0.1-0.3,0.3-0.6,0.5-0.8c0.2-0.2,0.5-0.3,0.8-0.3
			C431.8,109.6,432,109.6,432.2,109.7z"/>
		<path class="st6" d="M436.8,110.2c0.4,0.4,0.5,1,0.5,1.7v4.7c0,0.1,0,0.1-0.1,0.1h-0.5c-0.1,0-0.1,0-0.1-0.1v-0.5c0,0,0,0,0,0
			s0,0,0,0c-0.3,0.5-0.9,0.8-1.6,0.8c-0.5,0-0.9-0.1-1.3-0.4c-0.4-0.3-0.5-0.8-0.5-1.5c0-0.8,0.2-1.3,0.7-1.7c0.4-0.4,1-0.5,1.7-0.5
			h1.1c0,0,0.1,0,0.1-0.1v-0.6c0-0.5-0.1-0.9-0.3-1.2c-0.2-0.3-0.6-0.5-1-0.5c-0.3,0-0.6,0.1-0.8,0.3c-0.2,0.2-0.4,0.5-0.4,0.8
			c0,0.1,0,0.1-0.1,0.1l-0.5,0c0,0-0.1,0-0.1,0s0-0.1,0-0.1c0.1-0.5,0.3-0.9,0.7-1.3s0.8-0.5,1.4-0.5
			C435.9,109.5,436.4,109.7,436.8,110.2z M436.1,115.7c0.3-0.3,0.5-0.7,0.5-1.1v-1.3c0,0,0-0.1-0.1-0.1h-1.1c-0.5,0-0.9,0.1-1.2,0.4
			s-0.4,0.7-0.4,1.2c0,0.5,0.1,0.8,0.3,1c0.2,0.2,0.5,0.3,0.9,0.3C435.5,116.2,435.8,116,436.1,115.7z"/>
		<path class="st6" d="M439.3,116.3c-0.4-0.3-0.6-0.8-0.6-1.3v-0.1c0-0.1,0-0.1,0.1-0.1h0.4c0.1,0,0.1,0,0.1,0.1v0.1
			c0,0.3,0.1,0.6,0.4,0.8c0.2,0.2,0.6,0.3,0.9,0.3c0.4,0,0.7-0.1,0.9-0.3c0.2-0.2,0.3-0.5,0.3-0.9c0-0.3-0.1-0.5-0.2-0.7
			s-0.3-0.3-0.5-0.4c-0.2-0.1-0.5-0.2-0.8-0.4c-0.4-0.1-0.7-0.3-0.9-0.4c-0.2-0.1-0.4-0.3-0.6-0.6s-0.2-0.6-0.2-1
			c0-0.6,0.2-1,0.5-1.4s0.8-0.5,1.4-0.5c0.6,0,1.1,0.2,1.4,0.5c0.4,0.3,0.5,0.8,0.5,1.3v0c0,0.1,0,0.1-0.1,0.1h-0.4
			c-0.1,0-0.1,0-0.1-0.1v-0.1c0-0.3-0.1-0.6-0.3-0.9s-0.5-0.4-0.9-0.4s-0.7,0.1-0.9,0.3c-0.2,0.2-0.3,0.5-0.3,0.9
			c0,0.3,0.1,0.5,0.2,0.6s0.3,0.3,0.5,0.4c0.2,0.1,0.4,0.2,0.8,0.4c0.4,0.2,0.7,0.3,0.9,0.5c0.2,0.1,0.5,0.3,0.6,0.6
			c0.2,0.3,0.3,0.6,0.3,1c0,0.6-0.2,1-0.5,1.4c-0.4,0.3-0.8,0.5-1.4,0.5C440.1,116.8,439.7,116.6,439.3,116.3z"/>
		<path class="st6" d="M449.9,111.5c0.3,0.2,0.6,0.4,0.8,0.8c0.2,0.4,0.3,1,0.3,1.7c0,0.5-0.1,0.9-0.2,1.3c-0.2,0.5-0.4,0.8-0.7,1.1
			s-0.7,0.4-1.2,0.4c-0.5,0-0.9-0.1-1.2-0.4c-0.3-0.3-0.6-0.6-0.7-1.1c-0.1-0.4-0.2-0.9-0.2-1.4c0-0.6,0.1-1.1,0.3-1.6
			c0.2-0.4,0.4-0.7,0.8-0.9c0,0,0-0.1,0-0.1c-0.3-0.2-0.6-0.4-0.7-0.7c-0.2-0.4-0.3-0.9-0.3-1.5c0-0.6,0.1-1.1,0.3-1.5
			c0.2-0.3,0.4-0.6,0.7-0.7c0.3-0.2,0.7-0.3,1.1-0.3s0.8,0.1,1.1,0.3c0.3,0.2,0.5,0.4,0.7,0.7c0.2,0.4,0.3,0.9,0.3,1.5
			c0,0.6-0.1,1.1-0.3,1.4C450.5,111,450.3,111.3,449.9,111.5C449.9,111.5,449.9,111.5,449.9,111.5z M447.8,110.5
			c0.2,0.5,0.6,0.7,1.1,0.7c0.6,0,0.9-0.3,1.2-0.8c0.1-0.3,0.2-0.7,0.2-1.1c0-0.5-0.1-0.9-0.3-1.2c-0.2-0.4-0.6-0.7-1.1-0.7
			c-0.5,0-0.9,0.2-1.1,0.7c-0.2,0.3-0.2,0.7-0.2,1.2C447.5,109.8,447.6,110.2,447.8,110.5z M450.3,114c0-0.5-0.1-1-0.2-1.3
			c-0.2-0.6-0.6-0.8-1.2-0.8c-0.3,0-0.5,0.1-0.7,0.2c-0.2,0.2-0.4,0.4-0.5,0.7c-0.1,0.3-0.2,0.8-0.2,1.3c0,0.4,0,0.8,0.1,1.1
			c0.1,0.3,0.3,0.6,0.5,0.8c0.2,0.2,0.5,0.3,0.8,0.3c0.3,0,0.6-0.1,0.8-0.3c0.2-0.2,0.4-0.5,0.5-0.8
			C450.2,114.7,450.3,114.4,450.3,114z"/>
		<path class="st6" d="M453.9,110.4c-0.3-0.2-0.5-0.4-0.7-0.7s-0.3-0.6-0.3-1c0-0.3,0.1-0.7,0.3-1c0.2-0.3,0.4-0.5,0.7-0.7
			c0.3-0.2,0.6-0.3,1-0.3c0.3,0,0.7,0.1,1,0.3c0.3,0.2,0.5,0.4,0.7,0.7c0.2,0.3,0.3,0.6,0.3,1c0,0.4-0.1,0.7-0.3,1s-0.4,0.5-0.7,0.7
			s-0.6,0.3-1,0.3C454.5,110.6,454.2,110.6,453.9,110.4z M455.8,109.7c0.3-0.3,0.4-0.6,0.4-1c0-0.4-0.1-0.7-0.4-1
			c-0.3-0.3-0.6-0.4-1-0.4c-0.4,0-0.7,0.1-1,0.4c-0.3,0.3-0.4,0.6-0.4,1c0,0.4,0.1,0.8,0.4,1s0.6,0.4,1,0.4
			C455.2,110.2,455.6,110,455.8,109.7z M454.5,116.7c0,0,0-0.1,0-0.1l5.1-9.5c0-0.1,0.1-0.1,0.2-0.1h0.3c0.1,0,0.1,0,0.1,0
			s0,0.1,0,0.1l-5.1,9.5c0,0.1-0.1,0.1-0.2,0.1h-0.3C454.5,116.7,454.5,116.7,454.5,116.7z M458.9,116.6c-0.3-0.2-0.5-0.4-0.7-0.7
			c-0.2-0.3-0.3-0.6-0.3-1c0-0.4,0.1-0.7,0.3-1c0.2-0.3,0.4-0.5,0.7-0.7c0.3-0.2,0.6-0.3,1-0.3c0.3,0,0.6,0.1,0.9,0.3
			c0.3,0.2,0.5,0.4,0.7,0.7s0.3,0.6,0.3,1c0,0.4-0.1,0.7-0.3,1c-0.2,0.3-0.4,0.5-0.7,0.7c-0.3,0.2-0.6,0.3-0.9,0.3
			C459.5,116.8,459.2,116.8,458.9,116.6z M460.8,115.9c0.3-0.3,0.4-0.6,0.4-1c0-0.4-0.1-0.7-0.4-1c-0.3-0.3-0.6-0.4-1-0.4
			c-0.4,0-0.7,0.1-1,0.4c-0.3,0.3-0.4,0.6-0.4,1c0,0.4,0.1,0.8,0.4,1s0.6,0.4,1,0.4C460.2,116.4,460.5,116.2,460.8,115.9z"/>
	</g>
	<g>
		<path class="st6" d="M423.5,128h-3.3c0,0-0.1,0-0.1,0.1v3.8c0,0,0,0.1,0.1,0.1h2.1c0.1,0,0.1,0,0.1,0.1v0.4c0,0.1,0,0.1-0.1,0.1
			h-2.1c0,0-0.1,0-0.1,0.1v3.8c0,0,0,0.1,0.1,0.1h3.3c0.1,0,0.1,0,0.1,0.1v0.4c0,0.1,0,0.1-0.1,0.1h-4c-0.1,0-0.1,0-0.1-0.1v-9.5
			c0-0.1,0-0.1,0.1-0.1h4c0.1,0,0.1,0,0.1,0.1v0.4C423.7,127.9,423.6,128,423.5,128z"/>
		<path class="st6" d="M425.1,137v-9.5c0-0.1,0-0.1,0.1-0.1h0.5c0.1,0,0.1,0,0.1,0.1v9.5c0,0.1,0,0.1-0.1,0.1h-0.5
			C425.2,137.1,425.1,137.1,425.1,137z"/>
		<path class="st6" d="M430.6,137v-9.5c0-0.1,0-0.1,0.1-0.1h0.5c0.1,0,0.1,0,0.1,0.1v9.5c0,0.1,0,0.1-0.1,0.1h-0.5
			C430.7,137.1,430.6,137.1,430.6,137z"/>
		<path class="st6" d="M437,130.5c0.3,0.4,0.5,0.9,0.5,1.6v4.8c0,0.1,0,0.1-0.1,0.1h-0.5c-0.1,0-0.1,0-0.1-0.1v-4.8
			c0-0.5-0.1-0.9-0.3-1.2c-0.2-0.3-0.5-0.4-0.9-0.4c-0.4,0-0.7,0.1-1,0.4s-0.4,0.7-0.4,1.2v4.7c0,0.1,0,0.1-0.1,0.1h-0.5
			c-0.1,0-0.1,0-0.1-0.1v-6.8c0-0.1,0-0.1,0.1-0.1h0.5c0.1,0,0.1,0,0.1,0.1v0.5c0,0,0,0,0,0c0,0,0,0,0,0c0.3-0.5,0.8-0.8,1.5-0.8
			C436.3,130,436.7,130.1,437,130.5z"/>
		<path class="st6" d="M439.7,136.6c-0.4-0.4-0.6-0.9-0.6-1.5V132c0-0.6,0.2-1.1,0.6-1.5s0.9-0.6,1.5-0.6c0.6,0,1.1,0.2,1.5,0.6
			s0.6,0.9,0.6,1.5v3.1c0,0.6-0.2,1.1-0.6,1.5c-0.4,0.4-0.9,0.6-1.5,0.6C440.5,137.2,440,137,439.7,136.6z M442.1,136.2
			c0.3-0.3,0.4-0.6,0.4-1.1v-3c0-0.4-0.1-0.8-0.4-1.1c-0.3-0.3-0.6-0.4-1-0.4c-0.4,0-0.7,0.1-1,0.4c-0.2,0.3-0.4,0.6-0.4,1.1v3
			c0,0.4,0.1,0.8,0.4,1.1s0.6,0.4,1,0.4C441.6,136.6,441.9,136.4,442.1,136.2z"/>
		<path class="st6" d="M448.3,127.3h0.5c0.1,0,0.1,0,0.1,0.1v9.5c0,0.1,0,0.1-0.1,0.1h-0.5c-0.1,0-0.1,0-0.1-0.1v-0.4c0,0,0,0,0,0
			c0,0,0,0,0,0c-0.2,0.2-0.4,0.4-0.6,0.5c-0.2,0.1-0.5,0.2-0.8,0.2c-0.6,0-1-0.2-1.4-0.6c-0.3-0.4-0.5-0.9-0.5-1.5V132
			c0-0.6,0.2-1.1,0.5-1.5s0.8-0.6,1.4-0.6c0.3,0,0.5,0.1,0.8,0.2c0.2,0.1,0.4,0.3,0.6,0.5c0,0,0,0,0,0c0,0,0,0,0,0v-3.1
			C448.2,127.4,448.2,127.3,448.3,127.3z M447.8,136.2c0.2-0.3,0.4-0.6,0.4-1.1v-3c0-0.4-0.1-0.8-0.4-1.1c-0.2-0.3-0.6-0.4-0.9-0.4
			c-0.4,0-0.7,0.1-1,0.4c-0.3,0.3-0.4,0.6-0.4,1.1v3c0,0.4,0.1,0.8,0.4,1.1s0.6,0.4,1,0.4C447.3,136.6,447.6,136.4,447.8,136.2z"/>
		<path class="st6" d="M451.2,136.6c-0.4-0.4-0.6-0.9-0.6-1.5V132c0-0.6,0.2-1.1,0.6-1.5s0.9-0.6,1.5-0.6c0.6,0,1.1,0.2,1.5,0.6
			s0.6,0.9,0.6,1.5v3.1c0,0.6-0.2,1.1-0.6,1.5c-0.4,0.4-0.9,0.6-1.5,0.6C452.1,137.2,451.6,137,451.2,136.6z M453.7,136.2
			c0.3-0.3,0.4-0.6,0.4-1.1v-3c0-0.4-0.1-0.8-0.4-1.1c-0.3-0.3-0.6-0.4-1-0.4c-0.4,0-0.7,0.1-1,0.4c-0.2,0.3-0.4,0.6-0.4,1.1v3
			c0,0.4,0.1,0.8,0.4,1.1s0.6,0.4,1,0.4C453.1,136.6,453.4,136.4,453.7,136.2z"/>
		<path class="st6" d="M459.3,130.1c0.1,0,0.1,0.1,0.1,0.2l-0.1,0.5c0,0.1-0.1,0.1-0.2,0.1c-0.1-0.1-0.3-0.1-0.5-0.1
			c-0.4,0-0.7,0.2-0.9,0.6c-0.2,0.4-0.4,0.8-0.4,1.3v4.3c0,0.1,0,0.1-0.1,0.1h-0.5c-0.1,0-0.1,0-0.1-0.1v-6.8c0-0.1,0-0.1,0.1-0.1
			h0.5c0.1,0,0.1,0,0.1,0.1v0.9c0,0,0,0,0,0s0,0,0,0c0.1-0.3,0.3-0.6,0.5-0.8c0.2-0.2,0.5-0.3,0.8-0.3
			C458.9,130,459.1,130,459.3,130.1z"/>
		<path class="st6" d="M460.8,136.6c-0.4-0.4-0.6-0.9-0.6-1.5V132c0-0.6,0.2-1.1,0.6-1.5s0.9-0.6,1.5-0.6c0.6,0,1.1,0.2,1.5,0.6
			s0.6,0.9,0.6,1.5v3.1c0,0.6-0.2,1.1-0.6,1.5c-0.4,0.4-0.9,0.6-1.5,0.6C461.7,137.2,461.2,137,460.8,136.6z M463.3,136.2
			c0.3-0.3,0.4-0.6,0.4-1.1v-3c0-0.4-0.1-0.8-0.4-1.1c-0.3-0.3-0.6-0.4-1-0.4c-0.4,0-0.7,0.1-1,0.4c-0.2,0.3-0.4,0.6-0.4,1.1v3
			c0,0.4,0.1,0.8,0.4,1.1s0.6,0.4,1,0.4C462.7,136.6,463.1,136.4,463.3,136.2z"/>
		<path class="st6" d="M469.5,136.4C469.5,136.4,469.5,136.5,469.5,136.4l3.4,0c0.1,0,0.1,0,0.1,0.1v0.4c0,0.1,0,0.1-0.1,0.1h-4.2
			c-0.1,0-0.1,0-0.1-0.1v-0.4c0-0.1,0-0.1,0-0.2c0.1-0.1,0.1-0.2,0.2-0.3c0.2-0.4,0.6-1,1-1.7s0.9-1.5,1.2-2c0.6-1.1,0.9-2,0.9-2.7
			c0-0.5-0.1-0.9-0.4-1.3c-0.2-0.3-0.6-0.5-1-0.5c-0.4,0-0.7,0.2-1,0.5c-0.2,0.3-0.4,0.7-0.3,1.3v0.5c0,0.1,0,0.1-0.1,0.1h-0.5
			c-0.1,0-0.1,0-0.1-0.1v-0.5c0-0.7,0.2-1.3,0.6-1.7c0.4-0.4,0.9-0.7,1.5-0.7c0.6,0,1.1,0.2,1.5,0.7s0.6,1,0.6,1.7
			c0,0.8-0.3,1.9-1,3c-0.3,0.5-0.7,1.2-1.2,2.1L469.5,136.4C469.5,136.4,469.5,136.4,469.5,136.4z"/>
		<path class="st6" d="M478.7,133.9v0.4c0,0.1,0,0.1-0.1,0.1h-0.4c0,0-0.1,0-0.1,0.1v2.5c0,0.1,0,0.1-0.1,0.1h-0.5
			c-0.1,0-0.1,0-0.1-0.1v-2.5c0,0,0-0.1-0.1-0.1H474c-0.1,0-0.1,0-0.1-0.1v-0.4c0,0,0-0.1,0-0.2l2.2-6.3c0-0.1,0.1-0.1,0.2-0.1h0.5
			c0.1,0,0.1,0.1,0.1,0.2l-2.1,6.2c0,0,0,0,0,0c0,0,0,0,0,0h2.6c0,0,0.1,0,0.1-0.1v-2.3c0-0.1,0-0.1,0.1-0.1h0.5
			c0.1,0,0.1,0,0.1,0.1v2.3c0,0,0,0.1,0.1,0.1h0.4C478.7,133.7,478.7,133.8,478.7,133.9z"/>
		<path class="st6" d="M481.1,130.8c-0.3-0.2-0.5-0.4-0.7-0.7s-0.3-0.6-0.3-1c0-0.3,0.1-0.7,0.3-1c0.2-0.3,0.4-0.5,0.7-0.7
			c0.3-0.2,0.6-0.3,1-0.3c0.3,0,0.7,0.1,1,0.3c0.3,0.2,0.5,0.4,0.7,0.7c0.2,0.3,0.3,0.6,0.3,1c0,0.4-0.1,0.7-0.3,1s-0.4,0.5-0.7,0.7
			s-0.6,0.3-1,0.3C481.7,131.1,481.4,131,481.1,130.8z M483,130.1c0.3-0.3,0.4-0.6,0.4-1c0-0.4-0.1-0.7-0.4-1
			c-0.3-0.3-0.6-0.4-1-0.4c-0.4,0-0.7,0.1-1,0.4c-0.3,0.3-0.4,0.6-0.4,1c0,0.4,0.1,0.8,0.4,1s0.6,0.4,1,0.4
			C482.4,130.6,482.8,130.4,483,130.1z M481.7,137.1c0,0,0-0.1,0-0.1l5.1-9.5c0-0.1,0.1-0.1,0.2-0.1h0.3c0.1,0,0.1,0,0.1,0
			s0,0.1,0,0.1l-5.1,9.5c0,0.1-0.1,0.1-0.2,0.1h-0.3C481.7,137.1,481.7,137.1,481.7,137.1z M486.1,137c-0.3-0.2-0.5-0.4-0.7-0.7
			c-0.2-0.3-0.3-0.6-0.3-1c0-0.4,0.1-0.7,0.3-1c0.2-0.3,0.4-0.5,0.7-0.7c0.3-0.2,0.6-0.3,1-0.3c0.3,0,0.6,0.1,0.9,0.3
			c0.3,0.2,0.5,0.4,0.7,0.7s0.3,0.6,0.3,1c0,0.4-0.1,0.7-0.3,1c-0.2,0.3-0.4,0.5-0.7,0.7c-0.3,0.2-0.6,0.3-0.9,0.3
			C486.7,137.3,486.4,137.2,486.1,137z M488,136.3c0.3-0.3,0.4-0.6,0.4-1c0-0.4-0.1-0.7-0.4-1c-0.3-0.3-0.6-0.4-1-0.4
			c-0.4,0-0.7,0.1-1,0.4c-0.3,0.3-0.4,0.6-0.4,1c0,0.4,0.1,0.8,0.4,1s0.6,0.4,1,0.4C487.4,136.8,487.8,136.6,488,136.3z"/>
	</g>
	<g>
		<path class="st6" d="M419.5,154.8v-9.5c0-0.1,0-0.1,0.1-0.1h0.5c0.1,0,0.1,0,0.1,0.1v8.9c0,0,0,0.1,0.1,0.1h3.3
			c0.1,0,0.1,0,0.1,0.1v0.4c0,0.1,0,0.1-0.1,0.1h-3.9C419.6,155,419.5,154.9,419.5,154.8z"/>
		<path class="st6" d="M428.2,148.5c0.4,0.4,0.5,1,0.5,1.7v4.7c0,0.1,0,0.1-0.1,0.1h-0.5c-0.1,0-0.1,0-0.1-0.1v-0.5c0,0,0,0,0,0
			s0,0,0,0c-0.3,0.5-0.9,0.8-1.6,0.8c-0.5,0-0.9-0.1-1.3-0.4c-0.4-0.3-0.5-0.8-0.5-1.5c0-0.8,0.2-1.3,0.7-1.7c0.4-0.4,1-0.5,1.7-0.5
			h1.1c0,0,0.1,0,0.1-0.1v-0.6c0-0.5-0.1-0.9-0.3-1.2c-0.2-0.3-0.6-0.5-1-0.5c-0.3,0-0.6,0.1-0.8,0.3c-0.2,0.2-0.4,0.5-0.4,0.8
			c0,0.1,0,0.1-0.1,0.1l-0.5,0c0,0-0.1,0-0.1,0s0-0.1,0-0.1c0.1-0.5,0.3-0.9,0.7-1.3s0.8-0.5,1.4-0.5
			C427.3,147.8,427.8,148,428.2,148.5z M427.5,154c0.3-0.3,0.5-0.7,0.5-1.1v-1.3c0,0,0-0.1-0.1-0.1h-1.1c-0.5,0-0.9,0.1-1.2,0.4
			s-0.4,0.7-0.4,1.2c0,0.5,0.1,0.8,0.3,1c0.2,0.2,0.5,0.3,0.9,0.3C426.9,154.4,427.2,154.3,427.5,154z"/>
		<path class="st6" d="M433.4,154.8v-9.5c0-0.1,0-0.1,0.1-0.1h0.5c0.1,0,0.1,0,0.1,0.1v8.9c0,0,0,0.1,0.1,0.1h3.3
			c0.1,0,0.1,0,0.1,0.1v0.4c0,0.1,0,0.1-0.1,0.1h-3.9C433.4,155,433.4,154.9,433.4,154.8z"/>
		<path class="st6" d="M442.1,148.5c0.4,0.4,0.5,1,0.5,1.7v4.7c0,0.1,0,0.1-0.1,0.1H442c-0.1,0-0.1,0-0.1-0.1v-0.5c0,0,0,0,0,0
			s0,0,0,0c-0.3,0.5-0.9,0.8-1.6,0.8c-0.5,0-0.9-0.1-1.3-0.4c-0.4-0.3-0.5-0.8-0.5-1.5c0-0.8,0.2-1.3,0.7-1.7c0.4-0.4,1-0.5,1.7-0.5
			h1.1c0,0,0.1,0,0.1-0.1v-0.6c0-0.5-0.1-0.9-0.3-1.2c-0.2-0.3-0.6-0.5-1-0.5c-0.3,0-0.6,0.1-0.8,0.3c-0.2,0.2-0.4,0.5-0.4,0.8
			c0,0.1,0,0.1-0.1,0.1l-0.5,0c0,0-0.1,0-0.1,0s0-0.1,0-0.1c0.1-0.5,0.3-0.9,0.7-1.3s0.8-0.5,1.4-0.5
			C441.2,147.8,441.7,148,442.1,148.5z M441.4,154c0.3-0.3,0.5-0.7,0.5-1.1v-1.3c0,0,0-0.1-0.1-0.1h-1.1c-0.5,0-0.9,0.1-1.2,0.4
			s-0.4,0.7-0.4,1.2c0,0.5,0.1,0.8,0.3,1c0.2,0.2,0.5,0.3,0.9,0.3C440.8,154.4,441.1,154.3,441.4,154z"/>
		<path class="st6" d="M445.5,154.9l-1.8-6.8l0,0c0-0.1,0-0.1,0.1-0.1h0.5c0.1,0,0.1,0,0.2,0.1l1.3,5.7c0,0,0,0,0,0c0,0,0,0,0,0
			l1.3-5.7c0-0.1,0.1-0.1,0.2-0.1l0.5,0c0,0,0.1,0,0.1,0s0,0.1,0,0.1l-1.7,6.8c0,0.1-0.1,0.1-0.2,0.1h-0.6
			C445.5,155,445.5,154.9,445.5,154.9z"/>
		<path class="st6" d="M452.7,148.5c0.4,0.4,0.5,1,0.5,1.7v4.7c0,0.1,0,0.1-0.1,0.1h-0.5c-0.1,0-0.1,0-0.1-0.1v-0.5c0,0,0,0,0,0
			s0,0,0,0c-0.3,0.5-0.9,0.8-1.6,0.8c-0.5,0-0.9-0.1-1.3-0.4c-0.4-0.3-0.5-0.8-0.5-1.5c0-0.8,0.2-1.3,0.7-1.7c0.4-0.4,1-0.5,1.7-0.5
			h1.1c0,0,0.1,0,0.1-0.1v-0.6c0-0.5-0.1-0.9-0.3-1.2c-0.2-0.3-0.6-0.5-1-0.5c-0.3,0-0.6,0.1-0.8,0.3c-0.2,0.2-0.4,0.5-0.4,0.8
			c0,0.1,0,0.1-0.1,0.1l-0.5,0c0,0-0.1,0-0.1,0s0-0.1,0-0.1c0.1-0.5,0.3-0.9,0.7-1.3s0.8-0.5,1.4-0.5
			C451.9,147.8,452.4,148,452.7,148.5z M452.1,154c0.3-0.3,0.5-0.7,0.5-1.1v-1.3c0,0,0-0.1-0.1-0.1h-1.1c-0.5,0-0.9,0.1-1.2,0.4
			s-0.4,0.7-0.4,1.2c0,0.5,0.1,0.8,0.3,1c0.2,0.2,0.5,0.3,0.9,0.3C451.4,154.4,451.8,154.3,452.1,154z"/>
		<path class="st6" d="M458.3,145.2h0.5c0.1,0,0.1,0,0.1,0.1v9.5c0,0.1,0,0.1-0.1,0.1h-0.5c-0.1,0-0.1,0-0.1-0.1v-0.4c0,0,0,0,0,0
			c0,0,0,0,0,0c-0.2,0.2-0.4,0.4-0.6,0.5c-0.2,0.1-0.5,0.2-0.8,0.2c-0.6,0-1-0.2-1.4-0.6c-0.3-0.4-0.5-0.9-0.5-1.5v-3.1
			c0-0.6,0.2-1.1,0.5-1.5s0.8-0.6,1.4-0.6c0.3,0,0.5,0.1,0.8,0.2c0.2,0.1,0.4,0.3,0.6,0.5c0,0,0,0,0,0c0,0,0,0,0,0v-3.1
			C458.2,145.2,458.2,145.2,458.3,145.2z M457.8,154c0.2-0.3,0.4-0.6,0.4-1.1v-3c0-0.4-0.1-0.8-0.4-1.1c-0.2-0.3-0.6-0.4-0.9-0.4
			c-0.4,0-0.7,0.1-1,0.4c-0.3,0.3-0.4,0.6-0.4,1.1v3c0,0.4,0.1,0.8,0.4,1.1s0.6,0.4,1,0.4C457.3,154.4,457.6,154.3,457.8,154z"/>
		<path class="st6" d="M461.2,154.5c-0.4-0.4-0.6-0.9-0.6-1.5v-3.1c0-0.6,0.2-1.1,0.6-1.5s0.9-0.6,1.5-0.6c0.6,0,1.1,0.2,1.5,0.6
			s0.6,0.9,0.6,1.5v3.1c0,0.6-0.2,1.1-0.6,1.5c-0.4,0.4-0.9,0.6-1.5,0.6C462.1,155.1,461.6,154.9,461.2,154.5z M463.7,154
			c0.3-0.3,0.4-0.6,0.4-1.1v-3c0-0.4-0.1-0.8-0.4-1.1c-0.3-0.3-0.6-0.4-1-0.4c-0.4,0-0.7,0.1-1,0.4c-0.2,0.3-0.4,0.6-0.4,1.1v3
			c0,0.4,0.1,0.8,0.4,1.1s0.6,0.4,1,0.4C463.1,154.4,463.4,154.3,463.7,154z"/>
		<path class="st6" d="M469.3,148c0.1,0,0.1,0.1,0.1,0.2l-0.1,0.5c0,0.1-0.1,0.1-0.2,0.1c-0.1-0.1-0.3-0.1-0.5-0.1
			c-0.4,0-0.7,0.2-0.9,0.6c-0.2,0.4-0.4,0.8-0.4,1.3v4.3c0,0.1,0,0.1-0.1,0.1h-0.5c-0.1,0-0.1,0-0.1-0.1v-6.8c0-0.1,0-0.1,0.1-0.1
			h0.5c0.1,0,0.1,0,0.1,0.1v0.9c0,0,0,0,0,0s0,0,0,0c0.1-0.3,0.3-0.6,0.5-0.8c0.2-0.2,0.5-0.3,0.8-0.3
			C468.9,147.9,469.1,147.9,469.3,148z"/>
		<path class="st6" d="M473.9,148.5c0.4,0.4,0.5,1,0.5,1.7v4.7c0,0.1,0,0.1-0.1,0.1h-0.5c-0.1,0-0.1,0-0.1-0.1v-0.5c0,0,0,0,0,0
			s0,0,0,0c-0.3,0.5-0.9,0.8-1.6,0.8c-0.5,0-0.9-0.1-1.3-0.4c-0.4-0.3-0.5-0.8-0.5-1.5c0-0.8,0.2-1.3,0.7-1.7c0.4-0.4,1-0.5,1.7-0.5
			h1.1c0,0,0.1,0,0.1-0.1v-0.6c0-0.5-0.1-0.9-0.3-1.2c-0.2-0.3-0.6-0.5-1-0.5c-0.3,0-0.6,0.1-0.8,0.3c-0.2,0.2-0.4,0.5-0.4,0.8
			c0,0.1,0,0.1-0.1,0.1l-0.5,0c0,0-0.1,0-0.1,0s0-0.1,0-0.1c0.1-0.5,0.3-0.9,0.7-1.3s0.8-0.5,1.4-0.5
			C473,147.8,473.5,148,473.9,148.5z M473.2,154c0.3-0.3,0.5-0.7,0.5-1.1v-1.3c0,0,0-0.1-0.1-0.1h-1.1c-0.5,0-0.9,0.1-1.2,0.4
			s-0.4,0.7-0.4,1.2c0,0.5,0.1,0.8,0.3,1c0.2,0.2,0.5,0.3,0.9,0.3C472.5,154.4,472.9,154.3,473.2,154z"/>
		<path class="st6" d="M479.9,145.2h0.5c0.1,0,0.1,0,0.1,0.1v9.5c0,0.1,0,0.1-0.1,0.1h-0.5c-0.1,0-0.1,0-0.1-0.1v-8.7c0,0,0,0,0,0
			c0,0,0,0,0,0l-1.4,0.5l-0.1,0c-0.1,0-0.1,0-0.1-0.1l-0.1-0.3v0c0-0.1,0-0.1,0.1-0.2l1.5-0.8C479.8,145.2,479.8,145.2,479.9,145.2z
			"/>
		<path class="st6" d="M486.5,152c0,0.4,0,0.7-0.1,1.1c-0.1,0.6-0.3,1.1-0.7,1.5s-0.8,0.5-1.4,0.5c-0.5,0-1-0.2-1.3-0.5
			c-0.3-0.3-0.6-0.8-0.7-1.4c-0.1-0.3-0.1-0.7-0.1-1.2l0-4.6c0-0.7,0.2-1.3,0.6-1.7c0.4-0.4,0.9-0.7,1.5-0.7c0.6,0,1.1,0.2,1.4,0.7
			c0.4,0.4,0.6,1,0.6,1.7v0.2c0,0.1,0,0.1-0.1,0.1h-0.5c-0.1,0-0.1,0-0.1-0.1v-0.2c0-0.5-0.1-0.9-0.4-1.2c-0.2-0.3-0.5-0.5-0.9-0.5
			c-0.4,0-0.7,0.2-1,0.5c-0.3,0.3-0.4,0.7-0.4,1.2v2.2c0,0,0,0,0,0s0,0,0,0c0.1-0.2,0.3-0.4,0.6-0.5s0.5-0.2,0.8-0.2
			c0.5,0,1,0.2,1.3,0.5s0.6,0.7,0.7,1.3C486.5,151,486.5,151.5,486.5,152z M485.8,152c0-0.4,0-0.9-0.1-1.3c-0.2-0.8-0.6-1.1-1.2-1.1
			c-0.7,0-1.1,0.4-1.3,1.2c-0.1,0.3-0.1,0.7-0.1,1.2c0,0.4,0,0.8,0.1,1.1c0.2,0.9,0.6,1.3,1.3,1.3c0.7,0,1.1-0.5,1.3-1.4
			C485.8,152.7,485.8,152.3,485.8,152z"/>
		<path class="st6" d="M489.1,148.7c-0.3-0.2-0.5-0.4-0.7-0.7s-0.3-0.6-0.3-1c0-0.3,0.1-0.7,0.3-1c0.2-0.3,0.4-0.5,0.7-0.7
			c0.3-0.2,0.6-0.3,1-0.3c0.3,0,0.7,0.1,1,0.3c0.3,0.2,0.5,0.4,0.7,0.7c0.2,0.3,0.3,0.6,0.3,1c0,0.4-0.1,0.7-0.3,1s-0.4,0.5-0.7,0.7
			s-0.6,0.3-1,0.3C489.8,148.9,489.4,148.8,489.1,148.7z M491.1,148c0.3-0.3,0.4-0.6,0.4-1c0-0.4-0.1-0.7-0.4-1
			c-0.3-0.3-0.6-0.4-1-0.4c-0.4,0-0.7,0.1-1,0.4c-0.3,0.3-0.4,0.6-0.4,1c0,0.4,0.1,0.8,0.4,1s0.6,0.4,1,0.4
			C490.5,148.4,490.8,148.3,491.1,148z M489.7,154.9c0,0,0-0.1,0-0.1l5.1-9.5c0-0.1,0.1-0.1,0.2-0.1h0.3c0.1,0,0.1,0,0.1,0
			s0,0.1,0,0.1l-5.1,9.5c0,0.1-0.1,0.1-0.2,0.1h-0.3C489.8,155,489.7,155,489.7,154.9z M494.1,154.9c-0.3-0.2-0.5-0.4-0.7-0.7
			c-0.2-0.3-0.3-0.6-0.3-1c0-0.4,0.1-0.7,0.3-1c0.2-0.3,0.4-0.5,0.7-0.7c0.3-0.2,0.6-0.3,1-0.3c0.3,0,0.6,0.1,0.9,0.3
			c0.3,0.2,0.5,0.4,0.7,0.7s0.3,0.6,0.3,1c0,0.4-0.1,0.7-0.3,1c-0.2,0.3-0.4,0.5-0.7,0.7c-0.3,0.2-0.6,0.3-0.9,0.3
			C494.8,155.1,494.4,155,494.1,154.9z M496.1,154.2c0.3-0.3,0.4-0.6,0.4-1c0-0.4-0.1-0.7-0.4-1c-0.3-0.3-0.6-0.4-1-0.4
			c-0.4,0-0.7,0.1-1,0.4c-0.3,0.3-0.4,0.6-0.4,1c0,0.4,0.1,0.8,0.4,1s0.6,0.4,1,0.4C495.5,154.6,495.8,154.5,496.1,154.2z"/>
	</g>
	<g>
		<path class="st6" d="M419.6,175.6V166c0-0.1,0-0.1,0.1-0.1h0.5c0.1,0,0.1,0,0.1,0.1v8.9c0,0,0,0.1,0.1,0.1h3.3
			c0.1,0,0.1,0,0.1,0.1v0.4c0,0.1,0,0.1-0.1,0.1h-3.9C419.7,175.7,419.6,175.7,419.6,175.6z"/>
		<path class="st6" d="M428.3,169.2c0.4,0.4,0.5,1,0.5,1.7v4.7c0,0.1,0,0.1-0.1,0.1h-0.5c-0.1,0-0.1,0-0.1-0.1v-0.5c0,0,0,0,0,0
			s0,0,0,0c-0.3,0.5-0.9,0.8-1.6,0.8c-0.5,0-0.9-0.1-1.3-0.4c-0.4-0.3-0.5-0.8-0.5-1.5c0-0.8,0.2-1.3,0.7-1.7c0.4-0.4,1-0.5,1.7-0.5
			h1.1c0,0,0.1,0,0.1-0.1v-0.6c0-0.5-0.1-0.9-0.3-1.2c-0.2-0.3-0.6-0.5-1-0.5c-0.3,0-0.6,0.1-0.8,0.3c-0.2,0.2-0.4,0.5-0.4,0.8
			c0,0.1,0,0.1-0.1,0.1l-0.5,0c0,0-0.1,0-0.1,0s0-0.1,0-0.1c0.1-0.5,0.3-0.9,0.7-1.3s0.8-0.5,1.4-0.5
			C427.4,168.5,427.9,168.7,428.3,169.2z M427.6,174.7c0.3-0.3,0.5-0.7,0.5-1.1v-1.3c0,0,0-0.1-0.1-0.1h-1.1c-0.5,0-0.9,0.1-1.2,0.4
			s-0.4,0.7-0.4,1.2c0,0.5,0.1,0.8,0.3,1c0.2,0.2,0.5,0.3,0.9,0.3C427,175.2,427.3,175,427.6,174.7z"/>
		<path class="st6" d="M433.5,175.6V166c0-0.1,0-0.1,0.1-0.1h2.1c0.7,0,1.2,0.2,1.6,0.7c0.4,0.5,0.6,1.1,0.6,1.9v4.6
			c0,0.8-0.2,1.4-0.6,1.9c-0.4,0.5-0.9,0.7-1.6,0.7h-2.1C433.5,175.7,433.5,175.7,433.5,175.6z M434.3,175h1.4
			c0.5,0,0.8-0.2,1.1-0.5c0.3-0.3,0.4-0.8,0.4-1.4v-4.6c0-0.6-0.1-1.1-0.4-1.4c-0.3-0.3-0.6-0.5-1.1-0.5h-1.4c0,0-0.1,0-0.1,0.1
			L434.3,175C434.2,175,434.3,175,434.3,175z"/>
		<path class="st6" d="M443.2,168.6h0.5c0.1,0,0.1,0,0.1,0.1v6.8c0,0.1,0,0.1-0.1,0.1h-0.5c-0.1,0-0.1,0-0.1-0.1v-0.5c0,0,0,0,0,0
			c0,0,0,0,0,0c-0.3,0.5-0.8,0.8-1.4,0.8c-0.6,0-1-0.2-1.3-0.5c-0.3-0.3-0.5-0.9-0.5-1.5v-5c0-0.1,0-0.1,0.1-0.1h0.5
			c0.1,0,0.1,0,0.1,0.1v4.8c0,0.5,0.1,0.9,0.3,1.2c0.2,0.3,0.5,0.4,0.9,0.4c0.4,0,0.7-0.1,1-0.4s0.3-0.7,0.3-1.2v-4.7
			C443,168.7,443.1,168.6,443.2,168.6z"/>
		<path class="st6" d="M446.1,175.2c-0.4-0.4-0.6-0.9-0.6-1.5v-3.1c0-0.6,0.2-1.1,0.6-1.5s0.9-0.6,1.5-0.6c0.4,0,0.8,0.1,1.1,0.3
			c0.3,0.2,0.6,0.4,0.7,0.7c0.2,0.3,0.3,0.6,0.3,0.9v0.1c0,0.1,0,0.1-0.1,0.1l-0.5,0c-0.1,0-0.1,0-0.1-0.1v-0.1
			c0-0.3-0.1-0.6-0.4-0.9c-0.3-0.2-0.6-0.4-1-0.4c-0.4,0-0.7,0.1-1,0.4c-0.2,0.3-0.4,0.6-0.4,1.1v3c0,0.4,0.1,0.8,0.4,1.1
			s0.6,0.4,1,0.4c0.4,0,0.7-0.1,1-0.4c0.3-0.2,0.4-0.5,0.4-0.9v-0.1c0-0.1,0-0.1,0.1-0.1h0.5c0.1,0,0.1,0,0.1,0.1v0.1
			c0,0.3-0.1,0.6-0.3,0.9s-0.4,0.5-0.7,0.7s-0.7,0.3-1.1,0.3C446.9,175.8,446.4,175.6,446.1,175.2z"/>
		<path class="st6" d="M454.8,169.1c0.3,0.4,0.5,0.9,0.5,1.6v4.8c0,0.1,0,0.1-0.1,0.1h-0.5c-0.1,0-0.1,0-0.1-0.1v-4.8
			c0-0.5-0.1-0.9-0.3-1.2c-0.2-0.3-0.5-0.4-0.9-0.4c-0.4,0-0.7,0.1-1,0.4s-0.4,0.7-0.4,1.2v4.7c0,0.1,0,0.1-0.1,0.1h-0.5
			c-0.1,0-0.1,0-0.1-0.1V166c0-0.1,0-0.1,0.1-0.1h0.5c0.1,0,0.1,0,0.1,0.1v3.3c0,0,0,0,0,0c0,0,0,0,0,0c0.3-0.5,0.8-0.8,1.5-0.8
			C454,168.5,454.5,168.7,454.8,169.1z"/>
		<path class="st6" d="M460.4,169.2c0.4,0.4,0.5,1,0.5,1.7v4.7c0,0.1,0,0.1-0.1,0.1h-0.5c-0.1,0-0.1,0-0.1-0.1v-0.5c0,0,0,0,0,0
			s0,0,0,0c-0.3,0.5-0.9,0.8-1.6,0.8c-0.5,0-0.9-0.1-1.3-0.4c-0.4-0.3-0.5-0.8-0.5-1.5c0-0.8,0.2-1.3,0.7-1.7c0.4-0.4,1-0.5,1.7-0.5
			h1.1c0,0,0.1,0,0.1-0.1v-0.6c0-0.5-0.1-0.9-0.3-1.2c-0.2-0.3-0.6-0.5-1-0.5c-0.3,0-0.6,0.1-0.8,0.3c-0.2,0.2-0.4,0.5-0.4,0.8
			c0,0.1,0,0.1-0.1,0.1l-0.5,0c0,0-0.1,0-0.1,0s0-0.1,0-0.1c0.1-0.5,0.3-0.9,0.7-1.3s0.8-0.5,1.4-0.5
			C459.6,168.5,460.1,168.7,460.4,169.2z M459.8,174.7c0.3-0.3,0.5-0.7,0.5-1.1v-1.3c0,0,0-0.1-0.1-0.1h-1.1c-0.5,0-0.9,0.1-1.2,0.4
			s-0.4,0.7-0.4,1.2c0,0.5,0.1,0.8,0.3,1c0.2,0.2,0.5,0.3,0.9,0.3C459.1,175.2,459.5,175,459.8,174.7z"/>
		<path class="st6" d="M466.5,165.9h0.5c0.1,0,0.1,0,0.1,0.1v9.5c0,0.1,0,0.1-0.1,0.1h-0.5c-0.1,0-0.1,0-0.1-0.1v-8.7c0,0,0,0,0,0
			c0,0,0,0,0,0l-1.4,0.5l-0.1,0c-0.1,0-0.1,0-0.1-0.1l-0.1-0.3v0c0-0.1,0-0.1,0.1-0.2l1.5-0.8C466.4,165.9,466.4,165.9,466.5,165.9z
			"/>
		<path class="st6" d="M472.7,168.8v4.6c0,0.7-0.2,1.3-0.6,1.7c-0.4,0.4-0.9,0.7-1.5,0.7c-0.6,0-1.1-0.2-1.4-0.7s-0.6-1-0.6-1.7
			v-0.2c0-0.1,0-0.1,0.1-0.1h0.5c0.1,0,0.1,0,0.1,0.1v0.2c0,0.5,0.1,0.9,0.4,1.2c0.2,0.3,0.5,0.5,0.9,0.5c0.4,0,0.7-0.2,1-0.5
			c0.3-0.3,0.4-0.7,0.4-1.2v-2.2c0,0,0,0,0,0c0,0,0,0,0,0c-0.1,0.2-0.3,0.4-0.6,0.5c-0.2,0.1-0.5,0.2-0.8,0.2c-0.5,0-1-0.2-1.3-0.5
			c-0.3-0.3-0.6-0.7-0.7-1.3c-0.1-0.4-0.1-0.8-0.1-1.4c0-0.4,0-0.8,0.1-1.1c0.1-0.6,0.3-1.1,0.7-1.5c0.4-0.3,0.8-0.5,1.4-0.5
			c0.5,0,1,0.2,1.3,0.5s0.6,0.8,0.7,1.4C472.7,168,472.7,168.4,472.7,168.8z M471.9,170.1c0.1-0.3,0.1-0.7,0.1-1.2
			c0-0.4,0-0.8-0.1-1.1c-0.2-0.9-0.6-1.3-1.3-1.3c-0.7,0-1.1,0.5-1.3,1.4c0,0.4-0.1,0.7-0.1,1.1c0,0.5,0,0.9,0.1,1.3
			c0.2,0.8,0.6,1.1,1.2,1.1C471.3,171.3,471.7,170.9,471.9,170.1z"/>
		<path class="st6" d="M475.6,169.4c-0.3-0.2-0.5-0.4-0.7-0.7s-0.3-0.6-0.3-1c0-0.3,0.1-0.7,0.3-1c0.2-0.3,0.4-0.5,0.7-0.7
			c0.3-0.2,0.6-0.3,1-0.3c0.3,0,0.7,0.1,1,0.3c0.3,0.2,0.5,0.4,0.7,0.7c0.2,0.3,0.3,0.6,0.3,1c0,0.4-0.1,0.7-0.3,1s-0.4,0.5-0.7,0.7
			s-0.6,0.3-1,0.3C476.2,169.6,475.9,169.6,475.6,169.4z M477.6,168.7c0.3-0.3,0.4-0.6,0.4-1c0-0.4-0.1-0.7-0.4-1
			c-0.3-0.3-0.6-0.4-1-0.4c-0.4,0-0.7,0.1-1,0.4c-0.3,0.3-0.4,0.6-0.4,1c0,0.4,0.1,0.8,0.4,1s0.6,0.4,1,0.4
			C477,169.2,477.3,169,477.6,168.7z M476.2,175.7c0,0,0-0.1,0-0.1l5.1-9.5c0-0.1,0.1-0.1,0.2-0.1h0.3c0.1,0,0.1,0,0.1,0
			s0,0.1,0,0.1l-5.1,9.5c0,0.1-0.1,0.1-0.2,0.1h-0.3C476.2,175.7,476.2,175.7,476.2,175.7z M480.6,175.6c-0.3-0.2-0.5-0.4-0.7-0.7
			c-0.2-0.3-0.3-0.6-0.3-1c0-0.4,0.1-0.7,0.3-1c0.2-0.3,0.4-0.5,0.7-0.7c0.3-0.2,0.6-0.3,1-0.3c0.3,0,0.6,0.1,0.9,0.3
			c0.3,0.2,0.5,0.4,0.7,0.7s0.3,0.6,0.3,1c0,0.4-0.1,0.7-0.3,1c-0.2,0.3-0.4,0.5-0.7,0.7c-0.3,0.2-0.6,0.3-0.9,0.3
			C481.2,175.8,480.9,175.8,480.6,175.6z M482.5,174.9c0.3-0.3,0.4-0.6,0.4-1c0-0.4-0.1-0.7-0.4-1c-0.3-0.3-0.6-0.4-1-0.4
			c-0.4,0-0.7,0.1-1,0.4c-0.3,0.3-0.4,0.6-0.4,1c0,0.4,0.1,0.8,0.4,1s0.6,0.4,1,0.4C482,175.4,482.3,175.2,482.5,174.9z"/>
	</g>
	<g>
		<path class="st6" d="M423.5,187h-3.3c0,0-0.1,0-0.1,0.1v3.8c0,0,0,0.1,0.1,0.1h2.1c0.1,0,0.1,0,0.1,0.1v0.4c0,0.1,0,0.1-0.1,0.1
			h-2.1c0,0-0.1,0-0.1,0.1v3.8c0,0,0,0.1,0.1,0.1h3.3c0.1,0,0.1,0,0.1,0.1v0.4c0,0.1,0,0.1-0.1,0.1h-4c-0.1,0-0.1,0-0.1-0.1v-9.5
			c0-0.1,0-0.1,0.1-0.1h4c0.1,0,0.1,0,0.1,0.1v0.4C423.7,186.9,423.6,187,423.5,187z"/>
		<path class="st6" d="M425.1,196v-9.5c0-0.1,0-0.1,0.1-0.1h0.5c0.1,0,0.1,0,0.1,0.1v9.5c0,0.1,0,0.1-0.1,0.1h-0.5
			C425.2,196.1,425.1,196.1,425.1,196z"/>
		<path class="st6" d="M431,195.6c-0.4-0.4-0.6-1-0.6-1.6v-5.5c0-0.7,0.2-1.2,0.6-1.6c0.4-0.4,1-0.6,1.6-0.6c0.7,0,1.2,0.2,1.7,0.6
			c0.4,0.4,0.6,1,0.6,1.6v0.6c0,0.1,0,0.1-0.1,0.1h-0.5c-0.1,0-0.1,0-0.1-0.1v-0.6c0-0.5-0.1-0.9-0.4-1.2c-0.3-0.3-0.7-0.4-1.1-0.4
			s-0.8,0.1-1.1,0.4c-0.3,0.3-0.4,0.7-0.4,1.2v5.5c0,0.5,0.1,0.9,0.4,1.2c0.3,0.3,0.7,0.4,1.1,0.4s0.8-0.1,1.1-0.4
			c0.3-0.3,0.4-0.7,0.4-1.2v-2c0,0,0-0.1-0.1-0.1h-1.3c-0.1,0-0.1,0-0.1-0.1v-0.4c0-0.1,0-0.1,0.1-0.1h2c0.1,0,0.1,0,0.1,0.1v2.5
			c0,0.7-0.2,1.2-0.6,1.6c-0.4,0.4-1,0.6-1.7,0.6C432,196.2,431.4,196,431,195.6z"/>
		<path class="st6" d="M439.5,189.1c0.1,0,0.1,0.1,0.1,0.2l-0.1,0.5c0,0.1-0.1,0.1-0.2,0.1c-0.1-0.1-0.3-0.1-0.5-0.1
			c-0.4,0-0.7,0.2-0.9,0.6c-0.2,0.4-0.4,0.8-0.4,1.3v4.3c0,0.1,0,0.1-0.1,0.1h-0.5c-0.1,0-0.1,0-0.1-0.1v-6.8c0-0.1,0-0.1,0.1-0.1
			h0.5c0.1,0,0.1,0,0.1,0.1v0.9c0,0,0,0,0,0s0,0,0,0c0.1-0.3,0.3-0.6,0.5-0.8c0.2-0.2,0.5-0.3,0.8-0.3
			C439.1,189,439.3,189,439.5,189.1z"/>
		<path class="st6" d="M440.7,187.4c-0.1-0.1-0.2-0.3-0.2-0.5c0-0.2,0.1-0.4,0.2-0.5s0.3-0.2,0.5-0.2s0.4,0.1,0.5,0.2
			s0.2,0.3,0.2,0.5c0,0.2-0.1,0.4-0.2,0.5c-0.1,0.1-0.3,0.2-0.5,0.2S440.8,187.6,440.7,187.4z M440.8,196v-6.8c0-0.1,0-0.1,0.1-0.1
			h0.5c0.1,0,0.1,0,0.1,0.1v6.8c0,0.1,0,0.1-0.1,0.1H441C440.9,196.1,440.8,196.1,440.8,196z"/>
		<path class="st6" d="M444.8,187.2c-0.1,0.3-0.2,0.7-0.2,1.3v0.5c0,0,0,0.1,0.1,0.1h1.1c0.1,0,0.1,0,0.1,0.1v0.3
			c0,0.1,0,0.1-0.1,0.1h-1.1c0,0-0.1,0-0.1,0.1v6.3c0,0.1,0,0.1-0.1,0.1H444c-0.1,0-0.1,0-0.1-0.1v-6.3c0,0,0-0.1-0.1-0.1h-0.6
			c-0.1,0-0.1,0-0.1-0.1v-0.3c0-0.1,0-0.1,0.1-0.1h0.6c0,0,0.1,0,0.1-0.1v-0.5c0-0.8,0.1-1.4,0.4-1.7c0.3-0.4,0.7-0.6,1.4-0.6h0.2
			c0.1,0,0.1,0,0.1,0.1l0,0.4c0,0.1,0,0.1-0.1,0.1h-0.2C445.2,186.8,444.9,187,444.8,187.2z"/>
		<path class="st6" d="M447.8,195.6c-0.4-0.4-0.6-0.9-0.6-1.5V191c0-0.6,0.2-1.1,0.6-1.5s0.9-0.6,1.5-0.6c0.6,0,1.1,0.2,1.5,0.6
			s0.6,0.9,0.6,1.5v3.1c0,0.6-0.2,1.1-0.6,1.5c-0.4,0.4-0.9,0.6-1.5,0.6C448.6,196.2,448.1,196,447.8,195.6z M450.2,195.2
			c0.3-0.3,0.4-0.6,0.4-1.1v-3c0-0.4-0.1-0.8-0.4-1.1c-0.3-0.3-0.6-0.4-1-0.4c-0.4,0-0.7,0.1-1,0.4c-0.2,0.3-0.4,0.6-0.4,1.1v3
			c0,0.4,0.1,0.8,0.4,1.1s0.6,0.4,1,0.4C449.7,195.6,450,195.4,450.2,195.2z"/>
		<path class="st6" d="M456.9,186.3h0.5c0.1,0,0.1,0,0.1,0.1v9.5c0,0.1,0,0.1-0.1,0.1h-0.5c-0.1,0-0.1,0-0.1-0.1v-8.7c0,0,0,0,0,0
			c0,0,0,0,0,0l-1.4,0.5l-0.1,0c-0.1,0-0.1,0-0.1-0.1l-0.1-0.3v0c0-0.1,0-0.1,0.1-0.2l1.5-0.8C456.7,186.3,456.8,186.3,456.9,186.3z
			"/>
		<path class="st6" d="M463.1,189.3v4.6c0,0.7-0.2,1.3-0.6,1.7c-0.4,0.4-0.9,0.7-1.5,0.7c-0.6,0-1.1-0.2-1.4-0.7s-0.6-1-0.6-1.7
			v-0.2c0-0.1,0-0.1,0.1-0.1h0.5c0.1,0,0.1,0,0.1,0.1v0.2c0,0.5,0.1,0.9,0.4,1.2c0.2,0.3,0.5,0.5,0.9,0.5c0.4,0,0.7-0.2,1-0.5
			c0.3-0.3,0.4-0.7,0.4-1.2v-2.2c0,0,0,0,0,0c0,0,0,0,0,0c-0.1,0.2-0.3,0.4-0.6,0.5c-0.2,0.1-0.5,0.2-0.8,0.2c-0.5,0-1-0.2-1.3-0.5
			c-0.3-0.3-0.6-0.7-0.7-1.3c-0.1-0.4-0.1-0.8-0.1-1.4c0-0.4,0-0.8,0.1-1.1c0.1-0.6,0.3-1.1,0.7-1.5c0.4-0.3,0.8-0.5,1.4-0.5
			c0.5,0,1,0.2,1.3,0.5s0.6,0.8,0.7,1.4C463.1,188.4,463.1,188.8,463.1,189.3z M462.3,190.6c0.1-0.3,0.1-0.7,0.1-1.2
			c0-0.4,0-0.8-0.1-1.1c-0.2-0.9-0.6-1.3-1.3-1.3c-0.7,0-1.1,0.5-1.3,1.4c0,0.4-0.1,0.7-0.1,1.1c0,0.5,0,0.9,0.1,1.3
			c0.2,0.8,0.6,1.1,1.2,1.1C461.7,191.8,462.1,191.4,462.3,190.6z"/>
		<path class="st6" d="M466,189.8c-0.3-0.2-0.5-0.4-0.7-0.7s-0.3-0.6-0.3-1c0-0.3,0.1-0.7,0.3-1c0.2-0.3,0.4-0.5,0.7-0.7
			c0.3-0.2,0.6-0.3,1-0.3c0.3,0,0.7,0.1,1,0.3c0.3,0.2,0.5,0.4,0.7,0.7c0.2,0.3,0.3,0.6,0.3,1c0,0.4-0.1,0.7-0.3,1s-0.4,0.5-0.7,0.7
			s-0.6,0.3-1,0.3C466.6,190.1,466.3,190,466,189.8z M467.9,189.1c0.3-0.3,0.4-0.6,0.4-1c0-0.4-0.1-0.7-0.4-1
			c-0.3-0.3-0.6-0.4-1-0.4c-0.4,0-0.7,0.1-1,0.4c-0.3,0.3-0.4,0.6-0.4,1c0,0.4,0.1,0.8,0.4,1s0.6,0.4,1,0.4
			C467.3,189.6,467.7,189.4,467.9,189.1z M466.6,196.1c0,0,0-0.1,0-0.1l5.1-9.5c0-0.1,0.1-0.1,0.2-0.1h0.3c0.1,0,0.1,0,0.1,0
			s0,0.1,0,0.1l-5.1,9.5c0,0.1-0.1,0.1-0.2,0.1h-0.3C466.6,196.1,466.6,196.1,466.6,196.1z M471,196c-0.3-0.2-0.5-0.4-0.7-0.7
			c-0.2-0.3-0.3-0.6-0.3-1c0-0.4,0.1-0.7,0.3-1c0.2-0.3,0.4-0.5,0.7-0.7c0.3-0.2,0.6-0.3,1-0.3c0.3,0,0.6,0.1,0.9,0.3
			c0.3,0.2,0.5,0.4,0.7,0.7s0.3,0.6,0.3,1c0,0.4-0.1,0.7-0.3,1c-0.2,0.3-0.4,0.5-0.7,0.7c-0.3,0.2-0.6,0.3-0.9,0.3
			C471.6,196.3,471.3,196.2,471,196z M472.9,195.3c0.3-0.3,0.4-0.6,0.4-1c0-0.4-0.1-0.7-0.4-1c-0.3-0.3-0.6-0.4-1-0.4
			c-0.4,0-0.7,0.1-1,0.4c-0.3,0.3-0.4,0.6-0.4,1c0,0.4,0.1,0.8,0.4,1s0.6,0.4,1,0.4C472.3,195.8,472.7,195.6,472.9,195.3z"/>
	</g>
	<g>
		<path class="st6" d="M419.5,213.8v-9.5c0-0.1,0-0.1,0.1-0.1h0.5c0.1,0,0.1,0,0.1,0.1v8.9c0,0,0,0.1,0.1,0.1h3.3
			c0.1,0,0.1,0,0.1,0.1v0.4c0,0.1,0,0.1-0.1,0.1h-3.9C419.6,214,419.5,213.9,419.5,213.8z"/>
		<path class="st6" d="M428.2,207.5c0.4,0.4,0.5,1,0.5,1.7v4.7c0,0.1,0,0.1-0.1,0.1h-0.5c-0.1,0-0.1,0-0.1-0.1v-0.5c0,0,0,0,0,0
			c0,0,0,0,0,0c-0.3,0.5-0.9,0.8-1.6,0.8c-0.5,0-0.9-0.1-1.3-0.4s-0.5-0.8-0.5-1.5c0-0.8,0.2-1.3,0.7-1.7c0.4-0.4,1-0.5,1.7-0.5h1.1
			c0,0,0.1,0,0.1-0.1v-0.6c0-0.5-0.1-0.9-0.3-1.2s-0.6-0.5-1-0.5c-0.3,0-0.6,0.1-0.8,0.3c-0.2,0.2-0.4,0.5-0.4,0.8
			c0,0.1,0,0.1-0.1,0.1l-0.5,0c0,0-0.1,0-0.1,0s0-0.1,0-0.1c0.1-0.5,0.3-0.9,0.7-1.3c0.4-0.3,0.8-0.5,1.4-0.5
			C427.3,206.8,427.8,207,428.2,207.5z M427.5,213c0.3-0.3,0.5-0.7,0.5-1.1v-1.3c0,0,0-0.1-0.1-0.1h-1.1c-0.5,0-0.9,0.1-1.2,0.4
			s-0.4,0.7-0.4,1.2c0,0.5,0.1,0.8,0.3,1c0.2,0.2,0.5,0.3,0.9,0.3C426.9,213.4,427.2,213.3,427.5,213z"/>
		<path class="st6" d="M430.7,213.6c-0.4-0.3-0.6-0.8-0.6-1.3v-0.1c0-0.1,0-0.1,0.1-0.1h0.4c0.1,0,0.1,0,0.1,0.1v0.1
			c0,0.3,0.1,0.6,0.4,0.8c0.2,0.2,0.6,0.3,0.9,0.3c0.4,0,0.7-0.1,0.9-0.3c0.2-0.2,0.3-0.5,0.3-0.9c0-0.3-0.1-0.5-0.2-0.7
			c-0.1-0.2-0.3-0.3-0.5-0.4c-0.2-0.1-0.5-0.2-0.8-0.4c-0.4-0.1-0.7-0.3-0.9-0.4c-0.2-0.1-0.4-0.3-0.6-0.6c-0.2-0.3-0.2-0.6-0.2-1
			c0-0.6,0.2-1,0.5-1.4s0.8-0.5,1.4-0.5c0.6,0,1.1,0.2,1.4,0.5c0.4,0.3,0.5,0.8,0.5,1.3v0c0,0.1,0,0.1-0.1,0.1h-0.4
			c-0.1,0-0.1,0-0.1-0.1v-0.1c0-0.3-0.1-0.6-0.3-0.9c-0.2-0.2-0.5-0.3-0.9-0.3s-0.7,0.1-0.9,0.3c-0.2,0.2-0.3,0.5-0.3,0.9
			c0,0.3,0.1,0.5,0.2,0.6s0.3,0.3,0.5,0.4c0.2,0.1,0.4,0.2,0.8,0.4c0.4,0.2,0.7,0.3,0.9,0.5s0.5,0.3,0.6,0.6c0.2,0.3,0.3,0.6,0.3,1
			c0,0.6-0.2,1-0.5,1.4c-0.4,0.3-0.8,0.5-1.4,0.5C431.5,214.1,431.1,213.9,430.7,213.6z"/>
		<path class="st6" d="M442.6,204.8h-3.3c0,0-0.1,0-0.1,0.1v3.8c0,0,0,0.1,0.1,0.1h2.1c0.1,0,0.1,0,0.1,0.1v0.4c0,0.1,0,0.1-0.1,0.1
			h-2.1c0,0-0.1,0-0.1,0.1v4.4c0,0.1,0,0.1-0.1,0.1h-0.5c-0.1,0-0.1,0-0.1-0.1v-9.5c0-0.1,0-0.1,0.1-0.1h3.9c0.1,0,0.1,0,0.1,0.1
			v0.4C442.7,204.8,442.7,204.8,442.6,204.8z"/>
		<path class="st6" d="M447.1,206.9h0.5c0.1,0,0.1,0,0.1,0.1v6.8c0,0.1,0,0.1-0.1,0.1h-0.5c-0.1,0-0.1,0-0.1-0.1v-0.5c0,0,0,0,0,0
			c0,0,0,0,0,0c-0.3,0.5-0.8,0.8-1.4,0.8c-0.6,0-1-0.2-1.3-0.5c-0.3-0.3-0.5-0.9-0.5-1.5v-5c0-0.1,0-0.1,0.1-0.1h0.5
			c0.1,0,0.1,0,0.1,0.1v4.8c0,0.5,0.1,0.9,0.3,1.2c0.2,0.3,0.5,0.4,0.9,0.4c0.4,0,0.7-0.1,1-0.4s0.3-0.7,0.3-1.2v-4.7
			C447,207,447,206.9,447.1,206.9z"/>
		<path class="st6" d="M453,206.9h0.5c0.1,0,0.1,0,0.1,0.1v6.8c0,1-0.2,1.7-0.7,2.2c-0.4,0.5-1.1,0.7-2.1,0.7c-0.1,0-0.1,0-0.1-0.1
			v-0.4c0-0.1,0.1-0.1,0.2-0.1c0.7,0,1.2-0.2,1.5-0.6c0.3-0.4,0.5-1,0.5-1.7v-0.5c0,0,0,0,0,0c0,0,0,0,0,0c-0.2,0.3-0.4,0.4-0.6,0.6
			c-0.2,0.1-0.5,0.2-0.8,0.2c-0.6,0-1-0.2-1.4-0.6c-0.3-0.4-0.5-0.9-0.5-1.5v-3c0-0.6,0.2-1.1,0.5-1.5s0.8-0.6,1.4-0.6
			c0.3,0,0.6,0.1,0.8,0.2c0.3,0.1,0.5,0.3,0.6,0.6c0,0,0,0,0,0c0,0,0,0,0,0v-0.5C452.8,207,452.9,206.9,453,206.9z M452.5,213
			c0.2-0.3,0.4-0.6,0.4-1.1v-3c0-0.4-0.1-0.8-0.4-1.1c-0.2-0.3-0.6-0.4-0.9-0.4c-0.4,0-0.7,0.1-1,0.4c-0.3,0.3-0.4,0.6-0.4,1.1v3
			c0,0.4,0.1,0.8,0.4,1.1s0.6,0.4,1,0.4C451.9,213.4,452.2,213.3,452.5,213z"/>
		<path class="st6" d="M458.7,207.5c0.4,0.4,0.5,1,0.5,1.7v4.7c0,0.1,0,0.1-0.1,0.1h-0.5c-0.1,0-0.1,0-0.1-0.1v-0.5c0,0,0,0,0,0
			c0,0,0,0,0,0c-0.3,0.5-0.9,0.8-1.6,0.8c-0.5,0-0.9-0.1-1.3-0.4s-0.5-0.8-0.5-1.5c0-0.8,0.2-1.3,0.7-1.7c0.4-0.4,1-0.5,1.7-0.5h1.1
			c0,0,0.1,0,0.1-0.1v-0.6c0-0.5-0.1-0.9-0.3-1.2s-0.6-0.5-1-0.5c-0.3,0-0.6,0.1-0.8,0.3c-0.2,0.2-0.4,0.5-0.4,0.8
			c0,0.1,0,0.1-0.1,0.1l-0.5,0c0,0-0.1,0-0.1,0s0-0.1,0-0.1c0.1-0.5,0.3-0.9,0.7-1.3c0.4-0.3,0.8-0.5,1.4-0.5
			C457.8,206.8,458.3,207,458.7,207.5z M458,213c0.3-0.3,0.5-0.7,0.5-1.1v-1.3c0,0,0-0.1-0.1-0.1h-1.1c-0.5,0-0.9,0.1-1.2,0.4
			s-0.4,0.7-0.4,1.2c0,0.5,0.1,0.8,0.3,1c0.2,0.2,0.5,0.3,0.9,0.3C457.4,213.4,457.7,213.3,458,213z"/>
		<path class="st6" d="M461.2,213.6c-0.4-0.3-0.6-0.8-0.6-1.3v-0.1c0-0.1,0-0.1,0.1-0.1h0.4c0.1,0,0.1,0,0.1,0.1v0.1
			c0,0.3,0.1,0.6,0.4,0.8c0.2,0.2,0.6,0.3,0.9,0.3c0.4,0,0.7-0.1,0.9-0.3c0.2-0.2,0.3-0.5,0.3-0.9c0-0.3-0.1-0.5-0.2-0.7
			c-0.1-0.2-0.3-0.3-0.5-0.4c-0.2-0.1-0.5-0.2-0.8-0.4c-0.4-0.1-0.7-0.3-0.9-0.4c-0.2-0.1-0.4-0.3-0.6-0.6c-0.2-0.3-0.2-0.6-0.2-1
			c0-0.6,0.2-1,0.5-1.4s0.8-0.5,1.4-0.5c0.6,0,1.1,0.2,1.4,0.5c0.4,0.3,0.5,0.8,0.5,1.3v0c0,0.1,0,0.1-0.1,0.1H464
			c-0.1,0-0.1,0-0.1-0.1v-0.1c0-0.3-0.1-0.6-0.3-0.9c-0.2-0.2-0.5-0.3-0.9-0.3s-0.7,0.1-0.9,0.3c-0.2,0.2-0.3,0.5-0.3,0.9
			c0,0.3,0.1,0.5,0.2,0.6s0.3,0.3,0.5,0.4c0.2,0.1,0.4,0.2,0.8,0.4c0.4,0.2,0.7,0.3,0.9,0.5s0.5,0.3,0.6,0.6c0.2,0.3,0.3,0.6,0.3,1
			c0,0.6-0.2,1-0.5,1.4c-0.4,0.3-0.8,0.5-1.4,0.5C462.1,214.1,461.6,213.9,461.2,213.6z"/>
		<path class="st6" d="M469.8,204.2h0.5c0.1,0,0.1,0,0.1,0.1v9.5c0,0.1,0,0.1-0.1,0.1h-0.5c-0.1,0-0.1,0-0.1-0.1v-8.7c0,0,0,0,0,0
			c0,0,0,0,0,0l-1.4,0.5l-0.1,0c-0.1,0-0.1,0-0.1-0.1l-0.1-0.3v0c0-0.1,0-0.1,0.1-0.2l1.5-0.8C469.7,204.2,469.8,204.2,469.8,204.2z
			"/>
		<path class="st6" d="M476.6,210.7v0.4c0,0.1,0,0.1-0.1,0.1H476c0,0-0.1,0-0.1,0.1v2.5c0,0.1,0,0.1-0.1,0.1h-0.5
			c-0.1,0-0.1,0-0.1-0.1v-2.5c0,0,0-0.1-0.1-0.1h-3.3c-0.1,0-0.1,0-0.1-0.1v-0.4c0,0,0-0.1,0-0.2l2.2-6.3c0-0.1,0.1-0.1,0.2-0.1h0.5
			c0.1,0,0.1,0.1,0.1,0.2l-2.1,6.2c0,0,0,0,0,0c0,0,0,0,0,0h2.6c0,0,0.1,0,0.1-0.1v-2.3c0-0.1,0-0.1,0.1-0.1h0.5
			c0.1,0,0.1,0,0.1,0.1v2.3c0,0,0,0.1,0.1,0.1h0.4C476.6,210.6,476.6,210.6,476.6,210.7z"/>
		<path class="st6" d="M479,207.7c-0.3-0.2-0.5-0.4-0.7-0.7c-0.2-0.3-0.3-0.6-0.3-1c0-0.3,0.1-0.7,0.3-1c0.2-0.3,0.4-0.5,0.7-0.7
			c0.3-0.2,0.6-0.3,1-0.3c0.3,0,0.7,0.1,1,0.3c0.3,0.2,0.5,0.4,0.7,0.7c0.2,0.3,0.3,0.6,0.3,1c0,0.4-0.1,0.7-0.3,1
			c-0.2,0.3-0.4,0.5-0.7,0.7c-0.3,0.2-0.6,0.3-1,0.3C479.6,207.9,479.3,207.8,479,207.7z M480.9,207c0.3-0.3,0.4-0.6,0.4-1
			c0-0.4-0.1-0.7-0.4-1c-0.3-0.3-0.6-0.4-1-0.4c-0.4,0-0.7,0.1-1,0.4c-0.3,0.3-0.4,0.6-0.4,1c0,0.4,0.1,0.8,0.4,1
			c0.3,0.3,0.6,0.4,1,0.4C480.3,207.4,480.7,207.3,480.9,207z M479.6,213.9c0,0,0-0.1,0-0.1l5.1-9.5c0-0.1,0.1-0.1,0.2-0.1h0.3
			c0.1,0,0.1,0,0.1,0s0,0.1,0,0.1l-5.1,9.5c0,0.1-0.1,0.1-0.2,0.1h-0.3C479.6,214,479.6,214,479.6,213.9z M484,213.9
			c-0.3-0.2-0.5-0.4-0.7-0.7s-0.3-0.6-0.3-1c0-0.4,0.1-0.7,0.3-1c0.2-0.3,0.4-0.5,0.7-0.7c0.3-0.2,0.6-0.3,1-0.3
			c0.3,0,0.6,0.1,0.9,0.3c0.3,0.2,0.5,0.4,0.7,0.7s0.3,0.6,0.3,1c0,0.4-0.1,0.7-0.3,1s-0.4,0.5-0.7,0.7c-0.3,0.2-0.6,0.3-0.9,0.3
			C484.6,214.1,484.3,214,484,213.9z M485.9,213.2c0.3-0.3,0.4-0.6,0.4-1c0-0.4-0.1-0.7-0.4-1c-0.3-0.3-0.6-0.4-1-0.4
			c-0.4,0-0.7,0.1-1,0.4c-0.3,0.3-0.4,0.6-0.4,1c0,0.4,0.1,0.8,0.4,1c0.3,0.3,0.6,0.4,1,0.4C485.3,213.6,485.7,213.5,485.9,213.2z"
			/>
	</g>
	<g>
		<g>
			<g>
				<path class="st8" d="M49.6,82.9c-5.9,0-9.7-2.4-11.7-4.3c-2.1-2-4.5-5.5-4.7-11.2c-0.3-0.2-0.5-0.4-0.8-0.6
					c-2.8-2.5-4.4-6-4.4-10c0-3.8,1.4-7.5,4.2-10.6c2.1-2.4,4.9-4.3,8.1-5.7c3.1-1.3,6.3-1.9,9.7-1.9c0.6,0,1.2,0,1.7,0.1h23.1
					l-5.6,26.8c-1.1,5.2-3.3,9.3-6.4,12.3C59.3,81.1,54.8,82.9,49.6,82.9z"/>
			</g>
			<g>
				<path class="st8" d="M64.8,82.8c-2.8,0-5.3-0.6-7.5-1.9c-2.3-1.3-4.2-3.2-5.5-5.5c-1.1-2.1-1.7-4.4-1.7-6.7c0-2.6,0.7-5.1,2-7.2
					c0.5-0.8,1.1-1.5,1.7-2.2c0.3-0.6,0.6-1.3,0.9-1.9c0.5-1.3,1-2.7,1.5-4.2l1.9-6.1l21.9-3l0.4,11c0,0.5,0,1.1,0.1,1.7h16
					L82.3,73.5c-1.8,2.1-4,4-6.4,5.5c-1.5,1.3-3.2,2.2-5.1,2.9C68.8,82.5,66.8,82.8,64.8,82.8z"/>
			</g>
			<g>
				<path class="st8" d="M78,82.8c-5.1,0-8.4-2-10.4-3.7c-2.2-1.9-4.8-5.4-4.8-11.3c0-2.5,0.5-5.2,1.4-8c1.1-3.3,2.8-6.2,5.3-8.6
					c3.2-3.2,7.4-4.8,12-4.8c2.9,0,5.5,0.8,7.7,2.1h15.9l-7.2,14.5c-0.8,1.6-1.5,2.9-2.2,3.9c-0.2,0.3-0.4,0.6-0.6,0.8
					c-0.4,1.6-0.9,3.1-1.5,4.5c-1.4,3.1-3.4,5.5-5.8,7.4C84.9,81.7,81.5,82.8,78,82.8z"/>
			</g>
			<g>
				<path class="st8" d="M99.7,82.8c-3.9,0-7.5-1.5-10.2-4.3c-1.8-1.9-4.1-5.3-4.1-10.9c0-2.7,0.5-5.6,1.5-8.4
					c1.2-3.2,2.9-5.9,5.3-8.2c1.8-1.7,3.9-3,6.1-3.8l1.2-5.4l25.8-3.5l-3.9,18.5h6.6l-4.5,13.2c-3.8,11.3-12.4,12.5-15.9,12.5
					c-1.2,0-2.4-0.1-3.5-0.4C102.7,82.6,101.2,82.8,99.7,82.8z"/>
			</g>
			<g>
				<path class="st8" d="M117.2,82.8c-5.2,0-8.6-2.1-10.5-3.9c-2-1.9-4.5-5.4-4.5-11.1c0-2.5,0.5-5.2,1.4-8c1.1-3.3,2.8-6.2,5.3-8.6
					c3.2-3.2,7.3-4.8,12-4.8c3.3,0,6.1,0.9,8.4,2.6l8.5-7.5l-3.4,18.5c0,1.6-0.3,3.1-0.8,4.6l-1,5.3
					C131.2,77.8,125.1,82.8,117.2,82.8z"/>
			</g>
			<g>
				<path class="st8" d="M138.3,86.3c-1.5,0-2.9-0.1-4.2-0.4c-2.7-0.6-5.1-2-6.9-4.1c-1.4-1.6-3.2-4.5-3.2-8.9
					c0-1.1,0.1-2.2,0.3-3.4c-1.7-2.1-2.7-4.7-2.7-7.6c0-3.3,1.3-6.4,3.6-8.9c1.7-1.8,3.8-3.1,6.3-4c1-0.3,2-0.6,3-0.8
					c1.3-1.7,2.7-3.1,4.2-4.4c3.8-3.5,8-5.2,12.3-5.2c2.4,0,4.7,0.4,6.6,1.3l7.3,3.3l-8.4,39.3H156l2.8,3.6H138.3z"/>
			</g>
			<g>
				<path class="st8" d="M158.4,90.6c-3.3,0-6.3-1-8.7-2.9c-3.1-2.4-4.9-6.1-4.9-10.2c0-0.3,0-0.6,0-0.9c-1.4-2-2.5-4.9-2.5-9
					c0-2.7,0.5-5.6,1.5-8.4c1.2-3.2,2.9-5.9,5.3-8.2c1.8-1.7,3.9-3,6.1-3.8l0.1-0.7h2.8c0.8-0.1,1.5-0.2,2.3-0.2
					c0.8,0,1.5,0.1,2.3,0.2h17.6l-2.2,10.3h5.5l-3.9,12.9c-1.1,3.7-2.9,6.6-5.2,8.7c-0.4,0.4-0.9,0.8-1.3,1.1
					c-1.1,3.4-2.9,6-5.4,7.9C165.2,89.6,161.9,90.6,158.4,90.6z"/>
			</g>
			<g>
				<path class="st8" d="M180,82.8c-1.3,0-2.6-0.2-3.9-0.6c-1.3,0.4-2.6,0.6-4,0.6c-3.7,0-7.1-1.4-9.6-4c-1.7-1.8-3.8-4.9-3.8-9.9
					c0-1.2,0.1-2.5,0.4-4l3.9-18.3h33l-2.2,10.3h6.6l-4.5,13.2c-1.5,4.4-3.7,7.5-6.6,9.6C186.5,81.8,183.3,82.8,180,82.8z"/>
			</g>
			<g>
				<path class="st8" d="M196.9,82.8c-1.3,0-2.6-0.2-3.8-0.6c-1.3,0.4-2.7,0.6-4.1,0.6c-3.9,0-7.5-1.5-10.2-4.3
					c-1.8-1.9-4.1-5.3-4.1-10.9c0-2.7,0.5-5.6,1.5-8.4c1.2-3.2,2.9-5.9,5.3-8.2c1.8-1.7,3.8-3,6.1-3.7l0.1-0.7h2.8
					c0.8-0.1,1.5-0.2,2.3-0.2c0.8,0,1.5,0.1,2.3,0.2h17.6l-1.3,6l7.4-3.7l-9.5,24.3c-0.9,2.4-1.9,4.1-3.2,5.5
					C203.9,81.4,200.5,82.8,196.9,82.8z"/>
			</g>
			<g>
				<path class="st8" d="M218.8,83.1c-1,0-2.1-0.1-3.4-0.4h-17.7l3.4-16.1c-2.5-2.4-3.9-5.7-3.9-9.4c0-3.8,1.4-7.4,4-10.5
					c2.1-2.5,4.8-4.5,8.1-5.9c3.1-1.3,6.4-2,9.9-2c3.5,0,6.3,0.7,8.5,1.8l4.3-0.6l-0.6,2.9c0.9,0.7,1.6,1.5,2.1,2.2
					c2.8,3.5,4.3,7.9,4.3,12.9c0,3.5-0.6,7.1-1.8,10.5c-1.3,3.6-3.1,6.7-5.3,9.2c-2.6,2.8-5.3,4.2-7.7,4.9l0,0.2h-0.6
					C221,82.9,219.8,83.1,218.8,83.1z"/>
			</g>
			<g>
				<path class="st8" d="M232.8,82.8c-5.2,0-8.6-2.1-10.5-3.9c-2-1.9-4.5-5.4-4.5-11.1c0-2.5,0.5-5.2,1.4-8c1.1-3.3,2.8-6.2,5.3-8.6
					c3.2-3.2,7.3-4.8,12-4.8c6.9,0,12.2,4.3,13.3,10.6h9.5l-9.1,15.1C244.5,81.4,236.9,82.8,232.8,82.8z"/>
			</g>
			<g>
				<path class="st8" d="M252.1,82.8c-0.8,0-1.7-0.1-2.5-0.2H227l7.6-36h14.2c0.6-0.1,1.3-0.1,1.9-0.1c0.7,0,1.3,0,2,0.1h7l-0.6,2.6
					c0.4,0.3,0.7,0.6,1,0.9c1.9,1.8,3.2,4.1,3.8,6.8h8l-4.4,13.2c-1.4,4.3-3.4,7.4-6.1,9.4C258.6,81.7,255.4,82.8,252.1,82.8z"/>
			</g>
			<g>
				<path class="st8" d="M259.8,82.8c-3.7,0-7.1-1.4-9.6-4c-1.7-1.8-3.8-4.9-3.8-9.9c0-0.3,0-0.7,0-1.1h-1.1l4.3-21.3h1.2l0.7-3.4
					l25.8-3.5l-1.5,6.9h1.7l-2.1,10.3h5L276,70.2c-1.5,4.4-3.9,7.7-7,9.8C266.1,81.9,263,82.8,259.8,82.8z"/>
			</g>
			<g>
				<path class="st8" d="M251.7,82.6l7.6-36h25l-0.7,3.2c0.4,0.3,0.7,0.7,1.1,1.1c1.9,2.3,2.9,5.1,2.9,8.1c0,3-1.1,5.9-3,8.2
					c-1.5,1.7-3.3,2.9-5.4,3.6l-2.5,11.9H251.7z"/>
			</g>
			<g>
				<path class="st8" d="M281.9,82.8c-5.1,0-8.4-2-10.4-3.7c-2.2-1.9-4.8-5.4-4.8-11.3c0-2.5,0.5-5.2,1.4-8c1.1-3.3,2.8-6.2,5.3-8.6
					c3.2-3.2,7.3-4.8,12-4.8c2.9,0,5.5,0.8,7.7,2.1H309l-7.2,14.5c-0.8,1.6-1.5,2.9-2.2,3.9c-0.2,0.3-0.4,0.6-0.6,0.8
					c-0.4,1.6-0.9,3.1-1.5,4.5c-1.4,3.1-3.4,5.5-5.8,7.4C288.7,81.7,285.4,82.8,281.9,82.8z"/>
			</g>
		</g>
	</g>
	<g>
		<g>
			<g>
				<path class="st8" d="M42,109.4c-3.9,0-7.5-1.5-10.2-4.3c-1.8-1.9-4.1-5.3-4.1-10.9c0-2.7,0.5-5.6,1.5-8.4
					c1.2-3.2,2.9-5.9,5.3-8.2c1.8-1.7,3.9-3,6.1-3.8l1.2-5.4L67.6,65l-3.9,18.5h6.6l-4.5,13.2c-3.8,11.3-12.4,12.5-15.9,12.5
					c-1.2,0-2.4-0.1-3.5-0.4C45,109.2,43.5,109.4,42,109.4z"/>
			</g>
			<g>
				<path class="st8" d="M59.6,109.4c-5.2,0-8.6-2.1-10.5-3.9c-2-1.9-4.5-5.4-4.5-11.1c0-2.5,0.5-5.2,1.4-8c1.1-3.3,2.8-6.2,5.3-8.6
					c3.2-3.2,7.3-4.8,12-4.8c6.9,0,12.2,4.3,13.3,10.6H86l-9.1,15.1C71.3,108,63.6,109.4,59.6,109.4z"/>
			</g>
			<g>
				<path class="st8" d="M70.4,109.4c-3.7,0-7.2-1.4-9.7-4c-1.7-1.8-3.8-4.9-3.8-9.9c0-1.2,0.1-2.5,0.4-4l4.9-23l25.8-3.5l-3.3,15.6
					l0.4-0.2l-1.3,16.5c-0.3,3.7-1.9,6.9-4.5,9.2C76.8,108.2,73.7,109.4,70.4,109.4z"/>
			</g>
			<g>
				<path class="st8" d="M71.7,109.2l3.4-16.1c-1.6-1.6-3.9-4.6-3.9-9.6c0-2.6,0.7-6.6,4.1-10.5c2.1-2.4,4.6-4.3,7.7-5.7
					c2.4-1.1,4.8-1.8,7.3-2l0,0h0.4c0.6,0,1.1-0.1,1.7-0.1c0.5,0,1,0,1.6,0.1h21.3l-9.3,43.9H71.7z"/>
			</g>
			<g>
				<path class="st8" d="M106.8,109.3c-5.1,0-8.4-2-10.4-3.7c-2.2-1.9-4.8-5.4-4.8-11.3c0-2.5,0.5-5.2,1.4-8
					c1.1-3.3,2.9-6.2,5.4-8.6c3.2-3.1,7.3-4.8,12-4.8c3.1,0,5.7,0.8,7.7,2.1l6.8-4.9l6.5,19.4l-4.1,4.3c-1.3,1.3-2.8,2.5-4.5,3.4
					c-0.2,0.6-0.5,1.3-0.8,1.9c-1.4,3-3.4,5.4-5.9,7.1C113.4,108.3,110.2,109.3,106.8,109.3z"/>
			</g>
			<g>
				<path class="st8" d="M121.8,117.2c-3.3,0-6.3-1-8.7-2.9c-3.1-2.4-4.9-6.1-4.9-10.2c0-0.3,0-0.6,0-0.9c-1.4-2-2.5-4.9-2.5-9
					c0-2.7,0.5-5.6,1.5-8.4c1.2-3.2,2.9-5.9,5.3-8.2c1.8-1.7,3.9-3,6.1-3.8l0.1-0.7h2.8c0.8-0.1,1.5-0.2,2.3-0.2
					c0.8,0,1.5,0.1,2.3,0.2h17.6l-2.2,10.3h5.5l-3.9,12.9c-1.1,3.7-2.9,6.6-5.2,8.7c-0.4,0.4-0.9,0.8-1.3,1.1
					c-1.1,3.4-2.9,6-5.4,7.9C128.6,116.1,125.3,117.2,121.8,117.2z"/>
			</g>
			<g>
				<path class="st8" d="M144.1,109.4c-1.4,0-2.7-0.2-3.9-0.5c-1.3,0.4-2.6,0.5-4,0.5c-3.9,0-7.5-1.5-10.2-4.3
					c-1.8-1.9-4.1-5.3-4.1-10.9c0-2.7,0.5-5.6,1.5-8.4c1.2-3.2,2.9-5.9,5.3-8.2c1.8-1.7,3.8-3,6.1-3.7l0.1-0.7h2.8
					c0.8-0.1,1.6-0.2,2.3-0.2c0.8,0,1.5,0.1,2.3,0.2h17.6l-2.2,10.3h6.6L160,96.7c-1.5,4.4-3.7,7.5-6.6,9.6
					C150.6,108.3,147.4,109.4,144.1,109.4z"/>
			</g>
			<g>
				<path class="st8" d="M135.7,109.2l7.6-36h25l-0.7,3.2c0.4,0.3,0.7,0.7,1.1,1.1c1.9,2.3,2.9,5.1,2.9,8.1c0,3-1.1,5.9-3,8.2
					c-1.5,1.7-3.3,2.9-5.4,3.6l-2.5,11.9H135.7z"/>
			</g>
			<g>
				<path class="st8" d="M172,109.4c-3.9,0-7.5-1.5-10.2-4.3c-1.8-1.9-4.1-5.3-4.1-10.9c0-2.7,0.5-5.5,1.5-8.4
					c1.2-3.2,2.9-5.9,5.3-8.2c1.8-1.7,3.9-3,6.1-3.8l1.2-5.4l25.8-3.5l-3.9,18.5h6.6l-4.5,13.2c-3.8,11.3-12.4,12.5-15.9,12.5
					c-1.2,0-2.4-0.1-3.5-0.4C175,109.2,173.5,109.4,172,109.4z"/>
			</g>
			<g>
				<path class="st8" d="M189.5,109.4c-5.2,0-8.6-2.1-10.5-3.9c-2-1.9-4.5-5.4-4.5-11.1c0-2.5,0.5-5.2,1.4-8
					c1.1-3.3,2.8-6.2,5.3-8.6c3.2-3.2,7.3-4.8,12-4.8c3.3,0,6.1,0.9,8.4,2.6l8.5-7.5l-3.4,18.5c0,1.6-0.3,3.1-0.8,4.6l-1,5.3
					C203.4,104.3,197.4,109.4,189.5,109.4z"/>
			</g>
			<g>
				<path class="st8" d="M209.8,109.8c-6,0-9.7-2.6-11.7-4.8c-2.7-2.9-4.2-6.7-4.2-10.8c0-2.5,0.5-4.9,1.5-7.3
					c0.6-1.6,1.5-3,2.5-4.3c0-0.2,0-0.3,0-0.5c0-2.9,0.7-5.6,2.2-8.2c1.4-2.5,3.4-4.6,5.9-6.1c2.6-1.7,5.7-2.5,8.9-2.5
					c3.7,0,7,1.2,9.7,3.3c3.2,2.6,4.9,6.4,4.9,10.7c0,2.7-0.7,5.2-2,7.3l5,2.2l-4.2,9.3c-1.6,3.6-4.2,6.6-7.6,8.7
					C217.3,108.7,213.6,109.8,209.8,109.8z"/>
			</g>
			<g>
				<path class="st8" d="M224.5,109.8c-6,0-9.7-2.6-11.7-4.8c-2.7-2.9-4.2-6.7-4.2-10.8c0-2.5,0.5-4.9,1.5-7.3
					c0.6-1.6,1.5-3,2.5-4.3c0-0.2,0-0.3,0-0.5c0-2.9,0.7-5.6,2.2-8.2c1.4-2.5,3.4-4.6,5.9-6.1c2.6-1.7,5.7-2.5,8.9-2.5
					c3.7,0,7,1.2,9.7,3.3c3.2,2.6,4.9,6.4,4.9,10.7c0,2.7-0.7,5.2-2,7.3l5,2.2l-4.2,9.3c-1.6,3.6-4.2,6.6-7.6,8.7
					C232,108.7,228.3,109.8,224.5,109.8z"/>
			</g>
			<g>
				<path class="st8" d="M236.5,109.3c-3.4,0-6.5-1.3-8.9-3.7c-2.4-2.4-3.7-5.5-3.7-8.9c0-3.3,1.3-6.4,3.6-8.8
					c2.4-2.4,5.6-3.8,8.9-3.8c3.3,0,6.5,1.3,8.9,3.7c2.4,2.4,3.7,5.5,3.7,8.9c0,3.4-1.3,6.6-3.8,8.9
					C243,108,239.9,109.3,236.5,109.3z"/>
			</g>
			<g>
				<path class="st8" d="M252.8,109.4c-5.9,0-9.7-2.4-11.7-4.3c-2.1-2-4.5-5.5-4.7-11.2c-0.3-0.2-0.5-0.4-0.8-0.6
					c-2.8-2.5-4.4-6-4.4-10c0-3.8,1.4-7.5,4.2-10.6c2.1-2.4,4.9-4.3,8.1-5.7c3.1-1.3,6.3-1.9,9.7-1.9c0.6,0,1.2,0,1.7,0.1h23.1
					L272.5,92c-1.1,5.2-3.3,9.3-6.4,12.3C262.6,107.6,258,109.4,252.8,109.4z"/>
			</g>
			<g>
				<path class="st8" d="M275.7,109.4c-5.9,0-9.7-2.4-11.7-4.3c-2.1-2-4.5-5.5-4.7-11.2c-0.3-0.2-0.5-0.4-0.8-0.6
					c-2.8-2.5-4.4-6-4.4-10c0-3.8,1.4-7.5,4.2-10.6c2.1-2.4,4.9-4.3,8.1-5.7c3.1-1.3,6.3-1.9,9.7-1.9c0.6,0,1.2,0,1.7,0.1h23.1
					L295.4,92c-1.1,5.2-3.3,9.3-6.4,12.3C285.5,107.6,280.9,109.4,275.7,109.4z"/>
			</g>
			<g>
				<path class="st8" d="M290.8,109.3c-3.3,0-6.5-1.3-8.9-3.7c-2.4-2.4-3.7-5.5-3.7-8.9c0-3.3,1.3-6.4,3.6-8.8
					c2.4-2.4,5.6-3.8,8.9-3.8c3.3,0,6.5,1.3,8.9,3.7c2.4,2.4,3.7,5.5,3.7,8.9c0,3.4-1.3,6.6-3.8,8.9
					C297.2,108,294.1,109.3,290.8,109.3z"/>
			</g>
		</g>
	</g>
	<g>
		<path class="st0" d="M43.8,72.3c-1.1-1-1.6-2.6-1.6-4.6c0-1,0.1-2.1,0.4-3.4l3.3-13c-1.8,0.5-3.3,1.4-4.3,2.6
			c-1,1.2-1.5,2.6-1.5,4.1c0,1,0.3,2.1,0.8,3c-1.2,0-2.2-0.3-2.8-0.9c-0.7-0.6-1-1.4-1-2.5c0-1.4,0.6-2.7,1.7-4
			c1.1-1.3,2.6-2.3,4.5-3.1s3.8-1.2,5.9-1.2c0.7,0,1.3,0.1,1.8,0.2L47,64.5c-0.4,1.3-0.5,2.5-0.5,3.5c0,2,0.8,3,2.5,3
			c2.4,0,4-2.2,5-6.6l3.2-14.8h4.5l-3.1,14.8c-0.7,3.1-1.9,5.5-3.5,7.1c-1.7,1.6-3.8,2.4-6.4,2.4C46.5,73.9,44.9,73.3,43.8,72.3z"/>
		<path class="st0" d="M61.2,73.2c-0.7-0.4-1.2-0.9-1.6-1.5c-0.3-0.6-0.5-1.3-0.5-2c0-0.7,0.2-1.3,0.5-1.8c0.3-0.5,0.7-0.9,1.2-1.1
			c0.8-1.5,1.6-3,2.2-4.5c0.6-1.5,1.2-3.2,1.8-4.9l4.7-0.6c0.1,2.7,0.3,5.7,0.5,8.9c0.1,1.3,0.2,2.2,0.2,2.8c0,0.5,0,0.9-0.1,1.2
			c1-0.6,1.8-1.1,2.3-1.6h1.3c-1.4,1.6-3,2.9-4.9,4c-0.6,0.7-1.4,1.1-2.3,1.5s-1.8,0.5-2.7,0.5C62.8,73.8,61.9,73.6,61.2,73.2z
			 M64.8,70.6c0.5-0.5,0.8-1.2,0.8-2.3c0-0.6-0.1-1.5-0.2-2.7c-0.2-2.4-0.4-4.1-0.4-4.9c-0.5,1.7-1.4,3.7-2.6,6
			c0.5,0.3,0.7,0.6,0.7,1.1c0,0.4-0.1,0.8-0.4,1.1c-0.3,0.3-0.6,0.5-1,0.5c-0.4,0-0.7-0.1-0.9-0.4c0,0.8,0.2,1.3,0.5,1.7
			c0.3,0.4,0.8,0.5,1.5,0.5C63.6,71.3,64.2,71.1,64.8,70.6z"/>
		<path class="st0" d="M73.3,72.6c-0.9-0.8-1.4-2.1-1.4-3.8c0-1.5,0.3-3.1,0.9-4.8c0.6-1.8,1.5-3.3,2.8-4.6c1.3-1.3,3-1.9,5-1.9
			c2.5,0,3.9,1.4,4.1,4.3c0.5-0.1,0.9-0.4,1.2-0.8c0.4-0.4,0.7-0.9,1-1.4h1c-0.6,1.2-1.1,2.1-1.5,2.7c-0.4,0.7-1,1.2-1.8,1.6
			c-0.1,2-0.5,3.8-1.2,5.3c-0.7,1.5-1.6,2.7-2.7,3.5c-1.1,0.8-2.3,1.2-3.7,1.2C75.5,73.8,74.2,73.4,73.3,72.6z M80.5,69
			c0.7-1.3,1.2-2.9,1.4-4.7c-0.5-0.2-0.8-0.7-0.8-1.4c0-0.8,0.3-1.4,0.9-1.7c0-0.7-0.2-1.2-0.3-1.4c-0.2-0.3-0.5-0.4-0.9-0.4
			c-0.7,0-1.4,0.5-2,1.5c-0.6,1-1.2,2.2-1.6,3.7c-0.4,1.4-0.6,2.7-0.6,3.8c0,1,0.1,1.7,0.4,2.1c0.2,0.4,0.7,0.5,1.3,0.5
			C79.1,70.9,79.9,70.2,80.5,69z"/>
		<path class="st0" d="M95.7,72.6c-0.8-0.8-1.2-2.1-1.2-3.9c0-1.6,0.3-3.2,0.9-5c0.6-1.7,1.6-3.2,2.8-4.4c1.2-1.2,2.7-1.8,4.5-1.8
			c0.9,0,1.5,0.1,2,0.4s0.6,0.7,0.6,1.2v0.1l1.6-7.4l4.7-0.6l-3.7,17.3c-0.1,0.3-0.1,0.7-0.1,1c0,0.4,0.1,0.7,0.3,0.9
			c0.2,0.2,0.5,0.3,1,0.3c0.6,0,1.1-0.3,1.6-0.8c0.4-0.5,0.8-1.2,1-2h1.3c-1.3,3.8-3.4,5.7-6.4,5.7c-0.9,0-1.6-0.2-2.1-0.7
			c-0.5-0.5-0.9-1.2-1-2c-0.6,0.9-1.2,1.6-2,2.1c-0.8,0.6-1.7,0.8-2.7,0.8C97.5,73.8,96.5,73.4,95.7,72.6z M102.4,70
			c0.5-0.5,0.9-1.1,1.1-2v-0.2l1.6-7.3c-0.2-0.7-0.6-1.1-1.3-1.1c-0.9,0-1.6,0.5-2.3,1.5c-0.7,1-1.2,2.2-1.6,3.6
			c-0.4,1.4-0.6,2.6-0.6,3.7c0,1.1,0.2,1.7,0.5,2c0.3,0.3,0.7,0.4,1.1,0.4C101.3,70.7,101.9,70.5,102.4,70z"/>
		<path class="st0" d="M112.6,72.6c-0.9-0.8-1.3-2.1-1.3-3.9c0-1.5,0.3-3.1,0.9-4.9c0.6-1.8,1.5-3.3,2.8-4.6c1.3-1.3,3-1.9,5-1.9
			c2.3,0,3.5,1,3.5,3.1c0,1.2-0.3,2.3-1,3.3c-0.7,1-1.6,1.8-2.7,2.4s-2.3,1-3.6,1c0,0.5-0.1,0.8-0.1,1c0,1.8,0.7,2.7,2,2.7
			c0.6,0,1.2-0.2,1.9-0.5c0.7-0.3,1.3-0.7,1.9-1.2c-0.6,3.2-2.4,4.7-5.5,4.7C114.7,73.8,113.4,73.4,112.6,72.6z M118.6,64.8
			c0.7-0.5,1.3-1.2,1.7-2c0.4-0.8,0.7-1.6,0.7-2.5c0-0.9-0.3-1.3-0.8-1.3c-0.7,0-1.5,0.7-2.2,2c-0.7,1.4-1.3,2.9-1.6,4.6
			C117.1,65.6,117.9,65.4,118.6,64.8z"/>
		<path class="st0" d="M135.3,77.1c-0.6-0.1-1.1-0.4-1.6-0.9c-0.4-0.5-0.7-1.2-0.7-2.3c0-1.4,0.4-3.3,1.3-5.8c0.9-2.4,2-4.8,3.4-7.3
			c-1.1,0.1-1.9,0.2-2.5,0.5s-1,0.7-1.2,1.2c0.1,0,0.2,0.1,0.3,0.3c0.1,0.2,0.1,0.4,0.1,0.7c0,0.4-0.2,0.7-0.5,0.9
			c-0.3,0.2-0.8,0.3-1.3,0.3c-0.6,0-1.1-0.2-1.4-0.5c-0.4-0.3-0.5-0.8-0.5-1.4c0-0.7,0.3-1.4,0.8-2c0.6-0.6,1.3-1.1,2.4-1.4
			s2.1-0.5,3.3-0.5c0.4,0,1,0,1.7,0.1c1.7-2.8,3.6-5,5.6-6.8c2-1.8,3.8-2.6,5.6-2.6c1,0,1.9,0.1,2.5,0.4l-5,23.6h-4.6l2.5-11.6
			c-0.8-0.4-1.5-0.6-2.2-0.8c-0.7-0.2-1.4-0.3-2.1-0.4c-1.2,2.6-2.2,5.3-3,8c-0.8,2.7-1.2,4.9-1.2,6.6c0,0.8,0.1,1.4,0.4,1.8
			C136.5,77.3,135.9,77.2,135.3,77.1z M147.5,51.9c-0.9,0.5-1.9,1.4-2.9,2.7c-1,1.3-2,2.9-2.9,4.8c1.5,0.3,2.8,0.7,3.9,1.1
			L147.5,51.9z"/>
		<path class="st0" d="M154.8,80.8c-0.7-0.5-1-1.3-1-2.3c0-1.2,0.5-2.2,1.5-2.9c1-0.7,2.2-1.3,3.7-1.8l0.4-1.7
			c-1.1,1.2-2.4,1.8-3.8,1.8c-1.2,0-2.2-0.4-3-1.2s-1.2-2.1-1.2-3.9c0-1.6,0.3-3.2,0.9-5c0.6-1.7,1.6-3.2,2.8-4.4
			c1.2-1.2,2.7-1.8,4.5-1.8c0.9,0,1.5,0.1,2,0.4s0.6,0.7,0.6,1.2v0.2l0.4-1.7h4.6l-3.2,14.8c1-0.3,1.8-0.9,2.5-1.5
			c0.6-0.7,1.1-1.7,1.6-3h1.3c-0.6,1.9-1.4,3.3-2.3,4.2c-1,0.9-2.1,1.5-3.3,1.8l-0.5,2.3c-0.4,2.1-1.2,3.5-2.2,4.3
			c-1,0.8-2.2,1.2-3.6,1.2C156.4,81.6,155.5,81.4,154.8,80.8z M157.7,78.4c0.3-0.5,0.6-1.2,0.8-2.1l0.2-0.9
			c-2.1,0.8-3.1,1.7-3.1,2.7c0,0.3,0.1,0.5,0.3,0.7c0.2,0.2,0.5,0.3,0.8,0.3C157,79.1,157.4,78.9,157.7,78.4z M159.2,70.1
			c0.5-0.4,0.9-1.1,1.1-1.8l1.6-7.6c0-0.3-0.1-0.5-0.3-0.8c-0.2-0.3-0.5-0.4-1-0.4c-0.9,0-1.6,0.5-2.3,1.5c-0.7,1-1.2,2.2-1.6,3.6
			c-0.4,1.4-0.6,2.6-0.6,3.7c0,1.1,0.2,1.7,0.5,2c0.3,0.3,0.7,0.4,1.1,0.4C158.1,70.7,158.6,70.5,159.2,70.1z"/>
		<path class="st0" d="M168.6,72.9c-0.6-0.6-0.9-1.6-0.9-2.9c0-0.5,0.1-1.2,0.3-2.1l2.2-10.3h4.6l-2.3,10.9
			c-0.1,0.3-0.1,0.6-0.1,0.9c0,0.9,0.3,1.3,1,1.3c0.6,0,1.1-0.3,1.5-0.8c0.4-0.5,0.8-1.2,1-2.1l2.2-10.3h4.6l-2.3,10.9
			c-0.1,0.3-0.1,0.7-0.1,1c0,0.4,0.1,0.7,0.3,0.9c0.2,0.2,0.5,0.3,1,0.3c0.6,0,1.1-0.3,1.6-0.8c0.4-0.5,0.8-1.2,1-2h1.3
			c-0.8,2.3-1.8,3.9-2.9,4.7c-1.2,0.8-2.3,1.2-3.5,1.2c-0.9,0-1.6-0.3-2.2-0.8c-0.5-0.5-0.9-1.3-1-2.3c-0.7,1.2-1.5,2-2.3,2.4
			c-0.8,0.4-1.6,0.6-2.4,0.6C170.1,73.8,169.3,73.5,168.6,72.9z"/>
		<path class="st0" d="M184.9,72.6c-0.8-0.8-1.2-2.1-1.2-3.9c0-1.6,0.3-3.2,0.9-5c0.6-1.7,1.6-3.2,2.8-4.4c1.2-1.2,2.7-1.8,4.5-1.8
			c0.9,0,1.5,0.1,2,0.4s0.6,0.7,0.6,1.2v0.2l0.4-1.7h4.6l-2.3,10.9c-0.1,0.3-0.1,0.7-0.1,1c0,0.4,0.1,0.7,0.3,0.9
			c0.2,0.2,0.5,0.3,1,0.3c0.3,0,0.5,0,0.7-0.1c-0.5,1.2-0.9,2-1.3,2.5c-0.4,0.5-1,0.7-1.9,0.7c-0.9,0-1.6-0.3-2.1-0.8
			c-0.5-0.5-0.9-1.3-1-2.2c-1.3,2-2.9,3-4.8,3C186.7,73.8,185.7,73.4,184.9,72.6z M191.6,70c0.5-0.5,0.9-1.2,1.1-2.1l1.5-7.2
			c0-0.3-0.1-0.5-0.3-0.8c-0.2-0.3-0.5-0.4-1-0.4c-0.9,0-1.6,0.5-2.3,1.5c-0.7,1-1.2,2.2-1.6,3.6c-0.4,1.4-0.6,2.6-0.6,3.7
			c0,1.1,0.2,1.7,0.5,2c0.3,0.3,0.7,0.4,1.1,0.4C190.6,70.7,191.1,70.5,191.6,70z"/>
		<path class="st0" d="M213.9,72.4l-0.3,1.3H209l4.4-20.4l4.7-0.6l-3.8,18c0.6,0.4,1.2,0.6,1.8,0.6c1.2,0,2.3-0.7,3.2-2.1
			c0.9-1.4,1.6-3.2,2.2-5.4c0.5-2.2,0.8-4.4,0.8-6.6c0-2.1-0.4-3.6-1.2-4.6c-0.8-1-2-1.5-3.4-1.5c-1.6,0-3,0.3-4.3,0.9
			c-1.3,0.6-2.3,1.5-3,2.7c-0.7,1.2-1.1,2.5-1.1,4.1c0,0.8,0.1,1.3,0.2,1.6c0.1,0.3,0.2,0.5,0.2,0.5c-1.1,0-2-0.2-2.5-0.7
			s-0.9-1.2-0.9-2.3c0-1.5,0.5-2.8,1.6-4.1c1.1-1.3,2.5-2.3,4.4-3.1c1.8-0.8,3.8-1.2,5.9-1.2c2.9,0,5.1,0.9,6.5,2.6
			c1.4,1.7,2.1,3.9,2.1,6.6c0,2.4-0.4,4.8-1.2,7.2c-0.8,2.4-1.9,4.3-3.3,5.8c-1.4,1.5-2.8,2.2-4.4,2.2
			C216.5,74.1,215.2,73.5,213.9,72.4z"/>
		<path class="st0" d="M228.1,72.6c-0.9-0.8-1.3-2.1-1.3-3.9c0-1.5,0.3-3.1,0.9-4.9c0.6-1.8,1.5-3.3,2.8-4.6c1.3-1.3,3-1.9,5-1.9
			c2.3,0,3.5,1,3.5,3.1c0,1.2-0.3,2.3-1,3.3c-0.7,1-1.6,1.8-2.7,2.4s-2.3,1-3.6,1c0,0.6-0.1,1.1-0.1,1.3c0,1,0.2,1.8,0.5,2.1
			c0.4,0.4,0.9,0.6,1.8,0.6c1.2,0,2.1-0.3,3-0.8c0.8-0.5,1.7-1.3,2.7-2.4h1.1c-2.4,3.9-5.3,5.9-8.8,5.9
			C230.2,73.8,229,73.4,228.1,72.6z M234.1,64.8c0.7-0.5,1.3-1.2,1.7-2c0.4-0.8,0.7-1.6,0.7-2.5c0-0.9-0.3-1.3-0.8-1.3
			c-0.8,0-1.5,0.7-2.3,2c-0.7,1.3-1.3,2.9-1.6,4.6C232.7,65.6,233.4,65.3,234.1,64.8z"/>
		<path class="st0" d="M248.2,72.8c-0.6-0.7-0.9-1.6-0.9-2.6c0-0.4,0.1-1,0.2-1.5c0.1-0.6,0.2-1.1,0.3-1.6c0.1-0.5,0.2-0.9,0.2-1
			c0.2-0.7,0.3-1.5,0.5-2.2c0.1-0.7,0.2-1.3,0.2-1.8c0-1.1-0.4-1.6-1.2-1.6c-0.6,0-1,0.3-1.5,0.8s-0.8,1.3-1,2.1l-2.2,10.3h-4.6
			l3.4-16h4.6l-0.4,1.7c1.1-1.2,2.3-1.8,3.7-1.8c1.1,0,2,0.3,2.6,0.9c0.6,0.6,1,1.5,1,2.7c0,0.6-0.1,1.3-0.2,2.1
			c-0.1,0.8-0.4,1.7-0.6,2.8c-0.2,0.7-0.3,1.3-0.5,1.9c-0.1,0.6-0.2,1.1-0.2,1.5c0,0.4,0.1,0.8,0.3,1c0.2,0.2,0.5,0.4,1,0.4
			c0.6,0,1.2-0.2,1.5-0.7c0.4-0.5,0.8-1.2,1.2-2.1h1.3c-0.8,2.3-1.7,3.9-2.7,4.7c-1,0.8-2.1,1.2-3.2,1.2
			C249.8,73.8,248.8,73.5,248.2,72.8z"/>
		<path class="st0" d="M256.4,72.9c-0.6-0.6-0.9-1.6-0.9-2.9c0-0.5,0.1-1.2,0.3-2.1l1.9-9h-1.1l0.3-1.3h1.1l1-4.4l4.7-0.6l-1.1,5.1
			h1.9l-0.3,1.3h-1.9l-2,9.6c-0.1,0.3-0.1,0.7-0.1,1c0,0.4,0.1,0.7,0.3,0.9c0.2,0.2,0.5,0.3,1,0.3c0.6,0,1.2-0.3,1.7-0.8
			c0.5-0.5,0.9-1.2,1.2-2h1.3c-0.8,2.3-1.8,3.9-3,4.7c-1.2,0.8-2.5,1.2-3.7,1.2C257.8,73.8,257,73.5,256.4,72.9z"/>
		<path class="st0" d="M266.4,57.6h4.6l-0.4,2c0.7-0.6,1.4-1.1,2-1.5s1.2-0.5,1.9-0.5c0.7,0,1.2,0.2,1.6,0.7c0.4,0.5,0.6,1,0.6,1.7
			c0,0.6-0.2,1.2-0.6,1.6s-1,0.7-1.7,0.7c-0.5,0-0.8-0.1-0.9-0.3s-0.3-0.5-0.4-1c-0.1-0.3-0.1-0.5-0.2-0.6c-0.1-0.1-0.2-0.2-0.4-0.2
			c-0.4,0-0.8,0.1-1.1,0.3c-0.3,0.2-0.7,0.5-1.2,0.9l-2.6,12.2H263L266.4,57.6z"/>
		<path class="st0" d="M277.2,72.6c-0.9-0.8-1.4-2.1-1.4-3.8c0-1.5,0.3-3.1,0.9-4.8c0.6-1.8,1.5-3.3,2.8-4.6c1.3-1.3,3-1.9,5-1.9
			c2.5,0,3.9,1.4,4.1,4.3c0.5-0.1,0.9-0.4,1.2-0.8c0.4-0.4,0.7-0.9,1-1.4h1c-0.6,1.2-1.1,2.1-1.5,2.7c-0.4,0.7-1,1.2-1.8,1.6
			c-0.1,2-0.5,3.8-1.2,5.3c-0.7,1.5-1.6,2.7-2.7,3.5c-1.1,0.8-2.3,1.2-3.7,1.2C279.3,73.8,278.1,73.4,277.2,72.6z M284.4,69
			c0.7-1.3,1.2-2.9,1.4-4.7c-0.5-0.2-0.8-0.7-0.8-1.4c0-0.8,0.3-1.4,0.9-1.7c0-0.7-0.2-1.2-0.3-1.4c-0.2-0.3-0.5-0.4-0.9-0.4
			c-0.7,0-1.4,0.5-2,1.5s-1.2,2.2-1.6,3.7c-0.4,1.4-0.6,2.7-0.6,3.8c0,1,0.1,1.7,0.4,2.1c0.2,0.4,0.7,0.5,1.3,0.5
			C283,70.9,283.7,70.2,284.4,69z"/>
	</g>
	<g>
		<path class="st0" d="M38,99.1c-0.8-0.8-1.2-2.1-1.2-3.9c0-1.6,0.3-3.2,0.9-5c0.6-1.7,1.6-3.2,2.8-4.4c1.2-1.2,2.7-1.8,4.5-1.8
			c0.9,0,1.5,0.1,2,0.4s0.6,0.7,0.6,1.2v0.1l1.6-7.4l4.7-0.6l-3.7,17.3c-0.1,0.3-0.1,0.7-0.1,1c0,0.4,0.1,0.7,0.3,0.9
			c0.2,0.2,0.5,0.3,1,0.3c0.6,0,1.1-0.3,1.6-0.8c0.4-0.5,0.8-1.2,1-2h1.3c-1.3,3.8-3.4,5.7-6.4,5.7c-0.9,0-1.6-0.2-2.1-0.7
			c-0.5-0.5-0.9-1.2-1-2c-0.6,0.9-1.2,1.6-2,2.1c-0.8,0.6-1.7,0.8-2.7,0.8C39.8,100.4,38.8,100,38,99.1z M44.7,96.6
			c0.5-0.5,0.9-1.1,1.1-2v-0.2l1.6-7.3C47.1,86.4,46.7,86,46,86c-0.9,0-1.6,0.5-2.3,1.5c-0.7,1-1.2,2.2-1.6,3.6
			c-0.4,1.4-0.6,2.6-0.6,3.7c0,1.1,0.2,1.7,0.5,2c0.3,0.3,0.7,0.4,1.1,0.4C43.6,97.3,44.1,97,44.7,96.6z"/>
		<path class="st0" d="M54.9,99.1c-0.9-0.8-1.3-2.1-1.3-3.9c0-1.5,0.3-3.1,0.9-4.9c0.6-1.8,1.5-3.3,2.8-4.6c1.3-1.3,3-1.9,5-1.9
			c2.3,0,3.5,1,3.5,3.1c0,1.2-0.3,2.3-1,3.3c-0.7,1-1.6,1.8-2.7,2.4c-1.1,0.6-2.3,1-3.6,1c0,0.6-0.1,1.1-0.1,1.3
			c0,1,0.2,1.8,0.5,2.1c0.4,0.4,0.9,0.6,1.8,0.6c1.2,0,2.1-0.3,3-0.8c0.8-0.5,1.7-1.3,2.7-2.4h1.1c-2.4,3.9-5.3,5.9-8.8,5.9
			C57,100.4,55.8,100,54.9,99.1z M60.9,91.4c0.7-0.5,1.3-1.2,1.7-2c0.4-0.8,0.7-1.6,0.7-2.5c0-0.9-0.3-1.3-0.8-1.3
			c-0.8,0-1.5,0.7-2.3,2c-0.7,1.3-1.3,2.9-1.6,4.6C59.4,92.1,60.2,91.9,60.9,91.4z"/>
		<path class="st0" d="M66.9,99.4c-0.6-0.7-0.9-1.6-0.9-2.9c0-0.5,0.1-1.2,0.3-2.1l3.4-16l4.7-0.6L70.7,95c-0.1,0.3-0.1,0.6-0.1,0.9
			c0,0.9,0.4,1.3,1.3,1.3c0.4,0,0.7-0.1,1-0.2c-0.1,1.1-0.5,1.9-1.1,2.5c-0.7,0.6-1.5,0.9-2.4,0.9C68.4,100.4,67.5,100.1,66.9,99.4z
			"/>
		<path class="st0" d="M87.7,78.4c-1.4,0.6-2.5,1.5-3.3,2.7s-1.2,2.6-1.2,4.3c0,0.8,0.1,1.3,0.2,1.6c0.1,0.3,0.2,0.5,0.2,0.5
			c-1.2,0-2-0.2-2.6-0.7c-0.6-0.5-0.8-1.3-0.8-2.4c0-1.4,0.6-2.7,1.7-4c1.1-1.3,2.6-2.3,4.3-3.1c1.7-0.8,3.5-1.2,5.2-1.2
			c0.3,0,0.7,0,1.3,0.1l-2,9.5h4.7l2-9.5h4.6L97,100.2h-4.6l2.6-12h-4.7l-2.6,12H83L87.7,78.4z"/>
		<path class="st0" d="M102,99.1c-0.9-0.8-1.4-2.1-1.4-3.8c0-1.5,0.3-3.1,0.9-4.8c0.6-1.8,1.6-3.3,2.9-4.6c1.3-1.3,3-1.9,5-1.9
			c2.7,0,4.1,1.7,4.1,5.1v0c0.1,0,0.2,0,0.4,0c0.7,0,1.5-0.2,2.4-0.6c0.9-0.4,1.7-0.8,2.5-1.4l0.3,0.9c-0.6,0.7-1.4,1.2-2.4,1.7
			c-1,0.5-2.1,0.8-3.2,1c-0.2,1.9-0.6,3.6-1.3,5.1c-0.7,1.5-1.6,2.6-2.7,3.4c-1.1,0.8-2.3,1.2-3.6,1.2
			C104.2,100.3,103,99.9,102,99.1z M108.6,96.6c0.5-0.6,1-1.4,1.3-2.4c0.4-1,0.7-2.1,0.8-3.4c-0.6-0.1-0.9-0.6-0.9-1.3
			c0-0.9,0.3-1.5,1-1.7c0-0.7-0.1-1.2-0.3-1.5c-0.2-0.3-0.5-0.4-0.9-0.4c-0.7,0-1.4,0.5-2,1.5c-0.7,1-1.2,2.3-1.6,3.7
			c-0.4,1.4-0.6,2.7-0.6,3.8c0,1,0.1,1.7,0.4,2.1c0.2,0.4,0.7,0.5,1.3,0.5C107.6,97.4,108.1,97.1,108.6,96.6z"/>
		<path class="st0" d="M118.3,107.4c-0.7-0.5-1-1.3-1-2.3c0-1.2,0.5-2.2,1.5-2.9c1-0.7,2.2-1.3,3.7-1.8l0.4-1.7
			c-1.1,1.2-2.4,1.8-3.8,1.8c-1.2,0-2.2-0.4-3-1.2s-1.2-2.1-1.2-3.9c0-1.6,0.3-3.2,0.9-5c0.6-1.7,1.6-3.2,2.8-4.4
			c1.2-1.2,2.7-1.8,4.5-1.8c0.9,0,1.5,0.1,2,0.4s0.6,0.7,0.6,1.2v0.2l0.4-1.7h4.6L127.4,99c1-0.3,1.8-0.9,2.5-1.5
			c0.6-0.7,1.1-1.7,1.6-3h1.3c-0.6,1.9-1.4,3.3-2.3,4.2c-1,0.9-2.1,1.5-3.3,1.8l-0.5,2.3c-0.4,2.1-1.2,3.5-2.2,4.3
			c-1,0.8-2.2,1.2-3.6,1.2C119.8,108.2,119,107.9,118.3,107.4z M121.1,105c0.3-0.5,0.6-1.2,0.8-2.1l0.2-0.9
			c-2.1,0.8-3.1,1.7-3.1,2.7c0,0.3,0.1,0.5,0.3,0.7c0.2,0.2,0.5,0.3,0.8,0.3C120.5,105.7,120.8,105.4,121.1,105z M122.6,96.6
			c0.5-0.4,0.9-1.1,1.1-1.8l1.6-7.6c0-0.3-0.1-0.5-0.3-0.8c-0.2-0.3-0.5-0.4-1-0.4c-0.9,0-1.6,0.5-2.3,1.5c-0.7,1-1.2,2.2-1.6,3.6
			c-0.4,1.4-0.6,2.6-0.6,3.7c0,1.1,0.2,1.7,0.5,2c0.3,0.3,0.7,0.4,1.1,0.4C121.6,97.3,122.1,97.1,122.6,96.6z"/>
		<path class="st0" d="M132.2,99.1c-0.8-0.8-1.2-2.1-1.2-3.9c0-1.6,0.3-3.2,0.9-5c0.6-1.7,1.6-3.2,2.8-4.4c1.2-1.2,2.7-1.8,4.5-1.8
			c0.9,0,1.5,0.1,2,0.4c0.4,0.3,0.6,0.7,0.6,1.2v0.2l0.4-1.7h4.6l-2.3,10.9c-0.1,0.3-0.1,0.7-0.1,1c0,0.9,0.4,1.4,1.3,1.4
			c0.6,0,1.1-0.3,1.6-0.8c0.4-0.6,0.8-1.3,1-2.2h1.3c-0.8,2.3-1.8,3.9-2.9,4.7c-1.2,0.8-2.3,1.2-3.5,1.2c-0.9,0-1.6-0.3-2.2-0.8
			c-0.5-0.5-0.9-1.2-1-2.2c-0.6,0.9-1.3,1.6-2.1,2.1c-0.8,0.5-1.7,0.8-2.7,0.8C134,100.4,133,100,132.2,99.1z M138.9,96.5
			c0.5-0.5,0.9-1.2,1.1-2.1l1.5-7.2c0-0.3-0.1-0.5-0.3-0.8c-0.2-0.3-0.5-0.4-1-0.4c-0.9,0-1.6,0.5-2.3,1.5c-0.7,1-1.2,2.2-1.6,3.6
			c-0.4,1.4-0.6,2.6-0.6,3.7c0,1.1,0.2,1.7,0.5,2c0.3,0.3,0.7,0.4,1.1,0.4C137.8,97.3,138.4,97,138.9,96.5z"/>
		<path class="st0" d="M150.4,84.2h4.6l-0.4,2c0.7-0.6,1.4-1.1,2-1.5s1.2-0.5,1.9-0.5c0.7,0,1.2,0.2,1.6,0.7c0.4,0.5,0.6,1,0.6,1.7
			c0,0.6-0.2,1.2-0.6,1.6s-1,0.7-1.7,0.7c-0.5,0-0.8-0.1-0.9-0.3s-0.3-0.5-0.4-1c-0.1-0.3-0.1-0.5-0.2-0.6c-0.1-0.1-0.2-0.2-0.4-0.2
			c-0.4,0-0.8,0.1-1.1,0.3c-0.3,0.2-0.7,0.5-1.2,0.9l-2.6,12.2H147L150.4,84.2z"/>
		<path class="st0" d="M168,99.1c-0.8-0.8-1.2-2.1-1.2-3.9c0-1.6,0.3-3.2,0.9-5c0.6-1.7,1.6-3.2,2.8-4.4c1.2-1.2,2.7-1.8,4.5-1.8
			c0.9,0,1.5,0.1,2,0.4s0.6,0.7,0.6,1.2v0.1l1.6-7.4l4.7-0.6l-3.7,17.3c-0.1,0.3-0.1,0.7-0.1,1c0,0.4,0.1,0.7,0.3,0.9
			c0.2,0.2,0.5,0.3,1,0.3c0.6,0,1.1-0.3,1.6-0.8c0.4-0.5,0.8-1.2,1-2h1.3c-1.3,3.8-3.4,5.7-6.4,5.7c-0.9,0-1.6-0.2-2.1-0.7
			c-0.5-0.5-0.9-1.2-1-2c-0.6,0.9-1.2,1.6-2,2.1c-0.8,0.6-1.7,0.8-2.7,0.8C169.8,100.4,168.8,100,168,99.1z M174.7,96.6
			c0.5-0.5,0.9-1.1,1.1-2v-0.2l1.6-7.3c-0.2-0.7-0.6-1.1-1.3-1.1c-0.9,0-1.6,0.5-2.3,1.5s-1.2,2.2-1.6,3.6c-0.4,1.4-0.6,2.6-0.6,3.7
			c0,1.1,0.2,1.7,0.5,2c0.3,0.3,0.7,0.4,1.1,0.4C173.6,97.3,174.1,97,174.7,96.6z"/>
		<path class="st0" d="M184.9,99.1c-0.9-0.8-1.3-2.1-1.3-3.9c0-1.5,0.3-3.1,0.9-4.9c0.6-1.8,1.5-3.3,2.8-4.6c1.3-1.3,3-1.9,5-1.9
			c2.3,0,3.5,1,3.5,3.1c0,1.2-0.3,2.3-1,3.3c-0.7,1-1.6,1.8-2.7,2.4s-2.3,1-3.6,1c0,0.5-0.1,0.8-0.1,1c0,1.8,0.7,2.7,2,2.7
			c0.6,0,1.2-0.2,1.9-0.5c0.7-0.3,1.3-0.7,1.9-1.2c-0.6,3.2-2.4,4.7-5.5,4.7C186.9,100.4,185.7,100,184.9,99.1z M190.9,91.4
			c0.7-0.5,1.3-1.2,1.7-2c0.4-0.8,0.7-1.6,0.7-2.5c0-0.9-0.3-1.3-0.8-1.3c-0.7,0-1.5,0.7-2.2,2c-0.7,1.4-1.3,2.9-1.6,4.6
			C189.4,92.2,190.1,91.9,190.9,91.4z"/>
		<path class="st0" d="M204.4,99.2c-1-1.1-1.5-2.4-1.5-4c0-1.2,0.2-2.3,0.7-3.5c0.5-1.2,1.2-2.2,2.1-3.1c0.9-0.9,1.9-1.5,3.1-1.8
			c-0.7-0.5-1.2-1-1.5-1.7c-0.3-0.7-0.5-1.4-0.5-2.1c0-1.1,0.3-2.2,0.9-3.3c0.6-1.1,1.5-1.9,2.5-2.6c1.1-0.7,2.3-1,3.6-1
			c1.3,0,2.4,0.4,3.3,1.1c0.9,0.7,1.3,1.7,1.3,2.9c0,0.9-0.2,1.7-0.7,2.4c-0.5,0.6-1,1-1.7,1c-0.6,0-1.1-0.3-1.5-0.9
			c0.4-0.1,0.7-0.5,1-1.1c0.3-0.6,0.4-1.2,0.4-1.7c0-0.6-0.2-1.1-0.5-1.4s-0.8-0.4-1.2-0.4c-0.6,0-1.2,0.2-1.7,0.7
			c-0.5,0.4-0.9,1-1.2,1.7c-0.3,0.7-0.4,1.4-0.4,2.2c0,1,0.3,1.9,0.8,2.7c0.5,0.8,1.3,1.3,2.4,1.6c-1.1,0.2-2.1,0.8-2.9,1.6
			c-0.9,0.8-1.6,1.8-2,2.9c-0.5,1.1-0.7,2.1-0.7,3.2c0,1,0.3,1.7,0.8,2.3c0.5,0.6,1.3,0.9,2.3,0.9c1.1,0,2.2-0.3,3.3-0.9
			c1.2-0.6,2-1.4,2.6-2.4l0.7,0.3c-0.8,1.8-2.1,3.3-3.8,4.4c-1.7,1.1-3.6,1.6-5.5,1.6C206.8,100.8,205.4,100.2,204.4,99.2z"/>
		<path class="st0" d="M219,99.2c-1-1.1-1.5-2.4-1.5-4c0-1.2,0.2-2.3,0.7-3.5c0.5-1.2,1.2-2.2,2.1-3.1c0.9-0.9,1.9-1.5,3.1-1.8
			c-0.7-0.5-1.2-1-1.5-1.7c-0.3-0.7-0.5-1.4-0.5-2.1c0-1.1,0.3-2.2,0.9-3.3c0.6-1.1,1.5-1.9,2.5-2.6c1.1-0.7,2.3-1,3.6-1
			c1.3,0,2.4,0.4,3.3,1.1c0.9,0.7,1.3,1.7,1.3,2.9c0,0.9-0.2,1.7-0.7,2.4c-0.5,0.6-1,1-1.7,1c-0.6,0-1.1-0.3-1.5-0.9
			c0.4-0.1,0.7-0.5,1-1.1c0.3-0.6,0.4-1.2,0.4-1.7c0-0.6-0.2-1.1-0.5-1.4s-0.8-0.4-1.2-0.4c-0.6,0-1.2,0.2-1.7,0.7
			c-0.5,0.4-0.9,1-1.2,1.7c-0.3,0.7-0.4,1.4-0.4,2.2c0,1,0.3,1.9,0.8,2.7c0.5,0.8,1.3,1.3,2.4,1.6c-1.1,0.2-2.1,0.8-2.9,1.6
			c-0.9,0.8-1.6,1.8-2,2.9c-0.5,1.1-0.7,2.1-0.7,3.2c0,1,0.3,1.7,0.8,2.3c0.5,0.6,1.3,0.9,2.3,0.9c1.1,0,2.2-0.3,3.3-0.9
			c1.2-0.6,2-1.4,2.6-2.4l0.7,0.3c-0.8,1.8-2.1,3.3-3.8,4.4c-1.7,1.1-3.6,1.6-5.5,1.6C221.5,100.8,220,100.2,219,99.2z"/>
		<path class="st0" d="M233.8,99.6c-0.5-0.5-0.7-1.1-0.7-1.8s0.2-1.3,0.7-1.8c0.5-0.5,1.1-0.8,1.8-0.8c0.7,0,1.3,0.3,1.8,0.8
			c0.5,0.5,0.8,1.1,0.8,1.8s-0.3,1.3-0.8,1.8c-0.5,0.5-1.1,0.7-1.8,0.7C234.8,100.3,234.2,100.1,233.8,99.6z"/>
		<path class="st0" d="M247,98.9c-1.1-1-1.6-2.6-1.6-4.6c0-1,0.1-2.1,0.4-3.4l3.3-13c-1.8,0.5-3.3,1.4-4.3,2.6
			c-1,1.2-1.5,2.6-1.5,4.1c0,1,0.3,2.1,0.8,3c-1.2,0-2.2-0.3-2.8-0.9c-0.7-0.6-1-1.4-1-2.5c0-1.4,0.6-2.7,1.7-4
			c1.1-1.3,2.6-2.3,4.5-3.1c1.9-0.8,3.8-1.2,5.9-1.2c0.7,0,1.3,0.1,1.8,0.2L250.2,91c-0.4,1.3-0.5,2.5-0.5,3.5c0,2,0.8,3,2.5,3
			c2.4,0,4-2.2,5-6.6l3.2-14.8h4.5l-3.1,14.8c-0.7,3.1-1.9,5.5-3.5,7.1c-1.7,1.6-3.8,2.4-6.4,2.4C249.7,100.4,248.1,99.9,247,98.9z"
			/>
		<path class="st0" d="M269.9,98.9c-1.1-1-1.6-2.6-1.6-4.6c0-1,0.1-2.1,0.4-3.4l3.3-13c-1.8,0.5-3.3,1.4-4.3,2.6
			c-1,1.2-1.5,2.6-1.5,4.1c0,1,0.3,2.1,0.8,3c-1.2,0-2.2-0.3-2.8-0.9c-0.7-0.6-1-1.4-1-2.5c0-1.4,0.6-2.7,1.7-4
			c1.1-1.3,2.6-2.3,4.5-3.1c1.9-0.8,3.8-1.2,5.9-1.2c0.7,0,1.3,0.1,1.8,0.2L273.1,91c-0.4,1.3-0.5,2.5-0.5,3.5c0,2,0.8,3,2.5,3
			c2.4,0,4-2.2,5-6.6l3.2-14.8h4.5l-3.1,14.8c-0.7,3.1-1.9,5.5-3.5,7.1c-1.7,1.6-3.8,2.4-6.4,2.4C272.6,100.4,271,99.9,269.9,98.9z"
			/>
		<path class="st0" d="M288,99.6c-0.5-0.5-0.7-1.1-0.7-1.8s0.2-1.3,0.7-1.8c0.5-0.5,1.1-0.8,1.8-0.8c0.7,0,1.3,0.3,1.8,0.8
			c0.5,0.5,0.8,1.1,0.8,1.8s-0.3,1.3-0.8,1.8c-0.5,0.5-1.1,0.7-1.8,0.7C289.1,100.3,288.5,100.1,288,99.6z"/>
	</g>
	<g>
		<path class="st6" d="M46.8,67.3c-1.1-1-1.6-2.6-1.6-4.6c0-1,0.1-2.1,0.4-3.4l3.3-13c-1.8,0.5-3.3,1.4-4.3,2.6
			c-1,1.2-1.5,2.6-1.5,4.1c0,1,0.3,2.1,0.8,3c-1.2,0-2.2-0.3-2.8-0.9c-0.7-0.6-1-1.4-1-2.5c0-1.4,0.6-2.7,1.7-4
			c1.1-1.3,2.6-2.3,4.5-3.1s3.8-1.2,5.9-1.2c0.7,0,1.3,0.1,1.8,0.2L50,59.5c-0.4,1.3-0.5,2.5-0.5,3.5c0,2,0.8,3,2.5,3
			c2.4,0,4-2.2,5-6.6l3.2-14.8h4.5l-3.1,14.8c-0.7,3.1-1.9,5.5-3.5,7.1c-1.7,1.6-3.8,2.4-6.4,2.4C49.5,68.9,47.9,68.3,46.8,67.3z"/>
		<path class="st6" d="M64.2,68.2c-0.7-0.4-1.2-0.9-1.6-1.5c-0.3-0.6-0.5-1.3-0.5-2c0-0.7,0.2-1.3,0.5-1.8c0.3-0.5,0.7-0.9,1.2-1.1
			c0.8-1.5,1.6-3,2.2-4.5c0.6-1.5,1.2-3.2,1.8-4.9l4.7-0.6c0.1,2.7,0.3,5.7,0.5,8.9c0.1,1.3,0.2,2.2,0.2,2.8c0,0.5,0,0.9-0.1,1.2
			c1-0.6,1.8-1.1,2.3-1.6h1.3c-1.4,1.6-3,2.9-4.9,4c-0.6,0.7-1.4,1.1-2.3,1.5s-1.8,0.5-2.7,0.5C65.8,68.8,64.9,68.6,64.2,68.2z
			 M67.8,65.6c0.5-0.5,0.8-1.2,0.8-2.3c0-0.6-0.1-1.5-0.2-2.7c-0.2-2.4-0.4-4.1-0.4-4.9c-0.5,1.7-1.4,3.7-2.6,6
			c0.5,0.3,0.7,0.6,0.7,1.1c0,0.4-0.1,0.8-0.4,1.1c-0.3,0.3-0.6,0.5-1,0.5c-0.4,0-0.7-0.1-0.9-0.4c0,0.8,0.2,1.3,0.5,1.7
			c0.3,0.4,0.8,0.5,1.5,0.5C66.6,66.3,67.2,66.1,67.8,65.6z"/>
		<path class="st6" d="M76.3,67.6c-0.9-0.8-1.4-2.1-1.4-3.8c0-1.5,0.3-3.1,0.9-4.8c0.6-1.8,1.5-3.3,2.8-4.6c1.3-1.3,3-1.9,5-1.9
			c2.5,0,3.9,1.4,4.1,4.3c0.5-0.1,0.9-0.4,1.2-0.8c0.4-0.4,0.7-0.9,1-1.4h1c-0.6,1.2-1.1,2.1-1.5,2.7c-0.4,0.7-1,1.2-1.8,1.6
			c-0.1,2-0.5,3.8-1.2,5.3c-0.7,1.5-1.6,2.7-2.7,3.5c-1.1,0.8-2.3,1.2-3.7,1.2C78.5,68.8,77.2,68.4,76.3,67.6z M83.5,64
			c0.7-1.3,1.2-2.9,1.4-4.7c-0.5-0.2-0.8-0.7-0.8-1.4c0-0.8,0.3-1.4,0.9-1.7c0-0.7-0.2-1.2-0.3-1.4c-0.2-0.3-0.5-0.4-0.9-0.4
			c-0.7,0-1.4,0.5-2,1.5c-0.6,1-1.2,2.2-1.6,3.7c-0.4,1.4-0.6,2.7-0.6,3.8c0,1,0.1,1.7,0.4,2.1c0.2,0.4,0.7,0.5,1.3,0.5
			C82.1,65.9,82.9,65.2,83.5,64z"/>
		<path class="st6" d="M98.7,67.6c-0.8-0.8-1.2-2.1-1.2-3.9c0-1.6,0.3-3.2,0.9-5c0.6-1.7,1.6-3.2,2.8-4.4c1.2-1.2,2.7-1.8,4.5-1.8
			c0.9,0,1.5,0.1,2,0.4s0.6,0.7,0.6,1.2v0.1l1.6-7.4l4.7-0.6l-3.7,17.3c-0.1,0.3-0.1,0.7-0.1,1c0,0.4,0.1,0.7,0.3,0.9
			c0.2,0.2,0.5,0.3,1,0.3c0.6,0,1.1-0.3,1.6-0.8c0.4-0.5,0.8-1.2,1-2h1.3c-1.3,3.8-3.4,5.7-6.4,5.7c-0.9,0-1.6-0.2-2.1-0.7
			c-0.5-0.5-0.9-1.2-1-2c-0.6,0.9-1.2,1.6-2,2.1c-0.8,0.6-1.7,0.8-2.7,0.8C100.5,68.8,99.5,68.4,98.7,67.6z M105.4,65
			c0.5-0.5,0.9-1.1,1.1-2v-0.2l1.6-7.3c-0.2-0.7-0.6-1.1-1.3-1.1c-0.9,0-1.6,0.5-2.3,1.5c-0.7,1-1.2,2.2-1.6,3.6
			c-0.4,1.4-0.6,2.6-0.6,3.7c0,1.1,0.2,1.7,0.5,2c0.3,0.3,0.7,0.4,1.1,0.4C104.3,65.7,104.9,65.5,105.4,65z"/>
		<path class="st6" d="M115.6,67.6c-0.9-0.8-1.3-2.1-1.3-3.9c0-1.5,0.3-3.1,0.9-4.9c0.6-1.8,1.5-3.3,2.8-4.6c1.3-1.3,3-1.9,5-1.9
			c2.3,0,3.5,1,3.5,3.1c0,1.2-0.3,2.3-1,3.3c-0.7,1-1.6,1.8-2.7,2.4s-2.3,1-3.6,1c0,0.5-0.1,0.8-0.1,1c0,1.8,0.7,2.7,2,2.7
			c0.6,0,1.2-0.2,1.9-0.5c0.7-0.3,1.3-0.7,1.9-1.2c-0.6,3.2-2.4,4.7-5.5,4.7C117.7,68.8,116.4,68.4,115.6,67.6z M121.6,59.8
			c0.7-0.5,1.3-1.2,1.7-2c0.4-0.8,0.7-1.6,0.7-2.5c0-0.9-0.3-1.3-0.8-1.3c-0.7,0-1.5,0.7-2.2,2c-0.7,1.4-1.3,2.9-1.6,4.6
			C120.1,60.6,120.9,60.4,121.6,59.8z"/>
		<path class="st6" d="M138.3,72.1c-0.6-0.1-1.1-0.4-1.6-0.9c-0.4-0.5-0.7-1.2-0.7-2.3c0-1.4,0.4-3.3,1.3-5.8c0.9-2.4,2-4.8,3.4-7.3
			c-1.1,0.1-1.9,0.2-2.5,0.5s-1,0.7-1.2,1.2c0.1,0,0.2,0.1,0.3,0.3c0.1,0.2,0.1,0.4,0.1,0.7c0,0.4-0.2,0.7-0.5,0.9
			c-0.3,0.2-0.8,0.3-1.3,0.3c-0.6,0-1.1-0.2-1.4-0.5c-0.4-0.3-0.5-0.8-0.5-1.4c0-0.7,0.3-1.4,0.8-2c0.6-0.6,1.3-1.1,2.4-1.4
			s2.1-0.5,3.3-0.5c0.4,0,1,0,1.7,0.1c1.7-2.8,3.6-5,5.6-6.8c2-1.8,3.8-2.6,5.6-2.6c1,0,1.9,0.1,2.5,0.4l-5,23.6h-4.6l2.5-11.6
			c-0.8-0.4-1.5-0.6-2.2-0.8c-0.7-0.2-1.4-0.3-2.1-0.4c-1.2,2.6-2.2,5.3-3,8c-0.8,2.7-1.2,4.9-1.2,6.6c0,0.8,0.1,1.4,0.4,1.8
			C139.5,72.3,138.9,72.2,138.3,72.1z M150.5,46.9c-0.9,0.5-1.9,1.4-2.9,2.7c-1,1.3-2,2.9-2.9,4.8c1.5,0.3,2.8,0.7,3.9,1.1
			L150.5,46.9z"/>
		<path class="st6" d="M157.8,75.8c-0.7-0.5-1-1.3-1-2.3c0-1.2,0.5-2.2,1.5-2.9c1-0.7,2.2-1.3,3.7-1.8l0.4-1.7
			c-1.1,1.2-2.4,1.8-3.8,1.8c-1.2,0-2.2-0.4-3-1.2s-1.2-2.1-1.2-3.9c0-1.6,0.3-3.2,0.9-5c0.6-1.7,1.6-3.2,2.8-4.4
			c1.2-1.2,2.7-1.8,4.5-1.8c0.9,0,1.5,0.1,2,0.4s0.6,0.7,0.6,1.2v0.2l0.4-1.7h4.6l-3.2,14.8c1-0.3,1.8-0.9,2.5-1.5
			c0.6-0.7,1.1-1.7,1.6-3h1.3c-0.6,1.9-1.4,3.3-2.3,4.2c-1,0.9-2.1,1.5-3.3,1.8l-0.5,2.3c-0.4,2.1-1.2,3.5-2.2,4.3
			c-1,0.8-2.2,1.2-3.6,1.2C159.4,76.6,158.5,76.4,157.8,75.8z M160.7,73.4c0.3-0.5,0.6-1.2,0.8-2.1l0.2-0.9
			c-2.1,0.8-3.1,1.7-3.1,2.7c0,0.3,0.1,0.5,0.3,0.7c0.2,0.2,0.5,0.3,0.8,0.3C160,74.1,160.4,73.9,160.7,73.4z M162.2,65.1
			c0.5-0.4,0.9-1.1,1.1-1.8l1.6-7.6c0-0.3-0.1-0.5-0.3-0.8c-0.2-0.3-0.5-0.4-1-0.4c-0.9,0-1.6,0.5-2.3,1.5c-0.7,1-1.2,2.2-1.6,3.6
			c-0.4,1.4-0.6,2.6-0.6,3.7c0,1.1,0.2,1.7,0.5,2c0.3,0.3,0.7,0.4,1.1,0.4C161.1,65.7,161.6,65.5,162.2,65.1z"/>
		<path class="st6" d="M171.6,67.9c-0.6-0.6-0.9-1.6-0.9-2.9c0-0.5,0.1-1.2,0.3-2.1l2.2-10.3h4.6l-2.3,10.9
			c-0.1,0.3-0.1,0.6-0.1,0.9c0,0.9,0.3,1.3,1,1.3c0.6,0,1.1-0.3,1.5-0.8c0.4-0.5,0.8-1.2,1-2.1l2.2-10.3h4.6l-2.3,10.9
			c-0.1,0.3-0.1,0.7-0.1,1c0,0.4,0.1,0.7,0.3,0.9c0.2,0.2,0.5,0.3,1,0.3c0.6,0,1.1-0.3,1.6-0.8c0.4-0.5,0.8-1.2,1-2h1.3
			c-0.8,2.3-1.8,3.9-2.9,4.7c-1.2,0.8-2.3,1.2-3.5,1.2c-0.9,0-1.6-0.3-2.2-0.8c-0.5-0.5-0.9-1.3-1-2.3c-0.7,1.2-1.5,2-2.3,2.4
			c-0.8,0.4-1.6,0.6-2.4,0.6C173.1,68.8,172.3,68.5,171.6,67.9z"/>
		<path class="st6" d="M187.9,67.6c-0.8-0.8-1.2-2.1-1.2-3.9c0-1.6,0.3-3.2,0.9-5c0.6-1.7,1.6-3.2,2.8-4.4c1.2-1.2,2.7-1.8,4.5-1.8
			c0.9,0,1.5,0.1,2,0.4s0.6,0.7,0.6,1.2v0.2l0.4-1.7h4.6l-2.3,10.9c-0.1,0.3-0.1,0.7-0.1,1c0,0.4,0.1,0.7,0.3,0.9
			c0.2,0.2,0.5,0.3,1,0.3c0.3,0,0.5,0,0.7-0.1c-0.5,1.2-0.9,2-1.3,2.5c-0.4,0.5-1,0.7-1.9,0.7c-0.9,0-1.6-0.3-2.1-0.8
			c-0.5-0.5-0.9-1.3-1-2.2c-1.3,2-2.9,3-4.8,3C189.7,68.8,188.7,68.4,187.9,67.6z M194.6,65c0.5-0.5,0.9-1.2,1.1-2.1l1.5-7.2
			c0-0.3-0.1-0.5-0.3-0.8c-0.2-0.3-0.5-0.4-1-0.4c-0.9,0-1.6,0.5-2.3,1.5c-0.7,1-1.2,2.2-1.6,3.6c-0.4,1.4-0.6,2.6-0.6,3.7
			c0,1.1,0.2,1.7,0.5,2c0.3,0.3,0.7,0.4,1.1,0.4C193.6,65.7,194.1,65.5,194.6,65z"/>
		<path class="st6" d="M216.9,67.4l-0.3,1.3H212l4.4-20.4l4.7-0.6l-3.8,18c0.6,0.4,1.2,0.6,1.8,0.6c1.2,0,2.3-0.7,3.2-2.1
			c0.9-1.4,1.6-3.2,2.2-5.4c0.5-2.2,0.8-4.4,0.8-6.6c0-2.1-0.4-3.6-1.2-4.6c-0.8-1-2-1.5-3.4-1.5c-1.6,0-3,0.3-4.3,0.9
			c-1.3,0.6-2.3,1.5-3,2.7c-0.7,1.2-1.1,2.5-1.1,4.1c0,0.8,0.1,1.3,0.2,1.6c0.1,0.3,0.2,0.5,0.2,0.5c-1.1,0-2-0.2-2.5-0.7
			s-0.9-1.2-0.9-2.3c0-1.5,0.5-2.8,1.6-4.1c1.1-1.3,2.5-2.3,4.4-3.1c1.8-0.8,3.8-1.2,5.9-1.2c2.9,0,5.1,0.9,6.5,2.6
			c1.4,1.7,2.1,3.9,2.1,6.6c0,2.4-0.4,4.8-1.2,7.2c-0.8,2.4-1.9,4.3-3.3,5.8c-1.4,1.5-2.8,2.2-4.4,2.2
			C219.5,69.1,218.2,68.5,216.9,67.4z"/>
		<path class="st6" d="M231.1,67.6c-0.9-0.8-1.3-2.1-1.3-3.9c0-1.5,0.3-3.1,0.9-4.9c0.6-1.8,1.5-3.3,2.8-4.6c1.3-1.3,3-1.9,5-1.9
			c2.3,0,3.5,1,3.5,3.1c0,1.2-0.3,2.3-1,3.3c-0.7,1-1.6,1.8-2.7,2.4s-2.3,1-3.6,1c0,0.6-0.1,1.1-0.1,1.3c0,1,0.2,1.8,0.5,2.1
			c0.4,0.4,0.9,0.6,1.8,0.6c1.2,0,2.1-0.3,3-0.8c0.8-0.5,1.7-1.3,2.7-2.4h1.1c-2.4,3.9-5.3,5.9-8.8,5.9
			C233.2,68.8,232,68.4,231.1,67.6z M237.1,59.8c0.7-0.5,1.3-1.2,1.7-2c0.4-0.8,0.7-1.6,0.7-2.5c0-0.9-0.3-1.3-0.8-1.3
			c-0.8,0-1.5,0.7-2.3,2c-0.7,1.3-1.3,2.9-1.6,4.6C235.7,60.6,236.4,60.3,237.1,59.8z"/>
		<path class="st6" d="M251.2,67.8c-0.6-0.7-0.9-1.6-0.9-2.6c0-0.4,0.1-1,0.2-1.5c0.1-0.6,0.2-1.1,0.3-1.6c0.1-0.5,0.2-0.9,0.2-1
			c0.2-0.7,0.3-1.5,0.5-2.2c0.1-0.7,0.2-1.3,0.2-1.8c0-1.1-0.4-1.6-1.2-1.6c-0.6,0-1,0.3-1.5,0.8s-0.8,1.3-1,2.1l-2.2,10.3h-4.6
			l3.4-16h4.6l-0.4,1.7c1.1-1.2,2.3-1.8,3.7-1.8c1.1,0,2,0.3,2.6,0.9c0.6,0.6,1,1.5,1,2.7c0,0.6-0.1,1.3-0.2,2.1
			c-0.1,0.8-0.4,1.7-0.6,2.8c-0.2,0.7-0.3,1.3-0.5,1.9c-0.1,0.6-0.2,1.1-0.2,1.5c0,0.4,0.1,0.8,0.3,1c0.2,0.2,0.5,0.4,1,0.4
			c0.6,0,1.2-0.2,1.5-0.7c0.4-0.5,0.8-1.2,1.2-2.1h1.3c-0.8,2.3-1.7,3.9-2.7,4.7c-1,0.8-2.1,1.2-3.2,1.2
			C252.8,68.8,251.8,68.5,251.2,67.8z"/>
		<path class="st6" d="M259.4,67.9c-0.6-0.6-0.9-1.6-0.9-2.9c0-0.5,0.1-1.2,0.3-2.1l1.9-9h-1.1l0.3-1.3h1.1l1-4.4l4.7-0.6l-1.1,5.1
			h1.9l-0.3,1.3h-1.9l-2,9.6c-0.1,0.3-0.1,0.7-0.1,1c0,0.4,0.1,0.7,0.3,0.9c0.2,0.2,0.5,0.3,1,0.3c0.6,0,1.2-0.3,1.7-0.8
			c0.5-0.5,0.9-1.2,1.2-2h1.3c-0.8,2.3-1.8,3.9-3,4.7c-1.2,0.8-2.5,1.2-3.7,1.2C260.8,68.8,260,68.5,259.4,67.9z"/>
		<path class="st6" d="M269.4,52.6h4.6l-0.4,2c0.7-0.6,1.4-1.1,2-1.5s1.2-0.5,1.9-0.5c0.7,0,1.2,0.2,1.6,0.7c0.4,0.5,0.6,1,0.6,1.7
			c0,0.6-0.2,1.2-0.6,1.6s-1,0.7-1.7,0.7c-0.5,0-0.8-0.1-0.9-0.3s-0.3-0.5-0.4-1c-0.1-0.3-0.1-0.5-0.2-0.6c-0.1-0.1-0.2-0.2-0.4-0.2
			c-0.4,0-0.8,0.1-1.1,0.3c-0.3,0.2-0.7,0.5-1.2,0.9l-2.6,12.2H266L269.4,52.6z"/>
		<path class="st6" d="M280.2,67.6c-0.9-0.8-1.4-2.1-1.4-3.8c0-1.5,0.3-3.1,0.9-4.8c0.6-1.8,1.5-3.3,2.8-4.6c1.3-1.3,3-1.9,5-1.9
			c2.5,0,3.9,1.4,4.1,4.3c0.5-0.1,0.9-0.4,1.2-0.8c0.4-0.4,0.7-0.9,1-1.4h1c-0.6,1.2-1.1,2.1-1.5,2.7c-0.4,0.7-1,1.2-1.8,1.6
			c-0.1,2-0.5,3.8-1.2,5.3c-0.7,1.5-1.6,2.7-2.7,3.5c-1.1,0.8-2.3,1.2-3.7,1.2C282.3,68.8,281.1,68.4,280.2,67.6z M287.4,64
			c0.7-1.3,1.2-2.9,1.4-4.7c-0.5-0.2-0.8-0.7-0.8-1.4c0-0.8,0.3-1.4,0.9-1.7c0-0.7-0.2-1.2-0.3-1.4c-0.2-0.3-0.5-0.4-0.9-0.4
			c-0.7,0-1.4,0.5-2,1.5s-1.2,2.2-1.6,3.7c-0.4,1.4-0.6,2.7-0.6,3.8c0,1,0.1,1.7,0.4,2.1c0.2,0.4,0.7,0.5,1.3,0.5
			C286,65.9,286.7,65.2,287.4,64z"/>
	</g>
	<g>
		<g>
			<path class="st6" d="M41,94.1c-0.8-0.8-1.2-2.1-1.2-3.9c0-1.6,0.3-3.2,0.9-5c0.6-1.7,1.6-3.2,2.8-4.4c1.2-1.2,2.7-1.8,4.5-1.8
				c0.9,0,1.5,0.1,2,0.4s0.6,0.7,0.6,1.2v0.1l1.6-7.4l4.7-0.6l-3.7,17.3c-0.1,0.3-0.1,0.7-0.1,1c0,0.4,0.1,0.7,0.3,0.9
				c0.2,0.2,0.5,0.3,1,0.3c0.6,0,1.1-0.3,1.6-0.8c0.4-0.5,0.8-1.2,1-2h1.3c-1.3,3.8-3.4,5.7-6.4,5.7c-0.9,0-1.6-0.2-2.1-0.7
				c-0.5-0.5-0.9-1.2-1-2c-0.6,0.9-1.2,1.6-2,2.1c-0.8,0.6-1.7,0.8-2.7,0.8C42.8,95.4,41.8,95,41,94.1z M47.7,91.6
				c0.5-0.5,0.9-1.1,1.1-2v-0.2l1.6-7.3C50.1,81.4,49.7,81,49,81c-0.9,0-1.6,0.5-2.3,1.5c-0.7,1-1.2,2.2-1.6,3.6
				c-0.4,1.4-0.6,2.6-0.6,3.7c0,1.1,0.2,1.7,0.5,2c0.3,0.3,0.7,0.4,1.1,0.4C46.6,92.3,47.1,92,47.7,91.6z"/>
			<path class="st6" d="M57.9,94.1c-0.9-0.8-1.3-2.1-1.3-3.9c0-1.5,0.3-3.1,0.9-4.9c0.6-1.8,1.5-3.3,2.8-4.6c1.3-1.3,3-1.9,5-1.9
				c2.3,0,3.5,1,3.5,3.1c0,1.2-0.3,2.3-1,3.3c-0.7,1-1.6,1.8-2.7,2.4c-1.1,0.6-2.3,1-3.6,1c0,0.6-0.1,1.1-0.1,1.3
				c0,1,0.2,1.8,0.5,2.1c0.4,0.4,0.9,0.6,1.8,0.6c1.2,0,2.1-0.3,3-0.8c0.8-0.5,1.7-1.3,2.7-2.4h1.1c-2.4,3.9-5.3,5.9-8.8,5.9
				C60,95.4,58.8,95,57.9,94.1z M63.9,86.4c0.7-0.5,1.3-1.2,1.7-2c0.4-0.8,0.7-1.6,0.7-2.5c0-0.9-0.3-1.3-0.8-1.3
				c-0.8,0-1.5,0.7-2.3,2c-0.7,1.3-1.3,2.9-1.6,4.6C62.4,87.1,63.2,86.9,63.9,86.4z"/>
			<path class="st6" d="M69.9,94.4c-0.6-0.7-0.9-1.6-0.9-2.9c0-0.5,0.1-1.2,0.3-2.1l3.4-16l4.7-0.6L73.7,90
				c-0.1,0.3-0.1,0.6-0.1,0.9c0,0.9,0.4,1.3,1.3,1.3c0.4,0,0.7-0.1,1-0.2c-0.1,1.1-0.5,1.9-1.1,2.5c-0.7,0.6-1.5,0.9-2.4,0.9
				C71.4,95.4,70.5,95.1,69.9,94.4z"/>
			<path class="st6" d="M90.7,73.4c-1.4,0.6-2.5,1.5-3.3,2.7s-1.2,2.6-1.2,4.3c0,0.8,0.1,1.3,0.2,1.6c0.1,0.3,0.2,0.5,0.2,0.5
				c-1.2,0-2-0.2-2.6-0.7c-0.6-0.5-0.8-1.3-0.8-2.4c0-1.4,0.6-2.7,1.7-4c1.1-1.3,2.6-2.3,4.3-3.1c1.7-0.8,3.5-1.2,5.2-1.2
				c0.3,0,0.7,0,1.3,0.1l-2,9.5h4.7l2-9.5h4.6L100,95.2h-4.6l2.6-12h-4.7l-2.6,12H86L90.7,73.4z"/>
			<path class="st6" d="M105,94.1c-0.9-0.8-1.4-2.1-1.4-3.8c0-1.5,0.3-3.1,0.9-4.8c0.6-1.8,1.6-3.3,2.9-4.6c1.3-1.3,3-1.9,5-1.9
				c2.7,0,4.1,1.7,4.1,5.1v0c0.1,0,0.2,0,0.4,0c0.7,0,1.5-0.2,2.4-0.6c0.9-0.4,1.7-0.8,2.5-1.4l0.3,0.9c-0.6,0.7-1.4,1.2-2.4,1.7
				c-1,0.5-2.1,0.8-3.2,1c-0.2,1.9-0.6,3.6-1.3,5.1c-0.7,1.5-1.6,2.6-2.7,3.4c-1.1,0.8-2.3,1.2-3.6,1.2
				C107.2,95.3,106,94.9,105,94.1z M111.6,91.6c0.5-0.6,1-1.4,1.3-2.4c0.4-1,0.7-2.1,0.8-3.4c-0.6-0.1-0.9-0.6-0.9-1.3
				c0-0.9,0.3-1.5,1-1.7c0-0.7-0.1-1.2-0.3-1.5c-0.2-0.3-0.5-0.4-0.9-0.4c-0.7,0-1.4,0.5-2,1.5c-0.7,1-1.2,2.3-1.6,3.7
				c-0.4,1.4-0.6,2.7-0.6,3.8c0,1,0.1,1.7,0.4,2.1c0.2,0.4,0.7,0.5,1.3,0.5C110.6,92.4,111.1,92.1,111.6,91.6z"/>
			<path class="st6" d="M121.3,102.4c-0.7-0.5-1-1.3-1-2.3c0-1.2,0.5-2.2,1.5-2.9c1-0.7,2.2-1.3,3.7-1.8l0.4-1.7
				c-1.1,1.2-2.4,1.8-3.8,1.8c-1.2,0-2.2-0.4-3-1.2s-1.2-2.1-1.2-3.9c0-1.6,0.3-3.2,0.9-5c0.6-1.7,1.6-3.2,2.8-4.4
				c1.2-1.2,2.7-1.8,4.5-1.8c0.9,0,1.5,0.1,2,0.4s0.6,0.7,0.6,1.2v0.2l0.4-1.7h4.6L130.4,94c1-0.3,1.8-0.9,2.5-1.5
				c0.6-0.7,1.1-1.7,1.6-3h1.3c-0.6,1.9-1.4,3.3-2.3,4.2c-1,0.9-2.1,1.5-3.3,1.8l-0.5,2.3c-0.4,2.1-1.2,3.5-2.2,4.3
				c-1,0.8-2.2,1.2-3.6,1.2C122.8,103.2,122,102.9,121.3,102.4z M124.1,100c0.3-0.5,0.6-1.2,0.8-2.1l0.2-0.9
				c-2.1,0.8-3.1,1.7-3.1,2.7c0,0.3,0.1,0.5,0.3,0.7c0.2,0.2,0.5,0.3,0.8,0.3C123.5,100.7,123.8,100.4,124.1,100z M125.6,91.6
				c0.5-0.4,0.9-1.1,1.1-1.8l1.6-7.6c0-0.3-0.1-0.5-0.3-0.8c-0.2-0.3-0.5-0.4-1-0.4c-0.9,0-1.6,0.5-2.3,1.5c-0.7,1-1.2,2.2-1.6,3.6
				c-0.4,1.4-0.6,2.6-0.6,3.7c0,1.1,0.2,1.7,0.5,2c0.3,0.3,0.7,0.4,1.1,0.4C124.6,92.3,125.1,92.1,125.6,91.6z"/>
			<path class="st6" d="M135.2,94.1c-0.8-0.8-1.2-2.1-1.2-3.9c0-1.6,0.3-3.2,0.9-5c0.6-1.7,1.6-3.2,2.8-4.4c1.2-1.2,2.7-1.8,4.5-1.8
				c0.9,0,1.5,0.1,2,0.4c0.4,0.3,0.6,0.7,0.6,1.2v0.2l0.4-1.7h4.6l-2.3,10.9c-0.1,0.3-0.1,0.7-0.1,1c0,0.9,0.4,1.4,1.3,1.4
				c0.6,0,1.1-0.3,1.6-0.8c0.4-0.6,0.8-1.3,1-2.2h1.3c-0.8,2.3-1.8,3.9-2.9,4.7c-1.2,0.8-2.3,1.2-3.5,1.2c-0.9,0-1.6-0.3-2.2-0.8
				c-0.5-0.5-0.9-1.2-1-2.2c-0.6,0.9-1.3,1.6-2.1,2.1c-0.8,0.5-1.7,0.8-2.7,0.8C137,95.4,136,95,135.2,94.1z M141.9,91.5
				c0.5-0.5,0.9-1.2,1.1-2.1l1.5-7.2c0-0.3-0.1-0.5-0.3-0.8c-0.2-0.3-0.5-0.4-1-0.4c-0.9,0-1.6,0.5-2.3,1.5c-0.7,1-1.2,2.2-1.6,3.6
				c-0.4,1.4-0.6,2.6-0.6,3.7c0,1.1,0.2,1.7,0.5,2c0.3,0.3,0.7,0.4,1.1,0.4C140.8,92.3,141.4,92,141.9,91.5z"/>
			<path class="st6" d="M153.4,79.2h4.6l-0.4,2c0.7-0.6,1.4-1.1,2-1.5s1.2-0.5,1.9-0.5c0.7,0,1.2,0.2,1.6,0.7c0.4,0.5,0.6,1,0.6,1.7
				c0,0.6-0.2,1.2-0.6,1.6s-1,0.7-1.7,0.7c-0.5,0-0.8-0.1-0.9-0.3s-0.3-0.5-0.4-1c-0.1-0.3-0.1-0.5-0.2-0.6
				c-0.1-0.1-0.2-0.2-0.4-0.2c-0.4,0-0.8,0.1-1.1,0.3c-0.3,0.2-0.7,0.5-1.2,0.9l-2.6,12.2H150L153.4,79.2z"/>
			<path class="st6" d="M171,94.1c-0.8-0.8-1.2-2.1-1.2-3.9c0-1.6,0.3-3.2,0.9-5c0.6-1.7,1.6-3.2,2.8-4.4c1.2-1.2,2.7-1.8,4.5-1.8
				c0.9,0,1.5,0.1,2,0.4s0.6,0.7,0.6,1.2v0.1l1.6-7.4l4.7-0.6l-3.7,17.3c-0.1,0.3-0.1,0.7-0.1,1c0,0.4,0.1,0.7,0.3,0.9
				c0.2,0.2,0.5,0.3,1,0.3c0.6,0,1.1-0.3,1.6-0.8c0.4-0.5,0.8-1.2,1-2h1.3c-1.3,3.8-3.4,5.7-6.4,5.7c-0.9,0-1.6-0.2-2.1-0.7
				c-0.5-0.5-0.9-1.2-1-2c-0.6,0.9-1.2,1.6-2,2.1c-0.8,0.6-1.7,0.8-2.7,0.8C172.8,95.4,171.8,95,171,94.1z M177.7,91.6
				c0.5-0.5,0.9-1.1,1.1-2v-0.2l1.6-7.3c-0.2-0.7-0.6-1.1-1.3-1.1c-0.9,0-1.6,0.5-2.3,1.5s-1.2,2.2-1.6,3.6
				c-0.4,1.4-0.6,2.6-0.6,3.7c0,1.1,0.2,1.7,0.5,2c0.3,0.3,0.7,0.4,1.1,0.4C176.6,92.3,177.1,92,177.7,91.6z"/>
			<path class="st6" d="M187.9,94.1c-0.9-0.8-1.3-2.1-1.3-3.9c0-1.5,0.3-3.1,0.9-4.9c0.6-1.8,1.5-3.3,2.8-4.6c1.3-1.3,3-1.9,5-1.9
				c2.3,0,3.5,1,3.5,3.1c0,1.2-0.3,2.3-1,3.3c-0.7,1-1.6,1.8-2.7,2.4s-2.3,1-3.6,1c0,0.5-0.1,0.8-0.1,1c0,1.8,0.7,2.7,2,2.7
				c0.6,0,1.2-0.2,1.9-0.5c0.7-0.3,1.3-0.7,1.9-1.2c-0.6,3.2-2.4,4.7-5.5,4.7C189.9,95.4,188.7,95,187.9,94.1z M193.9,86.4
				c0.7-0.5,1.3-1.2,1.7-2c0.4-0.8,0.7-1.6,0.7-2.5c0-0.9-0.3-1.3-0.8-1.3c-0.7,0-1.5,0.7-2.2,2c-0.7,1.4-1.3,2.9-1.6,4.6
				C192.4,87.2,193.1,86.9,193.9,86.4z"/>
			<path class="st6" d="M207.4,94.2c-1-1.1-1.5-2.4-1.5-4c0-1.2,0.2-2.3,0.7-3.5c0.5-1.2,1.2-2.2,2.1-3.1c0.9-0.9,1.9-1.5,3.1-1.8
				c-0.7-0.5-1.2-1-1.5-1.7c-0.3-0.7-0.5-1.4-0.5-2.1c0-1.1,0.3-2.2,0.9-3.3c0.6-1.1,1.5-1.9,2.5-2.6c1.1-0.7,2.3-1,3.6-1
				c1.3,0,2.4,0.4,3.3,1.1c0.9,0.7,1.3,1.7,1.3,2.9c0,0.9-0.2,1.7-0.7,2.4c-0.5,0.6-1,1-1.7,1c-0.6,0-1.1-0.3-1.5-0.9
				c0.4-0.1,0.7-0.5,1-1.1c0.3-0.6,0.4-1.2,0.4-1.7c0-0.6-0.2-1.1-0.5-1.4s-0.8-0.4-1.2-0.4c-0.6,0-1.2,0.2-1.7,0.7
				c-0.5,0.4-0.9,1-1.2,1.7c-0.3,0.7-0.4,1.4-0.4,2.2c0,1,0.3,1.9,0.8,2.7c0.5,0.8,1.3,1.3,2.4,1.6c-1.1,0.2-2.1,0.8-2.9,1.6
				c-0.9,0.8-1.6,1.8-2,2.9c-0.5,1.1-0.7,2.1-0.7,3.2c0,1,0.3,1.7,0.8,2.3c0.5,0.6,1.3,0.9,2.3,0.9c1.1,0,2.2-0.3,3.3-0.9
				c1.2-0.6,2-1.4,2.6-2.4l0.7,0.3c-0.8,1.8-2.1,3.3-3.8,4.4c-1.7,1.1-3.6,1.6-5.5,1.6C209.8,95.8,208.4,95.2,207.4,94.2z"/>
			<path class="st6" d="M222,94.2c-1-1.1-1.5-2.4-1.5-4c0-1.2,0.2-2.3,0.7-3.5c0.5-1.2,1.2-2.2,2.1-3.1c0.9-0.9,1.9-1.5,3.1-1.8
				c-0.7-0.5-1.2-1-1.5-1.7c-0.3-0.7-0.5-1.4-0.5-2.1c0-1.1,0.3-2.2,0.9-3.3c0.6-1.1,1.5-1.9,2.5-2.6c1.1-0.7,2.3-1,3.6-1
				c1.3,0,2.4,0.4,3.3,1.1c0.9,0.7,1.3,1.7,1.3,2.9c0,0.9-0.2,1.7-0.7,2.4c-0.5,0.6-1,1-1.7,1c-0.6,0-1.1-0.3-1.5-0.9
				c0.4-0.1,0.7-0.5,1-1.1c0.3-0.6,0.4-1.2,0.4-1.7c0-0.6-0.2-1.1-0.5-1.4s-0.8-0.4-1.2-0.4c-0.6,0-1.2,0.2-1.7,0.7
				c-0.5,0.4-0.9,1-1.2,1.7c-0.3,0.7-0.4,1.4-0.4,2.2c0,1,0.3,1.9,0.8,2.7c0.5,0.8,1.3,1.3,2.4,1.6c-1.1,0.2-2.1,0.8-2.9,1.6
				c-0.9,0.8-1.6,1.8-2,2.9c-0.5,1.1-0.7,2.1-0.7,3.2c0,1,0.3,1.7,0.8,2.3c0.5,0.6,1.3,0.9,2.3,0.9c1.1,0,2.2-0.3,3.3-0.9
				c1.2-0.6,2-1.4,2.6-2.4l0.7,0.3c-0.8,1.8-2.1,3.3-3.8,4.4c-1.7,1.1-3.6,1.6-5.5,1.6C224.5,95.8,223,95.2,222,94.2z"/>
			<path class="st6" d="M236.8,94.6c-0.5-0.5-0.7-1.1-0.7-1.8s0.2-1.3,0.7-1.8c0.5-0.5,1.1-0.8,1.8-0.8c0.7,0,1.3,0.3,1.8,0.8
				c0.5,0.5,0.8,1.1,0.8,1.8s-0.3,1.3-0.8,1.8c-0.5,0.5-1.1,0.7-1.8,0.7C237.8,95.3,237.2,95.1,236.8,94.6z"/>
			<path class="st6" d="M250,93.9c-1.1-1-1.6-2.6-1.6-4.6c0-1,0.1-2.1,0.4-3.4l3.3-13c-1.8,0.5-3.3,1.4-4.3,2.6
				c-1,1.2-1.5,2.6-1.5,4.1c0,1,0.3,2.1,0.8,3c-1.2,0-2.2-0.3-2.8-0.9c-0.7-0.6-1-1.4-1-2.5c0-1.4,0.6-2.7,1.7-4
				c1.1-1.3,2.6-2.3,4.5-3.1c1.9-0.8,3.8-1.2,5.9-1.2c0.7,0,1.3,0.1,1.8,0.2L253.2,86c-0.4,1.3-0.5,2.5-0.5,3.5c0,2,0.8,3,2.5,3
				c2.4,0,4-2.2,5-6.6l3.2-14.8h4.5l-3.1,14.8c-0.7,3.1-1.9,5.5-3.5,7.1c-1.7,1.6-3.8,2.4-6.4,2.4C252.7,95.4,251.1,94.9,250,93.9z"
				/>
			<path class="st6" d="M272.9,93.9c-1.1-1-1.6-2.6-1.6-4.6c0-1,0.1-2.1,0.4-3.4l3.3-13c-1.8,0.5-3.3,1.4-4.3,2.6
				c-1,1.2-1.5,2.6-1.5,4.1c0,1,0.3,2.1,0.8,3c-1.2,0-2.2-0.3-2.8-0.9c-0.7-0.6-1-1.4-1-2.5c0-1.4,0.6-2.7,1.7-4
				c1.1-1.3,2.6-2.3,4.5-3.1c1.9-0.8,3.8-1.2,5.9-1.2c0.7,0,1.3,0.1,1.8,0.2L276.1,86c-0.4,1.3-0.5,2.5-0.5,3.5c0,2,0.8,3,2.5,3
				c2.4,0,4-2.2,5-6.6l3.2-14.8h4.5l-3.1,14.8c-0.7,3.1-1.9,5.5-3.5,7.1c-1.7,1.6-3.8,2.4-6.4,2.4C275.6,95.4,274,94.9,272.9,93.9z"
				/>
			<path class="st6" d="M291,94.6c-0.5-0.5-0.7-1.1-0.7-1.8s0.2-1.3,0.7-1.8c0.5-0.5,1.1-0.8,1.8-0.8c0.7,0,1.3,0.3,1.8,0.8
				c0.5,0.5,0.8,1.1,0.8,1.8s-0.3,1.3-0.8,1.8c-0.5,0.5-1.1,0.7-1.8,0.7C292.1,95.3,291.5,95.1,291,94.6z"/>
		</g>
	</g>
</g>
</svg>
