<?xml version="1.0" encoding="utf-8"?>
<!-- Generator: Adobe Illustrator 22.1.0, SVG Export Plug-In . SVG Version: 6.00 Build 0)  -->
<svg version="1.1" id="Layer_1" xmlns="http://www.w3.org/2000/svg" xmlns:xlink="http://www.w3.org/1999/xlink" x="0px" y="0px"
	 viewBox="0 0 516.2 413" style="enable-background:new 0 0 516.2 413;" xml:space="preserve">
<style type="text/css">
	.st0{fill:#E1F4FD;}
	.st1{fill:#FFDE17;}
	.st2{fill:#C7EAFB;}
	.st3{fill:#6DCFF6;}
	.st4{fill:#00B3F0;}
	.st5{fill:#0072BC;}
	.st6{fill:#005E9E;}
	.st7{opacity:0.2;fill:#0072BC;}
	.st8{fill:#FFFFFF;}
	.st9{fill:#FFFFFF;stroke:#FFFFFF;stroke-width:6;stroke-miterlimit:10;}
	.st10{opacity:0.1;}
</style>
<g>
	<path class="st0" d="M269.9,139.7H30.5c-14.2,0-25.8-11.6-25.8-25.8v-85c0-14.2,11.6-25.8,25.8-25.8h239.4
		c14.2,0,25.8,11.6,25.8,25.8v85C295.7,128.1,284.1,139.7,269.9,139.7z"/>
	<circle class="st0" cx="218.9" cy="250.9" r="137.2"/>
	<g>
		<g>
			<g>
				<g>
					<path class="st1" d="M218.4,251.5l-58.3-105.2c18.6-10.3,37.1-15.1,58.3-15.1V251.5z"/>
				</g>
			</g>
			<g>
				<g>
					<path class="st2" d="M218.4,251.5L100,230.6c6.5-36.6,27.6-66.3,60.2-84.3L218.4,251.5z"/>
				</g>
			</g>
			<g>
				<g>
					<path class="st3" d="M218.4,251.5l-63.8,102c-42.8-26.8-63.5-73.2-54.7-122.9L218.4,251.5z"/>
				</g>
			</g>
			<g>
				<g>
					<path class="st4" d="M218.4,251.5l70.7,97.3c-40.9,29.7-91.7,31.5-134.5,4.7L218.4,251.5z"/>
				</g>
			</g>
			<g>
				<g>
					<path class="st5" d="M218.4,251.5l120-8.4c3,42.4-14.9,80.7-49.3,105.7L218.4,251.5z"/>
				</g>
			</g>
			<g>
				<g>
					<path class="st6" d="M218.4,251.5V131.1c63.8,0,115.6,48.3,120,111.9L218.4,251.5z"/>
				</g>
			</g>
		</g>
		<g>
			<g>
			</g>
			<g>
			</g>
			<g>
			</g>
			<g>
			</g>
			<g>
			</g>
			<g>
			</g>
		</g>
	</g>
	<circle class="st7" cx="215.2" cy="261.4" r="62.1"/>
	<circle class="st8" cx="218.9" cy="250.9" r="62.1"/>
	<path class="st9" d="M256.1,48.4c-1.5,0-2.9,0.2-4.2,0.7l1.6-7.6l-14.2,1.9l-1.1,5.2c-1.1,0.1-2.2,0.3-3.3,0.7c0-0.1,0-0.2,0-0.3
		c0-1.9-0.7-3.6-2.1-5c-1.4-1.4-3.1-2.1-5-2.1c-1.9,0-3.7,0.7-5,2.1c-1,1-1.6,2.2-1.9,3.5l-9.5,1.3l-0.8,2.6
		c-0.2-0.3-0.5-0.5-0.7-0.7c-1-1-2.8-2.1-5.7-2.1c-0.5,0-1,0-1.5,0.1h-4.1l1.6-7.5l-5.1-0.4c-0.7-0.1-1.2-0.1-1.6-0.1
		c-2.4,0-4.8,0.5-7.1,1.6c-2.3,1.1-4.3,2.5-5.8,4.3c-1.2,1.4-2.1,3-2.5,4.6c-1.4-1.7-3.6-2.7-6.5-2.7c-2.5,0-4.8,0.7-6.6,2l-0.1-3.3
		l-8.2,1.1l1.6-7.6h-13.7l-0.1,0.5l-1.5-0.3c-0.8-0.2-1.7-0.3-2.8-0.3c-2.7,0-5.2,0.5-7.6,1.5c-2.5,1-4.5,2.5-6.1,4.2
		c-1.1,1.3-1.9,2.7-2.4,4.1c-0.7-0.7-1.6-1.1-2.5-1.4l0.1-0.3h-13.8l0,0c-1.6-0.4-3.6-0.4-5.3,0h-1.7l1.3-5.9L88,44.8l-0.9,4h-5.7
		c-1.2-0.2-2.6-0.2-3.9,0l2.9-7.9h-23l-0.1,0.2L54,40.8c-0.7-0.1-1.2-0.1-1.6-0.1c-2.4,0-4.8,0.5-7.1,1.6c-2.3,1.1-4.3,2.5-5.8,4.3
		c-1.8,2.1-2.8,4.5-2.8,6.9c0,3.1,1.3,4.9,2.4,5.8c1.4,1.2,3.2,1.8,5.5,1.8h0.1l0.2,10l-4.6,0.6l-0.9,4h-1.1L36.3,86h1l-0.8,3.6
		c-0.2,1.2-0.4,2.2-0.4,3c0,2.5,0.8,4.5,2.2,6c1.5,1.5,3.5,2.3,5.7,2.3c0.6,0,1.3-0.1,2-0.2h10.5l0.2-0.8c1.1,0.6,2.5,1,4.3,1
		c1.5,0,3-0.4,4.3-1.1c1.4,0.7,3,1.1,4.8,1.1c0.1,0,0.2,0,0.3,0v0h24.3c0.3,0,0.6,0,0.9,0c3.6,0,6.7-1.1,9.1-3.3
		c0.3,0.4,0.6,0.8,1,1.2c1.3,1.3,3.1,2.1,5,2.1c1.9,0,3.6-0.7,5-2c0,0,0,0,0.1-0.1c0.7,0.6,1.4,1,2.3,1.4c1.6,0.7,3.4,1.1,5.4,1.1
		c2.3,0,4.4-0.5,6.3-1.4c0.8-0.4,1.6-0.9,2.3-1.4c0.1,0.1,0.2,0.2,0.3,0.3c0.5,0.5,1.1,1,1.7,1.3l1.9,0.6c0.4,0.1,0.9,0.1,1.4,0.1
		c0.5,0,0.9,0,1.4-0.1h8.1h4.2H170l0.2-1c1.4,0.8,3.1,1.1,5,1.1c0.9,0,1.8-0.1,2.6-0.3l0,0.2h21.7l0.2-0.8c1.1,0.6,2.5,1,4.3,1
		c1.5,0,3-0.4,4.3-1.1c1.4,0.7,3,1.1,4.8,1.1c5.3,0,9-3.2,10-8.4l1.1-5.8c0.4-1,0.6-2,0.7-3.1h0v-0.1c0-0.2,0-0.3,0-0.5
		c0-0.2,0-0.3,0-0.5v-8.6c0.3,0,0.6,0,0.9,0c1.6,0,3.2-0.4,4.8-1.2c1.3,0.8,2.8,1.2,4.4,1.2c1.5,0,3-0.3,4.3-1
		c1.1,0.5,2.3,0.8,3.6,0.8c1.6,0,3.2-0.3,4.5-1c1.4,0.8,3.1,1.2,5.1,1.2c5.3,0,9-3.2,10-8.4l1.1-5.8c0.5-1.2,0.7-2.4,0.7-3.7
		C264.1,51.4,261,48.4,256.1,48.4z"/>
	<g class="st10">
		<path class="st6" d="M38.4,59c-0.6-0.5-0.8-1.3-0.8-2.4c0-1.4,0.6-2.7,1.7-4c1.1-1.3,2.6-2.3,4.3-3.1s3.5-1.2,5.2-1.2
			c0.3,0,0.7,0,1.3,0.1L50.4,68l6.7-19.6h4.1L61.4,68l6.7-19.6h2.2l-8.9,23.8h-4.6L56.5,56l-6.1,16.3h-4.6l-0.5-21.9
			c-1.5,0.6-2.7,1.5-3.5,2.7s-1.2,2.7-1.2,4.4c0,0.8,0.1,1.3,0.2,1.6c0.1,0.3,0.2,0.5,0.2,0.5C39.8,59.7,39,59.5,38.4,59z
			 M114.1,58.9c-0.4,0-0.8,0.1-1.1,0.3c-0.3,0.2-0.7,0.5-1.2,0.9l-2.6,12.2h-4.6l0.8-3.5c-2.1,2.5-4.5,3.7-7.2,3.7
			c-1.6,0-2.8-0.4-3.7-1.2c-0.5-0.4-0.8-1-1-1.7c-0.5,0.7-1,1.3-1.6,1.7c-1.2,0.8-2.5,1.2-3.7,1.2c-1,0-1.9-0.3-2.5-1
			c-0.4-0.4-0.7-1.1-0.8-1.8c-0.4,0.7-0.9,1.2-1.4,1.5c-1.2,0.8-2.3,1.2-3.5,1.2c-0.9,0-1.6-0.3-2.2-0.8s-0.9-1.2-1-2.2
			c-0.6,0.9-1.3,1.6-2.1,2.1c-0.8,0.5-1.7,0.8-2.7,0.8c-1.2,0-2.2-0.4-3-1.2s-1.2-2.1-1.2-3.9c0-1.6,0.3-3.2,0.9-5
			c0.6-1.7,1.6-3.2,2.8-4.4s2.7-1.8,4.5-1.8c0.9,0,1.5,0.1,2,0.4s0.6,0.7,0.6,1.2V58l0.4-1.7h4.6l-2.3,10.9c-0.1,0.3-0.1,0.7-0.1,1
			c0,0.9,0.4,1.4,1.3,1.4c0.6,0,1.1-0.3,1.6-0.8c0.4-0.6,0.8-1.3,1-2.2l1.9-9h-1.1l0.3-1.3h1.1l1-4.4l4.7-0.6l-1.1,5.1h1.9l-0.3,1.3
			h-1.9l-2,9.6c-0.1,0.3-0.1,0.7-0.1,1c0,0.4,0.1,0.7,0.3,0.9c0.2,0.2,0.5,0.3,1,0.3c0.6,0,1.2-0.3,1.7-0.8c0.3-0.3,0.5-0.6,0.7-1
			c0-0.1,0-0.1,0-0.2c0-1.5,0.3-3.1,0.9-4.9c0.6-1.8,1.5-3.3,2.8-4.6c1.3-1.3,3-1.9,5-1.9c2.3,0,3.5,1,3.5,3.1c0,1.2-0.3,2.3-1,3.3
			s-1.6,1.8-2.7,2.4c-1.1,0.6-2.3,1-3.6,1c0,0.6-0.1,1.1-0.1,1.3c0,1,0.2,1.8,0.5,2.1c0.4,0.4,0.9,0.6,1.8,0.6c1.2,0,2.1-0.3,3-0.8
			c0.8-0.5,1.7-1.3,2.7-2.4l2.2-10.3h4.6l-0.4,2c0.7-0.6,1.4-1.1,2-1.5c0.6-0.3,1.2-0.5,1.9-0.5c0.7,0,1.2,0.2,1.6,0.7
			c0.4,0.5,0.6,1,0.6,1.7c0,0.6-0.2,1.2-0.6,1.6c-0.4,0.5-1,0.7-1.7,0.7c-0.5,0-0.8-0.1-0.9-0.3c-0.2-0.2-0.3-0.5-0.4-1
			c-0.1-0.3-0.1-0.5-0.2-0.6C114.4,59,114.3,58.9,114.1,58.9z M98.2,64.3c0.8,0,1.5-0.3,2.3-0.8c0.7-0.5,1.3-1.2,1.7-2
			c0.4-0.8,0.7-1.6,0.7-2.5c0-0.9-0.3-1.3-0.8-1.3c-0.8,0-1.5,0.7-2.3,2C99,61,98.5,62.6,98.2,64.3z M78.3,59.3
			c0-0.3-0.1-0.5-0.3-0.8c-0.2-0.3-0.5-0.4-1-0.4c-0.9,0-1.6,0.5-2.3,1.5c-0.7,1-1.2,2.2-1.6,3.6c-0.4,1.4-0.6,2.6-0.6,3.7
			c0,1.1,0.2,1.8,0.5,2c0.3,0.3,0.7,0.4,1.1,0.4c0.5,0,1.1-0.2,1.6-0.8c0.5-0.5,0.9-1.2,1.1-2.1L78.3,59.3z M149.2,48.2h-4.5
			L141.5,63c-0.9,4.4-2.6,6.6-5,6.6c-1.7,0-2.5-1-2.5-3c0-1,0.2-2.1,0.5-3.5l3.9-14.8c-0.5-0.1-1.1-0.2-1.8-0.2
			c-2.1,0-4,0.4-5.9,1.2c-1.9,0.8-3.3,1.8-4.5,3.1c-1.1,1.3-1.7,2.6-1.7,4c0,1.1,0.3,1.9,1,2.5c0.7,0.6,1.6,0.9,2.8,0.9
			c-0.6-1-0.8-2-0.8-3c0-1.5,0.5-2.9,1.5-4.1c1-1.2,2.5-2.1,4.3-2.6l-3.3,13c-0.3,1.2-0.4,2.4-0.4,3.4c0,2,0.5,3.6,1.6,4.6
			c1.1,1,2.7,1.6,4.8,1.6c2.6,0,4.7-0.8,6.4-2.4c1.7-1.6,2.9-4,3.5-7.1L149.2,48.2z M148.4,65.4c0.8-1.5,1.6-3,2.2-4.5
			c0.6-1.5,1.2-3.2,1.8-4.9l4.7-0.6c0.1,2.7,0.3,5.7,0.5,8.9c0.1,1.3,0.2,2.2,0.2,2.8c0,0.5,0,0.9-0.1,1.2c0.8-0.4,1.4-0.9,1.9-1.2
			c0.1-1.3,0.3-2.8,0.8-4.4c0.6-1.8,1.5-3.3,2.8-4.6c1.3-1.3,3-1.9,5-1.9c2.3,0,3.5,1,3.5,3.1c0,1.2-0.3,2.3-1,3.3
			c-0.7,1-1.6,1.8-2.7,2.4c-1.1,0.6-2.3,1-3.6,1c0,0.5-0.1,0.8-0.1,1c0,1.8,0.7,2.7,2,2.7c0.6,0,1.2-0.2,1.9-0.5
			c0.7-0.3,1.3-0.7,1.9-1.2c-0.6,3.2-2.4,4.7-5.5,4.7c-1.6,0-2.8-0.4-3.6-1.2c-0.7-0.7-1.1-1.7-1.3-3c-1,0.8-2,1.6-3.2,2.3
			c-0.6,0.7-1.4,1.1-2.3,1.5c-0.9,0.3-1.8,0.5-2.7,0.5c-1,0-1.9-0.2-2.6-0.6c-0.7-0.4-1.2-0.9-1.6-1.5c-0.3-0.6-0.5-1.3-0.5-2
			c0-0.7,0.2-1.3,0.5-1.8C147.5,66,147.9,65.6,148.4,65.4z M164.5,64.3c0.8,0,1.6-0.3,2.3-0.8c0.7-0.5,1.3-1.2,1.7-2
			c0.4-0.8,0.7-1.6,0.7-2.5c0-0.9-0.3-1.3-0.8-1.3c-0.7,0-1.5,0.7-2.2,2C165.4,61.1,164.9,62.6,164.5,64.3z M148.4,67.7
			c0,0.8,0.2,1.3,0.5,1.7c0.3,0.4,0.8,0.5,1.5,0.5c0.8,0,1.5-0.2,2-0.7c0.5-0.5,0.8-1.2,0.8-2.3c0-0.6-0.1-1.5-0.2-2.7
			c-0.2-2.4-0.4-4.1-0.4-4.9c-0.5,1.7-1.4,3.7-2.6,6c0.5,0.3,0.7,0.6,0.7,1.1c0,0.4-0.1,0.8-0.4,1.1c-0.3,0.3-0.6,0.5-1,0.5
			C148.8,68.1,148.5,68,148.4,67.7z M182.2,59.7c0,0-0.1-0.2-0.2-0.5c-0.1-0.3-0.2-0.9-0.2-1.6c0-1.7,0.4-3.2,1.2-4.3
			c0.8-1.2,1.9-2.1,3.3-2.6l-4.6,21.7h4.6l5.1-23.9c-0.6,0-1-0.1-1.3-0.1c-1.7,0-3.5,0.4-5.2,1.2s-3.2,1.8-4.3,3.1
			c-1.1,1.3-1.7,2.6-1.7,4c0,1.1,0.3,1.9,0.8,2.4C180.2,59.5,181.1,59.7,182.2,59.7z M224.3,54.6c0.7,0,1.3-0.2,1.8-0.7
			c0.5-0.5,0.8-1.1,0.8-1.8s-0.3-1.3-0.8-1.8c-0.5-0.5-1.1-0.8-1.8-0.8s-1.3,0.3-1.8,0.8c-0.5,0.5-0.7,1.1-0.7,1.8s0.2,1.3,0.7,1.8
			C223,54.3,223.6,54.6,224.3,54.6z M248.7,65.8c0,0.5-0.1,0.8-0.1,1c0,1.8,0.7,2.7,2,2.7c0.6,0,1.2-0.2,1.9-0.5
			c0.7-0.3,1.3-0.7,1.9-1.2c-0.6,3.2-2.4,4.7-5.5,4.7c-1.6,0-2.8-0.4-3.6-1.2c-0.5-0.4-0.8-1-1-1.7c-1.3,1.8-2.9,2.7-4.9,2.7
			c-0.9,0-1.6-0.2-2.1-0.7c-0.5-0.5-0.9-1.2-1-2c-0.6,0.9-1.2,1.6-2,2.1c-0.8,0.6-1.7,0.8-2.7,0.8c-1.2,0-2.2-0.4-3-1.2
			c-0.4-0.4-0.7-1-0.9-1.6c-0.5,0.7-1,1.3-1.6,1.6c-1.2,0.8-2.5,1.2-3.7,1.2c-1,0-1.9-0.3-2.5-1c-0.6-0.6-0.9-1.6-0.9-2.9
			c0-0.2,0-0.3,0-0.5c-1,0.9-2.1,1.7-3.3,2.4c-0.6,0.7-1.4,1.1-2.3,1.5c-0.9,0.3-1.8,0.5-2.7,0.5c-1,0-1.9-0.2-2.6-0.6
			c-0.7-0.4-1.2-0.9-1.6-1.5c-0.3,0.4-0.6,0.7-0.9,0.9c-1,0.8-2.1,1.2-3.2,1.2c-1.3,0-2.3-0.3-2.9-1c-0.6-0.7-0.9-1.6-0.9-2.6
			c0-0.4,0.1-1,0.2-1.5c0.1-0.6,0.2-1.1,0.3-1.6c0.1-0.5,0.2-0.9,0.2-1c0.2-0.7,0.3-1.5,0.5-2.2c0.1-0.7,0.2-1.3,0.2-1.8
			c0-1.1-0.4-1.6-1.2-1.6c-0.6,0-1,0.3-1.5,0.8s-0.8,1.3-1,2.1L194,72.3h-4.6l3.4-16h4.6l-0.4,1.7c1.1-1.2,2.3-1.8,3.7-1.8
			c1.1,0,2,0.3,2.6,0.9c0.6,0.6,1,1.5,1,2.7c0,0.6-0.1,1.3-0.2,2.1c-0.1,0.8-0.4,1.7-0.6,2.8c-0.2,0.7-0.3,1.3-0.5,1.9
			c-0.1,0.6-0.2,1.1-0.2,1.5c0,0.4,0.1,0.8,0.3,1c0.2,0.2,0.5,0.4,1,0.4c0.6,0,1.2-0.2,1.5-0.7c0-0.1,0.1-0.1,0.1-0.2
			c0,0,0-0.1,0-0.1c0-0.7,0.2-1.3,0.5-1.8c0.3-0.5,0.7-0.9,1.2-1.1c0.8-1.5,1.6-3,2.2-4.5c0.6-1.5,1.2-3.2,1.8-4.9l4.7-0.6
			c0.1,2.7,0.3,5.7,0.5,8.9c0.1,1.3,0.2,2.2,0.2,2.8c0,0.5,0,0.9-0.1,1.2c1-0.6,1.8-1.1,2.3-1.6l2.2-10.3h4.6l-2.3,10.9
			c-0.1,0.3-0.1,0.7-0.1,1c0,0.4,0.1,0.7,0.3,0.9c0.2,0.2,0.5,0.3,1,0.3c0.6,0,1.2-0.3,1.7-0.8c0.3-0.3,0.5-0.6,0.8-1
			c0-0.1,0-0.2,0-0.2c0-1.6,0.3-3.2,0.9-5c0.6-1.7,1.6-3.2,2.8-4.4s2.7-1.8,4.5-1.8c0.9,0,1.5,0.1,2,0.4s0.6,0.7,0.6,1.2v0.1
			l1.6-7.4l4.7-0.6l-3.7,17.3c-0.1,0.3-0.1,0.7-0.1,1c0,0.4,0.1,0.7,0.3,0.9c0.2,0.2,0.5,0.3,1,0.3c0.6,0,1.1-0.3,1.6-0.8
			c0.2-0.3,0.4-0.6,0.6-0.9c0-0.1,0-0.2,0-0.3c0-1.5,0.3-3.1,0.9-4.9c0.6-1.8,1.5-3.3,2.8-4.6c1.3-1.3,3-1.9,5-1.9
			c2.3,0,3.5,1,3.5,3.1c0,1.2-0.3,2.3-1,3.3c-0.7,1-1.6,1.8-2.7,2.4C251.2,65.4,250,65.7,248.7,65.8z M248.9,64.3
			c0.8,0,1.6-0.3,2.3-0.8c0.7-0.5,1.3-1.2,1.7-2c0.4-0.8,0.7-1.6,0.7-2.5c0-0.9-0.3-1.3-0.8-1.3c-0.7,0-1.5,0.7-2.2,2
			C249.8,61.1,249.3,62.6,248.9,64.3z M212.2,67c0-0.6-0.1-1.5-0.2-2.7c-0.2-2.4-0.4-4.1-0.4-4.9c-0.5,1.7-1.4,3.7-2.6,6
			c0.5,0.3,0.7,0.6,0.7,1.1c0,0.4-0.1,0.8-0.4,1.1c-0.3,0.3-0.6,0.5-1,0.5c-0.3,0-0.5-0.1-0.7-0.2c0,0.1-0.1,0.2-0.1,0.3
			c0.1,0.5,0.2,0.9,0.4,1.2c0.3,0.4,0.8,0.5,1.5,0.5c0.8,0,1.5-0.2,2-0.7C211.9,68.8,212.2,68,212.2,67z M237.6,59.2
			c-0.2-0.7-0.6-1.1-1.3-1.1c-0.9,0-1.6,0.5-2.3,1.5c-0.7,1-1.2,2.2-1.6,3.6c-0.4,1.4-0.6,2.6-0.6,3.7c0,1.1,0.2,1.8,0.5,2
			c0.3,0.3,0.7,0.4,1.1,0.4c0.5,0,1-0.2,1.6-0.7c0.5-0.5,0.9-1.1,1.1-2v-0.2L237.6,59.2z M73.8,86.1c0,1.2-0.3,2.3-1,3.3
			c-0.7,1-1.6,1.8-2.7,2.4c-1.1,0.6-2.3,1-3.6,1c0,0.5-0.1,0.8-0.1,1c0,1.8,0.7,2.7,2,2.7c0.6,0,1.2-0.2,1.9-0.5
			c0.7-0.3,1.3-0.7,1.9-1.2c-0.6,3.2-2.4,4.7-5.5,4.7c-1.6,0-2.8-0.4-3.6-1.2c-0.4-0.4-0.7-0.9-0.9-1.5c-0.4,0.7-0.8,1.2-1.3,1.5
			c-1,0.8-2.1,1.2-3.2,1.2c-1.3,0-2.3-0.3-2.9-1c-0.6-0.7-0.9-1.6-0.9-2.6c0-0.4,0.1-1,0.2-1.5c0.1-0.6,0.2-1.1,0.3-1.6
			c0.1-0.5,0.2-0.9,0.2-1c0.2-0.7,0.3-1.5,0.5-2.2c0.1-0.7,0.2-1.3,0.2-1.8c0-1.1-0.4-1.6-1.2-1.6c-0.6,0-1,0.3-1.5,0.8
			s-0.8,1.3-1,2.1l-2.2,10.3h-4.6l0.4-1.8c-0.3,0.3-0.6,0.5-0.9,0.7c-1.2,0.8-2.5,1.2-3.7,1.2c-1,0-1.9-0.3-2.5-1
			c-0.6-0.6-0.9-1.6-0.9-2.9c0-0.5,0.1-1.2,0.3-2.1l1.9-9h-1.1l0.3-1.3h1.1l1-4.4l4.7-0.6l-1.1,5.1h1.9l-0.3,1.3h-1.9l-2,9.6
			c-0.1,0.3-0.1,0.7-0.1,1c0,0.4,0.1,0.7,0.3,0.9c0.2,0.2,0.5,0.3,1,0.3c0.6,0,1.2-0.3,1.7-0.8c0.5-0.5,0.9-1.2,1.2-2h0l3.4-16
			l4.7-0.6l-1.7,8.1c1.1-1.2,2.3-1.8,3.7-1.8c1.1,0,2,0.3,2.6,0.9c0.6,0.6,1,1.5,1,2.7c0,0.6-0.1,1.3-0.2,2.1
			c-0.1,0.8-0.4,1.7-0.6,2.8c-0.2,0.7-0.3,1.3-0.5,1.9c-0.1,0.6-0.2,1.1-0.2,1.5c0,0.4,0.1,0.8,0.3,1c0.2,0.2,0.5,0.4,1,0.4
			c0.6,0,1.2-0.2,1.5-0.7c0.2-0.3,0.5-0.7,0.7-1.2c0-0.1,0-0.1,0-0.1c0-1.5,0.3-3.1,0.9-4.9s1.5-3.3,2.8-4.6c1.3-1.3,3-1.9,5-1.9
			C72.6,83,73.8,84,73.8,86.1z M71.3,86c0-0.9-0.3-1.3-0.8-1.3c-0.7,0-1.5,0.7-2.2,2c-0.7,1.4-1.3,2.9-1.6,4.6
			c0.8,0,1.6-0.3,2.3-0.8c0.7-0.5,1.3-1.2,1.7-2C71.1,87.7,71.3,86.9,71.3,86z M100.6,75.2L97.4,90c-0.9,4.4-2.6,6.6-5,6.6
			c-1.7,0-2.5-1-2.5-3c0-1,0.2-2.1,0.5-3.5l3.9-14.8c-0.5-0.1-1.1-0.2-1.8-0.2c-2.1,0-4,0.4-5.9,1.2c-1.9,0.8-3.3,1.8-4.5,3.1
			c-1.1,1.3-1.7,2.6-1.7,4c0,1.1,0.3,1.9,1,2.5c0.7,0.6,1.6,0.9,2.8,0.9c-0.6-1-0.8-2-0.8-3c0-1.5,0.5-2.9,1.5-4.1
			c1-1.2,2.5-2.1,4.3-2.6l-3.3,13c-0.3,1.2-0.4,2.4-0.4,3.4c0,2,0.5,3.6,1.6,4.6c1.1,1,2.7,1.6,4.8,1.6c2.6,0,4.7-0.8,6.4-2.4
			c1.7-1.6,2.9-4,3.5-7.1l3.1-14.8H100.6z M107.2,94.3c-0.7,0-1.3,0.3-1.8,0.8c-0.5,0.5-0.7,1.1-0.7,1.8c0,0.7,0.2,1.3,0.7,1.8
			c0.5,0.5,1.1,0.7,1.8,0.7c0.7,0,1.3-0.2,1.8-0.7c0.5-0.5,0.8-1.1,0.8-1.8c0-0.7-0.3-1.3-0.8-1.8C108.5,94.6,107.9,94.3,107.2,94.3
			z M128.2,76.3c-1-0.8-2.4-1.2-4.1-1.2c-1.4,0-2.6,0.3-3.7,0.8c-1.1,0.5-1.9,1.2-2.6,2.1c-0.6,0.9-0.9,1.9-0.9,3
			c0,1.1,0.3,2.2,0.9,3.1s1.5,2.1,2.6,3.4c1.1,1.3,1.9,2.4,2.5,3.3c0.6,0.9,0.8,1.8,0.8,2.8c0,1.2-0.4,2.1-1.1,2.9s-1.7,1.1-2.8,1.1
			c-0.9,0-1.7-0.3-2.2-0.8s-0.8-1.3-0.8-2.2c0-1,0.3-1.8,1-2.4c0.7-0.6,1.5-0.9,2.7-0.9c-0.1-0.7-0.4-1.2-1-1.6
			c-0.5-0.4-1.1-0.6-1.9-0.6c-0.8,0-1.6,0.2-2.2,0.7s-1.2,1.1-1.6,1.8s-0.6,1.6-0.6,2.6c0,1.1,0.3,2.1,0.8,2.9s1.3,1.5,2.4,2
			c1,0.5,2.2,0.7,3.6,0.7c1.6,0,3.1-0.3,4.4-1c1.3-0.6,2.3-1.5,3.1-2.6c0.8-1.1,1.1-2.3,1.1-3.7c0-1-0.2-1.9-0.6-2.8
			c-0.4-0.9-0.8-1.6-1.3-2.3s-1.2-1.5-2.1-2.4c-1-1.2-1.8-2.1-2.3-2.8c-0.5-0.7-0.7-1.5-0.7-2.4c0-0.9,0.3-1.7,0.8-2.3
			s1.2-0.9,2.1-0.9c0.7,0,1.3,0.2,1.7,0.6s0.6,0.9,0.6,1.6c0,0.5-0.1,1-0.4,1.5c-0.2,0.5-0.6,0.9-1,1.2c0.5,0.7,1.1,1,2,1
			c0.7,0,1.3-0.3,1.8-0.8c0.4-0.6,0.7-1.3,0.7-2.2C129.8,78.2,129.2,77.1,128.2,76.3z M133.8,94.3c-0.7,0-1.3,0.3-1.8,0.8
			c-0.5,0.5-0.7,1.1-0.7,1.8c0,0.7,0.2,1.3,0.7,1.8c0.5,0.5,1.1,0.7,1.8,0.7c0.7,0,1.3-0.2,1.8-0.7c0.5-0.5,0.8-1.1,0.8-1.8
			c0-0.7-0.3-1.3-0.8-1.8C135.1,94.6,134.5,94.3,133.8,94.3z M163.3,75.3l-2,9.5h-4.7l2-9.5c-0.6,0-1-0.1-1.3-0.1
			c-1.8,0-3.5,0.4-5.2,1.2c-1.8,0.8-3.2,1.8-4.3,3.1c-1.1,1.3-1.7,2.6-1.7,4c0,1.1,0.3,1.9,0.8,2.4c0.6,0.5,1.4,0.7,2.6,0.7
			c0,0-0.1-0.2-0.2-0.5c-0.1-0.3-0.2-0.9-0.2-1.6c0-1.7,0.4-3.1,1.2-4.3c0.8-1.2,1.9-2.1,3.3-2.7l-4.6,21.8h4.6l2.6-12h4.7l-2.6,12
			h4.6l5.1-23.9H163.3z M216.8,86.1c0,1.2-0.3,2.3-1,3.3c-0.7,1-1.6,1.8-2.7,2.4c-1.1,0.6-2.3,1-3.6,1c0,0.5-0.1,0.8-0.1,1
			c0,1.8,0.7,2.7,2,2.7c0.6,0,1.2-0.2,1.9-0.5c0.7-0.3,1.3-0.7,1.9-1.2c-0.6,3.2-2.4,4.7-5.5,4.7c-1.6,0-2.8-0.4-3.6-1.2
			c-0.4-0.4-0.7-0.9-0.9-1.5c-0.4,0.7-0.8,1.2-1.3,1.5c-1,0.8-2.1,1.2-3.2,1.2c-1.3,0-2.3-0.3-2.9-1c-0.6-0.7-0.9-1.6-0.9-2.6
			c0-0.4,0.1-1,0.2-1.5c0.1-0.6,0.2-1.1,0.3-1.6s0.2-0.9,0.2-1c0.2-0.7,0.3-1.5,0.5-2.2c0.1-0.7,0.2-1.3,0.2-1.8
			c0-1.1-0.4-1.6-1.2-1.6c-0.6,0-1,0.3-1.5,0.8s-0.8,1.3-1,2.1l-2.2,10.3h-4.6l2.3-11c0.1-0.3,0.1-0.5,0.1-0.8c0-0.9-0.3-1.4-1-1.4
			c-0.6,0-1.1,0.3-1.6,0.8c-0.4,0.5-0.8,1.3-1,2.2l-2.2,10.3h-4.6L182,89c-0.8,0.3-1.7,0.6-2.7,0.8c-0.2,1.9-0.6,3.6-1.3,5.1
			c-0.7,1.5-1.6,2.6-2.7,3.4s-2.3,1.2-3.6,1.2c-1.6,0-2.8-0.4-3.7-1.2s-1.4-2.1-1.4-3.8c0-1.5,0.3-3.1,0.9-4.8
			c0.6-1.8,1.6-3.3,2.9-4.6c1.3-1.3,3-1.9,5-1.9c2.7,0,4.1,1.7,4.1,5.1v0c0.1,0,0.2,0,0.4,0c0.7,0,1.5-0.2,2.4-0.6
			c0,0,0.1,0,0.1-0.1l0.9-4.3h4.6l-0.4,1.7c1.1-1.2,2.4-1.8,3.9-1.8c1.9,0,3,0.9,3.3,2.8c1.2-1.8,2.7-2.7,4.4-2.7
			c1.1,0,2,0.3,2.6,0.9c0.6,0.6,1,1.5,1,2.7c0,0.6-0.1,1.3-0.2,2.1c-0.1,0.8-0.4,1.7-0.6,2.8c-0.2,0.7-0.3,1.3-0.5,1.9
			c-0.1,0.6-0.2,1.1-0.2,1.5c0,0.4,0.1,0.8,0.3,1c0.2,0.2,0.5,0.4,1,0.4c0.6,0,1.2-0.2,1.5-0.7c0.2-0.3,0.5-0.7,0.7-1.2
			c0-0.1,0-0.1,0-0.1c0-1.5,0.3-3.1,0.9-4.9s1.5-3.3,2.8-4.6c1.3-1.3,3-1.9,5-1.9C215.6,83,216.8,84,216.8,86.1z M175.7,88.5
			c0-0.9,0.3-1.5,1-1.7c0-0.7-0.1-1.2-0.3-1.5s-0.5-0.4-0.9-0.4c-0.7,0-1.4,0.5-2,1.5c-0.7,1-1.2,2.3-1.6,3.7
			c-0.4,1.4-0.6,2.7-0.6,3.8c0,1,0.1,1.7,0.4,2.1c0.2,0.4,0.7,0.5,1.3,0.5c0.5,0,1-0.3,1.5-0.9c0.5-0.6,1-1.4,1.3-2.4
			c0.4-1,0.7-2.1,0.8-3.4C176,89.7,175.7,89.3,175.7,88.5z M214.3,86c0-0.9-0.3-1.3-0.8-1.3c-0.7,0-1.5,0.7-2.2,2
			c-0.7,1.4-1.3,2.9-1.6,4.6c0.8,0,1.6-0.3,2.3-0.8c0.7-0.5,1.3-1.2,1.7-2C214.1,87.7,214.3,86.9,214.3,86z"/>
	</g>
	<g>
		<path class="st6" d="M41.4,55.1c-0.6-0.5-0.8-1.3-0.8-2.4c0-1.4,0.6-2.7,1.7-4c1.1-1.3,2.6-2.3,4.3-3.1s3.5-1.2,5.2-1.2
			c0.3,0,0.7,0,1.3,0.1l0.3,19.7l6.7-19.6h4.1l0.3,19.6l6.7-19.6h2.2l-8.9,23.8h-4.6l-0.4-16.3l-6.1,16.3h-4.6l-0.5-21.9
			c-1.5,0.6-2.7,1.5-3.5,2.7s-1.2,2.7-1.2,4.4c0,0.8,0.1,1.3,0.2,1.6c0.1,0.3,0.2,0.5,0.2,0.5C42.8,55.8,42,55.6,41.4,55.1z
			 M117.1,55c-0.4,0-0.8,0.1-1.1,0.3c-0.3,0.2-0.7,0.5-1.2,0.9l-2.6,12.2h-4.6l0.8-3.5c-2.1,2.5-4.5,3.7-7.2,3.7
			c-1.6,0-2.8-0.4-3.7-1.2c-0.5-0.4-0.8-1-1-1.7c-0.5,0.7-1,1.3-1.6,1.7c-1.2,0.8-2.5,1.2-3.7,1.2c-1,0-1.9-0.3-2.5-1
			c-0.4-0.4-0.7-1.1-0.8-1.8c-0.4,0.7-0.9,1.2-1.4,1.5c-1.2,0.8-2.3,1.2-3.5,1.2c-0.9,0-1.6-0.3-2.2-0.8s-0.9-1.2-1-2.2
			c-0.6,0.9-1.3,1.6-2.1,2.1c-0.8,0.5-1.7,0.8-2.7,0.8c-1.2,0-2.2-0.4-3-1.2s-1.2-2.1-1.2-3.9c0-1.6,0.3-3.2,0.9-5
			c0.6-1.7,1.6-3.2,2.8-4.4s2.7-1.8,4.5-1.8c0.9,0,1.5,0.1,2,0.4s0.6,0.7,0.6,1.2v0.2l0.4-1.7h4.6l-2.3,10.9c-0.1,0.3-0.1,0.7-0.1,1
			c0,0.9,0.4,1.4,1.3,1.4c0.6,0,1.1-0.3,1.6-0.8c0.4-0.6,0.8-1.3,1-2.2l1.9-9h-1.1l0.3-1.3h1.1l1-4.4l4.7-0.6l-1.1,5.1h1.9l-0.3,1.3
			h-1.9l-2,9.6c-0.1,0.3-0.1,0.7-0.1,1c0,0.4,0.1,0.7,0.3,0.9c0.2,0.2,0.5,0.3,1,0.3c0.6,0,1.2-0.3,1.7-0.8c0.3-0.3,0.5-0.6,0.7-1
			c0-0.1,0-0.1,0-0.2c0-1.5,0.3-3.1,0.9-4.9s1.5-3.3,2.8-4.6c1.3-1.3,3-1.9,5-1.9c2.3,0,3.5,1,3.5,3.1c0,1.2-0.3,2.3-1,3.3
			s-1.6,1.8-2.7,2.4c-1.1,0.6-2.3,1-3.6,1c0,0.6-0.1,1.1-0.1,1.3c0,1,0.2,1.8,0.5,2.1c0.4,0.4,0.9,0.6,1.8,0.6c1.2,0,2.1-0.3,3-0.8
			c0.8-0.5,1.7-1.3,2.7-2.4l2.2-10.3h4.6l-0.4,2c0.7-0.6,1.4-1.1,2-1.5c0.6-0.3,1.2-0.5,1.9-0.5c0.7,0,1.2,0.2,1.6,0.7
			c0.4,0.5,0.6,1,0.6,1.7c0,0.6-0.2,1.2-0.6,1.6c-0.4,0.5-1,0.7-1.7,0.7c-0.5,0-0.8-0.1-0.9-0.3c-0.2-0.2-0.3-0.5-0.4-1
			c-0.1-0.3-0.1-0.5-0.2-0.6C117.4,55.1,117.3,55,117.1,55z M101.2,60.4c0.8,0,1.5-0.3,2.3-0.8c0.7-0.5,1.3-1.2,1.7-2
			c0.4-0.8,0.7-1.6,0.7-2.5c0-0.9-0.3-1.3-0.8-1.3c-0.8,0-1.5,0.7-2.3,2C102,57.2,101.5,58.7,101.2,60.4z M81.3,55.5
			c0-0.3-0.1-0.5-0.3-0.8c-0.2-0.3-0.5-0.4-1-0.4c-0.9,0-1.6,0.5-2.3,1.5c-0.7,1-1.2,2.2-1.6,3.6c-0.4,1.4-0.6,2.6-0.6,3.7
			c0,1.1,0.2,1.8,0.5,2c0.3,0.3,0.7,0.4,1.1,0.4c0.5,0,1.1-0.2,1.6-0.8c0.5-0.5,0.9-1.2,1.1-2.1L81.3,55.5z M152.2,44.4h-4.5
			l-3.2,14.8c-0.9,4.4-2.6,6.6-5,6.6c-1.7,0-2.5-1-2.5-3c0-1,0.2-2.1,0.5-3.5l3.9-14.8c-0.5-0.1-1.1-0.2-1.8-0.2
			c-2.1,0-4,0.4-5.9,1.2c-1.9,0.8-3.3,1.8-4.5,3.1c-1.1,1.3-1.7,2.6-1.7,4c0,1.1,0.3,1.9,1,2.5c0.7,0.6,1.6,0.9,2.8,0.9
			c-0.6-1-0.8-2-0.8-3c0-1.5,0.5-2.9,1.5-4.1c1-1.2,2.5-2.1,4.3-2.6l-3.3,13c-0.3,1.2-0.4,2.4-0.4,3.4c0,2,0.5,3.6,1.6,4.6
			c1.1,1,2.7,1.6,4.8,1.6c2.6,0,4.7-0.8,6.4-2.4c1.7-1.6,2.9-4,3.5-7.1L152.2,44.4z M151.4,61.5c0.8-1.5,1.6-3,2.2-4.5
			c0.6-1.5,1.2-3.2,1.8-4.9l4.7-0.6c0.1,2.7,0.3,5.7,0.5,8.9c0.1,1.3,0.2,2.2,0.2,2.8c0,0.5,0,0.9-0.1,1.2c0.8-0.4,1.4-0.9,1.9-1.2
			c0.1-1.3,0.3-2.8,0.8-4.4c0.6-1.8,1.5-3.3,2.8-4.6c1.3-1.3,3-1.9,5-1.9c2.3,0,3.5,1,3.5,3.1c0,1.2-0.3,2.3-1,3.3
			c-0.7,1-1.6,1.8-2.7,2.4c-1.1,0.6-2.3,1-3.6,1c0,0.5-0.1,0.8-0.1,1c0,1.8,0.7,2.7,2,2.7c0.6,0,1.2-0.2,1.9-0.5
			c0.7-0.3,1.3-0.7,1.9-1.2c-0.6,3.2-2.4,4.7-5.5,4.7c-1.6,0-2.8-0.4-3.6-1.2c-0.7-0.7-1.1-1.7-1.3-3c-1,0.8-2,1.6-3.2,2.3
			c-0.6,0.7-1.4,1.1-2.3,1.5c-0.9,0.3-1.8,0.5-2.7,0.5c-1,0-1.9-0.2-2.6-0.6c-0.7-0.4-1.2-0.9-1.6-1.5c-0.3-0.6-0.5-1.3-0.5-2
			c0-0.7,0.2-1.3,0.5-1.8C150.5,62.2,150.9,61.8,151.4,61.5z M167.5,60.4c0.8,0,1.6-0.3,2.3-0.8c0.7-0.5,1.3-1.2,1.7-2
			c0.4-0.8,0.7-1.6,0.7-2.5c0-0.9-0.3-1.3-0.8-1.3c-0.7,0-1.5,0.7-2.2,2C168.4,57.2,167.9,58.7,167.5,60.4z M151.4,63.8
			c0,0.8,0.2,1.3,0.5,1.7c0.3,0.4,0.8,0.5,1.5,0.5c0.8,0,1.5-0.2,2-0.7c0.5-0.5,0.8-1.2,0.8-2.3c0-0.6-0.1-1.5-0.2-2.7
			c-0.2-2.4-0.4-4.1-0.4-4.9c-0.5,1.7-1.4,3.7-2.6,6c0.5,0.3,0.7,0.6,0.7,1.1c0,0.4-0.1,0.8-0.4,1.1c-0.3,0.3-0.6,0.5-1,0.5
			C151.8,64.3,151.5,64.1,151.4,63.8z M185.2,55.8c0,0-0.1-0.2-0.2-0.5c-0.1-0.3-0.2-0.9-0.2-1.6c0-1.7,0.4-3.2,1.2-4.3
			c0.8-1.2,1.9-2.1,3.3-2.6l-4.6,21.7h4.6l5.1-23.9c-0.6,0-1-0.1-1.3-0.1c-1.7,0-3.5,0.4-5.2,1.2s-3.2,1.8-4.3,3.1
			c-1.1,1.3-1.7,2.6-1.7,4c0,1.1,0.3,1.9,0.8,2.4C183.2,55.6,184,55.8,185.2,55.8z M227.3,50.7c0.7,0,1.3-0.2,1.8-0.7
			c0.5-0.5,0.8-1.1,0.8-1.8s-0.3-1.3-0.8-1.8c-0.5-0.5-1.1-0.8-1.8-0.8s-1.3,0.3-1.8,0.8c-0.5,0.5-0.7,1.1-0.7,1.8s0.2,1.3,0.7,1.8
			C226,50.5,226.6,50.7,227.3,50.7z M251.7,62c0,0.5-0.1,0.8-0.1,1c0,1.8,0.7,2.7,2,2.7c0.6,0,1.2-0.2,1.9-0.5
			c0.7-0.3,1.3-0.7,1.9-1.2c-0.6,3.2-2.4,4.7-5.5,4.7c-1.6,0-2.8-0.4-3.6-1.2c-0.5-0.4-0.8-1-1-1.7c-1.3,1.8-2.9,2.7-4.9,2.7
			c-0.9,0-1.6-0.2-2.1-0.7c-0.5-0.5-0.9-1.2-1-2c-0.6,0.9-1.2,1.6-2,2.1c-0.8,0.6-1.7,0.8-2.7,0.8c-1.2,0-2.2-0.4-3-1.2
			c-0.4-0.4-0.7-1-0.9-1.6c-0.5,0.7-1,1.3-1.6,1.6c-1.2,0.8-2.5,1.2-3.7,1.2c-1,0-1.9-0.3-2.5-1c-0.6-0.6-0.9-1.6-0.9-2.9
			c0-0.2,0-0.3,0-0.5c-1,0.9-2.1,1.7-3.3,2.4c-0.6,0.7-1.4,1.1-2.3,1.5c-0.9,0.3-1.8,0.5-2.7,0.5c-1,0-1.9-0.2-2.6-0.6
			c-0.7-0.4-1.2-0.9-1.6-1.5c-0.3,0.4-0.6,0.7-0.9,0.9c-1,0.8-2.1,1.2-3.2,1.2c-1.3,0-2.3-0.3-2.9-1c-0.6-0.7-0.9-1.6-0.9-2.6
			c0-0.4,0.1-1,0.2-1.5c0.1-0.6,0.2-1.1,0.3-1.6c0.1-0.5,0.2-0.9,0.2-1c0.2-0.7,0.3-1.5,0.5-2.2c0.1-0.7,0.2-1.3,0.2-1.8
			c0-1.1-0.4-1.6-1.2-1.6c-0.6,0-1,0.3-1.5,0.8s-0.8,1.3-1,2.1L197,68.4h-4.6l3.4-16h4.6l-0.4,1.7c1.1-1.2,2.3-1.8,3.7-1.8
			c1.1,0,2,0.3,2.6,0.9c0.6,0.6,1,1.5,1,2.7c0,0.6-0.1,1.3-0.2,2.1c-0.1,0.8-0.4,1.7-0.6,2.8c-0.2,0.7-0.3,1.3-0.5,1.9
			c-0.1,0.6-0.2,1.1-0.2,1.5c0,0.4,0.1,0.8,0.3,1c0.2,0.2,0.5,0.4,1,0.4c0.6,0,1.2-0.2,1.5-0.7c0-0.1,0.1-0.1,0.1-0.2
			c0,0,0-0.1,0-0.1c0-0.7,0.2-1.3,0.5-1.8c0.3-0.5,0.7-0.9,1.2-1.1c0.8-1.5,1.6-3,2.2-4.5c0.6-1.5,1.2-3.2,1.8-4.9l4.7-0.6
			c0.1,2.7,0.3,5.7,0.5,8.9c0.1,1.3,0.2,2.2,0.2,2.8c0,0.5,0,0.9-0.1,1.2c1-0.6,1.8-1.1,2.3-1.6l2.2-10.3h4.6l-2.3,10.9
			c-0.1,0.3-0.1,0.7-0.1,1c0,0.4,0.1,0.7,0.3,0.9c0.2,0.2,0.5,0.3,1,0.3c0.6,0,1.2-0.3,1.7-0.8c0.3-0.3,0.5-0.6,0.8-1
			c0-0.1,0-0.2,0-0.2c0-1.6,0.3-3.2,0.9-5c0.6-1.7,1.6-3.2,2.8-4.4s2.7-1.8,4.5-1.8c0.9,0,1.5,0.1,2,0.4s0.6,0.7,0.6,1.2V54l1.6-7.4
			l4.7-0.6l-3.7,17.3c-0.1,0.3-0.1,0.7-0.1,1c0,0.4,0.1,0.7,0.3,0.9c0.2,0.2,0.5,0.3,1,0.3c0.6,0,1.1-0.3,1.6-0.8
			c0.2-0.3,0.4-0.6,0.6-0.9c0-0.1,0-0.2,0-0.3c0-1.5,0.3-3.1,0.9-4.9s1.5-3.3,2.8-4.6c1.3-1.3,3-1.9,5-1.9c2.3,0,3.5,1,3.5,3.1
			c0,1.2-0.3,2.3-1,3.3c-0.7,1-1.6,1.8-2.7,2.4C254.1,61.5,252.9,61.9,251.7,62z M251.9,60.4c0.8,0,1.6-0.3,2.3-0.8
			c0.7-0.5,1.3-1.2,1.7-2c0.4-0.8,0.7-1.6,0.7-2.5c0-0.9-0.3-1.3-0.8-1.3c-0.7,0-1.5,0.7-2.2,2C252.8,57.2,252.2,58.7,251.9,60.4z
			 M215.2,63.1c0-0.6-0.1-1.5-0.2-2.7c-0.2-2.4-0.4-4.1-0.4-4.9c-0.5,1.7-1.4,3.7-2.6,6c0.5,0.3,0.7,0.6,0.7,1.1
			c0,0.4-0.1,0.8-0.4,1.1c-0.3,0.3-0.6,0.5-1,0.5c-0.3,0-0.5-0.1-0.7-0.2c0,0.1-0.1,0.2-0.1,0.3c0.1,0.5,0.2,0.9,0.4,1.2
			c0.3,0.4,0.8,0.5,1.5,0.5c0.8,0,1.5-0.2,2-0.7C214.9,64.9,215.2,64.2,215.2,63.1z M240.6,55.4c-0.2-0.7-0.6-1.1-1.3-1.1
			c-0.9,0-1.6,0.5-2.3,1.5c-0.7,1-1.2,2.2-1.6,3.6c-0.4,1.4-0.6,2.6-0.6,3.7c0,1.1,0.2,1.8,0.5,2c0.3,0.3,0.7,0.4,1.1,0.4
			c0.5,0,1-0.2,1.6-0.7c0.5-0.5,0.9-1.1,1.1-2v-0.2L240.6,55.4z M76.8,82.2c0,1.2-0.3,2.3-1,3.3c-0.7,1-1.6,1.8-2.7,2.4
			c-1.1,0.6-2.3,1-3.6,1c0,0.5-0.1,0.8-0.1,1c0,1.8,0.7,2.7,2,2.7c0.6,0,1.2-0.2,1.9-0.5c0.7-0.3,1.3-0.7,1.9-1.2
			c-0.6,3.2-2.4,4.7-5.5,4.7c-1.6,0-2.8-0.4-3.6-1.2c-0.4-0.4-0.7-0.9-0.9-1.5c-0.4,0.7-0.8,1.2-1.3,1.5c-1,0.8-2.1,1.2-3.2,1.2
			c-1.3,0-2.3-0.3-2.9-1C57,93.9,56.7,93,56.7,92c0-0.4,0.1-1,0.2-1.5c0.1-0.6,0.2-1.1,0.3-1.6c0.1-0.5,0.2-0.9,0.2-1
			c0.2-0.7,0.3-1.5,0.5-2.2c0.1-0.7,0.2-1.3,0.2-1.8c0-1.1-0.4-1.6-1.2-1.6c-0.6,0-1,0.3-1.5,0.8s-0.8,1.3-1,2.1l-2.2,10.3h-4.6
			l0.4-1.8c-0.3,0.3-0.6,0.5-0.9,0.7c-1.2,0.8-2.5,1.2-3.7,1.2c-1,0-1.9-0.3-2.5-1c-0.6-0.6-0.9-1.6-0.9-2.9c0-0.5,0.1-1.2,0.3-2.1
			l1.9-9h-1.1l0.3-1.3h1.1l1-4.4l4.7-0.6l-1.1,5.1h1.9l-0.3,1.3h-1.9l-2,9.6c-0.1,0.3-0.1,0.7-0.1,1c0,0.4,0.1,0.7,0.3,0.9
			c0.2,0.2,0.5,0.3,1,0.3c0.6,0,1.2-0.3,1.7-0.8c0.5-0.5,0.9-1.2,1.2-2h0l3.4-16l4.7-0.6l-1.7,8.1c1.1-1.2,2.3-1.8,3.7-1.8
			c1.1,0,2,0.3,2.6,0.9c0.6,0.6,1,1.5,1,2.7c0,0.6-0.1,1.3-0.2,2.1c-0.1,0.8-0.4,1.7-0.6,2.8c-0.2,0.7-0.3,1.3-0.5,1.9
			c-0.1,0.6-0.2,1.1-0.2,1.5c0,0.4,0.1,0.8,0.3,1c0.2,0.2,0.5,0.4,1,0.4c0.6,0,1.2-0.2,1.5-0.7c0.2-0.3,0.5-0.7,0.7-1.2
			c0-0.1,0-0.1,0-0.1c0-1.5,0.3-3.1,0.9-4.9s1.5-3.3,2.8-4.6c1.3-1.3,3-1.9,5-1.9C75.6,79.1,76.8,80.2,76.8,82.2z M74.3,82.1
			c0-0.9-0.3-1.3-0.8-1.3c-0.7,0-1.5,0.7-2.2,2c-0.7,1.4-1.3,2.9-1.6,4.6c0.8,0,1.6-0.3,2.3-0.8c0.7-0.5,1.3-1.2,1.7-2
			C74.1,83.9,74.3,83,74.3,82.1z M103.6,71.4l-3.2,14.8c-0.9,4.4-2.6,6.6-5,6.6c-1.7,0-2.5-1-2.5-3c0-1,0.2-2.1,0.5-3.5l3.9-14.8
			c-0.5-0.1-1.1-0.2-1.8-0.2c-2.1,0-4,0.4-5.9,1.2c-1.9,0.8-3.3,1.8-4.5,3.1c-1.1,1.3-1.7,2.6-1.7,4c0,1.1,0.3,1.9,1,2.5
			c0.7,0.6,1.6,0.9,2.8,0.9c-0.6-1-0.8-2-0.8-3c0-1.5,0.5-2.9,1.5-4.1c1-1.2,2.5-2.1,4.3-2.6l-3.3,13c-0.3,1.2-0.4,2.4-0.4,3.4
			c0,2,0.5,3.6,1.6,4.6c1.1,1,2.7,1.6,4.8,1.6c2.6,0,4.7-0.8,6.4-2.4c1.7-1.6,2.9-4,3.5-7.1l3.1-14.8H103.6z M110.2,90.5
			c-0.7,0-1.3,0.3-1.8,0.8c-0.5,0.5-0.7,1.1-0.7,1.8c0,0.7,0.2,1.3,0.7,1.8c0.5,0.5,1.1,0.7,1.8,0.7c0.7,0,1.3-0.2,1.8-0.7
			c0.5-0.5,0.8-1.1,0.8-1.8c0-0.7-0.3-1.3-0.8-1.8C111.5,90.7,110.9,90.5,110.2,90.5z M131.2,72.5c-1-0.8-2.4-1.2-4.1-1.2
			c-1.4,0-2.6,0.3-3.7,0.8c-1.1,0.5-1.9,1.2-2.6,2.1c-0.6,0.9-0.9,1.9-0.9,3c0,1.1,0.3,2.2,0.9,3.1s1.5,2.1,2.6,3.4
			c1.1,1.3,1.9,2.4,2.5,3.3c0.6,0.9,0.8,1.8,0.8,2.8c0,1.2-0.4,2.1-1.1,2.9s-1.7,1.1-2.8,1.1c-0.9,0-1.7-0.3-2.2-0.8
			s-0.8-1.3-0.8-2.2c0-1,0.3-1.8,1-2.4c0.7-0.6,1.5-0.9,2.7-0.9c-0.1-0.7-0.4-1.2-1-1.6c-0.5-0.4-1.1-0.6-1.9-0.6
			c-0.8,0-1.6,0.2-2.2,0.7s-1.2,1.1-1.6,1.8s-0.6,1.6-0.6,2.6c0,1.1,0.3,2.1,0.8,2.9s1.3,1.5,2.4,2c1,0.5,2.2,0.7,3.6,0.7
			c1.6,0,3.1-0.3,4.4-1c1.3-0.6,2.3-1.5,3.1-2.6c0.8-1.1,1.1-2.3,1.1-3.7c0-1-0.2-1.9-0.6-2.8c-0.4-0.9-0.8-1.6-1.3-2.3
			s-1.2-1.5-2.1-2.4c-1-1.2-1.8-2.1-2.3-2.8c-0.5-0.7-0.7-1.5-0.7-2.4c0-0.9,0.3-1.7,0.8-2.3s1.2-0.9,2.1-0.9c0.7,0,1.3,0.2,1.7,0.6
			s0.6,0.9,0.6,1.6c0,0.5-0.1,1-0.4,1.5c-0.2,0.5-0.6,0.9-1,1.2c0.5,0.7,1.1,1,2,1c0.7,0,1.3-0.3,1.8-0.8c0.4-0.6,0.7-1.3,0.7-2.2
			C132.8,74.4,132.2,73.3,131.2,72.5z M136.8,90.5c-0.7,0-1.3,0.3-1.8,0.8c-0.5,0.5-0.7,1.1-0.7,1.8c0,0.7,0.2,1.3,0.7,1.8
			c0.5,0.5,1.1,0.7,1.8,0.7c0.7,0,1.3-0.2,1.8-0.7c0.5-0.5,0.8-1.1,0.8-1.8c0-0.7-0.3-1.3-0.8-1.8C138.1,90.7,137.5,90.5,136.8,90.5
			z M166.3,71.5l-2,9.5h-4.7l2-9.5c-0.6,0-1-0.1-1.3-0.1c-1.8,0-3.5,0.4-5.2,1.2c-1.8,0.8-3.2,1.8-4.3,3.1c-1.1,1.3-1.7,2.6-1.7,4
			c0,1.1,0.3,1.9,0.8,2.4c0.6,0.5,1.4,0.7,2.6,0.7c0,0-0.1-0.2-0.2-0.5c-0.1-0.3-0.2-0.9-0.2-1.6c0-1.7,0.4-3.1,1.2-4.3
			c0.8-1.2,1.9-2.1,3.3-2.7l-4.6,21.8h4.6l2.6-12h4.7l-2.6,12h4.6l5.1-23.9H166.3z M219.8,82.2c0,1.2-0.3,2.3-1,3.3
			c-0.7,1-1.6,1.8-2.7,2.4c-1.1,0.6-2.3,1-3.6,1c0,0.5-0.1,0.8-0.1,1c0,1.8,0.7,2.7,2,2.7c0.6,0,1.2-0.2,1.9-0.5
			c0.7-0.3,1.3-0.7,1.9-1.2c-0.6,3.2-2.4,4.7-5.5,4.7c-1.6,0-2.8-0.4-3.6-1.2c-0.4-0.4-0.7-0.9-0.9-1.5c-0.4,0.7-0.8,1.2-1.3,1.5
			c-1,0.8-2.1,1.2-3.2,1.2c-1.3,0-2.3-0.3-2.9-1c-0.6-0.7-0.9-1.6-0.9-2.6c0-0.4,0.1-1,0.2-1.5c0.1-0.6,0.2-1.1,0.3-1.6
			s0.2-0.9,0.2-1c0.2-0.7,0.3-1.5,0.5-2.2c0.1-0.7,0.2-1.3,0.2-1.8c0-1.1-0.4-1.6-1.2-1.6c-0.6,0-1,0.3-1.5,0.8s-0.8,1.3-1,2.1
			l-2.2,10.3h-4.6l2.3-11c0.1-0.3,0.1-0.5,0.1-0.8c0-0.9-0.3-1.4-1-1.4c-0.6,0-1.1,0.3-1.6,0.8c-0.4,0.5-0.8,1.3-1,2.2l-2.2,10.3
			h-4.6l2.2-10.3c-0.8,0.3-1.7,0.6-2.7,0.8c-0.2,1.9-0.6,3.6-1.3,5.1c-0.7,1.5-1.6,2.6-2.7,3.4s-2.3,1.2-3.6,1.2
			c-1.6,0-2.8-0.4-3.7-1.2s-1.4-2.1-1.4-3.8c0-1.5,0.3-3.1,0.9-4.8c0.6-1.8,1.6-3.3,2.9-4.6c1.3-1.3,3-1.9,5-1.9
			c2.7,0,4.1,1.7,4.1,5.1v0c0.1,0,0.2,0,0.4,0c0.7,0,1.5-0.2,2.4-0.6c0,0,0.1,0,0.1-0.1l0.9-4.3h4.6l-0.4,1.7
			c1.1-1.2,2.4-1.8,3.9-1.8c1.9,0,3,0.9,3.3,2.8c1.2-1.8,2.7-2.7,4.4-2.7c1.1,0,2,0.3,2.6,0.9c0.6,0.6,1,1.5,1,2.7
			c0,0.6-0.1,1.3-0.2,2.1c-0.1,0.8-0.4,1.7-0.6,2.8c-0.2,0.7-0.3,1.3-0.5,1.9c-0.1,0.6-0.2,1.1-0.2,1.5c0,0.4,0.1,0.8,0.3,1
			c0.2,0.2,0.5,0.4,1,0.4c0.6,0,1.2-0.2,1.5-0.7c0.2-0.3,0.5-0.7,0.7-1.2c0-0.1,0-0.1,0-0.1c0-1.5,0.3-3.1,0.9-4.9s1.5-3.3,2.8-4.6
			c1.3-1.3,3-1.9,5-1.9C218.6,79.1,219.8,80.2,219.8,82.2z M178.7,84.7c0-0.9,0.3-1.5,1-1.7c0-0.7-0.1-1.2-0.3-1.5s-0.5-0.4-0.9-0.4
			c-0.7,0-1.4,0.5-2,1.5c-0.7,1-1.2,2.3-1.6,3.7c-0.4,1.4-0.6,2.7-0.6,3.8c0,1,0.1,1.7,0.4,2.1c0.2,0.4,0.7,0.5,1.3,0.5
			c0.5,0,1-0.3,1.5-0.9c0.5-0.6,1-1.4,1.3-2.4c0.4-1,0.7-2.1,0.8-3.4C179,85.9,178.7,85.4,178.7,84.7z M217.3,82.1
			c0-0.9-0.3-1.3-0.8-1.3c-0.7,0-1.5,0.7-2.2,2c-0.7,1.4-1.3,2.9-1.6,4.6c0.8,0,1.6-0.3,2.3-0.8c0.7-0.5,1.3-1.2,1.7-2
			C217.1,83.9,217.3,83,217.3,82.1z"/>
	</g>
	<g>
		<g>
			<path class="st6" d="M194.6,159.7c-1.6,0-3-1.3-3-3c0-1.1,0.6-2,1.5-2.6v-43.1H412v3H196.1v40.1c0.9,0.5,1.5,1.5,1.5,2.6
				C197.6,158.4,196.3,159.7,194.6,159.7z"/>
			<path class="st8" d="M411,112.1v1H195.1v41.8c0.8,0.2,1.5,1,1.5,1.9c0,1.1-0.9,2-2,2c-1.1,0-2-0.9-2-2c0-0.9,0.6-1.7,1.5-1.9
				v-42.8H411 M413,110.1h-2H194.1h-2v2v41.6c-0.9,0.7-1.5,1.9-1.5,3.1c0,2.2,1.8,4,4,4s4-1.8,4-4c0-1.2-0.6-2.3-1.5-3.1v-38.6H411
				h2v-2v-1V110.1L413,110.1z"/>
		</g>
		<g>
			<path class="st6" d="M289.1,191.8c-1.6,0-3-1.3-3-3c0-1.1,0.6-2,1.5-2.6v-55.6H412v3H290.6v52.6c0.9,0.5,1.5,1.5,1.5,2.6
				C292,190.5,290.7,191.8,289.1,191.8z"/>
			<path class="st8" d="M411,131.7v1H289.6V187c0.8,0.2,1.5,1,1.5,1.9c0,1.1-0.9,2-2,2s-2-0.9-2-2c0-0.9,0.6-1.7,1.5-1.9v-55.3H411
				 M413,129.7h-2H288.6h-2v2v54.1c-0.9,0.7-1.5,1.9-1.5,3.1c0,2.2,1.8,4,4,4s4-1.8,4-4c0-1.2-0.6-2.3-1.5-3.1v-51.1H411h2v-2v-1
				V129.7L413,129.7z"/>
		</g>
		<g>
			<path class="st6" d="M301.6,289c-1.6,0-3-1.3-3-3s1.3-3,3-3c1.1,0,2,0.6,2.6,1.5h54.6V149.2H412v3h-50.3v135.3h-57.6
				C303.6,288.4,302.6,289,301.6,289z"/>
			<path class="st8" d="M411,150.2v1h-50.3v135.3h-57.2c-0.2,0.8-1,1.5-1.9,1.5c-1.1,0-2-0.9-2-2c0-1.1,0.9-2,2-2
				c0.9,0,1.7,0.6,1.9,1.5h56.2V150.2H411 M413,148.2h-2h-51.3h-2v2v133.3h-53c-0.7-0.9-1.9-1.5-3.1-1.5c-2.2,0-4,1.8-4,4s1.8,4,4,4
				c1.2,0,2.3-0.6,3.1-1.5h56h2v-2V153.2H411h2v-2v-1V148.2L413,148.2z"/>
		</g>
		<g>
			<path class="st6" d="M223.3,384.6v-41.7c-0.9-0.5-1.5-1.5-1.5-2.6c0-1.6,1.3-3,3-3c1.6,0,3,1.3,3,3c0,1.1-0.6,2-1.5,2.6v38.7h145
				V169H412v3h-37.7v212.6H223.3z"/>
			<path class="st8" d="M411,170v1h-37.7v212.6h-149v-41.4c-0.8-0.2-1.5-1-1.5-1.9c0-1.1,0.9-2,2-2c1.1,0,2,0.9,2,2
				c0,0.9-0.6,1.7-1.5,1.9v40.4h147V170H411 M413,168h-2h-38.7h-2v2v210.6h-143v-37.2c0.9-0.7,1.5-1.9,1.5-3.1c0-2.2-1.8-4-4-4
				s-4,1.8-4,4c0,1.2,0.6,2.3,1.5,3.1v40.2v2h2h149h2v-2V173H411h2v-2v-1V168L413,168z"/>
		</g>
		<g>
			<path class="st6" d="M137.9,397.7v-107c-0.9-0.5-1.5-1.5-1.5-2.6c0-1.6,1.3-3,3-3c1.6,0,3,1.3,3,3c0,1.1-0.6,2-1.5,2.6v104h242.9
				V189.1H412v3h-25.2v205.5H137.9z"/>
			<path class="st8" d="M411,190.1v1h-25.2v205.5H138.9V290c-0.8-0.2-1.5-1-1.5-1.9c0-1.1,0.9-2,2-2c1.1,0,2,0.9,2,2
				c0,0.9-0.6,1.7-1.5,1.9v105.7h244.9V190.1H411 M413,188.1h-2h-26.2h-2v2v203.5H141.9V291.2c0.9-0.7,1.5-1.9,1.5-3.1
				c0-2.2-1.8-4-4-4s-4,1.8-4,4c0,1.2,0.6,2.3,1.5,3.1v105.5v2h2h246.9h2v-2V193.1H411h2v-2v-1V188.1L413,188.1z"/>
		</g>
		<g>
			<path class="st6" d="M122.9,410.9V197.8h21.2c0.5-0.9,1.5-1.5,2.6-1.5c1.6,0,3,1.3,3,3s-1.3,3-3,3c-1.1,0-2-0.6-2.6-1.5h-18.2
				v207.1h271.3V209.2H412v3h-11.7v198.7H122.9z"/>
			<path class="st8" d="M146.7,197.4c1.1,0,2,0.9,2,2c0,1.1-0.9,2-2,2c-0.9,0-1.7-0.6-1.9-1.5h-19.9v209.1h273.3V210.2H411v1h-11.7
				v198.7H123.9V198.8h20.9C145,198,145.8,197.4,146.7,197.4 M146.7,195.4c-1.2,0-2.3,0.6-3.1,1.5h-19.7h-2v2v211.1v2h2h275.3h2v-2
				V213.2h9.7h2v-2v-1v-2h-2h-12.7h-2v2v196.7H126.9V201.8h16.7c0.7,0.9,1.9,1.5,3.1,1.5c2.2,0,4-1.8,4-4
				C150.7,197.2,148.9,195.4,146.7,195.4L146.7,195.4z"/>
		</g>
	</g>
	<g>
		<path class="st6" d="M419.5,116.2c-0.4-0.4-0.6-1-0.6-1.7v-5.3c0-0.7,0.2-1.3,0.6-1.7c0.4-0.4,1-0.7,1.7-0.7
			c0.7,0,1.2,0.2,1.7,0.7c0.4,0.4,0.6,1,0.6,1.7v5.3c0,0.7-0.2,1.3-0.6,1.7c-0.4,0.4-1,0.7-1.7,0.7
			C420.5,116.9,419.9,116.7,419.5,116.2z M422.3,115.8c0.3-0.3,0.4-0.7,0.4-1.2v-5.4c0-0.5-0.1-0.9-0.4-1.2s-0.7-0.5-1.1-0.5
			c-0.5,0-0.8,0.2-1.1,0.5c-0.3,0.3-0.4,0.7-0.4,1.2v5.4c0,0.5,0.1,0.9,0.4,1.2c0.3,0.3,0.7,0.5,1.1,0.5
			C421.6,116.2,422,116.1,422.3,115.8z"/>
		<path class="st6" d="M427.4,110.3h-1.1c0,0-0.1,0-0.1,0.1v4.5c0,0.5,0.1,0.8,0.2,1c0.2,0.2,0.4,0.3,0.8,0.3h0.1
			c0.1,0,0.1,0,0.1,0.1v0.4c0,0.1,0,0.1-0.1,0.1h-0.3c-0.5,0-0.9-0.1-1.2-0.4c-0.3-0.2-0.4-0.7-0.4-1.4v-4.7c0,0,0-0.1-0.1-0.1h-0.6
			c-0.1,0-0.1,0-0.1-0.1v-0.3c0-0.1,0-0.1,0.1-0.1h0.6c0,0,0.1,0,0.1-0.1v-1.6c0-0.1,0-0.1,0.1-0.1h0.4c0.1,0,0.1,0,0.1,0.1v1.6
			c0,0,0,0.1,0.1,0.1h1.1c0.1,0,0.1,0,0.1,0.1v0.3C427.5,110.2,427.5,110.3,427.4,110.3z"/>
		<path class="st6" d="M432.5,110.2c0.3,0.4,0.5,0.9,0.5,1.6v4.8c0,0.1,0,0.1-0.1,0.1h-0.5c-0.1,0-0.1,0-0.1-0.1v-4.8
			c0-0.5-0.1-0.9-0.3-1.2c-0.2-0.3-0.5-0.4-0.9-0.4c-0.4,0-0.7,0.1-1,0.4s-0.4,0.7-0.4,1.2v4.7c0,0.1,0,0.1-0.1,0.1h-0.5
			c-0.1,0-0.1,0-0.1-0.1v-9.5c0-0.1,0-0.1,0.1-0.1h0.5c0.1,0,0.1,0,0.1,0.1v3.3c0,0,0,0,0,0s0,0,0,0c0.3-0.5,0.8-0.8,1.5-0.8
			C431.8,109.6,432.2,109.8,432.5,110.2z"/>
		<path class="st6" d="M438.6,113.5h-3.2c0,0-0.1,0-0.1,0.1v1.2c0,0.4,0.1,0.8,0.4,1.1s0.6,0.4,1,0.4c0.3,0,0.6-0.1,0.8-0.3
			s0.4-0.5,0.5-0.8c0-0.1,0.1-0.1,0.2-0.1l0.4,0c0,0,0.1,0,0.1,0c0,0,0,0,0,0.1v0.1c-0.1,0.5-0.3,0.9-0.7,1.2
			c-0.4,0.3-0.8,0.4-1.4,0.4c-0.6,0-1.1-0.2-1.5-0.6c-0.4-0.4-0.6-0.9-0.6-1.5v-3.1c0-0.6,0.2-1.1,0.6-1.5s0.9-0.6,1.5-0.6
			c0.6,0,1.1,0.2,1.5,0.6s0.6,0.9,0.6,1.5v1.7C438.8,113.5,438.7,113.5,438.6,113.5z M435.7,110.7c-0.2,0.3-0.4,0.6-0.4,1.1v1.1
			c0,0,0,0.1,0.1,0.1h2.6c0,0,0.1,0,0.1-0.1v-1.1c0-0.4-0.1-0.8-0.4-1.1c-0.2-0.3-0.6-0.4-1-0.4C436.3,110.3,436,110.4,435.7,110.7z
			"/>
		<path class="st6" d="M443.1,109.8c0.1,0,0.1,0.1,0.1,0.2l-0.1,0.5c0,0.1-0.1,0.1-0.2,0.1c-0.1-0.1-0.3-0.1-0.5-0.1
			c-0.4,0-0.7,0.2-0.9,0.6s-0.4,0.8-0.4,1.3v4.3c0,0.1,0,0.1-0.1,0.1h-0.5c-0.1,0-0.1,0-0.1-0.1v-6.8c0-0.1,0-0.1,0.1-0.1h0.5
			c0.1,0,0.1,0,0.1,0.1v0.9c0,0,0,0,0,0s0,0,0,0c0.1-0.3,0.3-0.6,0.5-0.8s0.5-0.3,0.8-0.3C442.8,109.7,443,109.7,443.1,109.8z"/>
		<path class="st6" d="M450.2,111.6c0.3,0.2,0.6,0.4,0.7,0.8c0.2,0.4,0.3,1,0.3,1.7c0,0.5-0.1,0.9-0.2,1.3c-0.2,0.5-0.4,0.8-0.7,1.1
			c-0.3,0.3-0.7,0.4-1.2,0.4c-0.5,0-0.9-0.1-1.2-0.4c-0.3-0.3-0.6-0.6-0.7-1.1c-0.1-0.4-0.2-0.9-0.2-1.4c0-0.6,0.1-1.1,0.3-1.5
			c0.2-0.4,0.4-0.7,0.8-0.9c0,0,0-0.1,0-0.1c-0.3-0.2-0.6-0.4-0.7-0.7c-0.2-0.4-0.3-0.9-0.3-1.5c0-0.6,0.1-1.1,0.3-1.5
			c0.2-0.3,0.4-0.6,0.7-0.7s0.7-0.3,1.1-0.3c0.4,0,0.8,0.1,1.1,0.3c0.3,0.2,0.6,0.4,0.7,0.7c0.2,0.4,0.3,0.9,0.3,1.5
			c0,0.6-0.1,1-0.3,1.4C450.8,111.1,450.5,111.3,450.2,111.6C450.1,111.5,450.1,111.6,450.2,111.6z M448,110.5
			c0.2,0.5,0.6,0.7,1.1,0.7c0.3,0,0.5-0.1,0.7-0.2c0.2-0.1,0.4-0.3,0.5-0.6c0.2-0.3,0.2-0.7,0.2-1.1c0-0.5-0.1-0.9-0.3-1.2
			c-0.1-0.2-0.3-0.4-0.5-0.5c-0.2-0.1-0.4-0.2-0.7-0.2c-0.5,0-0.9,0.2-1.1,0.7c-0.2,0.3-0.2,0.7-0.2,1.2
			C447.7,109.8,447.8,110.2,448,110.5z M450.5,114c0-0.5-0.1-1-0.2-1.3c-0.2-0.6-0.6-0.8-1.2-0.8c-0.3,0-0.5,0.1-0.7,0.2
			c-0.2,0.2-0.4,0.4-0.5,0.7c-0.1,0.3-0.2,0.8-0.2,1.3c0,0.4,0.1,0.8,0.2,1.1c0.1,0.3,0.3,0.6,0.5,0.8c0.2,0.2,0.5,0.3,0.8,0.3
			c0.3,0,0.6-0.1,0.8-0.3c0.2-0.2,0.4-0.5,0.5-0.8C450.5,114.8,450.5,114.4,450.5,114z"/>
		<path class="st6" d="M454.1,110.4c-0.3-0.2-0.5-0.4-0.7-0.7c-0.2-0.3-0.3-0.6-0.3-1c0-0.3,0.1-0.7,0.3-1s0.4-0.5,0.7-0.7
			s0.6-0.3,1-0.3c0.3,0,0.7,0.1,1,0.3s0.5,0.4,0.7,0.7s0.3,0.6,0.3,1c0,0.4-0.1,0.7-0.3,1c-0.2,0.3-0.4,0.5-0.7,0.7
			c-0.3,0.2-0.6,0.3-1,0.3C454.7,110.7,454.4,110.6,454.1,110.4z M456,109.8c0.3-0.3,0.4-0.6,0.4-1c0-0.4-0.1-0.7-0.4-1
			c-0.3-0.3-0.6-0.4-1-0.4c-0.4,0-0.7,0.1-1,0.4c-0.3,0.3-0.4,0.6-0.4,1c0,0.4,0.1,0.8,0.4,1c0.3,0.3,0.6,0.4,1,0.4
			C455.4,110.2,455.8,110.1,456,109.8z M454.7,116.7c0,0,0-0.1,0-0.1l5.1-9.5c0-0.1,0.1-0.1,0.2-0.1h0.3c0.1,0,0.1,0,0.1,0
			c0,0,0,0.1,0,0.1l-5.1,9.5c0,0.1-0.1,0.1-0.2,0.1h-0.3C454.7,116.8,454.7,116.7,454.7,116.7z M459.1,116.6
			c-0.3-0.2-0.5-0.4-0.7-0.7s-0.3-0.6-0.3-1s0.1-0.7,0.3-1s0.4-0.5,0.7-0.7c0.3-0.2,0.6-0.3,1-0.3c0.3,0,0.6,0.1,0.9,0.3
			c0.3,0.2,0.5,0.4,0.7,0.7c0.2,0.3,0.3,0.6,0.3,1c0,0.4-0.1,0.7-0.3,1s-0.4,0.5-0.7,0.7c-0.3,0.2-0.6,0.3-0.9,0.3
			C459.7,116.9,459.4,116.8,459.1,116.6z M461,116c0.3-0.3,0.4-0.6,0.4-1s-0.1-0.7-0.4-1c-0.3-0.3-0.6-0.4-1-0.4
			c-0.4,0-0.7,0.1-1,0.4s-0.4,0.6-0.4,1c0,0.4,0.1,0.8,0.4,1c0.3,0.3,0.6,0.4,1,0.4C460.4,116.4,460.8,116.3,461,116z"/>
	</g>
	<g>
		<path class="st6" d="M423.3,127.3v0.4c0,0.1,0,0.1-0.1,0.1h-1.9c0,0-0.1,0-0.1,0.1v8.9c0,0.1,0,0.1-0.1,0.1h-0.5
			c-0.1,0-0.1,0-0.1-0.1v-8.9c0,0,0-0.1-0.1-0.1h-1.8c-0.1,0-0.1,0-0.1-0.1v-0.4c0-0.1,0-0.1,0.1-0.1h4.5
			C423.2,127.1,423.3,127.2,423.3,127.3z"/>
		<path class="st6" d="M424.4,136.5c-0.4-0.4-0.6-0.9-0.6-1.5v-3.1c0-0.6,0.2-1.1,0.6-1.5s0.9-0.6,1.5-0.6c0.6,0,1.1,0.2,1.5,0.6
			s0.6,0.9,0.6,1.5v3.1c0,0.6-0.2,1.1-0.6,1.5c-0.4,0.4-0.9,0.6-1.5,0.6C425.3,137,424.8,136.9,424.4,136.5z M426.9,136
			c0.3-0.3,0.4-0.6,0.4-1.1v-3c0-0.4-0.1-0.8-0.4-1.1s-0.6-0.4-1-0.4c-0.4,0-0.7,0.1-1,0.4s-0.4,0.6-0.4,1.1v3
			c0,0.4,0.1,0.8,0.4,1.1s0.6,0.4,1,0.4C426.3,136.4,426.7,136.3,426.9,136z"/>
		<path class="st6" d="M429.8,128.3c-0.1-0.1-0.2-0.3-0.2-0.4s0.1-0.3,0.2-0.4c0.1-0.1,0.2-0.2,0.4-0.2c0.2,0,0.3,0.1,0.4,0.2
			c0.1,0.1,0.2,0.3,0.2,0.4c0,0.2-0.1,0.3-0.2,0.4c-0.1,0.1-0.2,0.2-0.4,0.2C430,128.5,429.9,128.4,429.8,128.3z M429.8,136.8V130
			c0-0.1,0-0.1,0.1-0.1h0.5c0.1,0,0.1,0,0.1,0.1v6.8c0,0.1,0,0.1-0.1,0.1h-0.5C429.9,136.9,429.8,136.9,429.8,136.8z"/>
		<path class="st6" d="M432.4,136.8v-9.5c0-0.1,0-0.1,0.1-0.1h0.5c0.1,0,0.1,0,0.1,0.1v9.5c0,0.1,0,0.1-0.1,0.1h-0.5
			C432.4,136.9,432.4,136.9,432.4,136.8z"/>
		<path class="st6" d="M438.8,133.7h-3.2c0,0-0.1,0-0.1,0.1v1.2c0,0.4,0.1,0.8,0.4,1.1s0.6,0.4,1,0.4c0.3,0,0.6-0.1,0.8-0.3
			s0.4-0.5,0.5-0.8c0-0.1,0.1-0.1,0.2-0.1l0.4,0c0,0,0.1,0,0.1,0c0,0,0,0,0,0.1v0.1c-0.1,0.5-0.3,0.9-0.7,1.2
			c-0.4,0.3-0.8,0.4-1.4,0.4c-0.6,0-1.1-0.2-1.5-0.6c-0.4-0.4-0.6-0.9-0.6-1.5v-3.1c0-0.6,0.2-1.1,0.6-1.5s0.9-0.6,1.5-0.6
			c0.6,0,1.1,0.2,1.5,0.6s0.6,0.9,0.6,1.5v1.7C438.9,133.6,438.8,133.7,438.8,133.7z M435.8,130.8c-0.2,0.3-0.4,0.6-0.4,1.1v1.1
			c0,0,0,0.1,0.1,0.1h2.6c0,0,0.1,0,0.1-0.1v-1.1c0-0.4-0.1-0.8-0.4-1.1c-0.2-0.3-0.6-0.4-1-0.4
			C436.4,130.4,436.1,130.6,435.8,130.8z"/>
		<path class="st6" d="M442.6,130.5h-1.1c0,0-0.1,0-0.1,0.1v4.5c0,0.5,0.1,0.8,0.2,1c0.2,0.2,0.4,0.3,0.8,0.3h0.1
			c0.1,0,0.1,0,0.1,0.1v0.4c0,0.1,0,0.1-0.1,0.1h-0.3c-0.5,0-0.9-0.1-1.2-0.4c-0.3-0.2-0.4-0.7-0.4-1.4v-4.7c0,0,0-0.1-0.1-0.1h-0.6
			c-0.1,0-0.1,0-0.1-0.1V130c0-0.1,0-0.1,0.1-0.1h0.6c0,0,0.1,0,0.1-0.1v-1.6c0-0.1,0-0.1,0.1-0.1h0.4c0.1,0,0.1,0,0.1,0.1v1.6
			c0,0,0,0.1,0.1,0.1h1.1c0.1,0,0.1,0,0.1,0.1v0.3C442.7,130.4,442.7,130.5,442.6,130.5z"/>
		<path class="st6" d="M446.6,136.8v-0.4c0-0.1,0-0.1,0-0.2c0.1-0.1,0.1-0.2,0.2-0.3c0.2-0.4,0.6-1,1-1.7s0.9-1.5,1.2-2
			c0.6-1.1,0.9-2,0.9-2.7c0-0.5-0.1-0.9-0.4-1.3c-0.2-0.3-0.6-0.5-1-0.5c-0.4,0-0.7,0.2-1,0.5s-0.4,0.7-0.3,1.3v0.5
			c0,0.1,0,0.1-0.1,0.1h-0.5c-0.1,0-0.1,0-0.1-0.1v-0.5c0-0.7,0.2-1.3,0.6-1.7c0.4-0.4,0.9-0.7,1.5-0.7c0.6,0,1.1,0.2,1.5,0.7
			s0.6,1,0.6,1.7c0,0.8-0.3,1.9-1,3c-0.7,1.2-1.4,2.4-2.2,3.8c0,0,0,0,0,0c0,0,0,0,0,0h3.3c0.1,0,0.1,0,0.1,0.1v0.4
			c0,0.1,0,0.1-0.1,0.1h-4.2C446.6,136.9,446.6,136.9,446.6,136.8z"/>
		<path class="st6" d="M456.5,133.7v0.4c0,0.1,0,0.1-0.1,0.1h-0.4c0,0-0.1,0-0.1,0.1v2.5c0,0.1,0,0.1-0.1,0.1h-0.5
			c-0.1,0-0.1,0-0.1-0.1v-2.5c0,0,0-0.1-0.1-0.1h-3.1c-0.1,0-0.1,0-0.1-0.1v-0.4c0,0,0-0.1,0-0.2l2.2-6.3c0-0.1,0.1-0.1,0.2-0.1h0.5
			c0.1,0,0.1,0.1,0.1,0.2l-2.1,6.2c0,0,0,0,0,0c0,0,0,0,0,0h2.3c0,0,0.1,0,0.1-0.1v-2.3c0-0.1,0-0.1,0.1-0.1h0.5
			c0.1,0,0.1,0,0.1,0.1v2.3c0,0,0,0.1,0.1,0.1h0.4C456.4,133.5,456.5,133.6,456.5,133.7z"/>
		<path class="st6" d="M458.8,130.6c-0.3-0.2-0.5-0.4-0.7-0.7c-0.2-0.3-0.3-0.6-0.3-1c0-0.3,0.1-0.7,0.3-1s0.4-0.5,0.7-0.7
			s0.6-0.3,1-0.3c0.3,0,0.7,0.1,1,0.3s0.5,0.4,0.7,0.7s0.3,0.6,0.3,1c0,0.4-0.1,0.7-0.3,1c-0.2,0.3-0.4,0.5-0.7,0.7
			c-0.3,0.2-0.6,0.3-1,0.3C459.5,130.9,459.1,130.8,458.8,130.6z M460.8,130c0.3-0.3,0.4-0.6,0.4-1c0-0.4-0.1-0.7-0.4-1
			c-0.3-0.3-0.6-0.4-1-0.4c-0.4,0-0.7,0.1-1,0.4c-0.3,0.3-0.4,0.6-0.4,1c0,0.4,0.1,0.8,0.4,1c0.3,0.3,0.6,0.4,1,0.4
			C460.2,130.4,460.5,130.3,460.8,130z M459.4,136.9c0,0,0-0.1,0-0.1l5.1-9.5c0-0.1,0.1-0.1,0.2-0.1h0.3c0.1,0,0.1,0,0.1,0
			c0,0,0,0.1,0,0.1l-5.1,9.5c0,0.1-0.1,0.1-0.2,0.1h-0.3C459.5,136.9,459.4,136.9,459.4,136.9z M463.8,136.8
			c-0.3-0.2-0.5-0.4-0.7-0.7s-0.3-0.6-0.3-1s0.1-0.7,0.3-1s0.4-0.5,0.7-0.7c0.3-0.2,0.6-0.3,1-0.3c0.3,0,0.6,0.1,0.9,0.3
			c0.3,0.2,0.5,0.4,0.7,0.7c0.2,0.3,0.3,0.6,0.3,1c0,0.4-0.1,0.7-0.3,1s-0.4,0.5-0.7,0.7c-0.3,0.2-0.6,0.3-0.9,0.3
			C464.4,137.1,464.1,137,463.8,136.8z M465.8,136.2c0.3-0.3,0.4-0.6,0.4-1s-0.1-0.7-0.4-1c-0.3-0.3-0.6-0.4-1-0.4
			c-0.4,0-0.7,0.1-1,0.4s-0.4,0.6-0.4,1c0,0.4,0.1,0.8,0.4,1c0.3,0.3,0.6,0.4,1,0.4C465.2,136.6,465.5,136.4,465.8,136.2z"/>
	</g>
	<g>
		<path class="st6" d="M419.5,154.6c-0.4-0.4-0.6-1-0.6-1.7v-5.4c0-0.7,0.2-1.3,0.6-1.7c0.4-0.4,1-0.6,1.6-0.6
			c0.7,0,1.2,0.2,1.7,0.6c0.4,0.4,0.6,1,0.6,1.7v0.3c0,0,0,0.1,0,0.1c0,0-0.1,0-0.1,0l-0.5,0c-0.1,0-0.1,0-0.1-0.1v-0.3
			c0-0.5-0.1-0.9-0.4-1.2c-0.3-0.3-0.7-0.4-1.1-0.4c-0.5,0-0.8,0.1-1.1,0.4c-0.3,0.3-0.4,0.7-0.4,1.2v5.5c0,0.5,0.1,0.9,0.4,1.2
			c0.3,0.3,0.6,0.4,1.1,0.4s0.8-0.1,1.1-0.4c0.3-0.3,0.4-0.7,0.4-1.2v-0.3c0-0.1,0-0.1,0.1-0.1l0.5,0c0.1,0,0.1,0,0.1,0.1v0.2
			c0,0.7-0.2,1.3-0.6,1.7c-0.4,0.4-1,0.6-1.7,0.6C420.4,155.2,419.9,155,419.5,154.6z"/>
		<path class="st6" d="M425,155v-9.5c0-0.1,0-0.1,0.1-0.1h0.5c0.1,0,0.1,0,0.1,0.1v9.5c0,0.1,0,0.1-0.1,0.1h-0.5
			C425.1,155.1,425,155.1,425,155z"/>
		<path class="st6" d="M428,154.6c-0.4-0.4-0.6-0.9-0.6-1.5V150c0-0.6,0.2-1.1,0.6-1.5s0.9-0.6,1.5-0.6c0.6,0,1.1,0.2,1.5,0.6
			s0.6,0.9,0.6,1.5v3.1c0,0.6-0.2,1.1-0.6,1.5c-0.4,0.4-0.9,0.6-1.5,0.6C428.8,155.2,428.3,155,428,154.6z M430.4,154.1
			c0.3-0.3,0.4-0.6,0.4-1.1v-3c0-0.4-0.1-0.8-0.4-1.1s-0.6-0.4-1-0.4c-0.4,0-0.7,0.1-1,0.4s-0.4,0.6-0.4,1.1v3
			c0,0.4,0.1,0.8,0.4,1.1s0.6,0.4,1,0.4C429.9,154.6,430.2,154.4,430.4,154.1z"/>
		<path class="st6" d="M435.4,148.6h-1.1c0,0-0.1,0-0.1,0.1v4.5c0,0.5,0.1,0.8,0.2,1c0.2,0.2,0.4,0.3,0.8,0.3h0.1
			c0.1,0,0.1,0,0.1,0.1v0.4c0,0.1,0,0.1-0.1,0.1h-0.3c-0.5,0-0.9-0.1-1.2-0.4c-0.3-0.2-0.4-0.7-0.4-1.4v-4.7c0,0,0-0.1-0.1-0.1h-0.6
			c-0.1,0-0.1,0-0.1-0.1v-0.3c0-0.1,0-0.1,0.1-0.1h0.6c0,0,0.1,0,0.1-0.1v-1.6c0-0.1,0-0.1,0.1-0.1h0.4c0.1,0,0.1,0,0.1,0.1v1.6
			c0,0,0,0.1,0.1,0.1h1.1c0.1,0,0.1,0,0.1,0.1v0.3C435.5,148.6,435.5,148.6,435.4,148.6z"/>
		<path class="st6" d="M440.5,148.5c0.3,0.4,0.5,0.9,0.5,1.6v4.8c0,0.1,0,0.1-0.1,0.1h-0.5c-0.1,0-0.1,0-0.1-0.1v-4.8
			c0-0.5-0.1-0.9-0.3-1.2c-0.2-0.3-0.5-0.4-0.9-0.4c-0.4,0-0.7,0.1-1,0.4s-0.4,0.7-0.4,1.2v4.7c0,0.1,0,0.1-0.1,0.1H437
			c-0.1,0-0.1,0-0.1-0.1v-9.5c0-0.1,0-0.1,0.1-0.1h0.5c0.1,0,0.1,0,0.1,0.1v3.3c0,0,0,0,0,0s0,0,0,0c0.3-0.5,0.8-0.8,1.5-0.8
			C439.8,147.9,440.2,148.1,440.5,148.5z"/>
		<path class="st6" d="M446.6,151.8h-3.2c0,0-0.1,0-0.1,0.1v1.2c0,0.4,0.1,0.8,0.4,1.1s0.6,0.4,1,0.4c0.3,0,0.6-0.1,0.8-0.3
			s0.4-0.5,0.5-0.8c0-0.1,0.1-0.1,0.2-0.1l0.4,0c0,0,0.1,0,0.1,0c0,0,0,0,0,0.1v0.1c-0.1,0.5-0.3,0.9-0.7,1.2
			c-0.4,0.3-0.8,0.4-1.4,0.4c-0.6,0-1.1-0.2-1.5-0.6c-0.4-0.4-0.6-0.9-0.6-1.5V150c0-0.6,0.2-1.1,0.6-1.5s0.9-0.6,1.5-0.6
			c0.6,0,1.1,0.2,1.5,0.6s0.6,0.9,0.6,1.5v1.7C446.7,151.8,446.7,151.8,446.6,151.8z M443.7,149c-0.2,0.3-0.4,0.6-0.4,1.1v1.1
			c0,0,0,0.1,0.1,0.1h2.6c0,0,0.1,0,0.1-0.1v-1.1c0-0.4-0.1-0.8-0.4-1.1c-0.2-0.3-0.6-0.4-1-0.4C444.3,148.6,444,148.7,443.7,149z"
			/>
		<path class="st6" d="M448.6,154.7c-0.4-0.3-0.6-0.8-0.6-1.3v-0.1c0-0.1,0-0.1,0.1-0.1h0.4c0.1,0,0.1,0,0.1,0.1v0.1
			c0,0.3,0.1,0.6,0.4,0.8c0.2,0.2,0.6,0.3,0.9,0.3c0.4,0,0.7-0.1,0.9-0.3c0.2-0.2,0.3-0.5,0.3-0.9c0-0.3-0.1-0.5-0.2-0.7
			c-0.1-0.2-0.3-0.3-0.5-0.4c-0.2-0.1-0.5-0.2-0.8-0.4c-0.4-0.1-0.7-0.3-0.9-0.4c-0.2-0.1-0.4-0.3-0.6-0.6c-0.2-0.3-0.2-0.6-0.2-1
			c0-0.6,0.2-1,0.5-1.4s0.8-0.5,1.4-0.5c0.6,0,1.1,0.2,1.4,0.5c0.4,0.3,0.5,0.8,0.5,1.3v0c0,0.1,0,0.1-0.1,0.1h-0.4c0,0-0.1,0-0.1,0
			c0,0,0,0,0-0.1v-0.1c0-0.3-0.1-0.6-0.3-0.9c-0.2-0.2-0.5-0.3-0.9-0.3s-0.7,0.1-0.9,0.3c-0.2,0.2-0.3,0.5-0.3,0.9
			c0,0.3,0.1,0.5,0.2,0.6s0.3,0.3,0.5,0.4c0.2,0.1,0.4,0.2,0.8,0.4c0.4,0.2,0.7,0.3,0.9,0.5c0.2,0.1,0.5,0.3,0.6,0.6
			c0.2,0.3,0.3,0.6,0.3,1c0,0.6-0.2,1-0.5,1.4c-0.4,0.3-0.8,0.5-1.4,0.5C449.5,155.2,449,155,448.6,154.7z"/>
		<path class="st6" d="M457.6,155l-1.8-9.5v0c0-0.1,0-0.1,0.1-0.1h0.5c0.1,0,0.1,0,0.2,0.1l1.4,7.9c0,0,0,0,0,0c0,0,0,0,0,0l1.2-7.9
			c0-0.1,0.1-0.1,0.1-0.1h0.4c0.1,0,0.1,0,0.1,0.1l1.3,7.9c0,0,0,0,0,0c0,0,0,0,0,0l1.3-7.9c0-0.1,0.1-0.1,0.1-0.1h0.5
			c0,0,0.1,0,0.1,0c0,0,0,0.1,0,0.1l-1.7,9.5c0,0.1-0.1,0.1-0.2,0.1H461c-0.1,0-0.1,0-0.1-0.1l-1.3-7.9c0,0,0,0,0,0c0,0,0,0,0,0
			l-1.2,7.9c0,0.1-0.1,0.1-0.1,0.1h-0.4C457.7,155.1,457.6,155.1,457.6,155z"/>
		<path class="st6" d="M468,148.6c0.4,0.4,0.5,1,0.5,1.7v4.7c0,0.1,0,0.1-0.1,0.1h-0.5c-0.1,0-0.1,0-0.1-0.1v-0.5c0,0,0,0,0,0
			c0,0,0,0,0,0c-0.3,0.5-0.9,0.8-1.6,0.8c-0.5,0-0.9-0.1-1.3-0.4c-0.4-0.3-0.5-0.8-0.5-1.5c0-0.8,0.2-1.3,0.6-1.7
			c0.4-0.4,1-0.5,1.7-0.5h1.1c0,0,0.1,0,0.1-0.1v-0.6c0-0.5-0.1-0.9-0.3-1.2c-0.2-0.3-0.5-0.5-1-0.5c-0.3,0-0.6,0.1-0.8,0.3
			c-0.2,0.2-0.4,0.5-0.4,0.8c0,0.1,0,0.1-0.1,0.1l-0.5,0c0,0-0.1,0-0.1,0c0,0,0-0.1,0-0.1c0.1-0.5,0.3-0.9,0.7-1.3
			c0.4-0.3,0.8-0.5,1.4-0.5C467.1,147.9,467.6,148.1,468,148.6z M467.3,154.2c0.3-0.3,0.5-0.7,0.5-1.1v-1.3c0,0,0-0.1-0.1-0.1h-1.1
			c-0.5,0-0.9,0.1-1.2,0.4c-0.3,0.3-0.4,0.7-0.4,1.2c0,0.5,0.1,0.8,0.3,1c0.2,0.2,0.5,0.3,0.9,0.3
			C466.7,154.6,467,154.4,467.3,154.2z"/>
		<path class="st6" d="M470.5,154.7c-0.4-0.3-0.6-0.8-0.6-1.3v-0.1c0-0.1,0-0.1,0.1-0.1h0.4c0.1,0,0.1,0,0.1,0.1v0.1
			c0,0.3,0.1,0.6,0.4,0.8c0.2,0.2,0.6,0.3,0.9,0.3c0.4,0,0.7-0.1,0.9-0.3c0.2-0.2,0.3-0.5,0.3-0.9c0-0.3-0.1-0.5-0.2-0.7
			c-0.1-0.2-0.3-0.3-0.5-0.4c-0.2-0.1-0.5-0.2-0.8-0.4c-0.4-0.1-0.7-0.3-0.9-0.4c-0.2-0.1-0.4-0.3-0.6-0.6c-0.2-0.3-0.2-0.6-0.2-1
			c0-0.6,0.2-1,0.5-1.4s0.8-0.5,1.4-0.5c0.6,0,1.1,0.2,1.4,0.5c0.4,0.3,0.5,0.8,0.5,1.3v0c0,0.1,0,0.1-0.1,0.1h-0.4c0,0-0.1,0-0.1,0
			c0,0,0,0,0-0.1v-0.1c0-0.3-0.1-0.6-0.3-0.9c-0.2-0.2-0.5-0.3-0.9-0.3s-0.7,0.1-0.9,0.3c-0.2,0.2-0.3,0.5-0.3,0.9
			c0,0.3,0.1,0.5,0.2,0.6s0.3,0.3,0.5,0.4c0.2,0.1,0.4,0.2,0.8,0.4c0.4,0.2,0.7,0.3,0.9,0.5c0.2,0.1,0.5,0.3,0.6,0.6
			c0.2,0.3,0.3,0.6,0.3,1c0,0.6-0.2,1-0.5,1.4c-0.4,0.3-0.8,0.5-1.4,0.5C471.4,155.2,470.9,155,470.5,154.7z"/>
		<path class="st6" d="M478.9,148.5c0.3,0.4,0.5,0.9,0.5,1.6v4.8c0,0.1,0,0.1-0.1,0.1h-0.5c-0.1,0-0.1,0-0.1-0.1v-4.8
			c0-0.5-0.1-0.9-0.3-1.2c-0.2-0.3-0.5-0.4-0.9-0.4c-0.4,0-0.7,0.1-1,0.4s-0.4,0.7-0.4,1.2v4.7c0,0.1,0,0.1-0.1,0.1h-0.5
			c-0.1,0-0.1,0-0.1-0.1v-9.5c0-0.1,0-0.1,0.1-0.1h0.5c0.1,0,0.1,0,0.1,0.1v3.3c0,0,0,0,0,0s0,0,0,0c0.3-0.5,0.8-0.8,1.5-0.8
			C478.2,147.9,478.6,148.1,478.9,148.5z"/>
		<path class="st6" d="M485,151.8h-3.2c0,0-0.1,0-0.1,0.1v1.2c0,0.4,0.1,0.8,0.4,1.1s0.6,0.4,1,0.4c0.3,0,0.6-0.1,0.8-0.3
			s0.4-0.5,0.5-0.8c0-0.1,0.1-0.1,0.2-0.1l0.4,0c0,0,0.1,0,0.1,0c0,0,0,0,0,0.1v0.1c-0.1,0.5-0.3,0.9-0.7,1.2
			c-0.4,0.3-0.8,0.4-1.4,0.4c-0.6,0-1.1-0.2-1.5-0.6c-0.4-0.4-0.6-0.9-0.6-1.5V150c0-0.6,0.2-1.1,0.6-1.5s0.9-0.6,1.5-0.6
			c0.6,0,1.1,0.2,1.5,0.6s0.6,0.9,0.6,1.5v1.7C485.2,151.8,485.1,151.8,485,151.8z M482.1,149c-0.2,0.3-0.4,0.6-0.4,1.1v1.1
			c0,0,0,0.1,0.1,0.1h2.6c0,0,0.1,0,0.1-0.1v-1.1c0-0.4-0.1-0.8-0.4-1.1c-0.2-0.3-0.6-0.4-1-0.4C482.7,148.6,482.4,148.7,482.1,149z
			"/>
		<path class="st6" d="M489.6,148.1c0.1,0,0.1,0.1,0.1,0.2l-0.1,0.5c0,0.1-0.1,0.1-0.2,0.1c-0.1-0.1-0.3-0.1-0.5-0.1
			c-0.4,0-0.7,0.2-0.9,0.6s-0.4,0.8-0.4,1.3v4.3c0,0.1,0,0.1-0.1,0.1h-0.5c-0.1,0-0.1,0-0.1-0.1v-6.8c0-0.1,0-0.1,0.1-0.1h0.5
			c0.1,0,0.1,0,0.1,0.1v0.9c0,0,0,0,0,0s0,0,0,0c0.1-0.3,0.3-0.6,0.5-0.8s0.5-0.3,0.8-0.3C489.2,148,489.4,148,489.6,148.1z"/>
		<path class="st6" d="M494.5,145.3h0.5c0.1,0,0.1,0,0.1,0.1v9.5c0,0.1,0,0.1-0.1,0.1h-0.5c-0.1,0-0.1,0-0.1-0.1v-8.8c0,0,0,0,0,0
			c0,0,0,0,0,0l-1.2,0.6l-0.1,0c0,0-0.1,0-0.1,0c0,0,0-0.1,0-0.1v-0.3c0-0.1,0-0.1,0.1-0.2l1.3-0.8
			C494.4,145.3,494.5,145.3,494.5,145.3z"/>
		<path class="st6" d="M501.1,152.1c0,0.4,0,0.7-0.1,1.1c-0.1,0.6-0.3,1.1-0.7,1.5c-0.3,0.3-0.8,0.5-1.4,0.5c-0.5,0-1-0.2-1.3-0.5
			c-0.3-0.3-0.6-0.8-0.7-1.4c-0.1-0.3-0.1-0.7-0.1-1.2l0-4.6c0-0.7,0.2-1.3,0.6-1.7c0.4-0.4,0.9-0.7,1.5-0.7c0.6,0,1.1,0.2,1.4,0.7
			c0.4,0.4,0.6,1,0.6,1.7v0.2c0,0.1,0,0.1-0.1,0.1h-0.5c-0.1,0-0.1,0-0.1-0.1v-0.2c0-0.5-0.1-0.9-0.4-1.2c-0.2-0.3-0.5-0.5-0.9-0.5
			c-0.4,0-0.7,0.2-1,0.5c-0.3,0.3-0.4,0.7-0.4,1.2v2.2c0,0,0,0,0,0s0,0,0,0c0.1-0.2,0.3-0.4,0.6-0.5s0.5-0.2,0.8-0.2
			c0.5,0,1,0.2,1.3,0.5c0.3,0.3,0.6,0.7,0.7,1.3C501,151.1,501.1,151.6,501.1,152.1z M500.3,152.1c0-0.4,0-0.9-0.1-1.3
			c-0.2-0.8-0.6-1.1-1.2-1.1c-0.7,0-1.1,0.4-1.3,1.2c-0.1,0.3-0.1,0.7-0.1,1.2c0,0.4,0,0.8,0.1,1.1c0.2,0.9,0.6,1.3,1.3,1.3
			c0.7,0,1.1-0.5,1.3-1.4C500.3,152.8,500.3,152.4,500.3,152.1z"/>
		<path class="st6" d="M503.7,148.8c-0.3-0.2-0.5-0.4-0.7-0.7c-0.2-0.3-0.3-0.6-0.3-1c0-0.3,0.1-0.7,0.3-1s0.4-0.5,0.7-0.7
			s0.6-0.3,1-0.3c0.3,0,0.7,0.1,1,0.3s0.5,0.4,0.7,0.7s0.3,0.6,0.3,1c0,0.4-0.1,0.7-0.3,1c-0.2,0.3-0.4,0.5-0.7,0.7
			c-0.3,0.2-0.6,0.3-1,0.3C504.3,149,504,149,503.7,148.8z M505.6,148.1c0.3-0.3,0.4-0.6,0.4-1c0-0.4-0.1-0.7-0.4-1
			c-0.3-0.3-0.6-0.4-1-0.4c-0.4,0-0.7,0.1-1,0.4c-0.3,0.3-0.4,0.6-0.4,1c0,0.4,0.1,0.8,0.4,1c0.3,0.3,0.6,0.4,1,0.4
			C505,148.6,505.3,148.4,505.6,148.1z M504.3,155.1c0,0,0-0.1,0-0.1l5.1-9.5c0-0.1,0.1-0.1,0.2-0.1h0.3c0.1,0,0.1,0,0.1,0
			c0,0,0,0.1,0,0.1l-5.1,9.5c0,0.1-0.1,0.1-0.2,0.1h-0.3C504.3,155.1,504.3,155.1,504.3,155.1z M508.7,155c-0.3-0.2-0.5-0.4-0.7-0.7
			s-0.3-0.6-0.3-1s0.1-0.7,0.3-1s0.4-0.5,0.7-0.7c0.3-0.2,0.6-0.3,1-0.3c0.3,0,0.6,0.1,0.9,0.3c0.3,0.2,0.5,0.4,0.7,0.7
			c0.2,0.3,0.3,0.6,0.3,1c0,0.4-0.1,0.7-0.3,1s-0.4,0.5-0.7,0.7c-0.3,0.2-0.6,0.3-0.9,0.3C509.3,155.2,509,155.2,508.7,155z
			 M510.6,154.3c0.3-0.3,0.4-0.6,0.4-1s-0.1-0.7-0.4-1c-0.3-0.3-0.6-0.4-1-0.4c-0.4,0-0.7,0.1-1,0.4s-0.4,0.6-0.4,1
			c0,0.4,0.1,0.8,0.4,1c0.3,0.3,0.6,0.4,1,0.4C510,154.8,510.3,154.6,510.6,154.3z"/>
	</g>
	<g>
		<path class="st6" d="M419.4,174.7c-0.4-0.5-0.6-1-0.6-1.8v-0.3c0-0.1,0-0.1,0.1-0.1h0.4c0.1,0,0.1,0,0.1,0.1v0.3
			c0,0.6,0.1,1,0.4,1.3s0.6,0.5,1.1,0.5s0.8-0.2,1.1-0.5c0.3-0.3,0.4-0.8,0.4-1.3c0-0.3-0.1-0.6-0.2-0.9c-0.1-0.3-0.3-0.5-0.5-0.7
			s-0.6-0.5-1-0.8c-0.5-0.4-0.8-0.7-1.1-0.9c-0.3-0.2-0.5-0.5-0.6-0.9s-0.2-0.7-0.2-1.2c0-0.7,0.2-1.3,0.6-1.7s0.9-0.6,1.6-0.6
			c0.7,0,1.2,0.2,1.6,0.7c0.4,0.5,0.6,1.1,0.6,1.8v0.3c0,0.1,0,0.1-0.1,0.1h-0.4c-0.1,0-0.1,0-0.1-0.1v-0.3c0-0.6-0.1-1-0.4-1.3
			c-0.3-0.3-0.6-0.5-1.1-0.5c-0.4,0-0.8,0.1-1,0.4c-0.3,0.3-0.4,0.7-0.4,1.2c0,0.3,0.1,0.6,0.2,0.8s0.3,0.5,0.5,0.7s0.6,0.5,1,0.8
			c0.6,0.4,1,0.7,1.2,1c0.3,0.3,0.5,0.5,0.6,0.8s0.2,0.7,0.2,1.1c0,0.8-0.2,1.4-0.6,1.8c-0.4,0.5-1,0.7-1.6,0.7
			C420.4,175.4,419.8,175.2,419.4,174.7z"/>
		<path class="st6" d="M428.4,168.7c0.3,0.4,0.5,0.9,0.5,1.6v4.8c0,0.1,0,0.1-0.1,0.1h-0.5c-0.1,0-0.1,0-0.1-0.1v-4.8
			c0-0.5-0.1-0.9-0.3-1.2c-0.2-0.3-0.5-0.4-0.9-0.4c-0.4,0-0.7,0.1-1,0.4s-0.4,0.7-0.4,1.2v4.7c0,0.1,0,0.1-0.1,0.1H425
			c-0.1,0-0.1,0-0.1-0.1v-9.5c0-0.1,0-0.1,0.1-0.1h0.5c0.1,0,0.1,0,0.1,0.1v3.3c0,0,0,0,0,0s0,0,0,0c0.3-0.5,0.8-0.8,1.5-0.8
			C427.7,168.1,428.1,168.3,428.4,168.7z"/>
		<path class="st6" d="M431.1,174.8c-0.4-0.4-0.6-0.9-0.6-1.5v-3.1c0-0.6,0.2-1.1,0.6-1.5s0.9-0.6,1.5-0.6c0.6,0,1.1,0.2,1.5,0.6
			s0.6,0.9,0.6,1.5v3.1c0,0.6-0.2,1.1-0.6,1.5c-0.4,0.4-0.9,0.6-1.5,0.6C432,175.4,431.5,175.2,431.1,174.8z M433.6,174.3
			c0.3-0.3,0.4-0.6,0.4-1.1v-3c0-0.4-0.1-0.8-0.4-1.1s-0.6-0.4-1-0.4c-0.4,0-0.7,0.1-1,0.4s-0.4,0.6-0.4,1.1v3
			c0,0.4,0.1,0.8,0.4,1.1s0.6,0.4,1,0.4C433,174.7,433.3,174.6,433.6,174.3z"/>
		<path class="st6" d="M437.1,175.1l-1.5-6.8v0c0-0.1,0-0.1,0.1-0.1h0.4c0.1,0,0.1,0,0.2,0.1l1.1,5.8c0,0,0,0,0,0c0,0,0,0,0,0
			l1.1-5.8c0-0.1,0.1-0.1,0.2-0.1h0.4c0.1,0,0.1,0,0.2,0.1l1.1,5.8c0,0,0,0,0,0c0,0,0,0,0,0l1.1-5.8c0-0.1,0.1-0.1,0.2-0.1l0.4,0
			c0.1,0,0.1,0.1,0.1,0.2l-1.5,6.8c0,0.1-0.1,0.1-0.2,0.1h-0.5c-0.1,0-0.1,0-0.2-0.1l-1.1-5.5c0,0,0,0,0,0c0,0,0,0,0,0l-1.1,5.5
			c0,0.1-0.1,0.1-0.2,0.1h-0.5C437.1,175.3,437.1,175.2,437.1,175.1z"/>
		<path class="st6" d="M447.5,172h-3.2c0,0-0.1,0-0.1,0.1v1.2c0,0.4,0.1,0.8,0.4,1.1s0.6,0.4,1,0.4c0.3,0,0.6-0.1,0.8-0.3
			s0.4-0.5,0.5-0.8c0-0.1,0.1-0.1,0.2-0.1l0.4,0c0,0,0.1,0,0.1,0c0,0,0,0,0,0.1v0.1c-0.1,0.5-0.3,0.9-0.7,1.2
			c-0.4,0.3-0.8,0.4-1.4,0.4c-0.6,0-1.1-0.2-1.5-0.6c-0.4-0.4-0.6-0.9-0.6-1.5v-3.1c0-0.6,0.2-1.1,0.6-1.5s0.9-0.6,1.5-0.6
			c0.6,0,1.1,0.2,1.5,0.6s0.6,0.9,0.6,1.5v1.7C447.7,172,447.6,172,447.5,172z M444.6,169.2c-0.2,0.3-0.4,0.6-0.4,1.1v1.1
			c0,0,0,0.1,0.1,0.1h2.6c0,0,0.1,0,0.1-0.1v-1.1c0-0.4-0.1-0.8-0.4-1.1c-0.2-0.3-0.6-0.4-1-0.4
			C445.2,168.8,444.9,168.9,444.6,169.2z"/>
		<path class="st6" d="M452,168.3c0.1,0,0.1,0.1,0.1,0.2L452,169c0,0.1-0.1,0.1-0.2,0.1c-0.1-0.1-0.3-0.1-0.5-0.1
			c-0.4,0-0.7,0.2-0.9,0.6s-0.4,0.8-0.4,1.3v4.3c0,0.1,0,0.1-0.1,0.1h-0.5c-0.1,0-0.1,0-0.1-0.1v-6.8c0-0.1,0-0.1,0.1-0.1h0.5
			c0.1,0,0.1,0,0.1,0.1v0.9c0,0,0,0,0,0s0,0,0,0c0.1-0.3,0.3-0.6,0.5-0.8s0.5-0.3,0.8-0.3C451.7,168.2,451.9,168.2,452,168.3z"/>
		<path class="st6" d="M457,165.5h0.5c0.1,0,0.1,0,0.1,0.1v9.5c0,0.1,0,0.1-0.1,0.1H457c-0.1,0-0.1,0-0.1-0.1v-8.8c0,0,0,0,0,0
			c0,0,0,0,0,0l-1.2,0.6l-0.1,0c0,0-0.1,0-0.1,0c0,0,0-0.1,0-0.1v-0.3c0-0.1,0-0.1,0.1-0.2l1.3-0.8
			C456.9,165.5,456.9,165.5,457,165.5z"/>
		<path class="st6" d="M463.2,173c0,0.7-0.2,1.3-0.6,1.7c-0.4,0.4-0.9,0.7-1.5,0.7c-0.6,0-1.1-0.2-1.4-0.7c-0.4-0.4-0.6-1-0.6-1.7
			v-0.2c0-0.1,0-0.1,0.1-0.1h0.5c0.1,0,0.1,0,0.1,0.1v0.2c0,0.5,0.1,0.9,0.4,1.2s0.5,0.5,0.9,0.5c0.4,0,0.7-0.2,1-0.5
			c0.3-0.3,0.4-0.7,0.4-1.2v-2.2c0,0,0,0,0,0c0,0,0,0,0,0c-0.1,0.2-0.3,0.4-0.6,0.5s-0.5,0.2-0.8,0.2c-0.5,0-1-0.2-1.3-0.5
			c-0.3-0.3-0.6-0.7-0.7-1.3c-0.1-0.4-0.1-0.8-0.1-1.4c0-0.4,0-0.7,0.1-1.1c0.1-0.6,0.3-1.1,0.7-1.5c0.3-0.3,0.8-0.5,1.4-0.5
			c0.5,0,1,0.2,1.3,0.5c0.3,0.3,0.6,0.8,0.7,1.4c0.1,0.3,0.1,0.7,0.1,1.2L463.2,173z M462.3,169.7c0.1-0.3,0.1-0.7,0.1-1.2
			c0-0.4,0-0.8-0.1-1.1c-0.2-0.9-0.6-1.3-1.3-1.3c-0.7,0-1.1,0.5-1.3,1.4c0,0.4-0.1,0.7-0.1,1.1c0,0.4,0,0.9,0.1,1.3
			c0.2,0.8,0.6,1.1,1.2,1.1C461.7,170.9,462.1,170.5,462.3,169.7z"/>
		<path class="st6" d="M466.1,169c-0.3-0.2-0.5-0.4-0.7-0.7c-0.2-0.3-0.3-0.6-0.3-1c0-0.3,0.1-0.7,0.3-1s0.4-0.5,0.7-0.7
			s0.6-0.3,1-0.3c0.3,0,0.7,0.1,1,0.3s0.5,0.4,0.7,0.7s0.3,0.6,0.3,1c0,0.4-0.1,0.7-0.3,1c-0.2,0.3-0.4,0.5-0.7,0.7
			c-0.3,0.2-0.6,0.3-1,0.3C466.7,169.2,466.4,169.1,466.1,169z M468,168.3c0.3-0.3,0.4-0.6,0.4-1c0-0.4-0.1-0.7-0.4-1
			c-0.3-0.3-0.6-0.4-1-0.4c-0.4,0-0.7,0.1-1,0.4c-0.3,0.3-0.4,0.6-0.4,1c0,0.4,0.1,0.8,0.4,1c0.3,0.3,0.6,0.4,1,0.4
			C467.4,168.7,467.7,168.6,468,168.3z M466.6,175.2c0,0,0-0.1,0-0.1l5.1-9.5c0-0.1,0.1-0.1,0.2-0.1h0.3c0.1,0,0.1,0,0.1,0
			c0,0,0,0.1,0,0.1l-5.1,9.5c0,0.1-0.1,0.1-0.2,0.1h-0.3C466.7,175.3,466.7,175.3,466.6,175.2z M471.1,175.2
			c-0.3-0.2-0.5-0.4-0.7-0.7s-0.3-0.6-0.3-1s0.1-0.7,0.3-1s0.4-0.5,0.7-0.7c0.3-0.2,0.6-0.3,1-0.3c0.3,0,0.6,0.1,0.9,0.3
			c0.3,0.2,0.5,0.4,0.7,0.7c0.2,0.3,0.3,0.6,0.3,1c0,0.4-0.1,0.7-0.3,1s-0.4,0.5-0.7,0.7c-0.3,0.2-0.6,0.3-0.9,0.3
			C471.7,175.4,471.4,175.3,471.1,175.2z M473,174.5c0.3-0.3,0.4-0.6,0.4-1s-0.1-0.7-0.4-1c-0.3-0.3-0.6-0.4-1-0.4
			c-0.4,0-0.7,0.1-1,0.4s-0.4,0.6-0.4,1c0,0.4,0.1,0.8,0.4,1c0.3,0.3,0.6,0.4,1,0.4C472.4,174.9,472.7,174.8,473,174.5z"/>
	</g>
	<g>
		<path class="st6" d="M423.2,185.9h-3.3c0,0-0.1,0-0.1,0.1v3.8c0,0,0,0.1,0.1,0.1h2.1c0.1,0,0.1,0,0.1,0.1v0.4c0,0.1,0,0.1-0.1,0.1
			h-2.1c0,0-0.1,0-0.1,0.1v4.4c0,0.1,0,0.1-0.1,0.1h-0.5c-0.1,0-0.1,0-0.1-0.1v-9.5c0-0.1,0-0.1,0.1-0.1h3.9c0.1,0,0.1,0,0.1,0.1
			v0.4C423.3,185.9,423.3,185.9,423.2,185.9z"/>
		<path class="st6" d="M427.8,188.5c0.4,0.4,0.5,1,0.5,1.7v4.7c0,0.1,0,0.1-0.1,0.1h-0.5c-0.1,0-0.1,0-0.1-0.1v-0.5c0,0,0,0,0,0
			c0,0,0,0,0,0c-0.3,0.5-0.9,0.8-1.6,0.8c-0.5,0-0.9-0.1-1.3-0.4c-0.4-0.3-0.5-0.8-0.5-1.5c0-0.8,0.2-1.3,0.6-1.7
			c0.4-0.4,1-0.5,1.7-0.5h1.1c0,0,0.1,0,0.1-0.1v-0.6c0-0.5-0.1-0.9-0.3-1.2c-0.2-0.3-0.5-0.5-1-0.5c-0.3,0-0.6,0.1-0.8,0.3
			c-0.2,0.2-0.4,0.5-0.4,0.8c0,0.1,0,0.1-0.1,0.1l-0.5,0c0,0-0.1,0-0.1,0c0,0,0-0.1,0-0.1c0.1-0.5,0.3-0.9,0.7-1.3
			c0.4-0.3,0.8-0.5,1.4-0.5C427,187.9,427.5,188.1,427.8,188.5z M427.2,194.1c0.3-0.3,0.5-0.7,0.5-1.1v-1.3c0,0,0-0.1-0.1-0.1h-1.1
			c-0.5,0-0.9,0.1-1.2,0.4c-0.3,0.3-0.4,0.7-0.4,1.2c0,0.5,0.1,0.8,0.3,1c0.2,0.2,0.5,0.3,0.9,0.3
			C426.5,194.5,426.9,194.4,427.2,194.1z"/>
		<path class="st6" d="M433.4,188h0.5c0.1,0,0.1,0,0.1,0.1v6.8c0,0.1,0,0.1-0.1,0.1h-0.5c-0.1,0-0.1,0-0.1-0.1v-0.5c0,0,0,0,0,0
			c0,0,0,0,0,0c-0.3,0.5-0.8,0.8-1.4,0.8c-0.6,0-1-0.2-1.3-0.5c-0.3-0.3-0.5-0.9-0.5-1.5v-5c0-0.1,0-0.1,0.1-0.1h0.5
			c0.1,0,0.1,0,0.1,0.1v4.8c0,0.5,0.1,0.9,0.3,1.2c0.2,0.3,0.5,0.4,0.9,0.4c0.4,0,0.7-0.1,1-0.4s0.3-0.7,0.3-1.2v-4.7
			C433.3,188,433.3,188,433.4,188z"/>
		<path class="st6" d="M436.3,194.6c-0.4-0.4-0.6-0.9-0.6-1.5V190c0-0.6,0.2-1.1,0.6-1.5s0.9-0.6,1.5-0.6c0.4,0,0.8,0.1,1.1,0.3
			s0.6,0.4,0.7,0.7c0.2,0.3,0.3,0.6,0.3,0.9v0.1c0,0.1,0,0.1-0.1,0.1l-0.5,0c-0.1,0-0.1,0-0.1-0.1v-0.1c0-0.3-0.1-0.6-0.4-0.9
			s-0.6-0.4-1-0.4c-0.4,0-0.7,0.1-1,0.4s-0.4,0.6-0.4,1.1v3c0,0.4,0.1,0.8,0.4,1.1s0.6,0.4,1,0.4c0.4,0,0.7-0.1,1-0.4
			s0.4-0.5,0.4-0.9v-0.1c0-0.1,0-0.1,0.1-0.1h0.5c0,0,0.1,0,0.1,0c0,0,0,0.1,0,0.1v0.1c0,0.3-0.1,0.6-0.3,0.9
			c-0.2,0.3-0.4,0.5-0.7,0.7s-0.7,0.3-1.1,0.3C437.2,195.2,436.7,195,436.3,194.6z"/>
		<path class="st6" d="M445.3,191.8h-3.2c0,0-0.1,0-0.1,0.1v1.2c0,0.4,0.1,0.8,0.4,1.1s0.6,0.4,1,0.4c0.3,0,0.6-0.1,0.8-0.3
			s0.4-0.5,0.5-0.8c0-0.1,0.1-0.1,0.2-0.1l0.4,0c0,0,0.1,0,0.1,0c0,0,0,0,0,0.1v0.1c-0.1,0.5-0.3,0.9-0.7,1.2
			c-0.4,0.3-0.8,0.4-1.4,0.4c-0.6,0-1.1-0.2-1.5-0.6c-0.4-0.4-0.6-0.9-0.6-1.5V190c0-0.6,0.2-1.1,0.6-1.5s0.9-0.6,1.5-0.6
			c0.6,0,1.1,0.2,1.5,0.6s0.6,0.9,0.6,1.5v1.7C445.4,191.7,445.4,191.8,445.3,191.8z M442.4,189c-0.2,0.3-0.4,0.6-0.4,1.1v1.1
			c0,0,0,0.1,0.1,0.1h2.6c0,0,0.1,0,0.1-0.1V190c0-0.4-0.1-0.8-0.4-1.1c-0.2-0.3-0.6-0.4-1-0.4C442.9,188.5,442.6,188.7,442.4,189z"
			/>
		<path class="st6" d="M449.1,188.6H448c0,0-0.1,0-0.1,0.1v4.5c0,0.5,0.1,0.8,0.2,1c0.2,0.2,0.4,0.3,0.8,0.3h0.1
			c0.1,0,0.1,0,0.1,0.1v0.4c0,0.1,0,0.1-0.1,0.1h-0.3c-0.5,0-0.9-0.1-1.2-0.4c-0.3-0.2-0.4-0.7-0.4-1.4v-4.7c0,0,0-0.1-0.1-0.1h-0.6
			c-0.1,0-0.1,0-0.1-0.1v-0.3c0-0.1,0-0.1,0.1-0.1h0.6c0,0,0.1,0,0.1-0.1v-1.6c0-0.1,0-0.1,0.1-0.1h0.4c0.1,0,0.1,0,0.1,0.1v1.6
			c0,0,0,0.1,0.1,0.1h1.1c0.1,0,0.1,0,0.1,0.1v0.3C449.3,188.5,449.2,188.6,449.1,188.6z"/>
		<path class="st6" d="M454.4,185.3h0.5c0.1,0,0.1,0,0.1,0.1v9.5c0,0.1,0,0.1-0.1,0.1h-0.5c-0.1,0-0.1,0-0.1-0.1v-8.8c0,0,0,0,0,0
			c0,0,0,0,0,0l-1.2,0.6l-0.1,0c0,0-0.1,0-0.1,0c0,0,0-0.1,0-0.1v-0.3c0-0.1,0-0.1,0.1-0.2l1.3-0.8
			C454.3,185.3,454.3,185.3,454.4,185.3z"/>
		<path class="st6" d="M460.6,192.8c0,0.7-0.2,1.3-0.6,1.7c-0.4,0.4-0.9,0.7-1.5,0.7c-0.6,0-1.1-0.2-1.4-0.7c-0.4-0.4-0.6-1-0.6-1.7
			v-0.2c0-0.1,0-0.1,0.1-0.1h0.5c0.1,0,0.1,0,0.1,0.1v0.2c0,0.5,0.1,0.9,0.4,1.2s0.5,0.5,0.9,0.5c0.4,0,0.7-0.2,1-0.5
			c0.3-0.3,0.4-0.7,0.4-1.2v-2.2c0,0,0,0,0,0c0,0,0,0,0,0c-0.1,0.2-0.3,0.4-0.6,0.5s-0.5,0.2-0.8,0.2c-0.5,0-1-0.2-1.3-0.5
			c-0.3-0.3-0.6-0.7-0.7-1.3c-0.1-0.4-0.1-0.8-0.1-1.4c0-0.4,0-0.7,0.1-1.1c0.1-0.6,0.3-1.1,0.7-1.5c0.3-0.3,0.8-0.5,1.4-0.5
			c0.5,0,1,0.2,1.3,0.5c0.3,0.3,0.6,0.8,0.7,1.4c0.1,0.3,0.1,0.7,0.1,1.2L460.6,192.8z M459.7,189.5c0.1-0.3,0.1-0.7,0.1-1.2
			c0-0.4,0-0.8-0.1-1.1c-0.2-0.9-0.6-1.3-1.3-1.3c-0.7,0-1.1,0.5-1.3,1.4c0,0.4-0.1,0.7-0.1,1.1c0,0.4,0,0.9,0.1,1.3
			c0.2,0.8,0.6,1.1,1.2,1.1C459.1,190.7,459.5,190.3,459.7,189.5z"/>
		<path class="st6" d="M463.4,188.7c-0.3-0.2-0.5-0.4-0.7-0.7c-0.2-0.3-0.3-0.6-0.3-1c0-0.3,0.1-0.7,0.3-1s0.4-0.5,0.7-0.7
			s0.6-0.3,1-0.3c0.3,0,0.7,0.1,1,0.3s0.5,0.4,0.7,0.7s0.3,0.6,0.3,1c0,0.4-0.1,0.7-0.3,1c-0.2,0.3-0.4,0.5-0.7,0.7
			c-0.3,0.2-0.6,0.3-1,0.3C464.1,189,463.7,188.9,463.4,188.7z M465.4,188.1c0.3-0.3,0.4-0.6,0.4-1c0-0.4-0.1-0.7-0.4-1
			c-0.3-0.3-0.6-0.4-1-0.4c-0.4,0-0.7,0.1-1,0.4c-0.3,0.3-0.4,0.6-0.4,1c0,0.4,0.1,0.8,0.4,1c0.3,0.3,0.6,0.4,1,0.4
			C464.8,188.5,465.1,188.4,465.4,188.1z M464,195c0,0,0-0.1,0-0.1l5.1-9.5c0-0.1,0.1-0.1,0.2-0.1h0.3c0.1,0,0.1,0,0.1,0
			c0,0,0,0.1,0,0.1l-5.1,9.5c0,0.1-0.1,0.1-0.2,0.1h-0.3C464.1,195.1,464,195,464,195z M468.4,194.9c-0.3-0.2-0.5-0.4-0.7-0.7
			s-0.3-0.6-0.3-1s0.1-0.7,0.3-1s0.4-0.5,0.7-0.7c0.3-0.2,0.6-0.3,1-0.3c0.3,0,0.6,0.1,0.9,0.3c0.3,0.2,0.5,0.4,0.7,0.7
			c0.2,0.3,0.3,0.6,0.3,1c0,0.4-0.1,0.7-0.3,1s-0.4,0.5-0.7,0.7c-0.3,0.2-0.6,0.3-0.9,0.3C469.1,195.2,468.7,195.1,468.4,194.9z
			 M470.4,194.3c0.3-0.3,0.4-0.6,0.4-1s-0.1-0.7-0.4-1c-0.3-0.3-0.6-0.4-1-0.4c-0.4,0-0.7,0.1-1,0.4s-0.4,0.6-0.4,1
			c0,0.4,0.1,0.8,0.4,1c0.3,0.3,0.6,0.4,1,0.4C469.8,194.7,470.1,194.6,470.4,194.3z"/>
	</g>
	<g>
		<path class="st6" d="M419.1,214v-9.5c0-0.1,0-0.1,0.1-0.1h0.5c0.1,0,0.1,0,0.1,0.1v8.9c0,0,0,0.1,0.1,0.1h3.3c0.1,0,0.1,0,0.1,0.1
			v0.4c0,0.1,0,0.1-0.1,0.1h-3.9C419.2,214.1,419.1,214.1,419.1,214z"/>
		<path class="st6" d="M428.2,210.9H425c0,0-0.1,0-0.1,0.1v1.2c0,0.4,0.1,0.8,0.4,1.1c0.2,0.3,0.6,0.4,1,0.4c0.3,0,0.6-0.1,0.8-0.3
			c0.2-0.2,0.4-0.5,0.5-0.8c0-0.1,0.1-0.1,0.2-0.1l0.4,0c0,0,0.1,0,0.1,0s0,0,0,0.1v0.1c-0.1,0.5-0.3,0.9-0.7,1.2s-0.8,0.4-1.4,0.4
			c-0.6,0-1.1-0.2-1.5-0.6c-0.4-0.4-0.6-0.9-0.6-1.5v-3.1c0-0.6,0.2-1.1,0.6-1.5s0.9-0.6,1.5-0.6c0.6,0,1.1,0.2,1.5,0.6
			s0.6,0.9,0.6,1.5v1.7C428.4,210.8,428.3,210.9,428.2,210.9z M425.3,208c-0.2,0.3-0.4,0.6-0.4,1.1v1.1c0,0,0,0.1,0.1,0.1h2.6
			c0,0,0.1,0,0.1-0.1v-1.1c0-0.4-0.1-0.8-0.4-1.1s-0.6-0.4-1-0.4C425.9,207.6,425.6,207.8,425.3,208z"/>
		<path class="st6" d="M433.4,207.6c0.4,0.4,0.5,1,0.5,1.7v4.7c0,0.1,0,0.1-0.1,0.1h-0.5c-0.1,0-0.1,0-0.1-0.1v-0.5c0,0,0,0,0,0
			c0,0,0,0-0.1,0c-0.3,0.5-0.9,0.8-1.6,0.8c-0.5,0-0.9-0.1-1.3-0.4c-0.4-0.3-0.5-0.8-0.5-1.5c0-0.8,0.2-1.3,0.6-1.7
			c0.4-0.4,1-0.5,1.7-0.5h1.1c0,0,0.1,0,0.1-0.1v-0.6c0-0.5-0.1-0.9-0.3-1.2c-0.2-0.3-0.5-0.5-1-0.5c-0.3,0-0.6,0.1-0.8,0.3
			s-0.4,0.5-0.4,0.8c0,0.1,0,0.1-0.1,0.1l-0.5,0c0,0-0.1,0-0.1,0s0-0.1,0-0.1c0.1-0.5,0.3-0.9,0.7-1.3c0.4-0.3,0.8-0.5,1.4-0.5
			C432.5,207,433,207.2,433.4,207.6z M432.7,213.2c0.3-0.3,0.5-0.7,0.5-1.1v-1.3c0,0,0-0.1-0.1-0.1H432c-0.5,0-0.9,0.1-1.2,0.4
			s-0.4,0.7-0.4,1.2c0,0.5,0.1,0.8,0.3,1c0.2,0.2,0.5,0.3,0.9,0.3C432,213.6,432.4,213.4,432.7,213.2z"/>
		<path class="st6" d="M435.6,214v-9.5c0-0.1,0-0.1,0.1-0.1h0.5c0.1,0,0.1,0,0.1,0.1v5.9c0,0,0,0,0,0c0,0,0,0,0,0l2.3-3.2
			c0-0.1,0.1-0.1,0.2-0.1h0.5c0.1,0,0.1,0,0.1,0c0,0,0,0.1,0,0.1l-1.4,1.9c0,0,0,0,0,0.1l1.6,4.8l0,0.1c0,0.1,0,0.1-0.1,0.1h-0.5
			c-0.1,0-0.1,0-0.2-0.1l-1.3-4.2c0-0.1,0-0.1-0.1,0l-1.2,1.6c0,0,0,0,0,0.1v2.5c0,0.1,0,0.1-0.1,0.1h-0.5
			C435.7,214.1,435.6,214.1,435.6,214z"/>
		<path class="st6" d="M441.3,213.7c-0.4-0.3-0.6-0.8-0.6-1.3v-0.1c0-0.1,0-0.1,0.1-0.1h0.4c0.1,0,0.1,0,0.1,0.1v0.1
			c0,0.3,0.1,0.6,0.4,0.8c0.2,0.2,0.6,0.3,0.9,0.3c0.4,0,0.7-0.1,0.9-0.3s0.3-0.5,0.3-0.9c0-0.3-0.1-0.5-0.2-0.7
			c-0.1-0.2-0.3-0.3-0.5-0.4c-0.2-0.1-0.5-0.2-0.8-0.4c-0.4-0.1-0.7-0.3-0.9-0.4s-0.4-0.3-0.6-0.6c-0.2-0.3-0.2-0.6-0.2-1
			c0-0.6,0.2-1,0.5-1.4c0.4-0.3,0.8-0.5,1.4-0.5c0.6,0,1.1,0.2,1.4,0.5c0.4,0.3,0.5,0.8,0.5,1.3v0c0,0.1,0,0.1-0.1,0.1h-0.4
			c0,0-0.1,0-0.1,0c0,0,0,0,0-0.1v-0.1c0-0.3-0.1-0.6-0.3-0.9c-0.2-0.2-0.5-0.3-0.9-0.3s-0.7,0.1-0.9,0.3c-0.2,0.2-0.3,0.5-0.3,0.9
			c0,0.3,0.1,0.5,0.2,0.6s0.3,0.3,0.5,0.4c0.2,0.1,0.4,0.2,0.8,0.4c0.4,0.2,0.7,0.3,0.9,0.5c0.2,0.1,0.5,0.3,0.6,0.6
			c0.2,0.3,0.3,0.6,0.3,1c0,0.6-0.2,1-0.5,1.4c-0.4,0.3-0.8,0.5-1.4,0.5C442.2,214.2,441.7,214,441.3,213.7z"/>
		<path class="st6" d="M449.9,204.3h0.5c0.1,0,0.1,0,0.1,0.1v9.5c0,0.1,0,0.1-0.1,0.1h-0.5c-0.1,0-0.1,0-0.1-0.1v-8.8c0,0,0,0,0,0
			c0,0,0,0,0,0l-1.2,0.6l-0.1,0c0,0-0.1,0-0.1,0s0-0.1,0-0.1v-0.3c0-0.1,0-0.1,0.1-0.2l1.3-0.8C449.8,204.3,449.8,204.3,449.9,204.3
			z"/>
		<path class="st6" d="M456.4,210.9v0.4c0,0.1,0,0.1-0.1,0.1h-0.4c0,0-0.1,0-0.1,0.1v2.5c0,0.1,0,0.1-0.1,0.1h-0.5
			c-0.1,0-0.1,0-0.1-0.1v-2.5c0,0,0-0.1-0.1-0.1h-3.1c-0.1,0-0.1,0-0.1-0.1v-0.4c0,0,0-0.1,0-0.2l2.2-6.3c0-0.1,0.1-0.1,0.2-0.1h0.5
			c0.1,0,0.1,0.1,0.1,0.2l-2.1,6.2c0,0,0,0,0,0c0,0,0,0,0,0h2.3c0,0,0.1,0,0.1-0.1v-2.3c0-0.1,0-0.1,0.1-0.1h0.5
			c0.1,0,0.1,0,0.1,0.1v2.3c0,0,0,0.1,0.1,0.1h0.4C456.3,210.7,456.4,210.8,456.4,210.9z"/>
		<path class="st6" d="M458.8,207.8c-0.3-0.2-0.5-0.4-0.7-0.7c-0.2-0.3-0.3-0.6-0.3-1c0-0.3,0.1-0.7,0.3-1s0.4-0.5,0.7-0.7
			c0.3-0.2,0.6-0.3,1-0.3c0.3,0,0.7,0.1,1,0.3s0.5,0.4,0.7,0.7s0.3,0.6,0.3,1c0,0.4-0.1,0.7-0.3,1c-0.2,0.3-0.4,0.5-0.7,0.7
			c-0.3,0.2-0.6,0.3-1,0.3C459.4,208.1,459.1,208,458.8,207.8z M460.7,207.2c0.3-0.3,0.4-0.6,0.4-1c0-0.4-0.1-0.7-0.4-1
			c-0.3-0.3-0.6-0.4-1-0.4c-0.4,0-0.7,0.1-1,0.4c-0.3,0.3-0.4,0.6-0.4,1c0,0.4,0.1,0.8,0.4,1c0.3,0.3,0.6,0.4,1,0.4
			C460.1,207.6,460.4,207.4,460.7,207.2z M459.3,214.1c0,0,0-0.1,0-0.1l5.1-9.5c0-0.1,0.1-0.1,0.2-0.1h0.3c0.1,0,0.1,0,0.1,0
			c0,0,0,0.1,0,0.1l-5.1,9.5c0,0.1-0.1,0.1-0.2,0.1h-0.3C459.4,214.1,459.4,214.1,459.3,214.1z M463.8,214c-0.3-0.2-0.5-0.4-0.7-0.7
			s-0.3-0.6-0.3-1s0.1-0.7,0.3-1s0.4-0.5,0.7-0.7c0.3-0.2,0.6-0.3,1-0.3c0.3,0,0.6,0.1,0.9,0.3c0.3,0.2,0.5,0.4,0.7,0.7
			c0.2,0.3,0.3,0.6,0.3,1c0,0.4-0.1,0.7-0.3,1s-0.4,0.5-0.7,0.7c-0.3,0.2-0.6,0.3-0.9,0.3C464.4,214.3,464.1,214.2,463.8,214z
			 M465.7,213.3c0.3-0.3,0.4-0.6,0.4-1s-0.1-0.7-0.4-1c-0.3-0.3-0.6-0.4-1-0.4c-0.4,0-0.7,0.1-1,0.4c-0.3,0.3-0.4,0.6-0.4,1
			c0,0.4,0.1,0.8,0.4,1c0.3,0.3,0.6,0.4,1,0.4C465.1,213.8,465.4,213.6,465.7,213.3z"/>
	</g>
	<g>
		<g>
			<g>
				<path class="st4" d="M218.1,262.7c-6.4,0-11.6-5.2-11.6-11.6c0-2.6,1.8-6.6,5.4-11.9c2.6-3.8,5.1-6.8,5.2-6.9l1.1-1.3l1.1,1.3
					c0.1,0.1,2.6,3.2,5.2,6.9c3.6,5.2,5.4,9.2,5.4,11.9C229.7,257.5,224.5,262.7,218.1,262.7z M218.1,235.4c-3.2,4-8.9,12-8.9,15.7
					c0,4.9,4,8.9,8.9,8.9c4.9,0,8.9-4,8.9-8.9C227,247.4,221.3,239.4,218.1,235.4z"/>
			</g>
		</g>
		<g>
			<g>
				<path class="st4" d="M218.1,266.4c-5.3,0-10.3-0.3-14-1c-4.8-0.8-6.9-1.9-6.9-3.7c0-1,0-3.6,13.9-4.4l0.2,2.8
					c-5.8,0.4-9.2,1.1-10.7,1.7c2.1,0.8,8,1.9,17.5,1.9c9.6,0,15.4-1.1,17.5-1.9c-1.5-0.6-4.9-1.3-10.7-1.7l0.2-2.8
					c13.9,0.9,13.9,3.5,13.9,4.4c0,1.8-2.1,2.9-6.9,3.7C228.4,266,223.4,266.4,218.1,266.4z"/>
			</g>
		</g>
		<g>
			<g>
				<path class="st4" d="M190.2,258.2L190.2,258.2c-0.4-0.8,0-1.6,0.7-1.9c4.1-1.6,10.1-2.8,17.4-3.3l0.2,2.7
					c-6.9,0.5-12.8,1.7-16.6,3.2C191.3,259.2,190.5,258.9,190.2,258.2z"/>
			</g>
		</g>
		<g>
			<g>
				<path class="st4" d="M216.7,270.8c-11.6-0.1-27.1-2.1-30.7-6.9c-0.7-0.9,0-2.2,1.1-2.2l0,0c0.4,0,0.9,0.2,1.1,0.6
					c1.5,2.2,11.2,5.6,28.5,5.8c0.8,0,1.4,0.6,1.4,1.4l0,0C218.1,270.2,217.5,270.8,216.7,270.8z"/>
			</g>
		</g>
		<g>
			<g>
				<path class="st4" d="M227.3,269.1L227.3,269.1c-0.1-0.7,0.5-1.4,1.2-1.5c5.7-0.5,10.7-1.4,14.3-2.6c4.2-1.4,5.4-2.7,5.4-3.3
					c0-1.8-6.5-4.9-20.5-6l0.2-2.7c5.4,0.4,23,2.3,23,8.7c0,6-15.5,8.1-22.2,8.7C228.1,270.5,227.4,269.9,227.3,269.1z"/>
			</g>
		</g>
	</g>
</g>
</svg>
