<?xml version="1.0" encoding="utf-8"?>
<!-- Generator: Adobe Illustrator 22.1.0, SVG Export Plug-In . SVG Version: 6.00 Build 0)  -->
<svg version="1.1" id="Layer_1" xmlns="http://www.w3.org/2000/svg" xmlns:xlink="http://www.w3.org/1999/xlink" x="0px" y="0px"
	 viewBox="0 0 13 13" style="enable-background:new 0 0 13 13;" xml:space="preserve">
<style type="text/css">
	.st0{fill:#F7941E;}
</style>
<g>
	<path class="st0" d="M12.1,9.7c-0.6,1-1.4,1.8-2.4,2.4c-1,0.6-2.1,0.9-3.2,0.9s-2.3-0.3-3.2-0.9c-1-0.6-1.8-1.4-2.4-2.4
		S0,7.7,0,6.5s0.3-2.3,0.9-3.2s1.4-1.8,2.4-2.4S5.3,0,6.5,0s2.3,0.3,3.2,0.9s1.8,1.4,2.4,2.4S13,5.3,13,6.5S12.7,8.8,12.1,9.7z
		 M10.6,5.1c0.1-0.1,0.1-0.2,0.1-0.3c0-0.1,0-0.2-0.1-0.3L10,3.9C9.9,3.8,9.8,3.8,9.7,3.8s-0.2,0-0.3,0.1L5.5,7.9L3.6,6
		C3.5,5.9,3.4,5.9,3.3,5.9C3.2,5.9,3.1,5.9,3,6L2.4,6.6C2.4,6.7,2.3,6.8,2.3,6.9c0,0.1,0,0.2,0.1,0.3l2.7,2.7
		c0.1,0.1,0.2,0.1,0.3,0.1c0.1,0,0.2,0,0.3-0.1L10.6,5.1z"/>
</g>
<rect x="-77.7" y="-85.2" style="fill:none;" width="45" height="39.7"/>
<text transform="matrix(1 0 0 1 -77.6668 -75.1014)" style="font-family:'FontAwesome5ProSolid'; font-size:12px;"></text>
</svg>
