<?xml version="1.0" encoding="utf-8"?>
<!-- Generator: Adobe Illustrator 25.4.1, SVG Export Plug-In . SVG Version: 6.00 Build 0)  -->
<svg version="1.1" id="Layer_1" xmlns="http://www.w3.org/2000/svg" xmlns:xlink="http://www.w3.org/1999/xlink" x="0px" y="0px"
	 viewBox="0 0 543 242.5" style="enable-background:new 0 0 543 242.5;" xml:space="preserve">
<style type="text/css">
	.st0{fill:#C6E9FA;}
	.st1{opacity:0.7;fill:#C6E9FA;enable-background:new    ;}
	.st2{opacity:0.4;fill:#C6E9FA;enable-background:new    ;}
	.st3{opacity:0.1;fill:#C6E9FA;enable-background:new    ;}
	.st4{fill:#005E9C;}
	.st5{fill:none;stroke:#005E9C;stroke-miterlimit:10;}
</style>
<rect x="36.2" y="166.4" class="st0" width="494.3" height="47.6"/>
<rect x="36.2" y="118.6" class="st1" width="494.3" height="47.6"/>
<rect x="36.2" y="70.9" class="st2" width="494.3" height="47.6"/>
<rect x="36.2" y="23.1" class="st3" width="494.3" height="47.6"/>
<g>
	<path class="st4" d="M22.1,197.7l-10.9,0c-0.1,0-0.2-0.1-0.2-0.2l0-2.4c0-0.8,0.3-1.4,0.8-1.9c0.5-0.5,1.2-0.7,2.2-0.7l5.3,0
		c0.9,0,1.6,0.2,2.2,0.7c0.5,0.5,0.8,1.1,0.8,1.9l0,2.4C22.2,197.6,22.2,197.7,22.1,197.7z M21.5,196.8l0-1.6c0-0.5-0.2-0.9-0.6-1.2
		s-0.9-0.5-1.6-0.5l-5.3,0c-0.7,0-1.2,0.1-1.6,0.5c-0.4,0.3-0.6,0.7-0.6,1.3l0,1.6c0,0,0,0.1,0.1,0.1L21.5,196.8
		C21.5,196.8,21.5,196.8,21.5,196.8z"/>
	<path class="st4" d="M18.5,186.1l0,3.7c0,0,0,0.1,0.1,0.1l1.4,0c0.5,0,0.9-0.1,1.2-0.4s0.5-0.6,0.5-1.1c0-0.4-0.1-0.7-0.3-1
		s-0.5-0.4-0.9-0.5c-0.1,0-0.1-0.1-0.1-0.2l0-0.5c0,0,0-0.1,0-0.1c0,0,0.1,0,0.1,0h0.1c0.6,0.1,1,0.4,1.4,0.8
		c0.3,0.4,0.5,0.9,0.5,1.6c0,0.7-0.2,1.3-0.7,1.7s-1,0.7-1.7,0.7l-3.5,0c-0.7,0-1.3-0.2-1.7-0.7c-0.4-0.4-0.7-1-0.7-1.7
		c0-0.7,0.2-1.3,0.7-1.7c0.4-0.4,1-0.7,1.7-0.7l1.9,0C18.5,185.9,18.5,185.9,18.5,186.1z M15.3,189.4c0.3,0.3,0.7,0.4,1.2,0.4l1.2,0
		c0,0,0.1,0,0.1-0.1l0-2.9c0,0,0-0.1-0.1-0.1l-1.2,0c-0.5,0-0.9,0.1-1.2,0.4c-0.3,0.3-0.5,0.7-0.5,1.1
		C14.8,188.7,15,189.1,15.3,189.4z"/>
	<path class="st4" d="M14.8,176.4c0.5-0.4,1.1-0.5,1.9-0.5l5.4,0c0.1,0,0.2,0.1,0.2,0.2l0,0.5c0,0.1-0.1,0.2-0.2,0.2l-5.3,0
		c-0.6,0-1.1,0.1-1.4,0.4c-0.4,0.2-0.5,0.6-0.5,1c0,0.4,0.2,0.8,0.5,1.1c0.3,0.3,0.8,0.4,1.4,0.4l5.3,0c0.1,0,0.2,0.1,0.2,0.2l0,0.5
		c0,0.1-0.1,0.2-0.2,0.2l-5.3,0c-0.6,0-1.1,0.1-1.4,0.4s-0.5,0.6-0.5,1c0,0.4,0.2,0.8,0.5,1.1c0.3,0.3,0.8,0.4,1.4,0.4l5.3,0
		c0.1,0,0.2,0.1,0.2,0.2l0,0.5c0,0.1-0.1,0.2-0.2,0.2l-7.7,0c-0.1,0-0.2-0.1-0.2-0.2l0-0.5c0-0.1,0.1-0.2,0.2-0.2l0.6,0
		c0,0,0.1,0,0.1,0c0,0,0,0,0,0c-0.3-0.2-0.5-0.4-0.7-0.7c-0.1-0.3-0.2-0.6-0.2-0.9c0-0.4,0.1-0.8,0.3-1.1c0.2-0.3,0.5-0.5,0.9-0.7
		c0.1,0,0,0,0-0.1c-0.4-0.2-0.7-0.4-0.9-0.8c-0.2-0.3-0.3-0.7-0.3-1.1C14.1,177.2,14.3,176.7,14.8,176.4z"/>
	<path class="st4" d="M14.8,169.9c0.5-0.4,1.1-0.6,1.9-0.6l5.4,0c0.1,0,0.2,0.1,0.2,0.2l0,0.5c0,0.1-0.1,0.2-0.2,0.2l-0.6,0
		c0,0-0.1,0-0.1,0c0,0,0,0,0,0.1c0.6,0.4,0.9,1,0.9,1.9c0,0.6-0.2,1.1-0.5,1.5c-0.3,0.4-0.9,0.6-1.7,0.6c-0.9,0-1.5-0.3-2-0.7
		s-0.6-1.2-0.6-2l0-1.2c0,0,0-0.1-0.1-0.1l-0.7,0c-0.6,0-1.1,0.1-1.4,0.4c-0.4,0.3-0.5,0.6-0.5,1.1c0,0.4,0.1,0.7,0.4,1
		c0.2,0.3,0.5,0.4,0.9,0.5c0.1,0,0.2,0.1,0.2,0.2l0,0.6c0,0.1,0,0.1,0,0.1c0,0-0.1,0-0.1,0c-0.6-0.1-1.1-0.3-1.4-0.8
		c-0.4-0.4-0.5-1-0.5-1.6C14.1,170.9,14.3,170.3,14.8,169.9z M21.2,170.7c-0.3-0.3-0.7-0.5-1.3-0.5l-1.5,0c0,0-0.1,0-0.1,0.1l0,1.2
		c0,0.6,0.2,1,0.5,1.3c0.3,0.3,0.8,0.5,1.4,0.5c0.5,0,0.9-0.1,1.2-0.4s0.4-0.6,0.4-1C21.7,171.4,21.5,171,21.2,170.7z"/>
	<path class="st4" d="M14.8,163.2c0.4-0.4,1.1-0.5,1.8-0.5l5.5,0c0.1,0,0.2,0.1,0.2,0.2l0,0.5c0,0.1-0.1,0.2-0.2,0.2l-5.4,0
		c-0.6,0-1,0.1-1.3,0.4c-0.3,0.3-0.5,0.6-0.5,1.1c0,0.5,0.2,0.8,0.5,1.1c0.3,0.3,0.8,0.4,1.4,0.4l5.3,0c0.1,0,0.2,0.1,0.2,0.2l0,0.5
		c0,0.1-0.1,0.2-0.2,0.2l-7.7,0c-0.1,0-0.2-0.1-0.2-0.2l0-0.5c0-0.1,0.1-0.2,0.2-0.2l0.6,0c0,0,0,0,0,0c0,0,0,0,0-0.1
		c-0.6-0.4-0.9-0.9-0.9-1.7C14.1,164.1,14.3,163.6,14.8,163.2z"/>
	<path class="st4" d="M11.1,156.8l0-0.5c0-0.1,0.1-0.2,0.2-0.2l10.9,0c0.1,0,0.2,0.1,0.2,0.2l0,0.5c0,0.1-0.1,0.2-0.2,0.2l-0.4,0
		c0,0,0,0,0,0c0,0,0,0,0,0.1c0.2,0.2,0.4,0.4,0.6,0.7c0.1,0.3,0.2,0.6,0.2,0.9c0,0.7-0.2,1.2-0.7,1.6c-0.4,0.4-1,0.6-1.7,0.6l-3.5,0
		c-0.7,0-1.3-0.2-1.7-0.6c-0.4-0.4-0.7-0.9-0.7-1.6c0-0.3,0.1-0.6,0.2-0.9c0.1-0.3,0.3-0.5,0.6-0.7c0,0,0,0,0-0.1c0,0,0,0,0,0
		l-3.6,0C11.2,157,11.1,156.9,11.1,156.8z M21.2,157.4c-0.3-0.3-0.7-0.4-1.2-0.4l-3.4,0c-0.5,0-0.9,0.1-1.2,0.4
		c-0.3,0.3-0.5,0.6-0.5,1.1c0,0.5,0.2,0.8,0.5,1.1c0.3,0.3,0.7,0.4,1.2,0.4l3.4,0c0.5,0,0.9-0.1,1.2-0.4c0.3-0.3,0.5-0.7,0.5-1.1
		C21.7,158,21.5,157.7,21.2,157.4z"/>
	<path class="st4" d="M14.9,150.1c0.5-0.4,1.1-0.6,1.9-0.6l5.4,0c0.1,0,0.2,0.1,0.2,0.2l0,0.5c0,0.1-0.1,0.2-0.2,0.2l-0.6,0
		c0,0-0.1,0-0.1,0s0,0,0,0.1c0.6,0.4,0.9,1,0.9,1.9c0,0.6-0.2,1.1-0.5,1.5c-0.3,0.4-0.9,0.6-1.7,0.6c-0.9,0-1.5-0.3-2-0.7
		s-0.6-1.2-0.6-2l0-1.2c0,0,0-0.1-0.1-0.1l-0.7,0c-0.6,0-1.1,0.1-1.4,0.4c-0.4,0.3-0.5,0.6-0.5,1.1c0,0.4,0.1,0.7,0.3,1
		c0.2,0.3,0.5,0.4,0.9,0.5c0.1,0,0.2,0.1,0.2,0.2l0,0.6c0,0.1,0,0.1,0,0.1c0,0-0.1,0-0.1,0c-0.6-0.1-1.1-0.3-1.4-0.8
		c-0.4-0.4-0.5-1-0.5-1.6C14.1,151,14.4,150.5,14.9,150.1z M21.2,150.8c-0.3-0.3-0.7-0.5-1.3-0.5l-1.5,0c0,0-0.1,0-0.1,0.1l0,1.2
		c0,0.6,0.2,1,0.5,1.3c0.3,0.3,0.8,0.5,1.4,0.5c0.5,0,0.9-0.1,1.2-0.4c0.3-0.3,0.4-0.6,0.4-1C21.7,151.6,21.5,151.2,21.2,150.8z"/>
	<path class="st4" d="M11.1,140.5l0-0.5c0-0.1,0.1-0.2,0.2-0.2l10.9,0c0.1,0,0.2,0.1,0.2,0.2l0,0.5c0,0.1-0.1,0.2-0.2,0.2l-0.4,0
		c0,0,0,0,0,0c0,0,0,0,0,0.1c0.2,0.2,0.4,0.4,0.6,0.7c0.1,0.3,0.2,0.6,0.2,0.9c0,0.7-0.2,1.2-0.7,1.6c-0.4,0.4-1,0.6-1.7,0.6l-3.5,0
		c-0.7,0-1.3-0.2-1.7-0.6c-0.4-0.4-0.7-0.9-0.7-1.6c0-0.3,0.1-0.6,0.2-0.9c0.1-0.3,0.3-0.5,0.6-0.7c0,0,0,0,0-0.1c0,0,0,0,0,0
		l-3.6,0C11.2,140.6,11.1,140.6,11.1,140.5z M21.2,141.1c-0.3-0.3-0.7-0.4-1.2-0.4l-3.4,0c-0.5,0-0.9,0.1-1.2,0.4
		c-0.3,0.3-0.5,0.6-0.5,1.1c0,0.5,0.2,0.8,0.5,1.1c0.3,0.3,0.7,0.4,1.2,0.4l3.4,0c0.5,0,0.9-0.1,1.2-0.4c0.3-0.3,0.5-0.7,0.5-1.1
		C21.7,141.7,21.6,141.3,21.2,141.1z"/>
	<path class="st4" d="M18.6,133.2l0,3.7c0,0,0,0.1,0.1,0.1l1.4,0c0.5,0,0.9-0.1,1.2-0.4s0.5-0.6,0.5-1.1c0-0.4-0.1-0.7-0.3-1
		c-0.2-0.3-0.5-0.4-0.9-0.5c-0.1,0-0.1-0.1-0.1-0.2l0-0.5c0,0,0-0.1,0-0.1c0,0,0.1,0,0.1,0l0.1,0c0.6,0.1,1,0.4,1.4,0.8
		c0.3,0.4,0.5,0.9,0.5,1.6c0,0.7-0.2,1.3-0.7,1.7s-1,0.7-1.7,0.7l-3.5,0c-0.7,0-1.3-0.2-1.7-0.7c-0.4-0.4-0.7-1-0.7-1.7
		c0-0.7,0.2-1.3,0.7-1.7c0.4-0.4,1-0.7,1.7-0.7l1.9,0C18.6,133.1,18.6,133.1,18.6,133.2z M15.4,136.6c0.3,0.3,0.7,0.4,1.2,0.4l1.2,0
		c0,0,0.1,0,0.1-0.1l0-2.9c0,0,0-0.1-0.1-0.1l-1.2,0c-0.5,0-0.9,0.1-1.2,0.4s-0.5,0.7-0.5,1.1C14.9,135.9,15.1,136.3,15.4,136.6z"/>
	<path class="st4" d="M11.9,123.1l0,3.8c0,0,0,0.1,0.1,0.1l4.3,0c0,0,0.1,0,0.1-0.1l0-2.4c0-0.1,0.1-0.2,0.2-0.2l0.4,0
		c0.1,0,0.2,0.1,0.2,0.2l0,2.4c0,0,0,0.1,0.1,0.1l4.4,0c0,0,0.1,0,0.1-0.1l0-3.8c0-0.1,0.1-0.2,0.2-0.2l0.4,0c0.1,0,0.2,0.1,0.2,0.2
		l0,4.5c0,0.1-0.1,0.2-0.2,0.2l-10.9,0c-0.1,0-0.2-0.1-0.2-0.2l0-4.5c0-0.1,0.1-0.2,0.2-0.2l0.4,0C11.9,123,11.9,123,11.9,123.1z"/>
	<path class="st4" d="M14.9,117.1c0.4-0.4,1.1-0.5,1.8-0.5l5.5,0c0.1,0,0.2,0.1,0.2,0.2l0,0.5c0,0.1-0.1,0.2-0.2,0.2l-5.4,0
		c-0.6,0-1,0.1-1.3,0.4c-0.3,0.3-0.5,0.6-0.5,1.1c0,0.5,0.2,0.8,0.5,1.1c0.3,0.3,0.8,0.4,1.4,0.4l5.3,0c0.1,0,0.2,0.1,0.2,0.2l0,0.5
		c0,0.1-0.1,0.2-0.2,0.2l-7.7,0c-0.1,0-0.2-0.1-0.2-0.2l0-0.5c0-0.1,0.1-0.2,0.2-0.2l0.6,0c0,0,0,0,0,0c0,0,0,0,0-0.1
		c-0.6-0.4-0.9-0.9-0.9-1.7C14.2,117.9,14.4,117.4,14.9,117.1z"/>
	<path class="st4" d="M18.7,110.1l0,3.7c0,0,0,0.1,0.1,0.1l1.4,0c0.5,0,0.9-0.1,1.2-0.4c0.3-0.3,0.5-0.6,0.5-1.1
		c0-0.4-0.1-0.7-0.3-1c-0.2-0.3-0.5-0.4-0.9-0.5c-0.1,0-0.1-0.1-0.1-0.2l0-0.5c0,0,0-0.1,0-0.1s0.1,0,0.1,0l0.1,0
		c0.6,0.1,1,0.4,1.4,0.8c0.3,0.4,0.5,0.9,0.5,1.6c0,0.7-0.2,1.3-0.7,1.7s-1,0.7-1.7,0.7l-3.5,0c-0.7,0-1.3-0.2-1.7-0.7
		c-0.4-0.4-0.7-1-0.7-1.7c0-0.7,0.2-1.3,0.7-1.7s1-0.7,1.7-0.7l1.9,0C18.6,110,18.7,110,18.7,110.1z M15.4,113.4
		c0.3,0.3,0.7,0.4,1.2,0.4l1.2,0c0,0,0.1,0,0.1-0.1l0-2.9c0,0,0-0.1-0.1-0.1l-1.2,0c-0.5,0-0.9,0.1-1.2,0.4s-0.5,0.7-0.5,1.1
		C14.9,112.8,15.1,113.1,15.4,113.4z"/>
	<path class="st4" d="M14.4,104.9c0-0.1,0.1-0.1,0.2-0.1l0.5,0.1c0.1,0,0.1,0.1,0.1,0.2c-0.1,0.2-0.1,0.4-0.1,0.6
		c0,0.4,0.2,0.8,0.6,1c0.4,0.3,0.9,0.4,1.5,0.4l4.9,0c0.1,0,0.2,0.1,0.2,0.2l0,0.5c0,0.1-0.1,0.2-0.2,0.2l-7.7,0
		c-0.1,0-0.2-0.1-0.2-0.2l0-0.5c0-0.1,0.1-0.2,0.2-0.2l1,0c0,0,0,0,0,0s0,0,0,0c-0.4-0.2-0.7-0.4-0.9-0.6c-0.2-0.3-0.3-0.6-0.3-0.9
		C14.3,105.4,14.3,105.1,14.4,104.9z"/>
	<path class="st4" d="M14.3,99.8l0-0.5c0-0.1,0.1-0.2,0.2-0.2l7.8,0c1.1,0,1.9,0.3,2.5,0.8s0.8,1.3,0.8,2.4c0,0.1-0.1,0.2-0.2,0.2
		l-0.4,0c-0.1,0-0.2-0.1-0.2-0.2c0-0.8-0.2-1.4-0.7-1.7c-0.4-0.3-1.1-0.5-2-0.5l-0.6,0c0,0-0.1,0-0.1,0c0,0,0,0,0,0
		c0.3,0.2,0.5,0.4,0.6,0.7c0.1,0.3,0.2,0.6,0.2,0.9c0,0.7-0.2,1.2-0.7,1.6s-1,0.6-1.7,0.6l-3.5,0c-0.7,0-1.3-0.2-1.7-0.6
		c-0.4-0.4-0.7-0.9-0.7-1.6c0-0.3,0.1-0.7,0.2-0.9s0.4-0.5,0.6-0.7c0,0,0,0,0-0.1c0,0,0,0,0,0l-0.6,0C14.4,99.9,14.3,99.9,14.3,99.8
		z M21.3,100.4c-0.3-0.3-0.7-0.4-1.2-0.4l-3.4,0c-0.5,0-0.9,0.1-1.2,0.4c-0.3,0.3-0.5,0.6-0.5,1.1c0,0.4,0.2,0.8,0.5,1.1
		c0.3,0.3,0.7,0.4,1.2,0.4l3.4,0c0.5,0,0.9-0.1,1.2-0.4c0.3-0.3,0.5-0.7,0.5-1.1C21.7,101,21.6,100.6,21.3,100.4z"/>
	<path class="st4" d="M13.2,97.5c0,0-0.1,0-0.1,0l-1.8-1c-0.1-0.1-0.1-0.1-0.1-0.2l0-0.4c0-0.1,0-0.1,0.1-0.1s0.1,0,0.1,0l1.8,1.1
		c0.1,0.1,0.1,0.1,0.1,0.2v0.3C13.3,97.4,13.3,97.5,13.2,97.5z M22.3,97.3l-7.7,0c-0.1,0-0.2-0.1-0.2-0.2l0-0.5
		c0-0.1,0.1-0.2,0.2-0.2l7.7,0c0.1,0,0.2,0.1,0.2,0.2l0,0.5C22.4,97.3,22.4,97.3,22.3,97.3z"/>
	<path class="st4" d="M15,90.6c0.5-0.4,1.1-0.6,1.9-0.6l5.4,0c0.1,0,0.2,0.1,0.2,0.2l0,0.5c0,0.1-0.1,0.2-0.2,0.2l-0.6,0
		c0,0-0.1,0-0.1,0c0,0,0,0,0,0.1c0.6,0.4,0.9,1,0.9,1.9c0,0.6-0.2,1.1-0.5,1.5c-0.3,0.4-0.9,0.6-1.7,0.6c-0.9,0-1.5-0.3-2-0.7
		s-0.6-1.2-0.6-2l0-1.2c0,0,0-0.1-0.1-0.1l-0.7,0c-0.6,0-1.1,0.1-1.4,0.4c-0.4,0.3-0.5,0.6-0.5,1.1c0,0.4,0.1,0.7,0.4,1
		c0.2,0.3,0.5,0.4,0.9,0.5c0.1,0,0.2,0.1,0.2,0.2l0,0.6c0,0.1,0,0.1,0,0.1c0,0-0.1,0-0.1,0c-0.6-0.1-1.1-0.3-1.4-0.8
		c-0.4-0.4-0.5-1-0.5-1.6C14.2,91.6,14.5,91,15,90.6z M21.3,91.4C21,91,20.6,90.9,20,90.9l-1.5,0c0,0-0.1,0-0.1,0.1l0,1.2
		c0,0.6,0.1,1,0.5,1.3c0.3,0.3,0.8,0.5,1.4,0.5c0.5,0,0.9-0.1,1.2-0.4s0.4-0.6,0.4-1C21.8,92.1,21.6,91.7,21.3,91.4z"/>
	<path class="st4" d="M24,84.7c-0.8,0.4-1.8,0.7-3,0.9c-1.2,0.2-2.5,0.4-3.8,0.4c-1.3,0-2.6-0.1-3.9-0.4c-1.2-0.3-2.3-0.6-3.1-1
		c-0.1,0-0.1-0.1-0.1-0.2l0-0.5c0-0.1,0-0.1,0.1-0.1c0,0,0.1,0,0.1,0c0.8,0.3,1.9,0.6,3.1,0.9c1.2,0.2,2.5,0.3,3.8,0.3
		c1.3,0,2.5-0.1,3.7-0.3c1.2-0.2,2.2-0.5,3-0.8c0,0,0,0,0.1,0c0,0,0.1,0,0.1,0c0,0,0,0.1,0,0.1l0,0.5C24.1,84.6,24.1,84.6,24,84.7z"
		/>
	<path class="st4" d="M21.9,81.1c-0.5,0.5-1.1,0.7-1.9,0.7l-6.3,0c-0.8,0-1.4-0.2-1.9-0.7c-0.5-0.5-0.7-1.1-0.7-1.9
		c0-0.8,0.2-1.4,0.7-1.9c0.5-0.5,1.1-0.7,1.9-0.7l0.7,0c0.1,0,0.2,0.1,0.2,0.2l0,0.5c0,0.1-0.1,0.2-0.2,0.2l-0.7,0
		c-0.6,0-1,0.2-1.3,0.5c-0.3,0.3-0.5,0.7-0.5,1.3c0,0.5,0.2,1,0.5,1.3c0.3,0.3,0.8,0.5,1.3,0.5l6.3,0c0.6,0,1-0.2,1.3-0.5
		c0.3-0.3,0.5-0.7,0.5-1.3c0-0.5-0.2-1-0.5-1.3c-0.3-0.3-0.8-0.5-1.3-0.5l-2.3,0c0,0-0.1,0-0.1,0.1l0,1.5c0,0.1-0.1,0.2-0.2,0.2
		l-0.4,0c-0.1,0-0.2-0.1-0.2-0.2l0-2.3c0-0.1,0.1-0.2,0.2-0.2l2.9,0c0.8,0,1.4,0.2,1.9,0.7c0.5,0.5,0.7,1.1,0.7,1.9
		C22.6,80,22.3,80.6,21.9,81.1z"/>
	<path class="st4" d="M12.6,74.5c-0.1,0.1-0.3,0.2-0.6,0.2c-0.2,0-0.4-0.1-0.6-0.2c-0.1-0.1-0.2-0.3-0.2-0.6c0-0.2,0.1-0.4,0.2-0.6
		c0.2-0.1,0.3-0.2,0.6-0.2c0.2,0,0.4,0.1,0.6,0.2c0.1,0.1,0.2,0.3,0.2,0.6C12.8,74.2,12.7,74.4,12.6,74.5z M22.3,74.4l-7.7,0
		c-0.1,0-0.2-0.1-0.2-0.2l0-0.5c0-0.1,0.1-0.2,0.2-0.2l7.7,0c0.1,0,0.2,0.1,0.2,0.2l0,0.5C22.5,74.3,22.4,74.4,22.3,74.4z"/>
	<path class="st4" d="M14.4,67.4l0-0.5c0-0.1,0.1-0.2,0.2-0.2l7.8,0c1.1,0,1.9,0.3,2.5,0.8s0.8,1.3,0.8,2.4c0,0.1-0.1,0.2-0.2,0.2
		l-0.4,0c-0.1,0-0.2-0.1-0.2-0.2c0-0.8-0.2-1.4-0.7-1.7c-0.4-0.3-1.1-0.5-2-0.5l-0.6,0c0,0,0,0-0.1,0c0,0,0,0,0,0
		c0.3,0.2,0.5,0.4,0.6,0.7c0.1,0.3,0.2,0.6,0.2,0.9c0,0.7-0.2,1.2-0.7,1.6s-1,0.6-1.7,0.6l-3.5,0c-0.7,0-1.3-0.2-1.7-0.6
		c-0.4-0.4-0.7-0.9-0.7-1.6c0-0.3,0.1-0.7,0.2-0.9c0.2-0.3,0.4-0.5,0.6-0.7c0,0,0,0,0-0.1c0,0,0,0,0,0l-0.6,0
		C14.5,67.6,14.4,67.5,14.4,67.4z M21.3,68c-0.3-0.3-0.7-0.4-1.2-0.4l-3.4,0c-0.5,0-0.9,0.1-1.2,0.4C15.2,68.2,15,68.6,15,69
		c0,0.4,0.2,0.8,0.5,1.1c0.3,0.3,0.7,0.4,1.2,0.4l3.4,0c0.5,0,0.9-0.1,1.2-0.4c0.3-0.3,0.5-0.7,0.5-1.1C21.8,68.6,21.6,68.3,21.3,68
		z"/>
	<path class="st4" d="M15,60.8c0.5-0.4,1.1-0.6,1.9-0.6l5.4,0c0.1,0,0.2,0.1,0.2,0.2l0,0.5c0,0.1-0.1,0.2-0.2,0.2l-0.6,0
		c0,0-0.1,0-0.1,0c0,0,0,0,0,0.1c0.6,0.4,0.9,1,0.9,1.9c0,0.6-0.2,1.1-0.5,1.5c-0.3,0.4-0.9,0.6-1.7,0.6c-0.9,0-1.5-0.3-2-0.7
		s-0.6-1.2-0.6-2l0-1.2c0,0,0-0.1-0.1-0.1l-0.7,0c-0.6,0-1.1,0.1-1.4,0.4c-0.4,0.3-0.5,0.6-0.5,1.1c0,0.4,0.1,0.7,0.3,1
		c0.2,0.3,0.5,0.4,0.9,0.5c0.1,0,0.2,0.1,0.2,0.2l0,0.6c0,0.1,0,0.1,0,0.1c0,0-0.1,0-0.1,0c-0.6-0.1-1.1-0.3-1.4-0.8
		c-0.4-0.4-0.5-1-0.5-1.6C14.3,61.8,14.5,61.2,15,60.8z M21.4,61.6c-0.3-0.3-0.7-0.5-1.3-0.5l-1.5,0c0,0-0.1,0-0.1,0.1l0,1.2
		c0,0.6,0.2,1,0.5,1.3c0.3,0.3,0.8,0.5,1.4,0.5c0.5,0,0.9-0.1,1.2-0.4c0.3-0.3,0.4-0.6,0.4-1C21.9,62.4,21.7,62,21.4,61.6z"/>
	<path class="st4" d="M22.3,57l-7.7,2l0,0c-0.1,0-0.1-0.1-0.1-0.2l0-0.6c0-0.1,0-0.2,0.1-0.2l6.5-1.5c0,0,0,0,0,0s0,0,0,0l-6.5-1.5
		c-0.1,0-0.1-0.1-0.1-0.2l0-0.6c0-0.1,0-0.1,0-0.1s0.1,0,0.1,0l7.7,2c0.1,0,0.1,0.1,0.1,0.2l0,0.6C22.5,56.9,22.4,57,22.3,57z"/>
	<path class="st4" d="M15,48.7c0.5-0.4,1.1-0.6,1.9-0.6l5.4,0c0.1,0,0.2,0.1,0.2,0.2l0,0.5c0,0.1-0.1,0.2-0.2,0.2l-0.6,0
		c0,0-0.1,0-0.1,0c0,0,0,0,0,0.1c0.6,0.4,0.9,1,0.9,1.9c0,0.6-0.2,1.1-0.5,1.5c-0.3,0.4-0.9,0.6-1.7,0.6c-0.9,0-1.5-0.3-2-0.7
		c-0.4-0.5-0.6-1.2-0.6-2l0-1.2c0,0,0-0.1-0.1-0.1l-0.7,0c-0.6,0-1.1,0.1-1.4,0.4c-0.4,0.3-0.5,0.6-0.5,1.1c0,0.4,0.1,0.7,0.3,1
		c0.2,0.3,0.5,0.4,0.9,0.5c0.1,0,0.2,0.1,0.2,0.2l0,0.6c0,0.1,0,0.1,0,0.1c0,0-0.1,0-0.1,0c-0.6-0.1-1.1-0.3-1.4-0.8
		c-0.4-0.4-0.5-1-0.5-1.6C14.3,49.7,14.6,49.1,15,48.7z M21.4,49.4c-0.3-0.3-0.7-0.5-1.3-0.5l-1.5,0c0,0-0.1,0-0.1,0.1l0,1.2
		c0,0.6,0.2,1,0.5,1.3c0.3,0.3,0.8,0.5,1.4,0.5c0.5,0,0.9-0.1,1.2-0.4c0.3-0.3,0.4-0.6,0.4-1C21.9,50.2,21.7,49.8,21.4,49.4z"/>
	<path class="st4" d="M15.1,43.7l0,1.3c0,0,0,0.1,0.1,0.1l5.2,0c0.5,0,0.9-0.1,1.1-0.3c0.2-0.2,0.3-0.5,0.3-0.9v-0.2
		c0-0.1,0.1-0.2,0.2-0.2l0.4,0c0.1,0,0.2,0.1,0.2,0.2l0,0.3c0,0.6-0.1,1-0.4,1.4c-0.3,0.3-0.8,0.5-1.6,0.5l-5.4,0c0,0-0.1,0-0.1,0.1
		l0,0.7c0,0.1-0.1,0.2-0.2,0.2l-0.4,0c-0.1,0-0.2-0.1-0.2-0.2l0-0.7c0,0,0-0.1-0.1-0.1l-1.8,0c-0.1,0-0.2-0.1-0.2-0.2l0-0.5
		c0-0.1,0.1-0.2,0.2-0.2l1.8,0c0,0,0.1,0,0.1-0.1l0-1.3c0-0.1,0.1-0.2,0.2-0.2l0.4,0C15.1,43.5,15.1,43.6,15.1,43.7z"/>
	<path class="st4" d="M12.6,41.9c-0.1,0.1-0.3,0.2-0.6,0.2c-0.2,0-0.4-0.1-0.6-0.2c-0.1-0.1-0.2-0.3-0.2-0.6c0-0.2,0.1-0.4,0.2-0.6
		s0.3-0.2,0.6-0.2c0.2,0,0.4,0.1,0.6,0.2s0.2,0.3,0.2,0.6C12.8,41.6,12.8,41.8,12.6,41.9z M22.4,41.8l-7.7,0c-0.1,0-0.2-0.1-0.2-0.2
		l0-0.5c0-0.1,0.1-0.2,0.2-0.2l7.7,0c0.1,0,0.2,0.1,0.2,0.2l0,0.5C22.5,41.8,22.5,41.8,22.4,41.8z"/>
	<path class="st4" d="M22,38.2c-0.4,0.4-1,0.6-1.7,0.6l-3.5,0c-0.7,0-1.3-0.2-1.7-0.7s-0.7-1-0.7-1.7c0-0.7,0.2-1.3,0.7-1.7
		s1-0.7,1.7-0.7l3.5,0c0.7,0,1.3,0.2,1.7,0.7c0.4,0.4,0.7,1,0.7,1.7C22.7,37.2,22.4,37.8,22,38.2z M21.4,35.4
		c-0.3-0.3-0.7-0.4-1.2-0.4l-3.4,0c-0.5,0-0.9,0.1-1.2,0.4c-0.3,0.3-0.5,0.7-0.5,1.1c0,0.4,0.2,0.8,0.5,1.1c0.3,0.3,0.7,0.4,1.2,0.4
		l3.4,0c0.5,0,0.9-0.1,1.2-0.4c0.3-0.3,0.5-0.6,0.5-1.1C21.9,36,21.7,35.7,21.4,35.4z"/>
	<path class="st4" d="M22,31.9c-0.4,0.4-0.9,0.6-1.5,0.6h-0.1c-0.1,0-0.2-0.1-0.2-0.2v-0.5c0-0.1,0.1-0.2,0.2-0.2h0.1
		c0.4,0,0.7-0.1,1-0.4c0.3-0.3,0.4-0.6,0.4-1.1c0-0.4-0.1-0.8-0.4-1c-0.3-0.3-0.6-0.4-1-0.4c-0.3,0-0.6,0.1-0.8,0.2
		c-0.2,0.1-0.4,0.3-0.5,0.6c-0.1,0.2-0.3,0.5-0.4,0.9c-0.2,0.4-0.3,0.8-0.5,1c-0.2,0.3-0.4,0.5-0.7,0.7c-0.3,0.2-0.7,0.3-1.1,0.3
		c-0.7,0-1.2-0.2-1.6-0.6c-0.4-0.4-0.6-0.9-0.6-1.6c0-0.7,0.2-1.2,0.6-1.6c0.4-0.4,0.9-0.6,1.5-0.6h0c0.1,0,0.2,0.1,0.2,0.2v0.5
		c0,0.1-0.1,0.2-0.2,0.2l-0.1,0c-0.4,0-0.7,0.1-1,0.4c-0.3,0.3-0.4,0.6-0.4,1c0,0.4,0.1,0.8,0.4,1s0.6,0.4,1,0.4
		c0.3,0,0.5-0.1,0.7-0.2c0.2-0.1,0.3-0.3,0.5-0.5c0.1-0.2,0.3-0.5,0.4-0.9c0.2-0.4,0.4-0.8,0.5-1.1s0.4-0.5,0.7-0.7
		c0.3-0.2,0.7-0.3,1.1-0.3c0.6,0,1.2,0.2,1.5,0.6c0.4,0.4,0.6,1,0.6,1.6C22.6,30.9,22.4,31.4,22,31.9z"/>
	<path class="st4" d="M10.4,25.5c0.8-0.4,1.8-0.7,3-0.9c1.2-0.2,2.5-0.4,3.8-0.4c1.3,0,2.6,0.1,3.9,0.4c1.2,0.2,2.3,0.6,3.1,1
		c0.1,0,0.1,0.1,0.1,0.2l0,0.5c0,0.1,0,0.1-0.1,0.1c0,0-0.1,0-0.1,0c-0.8-0.4-1.8-0.6-3.1-0.9c-1.2-0.2-2.5-0.3-3.8-0.3
		c-1.3,0-2.5,0.1-3.7,0.3c-1.2,0.2-2.2,0.5-3,0.9l-0.1,0c-0.1,0-0.1,0-0.1-0.1l0-0.5C10.3,25.6,10.4,25.5,10.4,25.5z"/>
</g>
<polyline class="st5" points="531,220.4 29.8,220.4 29.8,2.6 "/>
<path class="st5" d="M29.8,100.7c0,0,16.9,22.5,50.6,22.3c70.5-0.6,76-87.2,133.6-86.9c56.8,0.3,54.5,15.8,129.7,15.1
	c41.5-0.4,47.6-29.1,92.5-30.3c25-0.7,62.6,7.2,94.2,78.1"/>
<g>
	<path class="st4" d="M64.9,231.3h0.4c0.1,0,0.1,0,0.1,0.1v8.2c0,0.1,0,0.1-0.1,0.1h-0.4c-0.1,0-0.1,0-0.1-0.1v-7.5l0,0l0,0l-1,0.5
		h-0.1c0,0,0,0-0.1,0c0,0,0,0,0-0.1v-0.3c0-0.1,0-0.1,0.1-0.1L64.9,231.3C64.8,231.4,64.8,231.3,64.9,231.3z"/>
	<path class="st4" d="M66.7,239.6v-0.4c0-0.1,0-0.1,0-0.2c0.1-0.1,0.1-0.2,0.2-0.3c0.2-0.3,0.5-0.8,0.9-1.5s0.7-1.2,1-1.7
		c0.5-0.9,0.8-1.7,0.8-2.3c0-0.4-0.1-0.8-0.3-1.1c-0.2-0.3-0.5-0.4-0.8-0.4s-0.6,0.1-0.8,0.4c-0.2,0.3-0.3,0.6-0.3,1.1v0.4
		c0,0.1,0,0.1-0.1,0.1h-0.4c-0.1,0-0.1,0-0.1-0.1v-0.5c0-0.6,0.2-1.1,0.5-1.5s0.8-0.6,1.3-0.6s1,0.2,1.3,0.6
		c0.3,0.4,0.5,0.9,0.5,1.5c0,0.7-0.3,1.6-0.9,2.6s-1.2,2.1-1.9,3.2l0,0l0,0h2.9c0.1,0,0.1,0,0.1,0.1v0.3c0,0.1,0,0.1-0.1,0.1h-3.6
		C66.7,239.7,66.7,239.7,66.7,239.6z"/>
	<path class="st4" d="M77.5,239.6l-0.3-1.6l0,0l0,0h-2.3l0,0l0,0l-0.3,1.6c0,0.1-0.1,0.1-0.1,0.1h-0.4H74v-0.1l1.8-8.2
		c0-0.1,0.1-0.1,0.1-0.1h0.5c0.1,0,0.1,0,0.1,0.1l1.8,8.2l0,0c0,0.1,0,0.1-0.1,0.1h-0.4C77.5,239.7,77.5,239.7,77.5,239.6z
		 M74.8,237.5L74.8,237.5h2.1l0,0l-1.1-5l0,0l0,0L74.8,237.5C74.8,237.4,74.8,237.4,74.8,237.5z"/>
	<path class="st4" d="M79.6,239.6v-8.2c0-0.1,0-0.1,0.1-0.1h0.4c0.1,0,0.1,0,0.1,0.1l1.4,3.5l0,0l0,0l1.4-3.5c0-0.1,0.1-0.1,0.1-0.1
		h0.4c0.1,0,0.1,0,0.1,0.1v8.2c0,0.1,0,0.1-0.1,0.1h-0.4c-0.1,0-0.1,0-0.1-0.1V233l0,0l0,0l-1.3,3.1c0,0.1-0.1,0.1-0.1,0.1
		c-0.1,0-0.1,0-0.1-0.1l-1.3-3.1l0,0l0,0v6.7c0,0.1,0,0.1-0.1,0.1h-0.4C79.6,239.7,79.6,239.7,79.6,239.6z"/>
</g>
<line class="st5" x1="74.4" y1="220.4" x2="74.4" y2="225.4"/>
<g>
	<path class="st4" d="M120.8,237.2c0,0.4,0,0.8-0.1,1.1c-0.1,0.5-0.3,0.8-0.6,1.1c-0.3,0.3-0.7,0.4-1.2,0.4s-0.9-0.1-1.2-0.4
		s-0.5-0.7-0.6-1.1c-0.1-0.3-0.1-0.6-0.1-0.9c0-0.1,0-0.1,0.1-0.1h0.4c0.1,0,0.1,0,0.1,0.1c0,0.4,0,0.6,0.1,0.8
		c0.1,0.4,0.2,0.6,0.4,0.8c0.2,0.2,0.5,0.3,0.8,0.3s0.6-0.1,0.8-0.3c0.2-0.2,0.4-0.4,0.4-0.8c0.1-0.3,0.1-0.6,0.1-1.1s0-0.9-0.1-1.2
		s-0.2-0.5-0.4-0.7c-0.2-0.2-0.4-0.2-0.7-0.2c-0.1,0-0.2,0-0.3,0h-0.1h-0.1l-0.2-0.2c0-0.1,0-0.1,0-0.2l1.7-2.7l0,0l0,0h-2.8
		c-0.1,0-0.1,0-0.1-0.1v-0.3c0-0.1,0-0.1,0.1-0.1h3.5c0.1,0,0.1,0,0.1,0.1v0.4c0,0,0,0.1,0,0.2l-1.6,2.5v0.1c0.4,0,0.7,0.2,0.9,0.4
		s0.4,0.6,0.5,0.9C120.7,236.2,120.8,236.7,120.8,237.2z"/>
	<path class="st4" d="M128.1,239.6l-0.3-1.6l0,0l0,0h-2.3l0,0l0,0l-0.3,1.6c0,0.1-0.1,0.1-0.1,0.1h-0.4h-0.1v-0.1l1.8-8.2
		c0-0.1,0.1-0.1,0.1-0.1h0.5c0.1,0,0.1,0,0.1,0.1l1.8,8.2l0,0c0,0.1,0,0.1-0.1,0.1h-0.4C128.1,239.7,128.1,239.7,128.1,239.6z
		 M125.4,237.5C125.4,237.5,125.5,237.5,125.4,237.5h2.1l0,0l-1.1-5l0,0l0,0L125.4,237.5C125.4,237.4,125.4,237.4,125.4,237.5z"/>
	<path class="st4" d="M130.2,239.6v-8.2c0-0.1,0-0.1,0.1-0.1h0.4c0.1,0,0.1,0,0.1,0.1l1.4,3.5l0,0l0,0l1.4-3.5
		c0-0.1,0.1-0.1,0.1-0.1h0.4c0.1,0,0.1,0,0.1,0.1v8.2c0,0.1,0,0.1-0.1,0.1H134c-0.1,0-0.1,0-0.1-0.1V233l0,0l0,0l-1.3,3.1
		c0,0.1-0.1,0.1-0.1,0.1c-0.1,0-0.1,0-0.1-0.1l-1.3-3.1l0,0l0,0v6.7c0,0.1,0,0.1-0.1,0.1h-0.4C130.3,239.7,130.2,239.7,130.2,239.6z
		"/>
</g>
<line class="st5" x1="126.3" y1="220.4" x2="126.3" y2="225.4"/>
<g>
	<path class="st4" d="M171.4,237.2c0,0.3,0,0.6-0.1,0.9c-0.1,0.6-0.3,1-0.6,1.3s-0.7,0.4-1.2,0.4s-0.8-0.1-1.1-0.4
		c-0.3-0.3-0.5-0.7-0.6-1.2c-0.1-0.3-0.1-0.6-0.1-1v-3.9c0-0.6,0.2-1.1,0.5-1.5s0.8-0.6,1.3-0.6s0.9,0.2,1.2,0.6
		c0.3,0.4,0.5,0.9,0.5,1.5v0.1c0,0.1,0,0.1-0.1,0.1h-0.4c-0.1,0-0.1,0-0.1-0.1v-0.1c0-0.4-0.1-0.8-0.3-1c-0.2-0.3-0.5-0.4-0.8-0.4
		c-0.4,0-0.6,0.1-0.9,0.4c-0.2,0.3-0.3,0.6-0.3,1v1.8l0,0l0,0c0.1-0.2,0.3-0.4,0.5-0.5s0.4-0.2,0.7-0.2c0.4,0,0.8,0.1,1.1,0.4
		s0.5,0.6,0.6,1.1C171.4,236.3,171.4,236.7,171.4,237.2z M170.8,237.2c0-0.4,0-0.7-0.1-1.1c-0.2-0.6-0.5-1-1.1-1s-0.9,0.3-1.1,1
		c-0.1,0.3-0.1,0.6-0.1,1.1c0,0.4,0,0.7,0.1,1c0.1,0.8,0.5,1.1,1.1,1.1s1-0.4,1.1-1.2C170.8,237.7,170.8,237.4,170.8,237.2z"/>
	<path class="st4" d="M178.5,239.6l-0.3-1.6l0,0l0,0h-2.3l0,0l0,0l-0.3,1.6c0,0.1-0.1,0.1-0.1,0.1h-0.4H175v-0.1l1.8-8.2
		c0-0.1,0.1-0.1,0.1-0.1h0.5c0.1,0,0.1,0,0.1,0.1l1.8,8.2l0,0c0,0.1,0,0.1-0.1,0.1h-0.4C178.6,239.7,178.5,239.7,178.5,239.6z
		 M175.9,237.5L175.9,237.5h2.1l0,0l-1.1-5l0,0l0,0L175.9,237.5C175.8,237.4,175.8,237.4,175.9,237.5z"/>
	<path class="st4" d="M180.6,239.6v-8.2c0-0.1,0-0.1,0.1-0.1h0.4c0.1,0,0.1,0,0.1,0.1l1.4,3.5l0,0l0,0l1.4-3.5
		c0-0.1,0.1-0.1,0.1-0.1h0.4c0.1,0,0.1,0,0.1,0.1v8.2c0,0.1,0,0.1-0.1,0.1h-0.4c-0.1,0-0.1,0-0.1-0.1V233l0,0l0,0l-1.3,3.1
		c0,0.1-0.1,0.1-0.1,0.1c-0.1,0-0.1,0-0.1-0.1l-1.3-3.1l0,0l0,0v6.7c0,0.1,0,0.1-0.1,0.1h-0.4C180.7,239.7,180.6,239.7,180.6,239.6z
		"/>
</g>
<line class="st5" x1="176.1" y1="220.4" x2="176.1" y2="225.4"/>
<g>
	<path class="st4" d="M221.5,237.8c0,0.6-0.2,1.1-0.5,1.5s-0.8,0.6-1.3,0.6s-0.9-0.2-1.2-0.6s-0.5-0.9-0.5-1.5v-0.1
		c0-0.1,0-0.1,0.1-0.1h0.4c0.1,0,0.1,0,0.1,0.1v0.1c0,0.4,0.1,0.8,0.3,1c0.2,0.3,0.5,0.4,0.8,0.4c0.4,0,0.6-0.1,0.9-0.4
		c0.2-0.3,0.3-0.6,0.3-1V236l0,0l0,0c-0.1,0.2-0.3,0.4-0.5,0.5s-0.4,0.2-0.7,0.2c-0.4,0-0.8-0.1-1.1-0.4c-0.3-0.3-0.5-0.6-0.6-1.1
		c-0.1-0.3-0.1-0.7-0.1-1.2c0-0.3,0-0.6,0.1-0.9c0.1-0.6,0.3-1,0.6-1.3s0.7-0.4,1.2-0.4s0.8,0.1,1.1,0.4c0.3,0.3,0.5,0.7,0.6,1.2
		c0.1,0.3,0.1,0.6,0.1,1L221.5,237.8z M220.8,235c0.1-0.3,0.1-0.6,0.1-1.1c0-0.4,0-0.7-0.1-1c-0.1-0.8-0.5-1.1-1.1-1.1
		s-1,0.4-1.1,1.2c0,0.3-0.1,0.6-0.1,0.9c0,0.4,0,0.7,0.1,1.1c0.2,0.6,0.5,1,1.1,1C220.3,236,220.6,235.7,220.8,235z"/>
	<path class="st4" d="M228.8,239.6l-0.3-1.6l0,0l0,0h-2.3l0,0l0,0l-0.3,1.6c0,0.1-0.1,0.1-0.1,0.1h-0.4h-0.1v-0.1l1.8-8.2
		c0-0.1,0.1-0.1,0.1-0.1h0.5c0.1,0,0.1,0,0.1,0.1l1.8,8.2l0,0c0,0.1,0,0.1-0.1,0.1H229C228.9,239.7,228.9,239.7,228.8,239.6z
		 M226.2,237.5L226.2,237.5h2.1l0,0l-1.1-5l0,0l0,0L226.2,237.5C226.2,237.4,226.2,237.4,226.2,237.5z"/>
	<path class="st4" d="M231,239.6v-8.2c0-0.1,0-0.1,0.1-0.1h0.4c0.1,0,0.1,0,0.1,0.1l1.4,3.5l0,0l0,0l1.4-3.5c0-0.1,0.1-0.1,0.1-0.1
		h0.4c0.1,0,0.1,0,0.1,0.1v8.2c0,0.1,0,0.1-0.1,0.1h-0.4c-0.1,0-0.1,0-0.1-0.1V233l0,0l0,0l-1.3,3.1c0,0.1-0.1,0.1-0.1,0.1
		c-0.1,0-0.1,0-0.1-0.1l-1.3-3.1l0,0l0,0v6.7c0,0.1,0,0.1-0.1,0.1h-0.4C231,239.7,231,239.7,231,239.6z"/>
</g>
<line class="st5" x1="226" y1="220.4" x2="226" y2="225.4"/>
<g>
	<path class="st4" d="M269.4,231.3h0.4c0.1,0,0.1,0,0.1,0.1v8.2c0,0.1,0,0.1-0.1,0.1h-0.4c-0.1,0-0.1,0-0.1-0.1v-7.5l0,0l0,0l-1,0.5
		h-0.1c0,0,0,0-0.1,0c0,0,0,0,0-0.1v-0.3c0-0.1,0-0.1,0.1-0.1l1.1-0.7L269.4,231.3z"/>
	<path class="st4" d="M271.2,239.6v-0.4c0-0.1,0-0.1,0-0.2c0.1-0.1,0.1-0.2,0.2-0.3c0.2-0.3,0.5-0.8,0.9-1.5s0.7-1.2,1-1.7
		c0.5-0.9,0.8-1.7,0.8-2.3c0-0.4-0.1-0.8-0.3-1.1c-0.2-0.3-0.5-0.4-0.8-0.4s-0.6,0.1-0.8,0.4c-0.2,0.3-0.3,0.6-0.3,1.1v0.4
		c0,0.1,0,0.1-0.1,0.1h-0.4c-0.1,0-0.1,0-0.1-0.1v-0.5c0-0.6,0.2-1.1,0.5-1.5s0.8-0.6,1.3-0.6s1,0.2,1.3,0.6
		c0.3,0.4,0.5,0.9,0.5,1.5c0,0.7-0.3,1.6-0.9,2.6s-1.2,2.1-1.9,3.2l0,0l0,0h2.9c0.1,0,0.1,0,0.1,0.1v0.3c0,0.1,0,0.1-0.1,0.1h-3.6
		C271.3,239.7,271.2,239.7,271.2,239.6z"/>
	<path class="st4" d="M282.1,231.9c0.3,0.4,0.5,1,0.5,1.7s-0.2,1.2-0.5,1.6s-0.8,0.6-1.3,0.6h-1.3l0,0v3.7c0,0.1,0,0.1-0.1,0.1H279
		c-0.1,0-0.1,0-0.1-0.1v-8.2c0-0.1,0-0.1,0.1-0.1h1.9C281.3,231.3,281.8,231.5,282.1,231.9z M281.6,234.8c0.2-0.3,0.4-0.7,0.4-1.2
		s-0.1-0.9-0.4-1.2c-0.2-0.3-0.6-0.5-0.9-0.5h-1.2l0,0v3.3l0,0h1.2C281.1,235.3,281.4,235.2,281.6,234.8z"/>
	<path class="st4" d="M284,239.6v-8.2c0-0.1,0-0.1,0.1-0.1h0.4c0.1,0,0.1,0,0.1,0.1l1.4,3.5l0,0l0,0l1.4-3.5c0-0.1,0.1-0.1,0.1-0.1
		h0.4c0.1,0,0.1,0,0.1,0.1v8.2c0,0.1,0,0.1-0.1,0.1h-0.4c-0.1,0-0.1,0-0.1-0.1V233l0,0l0,0l-1.3,3.1c0,0.1-0.1,0.1-0.1,0.1
		c-0.1,0-0.1,0-0.1-0.1l-1.3-3.1l0,0l0,0v6.7c0,0.1,0,0.1-0.1,0.1h-0.4C284,239.7,284,239.7,284,239.6z"/>
</g>
<line class="st5" x1="330.1" y1="220.4" x2="330.1" y2="225.4"/>
<line class="st5" x1="278.7" y1="220.4" x2="278.7" y2="225.4"/>
<g>
	<path class="st4" d="M321.4,239.6v-0.4c0-0.1,0-0.1,0-0.2c0.1-0.1,0.1-0.2,0.2-0.3c0.2-0.3,0.5-0.8,0.9-1.5s0.7-1.2,1-1.7
		c0.5-0.9,0.8-1.7,0.8-2.3c0-0.4-0.1-0.8-0.3-1.1c-0.2-0.3-0.5-0.4-0.8-0.4s-0.6,0.1-0.8,0.4c-0.2,0.3-0.3,0.6-0.3,1.1v0.4
		c0,0.1,0,0.1-0.1,0.1h-0.4c-0.1,0-0.1,0-0.1-0.1v-0.5c0-0.6,0.2-1.1,0.5-1.5s0.8-0.6,1.3-0.6s1,0.2,1.3,0.6s0.5,0.9,0.5,1.5
		c0,0.7-0.3,1.6-0.9,2.6s-1.2,2.1-1.9,3.2l0,0l0,0h2.9c0.1,0,0.1,0,0.1,0.1v0.3c0,0.1,0,0.1-0.1,0.1h-3.6
		C321.4,239.7,321.4,239.7,321.4,239.6z"/>
	<path class="st4" d="M332.2,231.9c0.3,0.4,0.5,1,0.5,1.7s-0.2,1.2-0.5,1.6c-0.3,0.4-0.8,0.6-1.3,0.6h-1.3l0,0v3.7
		c0,0.1,0,0.1-0.1,0.1H329c-0.1,0-0.1,0-0.1-0.1v-8.2c0-0.1,0-0.1,0.1-0.1h1.9C331.4,231.3,331.9,231.5,332.2,231.9z M331.8,234.8
		c0.2-0.3,0.4-0.7,0.4-1.2s-0.1-0.9-0.4-1.2c-0.2-0.3-0.6-0.5-0.9-0.5h-1.2l0,0v3.3l0,0h1.2C331.2,235.3,331.5,235.2,331.8,234.8z"
		/>
	<path class="st4" d="M334.1,239.6v-8.2c0-0.1,0-0.1,0.1-0.1h0.4c0.1,0,0.1,0,0.1,0.1l1.4,3.5l0,0l0,0l1.4-3.5
		c0-0.1,0.1-0.1,0.1-0.1h0.4c0.1,0,0.1,0,0.1,0.1v8.2c0,0.1,0,0.1-0.1,0.1h-0.4c-0.1,0-0.1,0-0.1-0.1V233l0,0l0,0l-1.3,3.1
		c0,0.1-0.1,0.1-0.1,0.1c-0.1,0-0.1,0-0.1-0.1l-1.3-3.1l0,0l0,0v6.7c0,0.1,0,0.1-0.1,0.1h-0.4C334.2,239.7,334.1,239.7,334.1,239.6z
		"/>
</g>
<g>
	<path class="st4" d="M375.3,236.9v0.3c0,0.1,0,0.1-0.1,0.1h-0.4l0,0v2.2c0,0.1,0,0.1-0.1,0.1h-0.4c-0.1,0-0.1,0-0.1-0.1v-2.2l0,0
		h-2.7c-0.1,0-0.1,0-0.1-0.1V237v-0.1l1.8-5.4c0-0.1,0.1-0.1,0.1-0.1h0.4c0.1,0,0.1,0,0.1,0.1l-1.8,5.3l0,0l0,0h2l0,0v-2
		c0-0.1,0-0.1,0.1-0.1h0.4c0.1,0,0.1,0,0.1,0.1v2l0,0h0.4C375.2,236.8,375.3,236.9,375.3,236.9z"/>
	<path class="st4" d="M382.2,231.9c0.3,0.4,0.5,1,0.5,1.7s-0.2,1.2-0.5,1.6c-0.3,0.4-0.8,0.6-1.3,0.6h-1.3l0,0v3.7
		c0,0.1,0,0.1-0.1,0.1H379c-0.1,0-0.1,0-0.1-0.1v-8.2c0-0.1,0-0.1,0.1-0.1h1.9C381.4,231.3,381.9,231.5,382.2,231.9z M381.8,234.8
		c0.2-0.3,0.4-0.7,0.4-1.2s-0.1-0.9-0.4-1.2c-0.2-0.3-0.6-0.5-0.9-0.5h-1.2l0,0v3.3l0,0h1.2C381.2,235.3,381.5,235.2,381.8,234.8z"
		/>
	<path class="st4" d="M384.1,239.6v-8.2c0-0.1,0-0.1,0.1-0.1h0.4c0.1,0,0.1,0,0.1,0.1l1.4,3.5l0,0l0,0l1.4-3.5
		c0-0.1,0.1-0.1,0.1-0.1h0.4c0.1,0,0.1,0,0.1,0.1v8.2c0,0.1,0,0.1-0.1,0.1h-0.4c-0.1,0-0.1,0-0.1-0.1V233l0,0l0,0l-1.3,3.1
		c0,0.1-0.1,0.1-0.1,0.1c-0.1,0-0.1,0-0.1-0.1l-1.3-3.1l0,0l0,0v6.7c0,0.1,0,0.1-0.1,0.1h-0.4C384.2,239.7,384.1,239.7,384.1,239.6z
		"/>
</g>
<g>
	<path class="st4" d="M425.3,237.2c0,0.3,0,0.6-0.1,0.9c-0.1,0.6-0.3,1-0.6,1.3c-0.3,0.3-0.7,0.4-1.2,0.4s-0.8-0.1-1.1-0.4
		c-0.3-0.3-0.5-0.7-0.6-1.2c-0.1-0.3-0.1-0.6-0.1-1v-3.9c0-0.6,0.2-1.1,0.5-1.5s0.8-0.6,1.3-0.6s0.9,0.2,1.2,0.6
		c0.3,0.4,0.5,0.9,0.5,1.5v0.1c0,0.1,0,0.1-0.1,0.1h-0.4c-0.1,0-0.1,0-0.1-0.1v-0.1c0-0.4-0.1-0.8-0.3-1c-0.2-0.3-0.5-0.4-0.8-0.4
		c-0.4,0-0.6,0.1-0.9,0.4c-0.2,0.3-0.3,0.6-0.3,1v1.8l0,0l0,0c0.1-0.2,0.3-0.4,0.5-0.5s0.4-0.2,0.7-0.2c0.4,0,0.8,0.1,1.1,0.4
		s0.5,0.6,0.6,1.1C425.3,236.3,425.3,236.7,425.3,237.2z M424.7,237.2c0-0.4,0-0.7-0.1-1.1c-0.2-0.6-0.5-1-1.1-1s-0.9,0.3-1.1,1
		c-0.1,0.3-0.1,0.6-0.1,1.1c0,0.4,0,0.7,0.1,1c0.1,0.8,0.5,1.1,1.1,1.1s1-0.4,1.1-1.2C424.7,237.7,424.7,237.4,424.7,237.2z"/>
	<path class="st4" d="M432.5,231.9c0.3,0.4,0.5,1,0.5,1.7s-0.2,1.2-0.5,1.6s-0.8,0.6-1.3,0.6h-1.3l0,0v3.7c0,0.1,0,0.1-0.1,0.1h-0.4
		c-0.1,0-0.1,0-0.1-0.1v-8.2c0-0.1,0-0.1,0.1-0.1h1.9C431.7,231.3,432.1,231.5,432.5,231.9z M432,234.8c0.2-0.3,0.4-0.7,0.4-1.2
		s-0.1-0.9-0.4-1.2c-0.2-0.3-0.6-0.5-0.9-0.5h-1.2l0,0v3.3l0,0h1.2C431.4,235.3,431.8,235.2,432,234.8z"/>
	<path class="st4" d="M434.4,239.6v-8.2c0-0.1,0-0.1,0.1-0.1h0.4c0.1,0,0.1,0,0.1,0.1l1.4,3.5l0,0l0,0l1.4-3.5
		c0-0.1,0.1-0.1,0.1-0.1h0.4c0.1,0,0.1,0,0.1,0.1v8.2c0,0.1,0,0.1-0.1,0.1h-0.4c-0.1,0-0.1,0-0.1-0.1V233l0,0l0,0l-1.3,3.1
		c0,0.1-0.1,0.1-0.1,0.1c-0.1,0-0.1,0-0.1-0.1L435,233l0,0l0,0v6.7c0,0.1,0,0.1-0.1,0.1h-0.4C434.4,239.7,434.4,239.7,434.4,239.6z"
		/>
</g>
<line class="st5" x1="380.2" y1="220.4" x2="380.2" y2="225.4"/>
<g>
	<path class="st4" d="M474.6,235.3c0.3,0.1,0.5,0.4,0.6,0.7c0.2,0.4,0.3,0.9,0.3,1.4c0,0.4-0.1,0.8-0.2,1.2s-0.3,0.7-0.6,0.9
		c-0.3,0.2-0.6,0.3-1,0.3s-0.7-0.1-1-0.3s-0.5-0.5-0.6-0.9s-0.2-0.7-0.2-1.2s0.1-1,0.2-1.3c0.1-0.4,0.4-0.6,0.7-0.8c0,0,0,0,0-0.1
		c-0.3-0.1-0.5-0.3-0.6-0.6c-0.2-0.3-0.3-0.8-0.3-1.3s0.1-0.9,0.3-1.2c0.1-0.3,0.3-0.5,0.6-0.6c0.3-0.1,0.6-0.2,0.9-0.2
		s0.6,0.1,0.9,0.2s0.5,0.4,0.6,0.6c0.2,0.3,0.3,0.8,0.3,1.3s-0.1,0.9-0.3,1.2C475.1,234.9,474.9,235.1,474.6,235.3
		C474.6,235.2,474.6,235.3,474.6,235.3z M472.7,234.4c0.2,0.4,0.5,0.6,1,0.6c0.2,0,0.4-0.1,0.6-0.2s0.3-0.3,0.4-0.5
		c0.1-0.3,0.2-0.6,0.2-1s-0.1-0.8-0.2-1s-0.2-0.3-0.4-0.4s-0.4-0.2-0.6-0.2c-0.4,0-0.8,0.2-1,0.6c-0.1,0.3-0.2,0.6-0.2,1
		C472.5,233.8,472.6,234.1,472.7,234.4z M474.9,237.4c0-0.5-0.1-0.8-0.2-1.1c-0.2-0.5-0.5-0.7-1-0.7c-0.2,0-0.4,0.1-0.6,0.2
		c-0.2,0.1-0.3,0.3-0.4,0.6s-0.2,0.7-0.2,1.1c0,0.4,0,0.7,0.1,1s0.2,0.5,0.4,0.7c0.2,0.2,0.4,0.2,0.6,0.2c0.3,0,0.5-0.1,0.7-0.3
		s0.3-0.4,0.4-0.7C474.9,238,474.9,237.7,474.9,237.4z"/>
	<path class="st4" d="M482.9,231.9c0.3,0.4,0.5,1,0.5,1.7s-0.2,1.2-0.5,1.6s-0.8,0.6-1.3,0.6h-1.3l0,0v3.7c0,0.1,0,0.1-0.1,0.1h-0.4
		c-0.1,0-0.1,0-0.1-0.1v-8.2c0-0.1,0-0.1,0.1-0.1h1.9C482.1,231.3,482.6,231.5,482.9,231.9z M482.4,234.8c0.2-0.3,0.4-0.7,0.4-1.2
		s-0.1-0.9-0.4-1.2c-0.2-0.3-0.6-0.5-0.9-0.5h-1.2l0,0v3.3l0,0h1.2C481.9,235.3,482.2,235.2,482.4,234.8z"/>
	<path class="st4" d="M484.8,239.6v-8.2c0-0.1,0-0.1,0.1-0.1h0.4c0.1,0,0.1,0,0.1,0.1l1.4,3.5l0,0l0,0l1.4-3.5
		c0-0.1,0.1-0.1,0.1-0.1h0.4c0.1,0,0.1,0,0.1,0.1v8.2c0,0.1,0,0.1-0.1,0.1h-0.4c-0.1,0-0.1,0-0.1-0.1V233l0,0l0,0l-1.3,3.1
		c0,0.1-0.1,0.1-0.1,0.1c-0.1,0-0.1,0-0.1-0.1l-1.3-3.1l0,0l0,0v6.7c0,0.1,0,0.1-0.1,0.1h-0.4C484.8,239.7,484.8,239.7,484.8,239.6z
		"/>
</g>
<line class="st5" x1="430.1" y1="220.4" x2="430.1" y2="225.4"/>
<g>
	<path class="st4" d="M521.2,231.3h0.4c0.1,0,0.1,0,0.1,0.1v8.2c0,0.1,0,0.1-0.1,0.1h-0.4c-0.1,0-0.1,0-0.1-0.1v-7.5l0,0l0,0l-1,0.5
		H520c0,0,0,0-0.1,0c0,0,0,0,0-0.1v-0.3c0-0.1,0-0.1,0.1-0.1L521.2,231.3C521.1,231.4,521.1,231.3,521.2,231.3z"/>
	<path class="st4" d="M523.5,239.3c-0.4-0.4-0.5-0.9-0.5-1.5v-4.5c0-0.6,0.2-1.1,0.5-1.5c0.4-0.4,0.8-0.6,1.4-0.6
		c0.6,0,1.1,0.2,1.4,0.6s0.5,0.9,0.5,1.5v4.5c0,0.6-0.2,1.1-0.5,1.5c-0.4,0.4-0.8,0.6-1.4,0.6C524.3,239.9,523.8,239.7,523.5,239.3z
		 M525.9,238.9c0.2-0.3,0.4-0.6,0.4-1.1v-4.6c0-0.4-0.1-0.8-0.4-1.1s-0.6-0.4-1-0.4s-0.7,0.1-0.9,0.4s-0.4,0.6-0.4,1.1v4.6
		c0,0.4,0.1,0.8,0.4,1.1s0.6,0.4,0.9,0.4C525.3,239.3,525.6,239.1,525.9,238.9z"/>
	<path class="st4" d="M534,231.9c0.3,0.4,0.5,1,0.5,1.7s-0.2,1.2-0.5,1.6c-0.3,0.4-0.8,0.6-1.3,0.6h-1.3l0,0v3.7
		c0,0.1,0,0.1-0.1,0.1h-0.4c-0.1,0-0.1,0-0.1-0.1v-8.2c0-0.1,0-0.1,0.1-0.1h1.9C533.2,231.3,533.7,231.5,534,231.9z M533.5,234.8
		c0.2-0.3,0.4-0.7,0.4-1.2s-0.1-0.9-0.4-1.2c-0.2-0.3-0.6-0.5-0.9-0.5h-1.2l0,0v3.3l0,0h1.2C533,235.3,533.3,235.2,533.5,234.8z"/>
	<path class="st4" d="M535.9,239.6v-8.2c0-0.1,0-0.1,0.1-0.1h0.4c0.1,0,0.1,0,0.1,0.1l1.4,3.5l0,0l0,0l1.4-3.5
		c0-0.1,0.1-0.1,0.1-0.1h0.4c0.1,0,0.1,0,0.1,0.1v8.2c0,0.1,0,0.1-0.1,0.1h-0.4c-0.1,0-0.1,0-0.1-0.1V233l0,0l0,0l-1.3,3.1
		c0,0.1-0.1,0.1-0.1,0.1c-0.1,0-0.1,0-0.1-0.1l-1.3-3.1l0,0l0,0v6.7c0,0.1,0,0.1-0.1,0.1H536C535.9,239.7,535.9,239.7,535.9,239.6z"
		/>
</g>
<line class="st5" x1="530.5" y1="220.4" x2="530.5" y2="225.4"/>
<line class="st5" x1="480.3" y1="220.4" x2="480.3" y2="225.4"/>
</svg>
