<svg xmlns="http://www.w3.org/2000/svg" xmlns:xlink="http://www.w3.org/1999/xlink" viewBox="0 0 204.87 450.08"><defs><style>.cls-1{isolation:isolate;}.cls-2{fill:#c7eafb;}.cls-3,.cls-6{fill:#00b3f0;}.cls-3{opacity:0.2;}.cls-3,.cls-4{mix-blend-mode:multiply;}.cls-4{fill:url(#linear-gradient);}.cls-5{fill:#005e9e;}.cls-7{fill:#ffde17;}.cls-8{fill:none;stroke:#c7eafb;stroke-linecap:round;stroke-miterlimit:10;stroke-width:3px;}</style><linearGradient id="linear-gradient" x1="1001.93" y1="3537.76" x2="1079.53" y2="3537.76" gradientTransform="translate(-993.66 -3327.18)" gradientUnits="userSpaceOnUse"><stop offset="0" stop-color="#c7eafb"/><stop offset="0.03" stop-color="#c7eafb" stop-opacity="0.89"/><stop offset="0.09" stop-color="#c7eafb" stop-opacity="0.7"/><stop offset="0.16" stop-color="#c7eafb" stop-opacity="0.53"/><stop offset="0.23" stop-color="#c7eafb" stop-opacity="0.39"/><stop offset="0.31" stop-color="#c7eafb" stop-opacity="0.27"/><stop offset="0.39" stop-color="#c7eafb" stop-opacity="0.17"/><stop offset="0.49" stop-color="#c7eafb" stop-opacity="0.09"/><stop offset="0.6" stop-color="#c7eafb" stop-opacity="0.04"/><stop offset="0.73" stop-color="#c7eafb" stop-opacity="0.01"/><stop offset="1" stop-color="#c7eafb" stop-opacity="0"/></linearGradient></defs><title>Artboard 13</title><g class="cls-1"><g id="Layer_1" data-name="Layer 1"><rect class="cls-2" width="94.13" height="385.88" rx="7.44" ry="7.44" transform="translate(94.13 385.88) rotate(180)"/><path class="cls-3" d="M42.78,226.06A12,12,0,0,0,50,223.65V204.33a12,12,0,0,0-13.58-.59v20.49A12,12,0,0,0,42.78,226.06Z"/><rect class="cls-4" x="8.26" y="163.51" width="77.6" height="94.13" transform="translate(-163.51 257.64) rotate(-90)"/><path class="cls-5" d="M53.15,214a4.2,4.2,0,0,0,4.19,4.19h4.2v-8.39h-4.2A4.2,4.2,0,0,0,53.15,214Z"/><path class="cls-6" d="M42.78,230.41A12,12,0,0,0,50,228V208.68a12,12,0,0,0-13.58-.59v20.5A12,12,0,0,0,42.78,230.41Z"/><rect class="cls-2" x="42.18" y="219.17" width="2.27" height="9.98" transform="translate(-180.85 267.47) rotate(-90)"/><rect class="cls-2" x="42.18" y="207.47" width="2.27" height="8.02" transform="translate(-168.18 254.79) rotate(-90)"/><path class="cls-3" d="M42.78,190.88A12,12,0,0,0,50,188.47V169.15a12,12,0,0,0-13.58-.59v20.5A12,12,0,0,0,42.78,190.88Z"/><path class="cls-5" d="M53.15,178.81a4.2,4.2,0,0,0,4.19,4.2h4.2v-8.4h-4.2A4.2,4.2,0,0,0,53.15,178.81Z"/><path class="cls-6" d="M42.78,195.24A12,12,0,0,0,50,192.82V173.5a12,12,0,0,0-13.58-.58v20.49A12,12,0,0,0,42.78,195.24Z"/><rect class="cls-2" x="42.18" y="184" width="2.27" height="9.98" transform="translate(-145.68 232.29) rotate(-90)"/><rect class="cls-2" x="42.18" y="172.3" width="2.27" height="8.02" transform="translate(-133 219.62) rotate(-90)"/><path class="cls-3" d="M42.78,155.71A12,12,0,0,0,50,153.29V134a12,12,0,0,0-13.58-.59v20.49A12,12,0,0,0,42.78,155.71Z"/><path class="cls-5" d="M53.15,143.63a4.2,4.2,0,0,0,4.19,4.2h4.2v-8.39h-4.2A4.2,4.2,0,0,0,53.15,143.63Z"/><path class="cls-6" d="M42.78,160.06A12,12,0,0,0,50,157.65V138.33a12,12,0,0,0-13.58-.59v20.49A12,12,0,0,0,42.78,160.06Z"/><rect class="cls-2" x="42.18" y="148.82" width="2.27" height="9.98" transform="translate(-110.5 197.12) rotate(-90)"/><rect class="cls-2" x="42.18" y="137.12" width="2.27" height="8.02" transform="translate(-97.82 184.44) rotate(-90)"/><path class="cls-3" d="M42.78,120.53A12,12,0,0,0,50,118.12V98.8a12,12,0,0,0-13.58-.59V118.7A11.91,11.91,0,0,0,42.78,120.53Z"/><path class="cls-5" d="M53.15,108.46a4.2,4.2,0,0,0,4.19,4.2h4.2v-8.4h-4.2A4.2,4.2,0,0,0,53.15,108.46Z"/><path class="cls-7" d="M42.78,124.88A12,12,0,0,0,50,122.47V103.15a12,12,0,0,0-13.58-.59v20.5A12,12,0,0,0,42.78,124.88Z"/><rect class="cls-2" x="42.18" y="113.64" width="2.27" height="9.98" transform="translate(-75.32 161.94) rotate(-90)"/><rect class="cls-2" x="42.18" y="101.95" width="2.27" height="8.02" transform="translate(-62.65 149.26) rotate(-90)"/><path class="cls-3" d="M42.78,85.36A12,12,0,0,0,50,82.94V63.62A12,12,0,0,0,36.42,63V83.53A12,12,0,0,0,42.78,85.36Z"/><path class="cls-5" d="M53.15,73.28a4.2,4.2,0,0,0,4.19,4.2h4.2v-8.4h-4.2A4.2,4.2,0,0,0,53.15,73.28Z"/><path class="cls-7" d="M42.78,89.71A12,12,0,0,0,50,87.29V68a12,12,0,0,0-13.58-.59V87.88A12,12,0,0,0,42.78,89.71Z"/><rect class="cls-2" x="42.18" y="78.47" width="2.27" height="9.98" transform="translate(-40.15 126.77) rotate(-90)"/><rect class="cls-2" x="42.18" y="66.77" width="2.27" height="8.02" transform="translate(-27.47 114.09) rotate(-90)"/><path class="cls-3" d="M42.78,50A12,12,0,0,0,50,47.58V28.26a12,12,0,0,0-13.58-.59v20.5A12,12,0,0,0,42.78,50Z"/><path class="cls-5" d="M53.15,37.92a4.2,4.2,0,0,0,4.19,4.2h4.2v-8.4h-4.2A4.2,4.2,0,0,0,53.15,37.92Z"/><path class="cls-7" d="M42.88,50a12,12,0,0,0,7.22-2.41V28.26a12,12,0,0,0-13.59-.59v20.5A12,12,0,0,0,42.88,50Z"/><rect class="cls-5" x="42.27" y="38.75" width="2.27" height="9.98" transform="translate(-0.34 87.15) rotate(-90)"/><rect class="cls-5" x="42.27" y="27.06" width="2.27" height="8.02" transform="translate(12.34 74.47) rotate(-90)"/><path class="cls-6" d="M11.42,319.17h3a0,0,0,0,1,0,0v24.37a1.52,1.52,0,0,1-1.52,1.52h0a1.52,1.52,0,0,1-1.52-1.52V319.17A0,0,0,0,1,11.42,319.17Z" transform="translate(-319.17 345.07) rotate(-90)"/><path class="cls-6" d="M11.42,310.13h3a0,0,0,0,1,0,0V334.5A1.52,1.52,0,0,1,12.95,336h0a1.52,1.52,0,0,1-1.52-1.52V310.13a0,0,0,0,1,0,0Z" transform="translate(-310.13 336.03) rotate(-90)"/><path class="cls-6" d="M11.42,301.17h3a0,0,0,0,1,0,0v24.37a1.52,1.52,0,0,1-1.52,1.52h0a1.52,1.52,0,0,1-1.52-1.52V301.17a0,0,0,0,1,0,0Z" transform="translate(-301.17 327.07) rotate(-90)"/><path class="cls-6" d="M62.42,385.88v1.73s11.15-.65,18.1,4.46v-6.19Z"/><path class="cls-2" d="M193.13,57.31V312.6h-16.5V57.31a23.21,23.21,0,1,0-46.42,0V403.9A46.24,46.24,0,0,1,84,450.08H63.83A46.24,46.24,0,0,1,17.65,403.9v-18H34.14v18a29.73,29.73,0,0,0,29.69,29.69H84a29.73,29.73,0,0,0,29.69-29.69V57.31a39.71,39.71,0,0,1,79.42,0Z"/><rect class="cls-2" x="182.72" y="299.41" width="4.33" height="26.37" rx="1.16" ry="1.16" transform="translate(-127.72 497.48) rotate(-90)"/><polygon class="cls-2" points="196.56 314.12 202.5 333.47 167.26 333.47 173.2 314.12 196.56 314.12"/><path class="cls-2" d="M179.58,318.78H188a2.13,2.13,0,0,1,2.13,2.13v35.71a2.13,2.13,0,0,1-2.13,2.13h-8.47a0,0,0,0,1,0,0v-40A0,0,0,0,1,179.58,318.78Z" transform="translate(-153.89 523.65) rotate(-90)"/><rect class="cls-2" x="163.5" y="354.56" width="25.35" height="2.12" transform="translate(-179.45 531.79) rotate(-90)"/><rect class="cls-2" x="180.92" y="354.56" width="25.35" height="2.12" transform="translate(-162.03 549.21) rotate(-90)"/><line class="cls-8" x1="174.51" y1="307.12" x2="195.25" y2="307.12"/><line class="cls-8" x1="174.51" y1="303.32" x2="195.25" y2="303.32"/><line class="cls-8" x1="174.51" y1="299.52" x2="195.25" y2="299.52"/></g></g></svg>